<svg width="22" height="22" viewBox="0 0 22 22" fill="none" xmlns="http://www.w3.org/2000/svg">
<g id="Group">
<path id="Vector" d="M10.6577 0.919922C16.1677 0.919922 20.6377 5.3899 20.6377 10.8999C20.6377 16.4099 16.1677 20.8799 10.6577 20.8799C5.14771 20.8799 0.677734 16.4099 0.677734 10.8999C0.677734 5.3799 5.14771 0.919922 10.6577 0.919922Z" stroke="white" stroke-width="0.8456" stroke-miterlimit="10"/>
<path id="Vector_2" fill-rule="evenodd" clip-rule="evenodd" d="M13.028 15.4995C12.648 15.6695 12.2779 15.8393 11.8979 16.0093C11.3579 14.7393 10.8079 13.4892 10.2579 12.2192C9.55793 12.8792 8.86797 13.5395 8.16797 14.2095C8.16797 11.3895 8.16797 8.58953 8.16797 5.76953C10.218 7.68953 12.248 9.58951 14.308 11.4995C13.308 11.5895 12.3279 11.6693 11.3379 11.7593C11.8979 13.0093 12.458 14.2495 13.028 15.4995Z" fill="white"/>
</g>
</svg>
