<svg width="20" height="21" viewBox="0 0 20 21" fill="none" xmlns="http://www.w3.org/2000/svg">
<g id="XMLID_2080_">
<path id="XMLID_2082_" d="M10.2205 20.0288C5.09046 20.0288 0.94043 15.8685 0.94043 10.7485V10.0088C0.94043 4.87879 5.10046 0.728516 10.2205 0.728516C15.3505 0.728516 19.5004 4.88879 19.5004 10.0088V10.7485C19.5004 15.8685 15.3405 20.0288 10.2205 20.0288Z" stroke="white" stroke-width="0.7459" stroke-miterlimit="10"/>
<path id="XMLID_2081_" d="M8.80042 16.2085H11.0604V10.3286H12.6404L12.8104 8.35889H11.0704C11.0704 8.35889 11.0704 7.61877 11.0704 7.23877C11.0704 6.77877 11.1605 6.58887 11.5905 6.58887C11.9405 6.58887 12.8104 6.58887 12.8104 6.58887V4.54883C12.8104 4.54883 11.5204 4.54883 11.2504 4.54883C9.57037 4.54883 8.81042 5.31857 8.81042 6.78857C8.81042 8.06857 8.81042 8.35889 8.81042 8.35889H7.63037V10.3486H8.81042V16.2085H8.80042Z" fill="white"/>
</g>
</svg>
