<svg width="121" height="137" viewBox="0 0 121 137" fill="none" xmlns="http://www.w3.org/2000/svg">
<g id="Vector">
<path d="M0.189667 98.6323H4.83969V101.283C5.79969 99.2327 7.64969 98.2124 10.3997 98.2124C11.6797 98.2124 12.8397 98.5125 13.8797 99.1025C14.9197 99.6925 15.7297 100.542 16.3097 101.632C16.9397 100.492 17.7397 99.6423 18.6997 99.0723C19.6697 98.5023 20.9197 98.2227 22.4597 98.2227C23.7597 98.2227 24.9397 98.5326 25.9897 99.1426C27.0397 99.7626 27.8697 100.633 28.4697 101.763C29.0797 102.893 29.3797 104.202 29.3797 105.692V116.792H24.6597V106.842C24.6597 105.332 24.3297 104.202 23.6797 103.462C23.0297 102.722 22.1397 102.342 21.0197 102.342C19.8297 102.342 18.9197 102.683 18.2797 103.353C17.6397 104.033 17.3197 105.192 17.3197 106.842V116.792H12.5997V106.842C12.5997 105.332 12.2497 104.202 11.5497 103.462C10.8497 102.722 9.89969 102.342 8.67969 102.342C7.60969 102.342 6.70969 102.723 5.98969 103.473C5.26968 104.233 4.90967 105.352 4.90967 106.842V116.792H0.189667V98.6323Z" fill="white"/>
<path d="M35.8097 115.962C34.3897 115.112 33.2797 113.972 32.4897 112.522C31.6997 111.082 31.2997 109.483 31.2997 107.743C31.2997 106.023 31.7097 104.422 32.5197 102.962C33.3397 101.492 34.4597 100.333 35.8897 99.4727C37.3197 98.6127 38.9197 98.1826 40.6997 98.1826C42.4697 98.1826 44.0597 98.6127 45.4697 99.4727C46.8797 100.333 47.9697 101.492 48.7597 102.942C49.5397 104.392 49.9297 105.993 49.9297 107.743C49.9297 108.323 49.8797 108.883 49.7897 109.413H36.1997C36.4797 110.503 37.0097 111.382 37.7897 112.042C38.5697 112.702 39.5397 113.033 40.7097 113.033C41.6897 113.033 42.5597 112.803 43.3297 112.353C44.0997 111.903 44.6997 111.312 45.1497 110.592L48.8197 113.353C48.0697 114.513 46.9797 115.453 45.5297 116.163C44.0897 116.873 42.4797 117.223 40.7097 117.223C38.8597 117.233 37.2297 116.812 35.8097 115.962ZM45.1697 105.893C44.8897 104.843 44.3397 103.972 43.5297 103.272C42.7097 102.572 41.7497 102.223 40.6297 102.223C39.5297 102.223 38.5897 102.562 37.7797 103.232C36.9797 103.912 36.4497 104.792 36.1897 105.882H45.1697V105.893Z" fill="white"/>
<path d="M56.7097 108.163V116.783H51.9897V91.3027H56.7097V105.962L63.5297 98.6323H70.2397L61.6797 107.083L70.2797 116.783H64.0197L56.7097 108.163Z" fill="white"/>
<path d="M72.9897 115.962C71.6097 115.112 70.5297 113.972 69.7197 112.522C68.9197 111.082 68.5097 109.502 68.5097 107.772C68.5097 106.052 68.9097 104.463 69.7197 103.013C70.5197 101.563 71.6097 100.402 72.9897 99.5425C74.3597 98.6825 75.8697 98.2524 77.4997 98.2524C78.9897 98.2524 80.1997 98.5323 81.1197 99.0923C82.0397 99.6523 82.7597 100.452 83.2697 101.502V98.6426H87.9497V116.792H83.3697V113.822C82.8297 114.912 82.1097 115.763 81.1897 116.353C80.2697 116.943 79.0397 117.243 77.4997 117.243C75.8697 117.233 74.3697 116.812 72.9897 115.962ZM73.8797 110.342C74.3097 111.142 74.9097 111.783 75.6597 112.263C76.4197 112.743 77.2797 112.982 78.2597 112.982C79.2597 112.982 80.1497 112.753 80.9297 112.283C81.7097 111.823 82.3097 111.192 82.7297 110.402C83.1497 109.612 83.3597 108.743 83.3597 107.783C83.3597 106.833 83.1497 105.952 82.7297 105.152C82.3097 104.352 81.7097 103.712 80.9297 103.232C80.1497 102.752 79.2597 102.513 78.2597 102.513C77.2797 102.513 76.4097 102.752 75.6397 103.232C74.8697 103.712 74.2797 104.342 73.8597 105.132C73.4397 105.922 73.2297 106.792 73.2297 107.752C73.2397 108.672 73.4497 109.542 73.8797 110.342Z" fill="white"/>
<path d="M90.7497 98.6322H95.3297V102.092C95.6597 100.762 96.2897 99.7622 97.2397 99.0922C98.1797 98.4222 99.4197 98.1325 100.96 98.2225V102.652H100.3C98.8997 102.652 97.7497 103.092 96.8397 103.962C95.9297 104.832 95.4797 106.012 95.4797 107.502V116.783H90.7597V98.6322H90.7497Z" fill="white"/>
<path d="M107.24 108.163V116.783H102.52V91.3027H107.24V105.962L114.05 98.6323H120.76L112.2 107.083L120.8 116.783H114.54L107.24 108.163Z" fill="white"/>
<path d="M0.36969 134.263V133.772H1.26968V134.333C1.26968 135.123 1.64967 135.493 2.25967 135.493C2.87967 135.493 3.25967 135.122 3.25967 134.322C3.25967 133.512 2.92968 133.003 1.94968 132.163C0.769677 131.163 0.379669 130.462 0.379669 129.482C0.379669 128.172 1.05967 127.402 2.28967 127.402C3.51967 127.402 4.15967 128.173 4.15967 129.513V129.862H3.25967V129.453C3.25967 128.663 2.90967 128.292 2.28967 128.292C1.67967 128.292 1.31967 128.662 1.31967 129.422C1.31967 130.142 1.65968 130.643 2.66968 131.493C3.83968 132.493 4.20969 133.192 4.20969 134.252C4.20969 135.612 3.51969 136.382 2.27969 136.382C1.01969 136.382 0.36969 135.613 0.36969 134.263Z" fill="white"/>
<path d="M7.21967 128.413H5.70969V127.522H9.66968V128.413H8.15967V136.252H7.20969V128.413H7.21967Z" fill="white"/>
<path d="M13.3397 127.533C14.6897 127.533 15.2597 128.153 15.2597 129.513V130.053C15.2597 131.013 14.9597 131.583 14.2697 131.812V131.822C14.9897 132.012 15.2697 132.623 15.2697 133.643V135.203C15.2697 135.603 15.2797 135.953 15.3897 136.263H14.4297C14.3597 136.013 14.3197 135.793 14.3197 135.203V133.592C14.3197 132.642 13.9897 132.322 13.1897 132.322H12.4197V136.263H11.4697V127.533H13.3397ZM13.1997 131.433C13.9397 131.433 14.3197 131.112 14.3197 130.232V129.612C14.3197 128.762 14.0297 128.413 13.3197 128.413H12.4297V131.433H13.1997Z" fill="white"/>
<path d="M17.3297 134.223V127.533H18.2797V134.303C18.2797 135.123 18.6297 135.502 19.2597 135.502C19.8897 135.502 20.2497 135.133 20.2497 134.303V127.533H21.1697V134.223C21.1697 135.603 20.4997 136.382 19.2497 136.382C17.9897 136.382 17.3297 135.613 17.3297 134.223Z" fill="white"/>
<path d="M23.2097 134.303V129.493C23.2097 128.183 23.8897 127.413 25.1097 127.413C26.3397 127.413 27.0097 128.183 27.0097 129.493V130.393H26.1097V129.433C26.1097 128.683 25.7297 128.303 25.1397 128.303C24.5397 128.303 24.1697 128.693 24.1697 129.433V134.373C24.1697 135.123 24.5497 135.502 25.1397 135.502C25.7397 135.502 26.1097 135.113 26.1097 134.373V133.152H27.0097V134.312C27.0097 135.613 26.3397 136.393 25.1097 136.393C23.8897 136.383 23.2097 135.593 23.2097 134.303Z" fill="white"/>
<path d="M30.1197 128.413H28.6097V127.522H32.5697V128.413H31.0597V136.252H30.1097V128.413H30.1197Z" fill="white"/>
<path d="M34.3197 134.223V127.533H35.2697V134.303C35.2697 135.123 35.6197 135.502 36.2497 135.502C36.8797 135.502 37.2397 135.133 37.2397 134.303V127.533H38.1597V134.223C38.1597 135.603 37.4897 136.382 36.2397 136.382C34.9797 136.382 34.3197 135.613 34.3197 134.223Z" fill="white"/>
<path d="M42.1597 127.533C43.5097 127.533 44.0797 128.153 44.0797 129.513V130.053C44.0797 131.013 43.7797 131.583 43.0897 131.812V131.822C43.8097 132.012 44.0897 132.623 44.0897 133.643V135.203C44.0897 135.603 44.0997 135.953 44.2097 136.263H43.2497C43.1797 136.013 43.1397 135.793 43.1397 135.203V133.592C43.1397 132.642 42.8097 132.322 42.0097 132.322H41.2397V136.263H40.2897V127.533H42.1597ZM42.0097 131.433C42.7497 131.433 43.1297 131.112 43.1297 130.232V129.612C43.1297 128.762 42.8397 128.413 42.1297 128.413H41.2397V131.433H42.0097Z" fill="white"/>
<path d="M46.1997 127.533H49.6897V128.422H47.1497V131.263H49.2197V132.152H47.1497V135.382H49.6897V136.272H46.1997V127.533Z" fill="white"/>
<path d="M51.3297 134.263V133.772H52.2297V134.333C52.2297 135.123 52.6097 135.493 53.2197 135.493C53.8397 135.493 54.2197 135.122 54.2197 134.322C54.2197 133.512 53.8897 133.003 52.9097 132.163C51.7297 131.163 51.3397 130.462 51.3397 129.482C51.3397 128.172 52.0197 127.402 53.2497 127.402C54.4797 127.402 55.1197 128.173 55.1197 129.513V129.862H54.2197V129.453C54.2197 128.663 53.8697 128.292 53.2497 128.292C52.6397 128.292 52.2797 128.662 52.2797 129.422C52.2797 130.142 52.6197 130.643 53.6297 131.493C54.7997 132.493 55.1697 133.192 55.1697 134.252C55.1697 135.612 54.4797 136.382 53.2397 136.382C51.9797 136.382 51.3297 135.613 51.3297 134.263Z" fill="white"/>
<path d="M60.0897 127.533H61.0397V136.263H60.0897V127.533Z" fill="white"/>
<path d="M63.2097 127.533H64.4297L66.3497 133.763V127.533H67.2097V136.263H66.2197L64.0697 129.172V136.263H63.2097V127.533Z" fill="white"/>
<path d="M69.3997 127.533H71.3497C72.6597 127.533 73.2697 128.242 73.2697 129.652V134.143C73.2697 135.553 72.6597 136.263 71.3497 136.263H69.3997V127.533ZM71.3197 135.373C71.9897 135.373 72.3197 135.032 72.3197 134.172V129.592C72.3197 128.732 71.9897 128.413 71.3197 128.413H70.3497V135.373H71.3197Z" fill="white"/>
<path d="M75.3597 127.533H76.3097V136.263H75.3597V127.533Z" fill="white"/>
<path d="M81.2797 134.402H79.3097L78.9897 136.263H78.1097L79.6897 127.533H80.9697L82.5597 136.263H81.5997L81.2797 134.402ZM81.1397 133.553L80.2897 128.643L79.4597 133.553H81.1397Z" fill="white"/>
<path d="M87.3797 127.533H89.2397C90.5497 127.533 91.1597 128.242 91.1597 129.652V130.402C91.1597 131.812 90.5497 132.513 89.2397 132.513H88.3297V136.263H87.3797V127.533ZM89.2397 131.623C89.9097 131.623 90.2097 131.313 90.2097 130.453V129.592C90.2097 128.732 89.9097 128.422 89.2397 128.422H88.3297V131.623H89.2397Z" fill="white"/>
<path d="M92.6897 127.533H93.6497L94.8797 134.942L96.1097 127.533H96.9897L95.4797 136.263H94.2197L92.6897 127.533Z" fill="white"/>
<path d="M99.9697 128.413H98.4597V127.522H102.42V128.413H100.91V136.252H99.9597V128.413H99.9697Z" fill="white"/>
<path d="M107.23 127.533H108.18V135.373H110.61V136.263H107.23V127.533Z" fill="white"/>
<path d="M112.52 128.413H111.01V127.522H114.97V128.413H113.46V136.252H112.51V128.413H112.52Z" fill="white"/>
<path d="M116.78 127.533H118.73C120.04 127.533 120.65 128.242 120.65 129.652V134.143C120.65 135.553 120.04 136.263 118.73 136.263H116.78V127.533ZM118.7 135.373C119.37 135.373 119.7 135.032 119.7 134.172V129.592C119.7 128.732 119.37 128.413 118.7 128.413H117.73V135.373H118.7Z" fill="white"/>
<path d="M70.2397 77.1426H51.3897H70.2397Z" fill="white"/>
<path d="M119.44 29.1824L61.5997 0.2625C60.9097 -0.0875 60.0997 -0.0875 59.3997 0.2625L1.55969 29.1824C1.55969 29.1824 1.54967 29.1924 1.53967 29.2024C1.48967 29.2224 1.44969 29.2523 1.39969 29.2723C1.37969 29.2923 1.33967 29.3021 1.31967 29.3221C1.28967 29.3421 1.24969 29.3724 1.20969 29.3924C1.17969 29.4124 1.13968 29.4422 1.10968 29.4622C1.08968 29.4922 1.05967 29.5023 1.03967 29.5223C1.00967 29.5623 0.969688 29.5924 0.929688 29.6224C0.919688 29.6324 0.89969 29.6624 0.86969 29.6824C0.83969 29.7224 0.799684 29.7623 0.769684 29.7923C0.749684 29.8223 0.729686 29.8421 0.709686 29.8621C0.669686 29.9021 0.64969 29.9322 0.61969 29.9822C0.60969 30.0122 0.579692 30.0523 0.559692 30.0823C0.539692 30.1123 0.519685 30.1424 0.489685 30.1824C0.469685 30.2224 0.449678 30.2723 0.419678 30.3123C0.409678 30.3323 0.399679 30.3724 0.389679 30.3924C0.369679 30.4424 0.349681 30.4923 0.329681 30.5223C0.319681 30.5623 0.299683 30.5823 0.299683 30.6023C0.289683 30.6523 0.269674 30.6925 0.259674 30.7425C0.259674 30.7725 0.239685 30.8021 0.239685 30.8421C0.229685 30.8821 0.229666 30.9222 0.219666 30.9622C0.209666 31.0022 0.199677 31.0421 0.199677 31.0921C0.199677 31.1221 0.199677 31.1622 0.199677 31.1922C0.189677 31.2422 0.189667 31.2921 0.189667 31.3421C0.189667 31.3521 0.179688 31.3621 0.179688 31.3621V82.0325H120.79V31.3621C120.8 30.4421 120.27 29.6024 119.44 29.1824ZM69.6097 77.1424H51.3997V56.0423L60.4997 51.4822L69.5997 56.0423V77.1424H69.6097ZM81.1697 77.1424H74.5297V54.5125C74.5297 53.5825 73.9997 52.7321 73.1697 52.3221L61.5997 46.5325C61.2497 46.3625 60.8697 46.2723 60.4997 46.2723C60.1197 46.2723 59.7497 46.3625 59.3997 46.5325L47.8297 52.3221C46.9997 52.7321 46.4697 53.5925 46.4697 54.5125V77.1426L39.8197 77.1424V50.2522L60.4897 39.9124L81.1697 50.2522V77.1424ZM86.0997 77.1424V48.7322C86.0997 47.8022 85.5697 46.9425 84.7397 46.5325L61.5997 34.9622C60.9097 34.6222 60.0997 34.6222 59.3997 34.9622L36.2697 46.5325C35.4297 46.9425 34.8997 47.8022 34.8997 48.7322V77.1424H28.2597V44.4725L60.4997 28.3421L92.7497 44.4725V77.1424H86.0997ZM97.6597 77.1424V42.9422C97.6597 42.0122 97.1297 41.1625 96.2997 40.7425L61.5997 23.3821C60.9097 23.0421 60.0997 23.0421 59.3997 23.3821L24.6997 40.7425C23.8697 41.1625 23.3397 42.0122 23.3397 42.9422V77.1424H16.6897V38.6824L60.4997 16.7723L104.32 38.6824V77.1424H97.6597ZM115.88 77.1424H109.24V37.1624C109.24 36.2324 108.71 35.3722 107.87 34.9622L61.5997 11.8221C60.9097 11.4821 60.0997 11.4821 59.3997 11.8221L13.1297 34.9622C12.2997 35.3822 11.7697 36.2324 11.7697 37.1624V77.1424H5.11969V32.9021L60.4997 5.20244L115.88 32.9021V77.1424Z" fill="white"/>
<path d="M60.2997 57.0225L56.4997 59.0128C56.3597 59.0828 56.2797 59.2224 56.2797 59.3824V71.0626C56.2797 71.7126 56.8297 72.2428 57.4997 72.2428H63.4797C64.1497 72.2428 64.6997 71.7126 64.6997 71.0626V59.3824C64.6997 59.2324 64.6097 59.0828 64.4797 59.0128L60.6797 57.0225C60.5697 56.9625 60.4197 56.9625 60.2997 57.0225Z" fill="white"/>
</g>
</svg>
