<svg width="21" height="21" viewBox="0 0 21 21" fill="none" xmlns="http://www.w3.org/2000/svg">
<g id="XMLID_00000072972866810116874870000014851279009130946947_">
<path id="XMLID_00000116921203783539695850000005321754284701161355_" d="M10.4607 20.0288C5.33069 20.0288 1.18066 15.7089 1.18066 10.3789C1.18066 5.04891 5.33069 0.728516 10.4607 0.728516C15.5907 0.728516 19.7407 5.04891 19.7407 10.3789C19.7407 15.7089 15.5907 20.0288 10.4607 20.0288Z" stroke="white" stroke-width="0.7459" stroke-miterlimit="10"/>
<g id="XMLID_00000027602966027822703130000009496552538772015011_">
<path id="XMLID_00000069355629163708935580000008211846461687439745_" d="M10.4608 6.03955C11.8208 6.03955 11.9808 6.04982 12.5208 6.06982C13.0208 6.08982 13.2908 6.17951 13.4608 6.24951C13.7008 6.34951 13.8708 6.4599 14.0408 6.6499C14.2208 6.8399 14.3308 7.00977 14.4208 7.25977C14.4908 7.44977 14.5708 7.72975 14.6008 8.23975C14.6208 8.79975 14.6307 8.96988 14.6307 10.3799C14.6307 11.7899 14.6208 11.9595 14.6008 12.5195C14.5808 13.0395 14.4908 13.3195 14.4208 13.4995C14.3308 13.7495 14.2208 13.9199 14.0408 14.1099C13.8608 14.2999 13.6908 14.4098 13.4608 14.5098C13.2808 14.5798 13.0108 14.6699 12.5208 14.6899C11.9808 14.7199 11.8208 14.7197 10.4608 14.7197C9.10082 14.7197 8.94076 14.7099 8.40076 14.6899C7.90076 14.6699 7.63082 14.5798 7.46082 14.5098C7.22082 14.4098 7.05073 14.2999 6.87073 14.1099C6.69073 13.9199 6.58084 13.7495 6.49084 13.4995C6.42084 13.3095 6.34079 13.0295 6.31079 12.5195C6.29079 11.9595 6.28076 11.7899 6.28076 10.3799C6.28076 8.96988 6.29079 8.79975 6.31079 8.23975C6.33079 7.71975 6.42084 7.43977 6.49084 7.25977C6.58084 7.00977 6.69073 6.8399 6.87073 6.6499C7.05073 6.4599 7.22082 6.34951 7.46082 6.24951C7.64082 6.17951 7.91076 6.08982 8.40076 6.06982C8.94076 6.03982 9.11082 6.03955 10.4608 6.03955ZM10.4608 5.08984C9.08082 5.08984 8.90084 5.09963 8.36084 5.11963C7.82084 5.14963 7.45073 5.23963 7.12073 5.36963C6.79073 5.49963 6.50083 5.68949 6.22083 5.97949C5.94083 6.26949 5.76074 6.56992 5.63074 6.91992C5.50074 7.25992 5.42075 7.63971 5.39075 8.19971C5.37075 8.75971 5.36084 8.93988 5.36084 10.3799C5.36084 11.8199 5.37075 11.9996 5.39075 12.5596C5.41075 13.1196 5.50074 13.5098 5.63074 13.8398C5.76074 14.1898 5.93083 14.4798 6.22083 14.7798C6.50083 15.0698 6.79073 15.2596 7.12073 15.3896C7.44073 15.5196 7.81084 15.6096 8.36084 15.6396C8.90084 15.6696 9.08082 15.6699 10.4608 15.6699C11.8408 15.6699 12.0208 15.6596 12.5608 15.6396C13.1008 15.6096 13.4708 15.5196 13.8008 15.3896C14.1308 15.2496 14.4208 15.0698 14.7008 14.7798C14.9808 14.4898 15.1608 14.1898 15.2908 13.8398C15.4208 13.4998 15.5008 13.1196 15.5308 12.5596C15.5508 11.9996 15.5608 11.8199 15.5608 10.3799C15.5608 8.93988 15.5508 8.75971 15.5308 8.19971C15.5108 7.63971 15.4208 7.24992 15.2908 6.91992C15.1608 6.56992 14.9908 6.27949 14.7008 5.97949C14.4208 5.68949 14.1308 5.49963 13.8008 5.36963C13.4808 5.23963 13.1108 5.14963 12.5608 5.11963C12.0208 5.08963 11.8508 5.08984 10.4608 5.08984Z" fill="white"/>
<path id="XMLID_00000173158184026103851350000014677428075041143428_" d="M10.4606 7.66016C9.02057 7.66016 7.85059 8.88037 7.85059 10.3804C7.85059 11.8804 9.02057 13.1001 10.4606 13.1001C11.9006 13.1001 13.0706 11.8804 13.0706 10.3804C13.0706 8.88037 11.9106 7.66016 10.4606 7.66016ZM10.4606 12.1401C9.52057 12.1401 8.7605 11.3504 8.7605 10.3804C8.7605 9.41037 9.52057 8.62012 10.4606 8.62012C11.4006 8.62012 12.1605 9.41037 12.1605 10.3804C12.1605 11.3504 11.4006 12.1401 10.4606 12.1401Z" fill="white"/>
<path id="XMLID_00000183963996765834952750000005993779747288952719_" d="M13.7908 7.5498C13.7908 7.8998 13.5208 8.18994 13.1808 8.18994C12.8408 8.18994 12.5708 7.9098 12.5708 7.5498C12.5708 7.1998 12.8408 6.91992 13.1808 6.91992C13.5208 6.91992 13.7908 7.1998 13.7908 7.5498Z" fill="white"/>
</g>
</g>
</svg>
