<svg width="20" height="21" viewBox="0 0 20 21" fill="none" xmlns="http://www.w3.org/2000/svg">
<g id="XMLID_2094_">
<path id="XMLID_2101_" d="M10.3406 20.0288C5.21058 20.0288 1.06055 15.8685 1.06055 10.7485V10.0088C1.06055 4.87879 5.22058 0.728516 10.3406 0.728516C15.4706 0.728516 19.6205 4.88879 19.6205 10.0088V10.7485C19.6205 15.8685 15.4706 20.0288 10.3406 20.0288Z" stroke="white" stroke-width="0.7459" stroke-miterlimit="10"/>
<g id="XMLID_2095_">
<g id="XMLID_2097_">
<path id="XMLID_2100_" d="M8.05042 8.22852H6.13037V14.6787H8.05042V8.22852Z" fill="white"/>
<path id="XMLID_2098_" d="M7.08044 7.37842C7.71044 7.37842 8.22046 6.84848 8.22046 6.18848C8.22046 5.52848 7.71044 4.99805 7.08044 4.99805C6.45044 4.99805 5.94043 5.52848 5.94043 6.18848C5.95043 6.84848 6.46044 7.37842 7.08044 7.37842Z" fill="white"/>
</g>
<path id="XMLID_2096_" d="M11.1202 11.2891C11.1202 10.3791 11.5203 9.83936 12.2903 9.83936C13.0003 9.83936 13.3403 10.3591 13.3403 11.2891C13.3403 12.2191 13.3403 14.6792 13.3403 14.6792H15.2502C15.2502 14.6792 15.2502 12.3191 15.2502 10.5991C15.2502 8.86912 14.3102 8.03906 12.9902 8.03906C11.6702 8.03906 11.1202 9.10938 11.1202 9.10938V8.23926H9.28027V14.6895H11.1202C11.1202 14.6795 11.1202 12.2791 11.1202 11.2891Z" fill="white"/>
</g>
</g>
</svg>
