<svg width="22" height="22" viewBox="0 0 22 22" fill="none" xmlns="http://www.w3.org/2000/svg">
<g id="Group">
<path id="Vector" d="M10.6577 1.01953C16.1677 1.01953 20.6377 5.48951 20.6377 10.9995C20.6377 16.5095 16.1677 20.9795 10.6577 20.9795C5.14771 20.9795 0.677734 16.5095 0.677734 10.9995C0.677734 5.48951 5.14771 1.01953 10.6577 1.01953Z" stroke="white" stroke-width="0.8456" stroke-miterlimit="10"/>
<path id="Vector_2" d="M14.4677 9.47021C14.4677 7.37021 12.7577 5.66016 10.6577 5.66016C8.54771 5.66016 6.84766 7.37021 6.84766 9.47021C6.84766 10.2502 7.08769 10.9898 7.50769 11.5898V11.6001L10.6577 16.3398L13.8276 11.5898H13.8176C14.2276 10.9798 14.4677 10.2502 14.4677 9.47021ZM10.6577 11.5898C9.48771 11.5898 8.53772 10.6402 8.53772 9.47021C8.53772 8.30021 9.48771 7.3501 10.6577 7.3501C11.8377 7.3501 12.7777 8.30021 12.7777 9.47021C12.7777 10.6302 11.8377 11.5898 10.6577 11.5898Z" fill="white"/>
</g>
</svg>
