<svg xmlns="http://www.w3.org/2000/svg" width="240" height="241" viewBox="0 0 240 241" fill="none">
  <path d="M222.376 210.16C223.266 208.17 224.045 206.31 224.455 204.71C224.695 203.79 224.816 202.96 224.926 202.2C225.116 200.94 225.265 199.87 225.835 198.97C226.285 198.25 226.945 197.71 227.735 197.07C228.505 196.44 229.406 195.71 230.296 194.63C231.056 193.71 231.816 192.53 232.495 191.32C232.986 190.45 233.445 189.57 233.835 188.76C233.675 189.04 233.505 189.33 233.335 189.63C232.765 190.6 232.136 191.62 231.516 192.51C230.896 193.4 230.285 194.16 229.685 194.82C229.085 195.49 228.495 196.05 227.935 196.55C227.675 196.78 227.365 197.03 227.065 197.28C226.315 197.9 225.656 198.45 225.266 199.06C224.816 199.76 224.686 200.63 224.526 201.68C224.496 201.89 224.455 202.11 224.445 202.2C224.325 202.94 224.175 203.77 223.975 204.6C223.815 205.3 223.616 206.01 223.396 206.69C223.146 207.44 222.865 208.14 222.595 208.73C222.345 209.3 222.095 209.81 221.935 210.14C221.935 210.16 221.936 210.17 222.376 210.16ZM206.985 186.27C207.085 186.3 207.146 186.32 207.046 186.24C207.036 186.23 207.025 186.25 206.985 186.27ZM191.666 208.54C191.896 208.37 191.986 208.08 192.136 207.58C192.376 206.79 192.736 205.61 193.156 204.37C193.596 203.08 194.115 201.67 194.685 200.39C195.265 199.1 195.895 197.96 196.615 196.89C197.335 195.82 198.155 194.83 199.105 193.85C200.315 192.61 201.735 191.38 202.965 190.32C203.635 189.74 204.245 189.22 204.745 188.75C205.975 187.6 206.325 186.98 206.565 186.55L206.615 186.47L206.646 186.42C206.556 186.47 206.455 186.54 206.355 186.62C206.135 186.8 205.885 187.09 205.575 187.45C205.105 187.99 204.495 188.68 203.575 189.52C203.085 189.97 202.526 190.44 201.926 190.94C200.616 192.05 199.116 193.31 197.906 194.68C197.036 195.67 196.325 196.71 195.705 197.78C195.085 198.86 194.555 199.96 194.065 201.06C193.575 202.16 193.135 203.24 192.745 204.42C192.355 205.6 191.995 206.88 191.685 208.38L191.666 208.54ZM168.715 102.35C168.625 101.69 168.416 101.64 167.956 101.54C167.156 101.37 165.835 101.09 164.686 100.89L164.946 100.99C165.626 101.25 166.515 101.56 167.535 101.93C167.905 102.07 168.305 102.21 168.715 102.35ZM94.8355 43.71C94.8455 43.78 94.8555 43.8299 94.8755 43.8599C94.9455 43.9699 94.8655 43.81 94.8355 43.71ZM95.3055 40.4297C96.0755 39.8897 96.9655 39.3897 97.9555 38.9697C99.1255 38.4797 100.436 38.1 102.006 37.77C103.556 37.45 105.376 37.1797 107.576 36.9097C109.766 36.6397 112.346 36.3599 115.146 36.1699C117.936 35.9699 120.945 35.8599 123.995 35.8999C126.735 35.9399 129.475 36.1098 132.035 36.3398C135.235 36.6298 138.185 37.0297 140.535 37.4097C142.655 37.7497 144.296 38.0797 145.646 38.4297C147.006 38.7797 148.065 39.14 149.025 39.54C149.875 39.89 150.655 40.2797 151.355 40.6597C152.235 41.1397 152.956 41.62 153.495 42C154.025 42.38 154.396 42.7001 154.626 43.1001C154.876 43.5401 154.935 44.0299 154.795 44.6899C154.675 45.2599 154.416 45.9797 154.076 46.6997C153.736 47.4097 153.325 48.1297 152.905 48.6997C152.445 49.3297 151.995 49.7498 151.655 50.0698C151.585 50.1398 151.515 50.2 151.465 50.25C151.615 50.25 151.805 50.2299 152.045 50.1899C152.605 50.0799 153.346 49.8299 154.066 49.3999C154.605 49.0699 155.125 48.6501 155.525 48.1201C155.955 47.5401 156.256 46.8101 156.436 46.0601C156.635 45.2101 156.676 44.3298 156.576 43.5698C156.486 42.8598 156.276 42.2597 156.016 41.7397C155.746 41.2097 155.435 40.7699 155.155 40.3999L155.035 40.2397C154.455 39.4797 153.995 38.8798 153.595 36.8398C153.415 35.8998 153.245 34.68 153.055 33.25C152.815 31.46 152.536 29.3599 152.126 27.1299C151.736 24.9899 151.225 22.7499 150.595 20.6299C150.055 18.8399 149.426 17.15 148.696 15.71C147.916 14.16 147.016 12.8898 145.995 11.7998C144.975 10.6998 143.836 9.7699 142.576 8.8999C141.476 8.1399 140.276 7.42004 139.146 6.79004C137.676 5.98004 136.315 5.32994 135.425 4.93994C134.805 4.66994 134.495 4.5601 134.436 4.6001C134.355 4.6701 134.316 5.09012 134.266 5.87012C134.206 6.90012 134.145 8.3798 134.085 9.7998C134.035 11.0698 133.986 12.3001 133.946 13.0801C133.916 13.6801 133.875 14.0698 133.845 14.2598C133.755 14.7798 133.495 14.9297 133.095 14.7197C132.925 14.6297 132.825 14.4497 132.795 14.1797C132.775 13.9497 132.766 13.4397 132.766 12.6597C132.776 12.0097 132.785 11.1698 132.805 10.2598C132.845 8.39977 132.885 6.24996 132.845 4.95996C132.815 4.10996 132.756 3.68977 132.636 3.50977C132.556 3.40977 132.326 3.37008 131.956 3.33008C131.376 3.26008 130.566 3.17012 129.816 3.12012C129.286 3.08012 128.796 3.06984 128.456 3.08984C128.806 4.13984 129.276 5.56971 129.826 7.19971C130.146 8.14971 130.466 9.09971 130.756 9.94971C131.086 10.8097 131.385 11.6 131.626 12.25C131.866 12.89 132.006 13.3198 132.066 13.5098C132.296 14.2798 132.065 14.5298 131.425 14.2598C131.295 14.2098 131.185 14.0699 131.095 13.8599C130.995 13.6199 130.785 13.0699 130.465 12.1699C130.285 11.6499 130.065 11.0301 129.835 10.3501L129.326 9.04004C128.776 7.62004 128.215 6.18008 127.816 5.08008C127.426 4.01008 127.226 3.38998 127.245 2.97998C127.245 2.88998 127.255 2.80975 127.275 2.73975C126.695 0.979746 126.685 0.97998 126.615 0.97998H124.886C124.796 0.97998 124.786 0.979707 124.136 2.69971C124.106 3.06971 123.995 3.55998 123.795 4.22998C123.495 5.22998 122.995 6.72975 122.465 8.23975C121.925 9.76975 121.355 11.3201 120.936 12.3701C120.635 13.1301 120.405 13.6201 120.275 13.8301C120.075 14.1601 119.836 14.2596 119.566 14.1396C119.316 14.0196 119.206 13.7799 119.266 13.4199C119.306 13.1599 119.466 12.5997 119.756 11.7397C120.136 10.5897 120.765 8.8699 121.405 7.1499C122.005 5.5299 122.645 3.84969 123.085 2.67969C122.975 2.67969 122.816 2.68971 122.636 2.69971H122.605C121.525 2.76971 119.506 2.86969 118.495 2.92969C118.015 2.94969 118.016 2.95994 118.136 4.43994V4.44971C118.306 6.46971 118.635 10.49 118.745 12.52C118.785 13.24 118.805 13.7097 118.795 13.9297C118.775 14.3397 118.595 14.54 118.275 14.54C118.005 14.54 117.826 14.37 117.745 14.02C117.695 13.8 117.625 13.3299 117.535 12.6099C117.415 11.6199 117.276 10.3 117.136 8.97998C116.976 7.47998 116.816 5.9698 116.706 5.0498C116.606 4.2898 116.555 3.91988 116.495 3.87988C116.445 3.84988 116.115 3.96971 115.475 4.19971C114.695 4.47971 113.555 4.88967 112.345 5.40967C111.115 5.92967 109.785 6.56004 108.595 7.29004C107.415 8.01004 106.375 8.83002 105.425 9.77002C104.475 10.71 103.625 11.7697 102.835 12.9697C102.015 14.2097 101.255 15.5999 100.585 17.1099C99.9555 18.5499 99.4055 20.1 98.9755 21.73C98.5355 23.4 98.2155 25.1801 97.9755 26.8101C97.7355 28.4601 97.5855 29.9298 97.4755 31.0098C97.4255 31.4998 97.4055 31.7698 97.3755 32.0298C97.2355 33.4498 97.1855 33.9497 97.0355 34.4497C96.9755 34.6697 96.8955 34.8601 96.8155 35.0601C96.6855 35.3901 96.5555 35.7301 96.5155 36.0801C96.4955 36.3001 96.5055 36.5598 96.5155 36.8198C96.5355 37.2798 96.5555 37.7499 96.4155 38.1899C96.3155 38.4999 96.1655 38.7398 95.9855 39.0298C95.7755 39.3498 95.5155 39.7597 95.3055 40.4297ZM111.436 41.98C111.705 41.89 111.976 41.81 112.256 41.73C111.036 41.7 109.995 41.6501 108.975 41.5801C108.605 41.5601 108.295 41.54 107.985 41.52C105.965 41.39 104.066 41.2597 102.326 41.4497C101.356 41.5597 100.425 41.7598 99.5855 42.0498C98.7055 42.3398 97.9155 42.7199 97.2455 43.1499C96.7955 43.4399 96.3955 43.7598 96.0455 44.0298C95.7855 44.2398 95.5655 44.4198 95.3555 44.5498C94.7855 44.9198 94.3555 44.9797 94.0255 44.4297C93.8855 44.1897 93.8255 43.7898 93.8255 43.2998C93.7955 43.3498 93.7655 43.3899 93.7355 43.4399C93.3855 44.0199 93.2455 44.5798 93.2155 45.0898C93.1955 45.6098 93.2955 46.0898 93.4455 46.5098C93.5855 46.8998 93.7655 47.2298 93.9655 47.5098C94.1855 47.8098 94.4355 48.04 94.6955 48.21C94.9055 48.35 95.1355 48.4497 95.5255 48.4297C95.9955 48.4097 96.6855 48.2301 97.7955 47.8101C99.4255 47.1901 101.926 46.0597 104.326 44.9697C105.316 44.5197 106.296 44.0797 107.136 43.6997C108.696 42.9897 110.006 42.43 111.436 41.98ZM123.905 40.29C124.925 40.26 125.945 40.26 126.965 40.27C129.515 40.15 132.095 40.0299 134.405 39.9399C136.795 39.8499 138.876 39.81 140.636 39.79C142.586 39.78 144.126 39.7999 145.245 39.8599C146.346 39.9099 147.066 39.9999 147.566 40.1099C147.696 40.1399 147.805 40.1697 147.915 40.1997C147.185 39.9297 146.375 39.6697 145.415 39.4297C144.105 39.0997 142.496 38.7697 140.396 38.4297C138.066 38.0497 135.136 37.6601 131.956 37.3701C129.386 37.1401 126.655 36.9697 123.985 36.9297C120.985 36.8897 117.995 36.9997 115.215 37.1997C112.445 37.3997 109.876 37.6699 107.686 37.9399C105.516 38.2099 103.726 38.47 102.196 38.79C100.686 39.1 99.4355 39.4697 98.3255 39.9297C97.2455 40.3797 96.3055 40.9298 95.5355 41.5298C95.3255 41.6898 95.1355 41.85 94.9455 42.02C94.9155 42.24 94.8855 42.4497 94.8655 42.6597C94.8255 43.0697 94.8155 43.4299 94.8355 43.6499C95.0055 43.5399 95.2055 43.3797 95.4555 43.1797C95.8155 42.8997 96.2355 42.5597 96.7355 42.2397C97.4655 41.7697 98.3355 41.36 99.2955 41.04C100.205 40.74 101.195 40.5099 102.235 40.3999C104.055 40.1999 106.006 40.3297 108.066 40.4697C108.406 40.4897 108.755 40.5198 109.045 40.5298C110.255 40.6098 111.486 40.6699 112.956 40.6899C114.426 40.7099 116.155 40.6996 118.355 40.6396C120.055 40.4697 121.955 40.34 123.905 40.29ZM146.475 46.29C147.535 47.22 148.375 48.1799 148.985 49.1099C149.015 47.8399 149.035 46.7699 149.035 45.8799C149.035 44.7899 149.006 43.9601 148.936 43.3301C148.865 42.7401 148.766 42.3298 148.626 42.0498C148.506 41.7998 148.355 41.6297 148.165 41.4897C147.975 41.3497 147.755 41.2296 147.345 41.1396C146.885 41.0296 146.215 40.9597 145.186 40.9097C144.066 40.8597 142.546 40.8298 140.626 40.8398C138.926 40.8498 136.915 40.9 134.585 40.98C135.565 41.16 136.506 41.3799 137.386 41.6299C139.426 42.1999 141.216 42.9298 142.766 43.7598C144.216 44.5298 145.445 45.4 146.475 46.29ZM146.915 79.6899C147.055 79.4599 147.196 79.1901 147.316 78.8701C147.756 77.7601 148.085 75.95 148.485 73.79C148.635 72.97 148.795 72.0896 148.985 71.1396C149.155 70.2597 149.315 69.5198 149.475 68.7798C150.035 66.0998 150.615 63.3199 150.745 61.1899C150.885 58.8699 150.486 57.2398 150.126 55.7598C150.055 55.4798 149.995 55.2099 149.925 54.9399C149.895 54.7999 149.865 54.6498 149.835 54.5098C149.825 54.9298 149.805 55.36 149.795 55.79C149.715 57.89 149.626 60.0601 149.495 62.0601C149.365 64.0901 149.216 65.98 149.016 67.79C148.816 69.6 148.566 71.3596 148.256 73.1396C147.906 75.1296 147.475 77.1297 147.085 78.9497L146.915 79.6899ZM100.256 78.0801C100.376 78.0401 100.485 78.02 100.605 78.02C100.165 75.56 99.7555 73.0099 99.3655 70.6099C98.8355 67.3499 98.3455 64.3299 97.8955 62.1699C97.4955 60.2599 97.1155 58.9899 96.7655 58.1299C96.4355 57.3199 96.1455 56.8799 95.8855 56.6099C95.6855 56.3999 95.5455 56.2998 95.4555 56.2998C95.4155 56.2998 95.3455 56.35 95.2755 56.46C95.1455 56.65 95.0155 56.9397 94.9255 57.4097C94.8155 57.9297 94.7555 58.6399 94.7455 59.6099C94.7355 60.6599 94.7955 62.0199 94.9255 63.3999C95.0355 64.6199 95.2055 65.8597 95.4155 66.9297C95.7355 68.5197 96.1755 69.7099 96.6155 70.8799C96.7955 71.3699 96.9755 71.8599 97.1455 72.3799C97.3655 73.0299 97.5655 73.7297 97.7655 74.4097C98.0855 75.5097 98.3955 76.5598 98.7155 77.2598C98.9355 77.7298 99.1555 78.0199 99.3655 78.1899C99.5355 78.3199 99.6755 78.3501 99.7955 78.3101C99.8355 78.2901 99.8955 78.26 99.9555 78.23C100.056 78.17 100.146 78.1201 100.256 78.0801ZM128.576 123.38C128.596 123.49 128.605 123.6 128.585 123.69C128.955 122.63 129.465 121.8 130.155 120.89C130.795 120.04 131.595 119.13 132.405 118.2C133.515 116.93 134.646 115.64 135.386 114.5C136.376 112.99 136.705 111.7 137.085 110.23C137.195 109.82 137.305 109.39 137.436 108.94C137.745 107.86 138.155 106.65 138.615 105.48C139.055 104.36 139.546 103.27 140.016 102.36C140.516 101.42 140.995 100.69 141.525 100.04C142.065 99.39 142.666 98.82 143.396 98.21C143.626 98.02 143.785 97.8797 143.965 97.7397C145.215 96.7197 146.646 95.55 146.896 94.21C147.106 93.1 146.535 91.6901 145.985 90.3501C145.775 89.8301 145.556 89.31 145.386 88.77C145.226 88.28 145.105 87.7998 145.025 87.3198C144.885 87.8098 144.725 88.3199 144.525 88.8599C143.935 90.4999 143.076 92.3697 141.946 94.2197C140.986 95.7897 139.846 97.3497 138.516 98.7197C137.046 100.25 135.345 101.56 133.545 102.54C131.795 103.5 129.936 104.15 128.076 104.42C126.186 104.69 124.306 104.56 122.516 104.22C120.736 103.89 119.036 103.36 117.506 102.83C115.986 102.3 114.615 101.77 113.355 101.21C112.095 100.65 110.965 100.06 109.915 99.3999C108.845 98.7399 107.866 98.0198 106.946 97.0098C106.266 96.2698 105.635 95.3798 105.045 94.2598C105.085 94.4198 105.135 94.58 105.175 94.73C105.515 95.91 105.896 96.9898 106.446 98.2598C107.006 99.5698 107.736 101.07 108.516 102.53C109.266 103.94 110.066 105.33 110.816 106.48C111.566 107.64 112.255 108.54 112.905 109.26C113.535 109.96 114.136 110.47 114.696 110.84C115.176 111.16 115.655 111.38 116.115 111.6C116.805 111.92 117.486 112.24 118.196 112.83C118.836 113.36 119.475 114.09 120.225 114.93C120.875 115.67 121.615 116.5 122.485 117.35C123.345 118.19 124.335 119.04 125.245 119.84C126.326 120.78 127.316 121.63 127.886 122.28C128.306 122.73 128.516 123.1 128.576 123.38ZM93.8555 104.93C93.6655 103.45 93.5255 102.44 93.3655 101.8C93.0555 101.98 92.7555 102.16 92.4455 102.32C91.5855 102.78 90.7355 103.18 89.9255 103.51C89.1255 103.84 88.3555 104.11 87.6655 104.33C87.3355 104.44 86.9855 104.54 86.6655 104.64C85.8455 104.89 85.2055 105.09 84.8555 105.32C84.7155 105.42 84.6255 105.54 84.5855 105.87C84.5255 106.36 84.5555 107.18 84.6355 108.6C84.7355 110.27 84.9055 112.72 85.1755 115.6C85.3755 117.73 85.6355 120.09 85.9455 122.54C86.3155 125.4 86.7755 128.39 87.2455 131.23C87.7255 134.12 88.1855 136.74 88.5755 138.91C88.9655 141.11 89.2755 142.86 89.5655 144.21C89.8455 145.54 90.1055 146.48 90.3955 147.12C90.6355 147.65 90.8955 147.93 91.1855 148.04C91.4955 148.16 91.9055 148.11 92.4255 147.98L92.5355 147.95C92.6955 147.78 93.0355 147.66 93.6555 147.45H93.6655C94.5855 147.14 96.4155 146.51 97.7555 145.99C98.4255 145.73 98.9755 145.5 99.4055 145.29C99.7955 145.1 100.066 144.93 100.206 144.78C100.316 144.66 100.245 144.42 99.9955 143.46C99.9655 143.35 99.9255 143.22 99.8355 142.84C99.5755 141.86 99.2355 140.47 98.8855 138.89C98.6055 137.65 98.3155 136.26 98.0355 134.8C97.7255 133.18 97.4455 131.53 97.1455 129.59C96.8455 127.63 96.5355 125.39 96.1655 122.59C95.6955 119.1 95.1155 114.61 94.6155 110.72C94.3155 108.5 94.0555 106.47 93.8555 104.93ZM38.8255 102.23C39.6355 102.59 40.3555 102.91 40.9255 103.21C40.9555 103.13 40.5355 102.95 40.4155 102.43L40.3755 102.26C39.9655 100.5 39.1855 97.18 38.6455 94.02C38.4755 93.03 38.3355 92.0699 38.1955 91.1499C37.8755 89.0499 37.5955 87.1399 37.1255 85.6899C36.8155 84.7099 36.4155 83.9299 35.9555 83.3799C35.5055 82.8399 34.9955 82.4901 34.4555 82.3501C33.8955 82.2001 33.2855 82.26 32.7555 82.54C32.2755 82.79 31.8555 83.2098 31.5855 83.8198C31.2855 84.5098 31.1755 85.46 31.1755 86.54C31.1755 87.68 31.2955 88.95 31.4655 90.25C31.7155 92.22 32.0555 94.3099 32.3255 95.8999C32.4055 96.3899 32.4755 96.8298 32.5455 97.2598L32.5955 97.5698C32.7755 98.7098 32.8155 98.9997 33.4055 99.4297C33.7655 99.6897 34.2955 100 34.9055 100.33C35.6455 100.73 36.4855 101.14 37.2655 101.51C37.7255 101.74 38.2955 101.99 38.8255 102.23ZM38.3655 129.64C38.3855 129.42 38.3755 129.22 38.3455 129.06C38.3255 128.96 38.3355 128.9 38.3355 128.88L38.2855 128.91C38.2755 128.92 38.2655 128.93 38.2355 128.93H38.2255C38.0855 128.99 37.9355 129.05 37.7855 129.11C37.1555 129.32 36.3855 129.42 35.3355 129.41C34.4055 129.4 33.2555 129.31 32.1455 129.18C30.8355 129.03 29.5455 128.82 28.6955 128.63C28.0955 128.5 27.7055 128.38 27.5155 128.28C27.2355 128.13 27.1155 127.92 27.1555 127.65C27.1955 127.38 27.3755 127.21 27.6855 127.16C27.8955 127.13 28.3255 127.14 28.9755 127.21C29.6055 127.28 30.4455 127.41 31.3555 127.54C32.9555 127.78 34.7855 128.06 35.9655 128.11C37.0055 128.16 37.5455 128.03 37.8655 127.94C38.1855 127.79 38.4455 127.59 38.6955 127.34C39.0555 126.99 39.3855 126.55 39.6555 126.08C39.9455 125.59 40.1655 125.08 40.2855 124.63C40.3955 124.22 40.4255 123.87 40.3655 123.57C40.3155 123.3 40.1855 123.06 39.9655 122.86C39.8155 122.72 39.6255 122.6 39.3855 122.47C39.1955 122.44 39.0055 122.41 38.7955 122.37C37.6055 122.16 36.1155 121.83 34.6855 121.47C33.1455 121.09 31.6555 120.68 30.6555 120.36C29.8555 120.1 29.3555 119.89 29.1255 119.75C28.9055 119.61 28.7955 119.44 28.7755 119.23C28.7455 118.87 28.9355 118.66 29.3155 118.62C29.5055 118.6 29.8555 118.63 30.3555 118.73C30.9755 118.85 31.8755 119.08 32.8555 119.34C34.1955 119.7 35.6355 120.12 36.7555 120.45C37.7555 120.75 38.5355 120.99 39.1455 121.23C39.3255 121.3 39.4955 121.37 39.6555 121.45C40.4855 121.58 41.1455 121.62 41.6755 121.59C42.2855 121.55 42.7255 121.39 43.1055 121.1C43.5055 120.8 43.8455 120.35 44.0955 119.86C44.3355 119.37 44.4855 118.83 44.4855 118.33C44.4855 117.85 44.3455 117.4 44.0655 116.95C43.7555 116.46 43.2855 115.97 42.6355 115.46C42.5055 115.36 42.3655 115.25 42.2255 115.15C41.7155 114.99 41.1055 114.72 40.3655 114.38C39.7455 114.1 39.0455 113.78 38.2255 113.46C37.3555 113.11 36.3455 112.76 35.3955 112.43C34.3955 112.08 33.4755 111.76 32.8055 111.48C32.1955 111.22 31.7855 110.97 31.5955 110.78C31.4555 110.64 31.3755 110.48 31.3655 110.32C31.3455 110.03 31.4655 109.82 31.7555 109.7C31.9055 109.64 32.1455 109.62 32.4755 109.67C32.9855 109.74 33.8055 109.95 34.7755 110.27C35.6255 110.55 36.6055 110.93 37.5955 111.36C38.6555 111.83 39.7355 112.37 40.7255 112.94C41.4255 113.34 42.0855 113.76 42.6655 114.18C42.9755 114.26 43.1755 114.26 43.3055 114.18C43.4555 114.09 43.5755 113.89 43.7155 113.6C43.9055 113.21 44.0855 112.68 44.1755 112.04C44.2355 111.55 44.2455 111 44.1355 110.39C44.0255 109.76 43.8055 109.07 43.5255 108.39C43.1655 107.51 42.7355 106.67 42.3655 106.04C42.0555 105.51 41.8055 105.15 41.5355 104.88C41.2855 104.63 41.0155 104.44 40.6555 104.23C40.3755 104.16 40.0155 104 39.5255 103.78C38.7255 103.42 37.5355 102.88 36.3855 102.37C35.1755 101.84 33.9155 101.3 32.9555 100.92C32.0255 100.55 31.3755 100.34 30.8155 100.29C30.2855 100.24 29.8155 100.34 29.2155 100.6C28.5055 100.91 27.6355 101.42 26.7655 102.12C26.0255 102.71 25.2955 103.42 24.6455 104.24C23.9955 105.08 23.4355 106.03 22.9755 106.98C22.4555 108.08 22.0755 109.18 21.8655 110.11C21.6355 111.12 21.5855 111.93 21.5455 112.7C21.5155 113.28 21.4855 113.83 21.3855 114.43C21.2855 115.02 21.1155 115.62 20.9455 116.24C20.7155 117.09 20.4655 117.98 20.3955 118.84C20.3355 119.56 20.3855 120.3 20.5055 121.01C20.6255 121.72 20.8055 122.39 21.0055 122.98C21.1455 123.41 21.2955 123.8 21.4355 124.17C21.6955 124.86 21.9355 125.5 22.0855 126.25C22.1355 126.49 22.1755 126.75 22.2255 127.02C22.3655 127.91 22.5255 128.88 23.1455 129.71C23.5355 130.24 24.1255 130.74 24.8255 131.16C25.5655 131.61 26.4155 131.98 27.2955 132.23C28.0855 132.45 28.8855 132.57 29.6655 132.62C30.6055 132.68 31.5155 132.64 32.3355 132.54C33.0855 132.46 33.7655 132.33 34.4455 132.09C35.1355 131.85 35.8355 131.49 36.6455 130.93C37.1655 130.6 37.7455 130.15 38.3655 129.64ZM4.84547 177.21C4.87547 177.37 4.90552 177.54 4.95552 177.71C5.07552 178.11 5.27551 178.54 5.63551 178.92C6.01551 179.33 6.57549 179.69 7.30549 180.03C8.06549 180.39 8.9855 180.72 10.0655 181.03C11.7355 181.52 13.7855 181.99 15.7255 182.43C16.1555 182.53 16.5655 182.62 17.4255 182.82C17.8955 182.93 18.0555 182.97 18.2555 183.01C20.2555 183.48 21.9655 183.89 23.3955 183.89C24.1855 183.89 24.9055 183.77 25.5455 183.57C26.1955 183.37 26.7655 183.1 27.2855 182.8C27.9855 182.39 28.5755 181.93 29.0555 181.55C29.2955 181.36 29.5055 181.19 29.7255 181.04C30.3655 180.59 30.7855 180.47 31.2255 180.34L31.2855 180.32C31.4755 180.26 31.6655 180.21 31.8055 180.14C31.7655 180.13 31.7055 180.11 31.6455 180.11C31.3955 180.08 31.0455 180.12 30.6455 180.23C30.2555 180.34 29.8255 180.51 29.4255 180.74C29.0255 180.97 28.6055 181.28 28.1855 181.6C27.7155 181.95 27.2455 182.31 26.7155 182.6C26.1955 182.89 25.6455 183.1 24.9955 183.22C24.3655 183.34 23.6355 183.37 22.7355 183.31C21.8655 183.25 20.8455 183.09 19.7155 182.87C18.5955 182.65 17.3855 182.36 16.1255 182.04C14.8655 181.71 13.5655 181.35 12.3055 180.94C11.0355 180.52 9.8055 180.06 8.6855 179.53C7.6155 179.03 6.6555 178.47 5.8155 177.9C5.4755 177.69 5.14547 177.45 4.84547 177.21ZM143.485 181.64L143.845 177.62C144.085 174.95 144.316 174.97 144.196 174.96L142.665 174.82C142.565 174.81 142.766 174.83 142.456 177.56L141.985 181.7C142.495 181.68 142.995 181.66 143.485 181.64ZM143.576 191.81C143.516 192.32 143.455 192.72 143.365 193.03L154.006 192.7C154.566 192.68 154.985 192.67 155.295 192.64C155.085 192.27 154.835 192.01 154.525 191.83C154.015 191.53 153.326 191.4 152.316 191.36C151.256 191.32 149.856 191.4 148.006 191.52L146.826 191.6C145.846 191.67 144.766 191.74 143.576 191.81ZM143.696 190.51L143.675 190.76C144.795 190.69 145.826 190.62 146.766 190.56C147.136 190.54 147.506 190.51 147.946 190.48C149.816 190.36 151.235 190.28 152.345 190.32C153.515 190.36 154.346 190.53 155.006 190.92C155.506 191.21 155.896 191.62 156.196 192.19C156.266 191.98 156.255 191.67 156.245 191.21L156.045 183.45C156.005 182.05 156.006 182.05 152.506 182.25C150.596 182.36 147.766 182.52 144.386 182.66L143.696 190.51ZM142.665 190.82L142.706 190.41L143.386 182.69C142.886 182.71 142.375 182.73 141.855 182.75L140.975 190.49L140.925 190.92C141.535 190.89 142.115 190.85 142.665 190.82ZM141.655 193.05C142.215 192.93 142.425 192.63 142.545 191.87C141.995 191.9 141.435 191.93 140.845 191.96C140.825 192.75 141.005 192.99 141.655 193.05ZM124.155 190.08L122.785 182.77C121.725 182.74 120.696 182.7 119.696 182.67C115.866 182.53 112.565 182.36 110.365 182.24C106.495 182.04 106.495 182.04 106.525 183.1L106.725 189.6C106.755 190.73 106.766 190.73 110.766 190.86C113.006 190.93 116.366 191.03 120.066 191.11C121.466 191.14 122.915 191.17 124.365 191.18C124.295 190.86 124.225 190.49 124.155 190.08ZM125.686 181.81L124.595 175.49C124.045 172.3 124.046 172.3 123.946 172.3L121.816 172.44C121.776 172.44 121.855 172.44 122.425 175.46L123.605 181.75C124.285 181.77 124.986 181.79 125.686 181.81ZM128.456 192.27C128.486 192.59 128.486 192.86 128.446 193.08L139.826 193.12C139.786 192.84 139.796 192.47 139.826 192.01C137.356 192.13 134.556 192.22 131.446 192.25C130.466 192.27 129.466 192.27 128.456 192.27ZM128.095 189.91C128.185 190.4 128.256 190.84 128.316 191.22C129.376 191.22 130.415 191.22 131.425 191.21C134.575 191.18 137.415 191.08 139.915 190.96C139.935 190.77 139.955 190.57 139.985 190.36L140.845 182.78C138.055 182.87 135.055 182.93 132.025 182.93C130.315 182.93 128.585 182.91 126.865 182.88L128.095 189.91ZM127.305 191.22C127.255 190.9 127.195 190.53 127.115 190.1L125.865 182.86C125.175 182.84 124.485 182.83 123.795 182.81L125.126 189.89C125.226 190.41 125.306 190.85 125.386 191.21C126.036 191.21 126.665 191.22 127.305 191.22ZM126.655 193C127.115 192.91 127.325 192.7 127.365 192.26C126.815 192.26 126.256 192.25 125.696 192.25C125.906 192.71 126.175 192.91 126.655 193ZM119.275 209.49H144.326H145.456C156.776 209.49 156.766 209.43 156.706 207.51C156.666 206.26 156.606 204.39 156.516 202.39C156.426 200.42 156.315 198.36 156.165 196.76C156.045 195.44 155.906 194.43 155.696 193.66C155.266 193.7 154.725 193.71 154.035 193.74L142.915 194.09C142.555 194.1 142.236 194.11 141.956 194.12C141.476 194.18 140.835 194.17 139.985 194.17L128.256 194.12C127.706 194.12 127.245 194.12 126.855 194.1C126.285 194.14 125.545 194.12 124.585 194.09L110.006 193.74C106.916 193.67 106.915 193.67 107.105 195.9L108.035 207.15C108.225 209.45 108.226 209.48 118.766 209.48H119.275V209.49ZM178.025 184.47C177.955 184.01 177.885 183.54 177.795 183.05C177.595 183.66 177.456 184.3 177.396 185.02C177.306 186.1 177.375 187.41 177.465 188.91C177.555 190.55 177.665 192.41 177.585 194.53C177.455 198.03 176.826 202.14 176.386 204.94C176.306 205.44 176.236 205.89 176.196 206.21C176.016 207.43 175.926 208.15 176.126 208.47C176.215 208.61 176.396 208.72 176.686 208.79C176.756 208.68 176.795 208.56 176.845 208.41C177.085 207.7 177.445 206.64 177.775 205.37C178.115 204.08 178.436 202.55 178.636 200.85C178.836 199.15 178.896 197.32 178.886 195.46C178.866 193.6 178.766 191.69 178.626 189.86C178.476 188.05 178.295 186.32 178.025 184.47ZM167.126 151.02C168.076 152 169.046 153.37 170.016 155.08C171.046 156.9 172.065 159.11 173.035 161.65C173.925 163.99 174.775 166.6 175.545 169.21C176.445 172.28 177.215 175.35 177.805 177.95C177.945 178.58 178.076 179.19 178.196 179.78L178.415 179.37C178.595 179.04 178.775 178.7 178.855 178.54C179.555 177.22 180.355 175.61 181.115 173.88C181.415 173.21 181.705 172.52 181.975 171.83C181.845 171.57 181.775 171.31 181.745 171.03C181.686 170.43 181.826 169.82 182.055 169.02L182.215 168.46C182.625 167.04 183.186 165.11 183.436 162.74C183.576 161.38 183.615 159.89 183.595 158.42C183.585 156.96 183.516 155.49 183.446 154.22C183.426 153.75 183.395 153.26 183.365 152.81C183.265 151.01 183.195 149.74 183.285 149.09C183.325 148.83 183.395 148.62 183.495 148.49C183.686 148.24 183.915 148.18 184.195 148.31C184.325 148.37 184.446 148.49 184.536 148.67C184.686 148.96 184.866 149.58 185.026 150.6C185.206 151.72 185.375 153.39 185.465 155.24C185.545 156.77 185.576 158.42 185.516 160.02C185.446 161.79 185.275 163.47 184.975 165.11C184.675 166.76 184.255 168.38 183.705 170.02C183.515 170.58 183.315 171.15 183.095 171.71C183.185 171.82 183.295 171.94 183.425 172.07C183.955 172.56 184.796 173.14 185.896 173.78C187.026 174.44 188.416 175.15 190.006 175.92C191.776 176.77 193.815 177.7 195.735 178.46C197.265 179.07 198.705 179.57 199.845 179.83C201.815 180.29 202.895 180.05 203.605 179.89C203.815 179.84 203.996 179.8 204.176 179.78C204.696 179.72 205.105 179.83 205.445 180.16C205.745 180.44 205.956 180.86 206.156 181.46C206.196 181.59 206.255 181.78 206.305 181.98C206.535 182.78 206.816 183.74 207.266 183.68C207.636 183.63 208.186 183.2 208.786 182.58C209.486 181.84 210.216 180.85 210.796 179.86C211.186 179.18 211.525 178.48 211.865 177.76C212.495 176.44 213.145 175.06 214.325 173.52C215.295 172.26 216.605 170.9 218.075 169.72C219.375 168.67 220.805 167.76 222.225 167.17C223.665 166.58 225.085 166.32 226.435 166.32C227.945 166.32 229.355 166.65 230.605 167.19C231.795 167.71 232.845 168.42 233.715 169.36C234.585 170.3 235.255 171.47 235.715 172.9C236.575 175.6 236.636 179.21 236.666 181.31V181.5C236.676 181.87 236.675 182.17 236.685 182.42C236.985 181.96 237.356 181.31 237.656 180.53C237.926 179.83 238.145 179.03 238.215 178.18C238.305 177.12 238.166 175.96 237.926 174.82C237.676 173.64 237.336 172.5 237.026 171.48C236.716 170.46 236.436 169.56 236.136 168.79C235.856 168.07 235.565 167.48 235.225 167.04C234.945 166.68 234.606 166.4 234.276 166.13C233.746 165.69 233.225 165.26 232.825 164.49C232.595 164.05 232.426 163.53 232.256 162.98C231.956 162.05 231.625 161.03 230.965 160.4C230.525 159.98 229.896 159.67 229.256 159.37C228.276 158.9 227.295 158.42 226.715 157.47C226.265 156.72 226.125 155.77 225.975 154.77C225.825 153.71 225.655 152.6 225.105 151.8C224.325 150.68 222.665 149.96 221.205 149.33C220.665 149.1 220.155 148.88 219.705 148.64C218.205 147.87 217.496 147.05 215.526 144.79C215.196 144.41 214.825 143.99 214.205 143.28C213.585 142.58 212.865 141.77 212.085 140.9C209.115 137.57 205.325 133.34 203.195 130.49C201.615 128.37 200.956 127.03 200.376 125.84C199.976 125.02 199.615 124.28 198.995 123.42C198.245 122.36 197.125 121.09 195.725 119.72C194.325 118.34 192.645 116.86 190.805 115.38C188.965 113.9 186.975 112.43 184.835 111.05C182.695 109.66 180.395 108.35 177.925 107.18C175.215 105.89 172.305 104.77 169.785 103.85C169.795 104.3 169.795 104.81 169.795 105.41C169.815 109.52 169.846 117.74 169.566 125.61C169.426 129.57 169.205 133.42 168.975 136.74C168.745 140.12 168.525 142.92 168.376 144.78C168.275 146.06 168.195 146.97 168.105 147.61C168.315 147.79 168.335 148 168.215 148.34C168.185 148.44 168.136 148.52 168.076 148.63C168.056 148.67 168.026 148.71 168.006 148.76C167.876 149 167.725 149.38 167.585 149.76C167.455 150.11 167.306 150.53 167.206 150.82L167.126 151.02ZM164.915 149.43C165.415 149.64 165.876 149.92 166.326 150.28C166.416 150.04 166.525 149.72 166.665 149.36C166.745 149.15 166.835 148.93 166.915 148.74C166.725 148.66 166.505 148.55 166.245 148.43C165.736 148.18 164.955 147.81 163.985 147.33C163.225 146.95 162.465 146.58 161.915 146.29C161.715 146.21 161.515 146.12 161.335 146.04L161.405 148.61C161.405 148.77 161.215 148.8 161.305 148.79H161.316C161.796 148.72 162.755 148.59 163.795 148.92C164.165 149.05 164.555 149.23 164.915 149.43ZM136.245 150.02C142.816 149.75 148.335 149.46 152.655 149.22C154.695 149.11 156.455 149.01 157.975 148.94C158.885 148.9 159.685 148.86 160.405 148.85L160.396 148.64L160.316 145.72V145.55C159.726 145.21 159.375 144.85 159.165 144.16C158.945 143.43 158.956 142.35 159.016 140.43C159.076 138.66 159.175 136.19 159.295 133.33C159.425 130.06 159.585 126.28 159.715 122.49C159.835 119.05 159.936 115.58 160.006 112.47C160.086 109.05 160.145 106.06 160.155 104.02C160.175 102.13 160.155 101.09 159.925 100.51C159.745 100.05 159.326 99.8596 158.516 99.6396C157.756 99.4296 156.645 99.2097 155.485 98.9697C153.815 98.6297 152.046 98.2699 150.946 97.8799C150.886 97.8599 150.826 97.8398 150.766 97.8198C150.816 98.2298 150.856 98.6799 150.886 99.1499C150.926 99.7699 150.935 100.43 150.905 101.05C150.865 101.75 150.786 102.41 150.566 103.2C150.355 103.97 150.026 104.88 149.506 106.09C148.976 107.33 148.276 108.82 147.576 110.35C146.866 111.87 146.145 113.41 145.595 114.69C144.755 116.64 144.266 118.04 143.896 119.11C143.776 119.47 143.655 119.79 143.545 120.1C143.315 120.73 143.095 121.24 142.855 121.56C142.465 122.09 142.035 122.23 141.525 121.86C141.195 121.62 140.836 121.06 140.576 120.33C140.356 119.72 140.175 118.98 140.115 118.22C140.055 117.42 140.115 116.6 140.285 115.72C140.445 114.87 140.696 113.96 141.006 112.97C141.276 112.13 141.575 111.27 141.855 110.43C142.255 109.27 142.646 108.16 142.876 107.31C143.066 106.63 143.136 106.14 143.136 105.78C143.126 105.47 143.055 105.24 142.925 105.03C142.785 104.81 142.595 104.59 142.405 104.43C142.235 104.28 142.095 104.19 142.035 104.19C141.805 104.18 142.245 104.35 142.186 104.78C142.156 105.02 142.115 105.31 142.055 105.7C141.936 106.48 141.745 107.53 141.436 108.64C141.115 109.77 140.665 110.97 140.025 112.02C139.215 113.34 138.135 114.4 137.126 115.38C136.555 115.93 136.015 116.46 135.595 116.97C135.035 117.65 134.656 118.33 134.386 119.03C134.116 119.74 133.965 120.5 133.865 121.31C133.765 122.15 133.726 123.04 133.756 123.99C133.786 124.94 133.886 125.97 134.076 127.08C134.206 127.84 134.355 128.58 134.525 129.38C134.895 131.13 135.326 133.18 135.615 135.86C136.045 139.81 136.175 145.17 136.235 147.86V147.87C136.265 148.87 136.285 149.55 136.245 150.02ZM129.376 150.27L129.936 150.25C129.956 150.25 129.965 150.25 129.985 150.25L134.626 150.08C135.296 150.06 135.296 150.06 135.245 147.91V147.9C135.186 145.24 135.055 139.92 134.626 135.99C134.336 133.34 133.915 131.33 133.555 129.61C133.376 128.75 133.205 127.97 133.085 127.26C132.895 126.12 132.786 125.04 132.756 124.02C132.726 123 132.766 122.06 132.876 121.18C132.986 120.29 133.156 119.45 133.456 118.64C133.476 118.59 133.496 118.54 133.516 118.49L133.155 118.9C132.355 119.81 131.566 120.71 130.946 121.53C130.226 122.48 129.726 123.32 129.396 124.48C129.056 125.67 128.876 127.21 128.805 129.52C128.735 131.88 128.786 135.03 128.876 138.09C128.965 141.14 129.096 144.14 129.186 146.19C129.286 148.54 129.345 149.65 129.365 150.16L129.376 150.27ZM98.6955 151.55C100.176 151.43 101.916 151.31 103.956 151.2C108.806 150.95 115.445 150.73 122.215 150.51C124.275 150.44 126.336 150.38 128.376 150.31V150.23C128.355 149.74 128.296 148.69 128.196 146.25C128.106 144.22 127.976 141.23 127.886 138.13C127.796 135.05 127.746 131.88 127.816 129.5C127.886 127.08 128.076 125.46 128.436 124.18C128.456 124.1 128.486 124.02 128.506 123.95C128.486 123.99 128.455 124.03 128.425 124.07C128.285 124.23 128.085 124.32 127.835 124.33C127.505 124.34 127.005 124.2 126.355 123.86C125.545 123.44 124.455 122.72 123.355 121.87C122.315 121.07 121.266 120.16 120.436 119.3C119.495 118.33 118.856 117.45 118.326 116.73C117.916 116.17 117.576 115.71 117.256 115.41C116.706 114.91 116.056 114.81 115.436 114.72C115.285 114.7 115.146 114.68 114.956 114.64C114.506 114.55 114.066 114.42 113.626 114.18C113.186 113.94 112.725 113.6 112.215 113.09C111.855 112.73 111.445 112.26 111.035 111.8C110.415 111.09 109.796 110.38 109.316 110.04C109.276 110.01 109.246 109.99 109.206 109.97C108.986 109.84 108.816 109.81 108.696 109.85C108.586 109.88 108.485 109.99 108.405 110.11C108.385 110.14 108.375 110.16 108.365 110.18C108.265 110.37 108.206 110.59 108.196 110.82C108.186 111.06 108.226 111.31 108.326 111.56C108.426 111.82 108.586 112.08 108.826 112.33C109.076 112.6 109.426 112.86 109.886 113.1C110.316 113.33 110.836 113.54 111.376 113.76C112.106 114.06 112.886 114.38 113.566 114.79C114.196 115.16 114.735 115.6 115.155 116.17C115.575 116.74 115.875 117.43 116.025 118.28C116.155 119.02 116.165 119.87 116.115 120.69C116.055 121.7 115.885 122.66 115.715 123.27C115.495 124.02 115.216 124.38 114.766 124.43C114.376 124.47 113.996 124.22 113.516 123.77C113.106 123.37 112.565 122.79 111.965 122.05C111.445 121.41 110.875 120.66 110.305 119.83C109.885 119.23 109.455 118.56 108.995 117.86C108.146 116.56 107.236 115.16 106.206 113.84C105.656 113.13 105.095 112.48 104.555 111.85C103.445 110.55 102.376 109.29 101.636 107.98C101.066 106.97 100.705 105.95 100.465 104.93C100.225 103.92 100.115 102.92 100.035 101.96C99.9555 101.01 99.9255 100.08 99.9355 99.1499C99.9455 98.4099 100.005 97.6897 100.095 96.9897C99.3455 97.7697 98.4555 98.3899 97.3455 99.1499L97.2255 99.2397L97.0155 99.3896C96.1755 99.9697 95.2255 100.63 94.2455 101.25C94.4655 101.98 94.6155 103.09 94.8355 104.78C95.0355 106.32 95.2955 108.35 95.5855 110.58C96.0755 114.41 96.6455 118.83 97.1355 122.44C97.5155 125.26 97.8255 127.5 98.1155 129.42C98.4155 131.36 98.6855 133 98.9955 134.59C99.2555 135.97 99.5555 137.37 99.8455 138.65C100.205 140.26 100.545 141.63 100.785 142.56C100.805 142.64 100.876 142.91 100.946 143.17C101.326 144.59 101.425 144.96 100.905 145.51C100.685 145.75 100.316 145.98 99.8255 146.22C99.3755 146.44 98.7955 146.69 98.0955 146.95C97.9455 147.01 97.7955 147.07 97.6355 147.13C97.6655 147.25 97.7055 147.39 97.7355 147.55L98.5955 151.08C98.6355 151.26 98.6655 151.41 98.6955 151.55ZM94.7655 151.99C94.8555 151.98 94.9455 151.96 95.0355 151.95C95.8055 151.84 96.6755 151.74 97.6655 151.64C97.6855 151.61 97.6655 151.54 97.6155 151.35L96.7555 147.82C96.6855 147.52 96.6855 147.52 96.3855 147.64C95.9755 147.81 95.3555 148.07 94.6755 148.33C94.3155 148.47 93.9355 148.6 93.5755 148.72C93.5855 148.74 93.5855 148.77 93.5955 148.8L94.5755 151.68C94.6655 151.89 94.6855 151.97 94.7655 151.99ZM78.8555 202.7C78.5355 204.67 78.3155 206.02 77.3555 206.94C77.5655 207.54 77.7555 208.03 77.9355 208.39C78.4755 209.48 79.1255 209.48 92.1355 209.48H107.615C107.195 208.99 107.135 208.28 107.045 207.24L106.115 195.99C105.835 192.6 105.835 192.6 110.035 192.7L124.615 193.05L124.876 193.06C124.776 192.84 124.685 192.57 124.605 192.25C123.065 192.23 121.525 192.2 120.055 192.17C116.335 192.09 112.986 191.99 110.756 191.92C105.816 191.77 105.815 191.77 105.745 189.65L105.545 183.15C105.475 180.96 105.475 180.96 110.425 181.21C112.635 181.32 115.955 181.5 119.745 181.64C120.665 181.67 121.625 181.71 122.605 181.74L121.465 175.68C120.675 171.49 120.675 171.49 121.775 171.42L123.905 171.28C124.875 171.22 124.875 171.22 125.585 175.33L126.715 181.85C128.475 181.88 130.266 181.9 132.055 181.9C135.165 181.9 138.206 181.84 140.995 181.75L141.485 177.45C141.905 173.71 141.905 173.71 142.775 173.79L144.305 173.93C145.186 174.01 145.185 174.01 144.855 177.73L144.516 181.62C147.796 181.48 150.596 181.33 152.495 181.22C157.016 180.96 157.016 180.96 157.076 183.44L157.275 191.2C157.315 192.62 157.326 193.22 156.706 193.49C156.916 194.31 157.066 195.35 157.186 196.68C157.335 198.31 157.445 200.38 157.535 202.37C157.625 204.33 157.685 206.23 157.725 207.5C157.755 208.42 157.775 209.06 157.425 209.51H165.316C171.056 209.51 173.945 209.51 175.415 209.34L175.516 209.33C175.446 209.26 175.386 209.18 175.326 209.09C174.916 208.45 175.015 207.56 175.235 206.09C175.305 205.64 175.365 205.24 175.425 204.81C175.855 202.03 176.485 197.95 176.605 194.52C176.685 192.47 176.575 190.62 176.485 189C176.395 187.46 176.325 186.12 176.425 184.95C176.545 183.51 176.925 182.4 177.485 181.23C177.305 180.29 177.095 179.29 176.855 178.21C176.275 175.61 175.505 172.57 174.615 169.54C173.855 166.95 173.016 164.37 172.136 162.06C171.186 159.58 170.186 157.41 169.186 155.64C168.186 153.87 167.185 152.49 166.235 151.58C166.115 151.5 165.975 151.39 165.795 151.27L165.785 151.26C165.495 151.05 165.035 150.71 164.525 150.42C164.145 150.26 163.735 150.15 163.275 150.07C162.025 149.86 160.405 149.91 158.035 150.02C156.575 150.09 154.785 150.19 152.715 150.3C148.165 150.55 142.276 150.86 135.146 151.14C131.116 151.3 126.656 151.44 122.256 151.59C115.506 151.81 108.896 152.03 104.016 152.28C101.716 152.4 99.8155 152.53 98.2255 152.67C98.0855 152.69 97.9255 152.71 97.7355 152.73L95.0955 153.05C94.8955 153.07 94.7355 153.09 94.6055 153.1C92.9355 153.37 91.8355 153.68 90.9955 154.07C90.1155 154.47 89.5255 154.96 89.0355 155.71C88.5255 156.51 88.1055 157.64 87.5855 159.29C86.9955 161.15 86.2955 163.66 85.4955 166.96C84.8455 169.67 84.1355 172.89 83.3855 176.71C81.7155 185.25 79.8155 196.89 78.8655 202.71L78.8555 202.7ZM76.9355 205.69C77.4755 204.93 77.6455 203.9 77.8755 202.51V202.5C78.8255 196.69 80.7155 185.09 82.4055 176.48C83.1655 172.61 83.8755 169.37 84.5255 166.68C85.3255 163.34 86.0455 160.81 86.6355 158.93C87.1855 157.19 87.6255 156 88.2055 155.1C88.8055 154.16 89.5255 153.57 90.5855 153.08C91.3655 152.72 92.3355 152.42 93.6955 152.17L93.6555 152.04L92.6755 149.16L92.6255 149.01C91.9455 149.17 91.3855 149.22 90.8655 149.02C90.3255 148.81 89.8855 148.37 89.5155 147.56C89.1855 146.85 88.9055 145.83 88.6055 144.43C88.3155 143.05 87.9955 141.3 87.6055 139.1C87.2055 136.86 86.7355 134.17 86.2755 131.41C85.8155 128.59 85.3455 125.59 84.9755 122.69C84.6555 120.23 84.3955 117.86 84.1955 115.71C83.9255 112.81 83.7455 110.34 83.6555 108.67C83.5755 107.19 83.5455 106.32 83.6155 105.75C83.7055 105.02 83.9255 104.72 84.3355 104.45C84.7955 104.14 85.4955 103.93 86.4055 103.65C86.6955 103.56 87.0155 103.46 87.3855 103.34C88.0455 103.13 88.7855 102.86 89.5755 102.54C90.3555 102.22 91.1755 101.84 91.9955 101.4C92.2455 101.27 92.4855 101.13 92.7355 100.98C92.5855 100.98 92.3955 101.02 92.1555 101.08C91.3055 101.29 90.0055 101.77 88.7055 102.25C87.5155 102.69 86.3155 103.13 85.4355 103.38C84.4655 103.65 83.8655 103.71 83.2855 103.76C82.7555 103.81 82.2455 103.85 81.4455 104.09C80.6555 104.33 79.5955 104.75 78.4155 105.27C77.1255 105.84 75.6855 106.55 74.3055 107.27C73.5155 107.68 72.7455 108.1 71.9855 108.51C70.2055 109.47 68.5155 110.39 66.8255 111.09C65.8155 111.51 64.7955 111.86 63.7655 112.21C62.3855 112.68 60.9855 113.15 59.5855 113.83C58.3655 114.41 57.1255 115.15 55.8555 116.02C54.5855 116.89 53.2555 117.9 51.8855 119.02C50.4955 120.15 49.0755 121.38 47.6855 122.62C46.2655 123.88 44.8955 125.13 43.6355 126.29L43.0855 126.8C41.6955 128.08 40.4355 129.24 39.2955 130.21C39.1955 130.66 39.0055 131.14 38.7455 131.62C38.4755 132.12 38.1255 132.62 37.7155 133.09C37.2955 133.57 36.7955 134.03 36.1255 134.4C35.4655 134.76 34.6455 135.05 33.5655 135.2C32.5055 135.35 31.1855 135.36 29.8155 135.26C28.4855 135.16 27.1055 134.94 25.8755 134.61C24.6055 134.28 23.4855 133.82 22.5455 133.23C21.5855 132.62 20.8155 131.87 20.2955 130.94C19.3355 129.25 19.2055 127.06 19.1255 125.6L19.1055 125.31C19.0755 124.8 19.1255 124.49 19.0955 124.47C19.0755 124.46 18.9155 124.71 18.4055 125.28C17.2455 126.58 15.1355 129.36 13.1955 131.91C12.8655 132.35 12.5355 132.78 12.2255 133.19L11.9655 133.53C9.94547 136.19 8.36548 138.26 6.91548 141.45C6.20548 143.01 5.50549 144.87 4.86549 146.84C4.13549 149.07 3.46547 151.43 2.90547 153.68C2.36547 155.85 1.91547 157.94 1.59547 159.87C1.28547 161.69 1.09546 163.36 1.02546 164.81C0.965464 166.29 1.0355 167.56 1.1855 168.66C1.3455 169.75 1.57547 170.67 1.84547 171.46C2.10547 172.24 2.39551 172.9 2.75551 173.5C3.11551 174.09 3.5555 174.64 4.1255 175.2C4.3055 175.38 4.50547 175.57 4.71547 175.75C5.01547 175.83 5.39551 175.94 5.88551 176.09C6.62551 176.31 7.73551 176.65 9.00551 176.98C10.2555 177.31 11.6555 177.63 12.9555 177.82C14.1955 178 15.3555 178.06 16.4255 178.03C17.5855 178 18.6555 177.85 19.6255 177.63C20.5355 177.42 21.3455 177.14 22.0155 176.82C22.6655 176.51 23.1855 176.15 23.5155 175.78C23.9455 175.31 24.0955 174.75 24.2955 173.99C24.3955 173.61 24.5055 173.18 24.6755 172.68C25.0755 171.46 25.7755 169.9 26.5255 168.21C26.8155 167.56 27.1155 166.89 27.2355 166.59C27.7255 165.46 28.2155 164.3 28.6355 163.11C29.0455 161.93 29.3955 160.7 29.6155 159.4C29.9955 157.15 30.0055 154.68 30.0055 152.2C30.0055 151.79 30.0055 151.39 30.0055 150.98C30.0155 149.45 30.0455 147.94 30.0955 146.6C30.1455 145.34 30.2155 144.23 30.3055 143.41C30.4055 142.47 30.5455 141.85 30.8355 141.44C31.1955 140.95 31.6755 140.81 32.4255 140.92C33.0355 141.01 33.8755 141.27 34.7555 141.65C35.5855 142 36.4655 142.46 37.2455 142.97C38.0555 143.5 38.7555 144.09 39.3855 144.8C40.0055 145.51 40.5455 146.34 41.0255 147.36C41.5255 148.41 41.9555 149.66 42.2755 151.08C42.5655 152.37 42.7755 153.82 42.8555 155.41C42.9355 156.89 42.8955 158.48 42.8055 160.06C42.6855 162.01 42.4655 163.92 42.2355 165.56C42.0255 167.04 41.8055 168.31 41.5355 169.45C41.2755 170.59 40.9655 171.59 40.6055 172.53C40.2255 173.5 39.7855 174.4 39.2655 175.23C38.7655 176.04 38.1955 176.78 37.5455 177.44C36.9955 178 36.4155 178.49 35.8755 178.94C35.1755 179.53 34.5655 180.03 34.3555 180.43C34.3155 180.5 34.2955 180.56 34.2855 180.62C34.2755 180.69 34.2855 180.76 34.3255 180.82C34.3855 180.92 34.4955 181.02 34.6455 181.11C34.9055 181.27 35.2755 181.39 35.7455 181.48C37.0955 181.73 39.1955 181.63 42.5555 181.48L43.5555 181.44C45.6355 181.35 48.1655 181.25 50.6655 181.16C52.9255 181.08 55.1555 181 56.9955 180.95C58.9255 180.9 60.4155 180.87 61.6155 180.89C62.8455 180.91 63.7655 180.98 64.5355 181.13C65.3755 181.29 66.0455 181.52 66.7655 182.21C67.4355 182.85 68.1255 183.88 69.0155 185.64C69.8555 187.28 70.8655 189.55 71.8755 191.96C72.9955 194.62 74.1055 197.46 74.9555 199.82C75.7055 201.88 76.2555 203.56 76.6955 204.92C76.7755 205.21 76.8655 205.46 76.9355 205.69ZM52.6555 207.89C68.3355 207.89 73.9155 207.89 76.1355 206.45C76.0155 206.09 75.8855 205.7 75.7555 205.28C75.3155 203.92 74.7655 202.24 74.0255 200.21C73.1755 197.86 72.0655 195.04 70.9555 192.4C69.9455 189.99 68.9355 187.74 68.1255 186.15C67.2955 184.51 66.6655 183.56 66.0755 183C65.5355 182.49 65.0155 182.3 64.3455 182.18C63.6155 182.04 62.7455 181.98 61.5855 181.95C60.4055 181.93 58.9255 181.95 57.0055 182.01C55.1855 182.06 52.9555 182.13 50.6855 182.22C48.2155 182.31 45.6855 182.41 43.5855 182.5L42.5755 182.54C39.1455 182.69 37.0055 182.79 35.5555 182.52C34.9755 182.41 34.4955 182.25 34.1355 182.03C33.8255 181.85 33.5955 181.63 33.4555 181.38C33.2855 181.09 33.2255 180.78 33.2855 180.45C33.3155 180.28 33.3755 180.1 33.4655 179.93C33.7755 179.35 34.4555 178.78 35.2355 178.13C35.7555 177.69 36.3255 177.22 36.8355 176.7C37.4255 176.09 37.9555 175.41 38.4155 174.67C38.8955 173.89 39.3155 173.04 39.6655 172.14C40.0155 171.25 40.3055 170.3 40.5555 169.21C40.8055 168.12 41.0255 166.88 41.2355 165.41C41.4655 163.79 41.6755 161.9 41.7955 159.99C41.8855 158.45 41.9255 156.89 41.8455 155.46C41.7655 153.95 41.5755 152.56 41.2855 151.32C40.9755 149.97 40.5755 148.8 40.1155 147.82C39.6755 146.9 39.1955 146.15 38.6355 145.51C38.0755 144.87 37.4455 144.34 36.7055 143.86C35.9755 143.38 35.1555 142.95 34.3655 142.62C33.5555 142.27 32.8055 142.03 32.2755 141.96C31.9155 141.91 31.7055 141.94 31.6055 142.08C31.4455 142.3 31.3555 142.77 31.2755 143.53C31.1855 144.34 31.1155 145.43 31.0755 146.65C31.0255 147.99 30.9955 149.49 30.9855 150.99C30.9855 151.4 30.9855 151.8 30.9855 152.21C30.9855 154.75 30.9755 157.27 30.5855 159.59C30.3555 160.95 29.9955 162.24 29.5655 163.48C29.1355 164.71 28.6455 165.88 28.1355 167.04C27.7855 167.84 27.6055 168.25 27.4255 168.66C26.6755 170.34 25.9955 171.89 25.6155 173.04C25.4655 173.5 25.3555 173.92 25.2555 174.28C25.0155 175.19 24.8455 175.85 24.2355 176.51C23.8155 176.97 23.1955 177.4 22.4255 177.77C21.6855 178.12 20.8055 178.43 19.8355 178.65C18.8255 178.88 17.6955 179.03 16.4455 179.07C15.3155 179.1 14.1055 179.04 12.8155 178.85C11.4755 178.65 10.0455 178.33 8.76552 177.99C8.22552 177.85 7.70549 177.7 7.23549 177.57C7.81549 177.92 8.44549 178.26 9.11549 178.57C10.1855 179.07 11.3855 179.53 12.6255 179.93C13.8755 180.34 15.1455 180.7 16.3855 181.02C17.6255 181.34 18.8255 181.62 19.9155 181.84C21.0055 182.05 21.9855 182.2 22.8155 182.26C23.6255 182.32 24.2755 182.29 24.8355 182.19C25.3755 182.09 25.8355 181.91 26.2655 181.68C26.7255 181.43 27.1655 181.09 27.6155 180.76C28.0455 180.43 28.4755 180.11 28.9555 179.84C29.4355 179.57 29.9355 179.36 30.3955 179.23C30.9055 179.09 31.3855 179.03 31.7555 179.08C31.9555 179.1 32.1355 179.16 32.2855 179.23C32.4955 179.33 32.6555 179.48 32.7655 179.65C32.8855 179.84 32.9355 180.06 32.9155 180.27C32.9055 180.37 32.8855 180.46 32.8455 180.54C32.7255 180.8 32.5055 180.98 32.2255 181.11C32.0255 181.21 31.7855 181.28 31.5555 181.35L31.4955 181.37C31.1355 181.47 30.7855 181.58 30.2855 181.93C30.1155 182.05 29.8955 182.22 29.6555 182.41C29.1455 182.81 28.5255 183.3 27.7755 183.74C27.2055 184.07 26.5555 184.38 25.8355 184.6C25.1055 184.82 24.2955 184.96 23.4055 184.96C21.8755 184.96 20.1155 184.54 18.0455 184.06L17.2255 183.87C16.9855 183.81 16.2655 183.65 15.5355 183.48C13.5855 183.04 11.5255 182.57 9.8155 182.06C8.6955 181.73 7.72548 181.38 6.91548 181C6.08548 180.61 5.41551 180.17 4.94551 179.66C4.45551 179.14 4.18546 178.55 4.02546 178.02C3.87546 177.51 3.83549 177.05 3.80549 176.75C3.78549 176.57 3.77552 176.41 3.76552 176.28C3.65552 176.18 3.5455 176.07 3.4355 175.97C2.8055 175.35 2.31547 174.74 1.90547 174.07C1.49547 173.4 1.17552 172.67 0.89552 171.82C0.61552 170.97 0.355508 169.98 0.195508 168.82C0.0355082 167.67 -0.0445358 166.33 0.0254642 164.77C0.0954642 163.26 0.295481 161.55 0.605481 159.7C0.935481 157.76 1.3855 155.65 1.9355 153.43C2.5055 151.14 3.17548 148.75 3.91548 146.52C4.56548 144.53 5.27552 142.64 6.01552 141.02C7.52552 137.71 9.1355 135.6 11.1855 132.89L11.4455 132.55C11.7655 132.13 12.0855 131.7 12.4155 131.27C14.3655 128.7 16.4855 125.9 17.6755 124.57C18.5455 123.6 19.0855 123.31 19.5255 123.53C19.9755 123.76 20.0555 124.36 20.1055 125.25L20.1255 125.55C20.2055 126.91 20.3155 128.95 21.1555 130.42C21.5955 131.19 22.2455 131.83 23.0655 132.35C23.9155 132.89 24.9455 133.3 26.1255 133.61C27.3055 133.92 28.6255 134.13 29.8955 134.23C31.2055 134.33 32.4555 134.32 33.4455 134.18C34.3955 134.05 35.1055 133.81 35.6655 133.49C36.2155 133.18 36.6255 132.81 36.9855 132.4C37.2155 132.13 37.4255 131.86 37.6155 131.58C37.4755 131.68 37.3455 131.78 37.2155 131.87C36.3255 132.48 35.5455 132.88 34.7855 133.15C34.0255 133.42 33.2855 133.56 32.4655 133.65C31.5955 133.75 30.6255 133.79 29.6255 133.73C28.7755 133.68 27.9155 133.55 27.0555 133.3C26.0955 133.03 25.1555 132.62 24.3355 132.12C23.5355 131.63 22.8555 131.04 22.3755 130.41C21.6055 129.37 21.4255 128.26 21.2655 127.26C21.2255 127.02 21.1855 126.78 21.1355 126.54C20.9955 125.86 20.7755 125.27 20.5255 124.62C20.3855 124.24 20.2355 123.84 20.0855 123.38C19.8755 122.75 19.6755 122.02 19.5455 121.25C19.4155 120.47 19.3555 119.65 19.4255 118.81C19.5055 117.84 19.7655 116.9 20.0155 116.01C20.1755 115.42 20.3355 114.84 20.4355 114.31C20.5255 113.78 20.5555 113.26 20.5855 112.71C20.6255 111.89 20.6755 111.03 20.9255 109.92C21.1555 108.92 21.5555 107.75 22.1155 106.58C22.5955 105.56 23.1955 104.54 23.9055 103.63C24.5955 102.74 25.3955 101.97 26.1955 101.34C27.1455 100.59 28.0855 100.02 28.8655 99.6899C29.6255 99.3599 30.2355 99.2298 30.9355 99.2998C31.2855 99.3298 31.6555 99.41 32.0755 99.54C31.8455 99.14 31.7655 98.6498 31.6255 97.7798L31.5755 97.4697C31.5255 97.1297 31.4455 96.6499 31.3555 96.1099C31.0955 94.5399 30.7455 92.4599 30.4955 90.4199C30.3255 89.0699 30.1955 87.7501 30.1955 86.5801C30.1955 85.3601 30.3355 84.2697 30.6955 83.4297C31.0655 82.5797 31.6555 81.9799 32.3355 81.6299C33.0755 81.2499 33.9355 81.1701 34.7155 81.3701C35.4655 81.5601 36.1455 82.02 36.7355 82.73C37.2755 83.39 37.7455 84.2799 38.0955 85.3999C38.5855 86.9299 38.8755 88.8798 39.1955 91.0298C39.3355 91.9498 39.4755 92.9099 39.6455 93.8799C40.1755 96.9899 40.9555 100.3 41.3655 102.06L41.4055 102.23C41.5555 102.87 41.6655 103.33 41.6455 103.66C41.8755 103.82 42.0755 103.98 42.2655 104.18C42.6055 104.52 42.9055 104.94 43.2555 105.55C43.6355 106.2 44.0955 107.1 44.4855 108.04C44.7855 108.78 45.0355 109.54 45.1555 110.26C45.2855 110.99 45.2755 111.65 45.1955 112.24C45.0955 113 44.8655 113.64 44.6355 114.12C44.4055 114.59 44.1755 114.94 43.8255 115.14C44.2955 115.57 44.6655 115.99 44.9355 116.42C45.3355 117.05 45.5255 117.69 45.5255 118.38C45.5255 119.05 45.3355 119.75 45.0255 120.39C44.7055 121.03 44.2655 121.6 43.7355 122C43.2055 122.41 42.5955 122.63 41.7855 122.69C41.5755 122.7 41.3555 122.71 41.1155 122.7C41.2355 122.92 41.3255 123.16 41.3755 123.41C41.4655 123.88 41.4355 124.4 41.2755 124.97C41.1255 125.52 40.8655 126.12 40.5355 126.69C40.2155 127.23 39.8355 127.75 39.4055 128.16C39.3255 128.24 39.2455 128.31 39.1555 128.39C39.2355 128.53 39.2855 128.69 39.3255 128.87C40.2655 128.04 41.3055 127.09 42.4155 126.06L42.9655 125.55C44.2555 124.37 45.6355 123.1 47.0255 121.87C48.4455 120.61 49.8855 119.37 51.2555 118.25C52.6355 117.12 53.9855 116.1 55.2955 115.2C56.6055 114.3 57.8955 113.54 59.1555 112.93C60.6155 112.23 62.0455 111.75 63.4455 111.27C64.4455 110.93 65.4355 110.6 66.4455 110.17C68.1055 109.48 69.7655 108.58 71.5155 107.63C72.2755 107.22 73.0555 106.8 73.8455 106.38C75.2255 105.66 76.6855 104.95 78.0055 104.36C79.2255 103.82 80.3255 103.38 81.1455 103.13C82.0255 102.86 82.5955 102.81 83.1755 102.76C83.7155 102.71 84.2655 102.66 85.1455 102.41C86.0155 102.16 87.1855 101.73 88.3455 101.3C89.6655 100.81 90.9855 100.33 91.8955 100.1C92.7855 99.8701 93.3455 99.8701 93.7655 100.37C94.7255 99.7601 95.6455 99.1298 96.4555 98.5698L96.6655 98.4199L96.7855 98.3301C98.0555 97.4501 99.0155 96.7899 99.7655 95.8599C100.086 95.4699 100.365 95.0201 100.615 94.5801L100.665 94.4097C100.925 93.5497 101.205 92.8299 101.415 92.3599C101.615 91.9199 101.776 91.6798 101.886 91.5698C101.986 91.4698 102.086 91.4196 102.186 91.3896C102.416 91.3396 102.585 91.4101 102.715 91.5801C102.785 91.6801 102.825 91.7897 102.835 91.9097C102.855 92.1797 102.756 92.42 102.376 93.25L102.355 93.2998V93.3101C102.155 93.7501 101.885 94.35 101.535 94.98C101.375 95.52 101.236 96.1097 101.136 96.6997C100.996 97.5097 100.925 98.3497 100.905 99.2197C100.885 100.08 100.926 100.98 101.006 101.92C101.076 102.84 101.185 103.79 101.405 104.73C101.625 105.66 101.955 106.59 102.465 107.5C103.155 108.73 104.196 109.95 105.266 111.21C105.846 111.89 106.426 112.57 106.946 113.24C107.996 114.58 108.915 116.01 109.785 117.33C110.225 118.01 110.646 118.66 111.076 119.27C111.646 120.09 112.196 120.82 112.686 121.43C113.256 122.13 113.766 122.68 114.146 123.05C114.416 123.31 114.575 123.45 114.615 123.45C114.635 123.45 114.625 123.32 114.715 123.03C114.875 122.48 115.016 121.61 115.076 120.68C115.126 119.93 115.116 119.16 115.006 118.52C114.886 117.84 114.656 117.3 114.326 116.86C113.996 116.41 113.555 116.06 113.035 115.75C112.425 115.39 111.675 115.08 110.965 114.79C110.395 114.56 109.846 114.33 109.386 114.09C108.826 113.79 108.406 113.47 108.076 113.13C107.736 112.77 107.505 112.39 107.355 112.01C107.205 111.62 107.135 111.22 107.155 110.84C107.165 110.44 107.276 110.06 107.456 109.72C107.486 109.67 107.505 109.62 107.535 109.58C107.735 109.27 108.006 109.01 108.376 108.9C108.736 108.79 109.166 108.83 109.646 109.12C109.706 109.15 109.756 109.19 109.816 109.23C110.386 109.63 111.055 110.4 111.715 111.16C112.105 111.6 112.485 112.04 112.845 112.4C113.275 112.83 113.665 113.12 114.025 113.31C114.385 113.5 114.725 113.61 115.085 113.68C115.205 113.7 115.365 113.73 115.525 113.75C116.275 113.87 117.075 113.99 117.845 114.68C118.255 115.05 118.616 115.55 119.066 116.16C119.576 116.86 120.195 117.71 121.085 118.62C121.875 119.44 122.896 120.31 123.896 121.09C124.946 121.9 125.985 122.59 126.745 122.98C126.955 123.09 127.145 123.17 127.295 123.23C127.255 123.17 127.206 123.11 127.146 123.05C126.626 122.46 125.665 121.63 124.605 120.71C123.675 119.9 122.655 119.03 121.795 118.18C120.895 117.31 120.145 116.46 119.485 115.71C118.765 114.9 118.156 114.2 117.566 113.72C116.936 113.2 116.316 112.91 115.696 112.62C115.196 112.38 114.685 112.15 114.155 111.8C113.525 111.38 112.865 110.82 112.165 110.05C111.485 109.3 110.755 108.34 109.975 107.14C109.215 105.97 108.406 104.56 107.636 103.11C106.836 101.61 106.095 100.08 105.525 98.7598C104.955 97.4398 104.556 96.3201 104.206 95.1001C103.856 93.8801 103.565 92.5601 103.215 90.8501C103.065 90.1401 102.886 89.2298 102.706 88.2998L102.446 87.02L102.355 86.6797C101.885 84.8097 101.445 82.7599 101.025 80.6099C100.995 80.5199 100.976 80.4298 100.946 80.3398C100.636 79.2898 100.546 79.1299 100.506 79.1499C100.466 79.1599 100.415 79.1897 100.355 79.2197C100.265 79.2697 100.176 79.3199 100.066 79.3599C99.6455 79.5099 99.1855 79.4398 98.7355 79.0898C98.4055 78.8298 98.0755 78.41 97.7855 77.79C97.4255 77.02 97.1055 75.9298 96.7755 74.7798C96.5855 74.1198 96.3855 73.44 96.1655 72.79C95.9955 72.29 95.8255 71.8101 95.6455 71.3301C95.1955 70.1201 94.7455 68.89 94.4055 67.23C94.1855 66.14 94.0155 64.8501 93.8955 63.5801C93.7655 62.1701 93.7055 60.7799 93.7155 59.6899C93.7255 58.6299 93.7955 57.8598 93.9155 57.2798C94.0455 56.6498 94.2355 56.2199 94.4455 55.9199C94.7255 55.5299 95.0555 55.3298 95.4555 55.3398C95.8055 55.3498 96.1755 55.5497 96.5655 55.9697C96.8955 56.3197 97.2555 56.8501 97.6455 57.8101C98.0155 58.7201 98.4155 60.0498 98.8255 62.0298C99.2955 64.2498 99.7755 67.26 100.305 70.52C100.715 73.06 101.145 75.74 101.615 78.29C101.745 78.99 101.876 79.6799 102.006 80.3599C102.426 81.8599 102.935 84.34 103.425 86.79C104.015 89.08 104.655 91.0797 105.345 92.6597C106.055 94.2897 106.835 95.4697 107.675 96.3896C108.515 97.3096 109.436 97.9801 110.436 98.6001C111.446 99.2301 112.546 99.7998 113.766 100.34C114.986 100.88 116.325 101.4 117.835 101.92C119.335 102.44 120.986 102.96 122.706 103.28C124.416 103.6 126.195 103.73 127.965 103.47C129.705 103.22 131.455 102.6 133.105 101.7C134.825 100.76 136.435 99.5201 137.835 98.0601C139.105 96.7401 140.206 95.2497 141.126 93.7397C142.215 91.9597 143.045 90.1498 143.605 88.5698C144.205 86.8798 144.505 85.4598 144.745 84.3198C144.925 83.4498 145.076 82.7297 145.305 82.1597C145.345 82.0497 145.396 81.9398 145.446 81.8398C145.626 80.9198 145.845 79.8898 146.085 78.7998C146.475 76.9798 146.906 74.9898 147.256 73.0298C147.566 71.2898 147.806 69.56 148.006 67.75C148.206 65.94 148.355 64.0801 148.485 62.0801C148.615 60.0501 148.705 57.8898 148.785 55.8398C148.845 54.2198 148.885 52.6598 148.925 51.2598C148.745 50.8298 148.526 50.3897 148.256 49.9497C147.686 49.0397 146.875 48.0997 145.835 47.1797C144.865 46.3297 143.696 45.5098 142.326 44.7798C140.836 43.9798 139.116 43.28 137.136 42.73C135.306 42.22 133.255 41.8401 130.985 41.6201C129.705 41.5001 128.355 41.4297 126.985 41.4097H126.915C123.885 41.5597 120.906 41.7 118.456 41.77H118.425C117.765 41.84 117.145 41.92 116.555 42C114.605 42.28 113.105 42.6201 111.715 43.0601C110.325 43.5001 109.045 44.0497 107.525 44.7197C106.615 45.1297 105.675 45.5497 104.725 45.9897C102.305 47.0897 99.7955 48.2299 98.1355 48.8599C96.9255 49.3199 96.1455 49.51 95.5755 49.54C94.9255 49.57 94.5455 49.4097 94.1755 49.1597C93.8255 48.9297 93.4855 48.6197 93.1955 48.2197C92.9355 47.8697 92.7055 47.4399 92.5255 46.9399C92.3355 46.4099 92.2055 45.8001 92.2355 45.1201C92.2655 44.4401 92.4555 43.6997 92.9055 42.9497C93.1855 42.4897 93.5555 42.0298 94.0255 41.5698C94.1155 41.0798 94.2255 40.5999 94.3555 40.1899C94.6155 39.3799 94.9155 38.8998 95.1555 38.5098C95.2955 38.2898 95.4155 38.0999 95.4655 37.9199C95.5455 37.6499 95.5355 37.2797 95.5155 36.9097C95.5055 36.6097 95.4955 36.31 95.5255 36.02C95.5755 35.52 95.7355 35.1097 95.8855 34.7197C95.9555 34.5397 96.0255 34.3599 96.0755 34.1899C96.1955 33.7799 96.2455 33.31 96.3755 31.98C96.4055 31.64 96.4455 31.24 96.4755 30.96C96.5855 29.85 96.7455 28.35 96.9755 26.71C97.2155 25.06 97.5455 23.2398 98.0055 21.5098C98.4555 19.8198 99.0155 18.22 99.6755 16.73C100.365 15.16 101.156 13.7199 102.006 12.4399C102.836 11.1799 103.735 10.0698 104.735 9.06982C105.735 8.07982 106.835 7.20971 108.085 6.44971C109.325 5.68971 110.705 5.03977 111.965 4.50977C113.245 3.96977 114.376 3.55979 115.146 3.27979C116.066 2.94979 116.546 2.7698 116.995 3.0498L117.025 3.06982C117.015 2.00982 117.305 1.99994 118.425 1.93994C119.415 1.88994 121.385 1.77996 122.525 1.70996H122.555C122.925 1.68996 123.206 1.66998 123.446 1.72998C124.116 -1.95503e-05 124.195 0 124.865 0H126.615C127.345 0 127.395 -0.000351667 128.115 2.13965C128.195 2.12965 128.296 2.11986 128.386 2.10986C128.776 2.08986 129.305 2.10965 129.876 2.13965C130.656 2.18965 131.486 2.2801 132.066 2.3501C132.696 2.4301 133.095 2.48994 133.415 2.93994C133.575 3.15994 133.675 3.45965 133.745 3.88965C133.766 3.86965 133.796 3.83982 133.826 3.81982C134.266 3.47982 134.815 3.60979 135.785 4.02979C136.695 4.41979 138.085 5.08992 139.595 5.91992C140.745 6.55992 141.965 7.29008 143.105 8.08008C144.425 8.99008 145.626 9.97012 146.696 11.1201C147.776 12.2801 148.736 13.63 149.566 15.27C150.326 16.77 150.975 18.5201 151.535 20.3701C152.185 22.5201 152.695 24.8097 153.095 26.9897C153.505 29.2297 153.795 31.3597 154.035 33.1597C154.225 34.5797 154.386 35.7897 154.566 36.6797C154.916 38.4697 155.305 38.9799 155.805 39.6299L155.925 39.79C156.245 40.21 156.596 40.6998 156.896 41.2998C157.206 41.9098 157.456 42.6297 157.566 43.4697C157.676 44.3497 157.635 45.3701 157.405 46.3501C157.195 47.2401 156.846 48.1001 156.316 48.8101C155.826 49.4601 155.206 49.9799 154.566 50.3599C153.745 50.8499 152.885 51.15 152.235 51.27C151.765 51.36 151.385 51.3698 151.105 51.3198C150.875 51.2798 150.696 51.1901 150.566 51.0801C150.376 50.9101 150.275 50.6997 150.285 50.4497C150.285 50.3297 150.315 50.2098 150.365 50.0898C150.475 49.8398 150.706 49.6298 151.006 49.3398C151.316 49.0498 151.726 48.6699 152.136 48.1099C152.506 47.6099 152.886 46.95 153.196 46.29C153.506 45.64 153.735 45.0098 153.835 44.5298C153.915 44.1498 153.895 43.8897 153.785 43.6997C153.645 43.4597 153.366 43.2297 152.946 42.9297C152.426 42.5597 151.735 42.1099 150.905 41.6499C150.255 41.2899 149.495 40.9198 148.665 40.5698C148.525 40.5098 148.385 40.4599 148.245 40.3999C148.445 40.4899 148.606 40.59 148.756 40.71C149.056 40.94 149.306 41.2199 149.516 41.6499C149.706 42.0499 149.845 42.5598 149.925 43.2798C150.005 43.9598 150.035 44.83 150.035 45.96C150.035 47.08 150.005 48.4401 149.965 50.1201L149.946 51.0498C150.316 52.0098 150.515 52.9499 150.715 53.8999C150.775 54.1899 150.835 54.4898 150.905 54.7798C150.965 55.0498 151.035 55.3101 151.095 55.5801C151.475 57.1401 151.895 58.8501 151.745 61.3301C151.615 63.5601 151.026 66.3701 150.456 69.0801C150.276 69.9301 150.095 70.7797 149.965 71.4297C149.785 72.3297 149.625 73.2198 149.465 74.0698C149.055 76.2898 148.715 78.1401 148.235 79.3501C147.865 80.2801 147.445 80.8101 147.035 81.3101C146.805 81.6001 146.585 81.87 146.405 82.21C146.365 82.44 146.315 82.6601 146.275 82.8701C146.045 84.1201 145.915 85.1097 145.925 85.9897C145.925 86.8597 146.055 87.64 146.345 88.5C146.495 88.95 146.705 89.47 146.925 90C147.535 91.49 148.175 93.04 147.905 94.48C147.575 96.19 145.995 97.4901 144.605 98.6201C144.395 98.7901 144.185 98.9701 144.045 99.0801C143.365 99.6501 142.805 100.18 142.305 100.79C141.805 101.39 141.355 102.07 140.905 102.93C140.455 103.79 139.985 104.85 139.555 105.94C139.115 107.07 138.705 108.25 138.405 109.31C138.275 109.75 138.176 110.17 138.066 110.58C137.715 111.92 137.406 113.13 136.646 114.49C137.546 113.61 138.485 112.65 139.175 111.53C139.755 110.57 140.175 109.47 140.465 108.42C140.765 107.36 140.945 106.35 141.055 105.61C141.105 105.28 141.146 104.96 141.186 104.71C141.346 103.55 141.396 103.17 142.076 103.21C142.336 103.23 142.686 103.41 143.016 103.68C143.286 103.9 143.556 104.2 143.756 104.53C143.976 104.89 144.105 105.29 144.126 105.82C144.135 106.3 144.045 106.88 143.835 107.66C143.605 108.52 143.205 109.66 142.795 110.85C142.495 111.7 142.196 112.58 141.946 113.36C141.646 114.3 141.406 115.17 141.256 115.98C141.106 116.77 141.055 117.5 141.105 118.2C141.155 118.86 141.305 119.5 141.495 120.02C141.695 120.55 141.915 120.94 142.085 121.06C142.125 121.09 142.046 121.01 142.066 120.98C142.236 120.75 142.415 120.33 142.615 119.78C142.715 119.5 142.836 119.18 142.956 118.81C143.336 117.72 143.826 116.3 144.686 114.32C145.256 113 145.975 111.46 146.675 109.95C147.395 108.4 148.105 106.88 148.595 105.73C149.095 104.57 149.405 103.71 149.595 102.98C149.785 102.27 149.866 101.68 149.896 101.06C149.926 100.48 149.915 99.8698 149.876 99.2798C149.836 98.5598 149.755 97.8899 149.675 97.3799L149.665 97.3198C149.605 97.2698 149.556 97.2299 149.506 97.1899C149.266 96.9699 149.145 96.75 149.085 96.54C149.015 96.27 149.065 96.0401 149.155 95.8701C149.215 95.7501 149.305 95.6498 149.405 95.5898C149.825 95.3098 150.156 95.4598 150.396 96.0498C150.456 96.1998 150.516 96.3997 150.566 96.6597C150.745 96.7497 150.965 96.8497 151.245 96.9497C152.266 97.3097 154.015 97.66 155.665 98C156.815 98.24 157.926 98.4599 158.756 98.6899C159.896 98.9999 160.495 99.2999 160.845 100.17C161.145 100.93 161.166 102.06 161.146 104.09C161.126 106.15 161.076 109.14 160.995 112.56C160.915 115.69 160.816 119.17 160.706 122.59C160.576 126.44 160.415 130.2 160.285 133.44C160.165 136.33 160.066 138.81 160.006 140.53C159.946 142.33 159.945 143.33 160.115 143.91C160.235 144.31 160.475 144.53 160.915 144.76C161.135 144.76 161.356 144.88 161.756 145.1C161.866 145.16 161.996 145.23 162.146 145.31L162.295 145.39C163.605 145.93 165.265 146.53 166.365 146.93L166.816 147.09C166.926 147.13 167.036 147.17 167.126 147.21C167.196 146.81 167.255 146.07 167.365 144.76C167.515 142.86 167.745 140.02 167.965 136.73C168.185 133.39 168.415 129.54 168.555 125.63C168.835 117.77 168.805 109.57 168.785 105.47C168.785 104.67 168.776 104.04 168.766 103.55C168.216 103.35 167.696 103.17 167.196 102.99C166.196 102.64 165.325 102.33 164.585 102.05C163.295 101.56 162.555 101.21 162.235 100.97C162.035 100.82 161.915 100.66 161.876 100.48C161.796 100.12 161.945 99.8898 162.285 99.7598C162.475 99.6898 162.775 99.6797 163.155 99.6997C164.395 99.7897 166.876 100.32 168.126 100.58C169.336 100.84 169.645 100.9 169.735 102.79C172.375 103.74 175.446 104.92 178.316 106.28C180.816 107.47 183.155 108.8 185.335 110.22C187.515 111.63 189.536 113.12 191.396 114.61C193.256 116.1 194.956 117.61 196.396 119.02C197.836 120.44 199.006 121.75 199.786 122.85C200.446 123.79 200.826 124.56 201.245 125.42C201.805 126.57 202.445 127.86 203.965 129.9C206.055 132.7 209.836 136.92 212.796 140.24C213.576 141.11 214.296 141.92 214.916 142.62C215.296 143.05 215.796 143.62 216.245 144.14C218.126 146.29 218.806 147.07 220.136 147.75C220.556 147.96 221.055 148.18 221.575 148.41C223.165 149.09 224.956 149.87 225.906 151.23C226.606 152.25 226.795 153.49 226.965 154.66C227.095 155.55 227.215 156.39 227.555 156.95C227.975 157.64 228.826 158.05 229.666 158.46C230.376 158.8 231.076 159.14 231.626 159.67C232.486 160.49 232.855 161.64 233.185 162.69C233.345 163.19 233.505 163.67 233.685 164.03C233.985 164.6 234.426 164.97 234.876 165.34C235.256 165.65 235.635 165.96 235.975 166.41C236.385 166.93 236.716 167.61 237.036 168.43C237.336 169.21 237.625 170.14 237.945 171.19C238.265 172.25 238.626 173.44 238.876 174.63C239.135 175.86 239.285 177.12 239.185 178.29C239.105 179.26 238.865 180.17 238.555 180.95C238.115 182.09 237.545 182.98 237.185 183.46C236.515 184.35 236.126 184.49 235.796 183.56C235.686 183.24 235.666 182.61 235.646 181.54V181.35C235.616 179.32 235.555 175.81 234.745 173.26C234.335 171.98 233.735 170.94 232.965 170.11C232.195 169.28 231.265 168.64 230.195 168.18C229.055 167.69 227.776 167.39 226.406 167.39C225.176 167.39 223.875 167.62 222.565 168.17C221.245 168.72 219.896 169.58 218.656 170.57C217.256 171.7 215.995 172.99 215.075 174.19C213.965 175.63 213.335 176.96 212.735 178.24C212.385 178.97 212.046 179.69 211.626 180.42C211.006 181.48 210.225 182.54 209.465 183.34C208.725 184.12 207.976 184.66 207.376 184.74C206.096 184.92 205.685 183.49 205.335 182.31C205.295 182.16 205.245 182.01 205.185 181.82C205.045 181.39 204.916 181.11 204.756 180.96C204.646 180.86 204.486 180.82 204.266 180.85C204.136 180.86 203.976 180.9 203.796 180.94C202.996 181.12 201.795 181.38 199.605 180.87C198.405 180.59 196.925 180.08 195.365 179.45C193.436 178.68 191.375 177.75 189.575 176.88C187.945 176.09 186.536 175.37 185.396 174.71C184.236 174.04 183.335 173.42 182.745 172.86C182.715 172.83 182.685 172.81 182.655 172.78C182.445 173.31 182.215 173.83 181.995 174.34C181.225 176.08 180.406 177.72 179.696 179.07C179.476 179.49 179.356 179.7 179.256 179.9C178.976 180.43 178.705 180.92 178.475 181.39C178.665 182.42 178.835 183.4 178.975 184.34C179.255 186.25 179.436 187.99 179.576 189.82C179.716 191.64 179.825 193.57 179.835 195.49C179.855 197.41 179.785 199.29 179.585 201.02C179.385 202.75 179.046 204.34 178.696 205.68C178.346 207.03 177.986 208.1 177.745 208.8L177.686 208.98C177.826 208.99 177.965 209 178.115 209.01C180.915 209.17 186.496 208.98 189.286 208.88H189.305C189.825 208.86 190.235 208.85 190.555 208.83C190.595 208.61 190.635 208.4 190.685 208.19C191.005 206.65 191.366 205.33 191.776 204.11C192.186 202.89 192.636 201.78 193.136 200.66C193.636 199.54 194.175 198.4 194.825 197.28C195.475 196.15 196.236 195.05 197.146 194.01C198.396 192.59 199.936 191.29 201.276 190.16C201.876 189.66 202.436 189.18 202.896 188.76C203.766 187.97 204.355 187.29 204.815 186.77C205.155 186.38 205.425 186.07 205.705 185.83C206.025 185.56 206.335 185.4 206.605 185.33C207.045 185.21 207.426 185.3 207.626 185.46C208.105 185.87 207.896 186.24 207.546 186.85L207.445 187.03L207.396 187.11C207.116 187.61 206.726 188.31 205.386 189.57C204.916 190.01 204.275 190.56 203.565 191.17C202.355 192.21 200.956 193.42 199.776 194.64C198.866 195.58 198.086 196.53 197.396 197.55C196.706 198.57 196.105 199.66 195.555 200.89C194.995 202.13 194.485 203.51 194.055 204.77C193.615 206.07 193.276 207.2 193.046 207.95C192.646 209.28 192.526 209.67 191.396 209.83C191.196 210.94 191.025 212.14 190.865 213.38C190.635 215.25 190.445 217.27 190.305 219.31C190.175 221.31 190.085 223.32 190.115 225.11C190.145 226.89 190.275 228.46 190.565 229.59C190.815 230.54 191.175 231.17 191.575 231.56C192.025 231.99 192.535 232.12 192.985 232.06C193.385 232.01 193.736 231.8 194.046 231.41C194.396 230.97 194.686 230.31 194.926 229.38C195.026 228.97 195.125 228.52 195.205 228.04C195.335 226.51 195.515 224.96 195.715 223.54C196.005 221.44 196.355 219.62 196.685 217.89C196.835 217.08 196.985 216.3 197.105 215.65C197.215 215.05 197.335 214.32 197.455 213.62C197.735 211.95 197.975 210.48 198.245 209.68C198.385 209.27 198.616 209.19 198.776 209.05C198.966 208.89 199.095 208.65 199.305 208.72C199.475 208.78 199.615 208.9 199.715 209.1C199.835 209.34 199.916 209.75 199.906 210.3C199.896 210.92 199.796 211.73 199.626 212.63C199.446 213.55 199.206 214.59 198.906 215.61C198.736 216.22 198.555 216.79 198.365 217.38C197.925 218.78 197.466 220.25 197.136 221.98C196.936 223.04 196.765 224.24 196.615 225.42C196.485 226.39 196.355 227.34 196.205 228.2L196.195 228.3C196.055 229.88 195.965 231.39 195.935 232.65C195.905 233.87 195.925 234.84 196.055 235.62C196.175 236.33 196.375 236.85 196.705 237.23C196.745 237.28 196.785 237.32 196.805 237.34C197.115 237.65 197.515 237.86 197.935 237.89C198.355 237.92 198.795 237.78 199.205 237.39C199.245 237.35 199.285 237.31 199.335 237.26C199.775 236.77 200.185 235.99 200.565 235C200.695 233.88 200.925 232.47 201.235 230.87C201.585 229.07 202.045 227.04 202.565 224.92C203.085 222.83 203.655 220.7 204.195 218.82C204.755 216.87 205.295 215.16 205.705 214.02C206.055 213.06 206.326 212.48 206.506 212.23C206.656 212.02 206.826 211.92 207.016 211.91C207.336 211.89 207.535 212.07 207.595 212.43C207.635 212.63 207.606 212.98 207.526 213.44C207.346 214.49 206.845 216.29 206.235 218.49C206.105 218.97 205.966 219.46 205.666 220.55C205.226 222.17 204.826 223.68 204.416 225.2C203.926 227.05 203.425 228.91 202.995 230.48C202.546 232.11 202.116 233.64 201.656 234.91C201.606 235.03 201.566 235.16 201.516 235.28L201.495 235.46C201.385 236.57 201.395 237.32 201.495 237.84C201.585 238.3 201.745 238.57 201.955 238.8C202.175 239.04 202.445 239.22 202.725 239.29C202.965 239.35 203.236 239.33 203.506 239.2C203.836 239.04 204.185 238.73 204.605 238.12C205.055 237.46 205.575 236.47 206.195 234.99C206.635 233.95 207.115 232.69 207.615 231.32C207.765 230.27 208.026 229.01 208.426 227.5C208.866 225.81 209.485 223.81 210.115 221.9C210.826 219.76 211.565 217.73 212.105 216.4C212.645 215.09 213.016 214.41 213.276 214.06C213.826 213.34 214.225 213.53 214.485 213.86C214.655 214.08 214.705 214.36 214.585 214.85C214.505 215.17 214.345 215.64 214.085 216.37C213.945 216.74 213.756 217.25 213.536 217.84C213.006 219.25 212.265 221.19 211.345 223.79C211.135 224.39 210.776 225.4 210.416 226.45C209.826 228.14 209.195 229.93 208.595 231.58C208.575 231.73 208.556 231.88 208.536 232.03C208.406 233.12 208.426 233.93 208.526 234.55C208.616 235.09 208.765 235.45 208.955 235.66C209.125 235.85 209.366 235.92 209.636 235.9C209.956 235.87 210.336 235.72 210.776 235.33C211.266 234.9 211.825 234.18 212.455 233.05C213.535 231.1 214.805 227.92 216.055 224.79C216.195 224.44 216.306 224.17 216.786 222.98C217.536 221.13 218.255 219.4 218.955 217.75C219.675 216.08 220.365 214.5 221.055 212.98C221.385 212.24 221.476 212.05 221.546 211.9C221.716 211.53 221.876 211.17 222.036 210.81C220.556 210.61 220.725 210.27 220.995 209.72C221.145 209.41 221.376 208.95 221.636 208.34C221.886 207.76 222.166 207.09 222.396 206.39C222.606 205.75 222.795 205.07 222.955 204.4C223.145 203.6 223.296 202.8 223.406 202.08C223.446 201.82 223.465 201.69 223.485 201.57C223.665 200.4 223.816 199.42 224.386 198.54C224.856 197.8 225.586 197.2 226.396 196.52C226.656 196.31 226.915 196.09 227.235 195.8C227.785 195.32 228.346 194.78 228.906 194.16C229.476 193.53 230.056 192.8 230.646 191.95C231.246 191.09 231.856 190.1 232.416 189.14C232.966 188.2 233.486 187.26 233.896 186.53L234.055 186.23C234.805 184.86 235.146 184.25 235.536 184.15C235.616 184.13 235.706 184.13 235.796 184.14C236.026 184.19 236.196 184.35 236.256 184.65C236.286 184.77 236.286 184.93 236.256 185.14C236.196 185.55 235.986 186.26 235.506 187.4C235.006 188.58 234.206 190.27 233.266 191.92C232.556 193.18 231.755 194.41 230.965 195.38C230.005 196.54 229.066 197.31 228.256 197.96C227.536 198.54 226.935 199.03 226.575 199.6C226.125 200.31 225.985 201.27 225.815 202.42C225.695 203.22 225.565 204.1 225.325 205.04C224.925 206.59 224.216 208.34 223.386 210.2M223.166 210.85C222.956 211.32 222.736 211.8 222.516 212.29L222.026 213.37C221.326 214.91 220.635 216.49 219.935 218.12C219.225 219.78 218.506 221.51 217.776 223.33L217.046 225.14C215.786 228.29 214.506 231.5 213.386 233.52C212.696 234.76 212.065 235.57 211.485 236.08C210.855 236.63 210.286 236.85 209.776 236.89C209.196 236.94 208.696 236.77 208.296 236.34C207.956 235.97 207.715 235.43 207.595 234.67C207.585 234.58 207.565 234.49 207.555 234.4C207.425 234.73 207.296 235.05 207.166 235.35C206.516 236.88 205.965 237.94 205.475 238.66C204.945 239.44 204.455 239.86 203.965 240.09C203.475 240.32 202.995 240.35 202.555 240.25C202.065 240.13 201.636 239.85 201.296 239.47C200.966 239.12 200.715 238.68 200.575 237.99C200.535 237.81 200.516 237.61 200.495 237.39C200.365 237.59 200.225 237.77 200.075 237.93C200.025 237.99 199.966 238.05 199.896 238.11C199.266 238.71 198.556 238.93 197.886 238.88C197.226 238.83 196.606 238.51 196.136 238.04C196.076 237.98 196.025 237.92 195.985 237.88C195.515 237.34 195.235 236.65 195.085 235.74C194.945 234.9 194.925 233.86 194.955 232.57C194.965 232.33 194.965 232.08 194.975 231.83C194.925 231.9 194.885 231.96 194.835 232.02C194.355 232.62 193.786 232.94 193.136 233.03C192.426 233.12 191.625 232.94 190.935 232.27C190.405 231.76 189.936 230.97 189.636 229.81C189.316 228.59 189.176 226.93 189.146 225.07C189.116 223.23 189.205 221.19 189.335 219.19C189.475 217.14 189.666 215.11 189.896 213.2C190.046 212.03 190.206 210.91 190.386 209.86C190.086 209.87 189.735 209.89 189.345 209.9H189.325C186.515 209.99 180.915 210.18 178.095 210.03C177.705 210.01 177.355 209.98 177.055 209.94C176.745 210.14 176.265 210.28 175.485 210.37C173.945 210.55 171.045 210.55 165.275 210.55H144.925H144.305H119.256H118.706H92.1255C78.5455 210.55 77.8655 210.55 77.0455 208.89C76.8655 208.53 76.6855 208.09 76.4955 207.56C73.8955 208.94 67.8755 208.95 52.6355 208.95" fill="url(#paint0_linear_726_9074)"/>
  <path d="M222.075 210.82L221.615 211.84C221.575 211.93 221.525 212.04 221.425 212.25L221.265 212.601C221.225 212.701 221.175 212.79 221.115 212.92C220.425 214.43 219.735 216.01 219.015 217.69C218.315 219.33 217.595 221.06 216.845 222.91C216.365 224.11 216.255 224.37 216.115 224.73C214.865 227.85 213.595 231.03 212.515 232.99C211.885 234.12 211.325 234.841 210.835 235.271C210.395 235.661 210.015 235.81 209.695 235.84C209.415 235.86 209.185 235.791 209.005 235.601C208.815 235.391 208.665 235.03 208.575 234.49C208.475 233.87 208.465 233.06 208.595 231.97C208.605 231.82 208.625 231.671 208.645 231.521C209.255 229.871 209.875 228.08 210.475 226.39C210.835 225.35 211.195 224.34 211.405 223.74C212.325 221.14 213.065 219.201 213.595 217.791C213.815 217.191 214.015 216.691 214.145 216.311C214.415 215.591 214.575 215.12 214.645 214.8C214.765 214.31 214.715 214.031 214.545 213.811C214.295 213.481 213.895 213.28 213.345 214C213.075 214.35 212.705 215.03 212.165 216.34C211.625 217.67 210.885 219.69 210.175 221.84C209.545 223.74 208.925 225.75 208.485 227.43C208.085 228.94 207.825 230.2 207.675 231.25C207.175 232.62 206.695 233.89 206.255 234.93C205.635 236.4 205.125 237.39 204.665 238.05C204.245 238.66 203.895 238.98 203.565 239.13C203.285 239.26 203.025 239.28 202.785 239.23C202.495 239.16 202.225 238.98 202.005 238.74C201.805 238.52 201.645 238.24 201.555 237.78C201.455 237.26 201.435 236.52 201.545 235.4L201.565 235.22C201.615 235.1 201.655 234.971 201.705 234.851C202.165 233.591 202.595 232.06 203.045 230.42C203.475 228.86 203.975 226.99 204.465 225.15C204.865 223.63 205.265 222.12 205.705 220.5C206.005 219.41 206.145 218.92 206.275 218.44C206.885 216.24 207.385 214.44 207.565 213.39C207.645 212.93 207.665 212.58 207.635 212.38C207.565 212.02 207.375 211.841 207.055 211.851C206.865 211.861 206.695 211.97 206.545 212.17C206.365 212.43 206.095 213 205.745 213.97C205.335 215.11 204.795 216.821 204.235 218.771C203.695 220.651 203.115 222.791 202.605 224.871C202.075 226.991 201.625 229.02 201.265 230.82C200.955 232.41 200.725 233.83 200.595 234.95C200.215 235.93 199.805 236.72 199.365 237.2C199.315 237.26 199.275 237.3 199.235 237.34C198.825 237.73 198.375 237.87 197.965 237.84C197.535 237.81 197.135 237.601 196.835 237.291H196.825C196.805 237.271 196.775 237.23 196.725 237.18C196.395 236.8 196.195 236.27 196.075 235.57C195.955 234.79 195.925 233.821 195.955 232.601C195.995 231.341 196.085 229.82 196.225 228.25L196.235 228.14C196.385 227.28 196.505 226.33 196.635 225.36C196.795 224.19 196.965 222.99 197.165 221.93C197.495 220.2 197.955 218.731 198.395 217.331C198.585 216.741 198.765 216.171 198.935 215.561C199.225 214.541 199.475 213.501 199.655 212.581C199.815 211.721 200.465 208.77 199.245 208.65L198.645 208.89L198.265 209.621C198.045 210.461 197.705 212.161 197.475 213.561C197.355 214.251 197.235 214.981 197.125 215.581C197.015 216.231 196.865 217.02 196.705 217.82C196.375 219.55 196.035 221.37 195.745 223.47C195.545 224.89 195.375 226.44 195.235 227.97C195.155 228.46 195.055 228.911 194.955 229.311C194.715 230.241 194.415 230.91 194.075 231.34C193.765 231.73 193.405 231.94 193.005 231.99C192.565 232.05 192.055 231.92 191.605 231.49C191.195 231.1 190.835 230.471 190.585 229.521C190.295 228.391 190.165 226.821 190.135 225.041C190.105 223.251 190.195 221.24 190.325 219.24C190.455 217.2 190.645 215.19 190.885 213.32C191.035 212.11 191.205 210.96 191.395 209.88L190.385 209.84C190.205 210.89 190.035 212.01 189.895 213.18C189.655 215.09 189.465 217.13 189.325 219.17C189.195 221.18 189.115 223.211 189.145 225.061C189.165 226.921 189.315 228.57 189.635 229.8C189.935 230.96 190.395 231.75 190.935 232.26C191.625 232.93 192.425 233.121 193.135 233.021C193.785 232.941 194.355 232.62 194.835 232.01C194.885 231.95 194.935 231.89 194.975 231.82C194.965 232.08 194.965 232.321 194.955 232.561C194.925 233.861 194.945 234.89 195.085 235.73C195.235 236.64 195.515 237.331 195.985 237.871C196.015 237.921 196.065 237.97 196.135 238.03C196.605 238.51 197.215 238.821 197.885 238.871C198.555 238.921 199.255 238.701 199.895 238.101L200.075 237.92C200.215 237.76 200.355 237.58 200.485 237.38C200.505 237.6 200.535 237.8 200.565 237.98C200.705 238.67 200.955 239.1 201.285 239.46C201.635 239.83 202.065 240.12 202.555 240.24C202.705 240.28 202.865 240.291 203.035 240.291C203.335 240.291 203.645 240.231 203.955 240.081C204.445 239.851 204.925 239.43 205.465 238.65C205.965 237.93 206.515 236.87 207.155 235.34C207.285 235.04 207.415 234.72 207.545 234.39C207.555 234.48 207.565 234.57 207.585 234.66C207.705 235.41 207.945 235.96 208.285 236.32C208.685 236.75 209.185 236.921 209.765 236.871C210.265 236.831 210.835 236.611 211.465 236.061C212.045 235.551 212.675 234.75 213.365 233.5C214.485 231.48 215.765 228.271 217.025 225.121L217.755 223.311C218.485 221.491 219.205 219.761 219.915 218.101C220.615 216.471 221.305 214.891 222.005 213.351L222.495 212.28C222.715 211.79 222.935 211.31 223.145 210.84L222.075 210.82Z" fill="white"/>
  <defs>
    <linearGradient id="paint0_linear_726_9074" x1="-0.017229" y1="120.111" x2="239.248" y2="120.111" gradientUnits="userSpaceOnUse">
      <stop offset="0.00534799" stop-color="#233B77"/>
      <stop offset="0.4076" stop-color="#223872"/>
      <stop offset="0.8787" stop-color="#1F3164"/>
      <stop offset="1" stop-color="#1E2E5F"/>
    </linearGradient>
  </defs>
</svg>