<svg width="22" height="22" viewBox="0 0 22 22" fill="none" xmlns="http://www.w3.org/2000/svg">
<g id="Group">
<path id="Vector" d="M10.6577 0.960938C16.1677 0.960938 20.6377 5.43092 20.6377 10.9409C20.6377 16.4509 16.1677 20.9209 10.6577 20.9209C5.14771 20.9209 0.677734 16.4509 0.677734 10.9409C0.677734 5.42092 5.14771 0.960938 10.6577 0.960938Z" stroke="white" stroke-width="0.8456" stroke-miterlimit="10"/>
<g id="Group_2">
<path id="Vector_2" d="M10.6577 11.1221L6.15771 7.67188H15.1577L10.6577 11.1221Z" fill="white"/>
<path id="Vector_3" d="M9.09778 10.833L5.46777 13.793V8.04297L9.09778 10.833Z" fill="white"/>
<path id="Vector_4" d="M9.68799 11.2822L10.658 12.042L11.678 11.252L15.2179 14.2021H6.12793L9.68799 11.2822Z" fill="white"/>
<path id="Vector_5" d="M12.2578 10.793L15.8578 8.04297V13.793L12.2578 10.793Z" fill="white"/>
</g>
</g>
</svg>
