<svg width="22" height="22" viewBox="0 0 22 22" fill="none" xmlns="http://www.w3.org/2000/svg">
<g id="Group">
<path id="Vector" d="M10.6577 1C16.1677 1 20.6377 5.46998 20.6377 10.98C20.6377 16.49 16.1677 20.96 10.6577 20.96C5.14771 20.96 0.677734 16.49 0.677734 10.98C0.677734 5.45998 5.14771 1 10.6577 1Z" stroke="white" stroke-width="0.8456" stroke-miterlimit="10"/>
<path id="Vector_2" d="M9.5675 9.0402C10.0875 8.4302 9.51761 7.64026 9.17761 7.10026C8.97761 6.79026 8.68759 6.33995 8.27759 6.27995C7.88759 6.23995 7.53759 6.66983 7.27759 6.90983C6.65759 7.46983 6.31759 8.19995 6.27759 9.02995C6.27759 9.12995 6.27758 9.27981 6.26758 9.13981C6.32758 9.63981 6.3875 10.11 6.5675 10.59C6.7275 11.04 6.95752 11.4503 7.20752 11.8503C7.75752 12.6803 8.39759 13.4898 9.15759 14.1598C9.89759 14.8198 10.7275 15.3998 11.7075 15.6198C12.6275 15.8098 13.5276 15.6099 14.2576 15.0099C14.5176 14.7899 15.0076 14.48 15.0276 14.11C15.0476 13.73 14.7475 13.4301 14.4875 13.2101C13.9375 12.7201 13.1276 11.9002 12.3876 12.5002C12.0976 12.7402 11.7876 13.1799 11.3976 13.2399C11.0076 13.2999 10.6375 13.02 10.3575 12.8C9.73754 12.29 9.12757 11.5998 8.75757 10.8698C8.60757 10.5498 8.46762 10.1302 8.68762 9.81022C8.93762 9.49022 9.3175 9.3402 9.5675 9.0402Z" fill="white"/>
</g>
</svg>
