<svg width="20" height="21" viewBox="0 0 20 21" fill="none" xmlns="http://www.w3.org/2000/svg">
<g id="XMLID_2124_">
<path id="XMLID_2130_" d="M9.90015 20.0288C4.77015 20.0288 0.620117 15.7089 0.620117 10.3789C0.620117 5.04891 4.78015 0.728516 9.90015 0.728516C15.0301 0.728516 19.1802 5.04891 19.1802 10.3789C19.1802 15.7089 15.0201 20.0288 9.90015 20.0288Z" stroke="white" stroke-width="0.7459" stroke-miterlimit="10"/>
<g id="XMLID_2125_">
<path id="XMLID_2127_" fill-rule="evenodd" clip-rule="evenodd" d="M14.9801 10.1084C14.9101 7.3184 12.7001 5.07812 9.9801 5.07812C7.2901 5.07812 5.09999 7.2683 4.98999 10.0083C4.98999 10.0883 4.98999 10.1583 4.98999 10.2383C4.98999 11.2183 5.25008 12.1284 5.71008 12.8984L4.81006 15.6685L7.58008 14.748C8.30008 15.158 9.11999 15.3882 9.98999 15.3882C12.75 15.3882 14.99 13.078 14.99 10.228C14.99 10.198 14.9901 10.1484 14.9801 10.1084ZM9.98999 14.5781C9.13999 14.5781 8.34005 14.3184 7.68005 13.8584L6.07007 14.3984L6.59009 12.7881C6.09009 12.0681 5.79004 11.198 5.79004 10.248C5.79004 10.108 5.80006 9.96812 5.81006 9.82812C6.02006 7.63812 7.80999 5.9082 9.98999 5.9082C12.2 5.9082 14.0101 7.6682 14.1801 9.9082C14.1901 10.0182 14.1901 10.128 14.1901 10.248C14.1901 12.628 12.31 14.5781 9.98999 14.5781Z" fill="white"/>
<path id="XMLID_2126_" fill-rule="evenodd" clip-rule="evenodd" d="M12.28 11.2788C12.16 11.2188 11.5501 10.9087 11.4401 10.8687C11.3301 10.8287 11.25 10.8087 11.16 10.9287C11.08 11.0587 10.84 11.3389 10.77 11.4189C10.7 11.5089 10.63 11.5187 10.5 11.4487C10.38 11.3887 9.98001 11.2588 9.51001 10.8188C9.15001 10.4888 8.90008 10.0687 8.83008 9.94873C8.76008 9.81873 8.82 9.75896 8.88 9.68896C8.94 9.62896 9.00006 9.53875 9.06006 9.46875C9.08006 9.44875 9.0901 9.42869 9.1001 9.40869C9.1301 9.35869 9.15005 9.31879 9.18005 9.25879C9.22005 9.16879 9.20004 9.09857 9.17004 9.03857C9.14004 8.97857 8.89004 8.34863 8.79004 8.09863C8.69004 7.84863 8.59001 7.88867 8.51001 7.88867C8.44001 7.88867 8.36003 7.87891 8.28003 7.87891C8.20003 7.87891 8.06007 7.90857 7.95007 8.03857C7.84007 8.16857 7.52002 8.46863 7.52002 9.09863C7.52002 9.24863 7.55008 9.38881 7.58008 9.52881C7.70008 9.97881 7.97002 10.3387 8.02002 10.4087C8.08002 10.4887 8.86999 11.8088 10.11 12.3188C11.36 12.8188 11.3601 12.6589 11.5801 12.6289C11.8001 12.6089 12.31 12.3288 12.41 12.0288C12.51 11.7388 12.5101 11.4787 12.4801 11.4287C12.4801 11.3787 12.4 11.3488 12.28 11.2788Z" fill="white"/>
</g>
</g>
</svg>
