<svg width="20" height="21" viewBox="0 0 20 21" fill="none" xmlns="http://www.w3.org/2000/svg">
<g id="XMLID_2116_">
<path id="XMLID_2123_" d="M9.78052 20.0288C4.65052 20.0288 0.500488 15.7089 0.500488 10.3789C0.500488 5.04891 4.66052 0.728516 9.78052 0.728516C14.9105 0.728516 19.0605 5.04891 19.0605 10.3789C19.0605 15.7089 14.9105 20.0288 9.78052 20.0288Z" stroke="white" stroke-width="0.7459" stroke-miterlimit="10"/>
<g id="XMLID_2117_">
<path id="XMLID_2121_" d="M15.5205 7.3584C15.3805 6.8184 14.9806 6.39805 14.4606 6.24805C13.5306 5.98805 9.78052 5.98828 9.78052 5.98828C9.78052 5.98828 6.03059 5.98805 5.10059 6.24805C4.58059 6.38805 4.18053 6.8184 4.04053 7.3584C3.79053 8.3384 3.79053 10.3784 3.79053 10.3784C3.79053 10.3784 3.79053 12.4184 4.04053 13.3984C4.18053 13.9384 4.58059 14.3583 5.10059 14.5083C6.03059 14.7683 9.78052 14.7681 9.78052 14.7681C9.78052 14.7681 13.5306 14.7683 14.4606 14.5083C14.9806 14.3683 15.3805 13.9384 15.5205 13.3984C15.7705 12.4184 15.7705 10.3784 15.7705 10.3784C15.7705 10.3784 15.7705 8.3384 15.5205 7.3584Z" fill="white"/>
<path id="XMLID_2118_" d="M8.56055 12.2275V8.51758L11.6906 10.3779L8.56055 12.2275Z" fill="url(#paint0_linear_726_9051)"/>
</g>
</g>
<defs>
<linearGradient id="paint0_linear_726_9051" x1="8.55825" y1="10.3744" x2="11.6894" y2="10.3744" gradientUnits="userSpaceOnUse">
<stop offset="0.00534799" stop-color="#233B77"/>
<stop offset="0.4076" stop-color="#223872"/>
<stop offset="0.8787" stop-color="#1F3164"/>
<stop offset="1" stop-color="#1E2E5F"/>
</linearGradient>
</defs>
</svg>
