<svg width="93" height="92" viewBox="0 0 93 92" fill="none" xmlns="http://www.w3.org/2000/svg">
<g id="Frame 1000002778">
<g id="Group" opacity="0.25">
<g id="Clip path group">
<mask id="mask0_2572_7535" style="mask-type:luminance" maskUnits="userSpaceOnUse" x="0" y="0" width="93" height="92">
<g id="SVGID_00000026876063738854739370000000194167948318069433_">
<path id="Vector" d="M92.15 0H0V91.87H92.15V0Z" fill="white"/>
</g>
</mask>
<g mask="url(#mask0_2572_7535)">
<path id="Vector_2" d="M70.7798 37.0303L64.2397 1.24023L29.3698 3.94031L1.25977 41.2102L9.34973 75.8502C21.2797 72.9302 38.7697 74.7603 42.1997 75.1703C44.5097 58.8903 67.7998 39.4603 70.7798 37.0303ZM36.5497 61.0902C34.7097 62.0802 32.8498 62.8503 31.0198 63.3903C29.6398 63.8003 28.2797 64.0802 26.9797 64.2302C22.7897 64.7002 19.0097 63.8103 16.0397 61.6803C14.5697 60.6203 13.3498 59.2902 12.3898 57.7502C7.42977 49.7902 9.33977 36.1903 17.7598 24.5203C27.8098 10.5903 43.3797 4.59028 52.4797 11.1603C55.3597 13.2403 57.3698 16.4303 58.2798 20.3903C58.4498 21.1503 58.5897 21.9503 58.6897 22.7603C58.8997 24.6003 58.9097 26.5602 58.6997 28.6002C58.0297 35.1402 55.2098 42.1403 50.7598 48.3203C46.7898 53.8303 41.8697 58.2502 36.5497 61.0902Z" fill="white"/>
</g>
</g>
<g id="Clip path group_2">
<mask id="mask1_2572_7535" style="mask-type:luminance" maskUnits="userSpaceOnUse" x="0" y="0" width="93" height="92">
<g id="SVGID_00000026876063738854739370000000194167948318069433__2">
<path id="Vector_3" d="M92.15 0H0V91.87H92.15V0Z" fill="white"/>
</g>
</mask>
<g mask="url(#mask1_2572_7535)">
<path id="Vector_4" d="M90.7401 49.1096L85.2802 15.7196L65.5801 1.92969L71.9801 36.9097L90.7401 49.1096Z" fill="#6A76B7"/>
</g>
</g>
<g id="Clip path group_3">
<mask id="mask2_2572_7535" style="mask-type:luminance" maskUnits="userSpaceOnUse" x="0" y="0" width="93" height="92">
<g id="SVGID_00000026876063738854739370000000194167948318069433__3">
<path id="Vector_5" d="M92.15 0H0V91.87H92.15V0Z" fill="white"/>
</g>
</mask>
<g mask="url(#mask2_2572_7535)">
<path id="Vector_6" d="M10.23 76.8703C17.56 82.6003 27.26 88.6204 28.33 89.2904C29.89 89.5604 47.6299 92.5303 61.1699 88.8603C52.2199 82.7103 43.58 77.1204 42.49 76.4204C40.77 76.1904 22.65 74.0303 10.23 76.8703Z" fill="#4D56A1"/>
</g>
</g>
<g id="Clip path group_4">
<mask id="mask3_2572_7535" style="mask-type:luminance" maskUnits="userSpaceOnUse" x="0" y="0" width="93" height="92">
<g id="SVGID_00000026876063738854739370000000194167948318069433__4">
<path id="Vector_7" d="M92.15 0H0V91.87H92.15V0Z" fill="white"/>
</g>
</mask>
<g mask="url(#mask3_2572_7535)">
<path id="Vector_8" d="M90.91 50.6495L71.4701 38.0195C68.4001 40.5495 45.4101 59.9795 43.3501 75.5195C51.3101 80.3895 60.6301 86.9596 62.5601 88.3296C64.3901 86.9596 73.1401 80.1995 79.7101 71.6595C87.2101 61.8995 90.46 53.9395 90.91 50.6495Z" fill="#808BC4"/>
</g>
</g>
<g id="Clip path group_5">
<mask id="mask4_2572_7535" style="mask-type:luminance" maskUnits="userSpaceOnUse" x="0" y="0" width="93" height="92">
<g id="SVGID_00000026876063738854739370000000194167948318069433__5">
<path id="Vector_9" d="M92.15 0H0V91.87H92.15V0Z" fill="white"/>
</g>
</mask>
<g mask="url(#mask4_2572_7535)">
<path id="Vector_10" d="M92.1498 50.4V50.39C92.1498 50.35 92.1498 50.3 92.1498 50.25L86.4297 15.27C86.3997 15.11 86.3097 14.97 86.1797 14.87L65.0797 0.0999756C65.0297 0.0699756 64.9797 0.0400293 64.9197 0.0300293C64.9097 0.0300293 64.8998 0.0200195 64.8898 0.0200195C64.8298 1.95317e-05 64.7597 0 64.6997 0C64.6897 0 64.6897 0 64.6897 0L29.0098 2.76001C28.8398 2.77001 28.6797 2.86 28.5797 3L0.139796 40.71C0.0297962 40.85 -0.0101892 41.03 0.0298108 41.21L8.31973 76.71C8.33973 76.78 8.35981 76.84 8.39981 76.89C8.42981 76.95 8.47981 76.99 8.52981 77.04C8.52981 77.04 8.5297 77.04 8.5397 77.05C16.3997 83.34 27.7097 90.3 27.8197 90.37C27.8797 90.41 27.9498 90.4401 28.0198 90.4501C28.2198 90.4901 48.2498 94.11 62.7498 89.65C62.7598 89.65 62.7698 89.64 62.7798 89.64C62.8298 89.62 62.8697 89.6001 62.9097 89.5701C62.9097 89.5701 62.9197 89.5701 62.9197 89.5601C63.0197 89.4901 73.2197 82.08 80.6597 72.4C88.0997 62.72 91.8298 54.21 92.1498 50.4ZM85.2798 15.72L90.7398 49.11L71.9798 36.91L65.5797 1.93005L85.2798 15.72ZM9.33975 75.85L1.24978 41.21L29.3598 3.94006L64.2298 1.23999L70.7698 37.03C67.7898 39.46 44.4997 58.89 42.1797 75.16C38.7597 74.76 21.2797 72.92 9.33975 75.85ZM28.3297 89.28C27.2597 88.62 17.5598 82.59 10.2298 76.86C22.6498 74.03 40.7698 76.19 42.4898 76.4C43.5798 77.1 52.2197 82.69 61.1697 88.84C47.6297 92.52 29.8897 89.55 28.3297 89.28ZM43.3498 75.52C45.4098 59.98 68.4098 40.55 71.4697 38.02L90.9097 50.66C90.4597 53.95 87.2097 61.91 79.6997 71.67C73.1297 80.21 64.3797 86.96 62.5497 88.34C60.6297 86.96 51.3098 80.39 43.3498 75.52Z" fill="#1E2E5F"/>
</g>
</g>
<g id="Clip path group_6">
<mask id="mask5_2572_7535" style="mask-type:luminance" maskUnits="userSpaceOnUse" x="0" y="0" width="93" height="92">
<g id="SVGID_00000026876063738854739370000000194167948318069433__6">
<path id="Vector_11" d="M92.15 0H0V91.87H92.15V0Z" fill="white"/>
</g>
</mask>
<g mask="url(#mask5_2572_7535)">
<path id="Vector_12" d="M58.7101 28.5908C58.9201 26.5508 58.9101 24.5908 58.7001 22.7508C58.6101 21.9308 58.4701 21.1408 58.2901 20.3808C57.3801 16.4208 55.3702 13.2308 52.4902 11.1508C43.3902 4.59083 27.8202 10.5808 17.7702 24.5108C9.35021 36.1808 7.44021 49.7808 12.4002 57.7408C13.3602 59.2808 14.5701 60.6109 16.0501 61.6709C19.0201 63.8109 22.8002 64.6908 26.9802 64.2208C28.2802 64.0708 29.6402 63.7908 31.0202 63.3808C32.8502 62.8408 34.7101 62.0609 36.5501 61.0809C41.8701 58.2409 46.7902 53.8209 50.7702 48.3009C55.2202 42.1309 58.0401 35.1308 58.7101 28.5908ZM16.7502 60.7009C8.19019 54.5309 9.09019 38.6008 18.7502 25.2108C28.4102 11.8208 43.2401 5.9508 51.8001 12.1208C53.1301 13.0808 54.2502 14.3008 55.1502 15.7408C55.6402 16.5308 56.0701 17.4009 56.4301 18.3209C56.4101 18.3009 56.3802 18.2808 56.3602 18.2608C56.1002 18.0408 55.8301 17.8308 55.5501 17.6308C51.3701 14.6108 45.7602 14.1409 39.7402 16.3009C33.8102 18.4309 28.1802 22.8709 23.8902 28.8209C19.6002 34.7709 17.1602 41.5109 17.0102 47.8109C17.0002 48.1709 17.0002 48.5208 17.0102 48.8708C17.0102 48.9508 17.0102 49.0308 17.0102 49.1108C17.0202 49.4508 17.0301 49.7908 17.0601 50.1308C17.0701 50.1608 17.0701 50.1908 17.0701 50.2208C17.0901 50.5308 17.1201 50.8408 17.1601 51.1408C17.1701 51.2108 17.1801 51.2908 17.1801 51.3608C17.2201 51.6808 17.2701 52.0009 17.3201 52.3209C17.3301 52.3709 17.3402 52.4108 17.3502 52.4608C17.4002 52.7408 17.4602 53.0309 17.5202 53.3009C17.5302 53.3609 17.5501 53.4208 17.5601 53.4808C17.6301 53.7908 17.7101 54.0908 17.8001 54.3808C17.8101 54.4308 17.8302 54.4908 17.8502 54.5408C17.9302 54.8008 18.0102 55.0609 18.1002 55.3209C18.1202 55.3609 18.1302 55.4108 18.1502 55.4608C18.2502 55.7408 18.3602 56.0208 18.4802 56.2908C18.5002 56.3508 18.5301 56.4008 18.5501 56.4608C18.6601 56.7108 18.7702 56.9509 18.8902 57.1909C18.9102 57.2209 18.9201 57.2608 18.9401 57.2908C19.0701 57.5508 19.2102 57.8009 19.3502 58.0509C19.3802 58.1109 19.4201 58.1708 19.4501 58.2208C19.4901 58.3008 19.5401 58.3709 19.5801 58.4409C19.6701 58.5809 19.7602 58.7208 19.8602 58.8608C19.8902 58.9008 19.9101 58.9408 19.9401 58.9808C20.1001 59.2108 20.2701 59.4409 20.4401 59.6709C20.4801 59.7309 20.5301 59.7908 20.5801 59.8508C20.7201 60.0308 20.8702 60.2008 21.0102 60.3708C21.0602 60.4208 21.1102 60.4708 21.1502 60.5308C21.3402 60.7408 21.5402 60.9408 21.7302 61.1408C21.7702 61.1808 21.8202 61.2208 21.8502 61.2608C22.0202 61.4208 22.1902 61.5708 22.3702 61.7308C22.4302 61.7808 22.4901 61.8308 22.5501 61.8808C22.7701 62.0608 23.0002 62.2408 23.2302 62.4108C23.4702 62.5808 23.7101 62.7408 23.9501 62.8908C24.0201 62.9308 24.0901 62.9808 24.1601 63.0208C24.2401 63.0708 24.3102 63.1208 24.3902 63.1608C21.5002 63.0708 18.8902 62.2409 16.7502 60.7009ZM26.9902 63.0208C26.8502 62.9708 26.7101 62.9208 26.5701 62.8608C26.4601 62.8108 26.3402 62.7708 26.2302 62.7208C26.0602 62.6508 25.9002 62.5708 25.7402 62.4908C25.6402 62.4408 25.5401 62.3908 25.4301 62.3408C25.2601 62.2508 25.0901 62.1509 24.9201 62.0509C24.8401 62.0009 24.7501 61.9608 24.6701 61.9108C24.4201 61.7608 24.1801 61.6009 23.9401 61.4309C20.0901 58.6509 18.0501 53.8308 18.1901 47.8508C18.3301 41.7908 20.7002 35.2808 24.8402 29.5308C28.9902 23.7808 34.4202 19.4809 40.1202 17.4409C45.7502 15.4209 50.9701 15.8408 54.8201 18.6208C55.0301 18.7808 55.2501 18.9408 55.4601 19.1108C55.5301 19.1608 55.5901 19.2308 55.6601 19.2908C55.8001 19.4108 55.9301 19.5308 56.0701 19.6508C56.1501 19.7208 56.2201 19.8008 56.3001 19.8808C56.4201 20.0008 56.5302 20.1108 56.6502 20.2308C56.7302 20.3108 56.8002 20.4008 56.8802 20.4908C56.9702 20.5908 57.0602 20.6909 57.1502 20.8009C57.2502 21.2309 57.3302 21.6608 57.4002 22.1108C57.3202 22.1008 57.2302 22.0909 57.1502 22.0809C57.0702 22.0709 56.9802 22.0609 56.9002 22.0509C56.5502 22.0209 56.2002 21.9908 55.8402 21.9708C55.7502 21.9708 55.6601 21.9708 55.5701 21.9608C55.3901 21.9608 55.2201 21.9509 55.0401 21.9509C54.9301 21.9609 54.8201 21.9608 54.7101 21.9608C54.5501 21.9708 54.4002 21.9708 54.2402 21.9708C54.1202 21.9808 54.0002 21.9908 53.8802 21.9908C53.7302 22.0008 53.5901 22.0108 53.4301 22.0208C53.3101 22.0308 53.1801 22.0509 53.0601 22.0609C52.9101 22.0809 52.7702 22.0908 52.6202 22.1108C52.4902 22.1308 52.3602 22.1509 52.2402 22.1709C52.1002 22.1909 51.9601 22.2108 51.8201 22.2408C51.6901 22.2608 51.5501 22.2909 51.4301 22.3109C51.2901 22.3309 51.1502 22.3608 51.0102 22.3908C50.8802 22.4208 50.7402 22.4508 50.6102 22.4808C50.4702 22.5108 50.3301 22.5409 50.1901 22.5809C50.0601 22.6109 49.9201 22.6509 49.7901 22.6909C49.6501 22.7309 49.5202 22.7609 49.3802 22.8109C49.2402 22.8509 49.1102 22.8909 48.9802 22.9309C48.8402 22.9709 48.7101 23.0109 48.5701 23.0609C48.4301 23.1109 48.3001 23.1509 48.1601 23.2009C48.0201 23.2509 47.8902 23.2908 47.7602 23.3408C47.6202 23.3908 47.4902 23.4408 47.3502 23.5008C47.2102 23.5508 47.0801 23.6008 46.9501 23.6608C46.8101 23.7208 46.6801 23.7709 46.5501 23.8309C46.4201 23.8909 46.2802 23.9508 46.1502 24.0108C46.0202 24.0708 45.8802 24.1309 45.7502 24.2009C45.6202 24.2609 45.4802 24.3308 45.3502 24.3908C45.2202 24.4608 45.0801 24.5208 44.9501 24.5908C44.8201 24.6608 44.6801 24.7309 44.5501 24.8009C44.4101 24.8709 44.2802 24.9408 44.1502 25.0208C44.0202 25.0908 43.8902 25.1708 43.7602 25.2408C43.6302 25.3108 43.4902 25.3908 43.3602 25.4708C43.2402 25.5508 43.1002 25.6308 42.9702 25.7108C42.8402 25.7908 42.7101 25.8709 42.5801 25.9509C42.4501 26.0309 42.3201 26.1109 42.1901 26.2009C42.0601 26.2809 41.9301 26.3708 41.8001 26.4608C41.6701 26.5408 41.5501 26.6308 41.4201 26.7208C41.2901 26.8108 41.1601 26.9008 41.0401 26.9908C40.9201 27.0808 40.7901 27.1708 40.6601 27.2708C40.5401 27.3708 40.4101 27.4609 40.2901 27.5609C40.1701 27.6609 40.0401 27.7508 39.9201 27.8508C39.8001 27.9508 39.6701 28.0408 39.5501 28.1408C39.4301 28.2408 39.3101 28.3509 39.1901 28.4509C39.0701 28.5509 38.9501 28.6508 38.8301 28.7608C38.7101 28.8708 38.5902 28.9809 38.4702 29.0809C38.3502 29.1809 38.2302 29.2908 38.1102 29.4008C37.9902 29.5108 37.8702 29.6308 37.7502 29.7408C37.6402 29.8508 37.5201 29.9609 37.4101 30.0709C37.2901 30.1909 37.1701 30.3109 37.0501 30.4309C36.9401 30.5409 36.8302 30.6508 36.7202 30.7708C36.6002 30.8908 36.4802 31.0208 36.3602 31.1508C36.2602 31.2608 36.1501 31.3708 36.0501 31.4908C35.9301 31.6208 35.8101 31.7608 35.6901 31.8908C35.5901 32.0008 35.4902 32.1108 35.3902 32.2308C35.2702 32.3708 35.1402 32.5209 35.0202 32.6709C34.9302 32.7809 34.8402 32.8908 34.7502 32.9908C34.6102 33.1608 34.4802 33.3308 34.3502 33.5008C34.2802 33.5908 34.2002 33.6808 34.1302 33.7808C33.9302 34.0508 33.7202 34.3208 33.5302 34.5908C33.3202 34.8808 33.1201 35.1708 32.9301 35.4608C32.8601 35.5608 32.8002 35.6608 32.7302 35.7608C32.6002 35.9608 32.4702 36.1508 32.3502 36.3508C32.2802 36.4608 32.2002 36.5909 32.1302 36.7009C32.0202 36.8809 31.9101 37.0608 31.8001 37.2408C31.7301 37.3608 31.6501 37.4908 31.5801 37.6208C31.4801 37.7908 31.3802 37.9708 31.2802 38.1508C31.2102 38.2808 31.1401 38.4108 31.0801 38.5308C30.9901 38.7108 30.8901 38.8809 30.8001 39.0509C30.7401 39.1809 30.6702 39.3109 30.6102 39.4409C30.5302 39.6109 30.4402 39.7908 30.3502 39.9608C30.2902 40.1008 30.2301 40.2308 30.1701 40.3708C30.0901 40.5408 30.0101 40.7208 29.9301 40.8908C29.8701 41.0208 29.8202 41.1608 29.7602 41.2908C29.6902 41.4708 29.6101 41.6409 29.5401 41.8109C29.4901 41.9509 29.4402 42.0808 29.3802 42.2108C29.3102 42.3908 29.2401 42.5608 29.1801 42.7408C29.1301 42.8808 29.0901 43.0008 29.0401 43.1408C28.9801 43.3208 28.9102 43.5009 28.8502 43.6709C28.8002 43.8009 28.7602 43.9409 28.7202 44.0709C28.6702 44.2509 28.6101 44.4308 28.5501 44.6008C28.5101 44.7408 28.4801 44.8708 28.4401 45.0008C28.3901 45.1808 28.3401 45.3508 28.2901 45.5308C28.2601 45.6608 28.2301 45.7909 28.1901 45.9309C28.1401 46.1109 28.1001 46.2908 28.0601 46.4708C28.0301 46.6008 28.0002 46.7308 27.9802 46.8608C27.9402 47.0408 27.9002 47.2208 27.8702 47.4008C27.8402 47.5308 27.8201 47.6608 27.8001 47.7908C27.7701 47.9708 27.7301 48.1509 27.7101 48.3309C27.6901 48.4609 27.6702 48.5908 27.6502 48.7208C27.6202 48.9008 27.6001 49.0808 27.5701 49.2508C27.5601 49.3808 27.5402 49.5108 27.5302 49.6408C27.5102 49.8208 27.4902 50.0009 27.4702 50.1809C27.4602 50.3109 27.4501 50.4409 27.4401 50.5709C27.4201 50.7509 27.4102 50.9208 27.4002 51.1008C27.3902 51.2308 27.3902 51.3508 27.3802 51.4808C27.3702 51.6608 27.3702 51.8308 27.3602 52.0008C27.3602 52.1308 27.3602 52.2508 27.3602 52.3808C27.3602 52.5508 27.3602 52.7208 27.3602 52.9008C27.3602 53.0208 27.3702 53.1508 27.3702 53.2708C27.3802 53.4408 27.3802 53.6108 27.3902 53.7808C27.4002 53.9008 27.4101 54.0308 27.4201 54.1508C27.4301 54.3208 27.4401 54.4808 27.4601 54.6508C27.4701 54.7708 27.4902 54.9008 27.5002 55.0208C27.5202 55.1908 27.5401 55.3508 27.5601 55.5208C27.5801 55.6408 27.6002 55.7608 27.6202 55.8808C27.6502 56.0408 27.6701 56.2008 27.7001 56.3708C27.7201 56.4908 27.7502 56.6108 27.7702 56.7308C27.8102 56.8908 27.8302 57.0509 27.8702 57.2009C27.9002 57.3209 27.9301 57.4409 27.9501 57.5609C27.9901 57.7209 28.0301 57.8708 28.0701 58.0208C28.1001 58.1408 28.1301 58.2608 28.1701 58.3708C28.2101 58.5208 28.2601 58.6709 28.3001 58.8209C28.3401 58.9409 28.3801 59.0609 28.4201 59.1709C28.4701 59.3109 28.5201 59.4608 28.5701 59.6008C28.6101 59.7208 28.6601 59.8309 28.7101 59.9509C28.7601 60.0909 28.8202 60.2308 28.8802 60.3708C28.9302 60.4908 28.9802 60.6008 29.0302 60.7108C29.0902 60.8408 29.1502 60.9808 29.2202 61.1108C29.2802 61.2208 29.3302 61.3409 29.3902 61.4509C29.4502 61.5809 29.5202 61.7009 29.5902 61.8309C29.6502 61.9409 29.7202 62.0609 29.7802 62.1709C29.8302 62.2609 29.8801 62.3509 29.9401 62.4409C28.9101 62.7209 27.9402 62.9108 26.9902 63.0208ZM31.1102 62.1108C31.0702 62.0508 31.0302 61.9909 30.9902 61.9209C30.9102 61.8009 30.8402 61.6608 30.7702 61.5408C30.7202 61.4508 30.6702 61.3608 30.6202 61.2708C30.5402 61.1208 30.4602 60.9609 30.3802 60.8109C30.3402 60.7409 30.3102 60.6708 30.2702 60.6008C30.1802 60.4208 30.1002 60.2409 30.0302 60.0609C30.0102 60.0109 29.9801 59.9608 29.9601 59.9008C29.8701 59.7008 29.7902 59.5008 29.7202 59.2908C29.7102 59.2608 29.6901 59.2309 29.6901 59.2009C29.6001 58.9809 29.5301 58.7408 29.4501 58.5108C29.4501 58.5008 29.4401 58.4808 29.4401 58.4708C27.9301 53.7008 28.3801 47.8908 30.6701 42.2408V42.2308C30.7901 41.9408 30.9101 41.6508 31.0401 41.3508C31.0501 41.3308 31.0601 41.3108 31.0701 41.2808C31.1901 41.0108 31.3101 40.7408 31.4401 40.4708C31.4601 40.4308 31.4802 40.3908 31.5102 40.3408C31.6302 40.0908 31.7502 39.8408 31.8802 39.5908C31.9202 39.5208 31.9602 39.4608 31.9902 39.3908C32.1102 39.1708 32.2202 38.9408 32.3502 38.7208C32.4002 38.6308 32.4502 38.5309 32.5102 38.4409C32.6202 38.2409 32.7302 38.0408 32.8502 37.8508C32.9202 37.7308 33.0001 37.6008 33.0701 37.4808C33.1701 37.3108 33.2702 37.1508 33.3702 36.9908C33.4702 36.8208 33.5801 36.6608 33.6901 36.4908C33.7701 36.3708 33.8501 36.2508 33.9301 36.1308C34.1201 35.8508 34.3202 35.5608 34.5202 35.2808C34.7102 35.0108 34.9102 34.7508 35.1002 34.4908C35.1602 34.4108 35.2202 34.3408 35.2802 34.2608C35.4202 34.0808 35.5601 33.9008 35.7001 33.7308C35.7701 33.6408 35.8501 33.5608 35.9201 33.4708C36.0501 33.3108 36.1901 33.1508 36.3201 32.9908C36.3901 32.9008 36.4801 32.8108 36.5601 32.7208C36.6901 32.5708 36.8201 32.4208 36.9601 32.2708C37.0501 32.1708 37.1302 32.0908 37.2202 31.9908C37.3502 31.8508 37.4802 31.7109 37.6202 31.5709C37.7102 31.4809 37.8002 31.3909 37.8902 31.3009C38.0202 31.1609 38.1501 31.0308 38.2901 30.9008C38.3801 30.8108 38.4801 30.7208 38.5701 30.6408C38.7001 30.5108 38.8402 30.3808 38.9702 30.2608C39.0602 30.1708 39.1602 30.0908 39.2602 30.0008C39.4002 29.8808 39.5301 29.7608 39.6601 29.6408C39.7601 29.5508 39.8601 29.4708 39.9601 29.3908C40.0901 29.2708 40.2302 29.1609 40.3702 29.0509C40.4702 28.9709 40.5701 28.8909 40.6701 28.8109C40.8101 28.7009 40.9401 28.5908 41.0801 28.4908C41.1801 28.4108 41.2902 28.3308 41.3902 28.2508C41.5302 28.1508 41.6701 28.0509 41.8001 27.9409C41.9001 27.8709 42.0102 27.7908 42.1202 27.7108C42.2602 27.6108 42.4001 27.5109 42.5401 27.4209C42.6501 27.3409 42.7502 27.2809 42.8602 27.2009C43.0002 27.1109 43.1402 27.0209 43.2802 26.9309C43.3902 26.8609 43.5002 26.7908 43.6102 26.7308C43.7502 26.6408 43.8902 26.5608 44.0302 26.4708C44.1402 26.4108 44.2502 26.3408 44.3602 26.2808C44.5002 26.2008 44.6402 26.1208 44.7802 26.0408C44.9002 25.9808 45.0102 25.9208 45.1202 25.8608C45.2602 25.7808 45.4001 25.7108 45.5401 25.6408C45.6601 25.5808 45.7702 25.5208 45.8902 25.4708C46.0302 25.4008 46.1701 25.3308 46.3101 25.2708C46.4301 25.2208 46.5401 25.1608 46.6601 25.1108C46.8001 25.0508 46.9401 24.9809 47.0801 24.9209C47.1901 24.8709 47.3101 24.8208 47.4301 24.7708C47.5701 24.7108 47.7102 24.6608 47.8502 24.6008C47.9702 24.5608 48.0901 24.5108 48.2101 24.4608C48.3501 24.4108 48.4902 24.3609 48.6302 24.3109C48.7502 24.2709 48.8702 24.2309 48.9902 24.1909C49.1302 24.1409 49.2701 24.1009 49.4101 24.0609C49.5301 24.0209 49.6502 23.9909 49.7702 23.9509C49.9102 23.9109 50.0501 23.8709 50.1901 23.8309C50.3101 23.8009 50.4301 23.7608 50.5601 23.7408C50.6901 23.7108 50.8302 23.6708 50.9702 23.6408C51.0902 23.6108 51.2202 23.5809 51.3402 23.5609C51.4802 23.5309 51.6102 23.5108 51.7502 23.4808C51.8702 23.4508 52.0002 23.4308 52.1302 23.4108C52.2602 23.3908 52.4002 23.3608 52.5302 23.3508C52.6602 23.3308 52.7801 23.3209 52.9101 23.3009C53.0401 23.2809 53.1701 23.2708 53.3101 23.2508C53.4401 23.2408 53.5601 23.2208 53.6901 23.2108C53.8201 23.2008 53.9501 23.1909 54.0801 23.1809C54.2101 23.1709 54.3301 23.1708 54.4601 23.1608C54.5901 23.1508 54.7202 23.1508 54.8502 23.1508C54.9802 23.1508 55.1002 23.1508 55.2302 23.1508C55.3502 23.1508 55.4802 23.1508 55.6102 23.1608C55.7302 23.1608 55.8602 23.1609 55.9902 23.1709C56.1102 23.1709 56.2402 23.1809 56.3602 23.1909C56.4902 23.2009 56.6102 23.2108 56.7402 23.2208C56.8602 23.2308 56.9802 23.2508 57.1102 23.2608C57.2402 23.2708 57.3602 23.2909 57.4802 23.3109C57.5302 23.3209 57.5802 23.3309 57.6302 23.3309C57.7702 24.8309 57.7702 26.4209 57.6302 28.0609C51.6902 29.7909 45.9202 34.0708 41.7502 39.8408C37.1602 46.1908 34.9701 53.5908 35.7001 60.2208C34.1101 61.0008 32.6002 61.6308 31.1102 62.1108ZM36.7702 59.5908C36.2402 53.3908 38.3502 46.5009 42.6502 40.5509C46.5502 35.1509 51.8801 31.1208 57.4101 29.3708C56.6101 35.4408 53.9301 41.8808 49.8001 47.6108C46.1201 52.7008 41.6302 56.8208 36.7702 59.5908Z" fill="#1E2E5F"/>
</g>
</g>
<g id="Clip path group_7">
<mask id="mask6_2572_7535" style="mask-type:luminance" maskUnits="userSpaceOnUse" x="0" y="0" width="93" height="92">
<g id="SVGID_00000026876063738854739370000000194167948318069433__7">
<path id="Vector_13" d="M92.15 0H0V91.87H92.15V0Z" fill="white"/>
</g>
</mask>
<g mask="url(#mask6_2572_7535)">
<path id="Vector_14" d="M23.9702 62.8796C23.7202 62.7295 23.4802 62.5696 23.2502 62.3996C23.0202 62.2296 22.7902 62.0495 22.5702 61.8695C22.5102 61.8195 22.4503 61.7695 22.3903 61.7195C22.2103 61.5595 22.0402 61.4095 21.8702 61.2495C21.8302 61.2095 21.7902 61.1696 21.7402 61.1296C21.5402 60.9296 21.3503 60.7296 21.1503 60.5296C21.1003 60.4796 21.0603 60.4295 21.0103 60.3695C20.8603 60.1995 20.7202 60.0295 20.5702 59.8495C20.5202 59.7895 20.4802 59.7396 20.4302 59.6696C20.2502 59.4496 20.0902 59.2195 19.9302 58.9795C19.9002 58.9395 19.8802 58.8995 19.8502 58.8595C19.7602 58.7195 19.6602 58.5796 19.5702 58.4396C19.5302 58.3696 19.4802 58.2895 19.4402 58.2195C19.4002 58.1595 19.3702 58.1096 19.3402 58.0496C19.1902 57.7996 19.0602 57.5496 18.9202 57.2896C18.9002 57.2596 18.8902 57.2196 18.8702 57.1896C18.7502 56.9496 18.6403 56.7095 18.5303 56.4595C18.5003 56.3995 18.4802 56.3496 18.4602 56.2896C18.3402 56.0196 18.2402 55.7395 18.1302 55.4595C18.1102 55.4095 18.1002 55.3596 18.0802 55.3196C17.9902 55.0596 17.9102 54.7996 17.8302 54.5396C17.8202 54.4896 17.8003 54.4296 17.7803 54.3796C17.6903 54.0896 17.6102 53.7795 17.5402 53.4795C17.5202 53.4195 17.5102 53.3596 17.5002 53.2996C17.4402 53.0196 17.3802 52.7395 17.3302 52.4595C17.3202 52.4095 17.3102 52.3696 17.3002 52.3196C17.2502 51.9996 17.2002 51.6795 17.1602 51.3595C17.1502 51.2895 17.1403 51.2196 17.1403 51.1396C17.1003 50.8396 17.0702 50.5295 17.0502 50.2195C17.0402 50.1895 17.0402 50.1595 17.0402 50.1296C17.0202 49.7995 17.0002 49.4595 16.9902 49.1095C16.9902 49.0295 16.9902 48.9495 16.9902 48.8695C16.9802 48.5195 16.9802 48.1696 16.9902 47.8096C17.1402 41.5096 19.5802 34.7596 23.8702 28.8196C28.1602 22.8796 33.7902 18.4296 39.7202 16.2996C45.7302 14.1396 51.3503 14.6096 55.5303 17.6296C55.8103 17.8296 56.0702 18.0396 56.3402 18.2596C56.3602 18.2796 56.3902 18.2996 56.4102 18.3196C56.0602 17.3996 55.6302 16.5295 55.1302 15.7395C54.2302 14.2895 53.1103 13.0695 51.7803 12.1195C43.2203 5.94954 28.4002 11.8195 18.7302 25.2095C9.07022 38.5995 8.17022 54.5196 16.7302 60.6996C18.8702 62.2396 21.4903 63.0696 24.4003 63.1396C24.3203 63.0996 24.2502 63.0495 24.1702 62.9995C24.1102 62.9595 24.0402 62.9196 23.9702 62.8796Z" fill="white"/>
</g>
</g>
<g id="Clip path group_8">
<mask id="mask7_2572_7535" style="mask-type:luminance" maskUnits="userSpaceOnUse" x="0" y="0" width="93" height="92">
<g id="SVGID_00000026876063738854739370000000194167948318069433__8">
<path id="Vector_15" d="M92.15 0H0V91.87H92.15V0Z" fill="white"/>
</g>
</mask>
<g mask="url(#mask7_2572_7535)">
<path id="Vector_16" d="M29.5599 61.8504C29.4899 61.7204 29.4199 61.6004 29.3599 61.4704C29.2999 61.3604 29.2399 61.2404 29.1899 61.1304C29.1299 61.0004 29.0699 60.8704 29.0099 60.7304C28.9599 60.6204 28.9099 60.5004 28.8599 60.3904C28.7999 60.2504 28.7499 60.1104 28.6899 59.9704C28.6499 59.8504 28.5998 59.7404 28.5498 59.6204C28.4998 59.4804 28.4499 59.3305 28.3999 59.1905C28.3599 59.0705 28.3199 58.9504 28.2799 58.8404C28.2299 58.6904 28.1899 58.5404 28.1499 58.3904C28.1199 58.2704 28.0798 58.1505 28.0498 58.0305C28.0098 57.8805 27.9699 57.7305 27.9299 57.5705C27.8999 57.4505 27.8699 57.3304 27.8499 57.2104C27.8099 57.0604 27.7899 56.9004 27.7499 56.7404C27.7299 56.6204 27.6999 56.5004 27.6799 56.3804C27.6499 56.2204 27.6299 56.0604 27.5999 55.8904C27.5799 55.7704 27.5598 55.6505 27.5398 55.5305C27.5198 55.3605 27.4999 55.2005 27.4799 55.0305C27.4599 54.9105 27.4499 54.7905 27.4399 54.6705C27.4299 54.5005 27.4099 54.3305 27.3999 54.1705C27.3899 54.0505 27.3799 53.9205 27.3699 53.8005C27.3599 53.6305 27.3599 53.4605 27.3499 53.2905C27.3499 53.1705 27.3399 53.0405 27.3399 52.9205C27.3399 52.7505 27.3399 52.5705 27.3399 52.4005C27.3399 52.2705 27.3399 52.1505 27.3399 52.0205C27.3399 51.8505 27.3499 51.6704 27.3599 51.5004C27.3699 51.3804 27.3699 51.2504 27.3799 51.1204C27.3899 50.9404 27.3998 50.7704 27.4198 50.5904C27.4298 50.4604 27.4399 50.3305 27.4499 50.2005C27.4699 50.0205 27.4899 49.8505 27.5099 49.6605C27.5199 49.5405 27.5398 49.4105 27.5498 49.2805C27.5698 49.1105 27.5999 48.9204 27.6299 48.7504C27.6499 48.6204 27.6699 48.4904 27.6899 48.3604C27.7199 48.1804 27.7498 48.0005 27.7898 47.8205C27.8098 47.6905 27.8399 47.5605 27.8599 47.4305C27.8899 47.2505 27.9299 47.0704 27.9699 46.8904C27.9999 46.7604 28.0198 46.6304 28.0498 46.5004C28.0898 46.3204 28.1399 46.1404 28.1799 45.9604C28.2099 45.8304 28.2399 45.7005 28.2799 45.5605C28.3299 45.3805 28.3799 45.2005 28.4299 45.0205C28.4699 44.8805 28.4998 44.7504 28.5398 44.6204C28.5898 44.4404 28.6499 44.2605 28.7099 44.0805C28.7499 43.9505 28.7899 43.8205 28.8399 43.6805C28.8999 43.5005 28.9599 43.3305 29.0299 43.1505C29.0799 43.0105 29.1198 42.8804 29.1698 42.7504C29.2398 42.5704 29.3099 42.4004 29.3699 42.2204C29.4199 42.0904 29.4699 41.9505 29.5299 41.8205C29.5999 41.6405 29.6799 41.4705 29.7499 41.2905C29.8099 41.1605 29.8598 41.0204 29.9198 40.8904C29.9998 40.7204 30.0798 40.5404 30.1598 40.3704C30.2198 40.2304 30.2799 40.1004 30.3399 39.9604C30.4299 39.7804 30.5099 39.6105 30.5999 39.4305C30.6699 39.3005 30.7298 39.1705 30.7898 39.0405C30.8798 38.8705 30.9799 38.6904 31.0699 38.5104C31.1399 38.3804 31.1999 38.2504 31.2699 38.1304C31.3699 37.9504 31.4699 37.7804 31.5699 37.6004C31.6399 37.4704 31.7098 37.3504 31.7898 37.2204C31.8998 37.0404 32.0099 36.8605 32.1199 36.6805C32.1899 36.5605 32.2599 36.4405 32.3399 36.3305C32.4599 36.1305 32.5999 35.9404 32.7199 35.7404C32.7799 35.6404 32.8498 35.5405 32.9198 35.4405C33.1198 35.1505 33.3199 34.8605 33.5199 34.5705C33.7199 34.3005 33.9199 34.0204 34.1199 33.7604C34.1899 33.6704 34.2699 33.5804 34.3399 33.4804C34.4699 33.3104 34.6099 33.1404 34.7399 32.9704C34.8299 32.8604 34.9199 32.7504 35.0099 32.6404C35.1299 32.4904 35.2499 32.3505 35.3799 32.2005C35.4799 32.0905 35.5799 31.9704 35.6799 31.8604C35.7999 31.7304 35.9198 31.5904 36.0398 31.4604C36.1398 31.3504 36.2499 31.2404 36.3499 31.1204C36.4699 30.9904 36.5899 30.8604 36.7099 30.7404C36.8199 30.6304 36.9298 30.5205 37.0398 30.4005C37.1598 30.2805 37.2799 30.1605 37.3999 30.0405C37.5099 29.9305 37.6299 29.8204 37.7399 29.7104C37.8599 29.6004 37.9799 29.4804 38.0999 29.3704C38.2199 29.2604 38.3399 29.1505 38.4599 29.0505C38.5799 28.9405 38.6999 28.8304 38.8199 28.7304C38.9399 28.6304 39.0599 28.5205 39.1799 28.4205C39.2999 28.3205 39.4198 28.2104 39.5398 28.1104C39.6598 28.0104 39.7898 27.9105 39.9098 27.8205C40.0298 27.7205 40.1599 27.6205 40.2799 27.5305C40.4 27.4305 40.5299 27.3404 40.6499 27.2404C40.7799 27.1504 40.9 27.0504 41.0299 26.9604C41.1599 26.8704 41.2898 26.7805 41.4098 26.6905C41.5398 26.6005 41.6598 26.5105 41.7898 26.4305C41.9198 26.3405 42.0499 26.2505 42.1799 26.1705C42.3099 26.0805 42.4399 26.0005 42.5699 25.9205C42.6999 25.8405 42.8299 25.7605 42.9599 25.6805C43.0899 25.6005 43.2199 25.5205 43.3499 25.4405C43.4899 25.3605 43.6199 25.2804 43.7499 25.2104C43.8799 25.1404 44.0099 25.0604 44.1399 24.9904C44.2699 24.9204 44.3998 24.8405 44.5398 24.7705C44.6698 24.7005 44.7999 24.6305 44.9399 24.5605C45.0699 24.4905 45.2099 24.4304 45.3399 24.3604C45.4699 24.3004 45.6099 24.2305 45.7399 24.1705C45.8799 24.1105 46.0099 24.0404 46.1399 23.9804C46.2699 23.9204 46.4098 23.8605 46.5398 23.8005C46.6798 23.7505 46.8099 23.6904 46.9399 23.6304C47.0799 23.5704 47.2099 23.5204 47.3399 23.4704C47.4799 23.4204 47.6099 23.3705 47.7499 23.3105C47.8799 23.2605 48.0199 23.2105 48.1499 23.1705C48.2799 23.1205 48.4199 23.0705 48.5599 23.0305C48.6999 22.9805 48.8299 22.9405 48.9699 22.9005C49.0999 22.8605 49.2399 22.8205 49.3699 22.7805C49.5099 22.7405 49.65 22.7005 49.7799 22.6605C49.9099 22.6305 50.0499 22.5905 50.1799 22.5505C50.3199 22.5205 50.4599 22.4805 50.5999 22.4505C50.7299 22.4205 50.8699 22.3904 50.9999 22.3604C51.1399 22.3304 51.2798 22.3005 51.4198 22.2805C51.5498 22.2505 51.6799 22.2304 51.8099 22.2104C51.9499 22.1804 52.0899 22.1704 52.2299 22.1404C52.3599 22.1204 52.4899 22.1005 52.6099 22.0805C52.7599 22.0605 52.8998 22.0505 53.0498 22.0305C53.1698 22.0205 53.2998 22.0004 53.4198 21.9904C53.5698 21.9804 53.7199 21.9704 53.8699 21.9604C53.9899 21.9504 54.1099 21.9405 54.2299 21.9405C54.3899 21.9305 54.5499 21.9305 54.6999 21.9305C54.8099 21.9305 54.9199 21.9205 55.0299 21.9205C55.2099 21.9205 55.3799 21.9305 55.5599 21.9305C55.6499 21.9305 55.7399 21.9305 55.8199 21.9305C56.1799 21.9405 56.5299 21.9804 56.8799 22.0104C56.9599 22.0204 57.0499 22.0305 57.1299 22.0305C57.2099 22.0405 57.2999 22.0505 57.3799 22.0605C57.3099 21.6105 57.2299 21.1704 57.1299 20.7504C57.0499 20.6404 56.9499 20.5405 56.8599 20.4405C56.7799 20.3505 56.7099 20.2605 56.6299 20.1805C56.5199 20.0605 56.3999 19.9505 56.2799 19.8305C56.1999 19.7605 56.1298 19.6804 56.0498 19.6004C55.9198 19.4704 55.7799 19.3504 55.6399 19.2404C55.5699 19.1804 55.5099 19.1205 55.4399 19.0605C55.2299 18.8905 55.0198 18.7205 54.7998 18.5705C50.9498 15.7905 45.7299 15.3804 40.0999 17.3904C34.3899 19.4404 28.9599 23.7304 24.8199 29.4804C20.6699 35.2304 18.3098 41.7405 18.1698 47.8005C18.0298 53.7805 20.0698 58.6004 23.9198 61.3804C24.1498 61.5504 24.3999 61.7104 24.6499 61.8604C24.7299 61.9104 24.8199 61.9604 24.8999 62.0104C25.0699 62.1104 25.2398 62.2105 25.4098 62.3005C25.5098 62.3505 25.6099 62.4005 25.7199 62.4505C25.8799 62.5305 26.0399 62.6105 26.2099 62.6805C26.3199 62.7305 26.4298 62.7705 26.5498 62.8205C26.6898 62.8805 26.8299 62.9304 26.9699 62.9804C27.9099 62.8704 28.8899 62.6805 29.8799 62.4205C29.8299 62.3305 29.7799 62.2405 29.7199 62.1505C29.6899 62.0805 29.6199 61.9604 29.5599 61.8504Z" fill="white"/>
</g>
</g>
<g id="Clip path group_9">
<mask id="mask8_2572_7535" style="mask-type:luminance" maskUnits="userSpaceOnUse" x="0" y="0" width="93" height="92">
<g id="SVGID_00000026876063738854739370000000194167948318069433__9">
<path id="Vector_17" d="M92.15 0H0V91.87H92.15V0Z" fill="white"/>
</g>
</mask>
<g mask="url(#mask8_2572_7535)">
<path id="Vector_18" d="M41.68 39.8499C45.84 34.0799 51.6101 29.7999 57.56 28.0699C57.7 26.4299 57.7 24.8398 57.56 23.3398C57.51 23.3298 57.46 23.3299 57.41 23.3199C57.29 23.2999 57.16 23.2899 57.04 23.2699C56.92 23.2599 56.8 23.2399 56.67 23.2299C56.55 23.2199 56.42 23.21 56.29 23.2C56.17 23.19 56.04 23.1799 55.92 23.1799C55.79 23.1699 55.67 23.1699 55.54 23.1699C55.41 23.1699 55.28 23.1699 55.16 23.1699C55.03 23.1699 54.9101 23.1699 54.7801 23.1699C54.6501 23.1699 54.5201 23.1799 54.3901 23.1799C54.2601 23.1899 54.1401 23.19 54.0101 23.2C53.8801 23.21 53.7501 23.2199 53.6201 23.2299C53.5001 23.2399 53.3701 23.2499 53.2401 23.2599C53.1101 23.2699 52.9701 23.2899 52.8401 23.3099C52.7101 23.3299 52.5901 23.3399 52.4601 23.3599C52.3301 23.3799 52.19 23.3999 52.06 23.4299C51.93 23.4499 51.8101 23.4699 51.6901 23.4999C51.5601 23.5299 51.4201 23.55 51.2801 23.58C51.1601 23.61 51.03 23.6399 50.91 23.6599C50.77 23.6899 50.6401 23.7199 50.5001 23.7599C50.3801 23.7899 50.2501 23.8199 50.1301 23.8499C49.9901 23.8899 49.8501 23.9298 49.7101 23.9698C49.5901 23.9998 49.4701 24.04 49.3501 24.08C49.2101 24.12 49.07 24.1698 48.93 24.2098C48.81 24.2498 48.6901 24.29 48.5701 24.33C48.4301 24.38 48.2901 24.4299 48.1501 24.4799C48.0301 24.5199 47.91 24.5699 47.79 24.6199C47.65 24.6799 47.5101 24.7299 47.3701 24.7899C47.2501 24.8399 47.1401 24.8899 47.0201 24.9399C46.8801 24.9999 46.7401 25.0699 46.6001 25.1299C46.4901 25.1799 46.3701 25.2299 46.2501 25.2899C46.1101 25.3599 45.9701 25.4299 45.8301 25.4899C45.7201 25.5499 45.6001 25.5999 45.4801 25.6599C45.3401 25.7299 45.2 25.8099 45.06 25.8799C44.95 25.9399 44.8401 25.9999 44.7201 26.0599C44.5801 26.1399 44.44 26.2199 44.3 26.2999C44.19 26.3599 44.0801 26.4299 43.9701 26.4899C43.8301 26.5699 43.69 26.6599 43.55 26.7499C43.44 26.8199 43.3301 26.8898 43.2201 26.9598C43.0801 27.0498 42.94 27.1399 42.8 27.2299C42.69 27.2999 42.5801 27.37 42.4801 27.45C42.3401 27.54 42.2 27.6399 42.06 27.7399C41.96 27.8099 41.8501 27.8898 41.7501 27.9698C41.6101 28.0698 41.4701 28.1799 41.3301 28.2799C41.2301 28.3599 41.1201 28.4399 41.0201 28.5199C40.8801 28.6199 40.7501 28.7298 40.6101 28.8398C40.5101 28.9198 40.41 29 40.31 29.08C40.17 29.19 40.0301 29.3099 39.9001 29.4199C39.8001 29.4999 39.7001 29.5899 39.6001 29.6699C39.4601 29.7899 39.3301 29.9099 39.2001 30.0299C39.1001 30.1199 39.01 30.1999 38.91 30.2899C38.78 30.4099 38.6401 30.5399 38.5101 30.6699C38.4201 30.7599 38.3201 30.8399 38.2301 30.9299C38.0901 31.0599 37.9601 31.19 37.8301 31.33C37.7401 31.42 37.65 31.5099 37.56 31.5999C37.42 31.7399 37.29 31.8799 37.16 32.0199C37.08 32.1099 36.9901 32.1999 36.9001 32.2899C36.7701 32.4399 36.6301 32.5899 36.5001 32.7399C36.4201 32.8299 36.3401 32.9199 36.2601 33.0099C36.1201 33.1699 35.9901 33.3299 35.8601 33.4899C35.7901 33.5799 35.7101 33.6599 35.6401 33.7499C35.5001 33.9299 35.3601 34.0999 35.2201 34.2799C35.1601 34.3599 35.1 34.4299 35.04 34.5099C34.84 34.7699 34.6501 35.0299 34.4601 35.2899C34.2601 35.5699 34.0601 35.8499 33.8701 36.1399C33.7901 36.2599 33.7101 36.3799 33.6301 36.4999C33.5201 36.6699 33.41 36.8299 33.31 36.9999C33.21 37.1599 33.1101 37.3299 33.0101 37.4899C32.9301 37.6099 32.86 37.7299 32.79 37.8599C32.67 38.0499 32.5601 38.26 32.4501 38.45C32.3901 38.54 32.34 38.6299 32.29 38.7299C32.17 38.9499 32.05 39.1799 31.93 39.3999C31.9 39.4699 31.8601 39.5399 31.8201 39.5999C31.6901 39.8499 31.5701 40.0999 31.4501 40.3499C31.4301 40.3899 31.4101 40.4299 31.3801 40.4799C31.2501 40.7499 31.1301 41.0199 31.0101 41.2899C31.0001 41.3099 30.9901 41.3399 30.9801 41.3599C30.8501 41.6499 30.7301 41.9399 30.6101 42.2399V42.2499C28.3301 47.8899 27.8701 53.7099 29.3801 58.4799C29.3801 58.4899 29.3901 58.5099 29.3901 58.5199C29.4701 58.7499 29.5401 58.9799 29.6301 59.2C29.6401 59.2299 29.65 59.2699 29.67 59.2999C29.75 59.5099 29.83 59.7099 29.91 59.9099C29.93 59.9699 29.9601 60.0099 29.9801 60.0699C30.0601 60.2499 30.1401 60.4299 30.2201 60.6099C30.2501 60.6799 30.2901 60.7499 30.3301 60.8199C30.4101 60.9799 30.4901 61.1299 30.5701 61.2799C30.6201 61.3699 30.6701 61.4599 30.7301 61.5499C30.8001 61.6799 30.8801 61.8099 30.9501 61.9299C30.9901 61.9999 31.0301 62.0599 31.0701 62.1199C32.5601 61.6499 34.0701 61.0099 35.5901 60.2299C34.9001 53.5999 37.09 46.1999 41.68 39.8499Z" fill="white"/>
</g>
</g>
</g>
</g>
</svg>
