<svg width="144" height="144" viewBox="0 0 144 144" fill="none" xmlns="http://www.w3.org/2000/svg">
<g id="Component 10">
<path id="Vector" d="M119.448 0H24.5516C10.9921 0 0 10.9921 0 24.5516V119.448C0 133.008 10.9921 144 24.5516 144H119.448C133.008 144 144 133.008 144 119.448V24.5516C144 10.9921 133.008 0 119.448 0Z" fill="white"/>
<path id="Vector_2" d="M113.328 70.9427V86.6924C113.278 86.9217 113.228 87.1609 113.188 87.3902C112.583 91.7594 110.496 95.7884 107.277 98.8038C106.536 99.3588 105.951 100.095 105.578 100.942C105.204 101.789 105.055 102.717 105.144 103.638C105.151 104.521 104.859 105.381 104.317 106.078C103.774 106.774 103.011 107.267 102.153 107.476C101.474 107.63 100.775 107.68 100.08 107.626C98.0863 107.626 98.4651 107.626 98.3056 109.24C98.2415 110.294 97.7736 111.282 96.9993 111.998C96.2249 112.715 95.2039 113.105 94.1489 113.088C90.4806 113.088 86.8256 113.088 83.1839 113.088C82.1835 113.104 81.2118 112.753 80.453 112.101C79.6943 111.449 79.2011 110.541 79.0671 109.549C78.9376 108.298 78.9076 107.038 78.9773 105.781C78.9773 105.124 78.7281 104.884 78.0702 104.894C74.1926 104.894 70.305 104.894 66.4274 104.894C65.7097 104.894 65.4904 105.183 65.5104 105.891C65.5104 106.828 65.5104 107.765 65.5104 108.702C65.5429 109.301 65.4479 109.899 65.2315 110.458C65.0151 111.017 64.6824 111.523 64.2553 111.944C63.8283 112.364 63.3167 112.689 62.7546 112.896C62.1924 113.104 61.5926 113.19 60.9948 113.148C57.4062 113.148 53.8177 113.148 50.2292 113.148C49.3102 113.153 48.4163 112.848 47.6926 112.282C46.9688 111.715 46.4576 110.921 46.2419 110.028C46.1309 109.53 46.0741 109.022 46.0725 108.513C46.0725 107.885 45.7734 107.655 45.1753 107.685C44.5772 107.715 43.9393 107.685 43.3212 107.685C42.2522 107.66 41.2339 107.225 40.4768 106.47C39.7198 105.715 39.2821 104.697 39.2542 103.628C39.2193 102.988 39.2193 102.345 39.2542 101.704C39.2769 101.401 39.2198 101.097 39.0887 100.822C38.9576 100.548 38.7569 100.312 38.5066 100.139C36.1761 98.2558 34.2968 95.8744 33.0066 93.1698C31.7164 90.4651 31.048 87.506 31.0504 84.5094C31.0504 80.7614 31.0504 77.0133 31.0504 73.2653C31.0001 70.4492 31.5582 67.6555 32.6868 65.075C33.8154 62.4944 35.4877 60.1879 37.5895 58.3131C38.1781 57.839 38.6406 57.2272 38.9362 56.5317C39.2318 55.8362 39.3513 55.0785 39.2841 54.3258C39.2371 53.7338 39.318 53.1387 39.5214 52.5808C39.7248 52.0229 40.046 51.5153 40.4631 51.0926C40.8801 50.6698 41.3833 50.3419 41.9384 50.1309C42.4935 49.92 43.0875 49.831 43.6801 49.8701C45.3348 49.8701 46.9995 49.8701 48.6642 49.8701C49.4454 49.8352 50.2213 50.0157 50.9069 50.3919C51.5925 50.7681 52.1615 51.3255 52.5518 52.0033C52.6418 52.1897 52.7838 52.3463 52.9606 52.4542C53.1374 52.562 53.3415 52.6166 53.5486 52.6113C57.167 52.6113 60.7755 52.6113 64.3939 52.6113C65.0718 52.6113 65.2811 52.3322 65.2612 51.6942C65.2612 50.5479 65.2612 49.3916 65.2612 48.2453C65.2924 47.55 65.0571 46.869 64.6033 46.3413C63.2836 44.6841 62.5485 42.6372 62.5125 40.5189C62.4764 38.4007 63.1414 36.33 64.4039 34.6288C65.8747 32.6758 67.9965 31.3143 70.3848 30.791H73.9235L74.9203 31.09C76.3391 31.5007 77.6437 32.2343 78.7317 33.2333C79.8197 34.2322 80.6617 35.4695 81.1917 36.8482C81.7218 38.2269 81.9255 39.7096 81.7869 41.1801C81.6483 42.6507 81.1711 44.0692 80.3928 45.3246C79.4134 46.7405 78.9586 48.4538 79.1069 50.1691C79.1468 50.6767 79.1468 51.1866 79.1069 51.6942C79.0471 52.402 79.3661 52.6213 80.0539 52.6113C83.5826 52.6113 87.1147 52.6113 90.6501 52.6113C90.8992 52.6358 91.15 52.5854 91.3702 52.4664C91.5904 52.3474 91.7701 52.1653 91.8861 51.9434C92.2387 51.3206 92.7501 50.8024 93.3682 50.4417C93.9864 50.0809 94.6891 49.8906 95.4048 49.89C97.2789 49.8302 99.1529 49.8302 101.017 49.89C101.569 49.8991 102.114 50.017 102.62 50.237C103.126 50.4569 103.584 50.7746 103.968 51.1719C104.351 51.5691 104.652 52.0381 104.854 52.5519C105.056 53.0658 105.154 53.6144 105.144 54.1664C105.144 54.7246 105.144 55.2927 105.144 55.8509C105.111 56.1548 105.161 56.4619 105.289 56.7393C105.417 57.0168 105.619 57.2541 105.871 57.4259C107.663 58.8792 109.187 60.6332 110.377 62.6094C111.916 65.1581 112.92 67.9935 113.328 70.9427ZM53.1299 78.6681V100.758C53.1299 101.904 53.1299 101.934 54.2962 101.934H90.1118C91.2481 101.934 91.2781 101.934 91.2781 100.758V56.6883C91.2781 55.522 91.278 55.522 90.1118 55.522H54.2962C53.1399 55.522 53.1299 55.522 53.1299 56.6883V78.6681ZM42.1649 78.8276V102.432C42.1649 102.781 42.1649 103.13 42.1649 103.429C42.1564 103.585 42.1806 103.741 42.2361 103.887C42.2916 104.033 42.377 104.165 42.4869 104.276C42.5968 104.387 42.7287 104.473 42.8742 104.53C43.0196 104.587 43.1753 104.612 43.3312 104.605C45.2052 104.605 47.0792 104.605 48.9532 104.605C49.1093 104.608 49.2643 104.579 49.4086 104.519C49.5529 104.46 49.6833 104.371 49.7918 104.259C49.9003 104.147 49.9845 104.013 50.0392 103.867C50.0938 103.721 50.1178 103.565 50.1096 103.409C50.1096 103.09 50.1096 102.771 50.1096 102.412V54.9937C50.1096 54.7046 50.1096 54.4056 50.1096 54.1165C50.1279 53.9409 50.1072 53.7635 50.0488 53.5969C49.9905 53.4302 49.896 53.2786 49.7721 53.1528C49.6482 53.027 49.4981 52.9302 49.3324 52.8694C49.1667 52.8085 48.9895 52.785 48.8137 52.8007C47.0194 52.8007 45.2252 52.8007 43.4409 52.8007C43.2717 52.7875 43.1016 52.8108 42.9422 52.869C42.7828 52.9272 42.6377 53.0189 42.5167 53.138C42.3958 53.257 42.3018 53.4007 42.2411 53.5592C42.1804 53.7177 42.1544 53.8873 42.1649 54.0567C42.1649 54.3956 42.1649 54.7445 42.1649 55.0535V78.8276ZM94.2485 78.7379C94.2485 86.8254 94.2485 94.9095 94.2485 102.99C94.2485 104.296 94.6174 104.665 95.9132 104.675C97.4882 104.675 99.0731 104.675 100.648 104.675C101.824 104.675 102.183 104.286 102.223 103.14V55.2927C102.223 54.9738 102.223 54.6448 102.223 54.2959C102.223 53.2094 101.784 52.8206 100.688 52.8107C99.2127 52.8107 97.6975 52.8107 96.2721 52.8107C94.5276 52.8107 94.2784 53.0898 94.2784 54.8043L94.2485 78.7379ZM39.1446 60.865C39.0075 60.9471 38.8775 61.0404 38.7558 61.1441C36.029 63.928 34.3612 67.5774 34.0409 71.4611C33.7517 76.135 33.7517 80.8223 34.0409 85.4963C34.259 89.4364 35.8455 93.1769 38.5265 96.0725C38.696 96.2519 38.8256 96.521 39.1944 96.541L39.1446 60.865ZM105.243 60.7453V96.4612C105.493 96.521 105.582 96.3715 105.692 96.2619C108.395 93.4447 110.049 89.7852 110.377 85.895C110.716 81.7781 110.527 77.6613 110.507 73.5345C110.563 69.3115 109.102 65.2084 106.39 61.9714C106.071 61.5527 105.722 61.2039 105.223 60.6955L105.243 60.7453ZM65.4705 40.3505C65.4725 41.678 65.8677 42.9752 66.6062 44.0783C67.3448 45.1814 68.3936 46.041 69.6203 46.5486C70.8469 47.0561 72.1965 47.1889 73.4985 46.9302C74.8006 46.6714 75.9968 46.0327 76.9362 45.0947C77.8756 44.1567 78.5161 42.9614 78.7768 41.6597C79.0374 40.3581 78.9066 39.0083 78.4009 37.7809C77.8951 36.5535 77.0371 35.5034 75.9351 34.7633C74.8331 34.0231 73.5365 33.6259 72.209 33.622C71.3281 33.6167 70.4548 33.7855 69.6394 34.1187C68.8239 34.4518 68.0823 34.9428 67.4571 35.5634C66.8319 36.1839 66.3355 36.9219 65.9963 37.7348C65.657 38.5478 65.4818 39.4198 65.4805 40.3006L65.4705 40.3505ZM55.7715 110.227C57.4262 110.227 59.0909 110.227 60.7555 110.227C62.0414 110.227 62.5 109.739 62.5099 108.473C62.5099 107.566 62.5099 106.659 62.5099 105.742C62.5099 105.124 62.2906 104.884 61.6626 104.894C58.9613 104.894 56.2599 104.894 53.5585 104.894C53.3518 104.876 53.1447 104.923 52.966 105.029C52.7873 105.134 52.646 105.293 52.5617 105.482C52.2869 105.973 51.9156 106.402 51.4701 106.745C51.0247 107.087 50.5143 107.336 49.97 107.476C48.9732 107.755 48.7938 108.054 49.033 109.071C49.2124 109.839 49.7308 110.197 50.7475 110.207C52.3923 110.197 54.0968 110.177 55.7814 110.177L55.7715 110.227ZM88.6664 110.227H93.4112C93.7472 110.23 94.0821 110.189 94.408 110.108C95.2354 109.888 95.4048 109.24 95.4048 108.493C95.4048 107.745 94.9962 107.636 94.408 107.496C93.8561 107.368 93.3377 107.124 92.8873 106.781C92.437 106.437 92.0651 106.001 91.7964 105.502C91.7109 105.312 91.5703 105.151 91.3927 105.041C91.215 104.93 91.0084 104.876 90.7996 104.884H82.6157C82.0176 104.884 81.8083 105.124 81.8182 105.702C81.8182 106.609 81.8182 107.526 81.8182 108.433C81.8182 109.739 82.2768 110.207 83.6125 110.217C85.357 110.197 87.0117 110.177 88.6664 110.187V110.227ZM72.199 52.5814C73.2755 52.5814 74.3421 52.5814 75.4087 52.5814C75.947 52.5814 76.2062 52.3721 76.1862 51.8238C76.1663 51.2756 76.1862 50.5977 76.1862 49.9797C76.1862 49.3617 76.0068 49.2819 75.4984 49.4713C73.3764 50.2791 71.0315 50.2791 68.9095 49.4713C68.3912 49.2819 68.2117 49.4713 68.2217 49.9797C68.2317 50.4881 68.2217 51.2158 68.2217 51.8338C68.2217 52.4518 68.451 52.6013 68.9892 52.5914C70.0558 52.5316 71.1324 52.5415 72.199 52.5415V52.5814Z" fill="#303B4D" stroke="#F7F7F7" stroke-width="0.5" stroke-miterlimit="10"/>
<path id="Vector_3" d="M72.1793 60.9742H57.9647C57.6692 60.9891 57.3731 60.9891 57.0776 60.9742C56.7134 60.9531 56.3695 60.7996 56.1106 60.5426C55.8517 60.2856 55.6958 59.9427 55.6721 59.5787C55.6649 59.2265 55.785 58.8835 56.0101 58.6126C56.2353 58.3416 56.5506 58.1609 56.8981 58.1034C57.1871 58.0473 57.481 58.0206 57.7753 58.0237H86.6033C86.9386 58.0224 87.273 58.0592 87.6001 58.1333C87.9208 58.2014 88.2069 58.381 88.4077 58.6402C88.6084 58.8993 88.7108 59.2213 88.6966 59.5488C88.6911 59.8875 88.5661 60.2134 88.3435 60.4688C88.121 60.7242 87.8152 60.8926 87.4805 60.9443C87.1487 60.9715 86.8154 60.9715 86.4836 60.9443L72.1793 60.9742Z" fill="#303B4D" stroke="#F7F7F7" stroke-width="0.5" stroke-miterlimit="10"/>
<path id="Vector_4" d="M74.99 37.8998C74.5595 39.1764 73.9195 40.3723 73.0961 41.4385C72.8801 41.6662 72.585 41.8025 72.2716 41.8192C71.9582 41.8359 71.6504 41.7317 71.4114 41.5282C71.1342 41.3792 70.9223 41.1323 70.8173 40.8356C70.7122 40.5389 70.7215 40.2136 70.8432 39.9234C71.3026 38.8468 71.8252 37.7983 72.4082 36.7834C72.5649 36.4959 72.8268 36.2802 73.1391 36.1817C73.4513 36.0832 73.7896 36.1095 74.0829 36.2551C74.7308 36.4943 75.0199 37.0525 74.99 37.8998Z" fill="#303B4D" stroke="#F7F7F7" stroke-width="0.5" stroke-miterlimit="10"/>
</g>
</svg>
