<svg width="145" height="144" viewBox="0 0 145 144" fill="none" xmlns="http://www.w3.org/2000/svg">
<g id="Component 10">
<path id="Vector" d="M119.948 0H25.0516C11.4921 0 0.5 10.9921 0.5 24.5516V119.448C0.5 133.008 11.4921 144 25.0516 144H119.948C133.508 144 144.5 133.008 144.5 119.448V24.5516C144.5 10.9921 133.508 0 119.948 0Z" fill="white"/>
<path id="Vector_2" d="M23.158 54.7849V41.8263C23.5667 41.8263 23.9854 41.7565 24.4041 41.7565C26.7865 41.7565 29.1689 41.7565 31.5513 41.7565C32.2889 41.7565 32.6179 41.4974 32.5481 40.7597C32.5143 40.0956 32.5143 39.4302 32.5481 38.7661C32.5447 38.313 32.6341 37.864 32.8108 37.4468C32.9875 37.0295 33.2478 36.6529 33.5756 36.34C33.9034 36.0272 34.2917 35.7848 34.7168 35.6277C35.1418 35.4706 35.5944 35.4022 36.0469 35.4267C37.0437 35.4267 38.1103 35.4267 39.137 35.4267C39.7979 35.3972 40.45 35.5876 40.9911 35.9682C41.5322 36.3487 41.9319 36.8981 42.1275 37.5301C42.4066 38.3873 42.8551 38.5269 43.6725 38.5269C50.2416 38.5269 56.8106 38.5269 63.3796 38.5269C73.9724 38.5269 84.5653 38.5269 95.1581 38.5269C95.9655 38.5269 96.434 38.3774 96.7131 37.5301C96.9065 36.9066 97.2986 36.3634 97.8296 35.9837C98.3605 35.6039 99.0012 35.4083 99.6537 35.4267C100.74 35.4267 101.837 35.4267 102.933 35.4267C103.715 35.4203 104.473 35.6959 105.068 36.2031C105.663 36.7102 106.055 37.4149 106.173 38.1879C106.302 39.0154 106.333 39.8554 106.263 40.6899C106.263 41.5273 106.552 41.8263 107.389 41.8064C109.811 41.8064 112.224 41.8064 114.636 41.8064C115.533 41.8064 115.802 42.1054 115.792 42.9826C115.792 46.5213 115.792 50.0699 115.792 53.6086C115.792 54.5357 115.493 54.8547 114.586 54.8447C112.234 54.8447 109.881 54.8447 107.529 54.8447C106.372 54.8447 106.273 54.9544 106.273 56.1406V78.8381C106.273 80.0941 106.273 80.104 107.818 80.104C109.363 80.104 109.233 80.104 109.243 78.8281C109.243 74.482 109.243 70.1259 109.243 65.7798C109.243 64.509 109.747 63.2899 110.643 62.3894C111.54 61.489 112.757 60.9804 114.028 60.9751C114.965 60.9751 115.902 60.9751 116.839 60.9751C120.128 60.9751 122.132 62.9688 122.132 66.2682C122.132 74.5086 122.132 82.7522 122.132 90.9992C122.245 92.1868 121.912 93.3739 121.196 94.3287C120.481 95.2835 119.436 95.9374 118.264 96.1627C118.131 96.1818 118.002 96.228 117.887 96.2982C117.772 96.3684 117.672 96.4614 117.594 96.5714C117.515 96.6814 117.46 96.8061 117.431 96.9381C117.403 97.07 117.401 97.2064 117.427 97.339C117.427 98.6847 117.427 100.04 117.427 101.396C117.427 102.323 117.158 102.702 116.151 102.682C113.161 102.622 110.23 102.682 107.269 102.682C106.522 102.682 106.203 102.951 106.273 103.679C106.306 104.343 106.306 105.008 106.273 105.672C106.273 106.126 106.181 106.574 106.003 106.991C105.825 107.407 105.564 107.783 105.235 108.096C104.907 108.408 104.519 108.65 104.094 108.808C103.669 108.965 103.216 109.035 102.764 109.012C101.767 109.012 100.7 109.012 99.6737 109.012C99.0395 109.038 98.4138 108.858 97.8906 108.499C97.3675 108.139 96.9753 107.62 96.7729 107.018C96.6892 106.651 96.4675 106.331 96.1539 106.123C95.8403 105.915 95.4588 105.836 95.0883 105.902C86.7151 105.902 78.3418 105.902 69.9685 105.902C61.2099 105.902 52.4512 105.902 43.6925 105.902C42.8751 105.902 42.4265 106.071 42.1474 106.898C41.95 107.529 41.5496 108.076 41.0086 108.454C40.4677 108.833 39.8166 109.022 39.1569 108.992C38.0604 108.992 36.9639 108.992 35.8674 108.992C35.0856 109.006 34.3258 108.733 33.7322 108.224C33.1386 107.715 32.7527 107.005 32.6478 106.231C32.5545 105.463 32.5212 104.69 32.5481 103.918C32.5481 102.672 32.5481 102.632 31.2223 102.622L23.1182 102.552V89.5937C25.8495 89.5937 28.5807 89.5937 31.322 89.5937C32.239 89.5937 32.558 89.2648 32.558 88.3477C32.558 77.5622 32.558 66.7833 32.558 56.011C32.558 55.084 32.239 54.755 31.322 54.765C28.6206 54.8049 25.8893 54.7849 23.158 54.7849ZM69.3106 51.2761H95.5867C95.6922 51.2901 95.7993 51.2801 95.9004 51.2469C96.0014 51.2137 96.0937 51.1582 96.1703 51.0844C96.2469 51.0107 96.306 50.9206 96.343 50.8209C96.38 50.7212 96.3941 50.6144 96.3842 50.5086C96.3842 50.1597 96.3842 49.8008 96.3842 49.4519C96.3842 48.7143 96.0652 48.3953 95.3874 48.4551H92.2673C89.9148 48.4551 89.9447 48.4551 90.0145 46.1027C90.0145 45.2155 90.4033 44.9264 91.2505 44.9464C92.6262 44.9464 94.0118 44.9464 95.3973 44.9464C95.7562 44.9464 96.115 44.9463 96.3144 44.5476C96.4851 44.2871 96.5793 43.9839 96.5863 43.6725C96.5933 43.3611 96.5127 43.054 96.3539 42.7861C96.195 42.5182 95.9641 42.3002 95.6875 42.157C95.411 42.0138 95.0998 41.951 94.7893 41.9758H43.9517H42.9549C42.8416 41.965 42.7279 41.9926 42.6321 42.054C42.5363 42.1154 42.4639 42.2073 42.4265 42.3148C42.1919 43.0542 42.1919 43.8481 42.4265 44.5875C42.6757 45.1557 43.3436 44.9065 43.832 44.9065H84.8909C87.0739 44.9065 87.0739 44.9065 87.044 47.0496C87.044 48.2857 86.9543 48.3654 85.7382 48.3953H43.1243C42.8651 48.3953 42.5661 48.4651 42.4863 48.7442C42.2522 49.4497 42.2522 50.2119 42.4863 50.9173C42.7256 51.5054 43.4034 51.2562 43.8819 51.2562C52.3681 51.2828 60.8543 51.2894 69.3405 51.2761H69.3106ZM69.4103 86.693H43.224C42.9349 86.693 42.576 86.693 42.4863 87.0219C42.247 87.7299 42.247 88.4969 42.4863 89.205C42.7256 89.7831 43.3934 89.5539 43.8819 89.5539C52.8599 89.5539 61.8312 89.5539 70.7959 89.5539C72.64 89.5539 72.64 89.5538 72.64 91.398C72.64 93.0527 72.64 93.0526 70.9952 93.0526H44.0812H43.0147C42.8684 93.0486 42.7252 93.0949 42.6091 93.1838C42.493 93.2727 42.4109 93.3989 42.3767 93.5411C41.8783 95.1161 42.4365 95.9235 44.0513 95.9235H94.5799H95.5768C95.8359 95.9235 96.1349 95.8736 96.2346 95.6145C96.5071 94.9157 96.5071 94.1401 96.2346 93.4414C96.0253 92.8732 95.4073 93.0626 94.9388 93.0626H77.7836C75.6404 93.0626 75.6404 93.0626 75.6703 90.8896C75.6703 89.6735 75.77 89.5738 76.9961 89.5738H95.1581C95.5967 89.5738 96.0851 89.6436 96.3244 89.1053C96.9225 87.7397 96.2645 86.693 94.8092 86.693H69.4103ZM69.4103 83.1942H95.497C95.6564 83.2139 95.8183 83.1889 95.9644 83.122C96.1105 83.0551 96.2351 82.949 96.3244 82.8154C96.4878 82.5695 96.5802 82.2832 96.5914 81.9881C96.6026 81.6931 96.5322 81.4006 96.3879 81.143C96.2437 80.8854 96.0311 80.6725 95.7737 80.5279C95.5163 80.3833 95.2239 80.3125 94.9288 80.3233H72.002C71.6531 80.3233 71.1647 80.3931 71.0052 80.0243C70.7001 79.1352 70.6827 78.1726 70.9554 77.2731C71.1647 76.5654 71.9522 76.8445 72.4905 76.8445C79.9566 76.8445 87.4427 76.8445 94.8989 76.8445C96.2745 76.8445 96.3742 76.7447 96.3642 75.3592C96.3542 73.9736 96.2745 73.9637 94.8092 73.9637H43.842H43.0745C42.8452 73.9637 42.5761 74.0235 42.5063 74.2627C42.277 74.9689 42.277 75.7295 42.5063 76.4357C42.7056 77.0239 43.3336 76.8245 43.7822 76.8245H66.5793C67.9151 76.8245 67.9948 76.9142 68.0048 78.25V78.7284C68.0048 80.2635 68.0048 80.3134 66.4498 80.3134H43.4233C43.0744 80.3134 42.6259 80.2336 42.4863 80.6423C42.237 81.3452 42.237 82.1125 42.4863 82.8154C42.7156 83.4135 43.3835 83.1842 43.8719 83.1842L69.4103 83.1942ZM69.4103 54.775H44.141C42.3368 54.775 42.3468 54.7749 42.3567 56.619C42.3567 57.4364 42.7056 57.6956 43.4732 57.6159C44.47 57.6159 45.5366 57.6159 46.5633 57.6159C48.9158 57.6159 48.8859 57.6159 48.846 59.9285C48.846 60.7957 48.5171 61.1446 47.6498 61.1147C46.2343 61.1147 44.8189 61.1147 43.4034 61.1147C43.0146 61.1147 42.6159 61.1147 42.4066 61.5633C41.8284 62.9987 42.4764 63.9955 44.0015 63.9955H94.6198C94.9786 63.9955 95.3275 63.9955 95.6864 63.9955C95.8479 63.9929 96.0033 63.9335 96.1254 63.8278C96.2475 63.7221 96.3285 63.5768 96.3542 63.4173C96.7829 61.7826 96.3543 61.1446 94.6397 61.1446H53.7703C53.3217 61.1446 52.8632 61.1446 52.4146 61.1446C51.667 61.1446 51.6271 60.5166 51.7168 60.0182C51.8564 59.2407 51.1885 58.2339 52.3049 57.7255C52.4333 57.7 52.5654 57.7 52.6937 57.7255H95.5568C95.7182 57.7394 95.8796 57.6975 96.0138 57.6068C96.1481 57.5161 96.2471 57.3821 96.2944 57.2271C96.8327 55.7518 96.2347 54.8547 94.7095 54.8547L69.4103 54.775ZM36.0469 72.0797V103.569C36.0469 105.692 36.0469 105.672 38.1302 105.563C38.7383 105.563 39.0374 105.313 39.0174 104.695C39.0174 104.376 39.0174 104.057 39.0174 103.699V40.6301C39.0174 40.2813 39.0174 39.9224 39.0174 39.5735C39.0174 39.2246 39.0174 39.0651 38.7881 38.9754C38.0304 38.6869 37.197 38.6658 36.4257 38.9156C35.8475 39.0751 36.0668 39.743 36.0668 40.2015C36.0137 50.8276 35.9871 61.4536 35.9871 72.0797H36.0469ZM99.9627 72.0797V103.768C99.9627 104.117 99.9627 104.476 99.9627 104.825C99.9627 105.174 100.072 105.393 100.351 105.423C101.1 105.627 101.892 105.6 102.624 105.343C103.143 105.074 102.903 104.396 102.903 103.908C102.903 82.7157 102.903 61.5267 102.903 40.341C102.903 40.022 102.903 39.6931 102.903 39.3442C102.903 38.9953 102.804 38.8558 102.574 38.806C101.829 38.5913 101.037 38.5913 100.292 38.806C99.7235 39.0552 99.9727 39.733 99.9727 40.2214C99.9129 50.9073 99.8896 61.5433 99.9029 72.1295L99.9627 72.0797ZM112.722 78.5091C112.722 82.626 112.722 86.7428 112.722 90.8696C112.722 92.2452 113.22 92.7237 114.586 92.7337C115.423 92.7337 116.261 92.7337 117.098 92.7337C118.244 92.7337 118.793 92.1854 118.793 91.079C118.793 82.7057 118.793 74.3325 118.793 65.9592C118.793 64.8527 118.234 64.3244 117.118 64.2746C116.34 64.2746 115.573 64.2746 114.795 64.2746C113.19 64.2746 112.722 64.7431 112.712 66.338C112.652 70.4449 112.662 74.5019 112.662 78.559L112.722 78.5091ZM69.3405 102.423H95.4272C95.816 102.423 96.1948 102.423 96.3642 101.924C96.9224 100.379 96.2944 99.4522 94.6896 99.4522H43.9716H43.0944C42.8651 99.4522 42.596 99.4522 42.5163 99.7114C42.2776 100.454 42.2776 101.252 42.5163 101.994C42.7057 102.632 43.3934 102.393 43.8719 102.393L69.3405 102.423ZM69.4004 70.425H92.3869C93.3837 70.425 94.3806 70.425 95.3774 70.425C96.125 70.425 96.444 70.096 96.3742 69.3783C96.3742 69.0925 96.3742 68.8034 96.3742 68.511C96.3742 67.8731 96.0951 67.5142 95.4472 67.5142H44.1012H43.0346C42.92 67.5033 42.805 67.5293 42.7063 67.5885C42.6077 67.6477 42.5305 67.737 42.4863 67.8432C42.2522 68.5486 42.2522 69.3108 42.4863 70.0163C42.7256 70.6044 43.3934 70.3652 43.8819 70.3652L69.4004 70.425ZM29.5676 45.1856H27.3447C26.7267 45.1856 26.4874 45.4647 26.4874 46.0628C26.4874 47.5082 26.4874 48.9635 26.4874 50.4089C26.4874 51.0269 26.7765 51.2761 27.3746 51.2761H31.7207C32.3288 51.2761 32.5879 50.987 32.578 50.3889C32.578 48.9336 32.578 47.4882 32.578 46.0428C32.578 45.4248 32.2988 45.1657 31.6908 45.1856H29.5676ZM112.373 48.176C112.373 47.4683 112.373 46.7606 112.373 46.0528C112.394 45.9405 112.388 45.8247 112.354 45.7154C112.321 45.6061 112.261 45.5066 112.181 45.4253C112.101 45.3439 112.002 45.2833 111.893 45.2485C111.784 45.2137 111.668 45.2058 111.556 45.2254H107.12C106.562 45.2254 106.283 45.4747 106.283 46.0329C106.283 47.5181 106.283 49.0233 106.283 50.4787C106.283 51.0269 106.542 51.316 107.1 51.306H111.546C111.659 51.3251 111.774 51.3169 111.884 51.2821C111.993 51.2473 112.092 51.1869 112.173 51.1059C112.254 51.0249 112.314 50.9257 112.349 50.8166C112.384 50.7075 112.392 50.5916 112.373 50.4787C112.363 49.6812 112.363 48.9037 112.373 48.1361V48.176ZM29.6373 99.203H31.7606C31.8725 99.2217 31.9874 99.2136 32.0956 99.1793C32.2038 99.1449 32.3023 99.0855 32.383 99.0057C32.4638 98.9259 32.5245 98.8281 32.5601 98.7203C32.5957 98.6125 32.6053 98.4978 32.5879 98.3856C32.5879 96.9004 32.5879 95.3952 32.5879 93.9398C32.6044 93.8282 32.5947 93.7143 32.5596 93.6072C32.5245 93.5 32.465 93.4024 32.3857 93.3222C32.3064 93.2419 32.2096 93.1812 32.1029 93.1448C31.9961 93.1084 31.8823 93.0973 31.7705 93.1125H27.3247C26.7665 93.1125 26.4974 93.3716 26.5074 93.9298C26.5074 95.4151 26.5074 96.9203 26.5074 98.3757C26.5074 98.9339 26.7565 99.203 27.3247 99.1931L29.6373 99.203ZM110.1 99.203H112.702C113.27 99.203 113.878 99.3027 113.968 98.4155C114.128 96.7608 114.028 96.4219 113.091 96.1428C112.431 95.9884 111.809 95.701 111.264 95.2982C110.719 94.8954 110.262 94.3857 109.921 93.8003C109.813 93.5674 109.635 93.3745 109.411 93.2492C109.187 93.1239 108.93 93.0726 108.675 93.1025C108.196 93.1025 107.678 93.1025 107.23 93.1025C106.582 93.1025 106.233 93.3617 106.293 94.0196C106.293 95.4351 106.293 96.8506 106.293 98.266C106.293 98.9937 106.621 99.2629 107.289 99.203C108.216 99.1532 109.153 99.1731 110.09 99.1731L110.1 99.203ZM109.213 86.5634V85.2875C109.213 83.3437 109.213 83.3636 107.22 83.4135C106.532 83.4135 106.223 83.6726 106.223 84.4103C106.223 85.6563 106.223 86.9123 106.223 88.1583C106.223 89.4043 106.302 89.5738 107.648 89.5738H108.316C108.436 89.5929 108.56 89.5831 108.676 89.5452C108.792 89.5072 108.897 89.4421 108.982 89.3554C109.068 89.2687 109.132 89.1628 109.169 89.0465C109.205 88.9302 109.214 88.8068 109.193 88.6866C109.213 87.9789 109.213 87.2811 109.213 86.5634Z" fill="#303B4D" stroke="#F7F7F7" stroke-width="0.7" stroke-miterlimit="10"/>
</g>
</svg>
