<svg width="145" height="145" viewBox="0 0 145 145" fill="none" xmlns="http://www.w3.org/2000/svg">
<g id="Component 10">
<path id="Vector" d="M120.232 0.77002H25.3347C11.7753 0.77002 0.783142 11.7621 0.783142 25.3216V120.218C0.783142 133.778 11.7753 144.77 25.3347 144.77H120.232C133.791 144.77 144.783 133.778 144.783 120.218V25.3216C144.783 11.7621 133.791 0.77002 120.232 0.77002Z" fill="white"/>
<path id="Vector_2" d="M62.3272 117.567C62.0647 117.379 61.8565 117.125 61.7235 116.831C61.5905 116.537 61.5374 116.213 61.5696 115.892C61.5696 114.078 61.5696 112.254 61.5696 110.45C61.5963 110.322 61.5942 110.19 61.5635 110.063C61.5328 109.937 61.4743 109.819 61.3922 109.717C61.3101 109.616 61.2065 109.535 61.0889 109.478C60.9713 109.422 60.8427 109.393 60.7124 109.393C59.1526 109.141 57.6109 108.788 56.0971 108.336C55.0498 108.125 54.1159 107.538 53.4714 106.687C52.8269 105.835 52.5164 104.776 52.5983 103.711C52.5633 103.097 52.5633 102.481 52.5983 101.867C52.6287 101.726 52.6284 101.581 52.5972 101.44C52.566 101.299 52.5047 101.167 52.4175 101.053C52.3304 100.938 52.2194 100.844 52.0923 100.776C51.9652 100.708 51.825 100.669 51.6812 100.661C50.7082 100.455 49.7466 100.199 48.8004 99.8933C47.54 99.5236 46.4365 98.7493 45.66 97.69C44.8835 96.6306 44.4773 95.3451 44.5041 94.032C44.5041 74.8931 44.5041 55.7509 44.5041 36.6054C44.481 35.2372 44.9216 33.9016 45.7541 32.8156C46.5867 31.7297 47.7622 30.9574 49.0895 30.6245C51.0333 30.0862 52.997 29.6277 54.9807 29.239C55.1202 29.239 55.2697 29.239 55.4093 29.1792C56.4061 29.0795 56.9544 29.4483 57.1039 30.2856C57.1509 30.4716 57.1567 30.6657 57.1209 30.8542C57.085 31.0427 57.0084 31.221 56.8963 31.3768C56.7843 31.5325 56.6395 31.6619 56.4721 31.7558C56.3048 31.8497 56.1189 31.9059 55.9276 31.9204C53.934 32.349 51.9404 32.7776 50.0365 33.3159C49.2284 33.4487 48.5012 33.8845 48.0031 34.5345C47.5049 35.1845 47.2732 35.9999 47.355 36.8147C47.355 50.9762 47.355 65.1409 47.355 79.309C47.355 80.1164 47.6341 80.3756 48.4316 80.3756C64.7063 80.3756 80.9876 80.3756 97.2755 80.3756C98.1328 80.3756 98.372 80.0765 98.372 79.2492C98.372 65.1143 98.372 50.9762 98.372 36.8347C98.4801 36.0055 98.2573 35.1671 97.7517 34.501C97.246 33.835 96.4984 33.3949 95.6707 33.2761C91.2674 32.0765 86.7681 31.2626 82.2236 30.8438C79.5422 30.5747 76.8608 30.5149 74.1694 30.3952C71.478 30.2756 69.0258 30.4949 66.454 30.6345C65.846 30.6345 65.2279 30.7043 64.6199 30.7043C64.2805 30.6882 63.959 30.5472 63.7174 30.3083C63.4758 30.0694 63.3312 29.7495 63.3114 29.4104C63.2916 29.0712 63.398 28.7367 63.6102 28.4713C63.8223 28.2059 64.1252 28.0284 64.4604 27.973C65.7064 27.8235 66.9624 27.7038 68.2184 27.654C77.1134 27.2168 86.0258 28.0322 94.6938 30.0763C95.5411 30.2856 96.3984 30.5049 97.2257 30.794C98.3923 31.2064 99.4022 31.9706 100.116 32.981C100.83 33.9915 101.214 35.1986 101.213 36.4359V94.1316C101.224 95.433 100.811 96.7025 100.036 97.7477C99.2605 98.7928 98.1654 99.5567 96.9167 99.9232C96.0583 100.217 95.1785 100.443 94.2851 100.601C93.2883 100.741 93.0092 101.209 93.1089 102.136C93.1587 102.75 93.1587 103.366 93.1089 103.98C93.0943 104.328 92.9513 104.657 92.7076 104.906C92.464 105.154 92.137 105.303 91.7898 105.324C91.4426 105.345 91.0999 105.237 90.828 105.02C90.5561 104.803 90.3743 104.493 90.3178 104.15C90.2431 103.571 90.2231 102.987 90.258 102.405C90.258 101.747 90.1084 101.518 89.4007 101.648C87.0482 102.076 84.6658 102.405 82.2834 102.644C77.5927 103.096 72.8755 103.21 68.1685 102.983C64.1984 102.8 60.2434 102.37 56.3264 101.697C55.7482 101.598 55.489 101.697 55.4691 102.375C55.4093 105.276 55.4093 105.366 58.2502 106.054C64.3646 107.584 70.6868 108.113 76.9704 107.619C79.6465 107.45 82.3097 107.117 84.9449 106.622C85.1747 106.577 85.4087 106.557 85.6427 106.562C85.812 106.545 85.9828 106.564 86.1447 106.616C86.3066 106.668 86.4562 106.753 86.5841 106.865C86.712 106.977 86.8157 107.114 86.8886 107.268C86.9616 107.421 87.0023 107.588 87.0084 107.758C87.0766 108.094 87.0104 108.442 86.8239 108.73C86.6375 109.017 86.3457 109.219 86.0115 109.293C85.4334 109.483 84.6459 109.293 84.307 109.822C83.968 110.35 84.1774 111.187 84.1574 111.885C84.1574 113.261 84.1574 114.636 84.1574 116.012C84.1928 116.333 84.1412 116.658 84.0079 116.953C83.8746 117.247 83.6646 117.501 83.3999 117.686H82.0043C81.7458 117.448 81.5458 117.153 81.4196 116.824C81.2934 116.496 81.2445 116.143 81.2767 115.792C81.2767 114.237 81.2767 112.682 81.2767 111.137C81.2767 110.609 81.2767 110.141 80.5291 110.141C79.3827 110.141 79.0637 110.33 79.0538 111.137C79.0538 112.692 79.0538 114.237 79.0538 115.792C79.0891 116.143 79.0396 116.498 78.9095 116.826C78.7794 117.153 78.5725 117.445 78.3061 117.676H76.9006C76.6382 117.445 76.4345 117.154 76.3063 116.828C76.178 116.502 76.1289 116.151 76.163 115.802C76.163 114.307 76.163 112.812 76.163 111.337C76.163 110.729 75.9636 110.509 75.3456 110.519C73.6909 110.519 72.0262 110.519 70.3615 110.519C69.7535 110.519 69.5342 110.729 69.5441 111.337C69.5441 112.822 69.5441 114.327 69.5441 115.802C69.5738 116.151 69.5216 116.503 69.3918 116.828C69.2621 117.153 69.0582 117.444 68.7965 117.676H67.391C67.1266 117.444 66.921 117.152 66.7911 116.824C66.6612 116.497 66.6106 116.143 66.6434 115.792C66.6434 114.217 66.6434 112.633 66.6434 111.058C66.6434 109.961 65.7562 110.29 65.1681 110.18C64.58 110.071 64.4105 110.509 64.4205 111.038C64.4205 112.623 64.4205 114.198 64.4205 115.782C64.4482 116.132 64.3972 116.484 64.2713 116.812C64.1454 117.14 63.9478 117.435 63.6928 117.676L62.3272 117.567ZM72.8934 83.1667C64.7594 83.1667 56.6254 83.1667 48.4914 83.1667C47.674 83.1667 47.355 83.376 47.365 84.2432C47.365 87.4331 47.365 90.6229 47.365 93.8127C47.2794 94.6412 47.5182 95.4706 48.0312 96.1267C48.5442 96.7829 49.2915 97.2146 50.1162 97.3314C59.3875 99.743 68.9875 100.642 78.5454 99.9929C84.1812 99.6914 89.772 98.8198 95.2321 97.3912C97.6045 96.7732 98.3222 95.8362 98.3322 93.404V84.3629C98.3322 83.1667 98.3322 83.1567 97.0961 83.1567L72.8934 83.1667Z" fill="#2F3A4C" stroke="white" stroke-width="0.4" stroke-miterlimit="10"/>
<g id="Vector_3">
<path d="M72.8532 61.0272C70.8335 61.0252 68.8598 60.4242 67.1819 59.3001C65.504 58.1759 64.1973 56.5792 63.4271 54.7122C62.657 52.8451 62.458 50.7915 62.8554 48.8113C63.2528 46.8312 64.2287 45.0134 65.6596 43.588C67.0906 42.1627 68.9121 41.1939 70.8939 40.8042C72.8756 40.4145 74.9284 40.6215 76.7924 41.399C78.6565 42.1764 80.248 43.4894 81.3656 45.1717C82.4831 46.854 83.0765 48.8301 83.0706 50.8498C83.0267 53.5422 81.9349 56.1114 80.0271 58.0118C78.1193 59.9121 75.5458 60.9938 72.8532 61.0272ZM65.5366 50.76C65.5249 52.2097 65.9429 53.6304 66.7379 54.8427C67.533 56.055 68.6694 57.0045 70.0036 57.5715C71.3379 58.1385 72.8102 58.2975 74.2347 58.0284C75.6593 57.7593 76.9721 57.0741 78.0076 56.0595C79.0431 55.0449 79.7548 53.7462 80.0528 52.3275C80.3508 50.9087 80.2218 49.4334 79.6821 48.0879C79.1423 46.7424 78.2161 45.587 77.0202 44.7674C75.8243 43.9479 74.4125 43.501 72.9629 43.4833C71.9955 43.4661 71.0343 43.6415 70.1354 43.9992C69.2364 44.3569 68.4175 44.8899 67.7265 45.5671C67.0354 46.2442 66.4859 47.0521 66.1099 47.9436C65.734 48.8351 65.5391 49.7925 65.5366 50.76Z" fill="#2F3A4C"/>
<path d="M74.2176 90.7721C74.2137 91.0385 74.1314 91.2978 73.9809 91.5176C73.8304 91.7375 73.6185 91.9081 73.3716 92.0083C73.1247 92.1084 72.8538 92.1336 72.5927 92.0807C72.3316 92.0277 72.0919 91.899 71.9035 91.7106C71.7152 91.5223 71.5864 91.2825 71.5335 91.0214C71.4806 90.7603 71.5057 90.4894 71.6058 90.2425C71.706 89.9957 71.8766 89.7838 72.0965 89.6333C72.3164 89.4828 72.5757 89.4004 72.842 89.3965C73.0249 89.388 73.2076 89.4177 73.3784 89.4839C73.5491 89.55 73.7042 89.6509 73.8337 89.7804C73.9632 89.9099 74.0642 90.065 74.1303 90.2357C74.1964 90.4065 74.2262 90.5892 74.2176 90.7721Z" fill="#2F3A4C"/>
<path d="M63.6527 92.1379C63.4712 92.1329 63.2925 92.0914 63.1273 92.016C62.962 91.9406 62.8136 91.8327 62.6909 91.6988C62.5682 91.5649 62.4736 91.4078 62.4128 91.2366C62.352 91.0655 62.3262 90.8839 62.337 90.7026C62.3418 90.5209 62.3836 90.3421 62.4599 90.1772C62.5361 90.0122 62.6453 89.8646 62.7806 89.7432C62.9159 89.6219 63.0745 89.5295 63.2468 89.4717C63.419 89.4138 63.6012 89.3917 63.7823 89.4067C63.9576 89.4039 64.1314 89.4388 64.292 89.5089C64.4526 89.579 64.5963 89.6827 64.7135 89.8131C64.8306 89.9435 64.9184 90.0975 64.971 90.2647C65.0236 90.4318 65.0398 90.6083 65.0184 90.7823C65.0303 90.9642 65.003 91.1467 64.9384 91.3172C64.8739 91.4877 64.7735 91.6424 64.6441 91.7708C64.5147 91.8993 64.3592 91.9986 64.1882 92.0619C64.0172 92.1252 63.8346 92.1511 63.6527 92.1379Z" fill="#2F3A4C"/>
<path d="M80.7073 90.6227C80.7087 90.4477 80.7472 90.275 80.8203 90.116C80.8934 89.957 80.9994 89.8154 81.1313 89.7005C81.2632 89.5855 81.418 89.4999 81.5855 89.4492C81.753 89.3986 81.9293 89.384 82.1029 89.4066C82.2822 89.4191 82.4574 89.4667 82.6183 89.5468C82.7792 89.6269 82.9228 89.7379 83.0408 89.8735C83.1588 90.0091 83.2489 90.1667 83.3061 90.3371C83.3632 90.5076 83.3862 90.6876 83.3738 90.8669C83.3614 91.0463 83.3137 91.2214 83.2336 91.3824C83.1535 91.5433 83.0425 91.6868 82.9069 91.8048C82.7713 91.9229 82.6138 92.0131 82.4433 92.0702C82.2729 92.1274 82.0928 92.1503 81.9135 92.1379C81.7314 92.1264 81.5537 92.0769 81.3919 91.9925C81.2301 91.9081 81.0879 91.7908 80.9742 91.648C80.8606 91.5052 80.7781 91.3402 80.7321 91.1636C80.6862 90.987 80.6777 90.8028 80.7073 90.6227Z" fill="#2F3A4C"/>
<path d="M76.7796 48.3577C76.7716 48.5355 76.7266 48.7097 76.6477 48.8693C76.5688 49.0288 76.4576 49.1703 76.3211 49.2847C75.4938 50.112 74.6863 50.9493 73.839 51.7568C73.7261 51.9025 73.5835 52.0224 73.4206 52.1086C73.2576 52.1948 73.0782 52.2453 72.8942 52.2566C72.7103 52.2679 72.526 52.2398 72.3537 52.1743C72.1815 52.1087 72.0252 52.0072 71.8953 51.8764C71.7523 51.755 71.6361 51.6054 71.5539 51.4368C71.4718 51.2682 71.4255 51.0845 71.418 50.8971C71.4105 50.7097 71.442 50.5228 71.5104 50.3482C71.5788 50.1737 71.6827 50.0151 71.8155 49.8828C72.6728 48.9657 73.5699 48.0885 74.477 47.2213C74.6618 47.0268 74.9057 46.8988 75.1707 46.8574C75.4357 46.8159 75.707 46.8633 75.9423 46.992C76.2035 47.1084 76.4233 47.3012 76.5728 47.545C76.7222 47.7888 76.7943 48.0721 76.7796 48.3577Z" fill="#2F3A4C"/>
<path d="M72.8532 61.0272C70.8335 61.0252 68.8598 60.4242 67.1819 59.3001C65.504 58.1759 64.1973 56.5792 63.4271 54.7122C62.657 52.8451 62.458 50.7915 62.8554 48.8113C63.2528 46.8312 64.2287 45.0134 65.6596 43.588C67.0906 42.1627 68.9121 41.1939 70.8939 40.8042C72.8756 40.4145 74.9284 40.6215 76.7924 41.399C78.6565 42.1764 80.248 43.4894 81.3656 45.1717C82.4831 46.854 83.0765 48.8301 83.0706 50.8498C83.0267 53.5422 81.9349 56.1114 80.0271 58.0118C78.1193 59.9121 75.5458 60.9938 72.8532 61.0272ZM65.5366 50.76C65.5249 52.2097 65.9429 53.6304 66.7379 54.8427C67.533 56.055 68.6694 57.0045 70.0036 57.5715C71.3379 58.1385 72.8102 58.2975 74.2347 58.0284C75.6593 57.7593 76.9721 57.0741 78.0076 56.0595C79.0431 55.0449 79.7548 53.7462 80.0528 52.3275C80.3508 50.9087 80.2218 49.4334 79.6821 48.0879C79.1423 46.7424 78.2161 45.587 77.0202 44.7674C75.8243 43.9479 74.4125 43.501 72.9629 43.4833C71.9955 43.4661 71.0343 43.6415 70.1354 43.9992C69.2364 44.3569 68.4175 44.8899 67.7265 45.5671C67.0354 46.2442 66.4859 47.0521 66.1099 47.9436C65.734 48.8351 65.5391 49.7925 65.5366 50.76Z" stroke="white" stroke-width="0.4" stroke-miterlimit="10"/>
<path d="M74.2176 90.7721C74.2137 91.0385 74.1314 91.2978 73.9809 91.5176C73.8304 91.7375 73.6185 91.9081 73.3716 92.0083C73.1247 92.1084 72.8538 92.1336 72.5927 92.0807C72.3316 92.0277 72.0919 91.899 71.9035 91.7106C71.7152 91.5223 71.5864 91.2825 71.5335 91.0214C71.4806 90.7603 71.5057 90.4894 71.6058 90.2425C71.706 89.9957 71.8766 89.7838 72.0965 89.6333C72.3164 89.4828 72.5757 89.4004 72.842 89.3965C73.0249 89.388 73.2076 89.4177 73.3784 89.4839C73.5491 89.55 73.7042 89.6509 73.8337 89.7804C73.9632 89.9099 74.0642 90.065 74.1303 90.2357C74.1964 90.4065 74.2262 90.5892 74.2176 90.7721Z" stroke="white" stroke-width="0.4" stroke-miterlimit="10"/>
<path d="M63.6527 92.1379C63.4712 92.1329 63.2925 92.0914 63.1273 92.016C62.962 91.9406 62.8136 91.8327 62.6909 91.6988C62.5682 91.5649 62.4736 91.4078 62.4128 91.2366C62.352 91.0655 62.3262 90.8839 62.337 90.7026C62.3418 90.5209 62.3836 90.3421 62.4599 90.1772C62.5361 90.0122 62.6453 89.8646 62.7806 89.7432C62.9159 89.6219 63.0745 89.5295 63.2468 89.4717C63.419 89.4138 63.6012 89.3917 63.7823 89.4067C63.9576 89.4039 64.1314 89.4388 64.292 89.5089C64.4526 89.579 64.5963 89.6827 64.7135 89.8131C64.8306 89.9435 64.9184 90.0975 64.971 90.2647C65.0236 90.4318 65.0398 90.6083 65.0184 90.7823C65.0303 90.9642 65.003 91.1467 64.9384 91.3172C64.8739 91.4877 64.7735 91.6424 64.6441 91.7708C64.5147 91.8993 64.3592 91.9986 64.1882 92.0619C64.0172 92.1252 63.8346 92.1511 63.6527 92.1379Z" stroke="white" stroke-width="0.4" stroke-miterlimit="10"/>
<path d="M80.7073 90.6227C80.7087 90.4477 80.7472 90.275 80.8203 90.116C80.8934 89.957 80.9994 89.8154 81.1313 89.7005C81.2632 89.5855 81.418 89.4999 81.5855 89.4492C81.753 89.3986 81.9293 89.384 82.1029 89.4066C82.2822 89.4191 82.4574 89.4667 82.6183 89.5468C82.7792 89.6269 82.9228 89.7379 83.0408 89.8735C83.1588 90.0091 83.2489 90.1667 83.3061 90.3371C83.3632 90.5076 83.3862 90.6876 83.3738 90.8669C83.3614 91.0463 83.3137 91.2214 83.2336 91.3824C83.1535 91.5433 83.0425 91.6868 82.9069 91.8048C82.7713 91.9229 82.6138 92.0131 82.4433 92.0702C82.2729 92.1274 82.0928 92.1503 81.9135 92.1379C81.7314 92.1264 81.5537 92.0769 81.3919 91.9925C81.2301 91.9081 81.0879 91.7908 80.9742 91.648C80.8606 91.5052 80.7781 91.3402 80.7321 91.1636C80.6862 90.987 80.6777 90.8028 80.7073 90.6227Z" stroke="white" stroke-width="0.4" stroke-miterlimit="10"/>
<path d="M76.7796 48.3577C76.7716 48.5355 76.7266 48.7097 76.6477 48.8693C76.5688 49.0288 76.4576 49.1703 76.3211 49.2847C75.4938 50.112 74.6863 50.9493 73.839 51.7568C73.7261 51.9025 73.5835 52.0224 73.4206 52.1086C73.2576 52.1948 73.0782 52.2453 72.8942 52.2566C72.7103 52.2679 72.526 52.2398 72.3537 52.1743C72.1815 52.1087 72.0252 52.0072 71.8953 51.8764C71.7523 51.755 71.6361 51.6054 71.5539 51.4368C71.4718 51.2682 71.4255 51.0845 71.418 50.8971C71.4105 50.7097 71.442 50.5228 71.5104 50.3482C71.5788 50.1737 71.6827 50.0151 71.8155 49.8828C72.6728 48.9657 73.5699 48.0885 74.477 47.2213C74.6618 47.0268 74.9057 46.8988 75.1707 46.8574C75.4357 46.8159 75.707 46.8633 75.9423 46.992C76.2035 47.1084 76.4233 47.3012 76.5728 47.545C76.7222 47.7888 76.7943 48.0721 76.7796 48.3577Z" stroke="white" stroke-width="0.4" stroke-miterlimit="10"/>
</g>
</g>
</svg>
