<svg width="145" height="145" viewBox="0 0 145 145" fill="none" xmlns="http://www.w3.org/2000/svg">
<g id="Component 10">
<path id="Vector" d="M119.462 0.22998H24.5647C11.0052 0.22998 0.0131226 11.2221 0.0131226 24.7816V119.678C0.0131226 133.238 11.0052 144.23 24.5647 144.23H119.462C133.021 144.23 144.013 133.238 144.013 119.678V24.7816C144.013 11.2221 133.021 0.22998 119.462 0.22998Z" fill="white"/>
<path id="Vector_2" d="M110.78 90.8205C110.547 91.3413 110.155 91.7755 109.662 92.0617C109.168 92.3479 108.597 92.4716 108.029 92.4154C97.7417 92.4154 87.4412 92.4154 77.1275 92.4154C75.1339 92.4154 74.2966 91.608 74.2966 89.5645V81.2212C74.2579 80.8727 74.2985 80.5201 74.4155 80.1896C74.5326 79.8591 74.7228 79.5593 74.9722 79.3129C75.2215 79.0664 75.5235 78.8796 75.8553 78.7664C76.1872 78.6532 76.5403 78.6167 76.8883 78.6594H76.9581C78.852 78.6594 78.8521 78.6595 78.8521 76.8054C78.8521 74.732 78.8521 72.6586 78.8521 70.5853C78.8521 69.8476 78.6328 69.6482 77.915 69.6482C64.0327 69.6482 50.1537 69.6482 36.278 69.6482H35.371C35.0603 69.658 34.7509 69.6038 34.4621 69.4888C34.1733 69.3738 33.9114 69.2005 33.6925 68.9798C33.4737 68.7591 33.3026 68.4956 33.1901 68.2059C33.0775 67.9162 33.0259 67.6063 33.0384 67.2957C33.0384 64.4847 33.0384 61.6837 33.0384 58.8727C33.0384 54.2209 33.0384 49.5956 33.0384 44.997C33.0384 43.0731 33.8757 42.2457 35.8195 42.2457C37.7633 42.2457 39.6572 42.2457 41.5811 42.2457C42.229 42.2457 42.4683 42.0863 42.4483 41.3985C42.4483 39.4846 42.4483 37.5607 42.4483 35.6368C42.4275 35.3184 42.4722 34.999 42.5797 34.6986C42.6873 34.3981 42.8553 34.1228 43.0735 33.8899C43.2917 33.6569 43.5553 33.4713 43.8482 33.3444C44.141 33.2174 44.4568 33.1519 44.7759 33.1519C45.0951 33.1519 45.4108 33.2174 45.7036 33.3444C45.9964 33.4713 46.2601 33.6569 46.4783 33.8899C46.6965 34.1228 46.8645 34.3981 46.972 34.6986C47.0796 34.999 47.1243 35.3184 47.1034 35.6368C47.1034 37.5507 47.1034 39.4746 47.1034 41.3985C47.1034 42.0364 47.243 42.2856 47.9408 42.2856C56.4536 42.2856 64.9697 42.2856 73.4892 42.2856C74.1172 42.2856 74.3265 42.1061 74.3165 41.4682C74.3165 39.5543 74.3165 37.6305 74.3165 35.7067C74.2956 35.3882 74.3404 35.0688 74.4479 34.7683C74.5554 34.4678 74.7235 34.1926 74.9417 33.9597C75.1599 33.7268 75.4236 33.541 75.7164 33.4141C76.0092 33.2871 76.3249 33.2217 76.6441 33.2217C76.9632 33.2217 77.279 33.2871 77.5718 33.4141C77.8647 33.541 78.1283 33.7268 78.3465 33.9597C78.5646 34.1926 78.7327 34.4678 78.8403 34.7683C78.9478 35.0688 78.9925 35.3882 78.9717 35.7067C78.9717 37.2218 78.9717 38.6971 78.9717 40.2521C78.9717 42.2457 78.9717 42.3255 80.9653 42.2457C84.5959 42.1473 88.1986 42.9054 91.4817 44.4586C95.273 46.1333 98.5841 48.7314 101.113 52.0155C103.641 55.2997 105.306 59.1651 105.955 63.2586C106.188 64.5745 106.291 65.9099 106.264 67.2458C106.264 70.7347 106.264 74.2235 106.264 77.7124C106.264 78.4201 106.424 78.7093 107.182 78.6495C107.451 78.6495 107.74 78.6495 108.019 78.6495C108.587 78.5687 109.166 78.6797 109.665 78.965C110.163 79.2502 110.552 79.6933 110.77 80.2244L110.78 90.8205ZM46.9838 46.8909C44.1828 46.8909 41.3718 46.8909 38.5707 46.8909C37.9726 46.8909 37.7135 47.0204 37.7135 47.6883C37.7135 53.1907 37.7135 58.6534 37.7135 64.2156C37.7135 64.8037 37.873 65.013 38.481 65.013C44.0898 65.013 49.7018 65.013 55.3172 65.013C55.9552 65.013 56.1346 64.7937 56.1246 64.1757C56.1246 58.6932 56.1246 53.2074 56.1246 47.7182C56.1246 47.0205 55.8655 46.881 55.2275 46.8909C52.4763 46.9109 49.745 46.8909 46.9838 46.8909ZM60.7798 55.942C60.7798 58.6932 60.7798 61.4544 60.7798 64.2056C60.7798 64.7937 60.9392 65.003 61.5573 65.003C67.0697 65.003 72.5223 65.003 78.0845 65.003C78.7324 65.003 78.9019 64.7837 78.9019 64.1657C78.9019 58.6832 78.9019 53.1974 78.9019 47.7083C78.9019 47.1002 78.7324 46.8809 78.0845 46.8809C72.602 46.8809 67.1162 46.8809 61.6271 46.8809C60.9492 46.8809 60.7698 47.1002 60.7798 47.7482C60.7997 50.4794 60.7798 53.2207 60.7798 55.942ZM92.6779 69.6482C89.8968 69.6482 87.1157 69.6482 84.3345 69.6482C83.7464 69.6482 83.5371 69.8077 83.547 70.4158C83.547 72.9211 83.547 75.4231 83.547 77.9218C83.547 78.5 83.7564 78.6594 84.2946 78.6594C89.8369 78.6594 95.3759 78.6594 100.912 78.6594C101.46 78.6594 101.659 78.49 101.659 77.9218C101.659 75.4231 101.659 72.9211 101.659 70.4158C101.659 69.7977 101.45 69.6382 100.862 69.6482C98.1105 69.6582 95.3892 69.6482 92.6579 69.6482H92.6779ZM92.6779 83.2947C88.3816 83.2947 84.0853 83.2947 79.7891 83.2947C79.2009 83.2947 78.9617 83.454 78.9916 84.0621C79.0314 85.0456 79.0314 86.0424 78.9916 87.0526C78.9916 87.6307 79.2009 87.8003 79.7492 87.7903C81.364 87.7903 82.9788 87.7903 84.6036 87.7903C91.5016 87.7903 98.3996 87.7903 105.308 87.7903C105.985 87.7903 106.254 87.6208 106.215 86.9031C106.155 86.0203 106.155 85.1344 106.215 84.2516C106.264 83.5039 105.985 83.3145 105.268 83.3245C101.051 83.3145 96.8545 83.2947 92.6579 83.2947H92.6779ZM83.557 61.6437L93.5252 51.6756C93.9039 51.3067 93.6249 51.1075 93.3557 50.9081C90.7127 48.9474 87.6348 47.6547 84.3844 47.1401C83.7065 47.0404 83.577 47.2398 83.577 47.8678C83.577 51.7354 83.577 55.6031 83.577 59.4707L83.557 61.6437ZM86.9661 64.8934C87.0732 64.9319 87.1832 64.962 87.2951 64.9832H100.862C101.35 64.9832 101.46 64.8237 101.39 64.3552C100.907 61.0397 99.6167 57.8937 97.632 55.1944C97.3031 54.7358 97.0539 54.7757 96.685 55.1944C95.6384 56.2909 94.5519 57.3475 93.4753 58.4141L86.9661 64.8934Z" fill="#2F3A4C" stroke="white" stroke-width="1.4" stroke-miterlimit="10"/>
<path id="Vector_3" d="M85.0023 110.847C84.4691 110.613 84.0242 110.215 83.7321 109.712C83.44 109.208 83.3158 108.624 83.3775 108.046C83.4373 105.175 83.3775 102.294 83.3775 99.4231C83.3567 99.1046 83.4014 98.7853 83.5089 98.4848C83.6165 98.1843 83.7845 97.909 84.0027 97.6761C84.2209 97.4432 84.4845 97.2575 84.7773 97.1306C85.0702 97.0037 85.3859 96.9381 85.7051 96.9381C86.0243 96.9381 86.34 97.0037 86.6328 97.1306C86.9256 97.2575 87.1893 97.4432 87.4075 97.6761C87.6257 97.909 87.7937 98.1843 87.9012 98.4848C88.0087 98.7853 88.0535 99.1046 88.0326 99.4231C88.0326 102.294 88.0326 105.175 88.0326 108.046C88.1058 108.625 87.9913 109.212 87.7061 109.722C87.4208 110.231 86.9798 110.636 86.4477 110.876L85.0023 110.847Z" fill="#2F3A4C" stroke="white" stroke-width="1.4" stroke-miterlimit="10"/>
<path id="Vector_4" d="M98.6475 110.847C98.1154 110.606 97.6744 110.201 97.3891 109.692C97.1039 109.182 96.9894 108.595 97.0625 108.016C97.1223 105.145 97.0625 102.264 97.0625 99.3932C97.0326 99.0701 97.0703 98.7444 97.1734 98.4367C97.2765 98.129 97.4427 97.8463 97.6613 97.6065C97.8798 97.3667 98.1461 97.1751 98.4429 97.044C98.7398 96.913 99.0606 96.8453 99.3851 96.8453C99.7096 96.8453 100.031 96.913 100.327 97.044C100.624 97.1751 100.89 97.3667 101.109 97.6065C101.328 97.8463 101.494 98.129 101.597 98.4367C101.7 98.7444 101.738 99.0701 101.708 99.3932C101.708 102.264 101.708 105.145 101.708 108.016C101.781 108.595 101.666 109.182 101.381 109.692C101.096 110.201 100.655 110.606 100.123 110.847H98.6475Z" fill="#2F3A4C" stroke="white" stroke-width="1.4" stroke-miterlimit="10"/>
</g>
</svg>
