<svg width="145" height="145" viewBox="0 0 145 145" fill="none" xmlns="http://www.w3.org/2000/svg">
<g id="Component 10">
<path id="Vector" d="M119.962 0.5H25.0648C11.5053 0.5 0.513184 11.4921 0.513184 25.0516V119.948C0.513184 133.508 11.5053 144.5 25.0648 144.5H119.962C133.521 144.5 144.513 133.508 144.513 119.948V25.0516C144.513 11.4921 133.521 0.5 119.962 0.5Z" fill="white"/>
<g id="Vector_2">
<path d="M109.076 76.7662C109.076 83.4449 109.006 90.1135 109.076 96.7822C109.11 97.7137 108.883 98.6363 108.42 99.4451C107.956 100.254 107.275 100.917 106.454 101.358C104.68 102.417 102.763 103.216 100.762 103.73C96.4648 104.898 92.0765 105.701 87.6441 106.132C80.8571 106.84 74.0294 107.08 67.2094 106.85C62.8032 106.749 58.4065 106.393 54.0415 105.784C53.4035 105.694 53.274 105.903 53.3039 106.461C53.3299 106.681 53.2974 106.903 53.2099 107.106C53.1224 107.309 52.9829 107.486 52.8055 107.618C52.6484 107.738 52.4609 107.813 52.264 107.835C52.067 107.856 51.8681 107.822 51.689 107.737C51.4866 107.646 51.3154 107.497 51.1967 107.309C51.078 107.121 51.017 106.903 51.0211 106.681C50.9214 105.345 50.9214 105.345 49.6255 105.096C47.421 104.711 45.2434 104.185 43.1063 103.521C42.7574 103.411 42.5681 103.421 42.4883 103.88C42.444 104.154 42.2964 104.401 42.0758 104.569C41.8552 104.738 41.5784 104.816 41.3022 104.787C41.1647 104.78 41.0298 104.747 40.9052 104.688C40.7807 104.63 40.6689 104.547 40.5763 104.445C40.4837 104.343 40.4121 104.224 40.3656 104.095C40.3191 103.965 40.2986 103.828 40.3053 103.69C40.415 102.634 39.8567 102.235 39.0194 101.886C38.2874 101.546 37.6144 101.092 37.0258 100.54C36.5303 100.124 36.1356 99.6015 35.8714 99.011C35.6072 98.4204 35.4804 97.7778 35.5006 97.1312C35.5006 83.6543 35.5006 70.2171 35.5006 56.7103C35.4584 55.8221 35.6599 54.9393 36.0834 54.1574C36.5068 53.3755 37.1361 52.7244 37.903 52.2744C38.4425 51.8899 39.0164 51.5562 39.6175 51.2776C39.8458 51.2064 40.041 51.0554 40.1672 50.8523C40.2935 50.6492 40.3425 50.4074 40.3053 50.1712C40.3053 47.812 40.3053 45.4429 40.3053 43.0639C40.2715 42.6162 40.3289 42.1663 40.474 41.7414C40.6191 41.3165 40.8489 40.9255 41.1494 40.5919C41.45 40.2584 41.8151 39.9893 42.2227 39.8009C42.6302 39.6126 43.0717 39.5088 43.5205 39.496C43.9693 39.4832 44.4161 39.5615 44.8337 39.7263C45.2514 39.8911 45.6312 40.1389 45.9503 40.4547C46.2694 40.7706 46.5211 41.1479 46.6902 41.5638C46.8593 41.9797 46.9424 42.4256 46.9342 42.8745C46.9342 44.6289 46.9342 46.3833 46.9342 48.1377C46.9342 48.8654 46.9342 48.8953 47.6818 48.7557C48.6088 48.5663 49.5358 48.357 50.4628 48.2174C50.9413 48.1476 51.081 47.9483 51.071 47.4897C51.071 45.2967 51.071 43.1038 51.071 40.9108C51.0355 40.4532 51.0949 39.9933 51.2456 39.5598C51.3963 39.1264 51.635 38.7288 51.9467 38.392C52.2584 38.0552 52.6365 37.7864 53.057 37.6026C53.4775 37.4188 53.9314 37.324 54.3904 37.324C54.8493 37.324 55.3032 37.4188 55.7237 37.6026C56.1442 37.7864 56.5221 38.0552 56.8338 38.392C57.1455 38.7288 57.3842 39.1264 57.535 39.5598C57.6857 39.9933 57.7452 40.4532 57.7097 40.9108C57.7097 42.7748 57.7097 44.6389 57.7097 46.5029C57.7097 47.0212 57.7795 47.2405 58.3976 47.1807C63.4627 46.6907 68.5504 46.4743 73.6388 46.5328C81.383 46.5216 89.1104 47.2526 96.7151 48.7158C99.5191 49.2382 102.255 50.0776 104.869 51.2178C106.135 51.7293 107.27 52.5198 108.188 53.5304C108.801 54.2327 109.125 55.1408 109.096 56.0723C109.082 62.9836 109.076 69.8815 109.076 76.7662ZM53.3536 76.7662C53.3536 85.4053 53.3536 94.0444 53.3536 102.683C53.3536 103.222 53.4632 103.531 54.0713 103.611C58.4169 104.172 62.789 104.504 67.1695 104.607C73.1975 104.81 79.2323 104.654 85.2418 104.139C89.6031 103.782 93.9335 103.116 98.2004 102.145C100.699 101.634 103.103 100.74 105.328 99.4937C105.814 99.2502 106.218 98.8688 106.489 98.3973C106.76 97.9258 106.887 97.385 106.853 96.8421C106.853 83.6343 106.793 70.4265 106.853 57.2187C106.926 56.5162 106.772 55.8088 106.413 55.2005C106.054 54.5922 105.509 54.1152 104.859 53.8395C104.53 53.67 104.201 53.4906 103.862 53.341C101.222 52.1985 98.4543 51.3752 95.6186 50.8889C88.3457 49.5726 80.9701 48.9055 73.5791 48.8952C70.3992 48.8454 67.2193 48.975 64.0494 49.1444C60.8796 49.3139 57.5702 49.583 54.3604 50.0316C53.3636 50.1712 53.3636 50.1812 53.3636 51.178L53.3536 76.7662ZM40.2754 76.836V54.5472C40.2754 54.3279 40.2754 54.1086 40.2754 53.8893C40.2754 53.67 40.1758 53.6401 39.9665 53.68C39.3862 53.8684 38.8738 54.2229 38.4929 54.6994C38.112 55.176 37.8792 55.7539 37.8233 56.3614C37.8233 69.9447 37.8233 83.5247 37.8233 97.1013C37.8032 97.4614 37.8739 97.8208 38.0289 98.1465C38.1839 98.4722 38.4183 98.7538 38.7105 98.9653C38.9683 99.1702 39.2379 99.3599 39.5178 99.5335C39.7371 99.663 39.9565 99.9521 40.2157 99.7926C40.4748 99.6331 40.3053 99.3441 40.3053 99.1149L40.2754 76.836ZM51.051 82.2487C51.051 81.7503 51.051 81.2519 51.051 80.7335C51.051 80.2152 50.9314 80.0757 50.443 80.0358C47.9709 79.8564 45.4589 79.647 43.0366 79.4377C42.6279 79.4377 42.5582 79.6271 42.5582 79.956C42.5582 80.8831 42.5582 81.8001 42.5582 82.7172C42.5428 82.8036 42.5474 82.8923 42.5714 82.9767C42.5955 83.0611 42.6384 83.139 42.697 83.2043C42.7556 83.2696 42.8283 83.3207 42.9096 83.3538C42.9909 83.3868 43.0786 83.401 43.1662 83.3951C45.6483 83.6841 48.1502 83.9732 50.6024 84.2822C50.9314 84.2822 51.051 84.2025 51.0411 83.8935L51.051 82.2487ZM51.051 62.7012C51.051 62.2127 51.051 61.7043 51.051 61.2558C51.051 60.8072 50.8417 60.5181 50.3134 60.5879C49.6256 60.6876 48.9277 60.7674 48.23 60.8471C46.5155 61.0564 44.801 61.2757 43.0865 61.4651C42.7077 61.4651 42.5482 61.6744 42.5582 62.0532C42.5582 63.0002 42.5582 63.9372 42.5582 64.8842C42.5582 65.253 42.7177 65.4125 43.0765 65.3826L44.5119 65.263L50.4031 64.8443C50.8716 64.8443 51.0809 64.6151 51.051 64.1466C51.0211 63.6781 51.0908 63.1397 51.0908 62.6613L51.051 62.7012ZM51.051 88.718C51.051 88.2097 51.051 87.7212 51.051 87.2029C51.051 86.6845 50.8617 86.5848 50.443 86.535C47.9809 86.2559 45.5187 85.9768 43.0665 85.6678C42.6479 85.6678 42.5582 85.7675 42.5582 86.1263C42.5582 87.0733 42.5582 88.0103 42.5582 88.9573C42.5468 89.0327 42.5516 89.1097 42.5723 89.1831C42.5929 89.2565 42.629 89.3247 42.678 89.3831C42.727 89.4416 42.7879 89.4888 42.8566 89.522C42.9253 89.5551 43.0003 89.5733 43.0765 89.5753L50.4728 90.7815C50.8516 90.8413 51.061 90.7216 51.051 90.3029C51.0411 89.8843 51.1008 89.2264 51.1008 88.6781L51.051 88.718ZM51.051 95.3966C51.051 94.8285 51.051 94.2603 51.051 93.6921C51.051 93.3233 50.9214 93.1539 50.5327 93.0941C48.0539 92.7086 45.5719 92.3033 43.0865 91.878C42.7077 91.8082 42.5582 91.8779 42.5582 92.2866C42.5582 93.1638 42.5582 94.041 42.5582 94.9182C42.5411 95.0607 42.5807 95.2042 42.6683 95.3179C42.7559 95.4316 42.8845 95.5064 43.0266 95.5262L50.5924 97.5199C50.9513 97.6196 51.061 97.5199 51.051 97.1411C51.0809 96.5031 51.1008 95.935 51.1008 95.3569L51.051 95.3966ZM46.8544 71.3037H50.4728C50.8317 71.3037 51.061 71.2239 51.051 70.8053C51.051 69.7088 51.051 68.6122 51.051 67.5157C51.051 67.1868 50.9314 67.0473 50.5726 67.0772C48.0938 67.2899 45.6083 67.4859 43.1163 67.6653C42.6976 67.6653 42.5482 67.8646 42.5582 68.2733C42.5582 69.0907 42.5582 69.8981 42.5582 70.7056C42.5582 71.1741 42.7376 71.3137 43.1762 71.3137C44.4521 71.2838 45.6782 71.2837 46.9043 71.2837L46.8544 71.3037ZM51.0411 56.1122C51.0162 55.654 51.0162 55.1948 51.0411 54.7366C51.0909 54.1585 50.8915 54.0189 50.3332 54.1385C47.9276 54.6303 45.5186 55.1054 43.1063 55.5639C42.7176 55.6337 42.5282 55.7932 42.5382 56.2019C42.5382 57.0193 42.5382 57.8267 42.5382 58.6441C42.5382 59.0827 42.7076 59.2322 43.1263 59.1824C45.5884 58.8734 48.0406 58.5744 50.5027 58.2853C50.9015 58.2853 51.0411 58.066 51.0311 57.6971C51.0909 57.1289 51.0908 56.6006 51.0908 56.0723L51.0411 56.1122ZM46.8146 73.5864H43.2858C42.8572 73.5864 42.6279 73.706 42.6478 74.1844C42.6478 74.9686 42.6478 75.7561 42.6478 76.5469C42.6478 77.0155 42.8671 77.1749 43.2758 77.2048C45.6981 77.3942 48.1204 77.5637 50.5327 77.763C51.0112 77.763 51.1507 77.6036 51.1407 77.155C51.1407 76.1582 51.1407 75.2211 51.1407 74.2642C51.1407 73.7359 50.9513 73.5764 50.4529 73.5764C49.2666 73.5664 48.0406 73.5465 46.8643 73.5465L46.8146 73.5864ZM42.5582 99.3939C42.5732 99.6761 42.5732 99.959 42.5582 100.241C42.4983 100.79 42.7176 101.059 43.2559 101.238C45.6172 101.978 48.0247 102.56 50.4628 102.983C50.8616 103.052 51.061 102.982 51.051 102.554C51.051 101.926 51.051 101.288 51.051 100.65C51.051 100.012 50.8716 99.9222 50.3732 99.7926C48.2898 99.2743 46.2164 98.7261 44.1431 98.1778C42.608 97.7093 42.6079 97.6994 42.6079 99.3541L42.5582 99.3939ZM53.3436 44.0906V46.3633C53.3436 47.8586 53.3436 47.8386 54.8289 47.6193C55.2775 47.5496 55.4071 47.3701 55.4071 46.9415C55.4071 44.9479 55.4071 42.9542 55.4071 40.9008C55.4071 40.1333 55.0283 39.7246 54.4103 39.7246C53.7923 39.7246 53.4135 40.1233 53.4135 40.9108C53.3836 41.9475 53.3935 43.0041 53.3935 44.0507L53.3436 44.0906ZM42.5681 46.2637V48.6959C42.5681 50.1812 42.568 50.1612 43.9736 49.7625C44.0751 49.749 44.1731 49.7156 44.2617 49.6641C44.3503 49.6127 44.4278 49.5443 44.4899 49.4628C44.5519 49.3812 44.5973 49.2882 44.6233 49.1891C44.6493 49.0901 44.6555 48.9868 44.6415 48.8853C44.6415 47.0013 44.6415 45.1173 44.6415 43.2233C44.6415 42.4159 44.2528 41.9973 43.5849 42.0073C42.917 42.0172 42.5881 42.4658 42.5881 43.2333C42.608 44.2002 42.6179 45.217 42.6179 46.2238L42.5681 46.2637ZM42.927 53.2414H42.9867L50.6423 51.7462C51.1706 51.6465 51.071 51.1979 51.0211 50.849C50.9713 50.5001 50.6024 50.55 50.3432 50.5898C48.3278 50.9519 46.3317 51.4144 44.3623 51.9754C43.8639 52.1249 43.3655 52.3044 42.8671 52.4738C42.578 52.5735 42.5682 52.8127 42.5981 53.0619C42.628 53.3111 42.8172 53.2514 42.9767 53.2414H42.927Z" fill="#2F3A4C"/>
<path d="M77.1788 79.6372C77.1645 78.491 77.4756 77.3642 78.076 76.3876C79.1866 74.3167 80.5676 72.4026 82.1828 70.6958C82.2807 70.5599 82.4096 70.4493 82.5586 70.373C82.7076 70.2967 82.8726 70.2569 83.0401 70.2569C83.2075 70.2569 83.3725 70.2967 83.5216 70.373C83.6706 70.4493 83.7994 70.5599 83.8973 70.6958C85.858 72.6795 87.4362 75.0078 88.5525 77.5638C88.8948 78.4388 89.0369 79.3793 88.9687 80.3163C88.9004 81.2534 88.6234 82.1633 88.158 82.9795C87.6926 83.7956 87.0505 84.4974 86.2788 85.0333C85.5071 85.5692 84.6253 85.9257 83.698 86.0767C82.6029 86.1847 81.4998 85.9752 80.5206 85.4732C79.5413 84.9712 78.7272 84.1979 78.1756 83.2457C77.4911 82.1691 77.144 80.9125 77.1788 79.6372ZM86.6885 79.6372C86.703 79.1173 86.5936 78.6014 86.3694 78.132C85.5814 76.4618 84.5759 74.9032 83.379 73.4968C83.1298 73.1679 82.9305 73.2476 82.7112 73.4968C81.5608 74.8526 80.583 76.346 79.8004 77.9426C79.5704 78.4177 79.437 78.9337 79.4079 79.4607C79.3788 79.9878 79.4546 80.5154 79.6309 81.0128C79.8421 81.7446 80.269 82.3956 80.8558 82.8811C81.4426 83.3665 82.1622 83.6638 82.9205 83.7341C83.958 83.6901 84.9356 83.2359 85.6384 82.4714C86.3412 81.707 86.7117 80.6947 86.6685 79.6572L86.6885 79.6372Z" fill="#2F3A4C"/>
<path d="M96.1972 69.4398C96.2421 70.6277 95.8774 71.7948 95.1642 72.7458C94.451 73.6967 93.4327 74.3737 92.2797 74.6631C91.2334 74.8476 90.1555 74.6671 89.2264 74.1518C88.2973 73.6364 87.5735 72.8175 87.1761 71.8321C86.8488 71.1343 86.6857 70.3707 86.6996 69.6C86.7134 68.8293 86.9036 68.0721 87.2558 67.3864C88.1207 65.6834 89.2289 64.1152 90.5453 62.7312C90.6507 62.5965 90.7852 62.4876 90.9389 62.4127C91.0927 62.3378 91.2615 62.2989 91.4325 62.2989C91.6035 62.2989 91.7722 62.3378 91.9259 62.4127C92.0796 62.4876 92.2142 62.5965 92.3195 62.7312C93.6195 64.1013 94.7141 65.6525 95.5692 67.3365C95.9161 67.9889 96.1296 68.704 96.1972 69.4398ZM93.9046 69.689C93.9194 69.5399 93.9194 69.3896 93.9046 69.2405C93.4314 67.846 92.6821 66.5611 91.7015 65.4625C91.5121 65.2133 91.3128 65.3429 91.1633 65.5422C90.3545 66.5009 89.6835 67.5679 89.1697 68.7121C88.9602 69.2357 88.9167 69.8111 89.0451 70.3602C89.1735 70.9094 89.4675 71.4058 89.8874 71.7823C90.0873 72.0027 90.3312 72.1789 90.6033 72.2994C90.8754 72.42 91.1697 72.4822 91.4673 72.4822C91.7649 72.4822 92.0592 72.42 92.3313 72.2994C92.6034 72.1789 92.8474 72.0027 93.0473 71.7823C93.5961 71.2237 93.9039 70.4721 93.9046 69.689Z" fill="#2F3A4C"/>
<path d="M109.076 76.7662C109.076 83.4449 109.006 90.1135 109.076 96.7822C109.11 97.7137 108.883 98.6363 108.42 99.4451C107.956 100.254 107.275 100.917 106.454 101.358C104.68 102.417 102.763 103.216 100.762 103.73C96.4648 104.898 92.0765 105.701 87.6441 106.132C80.8571 106.84 74.0294 107.08 67.2094 106.85C62.8032 106.749 58.4065 106.393 54.0415 105.784C53.4035 105.694 53.274 105.903 53.3039 106.461C53.3299 106.681 53.2974 106.903 53.2099 107.106C53.1224 107.309 52.9829 107.486 52.8055 107.618C52.6484 107.738 52.4609 107.813 52.264 107.835C52.067 107.856 51.8681 107.822 51.689 107.737C51.4866 107.646 51.3154 107.497 51.1967 107.309C51.078 107.121 51.017 106.903 51.0211 106.681C50.9214 105.345 50.9214 105.345 49.6255 105.096C47.421 104.711 45.2434 104.185 43.1063 103.521C42.7574 103.411 42.5681 103.421 42.4883 103.88C42.444 104.154 42.2964 104.401 42.0758 104.569C41.8552 104.738 41.5784 104.816 41.3022 104.787C41.1647 104.78 41.0298 104.747 40.9052 104.688C40.7807 104.63 40.6689 104.547 40.5763 104.445C40.4837 104.343 40.4121 104.224 40.3656 104.095C40.3191 103.965 40.2986 103.828 40.3053 103.69C40.415 102.634 39.8567 102.235 39.0194 101.886C38.2874 101.546 37.6144 101.092 37.0258 100.54C36.5303 100.124 36.1356 99.6015 35.8714 99.011C35.6072 98.4204 35.4804 97.7778 35.5006 97.1312C35.5006 83.6543 35.5006 70.2171 35.5006 56.7103C35.4584 55.8221 35.6599 54.9393 36.0834 54.1574C36.5068 53.3755 37.1361 52.7244 37.903 52.2744C38.4425 51.8899 39.0164 51.5562 39.6175 51.2776C39.8458 51.2064 40.041 51.0554 40.1672 50.8523C40.2935 50.6492 40.3425 50.4074 40.3053 50.1712C40.3053 47.812 40.3053 45.4429 40.3053 43.0639C40.2715 42.6162 40.3289 42.1663 40.474 41.7414C40.6191 41.3165 40.8489 40.9255 41.1494 40.5919C41.45 40.2584 41.8151 39.9893 42.2227 39.8009C42.6302 39.6126 43.0717 39.5088 43.5205 39.496C43.9693 39.4832 44.4161 39.5615 44.8337 39.7263C45.2514 39.8911 45.6312 40.1389 45.9503 40.4547C46.2694 40.7706 46.5211 41.1479 46.6902 41.5638C46.8593 41.9797 46.9424 42.4256 46.9342 42.8745C46.9342 44.6289 46.9342 46.3833 46.9342 48.1377C46.9342 48.8654 46.9342 48.8953 47.6818 48.7557C48.6088 48.5663 49.5358 48.357 50.4628 48.2174C50.9413 48.1476 51.081 47.9483 51.071 47.4897C51.071 45.2967 51.071 43.1038 51.071 40.9108C51.0355 40.4532 51.0949 39.9933 51.2456 39.5598C51.3963 39.1264 51.635 38.7288 51.9467 38.392C52.2584 38.0552 52.6365 37.7864 53.057 37.6026C53.4775 37.4188 53.9314 37.324 54.3904 37.324C54.8493 37.324 55.3032 37.4188 55.7237 37.6026C56.1442 37.7864 56.5221 38.0552 56.8338 38.392C57.1455 38.7288 57.3842 39.1264 57.535 39.5598C57.6857 39.9933 57.7452 40.4532 57.7097 40.9108C57.7097 42.7748 57.7097 44.6389 57.7097 46.5029C57.7097 47.0212 57.7795 47.2405 58.3976 47.1807C63.4627 46.6907 68.5504 46.4743 73.6388 46.5328C81.383 46.5216 89.1104 47.2526 96.7151 48.7158C99.5191 49.2382 102.255 50.0776 104.869 51.2178C106.135 51.7293 107.27 52.5198 108.188 53.5304C108.801 54.2327 109.125 55.1408 109.096 56.0723C109.082 62.9836 109.076 69.8815 109.076 76.7662ZM53.3536 76.7662C53.3536 85.4053 53.3536 94.0444 53.3536 102.683C53.3536 103.222 53.4632 103.531 54.0713 103.611C58.4169 104.172 62.789 104.504 67.1695 104.607C73.1975 104.81 79.2323 104.654 85.2418 104.139C89.6031 103.782 93.9335 103.116 98.2004 102.145C100.699 101.634 103.103 100.74 105.328 99.4937C105.814 99.2502 106.218 98.8688 106.489 98.3973C106.76 97.9258 106.887 97.385 106.853 96.8421C106.853 83.6343 106.793 70.4265 106.853 57.2187C106.926 56.5162 106.772 55.8088 106.413 55.2005C106.054 54.5922 105.509 54.1152 104.859 53.8395C104.53 53.67 104.201 53.4906 103.862 53.341C101.222 52.1985 98.4543 51.3752 95.6186 50.8889C88.3457 49.5726 80.9701 48.9055 73.5791 48.8952C70.3992 48.8454 67.2193 48.975 64.0494 49.1444C60.8796 49.3139 57.5702 49.583 54.3604 50.0316C53.3636 50.1712 53.3636 50.1812 53.3636 51.178L53.3536 76.7662ZM40.2754 76.836V54.5472C40.2754 54.3279 40.2754 54.1086 40.2754 53.8893C40.2754 53.67 40.1758 53.6401 39.9665 53.68C39.3862 53.8684 38.8738 54.2229 38.4929 54.6994C38.112 55.176 37.8792 55.7539 37.8233 56.3614C37.8233 69.9447 37.8233 83.5247 37.8233 97.1013C37.8032 97.4614 37.8739 97.8208 38.0289 98.1465C38.1839 98.4722 38.4183 98.7538 38.7105 98.9653C38.9683 99.1702 39.2379 99.3599 39.5178 99.5335C39.7371 99.663 39.9565 99.9521 40.2157 99.7926C40.4748 99.6331 40.3053 99.3441 40.3053 99.1149L40.2754 76.836ZM51.051 82.2487C51.051 81.7503 51.051 81.2519 51.051 80.7335C51.051 80.2152 50.9314 80.0757 50.443 80.0358C47.9709 79.8564 45.4589 79.647 43.0366 79.4377C42.6279 79.4377 42.5582 79.6271 42.5582 79.956C42.5582 80.8831 42.5582 81.8001 42.5582 82.7172C42.5428 82.8036 42.5474 82.8923 42.5714 82.9767C42.5955 83.0611 42.6384 83.139 42.697 83.2043C42.7556 83.2696 42.8283 83.3207 42.9096 83.3538C42.9909 83.3868 43.0786 83.401 43.1662 83.3951C45.6483 83.6841 48.1502 83.9732 50.6024 84.2822C50.9314 84.2822 51.051 84.2025 51.0411 83.8935L51.051 82.2487ZM51.051 62.7012C51.051 62.2127 51.051 61.7043 51.051 61.2558C51.051 60.8072 50.8417 60.5181 50.3134 60.5879C49.6256 60.6876 48.9277 60.7674 48.23 60.8471C46.5155 61.0564 44.801 61.2757 43.0865 61.4651C42.7077 61.4651 42.5482 61.6744 42.5582 62.0532C42.5582 63.0002 42.5582 63.9372 42.5582 64.8842C42.5582 65.253 42.7177 65.4125 43.0765 65.3826L44.5119 65.263L50.4031 64.8443C50.8716 64.8443 51.0809 64.6151 51.051 64.1466C51.0211 63.6781 51.0908 63.1397 51.0908 62.6613L51.051 62.7012ZM51.051 88.718C51.051 88.2097 51.051 87.7212 51.051 87.2029C51.051 86.6845 50.8617 86.5848 50.443 86.535C47.9809 86.2559 45.5187 85.9768 43.0665 85.6678C42.6479 85.6678 42.5582 85.7675 42.5582 86.1263C42.5582 87.0733 42.5582 88.0103 42.5582 88.9573C42.5468 89.0327 42.5516 89.1097 42.5723 89.1831C42.5929 89.2565 42.629 89.3247 42.678 89.3831C42.727 89.4416 42.7879 89.4888 42.8566 89.522C42.9253 89.5551 43.0003 89.5733 43.0765 89.5753L50.4728 90.7815C50.8516 90.8413 51.061 90.7216 51.051 90.3029C51.0411 89.8843 51.1008 89.2264 51.1008 88.6781L51.051 88.718ZM51.051 95.3966C51.051 94.8285 51.051 94.2603 51.051 93.6921C51.051 93.3233 50.9214 93.1539 50.5327 93.0941C48.0539 92.7086 45.5719 92.3033 43.0865 91.878C42.7077 91.8082 42.5582 91.8779 42.5582 92.2866C42.5582 93.1638 42.5582 94.041 42.5582 94.9182C42.5411 95.0607 42.5807 95.2042 42.6683 95.3179C42.7559 95.4316 42.8845 95.5064 43.0266 95.5262L50.5924 97.5199C50.9513 97.6196 51.061 97.5199 51.051 97.1411C51.0809 96.5031 51.1008 95.935 51.1008 95.3569L51.051 95.3966ZM46.8544 71.3037H50.4728C50.8317 71.3037 51.061 71.2239 51.051 70.8053C51.051 69.7088 51.051 68.6122 51.051 67.5157C51.051 67.1868 50.9314 67.0473 50.5726 67.0772C48.0938 67.2899 45.6083 67.4859 43.1163 67.6653C42.6976 67.6653 42.5482 67.8646 42.5582 68.2733C42.5582 69.0907 42.5582 69.8981 42.5582 70.7056C42.5582 71.1741 42.7376 71.3137 43.1762 71.3137C44.4521 71.2838 45.6782 71.2837 46.9043 71.2837L46.8544 71.3037ZM51.0411 56.1122C51.0162 55.654 51.0162 55.1948 51.0411 54.7366C51.0909 54.1585 50.8915 54.0189 50.3332 54.1385C47.9276 54.6303 45.5186 55.1054 43.1063 55.5639C42.7176 55.6337 42.5282 55.7932 42.5382 56.2019C42.5382 57.0193 42.5382 57.8267 42.5382 58.6441C42.5382 59.0827 42.7076 59.2322 43.1263 59.1824C45.5884 58.8734 48.0406 58.5744 50.5027 58.2853C50.9015 58.2853 51.0411 58.066 51.0311 57.6971C51.0909 57.1289 51.0908 56.6006 51.0908 56.0723L51.0411 56.1122ZM46.8146 73.5864H43.2858C42.8572 73.5864 42.6279 73.706 42.6478 74.1844C42.6478 74.9686 42.6478 75.7561 42.6478 76.5469C42.6478 77.0155 42.8671 77.1749 43.2758 77.2048C45.6981 77.3942 48.1204 77.5637 50.5327 77.763C51.0112 77.763 51.1507 77.6036 51.1407 77.155C51.1407 76.1582 51.1407 75.2211 51.1407 74.2642C51.1407 73.7359 50.9513 73.5764 50.4529 73.5764C49.2666 73.5664 48.0406 73.5465 46.8643 73.5465L46.8146 73.5864ZM42.5582 99.3939C42.5732 99.6761 42.5732 99.959 42.5582 100.241C42.4983 100.79 42.7176 101.059 43.2559 101.238C45.6172 101.978 48.0247 102.56 50.4628 102.983C50.8616 103.052 51.061 102.982 51.051 102.554C51.051 101.926 51.051 101.288 51.051 100.65C51.051 100.012 50.8716 99.9222 50.3732 99.7926C48.2898 99.2743 46.2164 98.7261 44.1431 98.1778C42.608 97.7093 42.6079 97.6994 42.6079 99.3541L42.5582 99.3939ZM53.3436 44.0906V46.3633C53.3436 47.8586 53.3436 47.8386 54.8289 47.6193C55.2775 47.5496 55.4071 47.3701 55.4071 46.9415C55.4071 44.9479 55.4071 42.9542 55.4071 40.9008C55.4071 40.1333 55.0283 39.7246 54.4103 39.7246C53.7923 39.7246 53.4135 40.1233 53.4135 40.9108C53.3836 41.9475 53.3935 43.0041 53.3935 44.0507L53.3436 44.0906ZM42.5681 46.2637V48.6959C42.5681 50.1812 42.568 50.1612 43.9736 49.7625C44.0751 49.749 44.1731 49.7156 44.2617 49.6641C44.3503 49.6127 44.4278 49.5443 44.4899 49.4628C44.5519 49.3812 44.5973 49.2882 44.6233 49.1891C44.6493 49.0901 44.6555 48.9868 44.6415 48.8853C44.6415 47.0013 44.6415 45.1173 44.6415 43.2233C44.6415 42.4159 44.2528 41.9973 43.5849 42.0073C42.917 42.0172 42.5881 42.4658 42.5881 43.2333C42.608 44.2002 42.6179 45.217 42.6179 46.2238L42.5681 46.2637ZM42.927 53.2414H42.9867L50.6423 51.7462C51.1706 51.6465 51.071 51.1979 51.0211 50.849C50.9713 50.5001 50.6024 50.55 50.3432 50.5898C48.3278 50.9519 46.3317 51.4144 44.3623 51.9754C43.8639 52.1249 43.3655 52.3044 42.8671 52.4738C42.578 52.5735 42.5682 52.8127 42.5981 53.0619C42.628 53.3111 42.8172 53.2514 42.9767 53.2414H42.927Z" stroke="white" stroke-width="0.21" stroke-miterlimit="10"/>
<path d="M77.1788 79.6372C77.1645 78.491 77.4756 77.3642 78.076 76.3876C79.1866 74.3167 80.5676 72.4026 82.1828 70.6958C82.2807 70.5599 82.4096 70.4493 82.5586 70.373C82.7076 70.2967 82.8726 70.2569 83.0401 70.2569C83.2075 70.2569 83.3725 70.2967 83.5216 70.373C83.6706 70.4493 83.7994 70.5599 83.8973 70.6958C85.858 72.6795 87.4362 75.0078 88.5525 77.5638C88.8948 78.4388 89.0369 79.3793 88.9687 80.3163C88.9004 81.2534 88.6234 82.1633 88.158 82.9795C87.6926 83.7956 87.0505 84.4974 86.2788 85.0333C85.5071 85.5692 84.6253 85.9257 83.698 86.0767C82.6029 86.1847 81.4998 85.9752 80.5206 85.4732C79.5413 84.9712 78.7272 84.1979 78.1756 83.2457C77.4911 82.1691 77.144 80.9125 77.1788 79.6372ZM86.6885 79.6372C86.703 79.1173 86.5936 78.6014 86.3694 78.132C85.5814 76.4618 84.5759 74.9032 83.379 73.4968C83.1298 73.1679 82.9305 73.2476 82.7112 73.4968C81.5608 74.8526 80.583 76.346 79.8004 77.9426C79.5704 78.4177 79.437 78.9337 79.4079 79.4607C79.3788 79.9878 79.4546 80.5154 79.6309 81.0128C79.8421 81.7446 80.269 82.3956 80.8558 82.8811C81.4426 83.3665 82.1622 83.6638 82.9205 83.7341C83.958 83.6901 84.9356 83.2359 85.6384 82.4714C86.3412 81.707 86.7117 80.6947 86.6685 79.6572L86.6885 79.6372Z" stroke="white" stroke-width="0.21" stroke-miterlimit="10"/>
<path d="M96.1972 69.4398C96.2421 70.6277 95.8774 71.7948 95.1642 72.7458C94.451 73.6967 93.4327 74.3737 92.2797 74.6631C91.2334 74.8476 90.1555 74.6671 89.2264 74.1518C88.2973 73.6364 87.5735 72.8175 87.1761 71.8321C86.8488 71.1343 86.6857 70.3707 86.6996 69.6C86.7134 68.8293 86.9036 68.0721 87.2558 67.3864C88.1207 65.6834 89.2289 64.1152 90.5453 62.7312C90.6507 62.5965 90.7852 62.4876 90.9389 62.4127C91.0927 62.3378 91.2615 62.2989 91.4325 62.2989C91.6035 62.2989 91.7722 62.3378 91.9259 62.4127C92.0796 62.4876 92.2142 62.5965 92.3195 62.7312C93.6195 64.1013 94.7141 65.6525 95.5692 67.3365C95.9161 67.9889 96.1296 68.704 96.1972 69.4398ZM93.9046 69.689C93.9194 69.5399 93.9194 69.3896 93.9046 69.2405C93.4314 67.846 92.6821 66.5611 91.7015 65.4625C91.5121 65.2133 91.3128 65.3429 91.1633 65.5422C90.3545 66.5009 89.6835 67.5679 89.1697 68.7121C88.9602 69.2357 88.9167 69.8111 89.0451 70.3602C89.1735 70.9094 89.4675 71.4058 89.8874 71.7823C90.0873 72.0027 90.3312 72.1789 90.6033 72.2994C90.8754 72.42 91.1697 72.4822 91.4673 72.4822C91.7649 72.4822 92.0592 72.42 92.3313 72.2994C92.6034 72.1789 92.8474 72.0027 93.0473 71.7823C93.5961 71.2237 93.9039 70.4721 93.9046 69.689Z" stroke="white" stroke-width="0.21" stroke-miterlimit="10"/>
</g>
</g>
</svg>
