<svg width="145" height="145" viewBox="0 0 145 145" fill="none" xmlns="http://www.w3.org/2000/svg">
<g id="Component 10">
<path id="Vector" d="M119.692 0.77002H24.7947C11.2353 0.77002 0.243164 11.7621 0.243164 25.3216V120.218C0.243164 133.778 11.2353 144.77 24.7947 144.77H119.692C133.251 144.77 144.243 133.778 144.243 120.218V25.3216C144.243 11.7621 133.251 0.77002 119.692 0.77002Z" fill="white"/>
<path id="Vector_2" d="M37.0455 92.4271H42.0296V91.4303C42.0296 81.1531 42.0296 70.876 42.0296 60.5988C41.9511 58.7243 42.3302 56.8589 43.1344 55.1638C43.9385 53.4687 45.1434 51.9949 46.6449 50.8699C46.7532 50.7632 46.8389 50.6359 46.8971 50.4955C46.9553 50.3551 46.9848 50.2044 46.9838 50.0525C46.9838 48.2682 46.9838 46.4939 46.9838 44.6099H52.3167V36.5356H96.675V76.4083H114.069V82.6184H111.857V78.8007H79.43V111.147H111.807V84.951H114.119V113.5H77.1075C77.0976 113.324 77.0976 113.147 77.1075 112.971V77.0861C77.1075 76.8967 77.1075 76.6974 77.1075 76.4282H86.1287C86.1287 75.7504 86.1287 75.1623 86.1287 74.5642C86.0719 72.6686 85.2644 70.8733 83.8838 69.5731C82.5033 68.2729 80.6628 67.5745 78.7672 67.6313C76.8717 67.6882 75.0764 68.4957 73.7762 69.8762C72.4761 71.2568 71.7775 73.0973 71.8343 74.9928C71.8343 83.1401 71.8343 91.2874 71.8343 99.4347C71.8756 101.152 71.3682 102.837 70.3858 104.247C69.4034 105.656 67.9973 106.715 66.3718 107.27C65.9033 107.429 65.375 107.529 64.9165 107.668V113.49H42.0494V106.632C42.5877 106.632 43.0463 106.632 43.5347 106.532C44.0231 106.432 44.3821 106.652 44.3521 107.31C44.3521 108.576 44.3521 109.851 44.3521 111.157H62.6437V78.4717C62.6437 72.3845 62.6437 66.2939 62.6437 60.2C62.6825 58.7763 62.3818 57.3639 61.7665 56.0795C61.1511 54.795 60.2389 53.6756 59.1051 52.8137C58.7533 52.5493 58.3286 52.3997 57.8889 52.385C54.8984 52.385 51.908 52.385 48.9175 52.385C48.5571 52.4034 48.2102 52.5283 47.9207 52.7439C46.7886 53.5865 45.8743 54.6874 45.2536 55.9548C44.6329 57.2222 44.3238 58.6196 44.3521 60.0306C44.3521 74.4445 44.3521 88.8618 44.3521 103.282V104.359L42.0196 104.259V99.8932H37.0953V97.4909H39.9362C42.0495 97.4909 42.0295 97.4909 41.9298 95.3677C41.9298 94.7995 41.6907 94.65 41.1624 94.66C39.7967 94.66 38.421 94.66 37.0554 94.66L37.0455 92.4271ZM64.8666 105.386C65.2039 105.304 65.5366 105.204 65.8634 105.087C66.9778 104.643 67.9276 103.866 68.5826 102.861C69.2376 101.856 69.5656 100.673 69.5218 99.4745C69.5218 91.2508 69.5218 83.0271 69.5218 74.8034C69.5563 72.4673 70.4596 70.2277 72.0557 68.5214C73.6517 66.815 75.8259 65.7642 78.1546 65.5738C80.4832 65.3834 82.7993 66.067 84.6513 67.4914C86.5033 68.9158 87.7585 70.9788 88.1721 73.2783C88.3416 74.2751 88.3316 75.3616 88.4114 76.4481H94.3225V38.7585H54.6094V44.5899H59.9124C59.9124 46.444 59.9124 48.2482 59.9124 50.0425C59.9221 50.351 60.0507 50.6439 60.2713 50.8599C61.7618 51.9801 62.9585 53.445 63.7588 55.129C64.5591 56.813 64.9392 58.6659 64.8666 60.529C64.8666 75.149 64.8666 89.7689 64.8666 104.389V105.386ZM49.3263 46.8926V49.9827H57.5799V46.8926H49.3263Z" fill="#2F3A4C"/>
<path id="Vector_3" d="M95.5296 81.831C98.1259 81.8369 100.662 82.612 102.818 84.0583C104.975 85.5046 106.654 87.5574 107.644 89.9574C108.635 92.3574 108.892 94.9971 108.383 97.5431C107.874 100.089 106.623 102.427 104.786 104.262C102.95 106.098 100.61 107.348 98.064 107.854C95.5176 108.361 92.8782 108.102 90.479 107.11C88.0797 106.118 86.0282 104.437 84.5835 102.279C83.1388 100.122 82.3657 97.5852 82.3617 94.9889C82.3591 93.2594 82.6979 91.5464 83.3589 89.9482C84.0198 88.3499 84.9899 86.8979 86.2133 85.6754C87.4367 84.453 88.8894 83.484 90.4881 82.8243C92.0868 82.1646 93.8001 81.827 95.5296 81.831ZM98.1612 96.6436L98.0316 96.8431C98.8989 97.7601 99.7262 98.7171 100.653 99.5743C101.565 100.41 102.722 100.931 103.953 101.06C104.066 101.081 104.182 101.077 104.294 101.05C104.406 101.022 104.51 100.971 104.601 100.9C105.646 99.3649 106.25 97.5718 106.345 95.7167C103.694 97.1919 100.952 97.0922 98.1712 96.6436H98.1612ZM98.4603 94.3908C99.178 94.4905 99.7162 94.5902 100.255 94.64C102.184 94.9347 104.154 94.478 105.757 93.3641C105.866 93.2825 105.955 93.1775 106.017 93.0566C106.079 92.9357 106.113 92.8022 106.116 92.6663C105.764 90.8761 104.938 89.2131 103.723 87.8517C102.896 90.7724 100.863 92.6364 98.4603 94.3908ZM93.845 97.6105L93.6556 97.4909C92.8681 98.1986 92.0408 98.8765 91.2931 99.6341C90.3079 100.611 89.6646 101.88 89.459 103.253C89.459 103.492 89.4591 103.881 89.6086 103.99C91.1376 105.044 92.9279 105.654 94.782 105.755C93.2967 103.093 93.4563 100.362 93.845 97.6105ZM96.0979 98.0392C96.0381 98.3981 95.9583 98.717 95.9284 99.036C95.5999 100.899 95.8685 102.818 96.6959 104.519C97.3538 105.685 97.4734 105.755 98.6896 105.346C100.056 104.952 101.324 104.273 102.408 103.352C101.197 102.698 100.035 101.958 98.9288 101.139C97.917 100.17 96.9712 99.1346 96.0979 98.0392ZM97.3539 92.4571C98.1214 91.7992 98.9188 91.1612 99.6465 90.4634C100.741 89.4207 101.444 88.0346 101.64 86.536C101.64 86.3466 101.64 86.0375 101.501 85.9578C99.959 84.8878 98.1508 84.2667 96.2772 84.1635C97.8023 86.825 97.6728 89.5763 97.3539 92.4571ZM84.7341 94.2015C87.4056 92.6664 90.1668 92.8856 93.1174 93.2844C92.5293 92.5567 92.1205 91.9686 91.5823 91.4104C90.4959 90.0803 88.9674 89.1852 87.2759 88.8884C87.1289 88.8639 86.9783 88.8727 86.8351 88.9141C86.6919 88.9555 86.5599 89.0285 86.4486 89.1277C85.4484 90.6424 84.8578 92.3905 84.7341 94.2015ZM94.9814 92.0384C95.0711 91.3605 95.1708 90.8521 95.2107 90.3438C95.5236 88.418 95.0962 86.4451 94.0144 84.8214C93.8649 84.6121 93.5261 84.3429 93.3367 84.3828C91.5338 84.7235 89.8586 85.5508 88.4922 86.7752C91.3829 87.6325 93.1872 89.646 94.9814 92.0384ZM92.4694 95.6368V95.3179C91.1127 95.2081 89.7491 95.2081 88.3924 95.3179C87.3125 95.6017 86.2739 96.0239 85.3023 96.5739C85.2126 96.6273 85.1369 96.7011 85.0814 96.7895C85.026 96.8779 84.9924 96.9783 84.9833 97.0823C85.3339 98.9056 86.1707 100.6 87.4055 101.987C88.203 99.1257 90.1967 97.3015 92.4694 95.6368Z" fill="#2F3A4C"/>
<path id="Vector_4" d="M60.3512 78.2526V89.397H59.4541C55.3671 89.397 51.2835 89.397 47.2032 89.397C46.615 89.397 46.4356 89.2275 46.4456 88.6295C46.4456 85.3533 46.4456 82.0737 46.4456 78.7909C46.4456 78.2725 46.5952 78.0831 47.1235 78.0831C51.3599 78.0831 55.5864 78.133 59.8229 78.1629C59.9724 78.2127 60.112 78.2327 60.3512 78.2526ZM48.7881 87.0445H58.0485V80.5553H48.7881V87.0445Z" fill="#2F3A4C"/>
<path id="Vector_5" d="M52.3178 63.6888H54.6105C54.6105 64.3368 54.6105 64.9249 54.6105 65.523C54.6105 66.1211 53.9526 65.9517 53.6137 65.9118C53.2747 65.8719 52.4573 66.3603 52.3178 65.523C52.2727 64.9125 52.2727 64.2994 52.3178 63.6888Z" fill="#2F3A4C"/>
<path id="Vector_6" d="M54.5594 68.2045C54.5594 68.8525 54.5594 69.4505 54.5594 70.0386C54.5352 70.1317 54.4877 70.2172 54.4214 70.2869C54.3552 70.3567 54.2724 70.4084 54.1806 70.4374C53.5825 70.4374 52.9845 70.4374 52.3365 70.4374V68.1846L54.5594 68.2045Z" fill="#2F3A4C"/>
</g>
</svg>
