<svg width="145" height="145" viewBox="0 0 145 145" fill="none" xmlns="http://www.w3.org/2000/svg">
<g id="Component 10">
<path id="Vector" d="M119.692 0.77002H24.7947C11.2353 0.77002 0.243164 11.7621 0.243164 25.3216V120.218C0.243164 133.778 11.2353 144.77 24.7947 144.77H119.692C133.251 144.77 144.243 133.778 144.243 120.218V25.3216C144.243 11.7621 133.251 0.77002 119.692 0.77002Z" fill="white"/>
<path id="Vector_2" d="M111.867 101.757C111.619 102.102 111.285 102.376 110.899 102.55C110.512 102.725 110.086 102.796 109.664 102.754C96.8048 102.754 83.946 102.754 71.087 102.754C69.3626 102.754 68.7745 102.166 68.7745 100.422C68.7745 95.5175 68.7745 90.6031 68.7745 85.6988C68.7745 85.4596 68.904 85.1107 68.6647 84.9811C68.4255 84.8515 68.2163 85.1605 68.0169 85.31C65.2657 87.3635 62.5244 89.4369 59.7632 91.4704C59.5273 91.6211 59.3374 91.8337 59.2143 92.0851C59.0912 92.3366 59.0398 92.617 59.0655 92.8958C59.0655 94.4707 59.0655 96.0457 59.0655 97.6207C59.0863 98.3013 58.9673 98.979 58.716 99.6119C58.4648 100.245 58.0866 100.82 57.6046 101.301C57.1226 101.782 56.5471 102.159 55.9137 102.409C55.2803 102.659 54.6025 102.776 53.9219 102.754H37.5741C36.9005 102.778 36.2293 102.663 35.602 102.416C34.9747 102.17 34.4047 101.797 33.9272 101.322C33.4497 100.846 33.0748 100.278 32.826 99.6513C32.5771 99.025 32.4595 98.3542 32.4804 97.6805C32.4804 91.1215 32.4804 84.5625 32.4804 78.0034C32.4638 77.3253 32.5857 76.6508 32.8389 76.0215C33.092 75.3921 33.4708 74.821 33.9524 74.3432C34.4339 73.8654 35.0079 73.491 35.6392 73.2427C36.2706 72.9945 36.946 72.8777 37.624 72.8997C39.1192 72.8997 39.0294 73.099 39.0294 71.4642V50.9199C39.0294 49.9231 39.0294 49.9231 38.0326 49.9231C37.8533 49.933 37.6737 49.933 37.4944 49.9231C37.0378 49.9025 36.6067 49.7066 36.291 49.3761C35.9753 49.0455 35.7993 48.6059 35.7997 48.1488C35.8125 47.7026 35.9969 47.2785 36.3143 46.9647C36.6318 46.6509 37.0581 46.4717 37.5044 46.4641C38.5012 46.4143 39.498 46.4641 40.4449 46.4641C44.8907 46.4641 49.3266 46.4641 53.7724 46.4641C55.2078 46.4641 56.065 47.4609 55.7061 48.687C55.614 49.0262 55.4187 49.3283 55.1472 49.5516C54.8758 49.7748 54.5417 49.9081 54.1911 49.933C53.9331 49.9679 53.6715 49.9679 53.4135 49.933C52.6759 49.8334 52.4167 50.1224 52.4167 50.8701C52.4167 57.9275 52.4167 64.9784 52.4167 72.0225C52.4167 72.7402 52.6161 73.0193 53.3338 72.9396C54.263 72.8138 55.2088 72.9485 56.0659 73.3287C56.9231 73.7089 57.6578 74.3195 58.1883 75.0927C58.5961 75.6607 58.8656 76.3161 58.9757 77.0066C59.0555 77.5847 59.2249 77.6844 59.7233 77.3056C61.9562 75.5911 64.1393 73.7869 66.5017 72.3215C67.3135 71.8617 67.9698 71.1705 68.3871 70.3361C68.8043 69.5016 68.9634 68.5618 68.8442 67.6365C68.6748 62.5527 68.7844 57.459 68.8442 52.3753C68.8442 50.6109 69.1134 50.2221 70.7581 49.6739L89.4185 43.4537C91.2128 42.8557 92.1498 43.5335 92.1498 45.4474V48.2385C92.1498 49.1456 92.1497 49.1456 92.9871 48.8764L108.198 43.8126C108.517 43.7029 108.846 43.6232 109.195 43.4936C109.663 43.2263 110.217 43.1528 110.739 43.2888C111.261 43.4248 111.708 43.7595 111.986 44.2213L111.867 101.757ZM108.438 73.2884V48.4179C108.438 47.2616 108.438 47.2616 107.311 47.6404L91.3622 52.9534C89.6577 53.5116 88.631 52.774 88.611 50.9598C88.611 50.0328 88.611 49.0957 88.611 48.1687C88.611 47.2416 88.6111 47.2516 87.704 47.5506C82.8495 49.1655 78.0149 50.7903 73.1504 52.3753C72.8649 52.4242 72.61 52.5832 72.4404 52.818C72.2708 53.0528 72.2001 53.3448 72.2434 53.6313C72.2434 68.4705 72.2434 83.3164 72.2434 98.169C72.2434 99.2356 72.2433 99.2355 73.2999 99.2355H107.311C108.428 99.2355 108.428 99.2355 108.428 98.1291L108.438 73.2884ZM45.7679 86.247C42.7775 86.247 39.7871 86.247 36.8664 86.247C36.1587 86.247 35.9293 86.4763 35.9393 87.1741C35.9393 90.5632 35.9393 93.9425 35.9393 97.3217C35.9393 98.7571 36.4078 99.2355 37.8333 99.2355H53.6328C55.0383 99.2355 55.5567 98.7173 55.5567 97.3317C55.5567 93.9525 55.5567 90.5732 55.5567 87.184C55.5567 86.4165 55.2876 86.1872 54.5599 86.1872C51.6591 86.2969 48.7185 86.277 45.7679 86.277V86.247ZM42.4983 61.2768C42.4983 64.8654 42.4983 68.4539 42.4983 72.0424C42.4983 72.6305 42.6479 72.8797 43.2759 72.8598C44.9007 72.8598 46.5355 72.8598 48.1603 72.8598C48.7783 72.8598 48.9578 72.6305 48.9478 72.0424C48.9478 64.9119 48.9478 57.7879 48.9478 50.6707C48.9478 50.0826 48.7783 49.8433 48.1603 49.8533C46.5554 49.8533 44.9506 49.8533 43.3557 49.8533C42.6479 49.8533 42.4885 50.0925 42.4885 50.7504C42.5084 54.2891 42.4983 57.798 42.4983 61.3067V61.2768ZM45.7779 82.7682C48.7683 82.7682 51.7588 82.7682 54.7492 82.7682C55.3373 82.7682 55.5766 82.5987 55.5667 81.9807C55.5667 80.6848 55.5667 79.3989 55.5667 78.1031C55.5667 76.8072 55.0084 76.3188 53.7524 76.3188H37.7137C36.4776 76.3188 35.9692 76.8371 35.9493 78.0532C35.9294 79.2694 35.9493 80.6449 35.9493 81.9308C35.9493 82.5787 36.1686 82.7682 36.8065 82.7682C39.787 82.7781 42.7874 82.7981 45.7779 82.7981V82.7682ZM59.0754 87.4532C59.1742 87.4321 59.271 87.4021 59.3645 87.3635L68.3358 80.635C68.4802 80.5279 68.5946 80.3854 68.6679 80.2213C68.7412 80.0572 68.7711 79.8769 68.7545 79.6979C68.7545 78.3024 68.7545 76.9069 68.7545 75.5114C68.7545 75.3419 68.8243 75.1126 68.6549 75.013C68.4854 74.9133 68.3258 75.0927 68.1863 75.1924L59.514 81.6916C59.389 81.7586 59.2826 81.8557 59.2043 81.974C59.1261 82.0923 59.0784 82.2281 59.0655 82.3694L59.0754 87.4532Z" fill="#2F3A4C" stroke="white" stroke-width="0.56" stroke-miterlimit="10"/>
<path id="Vector_3" d="M90.3356 63.071H80.5069C80.0623 63.0928 79.6269 62.9388 79.2949 62.6422C78.9629 62.3456 78.761 61.9303 78.7327 61.486C78.7123 61.0566 78.8501 60.6346 79.1203 60.3002C79.3904 59.9658 79.7739 59.7422 80.198 59.6718C80.3708 59.6284 80.5481 59.605 80.7263 59.6021C87.1558 59.6021 93.5852 59.6021 100.005 59.6021C101.33 59.6021 102.088 60.4095 101.998 61.5459C101.98 61.7648 101.918 61.9778 101.816 62.1727C101.715 62.3676 101.576 62.5404 101.407 62.6813C101.238 62.8221 101.043 62.9282 100.833 62.9934C100.624 63.0585 100.403 63.0815 100.184 63.061L90.3356 63.071Z" fill="#2F3A4C" stroke="white" stroke-width="0.56" stroke-miterlimit="10"/>
<path id="Vector_4" d="M90.4055 72.9893H80.8062C79.5303 72.9893 78.8126 72.3613 78.7229 71.3047C78.7321 71.0458 78.7949 70.7916 78.9074 70.5582C79.0198 70.3248 79.1794 70.1172 79.3761 69.9486C79.5728 69.78 79.8023 69.654 80.0502 69.5786C80.2981 69.5032 80.5589 69.48 80.8162 69.5104H99.8653C100.149 69.5104 100.431 69.5507 100.703 69.6301C101.113 69.7204 101.474 69.9596 101.718 70.3014C101.962 70.6433 102.07 71.0634 102.021 71.4804C101.973 71.8973 101.771 72.2815 101.456 72.5584C101.141 72.8353 100.734 72.9853 100.314 72.9793C98.0212 72.9793 95.7186 72.9793 93.4259 72.9793L90.4055 72.9893Z" fill="#2F3A4C" stroke="white" stroke-width="0.56" stroke-miterlimit="10"/>
<path id="Vector_5" d="M90.3353 82.9574H80.5066C80.062 82.9793 79.6266 82.8253 79.2945 82.5287C78.9625 82.2321 78.7606 81.8168 78.7324 81.3725C78.7138 80.9424 78.8522 80.5203 79.1218 80.1847C79.3913 79.8491 79.7737 79.6229 80.1977 79.5483C80.3751 79.5131 80.5552 79.4931 80.736 79.4885H100.004C100.342 79.4592 100.681 79.5214 100.987 79.6688C101.292 79.8162 101.552 80.0431 101.739 80.3258C101.905 80.5744 102 80.8635 102.014 81.1621C102.028 81.4606 101.96 81.7574 101.819 82.0204C101.669 82.3225 101.432 82.5731 101.139 82.74C100.846 82.9069 100.51 82.9826 100.174 82.9574H90.3353Z" fill="#2F3A4C" stroke="white" stroke-width="0.56" stroke-miterlimit="10"/>
<path id="Vector_6" d="M90.3258 92.8259H80.7962C79.5203 92.8259 78.8026 92.1978 78.7229 91.1412C78.7316 90.8914 78.7906 90.646 78.8965 90.4197C79.0025 90.1933 79.1531 89.9908 79.3393 89.8241C79.5256 89.6574 79.7436 89.5302 79.9802 89.4499C80.2169 89.3696 80.4673 89.3379 80.7165 89.3569H99.9152C100.124 89.3589 100.331 89.3857 100.533 89.4367C100.751 89.4672 100.961 89.5405 101.151 89.6523C101.34 89.7641 101.506 89.9121 101.639 90.088C101.771 90.2639 101.867 90.4642 101.922 90.6775C101.977 90.8907 101.99 91.1127 101.959 91.3306C101.918 91.7591 101.712 92.1548 101.385 92.4339C101.057 92.7131 100.634 92.8537 100.204 92.8259H90.3258Z" fill="#2F3A4C" stroke="white" stroke-width="0.56" stroke-miterlimit="10"/>
</g>
</svg>
