<svg width="145" height="144" viewBox="0 0 145 144" fill="none" xmlns="http://www.w3.org/2000/svg">
<rect x="0.0131836" width="144" height="144" rx="24" fill="white"/>
<path fill-rule="evenodd" clip-rule="evenodd" d="M31.1481 103.718C30.4796 103.738 29.8105 103.701 29.1481 103.608C28.7805 103.578 28.4377 103.41 28.1879 103.139C27.938 102.867 27.7993 102.512 27.7993 102.143C27.7993 101.774 27.938 101.419 28.1879 101.147C28.4377 100.876 28.7805 100.708 29.1481 100.678C29.3098 100.647 29.4868 100.648 29.6638 100.649C30.1107 100.651 30.5575 100.654 30.7581 100.138C31.0394 99.2407 31.0774 98.2847 30.8682 97.3679C30.784 96.8293 30.3102 96.822 29.876 96.8153C29.7944 96.814 29.7141 96.8128 29.6381 96.808C28.2781 96.718 27.7281 95.968 27.7281 94.638V52.388C27.7281 49.178 29.9282 47.228 33.3082 47.228H66.8629C67.2759 45.937 68.0595 45.3327 69.5729 45.4581C70.3371 45.5951 71.1273 45.5709 71.9173 45.5468C72.223 45.5374 72.5287 45.5281 72.8328 45.5281H75.3708C75.3972 45.364 75.4163 45.1845 75.4282 44.988C75.6182 41.988 77.6182 40.3379 80.6182 40.3079C88.3182 40.2613 96.0215 40.2613 103.728 40.3079C107.428 40.3079 109.168 42.058 109.378 45.738C109.428 46.798 109.808 47.148 110.848 47.208C114.508 47.418 116.298 49.348 116.298 53.038V94.138C116.298 95.788 115.868 96.808 114.028 96.818C112.895 96.818 112.994 97.6394 113.075 98.307C113.083 98.376 113.092 98.4433 113.098 98.508C113.114 98.6595 113.103 98.8351 113.092 99.0193C113.052 99.6738 113.006 100.436 114.098 100.608C114.418 100.608 114.758 100.608 115.098 100.708C115.401 100.757 115.679 100.907 115.886 101.134C116.093 101.361 116.217 101.652 116.238 101.958C116.281 102.292 116.204 102.629 116.021 102.911C115.837 103.193 115.56 103.401 115.238 103.498C114.552 103.704 113.831 103.772 113.118 103.698L31.1481 103.718ZM78.4681 48.3034C78.4865 48.2353 78.5047 48.1668 78.5228 48.0981C78.7484 47.2437 78.739 46.6336 78.4681 46.2223C78.4697 44.1267 79.3201 43.388 81.4681 43.388H103.398C105.668 43.388 106.398 44.168 106.398 46.388V57.388C106.398 58.1364 106.399 58.8849 106.4 59.6333C106.403 62.6249 106.406 65.6165 106.358 68.608C106.348 70.638 105.688 71.298 103.688 71.298H90.7597C90.7613 70.464 90.7642 69.6332 90.7671 68.8025V68.8017C90.776 66.2197 90.7848 63.6378 90.7582 60.9581C90.7182 56.9381 88.9781 54.8881 84.9781 54.8881C83.5888 54.8737 82.1992 54.8562 80.8095 54.8387L80.8091 54.8387L80.8038 54.8387C80.3642 54.8332 79.9245 54.8276 79.4849 54.8222C79.177 54.7042 78.8232 54.6766 78.4681 54.6701V48.3034ZM78.4681 59.3225C78.7767 58.9229 79.0853 58.5236 79.394 58.1246C79.8599 58.1232 80.3259 58.1217 80.7918 58.1203H80.792C82.2207 58.1159 83.6495 58.1114 85.0782 58.1081C86.9582 58.1181 87.6182 58.6881 87.6182 60.5481C87.6292 61.3196 87.6444 62.0911 87.6596 62.8625L87.6596 62.8639V62.864C87.7149 65.6772 87.7702 68.4895 87.6272 71.298H81.0881C79.2681 71.298 78.4681 70.518 78.4681 68.658V59.3225ZM74.601 50.4486C74.5852 50.5 74.569 50.5529 74.5523 50.6072L74.5523 50.6073C74.4164 51.0498 74.2506 51.5897 74.0729 52.2481C73.8801 52.9622 73.6617 53.6764 73.4434 54.3906C73.4055 54.5146 73.3676 54.6385 73.3298 54.7625C71.6194 54.7531 69.9089 54.7521 68.1985 54.7651C68.5765 53.2709 68.9495 51.7765 69.3156 50.2753C70.654 50.2709 71.9915 50.2652 73.3281 50.258C73.8782 50.2548 74.2922 50.314 74.601 50.4486ZM66.1308 50.2837C59.847 50.296 53.5478 50.2848 47.2478 50.2735H47.2473C42.893 50.2657 38.5384 50.258 34.1882 50.258C31.5382 50.258 30.8981 50.908 30.8981 53.598V91.5979C30.8981 93.2879 31.4082 93.7379 33.0582 93.7279C41.8795 93.6734 50.724 93.6886 59.576 93.7037H59.5778C63.7102 93.7108 67.8442 93.7179 71.9781 93.7179H111.118H111.118C112.203 93.7179 112.748 93.7179 113.022 93.4454C113.298 93.1705 113.298 92.618 113.298 91.5081V91.508V53.698C113.336 53.0408 113.265 52.382 113.088 51.748C112.895 51.2203 112.513 50.7831 112.016 50.5208C111.519 50.2585 110.943 50.1898 110.398 50.328C109.345 50.4504 109.412 51.1788 109.471 51.8393C109.485 51.9882 109.498 52.1337 109.498 52.268V68.6179C109.498 72.5379 107.648 74.378 103.738 74.388H90.6257C90.1262 77.3042 88.2071 78.6456 84.7582 78.688L76.2468 78.6613C76.4212 78.8045 76.5882 78.9583 76.7466 79.1221C77.2316 79.6239 77.6193 80.2023 77.898 80.8279H86.0719C88.8319 80.8279 90.5118 82.3279 90.5918 84.7679C90.6718 87.2079 89.0619 88.8779 86.3319 88.9879C80.2432 89.2333 74.1502 89.1927 68.0557 89.1522H68.0554H68.0551H68.0548H68.0545H68.0541H68.0538H68.0535H68.0532C64.9597 89.1316 61.8658 89.111 58.7719 89.1279C58.2203 89.1112 57.6713 89.0443 57.1319 88.9279C56.1107 88.774 55.1887 88.2311 54.5587 87.4128C53.9288 86.5946 53.6396 85.5644 53.7519 84.5379C53.796 83.5343 54.2307 82.5878 54.963 81.9003C55.6954 81.2127 56.6675 80.8387 57.6718 80.8579C60.8541 80.8251 64.0321 80.8354 67.2086 80.8463C67.4959 80.1816 67.9044 79.5757 68.4136 79.0596C68.5568 78.9144 68.7072 78.7771 68.8642 78.6481H59.1682C55.6882 78.6481 53.7481 76.6481 53.7281 73.2181V60.508C53.7281 57.038 55.4081 55.178 58.8981 55.008C60.9333 54.9097 62.969 54.8459 65.005 54.807C65.3867 53.3 65.7668 51.7934 66.1308 50.2837ZM64.1747 58.0981H59.5082C57.4382 58.0981 56.8382 58.7081 56.8182 60.7681V72.9681C56.8182 74.9081 57.4281 75.5381 59.4081 75.5481H84.9781C86.3283 75.5481 86.9643 75.2718 87.2738 74.388H81.4382C77.2882 74.388 75.4382 72.508 75.4382 68.318C75.4382 66.6364 75.4331 64.9559 75.4278 63.2757C74.9333 63.9211 74.4391 64.5674 73.9451 65.2145C74.022 67.2395 73.9697 69.2681 73.7881 71.2881C73.7576 71.6583 73.589 72.0035 73.3158 72.2552C73.0425 72.5068 72.6847 72.6465 72.3132 72.6465C72.1598 72.6465 72.0088 72.6227 71.8651 72.5771C71.7455 72.5516 71.6375 72.5149 71.5401 72.4681C70.9616 72.2097 70.7281 71.59 70.7281 70.8279V70.6081V69.0262C70.4144 69.1649 70.0504 69.1901 69.6029 69.0281C68.5986 68.6646 68.6006 67.8895 68.6027 67.0877L68.6029 66.9781C68.5736 66.58 68.5297 66.1818 68.4858 65.7832V65.7831V65.7831V65.7831V65.783V65.783V65.783C68.4094 65.0903 68.3328 64.3962 68.3328 63.6981C68.3328 62.5981 67.8929 62.0581 66.6729 62.0381C63.6729 61.9881 63.3229 61.5381 64.0529 58.5881C64.0934 58.4247 64.134 58.2614 64.1747 58.0981ZM67.4206 58.0981C67.4294 58.6859 67.7895 59.0025 68.6629 59.0481C70.801 59.1632 71.0822 59.4161 71.2868 61.4113C71.5064 61.2267 71.8051 61.113 72.1981 61.0979C72.4067 61.0798 72.6167 61.1074 72.8135 61.1787C72.8957 61.2085 72.9748 61.2456 73.0498 61.2895L73.072 61.3018C73.7497 60.4291 74.4203 59.5622 75.0729 58.6881C75.2632 58.4343 75.3082 58.26 75.2652 58.1351C74.2462 58.1369 73.2272 58.1381 72.2082 58.1381V58.0981H67.4206ZM72.0081 100.648H108.008C109.578 100.648 110.088 100.178 110.108 98.5879C110.108 96.7693 109.138 96.773 107.94 96.7775C107.88 96.7778 107.819 96.778 107.758 96.778H36.4282H35.1082C34.8891 96.788 34.6793 96.8698 34.5113 97.0108C34.3432 97.1517 34.2262 97.344 34.1782 97.558C33.5682 99.558 34.2481 100.558 36.3481 100.558L72.0081 100.648ZM77.7311 85.8779H85.8018C86.5118 85.8779 87.3818 85.8779 87.3418 84.8779C87.3071 84.0093 86.6989 83.9932 86.1138 83.9778H86.1136C86.0252 83.9755 85.9372 83.9731 85.8518 83.9679H78.354C78.2585 84.6388 78.0466 85.2848 77.7311 85.8779ZM75.083 83.9679H70.0174C70.0277 84.0045 70.0387 84.0409 70.0505 84.0771C70.152 84.3872 70.3102 84.6756 70.5169 84.9275C70.5531 84.9684 70.5906 85.0082 70.6294 85.0471C71.1357 85.5534 71.8225 85.8379 72.5386 85.8379C73.2547 85.8379 73.9415 85.5534 74.4478 85.0471C74.6097 84.8851 74.749 84.7048 74.8634 84.5109C74.8939 84.4545 74.9224 84.397 74.9488 84.3383C75.0029 84.2181 75.0477 84.0943 75.083 83.9679ZM72.6286 80.5079C73.0477 80.5218 73.4538 80.6328 73.817 80.8279H72.2019V80.8579C71.8812 80.8579 71.5605 80.8577 71.2398 80.8573C71.278 80.834 71.3167 80.8117 71.3559 80.7904C71.7476 80.5966 72.1838 80.4978 72.6286 80.5079ZM67.1675 85.4904C66.9632 85.0029 66.8287 84.4904 66.7671 83.9679H59.2918C58.7407 83.9557 58.1902 84.0094 57.6518 84.1279C57.4291 84.1716 57.2323 84.3007 57.1034 84.4875C56.9744 84.6743 56.9237 84.9041 56.9619 85.1279C56.9901 85.3215 57.0858 85.4991 57.2322 85.629C57.3786 85.7589 57.5662 85.8329 57.7619 85.8379C58.3019 85.8979 58.8618 85.9179 59.4018 85.9279L67.3571 85.8966C67.2887 85.764 67.2254 85.6285 67.1675 85.4904Z" fill="#2F3A4C"/>
<path d="M29.1481 103.608L29.197 103.261L29.187 103.26L29.177 103.259L29.1481 103.608ZM31.1481 103.718L31.148 103.368L31.1376 103.368L31.1481 103.718ZM28.1879 103.139L28.4453 102.902L28.4453 102.902L28.1879 103.139ZM28.1879 101.147L28.4453 101.384L28.4453 101.384L28.1879 101.147ZM29.1481 100.678L29.177 101.027L29.1959 101.025L29.2145 101.022L29.1481 100.678ZM29.6638 100.649L29.6657 100.299L29.6657 100.299L29.6638 100.649ZM30.7581 100.138L31.0843 100.265L31.0886 100.254L31.0921 100.243L30.7581 100.138ZM30.8682 97.3679L30.5224 97.422L30.5242 97.434L30.5269 97.4458L30.8682 97.3679ZM29.876 96.8153L29.8814 96.4653L29.8814 96.4653L29.876 96.8153ZM29.6381 96.808L29.615 97.1572L29.6163 97.1573L29.6381 96.808ZM66.8629 47.228V47.578H67.1184L67.1963 47.3346L66.8629 47.228ZM69.5729 45.4581L69.6346 45.1136L69.6183 45.1106L69.6018 45.1093L69.5729 45.4581ZM71.9173 45.5468L71.928 45.8966L71.928 45.8966L71.9173 45.5468ZM75.3708 45.5281V45.8781H75.6689L75.7163 45.5837L75.3708 45.5281ZM75.4282 44.988L75.0789 44.9659L75.0788 44.9668L75.4282 44.988ZM80.6182 40.3079L80.616 39.958L80.6147 39.958L80.6182 40.3079ZM103.728 40.3079L103.726 40.6579H103.728V40.3079ZM109.378 45.738L109.728 45.7215L109.728 45.7181L109.378 45.738ZM110.848 47.208L110.828 47.5574L110.828 47.5574L110.848 47.208ZM114.028 96.818L114.028 97.168L114.03 97.168L114.028 96.818ZM113.075 98.307L112.728 98.3489L112.728 98.3489L113.075 98.307ZM113.098 98.508L113.446 98.4726L113.446 98.4726L113.098 98.508ZM113.092 99.0193L113.441 99.0405L113.441 99.0405L113.092 99.0193ZM114.098 100.608L114.044 100.954L114.071 100.958H114.098V100.608ZM115.098 100.708L114.999 101.044L115.021 101.05L115.042 101.054L115.098 100.708ZM115.886 101.134L115.628 101.37L115.628 101.37L115.886 101.134ZM116.238 101.958L115.889 101.982L115.89 101.992L115.891 102.002L116.238 101.958ZM116.021 102.911L116.314 103.102L116.314 103.102L116.021 102.911ZM115.238 103.498L115.339 103.833L115.339 103.833L115.238 103.498ZM113.118 103.698L113.154 103.35L113.136 103.348L113.118 103.348L113.118 103.698ZM78.5228 48.0981L78.1844 48.0087L78.1844 48.0087L78.5228 48.0981ZM78.4681 48.3034L78.1301 48.2126L78.1181 48.2572V48.3034H78.4681ZM78.4681 46.2223L78.1181 46.222L78.1181 46.3271L78.1759 46.4148L78.4681 46.2223ZM106.4 59.6333L106.05 59.6337L106.05 59.6337L106.4 59.6333ZM106.358 68.608L106.008 68.6024L106.008 68.6063L106.358 68.608ZM90.7597 71.298L90.4097 71.2973L90.409 71.648H90.7597V71.298ZM90.7671 68.8025L91.1171 68.8037V68.8025H90.7671ZM90.7671 68.8017L90.4171 68.8005V68.8017H90.7671ZM90.7582 60.9581L90.4082 60.9615L90.4082 60.9615L90.7582 60.9581ZM84.9781 54.8881L84.9745 55.2381H84.9781V54.8881ZM80.8095 54.8387L80.8139 54.4888L80.8124 54.4888L80.8095 54.8387ZM80.8091 54.8387L80.8048 55.1887L80.8062 55.1887L80.8091 54.8387ZM80.8038 54.8387L80.7994 55.1887L80.7995 55.1887L80.8038 54.8387ZM79.4849 54.8222L79.3596 55.149L79.418 55.1714L79.4806 55.1722L79.4849 54.8222ZM78.4681 54.6701H78.1181V55.0137L78.4617 55.02L78.4681 54.6701ZM79.394 58.1246L79.3929 57.7746L79.2219 57.7751L79.1172 57.9104L79.394 58.1246ZM78.4681 59.3225L78.1911 59.1086L78.1181 59.2031V59.3225H78.4681ZM80.7918 58.1203L80.7918 57.7703L80.7908 57.7703L80.7918 58.1203ZM80.792 58.1203V58.4703L80.7931 58.4703L80.792 58.1203ZM85.0782 58.1081L85.08 57.7581L85.0774 57.7581L85.0782 58.1081ZM87.6182 60.5481H87.2681L87.2682 60.5531L87.6182 60.5481ZM87.6596 62.8625L87.3096 62.8694L87.3097 62.8707L87.6596 62.8625ZM87.6596 62.8639H88.0097L88.0095 62.8557L87.6596 62.8639ZM87.6596 62.864H87.3095L87.3097 62.8709L87.6596 62.864ZM87.6272 71.298V71.648H87.9599L87.9768 71.3158L87.6272 71.298ZM74.601 50.4486L74.9356 50.5511L75.027 50.2526L74.7409 50.1278L74.601 50.4486ZM74.5523 50.6072L74.2177 50.5044L74.2158 50.511L74.5523 50.6072ZM74.5523 50.6073L74.8869 50.71L74.8888 50.7034L74.5523 50.6073ZM74.0729 52.2481L74.4108 52.3393L74.4108 52.3393L74.0729 52.2481ZM73.4434 54.3906L73.7781 54.4929L73.7781 54.4929L73.4434 54.3906ZM73.3298 54.7625L73.3279 55.1125L73.5886 55.1139L73.6646 54.8645L73.3298 54.7625ZM68.1985 54.7651L67.8592 54.6792L67.7481 55.1185L68.2012 55.115L68.1985 54.7651ZM69.3156 50.2753L69.3144 49.9253L69.0405 49.9263L68.9756 50.1924L69.3156 50.2753ZM73.3281 50.258L73.33 50.608L73.3302 50.608L73.3281 50.258ZM47.2478 50.2735L47.2484 49.9235H47.2478V50.2735ZM66.1308 50.2837L66.4711 50.3658L66.5755 49.9328L66.1302 49.9337L66.1308 50.2837ZM47.2473 50.2735L47.2467 50.6235H47.2473V50.2735ZM33.0582 93.7279L33.0603 94.0779L33.0603 94.0779L33.0582 93.7279ZM59.576 93.7037L59.5754 94.0537H59.576V93.7037ZM59.5778 93.7037L59.5784 93.3537H59.5778V93.7037ZM113.022 93.4454L113.269 93.6935L113.269 93.6935L113.022 93.4454ZM113.298 53.698L112.949 53.6781L112.948 53.688V53.698H113.298ZM113.088 51.748L113.425 51.6541L113.422 51.6407L113.417 51.6276L113.088 51.748ZM110.398 50.328L110.439 50.6756L110.462 50.6729L110.484 50.6672L110.398 50.328ZM109.471 51.8393L109.123 51.871L109.123 51.871L109.471 51.8393ZM103.738 74.388L103.738 74.738L103.739 74.738L103.738 74.388ZM90.6257 74.388V74.038H90.3306L90.2807 74.3289L90.6257 74.388ZM84.7582 78.688L84.7571 79.0381L84.7625 79.038L84.7582 78.688ZM76.2468 78.6613L76.2479 78.3113L75.2653 78.3082L76.0247 78.9318L76.2468 78.6613ZM76.7466 79.1221L76.9982 78.8789L76.9982 78.8789L76.7466 79.1221ZM77.898 80.8279L77.5782 80.9703L77.6707 81.1779H77.898V80.8279ZM90.5918 84.7679L90.242 84.7794L90.242 84.7794L90.5918 84.7679ZM86.3319 88.9879L86.3178 88.6381L86.3178 88.6381L86.3319 88.9879ZM68.0557 89.1522L68.0581 88.8022H68.0557V89.1522ZM68.0532 89.1522L68.0508 89.5022H68.0532V89.1522ZM58.7719 89.1279L58.7613 89.4779L58.7738 89.4779L58.7719 89.1279ZM57.1319 88.9279L57.2057 88.5858L57.1949 88.5835L57.184 88.5818L57.1319 88.9279ZM53.7519 84.5379L54.0998 84.5759L54.101 84.5646L54.1015 84.5533L53.7519 84.5379ZM54.963 81.9003L55.2026 82.1554L55.2026 82.1554L54.963 81.9003ZM57.6718 80.8579L57.6651 81.208L57.6754 81.2079L57.6718 80.8579ZM67.2086 80.8463L67.2074 81.1963L67.4382 81.1971L67.5298 80.9852L67.2086 80.8463ZM68.4136 79.0596L68.1644 78.8138L68.1644 78.8138L68.4136 79.0596ZM68.8642 78.6481L69.0864 78.9185L69.8415 78.2981H68.8642V78.6481ZM53.7281 73.2181H53.3781L53.3782 73.2201L53.7281 73.2181ZM58.8981 55.008L58.8812 54.6585L58.8811 54.6585L58.8981 55.008ZM65.005 54.807L65.0116 55.1569L65.2787 55.1518L65.3442 54.8929L65.005 54.807ZM64.1747 58.0981L64.5143 58.1828L64.6228 57.7481H64.1747V58.0981ZM56.8182 60.7681L56.4682 60.7647V60.7681H56.8182ZM59.4081 75.5481L59.4064 75.8981H59.4081V75.5481ZM87.2738 74.388L87.6041 74.5036L87.7672 74.038H87.2738V74.388ZM75.4278 63.2757L75.7778 63.2746L75.7746 62.2477L75.15 63.0628L75.4278 63.2757ZM73.9451 65.2145L73.6669 65.0021L73.5905 65.1021L73.5953 65.2278L73.9451 65.2145ZM73.7881 71.2881L73.4395 71.2567L73.4393 71.2593L73.7881 71.2881ZM73.3158 72.2552L73.5529 72.5126L73.5529 72.5126L73.3158 72.2552ZM71.8651 72.5771L71.9711 72.2435L71.9547 72.2383L71.9379 72.2347L71.8651 72.5771ZM71.5401 72.4681L71.6918 72.1525L71.6828 72.1485L71.5401 72.4681ZM70.7281 69.0262H71.0781V68.4887L70.5866 68.7061L70.7281 69.0262ZM69.6029 69.0281L69.4838 69.3572L69.4838 69.3572L69.6029 69.0281ZM68.6027 67.0877L68.9527 67.0886L68.9527 67.0883L68.6027 67.0877ZM68.6029 66.9781L68.9529 66.9787L68.9529 66.9656L68.9519 66.9525L68.6029 66.9781ZM68.4858 65.7832H68.1358V65.8024L68.1379 65.8215L68.4858 65.7832ZM68.4858 65.783H68.8358V65.7637L68.8336 65.7446L68.4858 65.783ZM66.6729 62.0381L66.667 62.388L66.6671 62.388L66.6729 62.0381ZM64.0529 58.5881L63.7132 58.5039L63.7131 58.504L64.0529 58.5881ZM68.6629 59.0481L68.6817 58.6986L68.6811 58.6986L68.6629 59.0481ZM67.4206 58.0981V57.7481H67.0654L67.0707 58.1033L67.4206 58.0981ZM71.2868 61.4113L70.9386 61.447L71.0061 62.1046L71.512 61.6792L71.2868 61.4113ZM72.1981 61.0979L72.2116 61.4477L72.22 61.4473L72.2284 61.4466L72.1981 61.0979ZM72.8135 61.1787L72.9328 60.8497L72.9328 60.8497L72.8135 61.1787ZM73.0498 61.2895L72.873 61.5917L72.8805 61.5958L73.0498 61.2895ZM73.072 61.3018L72.9027 61.6081L73.1648 61.753L73.3484 61.5165L73.072 61.3018ZM75.0729 58.6881L74.7929 58.4781L74.7924 58.4787L75.0729 58.6881ZM75.2652 58.1351L75.5962 58.0212L75.5148 57.7846L75.2646 57.7851L75.2652 58.1351ZM72.2082 58.1381H71.8582V58.4881H72.2082V58.1381ZM72.2082 58.0981H72.5582V57.7481H72.2082V58.0981ZM72.0081 100.648L72.0072 100.998H72.0081V100.648ZM110.108 98.5879L110.458 98.5923V98.5879H110.108ZM107.94 96.7775L107.939 96.4275L107.939 96.4275L107.94 96.7775ZM35.1082 96.778V96.428H35.1001L35.0922 96.4283L35.1082 96.778ZM34.1782 97.558L34.5129 97.6601L34.5168 97.6475L34.5197 97.6346L34.1782 97.558ZM36.3481 100.558L36.349 100.208H36.3481V100.558ZM77.7311 85.8779L77.4221 85.7135L77.1484 86.2279H77.7311V85.8779ZM87.3418 84.8779L86.9921 84.8919L86.9921 84.8919L87.3418 84.8779ZM86.1138 83.9778L86.123 83.6278H86.1138V83.9778ZM86.1136 83.9778L86.1044 84.3278H86.1136V83.9778ZM85.8518 83.9679L85.8733 83.6186L85.8626 83.6179H85.8518V83.9679ZM78.354 83.9679V83.6179H78.0503L78.0075 83.9185L78.354 83.9679ZM70.0174 83.9679V83.6179H69.5561L69.6804 84.0622L70.0174 83.9679ZM75.083 83.9679L75.4201 84.0622L75.5443 83.6179H75.083V83.9679ZM70.0505 84.0771L70.3832 83.9683L70.3832 83.9683L70.0505 84.0771ZM70.5169 84.9275L70.2461 85.1496L70.2548 85.1595L70.5169 84.9275ZM74.8634 84.5109L75.165 84.689L75.1713 84.6774L74.8634 84.5109ZM74.9488 84.3383L75.268 84.4819L75.268 84.4819L74.9488 84.3383ZM73.817 80.8279V81.1779H75.2081L73.9826 80.5196L73.817 80.8279ZM72.6286 80.5079L72.6402 80.158L72.6365 80.158L72.6286 80.5079ZM72.2019 80.8279V80.4779H71.8519V80.8279H72.2019ZM72.2019 80.8579V81.2079H72.5519V80.8579H72.2019ZM71.2398 80.8573L71.0577 80.5584L69.9947 81.2058L71.2394 81.2073L71.2398 80.8573ZM71.3559 80.7904L71.2006 80.4765L71.1887 80.4829L71.3559 80.7904ZM66.7671 83.9679L67.1147 83.9269L67.0782 83.6179H66.7671V83.9679ZM67.1675 85.4904L67.4903 85.355L67.4903 85.355L67.1675 85.4904ZM59.2918 83.9679L59.2841 84.3179H59.2918V83.9679ZM57.6518 84.1279L57.7193 84.4714L57.727 84.4697L57.6518 84.1279ZM57.1034 84.4875L57.3914 84.6863L57.3914 84.6863L57.1034 84.4875ZM56.9619 85.1279L57.3083 85.0774L57.3069 85.069L56.9619 85.1279ZM57.2322 85.629L56.9999 85.8907L56.9999 85.8907L57.2322 85.629ZM57.7619 85.8379L57.8005 85.49L57.7857 85.4884L57.7709 85.488L57.7619 85.8379ZM59.4018 85.9279L59.3953 86.2779L59.4032 86.2779L59.4018 85.9279ZM67.3571 85.8966L67.3585 86.2466L67.9304 86.2443L67.6682 85.7361L67.3571 85.8966ZM29.0993 103.955C29.7813 104.051 30.4703 104.089 31.1587 104.068L31.1376 103.368C30.4889 103.388 29.8396 103.352 29.197 103.261L29.0993 103.955ZM27.9304 103.376C28.2398 103.712 28.6641 103.919 29.1193 103.957L29.177 103.259C28.8968 103.236 28.6357 103.108 28.4453 102.902L27.9304 103.376ZM27.4493 102.143C27.4493 102.6 27.621 103.04 27.9304 103.376L28.4453 102.902C28.255 102.695 28.1493 102.424 28.1493 102.143H27.4493ZM27.9304 100.91C27.621 101.246 27.4493 101.686 27.4493 102.143H28.1493C28.1493 101.862 28.255 101.591 28.4453 101.384L27.9304 100.91ZM29.1193 100.329C28.6641 100.367 28.2398 100.574 27.9304 100.91L28.4453 101.384C28.6357 101.178 28.8968 101.05 29.177 101.027L29.1193 100.329ZM29.6657 100.299C29.4965 100.298 29.2836 100.295 29.0818 100.334L29.2145 101.022C29.3361 100.998 29.4771 100.998 29.6619 100.999L29.6657 100.299ZM30.4319 100.011C30.3707 100.169 30.2901 100.224 30.1937 100.255C30.0657 100.298 29.9035 100.3 29.6657 100.299L29.6618 100.999C29.8709 101 30.1556 101.005 30.413 100.92C30.7018 100.825 30.945 100.623 31.0843 100.265L30.4319 100.011ZM30.5269 97.4458C30.7224 98.3022 30.6869 99.1951 30.4241 100.033L31.0921 100.243C31.3919 99.2862 31.4324 98.2673 31.2094 97.2901L30.5269 97.4458ZM29.8706 97.1652C30.1049 97.1688 30.2643 97.1755 30.3784 97.2191C30.4259 97.2372 30.4517 97.2574 30.4685 97.2778C30.4851 97.2979 30.5092 97.3381 30.5224 97.422L31.214 97.3139C31.185 97.1285 31.1183 96.9657 31.0088 96.8328C30.8995 96.7001 30.764 96.617 30.6282 96.5652C30.3758 96.4687 30.0813 96.4684 29.8814 96.4653L29.8706 97.1652ZM29.6163 97.1573C29.702 97.1627 29.7907 97.164 29.8706 97.1652L29.8814 96.4653C29.798 96.464 29.7263 96.4628 29.66 96.4587L29.6163 97.1573ZM27.3781 94.638C27.3781 95.344 27.5231 95.9596 27.9055 96.4135C28.2937 96.8744 28.8752 97.1083 29.615 97.1572L29.6612 96.4588C29.0411 96.4177 28.6675 96.2316 28.4408 95.9625C28.2082 95.6864 28.0781 95.2619 28.0781 94.638H27.3781ZM27.3781 52.388V94.638H28.0781V52.388H27.3781ZM33.3082 46.878C31.5523 46.878 30.0659 47.3851 29.0145 48.3459C27.9595 49.31 27.3781 50.6991 27.3781 52.388H28.0781C28.0781 50.8669 28.5968 49.6759 29.4868 48.8626C30.3805 48.0459 31.684 47.578 33.3082 47.578V46.878ZM66.8629 46.878H33.3082V47.578H66.8629V46.878ZM67.1963 47.3346C67.3888 46.7327 67.6525 46.3389 68.002 46.1014C68.3508 45.8643 68.8364 45.7483 69.544 45.8069L69.6018 45.1093C68.796 45.0425 68.1331 45.166 67.6085 45.5224C67.0846 45.8785 66.75 46.4323 66.5295 47.1214L67.1963 47.3346ZM69.5111 45.8026C70.3175 45.9471 71.1448 45.9205 71.928 45.8966L71.9066 45.1969C71.1099 45.2213 70.3568 45.243 69.6346 45.1136L69.5111 45.8026ZM71.928 45.8966C72.2346 45.8872 72.5349 45.8781 72.8328 45.8781V45.1781C72.5225 45.1781 72.2114 45.1876 71.9066 45.1969L71.928 45.8966ZM72.8328 45.8781H75.3708V45.1781H72.8328V45.8781ZM75.0788 44.9668C75.0675 45.1538 75.0495 45.3217 75.0252 45.4725L75.7163 45.5837C75.7448 45.4064 75.765 45.2152 75.7775 45.0092L75.0788 44.9668ZM80.6147 39.958C79.0527 39.9736 77.7146 40.4118 76.7381 41.2715C75.7583 42.1342 75.1787 43.3895 75.0789 44.9659L75.7775 45.0101C75.8676 43.5865 76.383 42.5168 77.2007 41.7969C78.0217 41.0741 79.1837 40.6723 80.6217 40.6579L80.6147 39.958ZM103.73 39.958C96.0222 39.9113 88.3175 39.9113 80.616 39.958L80.6203 40.6579C88.3189 40.6113 96.0208 40.6113 103.726 40.6579L103.73 39.958ZM109.728 45.7181C109.62 43.8323 109.117 42.3745 108.106 41.392C107.093 40.4076 105.629 39.9579 103.728 39.9579V40.6579C105.527 40.6579 106.784 41.0834 107.618 41.894C108.454 42.7064 108.926 43.9637 109.029 45.7579L109.728 45.7181ZM110.868 46.8586C110.37 46.8298 110.125 46.7335 109.987 46.5985C109.852 46.4656 109.751 46.2253 109.728 45.7215L109.029 45.7545C109.055 46.3107 109.169 46.7754 109.496 47.0975C109.822 47.4175 110.286 47.5262 110.828 47.5574L110.868 46.8586ZM116.648 53.038C116.648 51.14 116.188 49.6361 115.202 48.5792C114.215 47.5216 112.753 46.9667 110.868 46.8585L110.828 47.5574C112.603 47.6592 113.866 48.1743 114.69 49.0567C115.514 49.9399 115.948 51.246 115.948 53.038H116.648ZM116.648 94.138V53.038H115.948V94.138H116.648ZM114.03 97.168C115.014 97.1627 115.709 96.8838 116.136 96.2993C116.543 95.7413 116.648 94.9757 116.648 94.138H115.948C115.948 94.9502 115.838 95.5196 115.57 95.8867C115.322 96.2272 114.882 96.4634 114.026 96.468L114.03 97.168ZM113.423 98.265C113.402 98.0948 113.383 97.9364 113.381 97.7867C113.378 97.6364 113.393 97.5201 113.425 97.4335C113.454 97.3553 113.496 97.3002 113.567 97.2585C113.645 97.2127 113.784 97.168 114.028 97.168V96.468C113.706 96.468 113.432 96.5261 113.213 96.6551C112.986 96.7883 112.846 96.9802 112.768 97.1908C112.694 97.393 112.677 97.6072 112.681 97.7987C112.684 97.9907 112.708 98.1853 112.728 98.3489L113.423 98.265ZM113.446 98.4726C113.439 98.4041 113.431 98.3333 113.423 98.265L112.728 98.3489C112.736 98.4186 112.744 98.4826 112.75 98.5433L113.446 98.4726ZM113.441 99.0405C113.452 98.8645 113.465 98.6581 113.446 98.4726L112.75 98.5433C112.762 98.6609 112.754 98.8058 112.742 98.9981L113.441 99.0405ZM114.152 100.262C113.918 100.225 113.771 100.161 113.677 100.094C113.587 100.03 113.531 99.9532 113.494 99.8624C113.41 99.6563 113.42 99.388 113.441 99.0405L112.742 98.9981C112.724 99.3051 112.69 99.7453 112.846 100.127C112.929 100.33 113.064 100.517 113.271 100.664C113.475 100.81 113.732 100.905 114.044 100.954L114.152 100.262ZM115.197 100.372C114.801 100.256 114.412 100.258 114.098 100.258V100.958C114.425 100.958 114.715 100.96 114.999 101.044L115.197 100.372ZM116.145 100.898C115.884 100.613 115.535 100.424 115.154 100.363L115.042 101.054C115.268 101.09 115.474 101.201 115.628 101.37L116.145 100.898ZM116.587 101.934C116.561 101.549 116.405 101.184 116.145 100.898L115.628 101.37C115.781 101.539 115.873 101.754 115.889 101.982L116.587 101.934ZM116.314 103.102C116.542 102.75 116.638 102.329 116.585 101.914L115.891 102.002C115.923 102.254 115.865 102.508 115.727 102.721L116.314 103.102ZM115.339 103.833C115.74 103.713 116.086 103.454 116.314 103.102L115.727 102.721C115.589 102.933 115.38 103.09 115.137 103.163L115.339 103.833ZM113.082 104.046C113.841 104.125 114.608 104.053 115.339 103.833L115.137 103.163C114.495 103.356 113.821 103.419 113.154 103.35L113.082 104.046ZM31.1482 104.068L113.118 104.048L113.118 103.348L31.148 103.368L31.1482 104.068ZM78.1844 48.0087C78.1664 48.077 78.1483 48.1449 78.1301 48.2126L78.8061 48.3943C78.8246 48.3256 78.843 48.2567 78.8612 48.1874L78.1844 48.0087ZM78.1759 46.4148C78.3596 46.6938 78.4051 47.1732 78.1844 48.0087L78.8612 48.1874C79.0918 47.3143 79.1185 46.5734 78.7604 46.0298L78.1759 46.4148ZM81.4681 43.038C80.3705 43.038 79.5066 43.2231 78.9251 43.7627C78.3369 44.3086 78.1189 45.1395 78.1181 46.222L78.8181 46.2225C78.8189 45.2094 79.0269 44.6232 79.4013 44.2758C79.7824 43.9222 80.4178 43.738 81.4681 43.738V43.038ZM103.398 43.038H81.4681V43.738H103.398V43.038ZM106.748 46.388C106.748 45.2591 106.567 44.3858 105.999 43.8096C105.429 43.2324 104.554 43.038 103.398 43.038V43.738C104.512 43.738 105.137 43.9336 105.5 44.3013C105.864 44.6701 106.048 45.2969 106.048 46.388H106.748ZM106.748 57.388V46.388H106.048V57.388H106.748ZM106.75 59.633C106.749 58.8845 106.748 58.1362 106.748 57.388H106.048C106.048 58.1366 106.049 58.8853 106.05 59.6337L106.75 59.633ZM106.708 68.6136C106.756 65.6186 106.753 62.624 106.75 59.633L106.05 59.6337C106.053 62.6258 106.056 65.6143 106.008 68.6024L106.708 68.6136ZM103.688 71.648C104.707 71.648 105.497 71.4846 106.018 70.961C106.537 70.4386 106.703 69.6422 106.708 68.6097L106.008 68.6063C106.003 69.6038 105.834 70.1524 105.521 70.4675C105.209 70.7815 104.669 70.948 103.688 70.948V71.648ZM90.7597 71.648H103.688V70.948H90.7597V71.648ZM90.4171 68.8013C90.4142 69.632 90.4114 70.463 90.4097 71.2973L91.1097 71.2987C91.1113 70.465 91.1142 69.6345 91.1171 68.8037L90.4171 68.8013ZM90.4171 68.8017V68.8025H91.1171V68.8017H90.4171ZM90.4082 60.9615C90.4348 63.6385 90.426 66.2182 90.4171 68.8005L91.1171 68.8029C91.126 66.2213 91.1349 63.637 91.1082 60.9546L90.4082 60.9615ZM84.9781 55.2381C86.9216 55.2381 88.2461 55.7352 89.0964 56.6534C89.9523 57.5776 90.3886 58.9931 90.4082 60.9615L91.1082 60.9546C91.0877 58.9031 90.634 57.2835 89.61 56.1777C88.5802 55.0659 87.0347 54.5381 84.9781 54.5381V55.2381ZM80.8051 55.1887C82.1948 55.2062 83.5847 55.2236 84.9745 55.238L84.9818 54.5381C83.5929 54.5237 82.2037 54.5062 80.8139 54.4888L80.8051 55.1887ZM80.8062 55.1887L80.8066 55.1887L80.8124 54.4888L80.812 54.4888L80.8062 55.1887ZM80.7995 55.1887L80.8048 55.1887L80.8135 54.4888L80.8081 54.4887L80.7995 55.1887ZM79.4806 55.1722C79.9202 55.1776 80.3598 55.1831 80.7994 55.1887L80.8082 54.4887C80.3686 54.4832 79.9289 54.4777 79.4892 54.4722L79.4806 55.1722ZM78.4617 55.02C78.8105 55.0264 79.1122 55.0542 79.3596 55.149L79.6101 54.4954C79.2418 54.3542 78.8359 54.3267 78.4745 54.3201L78.4617 55.02ZM78.1181 48.3034V54.6701H78.8181V48.3034H78.1181ZM79.1172 57.9104C78.8084 58.3095 78.4997 58.7089 78.1911 59.1086L78.7452 59.5364C79.0536 59.1369 79.3622 58.7376 79.6708 58.3388L79.1172 57.9104ZM79.395 58.4746C79.861 58.4732 80.327 58.4717 80.7929 58.4703L80.7908 57.7703C80.3248 57.7717 79.8589 57.7732 79.3929 57.7746L79.395 58.4746ZM80.7918 58.4703H80.792V57.7703H80.7918V58.4703ZM80.7931 58.4703C82.2218 58.4659 83.6504 58.4614 85.079 58.4581L85.0774 57.7581C83.6485 57.7614 82.2196 57.7659 80.7909 57.7703L80.7931 58.4703ZM85.0763 58.4581C86.0025 58.463 86.5169 58.6104 86.8134 58.8893C87.1033 59.162 87.2682 59.6413 87.2682 60.5481H87.9682C87.9682 59.5949 87.8031 58.8592 87.293 58.3794C86.7894 57.9057 86.0339 57.7632 85.08 57.7581L85.0763 58.4581ZM87.2682 60.5531C87.2793 61.3257 87.2945 62.0981 87.3096 62.8694L88.0095 62.8556C87.9943 62.084 87.9792 61.3135 87.9681 60.5431L87.2682 60.5531ZM87.3097 62.8707L87.3097 62.8722L88.0095 62.8557L88.0095 62.8542L87.3097 62.8707ZM87.3096 62.8639V62.864H88.0096V62.8639H87.3096ZM87.3097 62.8709C87.365 65.6861 87.4199 68.4861 87.2777 71.2802L87.9768 71.3158C88.1205 68.4929 88.0648 65.6682 88.0095 62.8571L87.3097 62.8709ZM87.6272 70.948H81.0881V71.648H87.6272V70.948ZM81.0881 70.948C80.2187 70.948 79.6755 70.7604 79.3431 70.428C79.0107 70.0956 78.8181 69.5473 78.8181 68.658H78.1181C78.1181 69.6287 78.3256 70.4004 78.8481 70.923C79.3708 71.4456 80.1376 71.648 81.0881 71.648V70.948ZM78.8181 68.658V59.3225H78.1181V68.658H78.8181ZM74.2663 50.3461C74.2506 50.3974 74.2344 50.4501 74.2177 50.5045L74.8869 50.7099C74.9036 50.6556 74.9198 50.6027 74.9356 50.5511L74.2663 50.3461ZM74.2158 50.511L74.2158 50.5111L74.8888 50.7034L74.8888 50.7033L74.2158 50.511ZM74.2177 50.5045C74.0818 50.9473 73.9144 51.4922 73.735 52.1568L74.4108 52.3393C74.5868 51.6873 74.751 51.1524 74.8869 50.71L74.2177 50.5045ZM73.735 52.1568C73.5439 52.8645 73.3273 53.5731 73.1087 54.2883L73.7781 54.4929C73.9961 53.7797 74.2162 53.06 74.4108 52.3393L73.735 52.1568ZM73.1087 54.2883C73.0708 54.4122 73.0328 54.5363 72.995 54.6605L73.6646 54.8645C73.7023 54.7407 73.7402 54.6169 73.7781 54.4929L73.1087 54.2883ZM73.3317 54.4125C71.6202 54.4031 69.9081 54.4021 68.1959 54.4151L68.2012 55.115C69.9097 55.1021 71.6186 55.1031 73.3279 55.1125L73.3317 54.4125ZM68.5379 54.8509C68.916 53.356 69.2893 51.8606 69.6556 50.3583L68.9756 50.1924C68.6098 51.6923 68.237 53.1858 67.8592 54.6792L68.5379 54.8509ZM69.3168 50.6253C70.6554 50.6209 71.9931 50.6152 73.33 50.608L73.3262 49.908C71.9899 49.9152 70.6526 49.9209 69.3144 49.9253L69.3168 50.6253ZM73.3302 50.608C73.8614 50.6049 74.2182 50.6635 74.4611 50.7694L74.7409 50.1278C74.3662 49.9644 73.8949 49.9047 73.3261 49.908L73.3302 50.608ZM47.2472 50.6235C53.547 50.6348 59.8469 50.646 66.1315 50.6337L66.1302 49.9337C59.8471 49.946 53.5485 49.9348 47.2484 49.9235L47.2472 50.6235ZM47.2473 50.6235H47.2478V49.9235H47.2473V50.6235ZM34.1882 50.608C38.538 50.608 42.8924 50.6157 47.2467 50.6235L47.2479 49.9235C42.8937 49.9157 38.5387 49.908 34.1882 49.908V50.608ZM31.2481 53.598C31.2481 52.2474 31.4178 51.5516 31.7988 51.1648C32.1779 50.7799 32.8589 50.608 34.1882 50.608V49.908C32.8674 49.908 31.9034 50.061 31.3 50.6736C30.6985 51.2843 30.5481 52.2585 30.5481 53.598H31.2481ZM31.2481 91.5979V53.598H30.5481V91.5979H31.2481ZM33.056 93.3779C32.2364 93.3829 31.8274 93.266 31.6026 93.0487C31.3805 92.8341 31.2481 92.4331 31.2481 91.5979H30.5481C30.5481 92.4527 30.6708 93.1217 31.1162 93.5521C31.5589 93.9799 32.2299 94.083 33.0603 94.0779L33.056 93.3779ZM59.5766 93.3537C50.7249 93.3386 41.8789 93.3234 33.056 93.3779L33.0603 94.0779C41.88 94.0234 50.7232 94.0386 59.5754 94.0537L59.5766 93.3537ZM59.5778 93.3537H59.576V94.0537H59.5778V93.3537ZM71.9781 93.3679C67.8445 93.3679 63.7109 93.3608 59.5784 93.3537L59.5772 94.0537C63.7096 94.0608 67.8438 94.0679 71.9781 94.0679V93.3679ZM111.118 93.3679H71.9781V94.0679H111.118V93.3679ZM111.118 93.3679H111.118V94.0679H111.118V93.3679ZM112.775 93.1974C112.725 93.2475 112.62 93.3043 112.336 93.336C112.053 93.3674 111.669 93.3679 111.118 93.3679V94.0679C111.652 94.0679 112.083 94.0684 112.413 94.0317C112.741 93.9953 113.045 93.9159 113.269 93.6935L112.775 93.1974ZM112.948 91.5081C112.948 92.0716 112.948 92.464 112.916 92.7513C112.884 93.0413 112.826 93.1469 112.775 93.1974L113.269 93.6935C113.494 93.469 113.575 93.1609 113.611 92.8285C113.649 92.4933 113.648 92.0545 113.648 91.5081H112.948ZM112.948 91.508V91.5081H113.648V91.508H112.948ZM112.948 53.698V91.508H113.648V53.698H112.948ZM112.751 51.8418C112.917 52.4389 112.984 53.0593 112.949 53.6781L113.648 53.7179C113.687 53.0224 113.612 52.3252 113.425 51.6541L112.751 51.8418ZM111.853 50.8303C112.273 51.0522 112.596 51.422 112.759 51.8683L113.417 51.6276C113.194 51.0187 112.753 50.514 112.18 50.2113L111.853 50.8303ZM110.484 50.6672C110.945 50.5503 111.432 50.6084 111.853 50.8303L112.18 50.2113C111.606 49.9085 110.941 49.8292 110.312 49.9887L110.484 50.6672ZM109.82 51.8077C109.788 51.4539 109.772 51.1962 109.844 51.0074C109.875 50.9278 109.921 50.8644 109.998 50.8123C110.079 50.757 110.214 50.7018 110.439 50.6756L110.358 49.9803C110.056 50.0154 109.804 50.0971 109.604 50.2335C109.399 50.373 109.268 50.5559 109.191 50.7563C109.048 51.1275 109.095 51.5643 109.123 51.871L109.82 51.8077ZM109.848 52.268C109.848 52.1149 109.833 51.9529 109.82 51.8077L109.123 51.871C109.137 52.0236 109.148 52.1525 109.148 52.268H109.848ZM109.848 68.6179V52.268H109.148V68.6179H109.848ZM103.739 74.738C105.743 74.7328 107.29 74.259 108.332 73.2167C109.374 72.1742 109.848 70.6269 109.848 68.6179H109.148C109.148 70.529 108.697 71.8617 107.837 72.7217C106.977 73.5819 105.644 74.0331 103.737 74.038L103.739 74.738ZM90.6257 74.738H103.738V74.038H90.6257V74.738ZM84.7625 79.038C86.526 79.0163 87.9493 78.6627 89.0033 77.8991C90.0666 77.1287 90.7091 75.9738 90.9707 74.4471L90.2807 74.3289C90.0427 75.7183 89.4759 76.6922 88.5926 77.3322C87.7 77.9789 86.4393 78.3173 84.7539 78.3381L84.7625 79.038ZM76.2457 79.0113L84.7571 79.038L84.7593 78.338L76.2479 78.3113L76.2457 79.0113ZM76.0247 78.9318C76.1888 79.0665 76.3459 79.2112 76.4949 79.3654L76.9982 78.8789C76.8305 78.7053 76.6537 78.5425 76.4689 78.3908L76.0247 78.9318ZM76.4949 79.3654C76.9513 79.8375 77.3161 80.3817 77.5782 80.9703L78.2177 80.6855C77.9225 80.0229 77.512 79.4103 76.9982 78.8789L76.4949 79.3654ZM77.898 81.1779H86.0719V80.4779H77.898V81.1779ZM86.0719 81.1779C87.3902 81.1779 88.4104 81.5357 89.106 82.146C89.7976 82.7528 90.2047 83.6409 90.242 84.7794L90.9416 84.7564C90.899 83.4549 90.4261 82.373 89.5677 81.6198C88.7132 80.8701 87.5135 80.4779 86.0719 80.4779V81.1779ZM90.242 84.7794C90.2793 85.9168 89.924 86.846 89.2677 87.5046C88.6091 88.1654 87.6149 88.5859 86.3178 88.6381L86.346 89.3376C87.7788 89.2798 88.9546 88.8104 89.7635 87.9987C90.5747 87.1847 90.9843 86.059 90.9416 84.7564L90.242 84.7794ZM86.3178 88.6381C80.2387 88.8832 74.1539 88.8427 68.0581 88.8022L68.0534 89.5022C74.1465 89.5427 80.2478 89.5834 86.346 89.3376L86.3178 88.6381ZM68.0557 88.8022H68.0554V89.5022H68.0557V88.8022ZM68.0554 88.8022H68.0551V89.5022H68.0554V88.8022ZM68.0551 88.8022H68.0548V89.5022H68.0551V88.8022ZM68.0548 88.8022H68.0545V89.5022H68.0548V88.8022ZM68.0545 88.8022H68.0541V89.5022H68.0545V88.8022ZM68.0541 88.8022H68.0538V89.5022H68.0541V88.8022ZM68.0538 88.8022H68.0535V89.5022H68.0538V88.8022ZM68.0535 88.8022H68.0532V89.5022H68.0535V88.8022ZM68.0555 88.8022C64.9623 88.7816 61.8663 88.761 58.77 88.7779L58.7738 89.4779C61.8652 89.461 64.957 89.4816 68.0508 89.5022L68.0555 88.8022ZM58.7824 88.778C58.2521 88.762 57.7243 88.6977 57.2057 88.5858L57.058 89.27C57.6183 89.391 58.1884 89.4604 58.7613 89.4777L58.7824 88.778ZM57.184 88.5818C56.2523 88.4414 55.4109 87.946 54.8361 87.1993L54.2814 87.6264C54.9665 88.5162 55.9692 89.1066 57.0797 89.274L57.184 88.5818ZM54.8361 87.1993C54.2612 86.4527 53.9974 85.5127 54.0998 84.5759L53.4039 84.4999C53.2819 85.6162 53.5963 86.7365 54.2814 87.6264L54.8361 87.1993ZM54.1015 84.5533C54.1417 83.641 54.5368 82.7805 55.2026 82.1554L54.7235 81.6451C53.9245 82.3951 53.4504 83.4277 53.4022 84.5225L54.1015 84.5533ZM55.2026 82.1554C55.8684 81.5304 56.7521 81.1904 57.6651 81.2078L57.6785 80.508C56.5829 80.487 55.5224 80.8951 54.7235 81.6451L55.2026 82.1554ZM57.6754 81.2079C60.8549 81.1751 64.0305 81.1853 67.2074 81.1963L67.2098 80.4963C64.0336 80.4854 60.8533 80.4751 57.6682 80.5079L57.6754 81.2079ZM67.5298 80.9852C67.8 80.3603 68.184 79.7906 68.6627 79.3054L68.1644 78.8138C67.6248 79.3608 67.1919 80.0029 66.8873 80.7074L67.5298 80.9852ZM68.6627 79.3054C68.7974 79.1689 68.9388 79.0398 69.0864 78.9185L68.642 78.3776C68.4756 78.5144 68.3162 78.6599 68.1644 78.8138L68.6627 79.3054ZM59.1682 78.9981H68.8642V78.2981H59.1682V78.9981ZM53.3782 73.2201C53.3885 74.9994 53.8982 76.455 54.9023 77.466C55.9072 78.4776 57.3615 78.9981 59.1682 78.9981V78.2981C57.4948 78.2981 56.2391 77.8185 55.399 76.9727C54.5581 76.1261 54.0878 74.8667 54.0781 73.216L53.3782 73.2201ZM53.3781 60.508V73.2181H54.0781V60.508H53.3781ZM58.8811 54.6585C57.0794 54.7462 55.6867 55.2737 54.7482 56.2821C53.811 57.2891 53.3781 58.7205 53.3781 60.508H54.0781C54.0781 58.8256 54.4853 57.592 55.2606 56.759C56.0346 55.9274 57.2269 55.4399 58.9152 55.3576L58.8811 54.6585ZM64.9983 54.4571C62.9595 54.496 60.9203 54.5599 58.8812 54.6585L58.915 55.3576C60.9462 55.2595 62.9785 55.1958 65.0116 55.1569L64.9983 54.4571ZM65.3442 54.8929C65.726 53.3859 66.1065 51.8776 66.4711 50.3658L65.7906 50.2017C65.4271 51.7092 65.0474 53.214 64.6657 54.721L65.3442 54.8929ZM59.5082 58.4481H64.1747V57.7481H59.5082V58.4481ZM57.1682 60.7715C57.1781 59.7504 57.3368 59.2123 57.6415 58.9084C57.9457 58.6052 58.4832 58.4481 59.5082 58.4481V57.7481C58.4632 57.7481 57.6657 57.8959 57.1473 58.4127C56.6296 58.9289 56.4783 59.7257 56.4682 60.7647L57.1682 60.7715ZM57.1682 72.9681V60.7681H56.4682V72.9681H57.1682ZM59.4099 75.1981C58.4353 75.1932 57.9139 75.0311 57.6185 74.7347C57.3235 74.4387 57.1682 73.9229 57.1682 72.9681H56.4682C56.4682 73.9533 56.6179 74.7224 57.1228 75.2289C57.6274 75.7351 58.401 75.893 59.4064 75.8981L59.4099 75.1981ZM84.9781 75.1981H59.4081V75.8981H84.9781V75.1981ZM86.9435 74.2723C86.8131 74.6447 86.631 74.8535 86.3622 74.9852C86.0701 75.1283 85.6402 75.1981 84.9781 75.1981V75.8981C85.6662 75.8981 86.2294 75.8297 86.6702 75.6138C87.1344 75.3863 87.425 75.015 87.6041 74.5036L86.9435 74.2723ZM81.4382 74.738H87.2738V74.038H81.4382V74.738ZM75.0882 68.318C75.0882 70.4561 75.5592 72.0828 76.6329 73.1701C77.7075 74.2584 79.318 74.738 81.4382 74.738V74.038C79.4084 74.038 78.0189 73.5775 77.131 72.6783C76.2421 71.7781 75.7882 70.3698 75.7882 68.318H75.0882ZM75.0778 63.2768C75.0831 64.957 75.0882 66.637 75.0882 68.318H75.7882C75.7882 66.6358 75.7831 64.9547 75.7778 63.2746L75.0778 63.2768ZM75.15 63.0628C74.6554 63.7084 74.161 64.3548 73.6669 65.0021L74.2233 65.4269C74.7172 64.7799 75.2113 64.1338 75.7057 63.4886L75.15 63.0628ZM73.5953 65.2278C73.6717 67.2379 73.6197 69.2516 73.4396 71.2567L74.1367 71.3194C74.3196 69.2846 74.3723 67.2411 74.2948 65.2012L73.5953 65.2278ZM73.4393 71.2593C73.416 71.542 73.2873 71.8056 73.0787 71.9977L73.5529 72.5126C73.8908 72.2014 74.0992 71.7746 74.137 71.3168L73.4393 71.2593ZM73.0787 71.9977C72.8701 72.1899 72.5968 72.2965 72.3132 72.2965V72.9965C72.7725 72.9965 73.215 72.8238 73.5529 72.5126L73.0787 71.9977ZM72.3132 72.2965C72.1961 72.2965 72.0808 72.2784 71.9711 72.2435L71.7591 72.9106C71.9368 72.9671 72.1236 72.9965 72.3132 72.9965V72.2965ZM71.9379 72.2347C71.8436 72.2147 71.7622 72.1865 71.6917 72.1526L71.3884 72.7835C71.5127 72.8433 71.6475 72.8886 71.7923 72.9194L71.9379 72.2347ZM71.6828 72.1485C71.2944 71.9751 71.0781 71.5393 71.0781 70.8279H70.3781C70.3781 71.6406 70.6287 72.4444 71.3973 72.7877L71.6828 72.1485ZM71.0781 70.8279V70.6081H70.3781V70.8279H71.0781ZM71.0781 70.6081V69.0262H70.3781V70.6081H71.0781ZM70.5866 68.7061C70.3627 68.8051 70.0926 68.8331 69.722 68.699L69.4838 69.3572C70.0082 69.547 70.4661 69.5247 70.8697 69.3462L70.5866 68.7061ZM69.722 68.699C69.3099 68.5498 69.1405 68.3371 69.0539 68.1015C68.9549 67.8322 68.9516 67.5052 68.9527 67.0886L68.2527 67.0868C68.2517 67.472 68.2463 67.9335 68.3969 68.343C68.5598 68.7863 68.8916 69.1429 69.4838 69.3572L69.722 68.699ZM68.9527 67.0883L68.9529 66.9787L68.2529 66.9775L68.2527 67.0871L68.9527 67.0883ZM68.9519 66.9525C68.9221 66.5469 68.8775 66.1424 68.8336 65.7448L68.1379 65.8215C68.1819 66.2213 68.2251 66.613 68.2538 67.0037L68.9519 66.9525ZM68.8358 65.7832V65.7831H68.1358V65.7832H68.8358ZM68.8358 65.7831V65.7831H68.1358V65.7831H68.8358ZM68.8358 65.7831V65.7831H68.1358V65.7831H68.8358ZM68.8358 65.7831V65.783H68.1358V65.7831H68.8358ZM68.8358 65.783V65.783H68.1358V65.783H68.8358ZM68.8358 65.783V65.783H68.1358V65.783H68.8358ZM68.8336 65.7446C68.7569 65.0487 68.6828 64.3738 68.6828 63.6981H67.9828C67.9828 64.4186 68.0618 65.1319 68.1379 65.8213L68.8336 65.7446ZM68.6828 63.6981C68.6828 63.1119 68.5674 62.5921 68.2135 62.2214C67.8578 61.8487 67.3306 61.6988 66.6786 61.6881L66.6671 62.388C67.2351 62.3974 67.5379 62.5274 67.7072 62.7047C67.8783 62.884 67.9828 63.1843 67.9828 63.6981H68.6828ZM66.6787 61.6881C65.9309 61.6757 65.376 61.6382 64.9688 61.5506C64.5618 61.4631 64.3552 61.3365 64.2426 61.1885C64.1294 61.04 64.0608 60.8041 64.082 60.3822C64.1031 59.9606 64.2107 59.4075 64.3926 58.6722L63.7131 58.504C63.5301 59.2437 63.4076 59.8531 63.3828 60.3471C63.3581 60.8408 63.4276 61.2737 63.6857 61.6126C63.9442 61.9522 64.3421 62.1318 64.8216 62.235C65.3009 62.338 65.9149 62.3755 66.667 62.388L66.6787 61.6881ZM64.3926 58.6723C64.433 58.5091 64.4736 58.3459 64.5143 58.1828L63.8351 58.0134C63.7944 58.1768 63.7537 58.3403 63.7132 58.5039L64.3926 58.6723ZM68.6811 58.6986C68.2733 58.6773 68.0513 58.5941 67.9346 58.5019C67.8368 58.4245 67.7738 58.3099 67.7706 58.0929L67.0707 58.1033C67.0762 58.474 67.1977 58.8116 67.5004 59.051C67.7843 59.2754 68.179 59.3733 68.6446 59.3976L68.6811 58.6986ZM71.635 61.3756C71.5836 60.8751 71.5254 60.458 71.4274 60.1193C71.3278 59.7751 71.1803 59.4863 70.9341 59.2646C70.69 59.0447 70.3822 58.9212 70.0198 58.8432C69.6602 58.7658 69.2176 58.7274 68.6817 58.6986L68.644 59.3976C69.1772 59.4263 69.5716 59.4627 69.8725 59.5275C70.1705 59.5916 70.3467 59.6776 70.4657 59.7847C70.5827 59.8901 70.6774 60.0458 70.7549 60.3138C70.834 60.5872 70.8876 60.9499 70.9386 61.447L71.635 61.3756ZM72.1847 60.7482C71.7291 60.7657 71.3514 60.8998 71.0616 61.1434L71.512 61.6792C71.6614 61.5536 71.8812 61.4604 72.2116 61.4477L72.1847 60.7482ZM72.9328 60.8497C72.6882 60.761 72.4271 60.7267 72.1678 60.7492L72.2284 61.4466C72.3863 61.4329 72.5453 61.4538 72.6943 61.5078L72.9328 60.8497ZM73.2265 60.9874C73.1332 60.9329 73.035 60.8867 72.9328 60.8497L72.6943 61.5078C72.7565 61.5303 72.8163 61.5584 72.8731 61.5916L73.2265 60.9874ZM73.2413 60.9955L73.219 60.9832L72.8805 61.5958L72.9027 61.6081L73.2413 60.9955ZM74.7924 58.4787C74.142 59.3499 73.4733 60.2145 72.7956 61.0871L73.3484 61.5165C74.0262 60.6437 74.6986 59.7745 75.3534 58.8974L74.7924 58.4787ZM74.9342 58.2489C74.9252 58.2227 74.936 58.2173 74.9238 58.2547C74.9103 58.2961 74.8751 58.3685 74.7929 58.4781L75.3529 58.8981C75.555 58.6286 75.7 58.3232 75.5962 58.0212L74.9342 58.2489ZM72.2082 58.4881C73.2274 58.4881 74.2467 58.4869 75.2658 58.4851L75.2646 57.7851C74.2457 57.7869 73.2269 57.7881 72.2082 57.7881V58.4881ZM71.8582 58.0981V58.1381H72.5582V58.0981H71.8582ZM67.4206 58.4481H72.2082V57.7481H67.4206V58.4481ZM108.008 100.298H72.0081V100.998H108.008V100.298ZM109.758 98.5835C109.748 99.3631 109.615 99.7507 109.396 99.9629C109.175 100.177 108.781 100.298 108.008 100.298V100.998C108.806 100.998 109.451 100.884 109.883 100.466C110.317 100.045 110.448 99.4027 110.458 98.5923L109.758 98.5835ZM107.942 97.1275C108.246 97.1264 108.511 97.1258 108.748 97.1508C108.983 97.1757 109.162 97.2238 109.299 97.3024C109.533 97.4372 109.758 97.7335 109.758 98.5879H110.458C110.458 97.6237 110.198 97.0126 109.648 96.6958C109.392 96.5485 109.104 96.4847 108.821 96.4547C108.539 96.4249 108.234 96.4264 107.939 96.4275L107.942 97.1275ZM107.758 97.128C107.82 97.128 107.882 97.1277 107.942 97.1275L107.939 96.4275C107.879 96.4278 107.819 96.428 107.758 96.428V97.128ZM36.4282 97.128H107.758V96.428H36.4282V97.128ZM35.1082 97.128H36.4282V96.428H35.1082V97.128ZM34.7362 97.2789C34.8455 97.1873 34.9818 97.1341 35.1242 97.1276L35.0922 96.4283C34.7963 96.4419 34.5132 96.5523 34.2864 96.7426L34.7362 97.2789ZM34.5197 97.6346C34.5509 97.4955 34.627 97.3706 34.7362 97.2789L34.2864 96.7426C34.0595 96.9329 33.9015 97.1925 33.8367 97.4814L34.5197 97.6346ZM36.3481 100.208C35.3331 100.208 34.7875 99.9636 34.532 99.6049C34.2733 99.2419 34.2168 98.6309 34.5129 97.6601L33.8434 97.4559C33.5295 98.4851 33.508 99.3741 33.9619 100.011C34.4188 100.652 35.2632 100.908 36.3481 100.908V100.208ZM72.009 100.298L36.349 100.208L36.3473 100.908L72.0072 100.998L72.009 100.298ZM85.8018 85.5279H77.7311V86.2279H85.8018V85.5279ZM86.9921 84.8919C87.0001 85.0916 86.9615 85.2052 86.9203 85.2718C86.8801 85.3367 86.818 85.3885 86.7189 85.4296C86.4952 85.5224 86.1778 85.5279 85.8018 85.5279V86.2279C86.1359 86.2279 86.6085 86.2333 86.9872 86.0761C87.1894 85.9923 87.3816 85.8565 87.5155 85.6402C87.6484 85.4255 87.7035 85.1642 87.6915 84.8639L86.9921 84.8919ZM86.1045 84.3277C86.4201 84.336 86.6319 84.3482 86.778 84.4211C86.8376 84.4508 86.8807 84.4892 86.9139 84.5471C86.9496 84.6092 86.985 84.714 86.9921 84.8919L87.6915 84.8639C87.6813 84.6074 87.6276 84.3845 87.5212 84.1989C87.4123 84.009 87.2604 83.8795 87.0905 83.7947C86.7775 83.6386 86.3926 83.635 86.123 83.6279L86.1045 84.3277ZM86.1136 84.3278H86.1138V83.6278H86.1136V84.3278ZM85.8303 84.3172C85.9229 84.3229 86.0171 84.3254 86.1044 84.3277L86.1229 83.6279C86.0332 83.6256 85.9515 83.6234 85.8733 83.6186L85.8303 84.3172ZM78.354 84.3179H85.8518V83.6179H78.354V84.3179ZM78.0401 86.0423C78.3746 85.4135 78.5992 84.7286 78.7005 84.0172L78.0075 83.9185C77.9177 84.549 77.7187 85.1561 77.4221 85.7135L78.0401 86.0423ZM70.0174 84.3179H75.083V83.6179H70.0174V84.3179ZM70.3832 83.9683C70.3729 83.9369 70.3634 83.9053 70.3545 83.8736L69.6804 84.0622C69.692 84.1037 69.7045 84.1449 69.7179 84.1859L70.3832 83.9683ZM70.7875 84.7055C70.6083 84.4871 70.4711 84.2371 70.3832 83.9683L69.7179 84.1859C69.8328 84.5373 70.0121 84.864 70.2463 85.1495L70.7875 84.7055ZM70.8769 84.7996C70.8431 84.7658 70.8104 84.7311 70.7789 84.6955L70.2548 85.1595C70.2957 85.2057 70.3381 85.2507 70.3819 85.2945L70.8769 84.7996ZM72.5386 85.4879C71.9154 85.4879 71.3176 85.2403 70.8769 84.7996L70.3819 85.2945C70.9539 85.8665 71.7297 86.1879 72.5386 86.1879V85.4879ZM74.2003 84.7996C73.7596 85.2403 73.1619 85.4879 72.5386 85.4879V86.1879C73.3475 86.1879 74.1233 85.8665 74.6953 85.2945L74.2003 84.7996ZM74.5621 84.3329C74.4624 84.5017 74.3413 84.6586 74.2003 84.7996L74.6953 85.2945C74.8782 85.1117 75.0355 84.9079 75.1648 84.6889L74.5621 84.3329ZM74.6296 84.1947C74.6067 84.2456 74.582 84.2955 74.5556 84.3444L75.1713 84.6774C75.2058 84.6135 75.2381 84.5483 75.268 84.4819L74.6296 84.1947ZM74.746 83.8736C74.7153 83.9832 74.6765 84.0905 74.6296 84.1948L75.268 84.4819C75.3293 84.3457 75.3801 84.2053 75.4201 84.0622L74.746 83.8736ZM73.9826 80.5196C73.5724 80.2992 73.1136 80.1737 72.6402 80.1581L72.617 80.8577C72.9818 80.8698 73.3353 80.9664 73.6513 81.1362L73.9826 80.5196ZM72.2019 81.1779H73.817V80.4779H72.2019V81.1779ZM72.5519 80.8579V80.8279H71.8519V80.8579H72.5519ZM71.2394 81.2073C71.5602 81.2077 71.881 81.2079 72.2019 81.2079V80.5079C71.8813 80.5079 71.5608 80.5077 71.2402 80.5073L71.2394 81.2073ZM71.1887 80.4829C71.1445 80.507 71.1008 80.5321 71.0577 80.5584L71.4218 81.1562C71.4551 81.136 71.4889 81.1165 71.5231 81.0979L71.1887 80.4829ZM72.6365 80.158C72.1347 80.1466 71.6426 80.258 71.2007 80.4767L71.5112 81.1041C71.8527 80.9351 72.2329 80.849 72.6207 80.8578L72.6365 80.158ZM66.4195 84.0089C66.4849 84.5638 66.6278 85.1081 66.8448 85.6257L67.4903 85.355C67.2986 84.8978 67.1725 84.417 67.1147 83.9269L66.4195 84.0089ZM59.2918 84.3179H66.7671V83.6179H59.2918V84.3179ZM57.727 84.4697C58.2381 84.3572 58.7609 84.3063 59.2841 84.3178L59.2996 83.618C58.7206 83.6052 58.1422 83.6616 57.5766 83.786L57.727 84.4697ZM57.3914 84.6863C57.4685 84.5746 57.5861 84.4974 57.7192 84.4713L57.5844 83.7844C57.272 83.8457 56.996 84.0267 56.8153 84.2887L57.3914 84.6863ZM57.3069 85.069C57.2841 84.9352 57.3144 84.7979 57.3914 84.6863L56.8153 84.2887C56.6345 84.5507 56.5633 84.873 56.6169 85.1867L57.3069 85.069ZM57.4645 85.3672C57.3799 85.2921 57.3246 85.1895 57.3082 85.0774L56.6155 85.1784C56.6557 85.4536 56.7917 85.706 56.9999 85.8907L57.4645 85.3672ZM57.7709 85.488C57.6577 85.4851 57.5491 85.4423 57.4645 85.3672L56.9999 85.8907C57.208 86.0755 57.4748 86.1806 57.7529 86.1878L57.7709 85.488ZM59.4083 85.578C58.8711 85.568 58.3241 85.5482 57.8005 85.49L57.7232 86.1858C58.2796 86.2476 58.8525 86.2678 59.3953 86.2779L59.4083 85.578ZM67.3557 85.5466L59.4004 85.5779L59.4032 86.2779L67.3585 86.2466L67.3557 85.5466ZM66.8447 85.6257C66.9062 85.7723 66.9734 85.9162 67.0461 86.0571L67.6682 85.7361C67.604 85.6117 67.5446 85.4846 67.4903 85.355L66.8447 85.6257Z" fill="white"/>
</svg>
