<svg width="144" height="144" viewBox="0 0 144 144" fill="none" xmlns="http://www.w3.org/2000/svg">
<g id="Component 10">
<path id="Vector" d="M119.448 0H24.5516C10.9921 0 0 10.9921 0 24.5516V119.448C0 133.008 10.9921 144 24.5516 144H119.448C133.008 144 144 133.008 144 119.448V24.5516C144 10.9921 133.008 0 119.448 0Z" fill="white"/>
<path id="Vector_2" d="M27.0133 55.9022C28.2394 52.6127 30.0835 51.3268 33.6022 51.3268C37.3602 51.3268 41.1083 51.3268 44.8662 51.3268C45.7335 51.3268 46.1222 51.0975 46.0325 50.1904C45.9827 49.5734 45.9827 48.9534 46.0325 48.3363C46.0215 48.0104 46.0773 47.6857 46.1964 47.3821C46.3155 47.0786 46.4954 46.8025 46.7251 46.571C46.9547 46.3395 47.2293 46.1574 47.5319 46.0358C47.8345 45.9143 48.1587 45.8559 48.4847 45.8642C49.6269 45.8044 50.7715 45.8044 51.9137 45.8642C52.2557 45.8483 52.5969 45.9074 52.9135 46.0376C53.2301 46.1677 53.5143 46.3657 53.7462 46.6175C53.9781 46.8693 54.1519 47.1689 54.2556 47.4951C54.3592 47.8214 54.39 48.1663 54.346 48.5058C54.346 49.1537 54.346 49.8017 54.346 50.4396C54.346 51.0776 54.5553 51.3467 55.2132 51.3368C56.3197 51.3368 57.4361 51.3368 58.5525 51.3368C58.8862 51.328 59.2201 51.3513 59.5493 51.4065C59.9028 51.4433 60.2303 51.6089 60.4694 51.8719C60.7084 52.1348 60.8422 52.4766 60.8452 52.832C60.8388 53.0175 60.7957 53.1998 60.7184 53.3686C60.6412 53.5373 60.5312 53.6891 60.395 53.8151C60.2588 53.9412 60.0989 54.039 59.9247 54.1029C59.7505 54.1668 59.5653 54.1956 59.3799 54.1876C58.0641 54.1876 56.7383 54.2474 55.3926 54.1876C54.5852 54.1876 54.336 54.4169 54.336 55.2343C54.336 61.5441 54.336 67.854 54.336 74.1738C54.321 74.4378 54.3411 74.7026 54.3958 74.9613C54.4497 75.2721 54.6222 75.5498 54.8771 75.7358C55.1319 75.9218 55.449 76.0015 55.7614 75.9581C55.9092 75.9621 56.0564 75.9364 56.1941 75.8826C56.3318 75.8288 56.4573 75.7479 56.5633 75.6448C56.6692 75.5416 56.7533 75.4183 56.8108 75.2821C56.8683 75.1459 56.8979 74.9995 56.8978 74.8516C56.9177 74.4997 56.9177 74.1469 56.8978 73.795C56.9576 71.1534 56.828 68.5119 56.9975 65.8205C57.1579 63.3359 58.2785 61.0112 60.122 59.3379C61.9656 57.6645 64.3877 56.7739 66.8761 56.8541C69.3646 56.9344 71.7242 57.9794 73.4561 59.768C75.188 61.5567 76.1563 63.9488 76.1563 66.4385C76.1563 71.5721 76.1563 76.7057 76.1563 81.8393C76.1413 82.1348 76.1413 82.4309 76.1563 82.7265C76.1395 82.9158 76.1631 83.1066 76.2254 83.2862C76.2877 83.4658 76.3874 83.6301 76.5178 83.7684C76.6483 83.9067 76.8065 84.0158 76.9822 84.0885C77.1578 84.1612 77.3469 84.1959 77.5369 84.1902C77.7269 84.1845 77.9136 84.1386 78.0846 84.0556C78.2556 83.9726 78.4071 83.8542 78.529 83.7084C78.651 83.5626 78.7407 83.3926 78.7922 83.2096C78.8437 83.0266 78.8558 82.8348 78.8278 82.6467C78.8278 79.9886 78.8278 77.3304 78.8278 74.6722C78.8292 73.7619 78.9566 72.8561 79.2066 71.9808C79.8245 69.8335 81.1722 67.9691 83.0173 66.7089C84.8624 65.4486 87.0893 64.8716 89.3143 65.077C91.5392 65.2825 93.6228 66.2577 95.2059 67.8346C96.7889 69.4114 97.7723 71.4911 97.9866 73.7152C98.0712 74.5898 98.1111 75.4682 98.1062 76.3469V93.9606C98.1062 95.1468 98.1062 95.1468 99.2526 95.1468C100.399 95.1468 101.485 95.1468 102.602 95.1468C103.17 95.1468 103.419 94.9175 103.389 94.3593C103.389 94.1899 103.389 94.0104 103.389 93.841V63.1789C103.389 61.9827 103.389 61.9927 102.223 62.1821C98.2864 62.8682 94.2336 62.1634 90.7597 60.1885C89.9882 59.7057 89.0867 59.4725 88.1779 59.5206C87.5338 59.5554 86.8882 59.5554 86.2441 59.5206C86.0074 59.5263 85.7721 59.4833 85.5528 59.3941C85.3335 59.3049 85.1349 59.1716 84.9694 59.0023C84.8039 58.8331 84.675 58.6315 84.5907 58.4103C84.5065 58.189 84.4687 57.9528 84.4797 57.7164C84.4797 57.0485 84.4797 56.3707 84.4797 55.7227C84.4797 54.2674 84.4797 54.2674 83.0642 54.2674H66.3078C65.9747 54.2888 65.6402 54.2721 65.3109 54.2175C64.9833 54.1802 64.6816 54.0212 64.4656 53.772C64.2496 53.5227 64.1351 53.2015 64.1447 52.8718C64.1227 52.5654 64.2111 52.2613 64.394 52.0145C64.5768 51.7677 64.842 51.5944 65.1415 51.5261C65.5999 51.4279 66.0683 51.3844 66.537 51.3966H81.7684C82.8549 51.3966 82.8549 51.3966 82.516 50.3997C81.7009 48.0266 81.3961 45.508 81.6215 43.0089C81.8469 40.5098 82.5975 38.0864 83.8242 35.8974C85.0508 33.7084 86.7259 31.8031 88.7397 30.3062C90.7535 28.8092 93.0607 27.7543 95.5104 27.2106C97.96 26.6668 100.497 26.6465 102.955 27.1509C105.413 27.6552 107.737 28.6729 109.774 30.1374C111.812 31.6018 113.517 33.48 114.779 35.6491C116.041 37.8181 116.83 40.2291 117.095 42.7242C117.497 45.9228 116.968 49.1693 115.57 52.0744C115.413 52.2828 115.343 52.5447 115.377 52.8039C115.41 53.063 115.544 53.2986 115.75 53.46C116.733 54.5486 117.245 55.982 117.175 57.4472C117.175 68.9505 117.175 80.457 117.175 91.9669C117.218 92.7846 117.089 93.6023 116.796 94.3668C116.502 95.1313 116.051 95.8255 115.472 96.4045C114.893 96.9835 114.199 97.4343 113.435 97.7277C112.67 98.021 111.853 98.1504 111.035 98.1073C107.137 98.1073 103.23 98.1073 99.3223 98.1073C98.1062 98.1073 98.1062 98.1073 98.1062 99.3334C98.1062 99.9514 98.1062 100.569 98.1062 101.187C98.1075 101.499 98.047 101.808 97.9281 102.095C97.8092 102.383 97.6343 102.645 97.4137 102.865C97.1929 103.084 96.9308 103.258 96.6424 103.376C96.354 103.493 96.0452 103.553 95.7338 103.55C94.532 103.62 93.3271 103.62 92.1253 103.55C91.8065 103.555 91.4901 103.494 91.1963 103.37C90.9024 103.246 90.6375 103.063 90.4182 102.831C90.199 102.6 90.0301 102.325 89.9224 102.025C89.8148 101.725 89.7706 101.406 89.7927 101.088C89.7927 100.33 89.7927 99.5627 89.7927 98.8051C89.7927 98.3167 89.5834 98.0974 89.1049 98.1173H33.5923C30.0835 98.1173 28.2195 96.8115 27.0133 93.5319V55.9022ZM40.7394 74.6124V93.7213C40.7394 95.1269 40.7394 95.1269 42.125 95.1269H88.1779C88.4102 95.1119 88.6433 95.1119 88.8757 95.1269C89.5834 95.2066 89.8725 94.9474 89.8725 94.1898C89.8725 93.4323 89.8725 92.5551 89.8725 91.7277C89.8725 90.7309 90.4407 90.1228 91.2481 90.1129C91.6367 90.1129 92.0094 90.2672 92.2842 90.542C92.559 90.8168 92.7134 91.1896 92.7134 91.5782C92.7283 91.8704 92.7283 92.1632 92.7134 92.4554V98.8848C92.7134 100.659 92.7134 100.629 94.5076 100.599C95.1356 100.599 95.3151 100.35 95.3151 99.7521C95.3151 91.2991 95.3151 82.8062 95.3151 74.3931C95.2585 72.6613 94.5391 71.0174 93.3053 69.8009C92.0714 68.5844 90.4175 67.8883 88.6851 67.8563C86.9527 67.8243 85.2742 68.4589 83.9962 69.629C82.7183 70.7991 81.9386 72.4154 81.8182 74.1439C81.6288 76.8951 81.8182 79.6563 81.7185 82.4175C81.7429 82.9454 81.7027 83.4742 81.5989 83.9924C81.3299 84.9678 80.7126 85.8109 79.864 86.3619C79.0154 86.913 77.9941 87.1339 76.9936 86.9829C76.0348 86.8646 75.1515 86.4022 74.508 85.6817C73.8645 84.9611 73.5045 84.0314 73.4948 83.0654C73.4948 77.8122 73.4948 72.5589 73.4948 67.2957C73.4954 66.5941 73.4353 65.8938 73.3154 65.2025C72.9997 63.529 72.0655 62.0356 70.6988 61.0195C69.3321 60.0034 67.633 59.539 65.9395 59.7186C64.246 59.8983 62.6821 60.7089 61.559 61.9891C60.4359 63.2693 59.8359 64.9254 59.8783 66.6279C59.8783 69.3592 59.8783 72.0905 59.8783 74.8217C59.8499 75.6173 59.5915 76.3875 59.1343 77.0392C58.6771 77.6909 58.0408 78.196 57.3024 78.4935C56.564 78.791 55.7552 78.868 54.974 78.7152C54.1927 78.5624 53.4725 78.1865 52.9006 77.6328C52.4264 77.1489 52.0638 76.5671 51.8382 75.9282C51.6127 75.2894 51.5295 74.6089 51.5948 73.9345V50.5094C51.5948 48.6055 51.5948 48.6254 49.6809 48.745C49.1924 48.745 48.9732 48.9544 49.0031 49.4328C49.008 49.5225 49.008 49.6123 49.0031 49.702C49.0031 58.0652 49.0031 66.4285 49.0031 74.7918C49.0331 76.5301 49.7318 78.19 50.954 79.4264C52.1763 80.6628 53.828 81.3807 55.5658 81.4307C57.3037 81.4808 58.994 80.8592 60.2854 79.6952C61.5768 78.5312 62.3699 76.9143 62.4999 75.1806C62.7092 72.2499 62.5597 69.3093 62.6096 66.3787C62.6041 65.7735 62.7401 65.1754 63.0066 64.632C63.2731 64.0886 63.6628 63.6149 64.1447 63.2487C64.7369 62.7575 65.4586 62.4482 66.2226 62.358C66.9867 62.2678 67.7606 62.4006 68.4509 62.7403C69.1917 63.0478 69.8193 63.5768 70.2476 64.255C70.6759 64.9331 70.884 65.7272 70.8433 66.5282C70.8433 71.8711 70.8433 77.2141 70.8433 82.5471C70.779 84.3293 71.4076 86.0672 72.5971 87.3961C73.7865 88.7249 75.4444 89.5414 77.2229 89.6743C78.1492 89.7285 79.0768 89.5933 79.9492 89.277C80.8215 88.9607 81.6202 88.4699 82.2965 87.8347C82.9729 87.1994 83.5126 86.4329 83.8828 85.5821C84.2531 84.7312 84.446 83.8139 84.4498 82.886C84.4498 80.1248 84.4498 77.3636 84.4498 74.6024C84.5193 73.5343 84.9981 72.5341 85.7865 71.8102C86.575 71.0863 87.6124 70.6944 88.6826 70.7163C89.7527 70.7381 90.7733 71.172 91.5316 71.9274C92.2898 72.6829 92.7275 73.7018 92.7533 74.7719C92.7533 78.181 92.7533 81.5801 92.7533 84.9892C92.75 85.2535 92.7063 85.5157 92.6237 85.7667C92.5508 86.0715 92.3707 86.3399 92.1163 86.5229C91.8619 86.7059 91.5503 86.7913 91.2381 86.7636C90.9256 86.7585 90.6248 86.644 90.3881 86.44C90.1513 86.236 89.9935 85.9554 89.9423 85.6471C89.9051 85.3159 89.9051 84.9815 89.9423 84.6503V75.4198C89.9573 75.1542 89.9573 74.888 89.9423 74.6224C89.9373 74.4526 89.8981 74.2855 89.8272 74.1312C89.7563 73.9768 89.655 73.8383 89.5295 73.7239C89.4039 73.6095 89.2566 73.5215 89.0963 73.4653C88.936 73.409 88.7661 73.3855 88.5965 73.3963C88.4336 73.3889 88.271 73.416 88.1192 73.4759C87.9675 73.5358 87.8302 73.6271 87.7163 73.7438C87.6024 73.8605 87.5144 74.0001 87.4583 74.1532C87.4021 74.3063 87.379 74.4696 87.3904 74.6323C87.3904 75.8285 87.3904 77.0347 87.3904 78.2408C87.4886 80.2923 87.4319 82.3482 87.2209 84.3912C86.8446 86.7641 85.5921 88.9097 83.7108 90.4041C81.8296 91.8985 79.4563 92.6331 77.0597 92.4628C74.6632 92.2925 72.4176 91.2297 70.7665 89.4843C69.1155 87.7389 68.1789 85.4378 68.1419 83.0355C68.1419 77.7823 68.1419 72.529 68.1419 67.2758C68.1735 66.8659 68.1296 66.4537 68.0123 66.0597C67.935 65.8031 67.7787 65.5773 67.5658 65.4145C67.3528 65.2517 67.0941 65.16 66.8261 65.1526C66.5592 65.1491 66.2976 65.2275 66.0766 65.3772C65.8556 65.5269 65.6858 65.7408 65.5901 65.9899C65.4706 66.3078 65.423 66.6482 65.4505 66.9867C65.4505 69.5984 65.5103 72.2101 65.4505 74.8217C65.4135 76.5034 64.9343 78.1456 64.0612 79.5833C63.1881 81.021 61.9518 82.2035 60.4767 83.0118C59.0015 83.8201 57.3396 84.2257 55.6579 84.1879C53.9763 84.15 52.3342 83.6701 50.897 82.7963C49.3942 81.9086 48.1632 80.6265 47.3373 79.089C46.5114 77.5514 46.1223 75.8171 46.212 74.0741C46.212 67.8241 46.212 61.5741 46.212 55.324C46.212 54.1278 46.212 54.1278 45.0656 54.1278H42.1549C40.9388 54.1278 40.9288 54.1278 40.9288 55.3439L40.7394 74.6124ZM114.394 44.6082C114.394 43.9105 114.394 43.1928 114.284 42.5049C114.01 40.4684 113.319 38.5103 112.254 36.7528C111.19 34.9952 109.774 33.476 108.096 32.29C106.418 31.1039 104.514 30.2765 102.501 29.8593C100.489 29.4421 98.4129 29.4442 96.4016 29.8653C86.7524 31.7892 81.4494 42.9336 86.2341 51.4962C87.0523 52.7505 87.4342 54.2395 87.3206 55.7327C87.2309 56.4504 87.5001 56.7794 88.2477 56.7295C89.7432 56.5695 91.2465 56.9515 92.4841 57.8061C94.2347 58.8435 96.2131 59.4356 98.2458 59.5306C100.307 59.7066 102.383 59.4509 104.34 58.7797C106.297 58.1084 108.093 57.0365 109.612 55.6323C111.132 54.2281 112.342 52.5225 113.165 50.6244C113.989 48.7262 114.407 46.6772 114.394 44.6082ZM37.8786 74.722C37.8786 68.8209 37.8786 62.9197 37.8786 57.0186C37.8786 56.1215 38.2773 55.0249 37.6693 54.397C37.0612 53.769 35.9847 54.2574 35.1174 54.2076C34.5592 54.2076 34.001 54.2076 33.4428 54.2076C30.8511 54.2076 29.7346 55.314 29.7246 57.8958V90.392C29.7246 90.9203 29.7246 91.4486 29.7246 91.9769C29.7082 92.4048 29.7821 92.8314 29.9415 93.2289C30.1008 93.6264 30.342 93.9859 30.6495 94.284C30.957 94.5821 31.3238 94.8121 31.726 94.959C32.1283 95.1059 32.557 95.1665 32.9842 95.1368C34.2502 95.1368 35.5161 95.087 36.7721 95.1368C37.6892 95.1966 37.8985 94.8577 37.8985 93.9905C37.8586 87.571 37.8786 81.1415 37.8786 74.722ZM114.484 74.722C114.484 69.1066 114.484 63.5012 114.484 57.9058C114.511 57.2239 114.392 56.5441 114.135 55.9121C113.916 55.4038 113.716 55.3041 113.308 55.8124C111.712 57.8474 109.665 59.4823 107.327 60.5872C107.003 60.6988 106.728 60.918 106.546 61.2083C106.365 61.4986 106.288 61.8423 106.33 62.1821C106.33 72.3563 106.33 82.5371 106.33 92.7245C106.33 95.1368 106.33 95.1368 108.792 95.1368H110.726C113.417 95.1368 114.484 94.0603 114.484 91.329C114.49 85.7801 114.49 80.2444 114.484 74.722Z" fill="#303B4D" stroke="#F7F7F7" stroke-width="0.6" stroke-miterlimit="10"/>
<path id="Vector_3" d="M93.4117 117.025C92.3596 116.103 91.3612 115.121 90.4213 114.085C90.2738 113.97 90.1507 113.827 90.0591 113.664C89.9676 113.501 89.9095 113.322 89.8881 113.136C89.8668 112.951 89.8826 112.762 89.9348 112.583C89.987 112.404 90.0744 112.236 90.192 112.091C90.6605 111.483 91.3184 111.403 92.1856 111.852L92.5943 112.051V109.509C92.5943 108.862 92.5943 108.214 92.5943 107.576C92.5943 107.376 92.6339 107.179 92.7108 106.995C92.7876 106.811 92.9003 106.644 93.0422 106.504C93.1841 106.364 93.3523 106.254 93.5373 106.179C93.7222 106.105 93.9201 106.068 94.1195 106.07C94.3105 106.087 94.4963 106.141 94.6662 106.229C94.8362 106.318 94.9868 106.44 95.1092 106.587C95.2317 106.735 95.3236 106.905 95.3795 107.089C95.4355 107.272 95.4544 107.465 95.4352 107.655C95.4352 109.091 95.4352 110.516 95.4352 111.952C95.5548 111.952 95.6246 111.952 95.6645 111.952C96.6613 111.373 97.3192 111.413 97.8475 112.081C98.3759 112.749 98.2263 113.417 97.4189 114.244C96.6115 115.072 95.5947 116.068 94.6777 116.986L93.4117 117.025Z" fill="#303B4D" stroke="#F7F7F7" stroke-width="0.6" stroke-miterlimit="10"/>
<path id="Vector_4" d="M48.8038 38.2587C48.8038 36.7535 48.8038 35.3778 48.8038 34.0022C48.8038 32.8858 49.3321 32.2578 50.2092 32.2578C51.0864 32.2578 51.6347 32.8759 51.6646 33.9923C51.6945 35.1087 51.6646 36.3448 51.6646 37.5111C51.6646 37.9895 51.7543 38.1789 52.2627 37.8998C52.5543 37.7149 52.9069 37.6521 53.2444 37.7248C53.5819 37.7975 53.8773 38 54.0669 38.2886C54.2861 38.556 54.3921 38.8985 54.3623 39.243C54.3325 39.5875 54.1693 39.9068 53.9075 40.1327C53.0402 41.0497 52.1531 41.9568 51.236 42.8141C51.1009 42.9632 50.935 43.0812 50.7498 43.1598C50.5645 43.2383 50.3643 43.2755 50.1632 43.2689C49.9621 43.2623 49.7648 43.2119 49.5851 43.1213C49.4055 43.0307 49.2477 42.9021 49.1228 42.7443C48.2755 41.9369 47.4481 41.0996 46.6307 40.2622C46.4859 40.1438 46.366 39.9978 46.278 39.8328C46.19 39.6677 46.1355 39.4868 46.1178 39.3006C46.1001 39.1144 46.1195 38.9265 46.1749 38.7478C46.2303 38.5691 46.3205 38.4031 46.4404 38.2595C46.5603 38.1159 46.7075 37.9975 46.8734 37.9111C47.0393 37.8248 47.2207 37.7721 47.4071 37.7563C47.5935 37.7405 47.7812 37.7617 47.9594 37.8188C48.1375 37.876 48.3025 37.9679 48.4449 38.0892L48.8038 38.2587Z" fill="#303B4D" stroke="#F7F7F7" stroke-width="0.6" stroke-miterlimit="10"/>
<path id="Vector_5" d="M92.7337 47.3597C92.7363 48.3483 92.956 49.3243 93.3773 50.2186C93.7987 51.113 94.4114 51.9038 95.1721 52.5352C95.9328 53.1666 96.823 53.6232 97.7797 53.8726C98.7363 54.122 99.7361 54.1581 100.708 53.9785H100.878C102.094 53.7493 102.822 54.0782 103.001 54.9255C103.18 55.7728 102.692 56.5304 101.466 56.7597C99.7766 57.1469 98.0125 57.0512 96.375 56.4836C94.7375 55.9161 93.2926 54.8995 92.2054 53.5499C91.0568 52.3315 90.2893 50.8041 89.9971 49.1553C89.7049 47.5066 89.9008 45.8085 90.5607 44.2696C92.3875 40.0597 94.9722 36.2214 98.1863 32.9457C98.3328 32.7257 98.5314 32.5453 98.7644 32.4205C98.9974 32.2958 99.2577 32.2305 99.522 32.2305C99.7863 32.2305 100.047 32.2958 100.28 32.4205C100.513 32.5453 100.711 32.7257 100.858 32.9457C102.217 34.1203 103.248 35.6284 103.848 37.3217C104.135 38.4063 104.111 39.5497 103.778 40.6212C103.698 40.7813 103.667 40.9618 103.691 41.1394C103.714 41.3171 103.789 41.4838 103.908 41.618C104.247 41.927 104.556 41.7077 104.905 41.5582C105.144 41.4079 105.415 41.3141 105.696 41.2839C105.978 41.2538 106.262 41.288 106.528 41.3841C106.794 41.4801 107.035 41.6355 107.232 41.8384C107.429 42.0412 107.578 42.2863 107.666 42.555C109.241 45.4159 109.66 48.3465 108.254 51.3968C108.084 51.7723 107.887 52.1354 107.666 52.4833C107.574 52.6529 107.448 52.8021 107.297 52.922C107.146 53.0419 106.972 53.1301 106.786 53.1813C106.6 53.2325 106.405 53.2456 106.214 53.2199C106.023 53.1941 105.838 53.1301 105.672 53.0315C105.514 52.9374 105.376 52.8125 105.266 52.6642C105.156 52.5159 105.077 52.3473 105.034 52.1681C104.99 51.9889 104.983 51.8028 105.012 51.6207C105.041 51.4386 105.106 51.2642 105.204 51.1077C105.646 50.3392 105.981 49.5143 106.201 48.6555C106.417 47.4331 106.253 46.1739 105.732 45.0471C105.573 44.6483 105.304 44.5885 104.895 44.6384C104.314 44.7439 103.716 44.6972 103.159 44.503C102.601 44.3088 102.104 43.9735 101.714 43.5299C101.325 43.0864 101.057 42.5495 100.936 41.9717C100.816 41.3938 100.847 40.7946 101.027 40.2324C101.25 39.5411 101.275 38.8011 101.099 38.0963C100.923 37.3916 100.552 36.7503 100.03 36.2452C99.6616 35.8664 99.4223 35.7667 99.0336 36.2452C96.7012 38.9282 94.7613 41.9286 93.272 45.1567C92.9194 45.8376 92.7348 46.5929 92.7337 47.3597Z" fill="#303B4D" stroke="#F7F7F7" stroke-width="0.6" stroke-miterlimit="10"/>
<path id="Vector_6" d="M35.1675 66.4882C35.1675 66.8556 35.0215 67.2081 34.7617 67.4679C34.5018 67.7277 34.1494 67.8737 33.7819 67.8737C33.4283 67.844 33.0988 67.6825 32.8586 67.4213C32.6184 67.16 32.4851 66.8181 32.4851 66.4632C32.4851 66.1084 32.6184 65.7665 32.8586 65.5052C33.0988 65.244 33.4283 65.0825 33.7819 65.0527C33.9677 65.054 34.1514 65.0924 34.3222 65.1656C34.493 65.2388 34.6475 65.3453 34.7766 65.479C34.9057 65.6128 35.0067 65.7709 35.0739 65.9442C35.141 66.1175 35.1728 66.3024 35.1675 66.4882Z" fill="#303B4D" stroke="#F7F7F7" stroke-width="0.6" stroke-miterlimit="10"/>
<path id="Vector_7" d="M35.1672 82.8447C35.1672 83.1159 35.087 83.3811 34.9367 83.6068C34.7864 83.8326 34.5727 84.0089 34.3225 84.1136C34.0723 84.2183 33.7967 84.2466 33.5305 84.1951C33.2642 84.1437 33.0191 84.0146 32.8259 83.8242C32.6328 83.6338 32.5002 83.3906 32.4449 83.1251C32.3896 82.8596 32.414 82.5836 32.515 82.332C32.6161 82.0803 32.7893 81.8641 33.0129 81.7106C33.2365 81.557 33.5005 81.473 33.7716 81.4691C33.9543 81.4651 34.1359 81.4978 34.3058 81.5652C34.4756 81.6327 34.6302 81.7336 34.7603 81.8618C34.8904 81.9901 34.9935 82.1432 35.0633 82.312C35.1332 82.4808 35.1686 82.662 35.1672 82.8447Z" fill="#303B4D" stroke="#F7F7F7" stroke-width="0.6" stroke-miterlimit="10"/>
<path id="Vector_8" d="M33.832 89.6741C34.014 89.6806 34.1929 89.7228 34.3586 89.7984C34.5242 89.8741 34.6734 89.9817 34.7974 90.115C34.9215 90.2483 35.0181 90.4048 35.0816 90.5754C35.1452 90.7461 35.1744 90.9276 35.1678 91.1096C35.1692 91.2914 35.1339 91.4716 35.0637 91.6394C34.9936 91.8072 34.8902 91.959 34.7598 92.0857C34.6293 92.2124 34.4746 92.3113 34.3049 92.3766C34.1351 92.4418 33.9539 92.472 33.7722 92.4652C33.4021 92.4573 33.0503 92.3027 32.7942 92.0354C32.5381 91.768 32.3986 91.4099 32.4066 91.0398C32.4145 90.6697 32.5691 90.3178 32.8365 90.0617C33.1038 89.8056 33.4619 89.6662 33.832 89.6741Z" fill="#303B4D" stroke="#F7F7F7" stroke-width="0.6" stroke-miterlimit="10"/>
<path id="Vector_9" d="M35.1681 74.7204C35.1388 75.0637 34.9817 75.3835 34.7279 75.6166C34.4741 75.8496 34.142 75.979 33.7974 75.979C33.4529 75.979 33.1208 75.8496 32.867 75.6166C32.6132 75.3835 32.4561 75.0637 32.4268 74.7204C32.4242 74.5367 32.458 74.3544 32.5265 74.184C32.5949 74.0136 32.6966 73.8585 32.8255 73.7277C32.9544 73.5969 33.1081 73.4931 33.2775 73.4222C33.4469 73.3513 33.6288 73.3148 33.8124 73.3148C33.9959 73.3104 34.1784 73.3441 34.3482 73.4138C34.518 73.4835 34.6715 73.5877 34.7989 73.7198C34.9264 73.852 35.025 74.0091 35.0885 74.1813C35.1521 74.3536 35.1792 74.5371 35.1681 74.7204Z" fill="#303B4D" stroke="#F7F7F7" stroke-width="0.6" stroke-miterlimit="10"/>
<path id="Vector_10" d="M35.168 58.2235C35.1842 58.4133 35.1608 58.6044 35.0993 58.7847C35.0378 58.965 34.9395 59.1305 34.8106 59.2709C34.6818 59.4112 34.5252 59.5232 34.3508 59.5998C34.1764 59.6765 33.9879 59.716 33.7974 59.716C33.6069 59.716 33.4185 59.6765 33.2441 59.5998C33.0697 59.5232 32.913 59.4112 32.7842 59.2709C32.6553 59.1305 32.557 58.965 32.4955 58.7847C32.434 58.6044 32.4106 58.4133 32.4268 58.2235C32.4561 57.8801 32.6132 57.5603 32.867 57.3272C33.1208 57.0941 33.4528 56.9648 33.7974 56.9648C34.142 56.9648 34.4741 57.0941 34.7279 57.3272C34.9817 57.5603 35.1387 57.8801 35.168 58.2235Z" fill="#303B4D" stroke="#F7F7F7" stroke-width="0.6" stroke-miterlimit="10"/>
<path id="Vector_11" d="M110.447 65.0528C110.729 65.0529 111.005 65.1374 111.238 65.2953C111.472 65.4531 111.653 65.6772 111.759 65.9387C111.864 66.2003 111.889 66.4874 111.831 66.7633C111.772 67.0391 111.632 67.2911 111.429 67.4869C111.226 67.6828 110.969 67.8135 110.691 67.8623C110.414 67.9112 110.127 67.8759 109.87 67.7611C109.612 67.6463 109.395 67.4572 109.245 67.2179C109.096 66.9787 109.022 66.7003 109.031 66.4184C109.042 66.0509 109.196 65.702 109.461 65.4467C109.725 65.1915 110.079 65.05 110.447 65.0528Z" fill="#303B4D" stroke="#F7F7F7" stroke-width="0.6" stroke-miterlimit="10"/>
<path id="Vector_12" d="M111.783 82.8744C111.781 83.243 111.634 83.596 111.376 83.8585C111.117 84.121 110.766 84.2722 110.397 84.28C110.044 84.2502 109.714 84.0887 109.474 83.8275C109.234 83.5663 109.101 83.2243 109.101 82.8695C109.101 82.5146 109.234 82.1727 109.474 81.9115C109.714 81.6502 110.044 81.4887 110.397 81.459C110.768 81.4668 111.12 81.6194 111.379 81.884C111.638 82.1486 111.783 82.5042 111.783 82.8744Z" fill="#303B4D" stroke="#F7F7F7" stroke-width="0.6" stroke-miterlimit="10"/>
<path id="Vector_13" d="M111.783 91.0692C111.786 91.4368 111.644 91.791 111.389 92.0556C111.133 92.3202 110.785 92.4742 110.417 92.4846C110.066 92.455 109.739 92.2946 109.501 92.0352C109.262 91.7758 109.13 91.4364 109.13 91.0841C109.13 90.7318 109.262 90.3924 109.501 90.133C109.739 89.8736 110.066 89.7132 110.417 89.6836C110.78 89.6914 111.126 89.8405 111.381 90.0992C111.636 90.3579 111.78 90.7059 111.783 91.0692Z" fill="#303B4D" stroke="#F7F7F7" stroke-width="0.6" stroke-miterlimit="10"/>
<path id="Vector_14" d="M111.782 74.7219C111.777 74.9922 111.691 75.2548 111.537 75.4768C111.383 75.6988 111.166 75.8705 110.915 75.9703C110.664 76.0702 110.389 76.0938 110.124 76.0382C109.86 75.9826 109.617 75.8502 109.428 75.6577C109.238 75.4652 109.109 75.221 109.057 74.9556C109.005 74.6903 109.033 74.4156 109.136 74.1658C109.24 73.916 109.414 73.7022 109.639 73.5511C109.863 73.4001 110.127 73.3184 110.397 73.3164C110.581 73.3164 110.762 73.3529 110.932 73.4238C111.101 73.4946 111.255 73.5985 111.384 73.7293C111.513 73.8601 111.614 74.0151 111.683 74.1855C111.751 74.356 111.785 74.5383 111.782 74.7219Z" fill="#303B4D" stroke="#F7F7F7" stroke-width="0.6" stroke-miterlimit="10"/>
</g>
</svg>
