<svg width="144" height="144" viewBox="0 0 144 144" fill="none" xmlns="http://www.w3.org/2000/svg">
<g id="Component 10">
<path id="Vector" d="M119.448 0H24.5516C10.9921 0 0 10.9921 0 24.5516V119.448C0 133.008 10.9921 144 24.5516 144H119.448C133.008 144 144 133.008 144 119.448V24.5516C144 10.9921 133.008 0 119.448 0Z" fill="white"/>
<path id="Vector_2" d="M92.8335 110.656C92.8308 110.504 92.8589 110.352 92.916 110.211C92.9732 110.069 93.0582 109.941 93.1661 109.833C93.2741 109.725 93.4026 109.64 93.5441 109.583C93.6857 109.526 93.8372 109.497 93.9898 109.5H98.8243C99.131 109.5 99.4251 109.622 99.642 109.839C99.8588 110.056 99.9807 110.35 99.9807 110.656C99.9807 110.963 99.8588 111.257 99.642 111.474C99.4251 111.691 99.131 111.813 98.8243 111.813H93.9898C93.8372 111.815 93.6857 111.787 93.5441 111.73C93.4026 111.673 93.2741 111.588 93.1661 111.48C93.0582 111.372 92.9732 111.244 92.916 111.102C92.8589 110.961 92.8308 110.809 92.8335 110.656Z" fill="#303B4D" stroke="#F7F7F7" stroke-width="0.1" stroke-miterlimit="10"/>
<path id="Vector_3" d="M81.8886 111.813C81.582 111.813 81.2879 111.691 81.071 111.474C80.8542 111.257 80.7324 110.963 80.7324 110.656C80.7324 110.35 80.8542 110.056 81.071 109.839C81.2879 109.622 81.582 109.5 81.8886 109.5H86.7332C87.0399 109.5 87.3339 109.622 87.5508 109.839C87.7676 110.056 87.8895 110.35 87.8895 110.656C87.8895 110.963 87.7676 111.257 87.5508 111.474C87.3339 111.691 87.0399 111.813 86.7332 111.813H81.8886Z" fill="#303B4D" stroke="#F7F7F7" stroke-width="0.1" stroke-miterlimit="10"/>
<path id="Vector_4" d="M75.5888 81.6202C75.5834 81.3073 75.702 81.0049 75.9186 80.779C76.1351 80.5531 76.4323 80.4219 76.7451 80.4141H80.8819C81.0372 80.4166 81.1905 80.45 81.3329 80.5121C81.4753 80.5743 81.6039 80.664 81.7115 80.7762C81.819 80.8883 81.9032 81.0206 81.9593 81.1655C82.0153 81.3104 82.0422 81.4649 82.0382 81.6202C82.0423 81.7736 82.0153 81.9263 81.9587 82.069C81.9022 82.2116 81.8173 82.3414 81.7092 82.4504C81.6011 82.5594 81.4722 82.6453 81.33 82.7031C81.1878 82.7609 81.0353 82.7892 80.8819 82.7865H76.7451C76.5921 82.7878 76.4402 82.7585 76.2987 82.7003C76.1571 82.642 76.0287 82.556 75.9209 82.4473C75.8132 82.3386 75.7282 82.2094 75.6712 82.0674C75.6141 81.9253 75.5861 81.7733 75.5888 81.6202Z" fill="#303B4D" stroke="#F7F7F7" stroke-width="0.1" stroke-miterlimit="10"/>
<path id="Vector_5" d="M86.0254 43.1117C82.7459 43.1117 80.0445 46.7401 80.0445 51.2257C80.0445 55.7114 82.716 59.29 86.0254 59.29C89.3349 59.29 92.0063 55.6616 92.0063 51.2257C92.0063 46.7899 89.305 43.1117 86.0254 43.1117ZM86.0254 61.6126C81.4401 61.6126 77.702 56.9674 77.702 51.2257C77.702 45.4841 81.4401 40.7891 86.0254 40.7891C90.6108 40.7891 94.289 45.4243 94.289 51.2257C94.289 57.0272 90.6108 61.6126 86.0254 61.6126Z" fill="#303B4D" stroke="#F7F7F7" stroke-width="0.1" stroke-miterlimit="10"/>
<path id="Vector_6" d="M68.6305 110.656C68.6278 110.504 68.6559 110.352 68.713 110.211C68.7702 110.069 68.8553 109.941 68.9632 109.833C69.0711 109.725 69.1997 109.64 69.3412 109.583C69.4827 109.526 69.6343 109.497 69.7869 109.5H74.6314C74.9381 109.5 75.2322 109.622 75.449 109.839C75.6659 110.056 75.7877 110.35 75.7877 110.656C75.7877 110.963 75.6659 111.257 75.449 111.474C75.2322 111.691 74.9381 111.813 74.6314 111.813H69.7869C69.6343 111.815 69.4827 111.787 69.3412 111.73C69.1997 111.673 69.0711 111.588 68.9632 111.48C68.8553 111.372 68.7702 111.244 68.713 111.102C68.6559 110.961 68.6278 110.809 68.6305 110.656Z" fill="#303B4D" stroke="#F7F7F7" stroke-width="0.1" stroke-miterlimit="10"/>
<path id="Vector_7" d="M66.3683 82.7865C66.2144 82.7892 66.0615 82.7609 65.9188 82.7032C65.7761 82.6456 65.6465 82.5598 65.5376 82.4509C65.4288 82.3421 65.343 82.2124 65.2853 82.0697C65.2277 81.927 65.1993 81.7741 65.2021 81.6202C65.1994 81.4644 65.2275 81.3096 65.2847 81.1647C65.3419 81.0198 65.427 80.8876 65.5353 80.7755C65.6436 80.6635 65.773 80.574 65.9159 80.512C66.0588 80.4499 66.2125 80.4167 66.3683 80.4141H70.4951C70.8144 80.4191 71.1193 80.5475 71.346 80.7724C71.5727 80.9972 71.7036 81.301 71.7113 81.6202C71.7034 81.9357 71.5712 82.2354 71.3434 82.4538C71.1156 82.6723 70.8107 82.7918 70.4951 82.7865H66.3683Z" fill="#303B4D" stroke="#F7F7F7" stroke-width="0.1" stroke-miterlimit="10"/>
<path id="Vector_8" d="M56.4797 110.657C56.4836 110.501 56.5182 110.347 56.5814 110.205C56.6446 110.063 56.7353 109.934 56.8482 109.827C56.9611 109.719 57.0941 109.635 57.2396 109.579C57.385 109.523 57.5401 109.496 57.6959 109.5H62.5304C62.8371 109.5 63.1312 109.622 63.3481 109.839C63.5649 110.056 63.6867 110.35 63.6867 110.657C63.6867 110.963 63.5649 111.257 63.3481 111.474C63.1312 111.691 62.8371 111.813 62.5304 111.813H57.6959C57.5401 111.817 57.385 111.79 57.2396 111.734C57.0941 111.678 56.9611 111.594 56.8482 111.487C56.7353 111.379 56.6446 111.251 56.5814 111.108C56.5182 110.966 56.4836 110.812 56.4797 110.657Z" fill="#303B4D" stroke="#F7F7F7" stroke-width="0.1" stroke-miterlimit="10"/>
<path id="Vector_9" d="M44.3885 110.656C44.3911 110.35 44.5138 110.058 44.73 109.842C44.9463 109.625 45.239 109.503 45.5448 109.5H50.4292C50.7359 109.5 51.03 109.622 51.2468 109.839C51.4637 110.056 51.5855 110.35 51.5855 110.656C51.5855 110.963 51.4637 111.257 51.2468 111.474C51.03 111.691 50.7359 111.813 50.4292 111.813H45.5448C45.239 111.81 44.9463 111.687 44.73 111.471C44.5138 111.255 44.3911 110.962 44.3885 110.656Z" fill="#303B4D" stroke="#F7F7F7" stroke-width="0.1" stroke-miterlimit="10"/>
<path id="Vector_10" d="M94.9463 80.414H104.825V72.9479H94.9463V80.414ZM73.7241 55.2045C73.8736 55.9123 74.0231 56.62 74.2225 57.2779C74.287 57.5861 74.3736 57.8893 74.4817 58.185C74.7181 58.8363 74.9876 59.4751 75.2891 60.0989C75.3888 60.3481 75.4884 60.5475 75.5881 60.8067C76.0141 61.6154 76.5042 62.3887 77.0535 63.1192L77.2029 63.2688C77.6496 63.8742 78.1573 64.432 78.7181 64.9335C78.9522 65.1694 79.202 65.3892 79.4657 65.5914C79.8744 65.8904 80.2233 66.1496 80.632 66.3988C80.9538 66.603 81.2865 66.7894 81.6288 66.957C83.0004 67.6679 84.5198 68.047 86.0647 68.0635C93.0424 68.0635 98.7641 60.4976 98.7641 51.2272C98.7641 41.9569 93.0723 34.3412 86.0647 34.3412C84.5343 34.3471 83.0287 34.7269 81.6787 35.4477C81.3278 35.5982 80.9937 35.7853 80.6819 36.0059C80.2901 36.243 79.9169 36.5096 79.5655 36.8033C79.2803 36.9981 79.0133 37.2183 78.768 37.4612C78.2357 37.9733 77.73 38.5123 77.2528 39.0761C77.203 39.1757 77.1531 39.2256 77.1033 39.3253C76.5542 40.042 76.0642 40.8021 75.638 41.598C75.5383 41.8472 75.4386 42.0964 75.3389 42.3058C75.0339 42.928 74.7643 43.5669 74.5315 44.2196C74.4222 44.515 74.3356 44.8182 74.2724 45.1267C74.073 45.8345 73.9235 46.4824 73.774 47.1901L73.6244 48.0973C73.4618 49.1329 73.3752 50.179 73.3652 51.2272C73.3752 52.2557 73.4618 53.2819 73.6244 54.2974L73.7241 55.2045ZM64.7527 48.0973C64.5902 49.1329 64.5035 50.179 64.4935 51.2272C64.5035 52.2557 64.5901 53.2819 64.7527 54.2974L64.9023 55.2045C65.0518 55.9123 65.2013 56.62 65.4007 57.2779C65.4652 57.5861 65.5518 57.8893 65.6599 58.185C65.8963 58.8363 66.1658 59.4751 66.4673 60.0989C66.567 60.3481 66.6666 60.5475 66.7663 60.8067C67.2019 61.6164 67.7019 62.3897 68.2615 63.1192L68.4111 63.2688C68.8717 63.8626 69.3783 64.4192 69.9262 64.9335C70.1603 65.1694 70.4101 65.3892 70.6738 65.5914C71.0825 65.8904 71.4314 66.1496 71.8401 66.3988C72.1566 66.6118 72.49 66.7985 72.837 66.957C74.1887 67.6732 75.6932 68.0528 77.2229 68.0635C77.7094 68.0551 78.1952 68.0218 78.6783 67.9638C78.5332 67.84 78.3997 67.7032 78.2795 67.5551C77.3862 66.8795 76.5735 66.1036 75.8573 65.2425C75.7119 65.119 75.5784 64.9822 75.4585 64.8338C74.6159 63.762 73.9033 62.5943 73.3354 61.3549C73.148 60.9619 72.9817 60.5593 72.837 60.1488C72.3896 59.1572 72.0359 58.126 71.7803 57.0686C71.6806 56.6699 71.5709 56.2711 71.4713 55.8126C70.8067 52.775 70.8067 49.6296 71.4713 46.5921C71.5709 46.1335 71.6806 45.7348 71.7803 45.3261C72.0374 44.2724 72.3911 43.2446 72.837 42.2559C72.9816 41.8421 73.148 41.4361 73.3354 41.0398C73.9079 39.8029 74.6202 38.6356 75.4585 37.5609C75.5786 37.4157 75.7121 37.2822 75.8573 37.1622C76.5634 36.2888 77.3773 35.5084 78.2795 34.8396C78.3996 34.6944 78.5331 34.5609 78.6783 34.4409C78.1952 34.3829 77.7094 34.3496 77.2229 34.3412C75.6926 34.3471 74.1869 34.7269 72.837 35.4477C72.486 35.5982 72.1519 35.7853 71.8401 36.0059C71.4483 36.243 71.0751 36.5096 70.7236 36.8033C70.4385 36.9981 70.1716 37.2183 69.9262 37.4612C69.394 37.9733 68.8883 38.5123 68.4111 39.0761C68.4111 39.1757 68.3114 39.2256 68.2615 39.3253C67.7125 40.042 67.2225 40.8021 66.7962 41.598C66.6966 41.8472 66.5968 42.0466 66.4972 42.3058C66.1921 42.928 65.9226 43.5669 65.6897 44.2196C65.5804 44.515 65.4938 44.8182 65.4306 45.1267C65.2312 45.7846 65.0817 46.4824 64.9321 47.1901L64.7527 48.0973ZM56.8879 44.2196L56.5789 45.2164C56.3795 45.8743 56.23 46.5223 56.0805 47.2101L55.9309 48.1172C55.7684 49.1528 55.6817 50.1989 55.6717 51.2472C55.6817 52.2756 55.7683 53.3018 55.9309 54.3174L56.0805 55.2245C56.23 55.9322 56.3795 56.6399 56.5789 57.2978L56.8879 58.2049C57.0857 58.8632 57.3391 59.5035 57.6454 60.1188C57.7435 60.3633 57.8601 60.5999 57.9944 60.8266C58.3735 61.635 58.8487 62.3947 59.4098 63.0893C59.4098 63.189 59.5095 63.2389 59.5594 63.3485C60.0366 63.9091 60.5422 64.4448 61.0745 64.9534C61.3147 65.202 61.5823 65.4227 61.872 65.6113C62.2232 65.9082 62.5964 66.1782 62.9884 66.4187C63.3109 66.6217 63.6436 66.8081 63.9852 66.9769C65.3369 67.6932 66.8415 68.0727 68.3712 68.0834C68.8577 68.075 69.3434 68.0417 69.8265 67.9837C69.6814 67.86 69.5479 67.7231 69.4278 67.575C68.5345 66.8994 67.7217 66.1235 67.0055 65.2624C66.8601 65.139 66.7267 65.0021 66.6069 64.8537C65.7818 63.7699 65.0703 62.6041 64.4836 61.3748C64.2963 60.9818 64.13 60.5792 63.9852 60.1687C63.5599 59.1685 63.2068 58.1392 62.9286 57.0885C62.8289 56.6898 62.7193 56.2911 62.6196 55.8325C62.0217 52.7881 62.0217 49.6564 62.6196 46.612C62.7193 46.1534 62.8289 45.7547 62.9286 45.346C63.2083 44.2991 63.5614 43.2732 63.9852 42.2759C64.1299 41.862 64.2963 41.4561 64.4836 41.0597C65.0749 39.8329 65.7861 38.6676 66.6069 37.5808C66.7269 37.4357 66.8604 37.3022 67.0055 37.1821C67.7243 36.3204 68.5367 35.5415 69.4278 34.8595C69.5479 34.7144 69.6814 34.5808 69.8265 34.4608C69.3434 34.4028 68.8577 34.3695 68.3712 34.3611C66.8409 34.367 65.3352 34.7469 63.9852 35.4676C63.6396 35.6288 63.3065 35.8154 62.9884 36.0258C62.5966 36.263 62.2234 36.5296 61.872 36.8233C61.6228 37.0326 61.3237 37.2319 61.0745 37.4811C60.5455 37.9812 60.0557 38.5211 59.6092 39.096C59.5593 39.1957 59.4597 39.2455 59.4098 39.3452C58.8595 40.051 58.385 40.8128 57.9944 41.6179C57.8659 41.8477 57.7495 42.0839 57.6454 42.3257C57.3369 42.9331 57.0834 43.567 56.8879 44.2196ZM59.5594 34.3412C52.5816 34.3412 46.85 41.897 46.85 51.2272C46.85 60.5574 52.5517 68.0635 59.5594 68.0635C60.0459 68.0551 60.5316 68.0218 61.0147 67.9638C60.8651 67.8641 60.7655 67.7046 60.616 67.6049C59.7338 66.8979 58.9226 66.1067 58.1937 65.2425C58.0483 65.119 57.9148 64.9822 57.795 64.8338C56.9699 63.75 56.2584 62.5842 55.6717 61.3549C55.4724 60.9562 55.3229 60.5475 55.1733 60.1986C54.7535 59.1852 54.42 58.1381 54.1765 57.0686C54.0261 56.6594 53.9062 56.2395 53.8177 55.8126C53.2198 52.7682 53.2198 49.6365 53.8177 46.5921C53.9076 46.1622 54.0275 45.7392 54.1765 45.3261C54.4215 44.2602 54.7549 43.2166 55.1733 42.2061C55.3229 41.8472 55.4724 41.4485 55.6717 41.0398C56.263 39.813 56.9742 38.6477 57.795 37.5609C57.915 37.4157 58.0486 37.2822 58.1937 37.1622C58.9125 36.3005 59.7249 35.5215 60.616 34.8396C60.736 34.6944 60.8695 34.5609 61.0147 34.4409C60.5316 34.3829 60.0459 34.3496 59.5594 34.3412ZM40.7494 80.414H50.6378V72.9479H40.7494V80.414ZM39.5931 82.7864H34.9081V90.2326H109.41V82.7765H87.1313C86.9755 82.7791 86.8207 82.751 86.6758 82.6938C86.5309 82.6366 86.3986 82.5515 86.2866 82.4432C86.1746 82.3349 86.085 82.2056 86.023 82.0626C85.961 81.9197 85.9277 81.766 85.9251 81.6102C85.9302 81.2919 86.059 80.9881 86.284 80.763C86.5091 80.5379 86.813 80.4092 87.1313 80.4041H92.6237V71.7915C92.6211 71.6358 92.6492 71.481 92.7063 71.3361C92.7635 71.1911 92.8487 71.0589 92.957 70.9469C93.0653 70.8349 93.1946 70.7453 93.3376 70.6833C93.4805 70.6213 93.6342 70.588 93.79 70.5854H98.7242V61.4047C96.0528 66.7975 91.3677 70.4359 86.0248 70.4359C84.5373 70.3907 83.0695 70.0837 81.6886 69.5288C80.2597 70.0969 78.7404 70.4042 77.2029 70.4359C75.7155 70.3907 74.2477 70.0837 72.8668 69.5288C71.4379 70.0969 69.9186 70.4042 68.3812 70.4359C66.8937 70.3907 65.4259 70.0837 64.045 69.5288C62.6161 70.0969 61.0968 70.4042 59.5594 70.4359C54.2164 70.4359 49.5214 66.7975 46.85 61.4047V70.5854H51.834C52.1531 70.588 52.4583 70.7159 52.684 70.9415C52.9096 71.1672 53.0375 71.4725 53.0401 71.7915V80.414H60.1973C60.5086 80.4292 60.8024 80.5623 61.0191 80.7863C61.2357 81.0104 61.3589 81.3085 61.3636 81.6201C61.361 81.9286 61.2373 82.2238 61.0191 82.4419C60.801 82.6601 60.5058 82.7838 60.1973 82.7864H39.5931ZM31.6186 111.814C30.8773 111.815 30.1431 111.67 29.4579 111.387C28.7728 111.104 28.1504 110.688 27.6262 110.164C27.102 109.64 26.6865 109.017 26.4034 108.332C26.1204 107.647 25.9753 106.913 25.9766 106.172V95.9344C25.9712 94.4378 26.5565 92.9994 27.6055 91.9318C28.6544 90.8642 30.0822 90.2536 31.5787 90.2326H32.5755V81.6102C32.5702 81.2973 32.6887 80.9949 32.9053 80.769C33.1219 80.5431 33.419 80.4119 33.7318 80.4041H38.4767V71.7915C38.4727 71.6362 38.4996 71.4817 38.5556 71.3368C38.6117 71.192 38.6959 71.0596 38.8035 70.9475C38.911 70.8353 39.0396 70.7456 39.182 70.6835C39.3244 70.6213 39.4777 70.588 39.633 70.5854H44.6171V51.2272C44.6171 40.5912 51.3655 31.9688 59.6391 31.9688C61.177 31.9957 62.6972 32.3031 64.1247 32.8759C65.5041 32.3163 66.9729 32.009 68.4609 31.9688C69.9989 31.9957 71.519 32.3031 72.9466 32.8759C74.326 32.3163 75.7947 32.009 77.2827 31.9688C78.8207 31.9957 80.3408 32.3031 81.7684 32.8759C83.1478 32.3163 84.6165 32.009 86.1046 31.9688C94.3682 31.9688 101.127 40.5912 101.127 51.2272V70.5854H106.111C106.431 70.588 106.737 70.7155 106.964 70.9409C107.191 71.1663 107.322 71.4716 107.327 71.7915V80.414H110.706C111.024 80.4191 111.328 80.5479 111.553 80.773C111.778 80.9981 111.907 81.3019 111.912 81.6201V90.2326H112.909C114.409 90.2484 115.842 90.8547 116.899 91.9201C117.955 92.9856 118.548 94.4243 118.551 95.9244V106.182C118.548 107.677 117.953 109.111 116.895 110.168C115.838 111.226 114.404 111.821 112.909 111.824H106.141C105.834 111.824 105.54 111.702 105.323 111.485C105.106 111.268 104.984 110.974 104.984 110.667C104.984 110.361 105.106 110.067 105.323 109.85C105.54 109.633 105.834 109.511 106.141 109.511H112.739C113.615 109.501 114.45 109.145 115.064 108.521C115.679 107.898 116.022 107.057 116.019 106.182V95.9344C116.024 95.5004 115.943 95.0696 115.781 94.6671C115.618 94.2646 115.378 93.8984 115.073 93.5896C114.768 93.2809 114.404 93.0357 114.004 92.8684C113.603 92.7011 113.174 92.615 112.739 92.615H31.5787C31.142 92.6137 30.7093 92.6986 30.3054 92.8648C29.9015 93.0311 29.5344 93.2754 29.2251 93.5837C28.9158 93.8921 28.6704 94.2585 28.503 94.6619C28.3355 95.0652 28.2493 95.4977 28.2493 95.9344V106.182C28.2571 107.062 28.6104 107.905 29.2331 108.527C29.8558 109.15 30.6981 109.503 31.5787 109.511H38.2873C38.594 109.511 38.8881 109.633 39.1049 109.85C39.3218 110.067 39.4436 110.361 39.4436 110.667C39.4436 110.974 39.3218 111.268 39.1049 111.485C38.8881 111.702 38.594 111.824 38.2873 111.824H31.5787L31.6186 111.814Z" fill="#303B4D" stroke="#F7F7F7" stroke-width="0.1" stroke-miterlimit="10"/>
</g>
</svg>
