<svg width="145" height="144" viewBox="0 0 145 144" fill="none" xmlns="http://www.w3.org/2000/svg">
<g id="Component 10">
<path id="Vector" d="M119.948 0H25.0516C11.4921 0 0.5 10.9921 0.5 24.5516V119.448C0.5 133.008 11.4921 144 25.0516 144H119.948C133.508 144 144.5 133.008 144.5 119.448V24.5516C144.5 10.9921 133.508 0 119.948 0Z" fill="white"/>
<path id="Vector_2" d="M99.3734 24.0625C101.144 24.486 102.716 25.5026 103.829 26.9433C104.794 28.22 105.332 29.769 105.364 31.3692C105.364 32.6152 105.364 33.8612 105.364 35.0973C105.388 35.315 105.367 35.5352 105.304 35.7449C105.242 35.9547 105.137 36.1498 104.998 36.3188C104.859 36.4877 104.687 36.6272 104.493 36.729C104.3 36.8308 104.087 36.8928 103.869 36.9115C102.962 36.9115 102.344 36.2037 102.324 35.0573C102.304 33.911 102.324 32.9442 102.324 31.8776C102.324 28.7775 100.52 26.9433 97.4097 26.8935C91.4288 26.8935 85.5177 26.8935 79.5767 26.8935C77.2142 26.8935 74.8518 26.8935 72.4793 26.8935C69.3394 26.8935 67.4953 28.7476 67.4953 31.8776V32.8046C67.4953 34.0207 67.4953 33.9708 68.7513 34.0307C69.6185 34.0307 69.9474 33.7815 69.8677 32.9242C69.8228 32.4268 69.8228 31.9264 69.8677 31.429C69.8542 31.1401 69.9037 30.8517 70.0127 30.5838C70.1218 30.316 70.2878 30.0751 70.4993 29.8778C70.7108 29.6806 70.9627 29.5317 71.2375 29.4415C71.5122 29.3513 71.8033 29.322 72.0906 29.3556H97.5692C99.2538 29.3556 99.9416 30.0434 99.9516 31.748C99.9516 34.0207 99.9516 36.2834 99.9516 38.5562V64.8422C99.9516 66.0882 100.36 66.7262 101.128 66.7262C101.895 66.7262 102.304 66.0783 102.304 64.8522C102.304 57.4757 102.304 50.0993 102.304 42.7229C102.304 41.2276 102.792 40.4801 103.789 40.4601C104.786 40.4402 105.354 41.2077 105.354 42.7628C105.354 47.4146 105.354 52.0664 105.354 56.7182C105.332 57.0073 105.392 57.2967 105.526 57.5539C105.659 57.8111 105.863 58.0257 106.112 58.1735C107.541 59.1501 108.652 60.5248 109.308 62.1271C109.963 63.7294 110.134 65.4888 109.798 67.1871C109.463 68.8854 108.636 70.448 107.421 71.6808C106.206 72.9137 104.655 73.7627 102.962 74.1226C100.999 74.5498 98.9485 74.2949 97.1497 73.3999C95.3509 72.5049 93.911 71.0233 93.0677 69.1996C92.2244 67.376 92.0281 65.3193 92.5112 63.3691C92.9944 61.4189 94.128 59.6917 95.7251 58.4726C96.1311 58.2138 96.4578 57.8479 96.6689 57.4151C96.88 56.9824 96.9673 56.4997 96.9212 56.0204C96.8714 48.5244 96.9212 41.0682 96.9212 33.5223C96.9212 32.2862 96.9212 32.2862 95.6952 32.2763H73.9347C73.2867 32.2763 72.8581 32.3361 72.9378 33.1634C72.9378 33.8114 73.1771 34.0606 73.825 34.0207C74.473 33.9808 75.3202 34.0207 76.0679 34.0207C76.2623 34.0072 76.4574 34.0329 76.6417 34.0962C76.826 34.1596 76.9956 34.2593 77.1407 34.3894C77.2857 34.5196 77.4031 34.6775 77.4859 34.8539C77.5688 35.0303 77.6153 35.2215 77.6229 35.4162C77.6378 35.6031 77.6147 35.791 77.5549 35.9686C77.4951 36.1463 77.3999 36.3099 77.2751 36.4497C77.1502 36.5895 76.9982 36.7025 76.8284 36.7819C76.6586 36.8612 76.4745 36.9053 76.2872 36.9115C75.4399 36.9812 75.5794 37.5096 75.5595 38.0279C75.5395 38.5462 75.9482 38.7257 76.4267 38.7057C78.738 38.4852 81.0582 39.0241 83.0356 40.2408C84.4246 41.0901 85.5699 42.285 86.3595 43.7088C87.1492 45.1326 87.5563 46.7368 87.5412 48.3649C87.5412 50.3585 87.5412 52.3787 87.5412 54.4255C87.5202 54.671 87.5521 54.9181 87.6346 55.1502C87.7171 55.3823 87.8484 55.5941 88.0197 55.7712C88.1767 55.9022 88.303 56.0661 88.3896 56.2512C88.4763 56.4364 88.5212 56.6383 88.5212 56.8428C88.5212 57.0472 88.4763 57.2492 88.3896 57.4343C88.303 57.6195 88.1767 57.7834 88.0197 57.9144C87.8686 58.067 87.7514 58.2497 87.6759 58.4506C87.6003 58.6516 87.568 58.8663 87.5811 59.0806C87.5811 64.3339 87.5811 69.597 87.5811 74.8503C87.5811 75.1294 87.5811 75.5082 87.7007 75.6577C88.6975 76.6545 88.5081 77.8906 88.4882 79.0867C88.4683 80.2829 88.7972 81.7881 87.6908 82.8946C87.5412 83.0441 87.5811 83.4229 87.5811 83.702C87.5811 84.9779 87.5811 86.2538 87.5811 87.5297C87.6571 88.7424 87.4946 89.9582 87.1026 91.1083C87.0128 91.3746 86.9723 91.6549 86.983 91.9357C86.983 98.2821 86.983 104.628 86.983 110.975C86.983 111.643 87.1724 111.972 87.8901 111.912C87.98 111.922 88.071 111.912 88.1572 111.885C88.2433 111.857 88.3228 111.812 88.3904 111.752C88.458 111.692 88.5123 111.618 88.5497 111.536C88.5872 111.454 88.607 111.364 88.6078 111.274C89.0564 108.802 90.2525 107.815 92.7645 107.805C94.0704 107.805 95.3762 107.805 96.682 107.805C97.1907 107.762 97.7025 107.831 98.1816 108.007C98.6607 108.183 99.0956 108.462 99.4556 108.824C99.8155 109.186 100.092 109.622 100.265 110.102C100.439 110.582 100.505 111.094 100.46 111.603V117.664C100.46 119.159 99.9715 119.657 98.5162 119.657H70.3262C69.6085 119.666 68.896 119.534 68.2297 119.267C67.5633 119 66.9562 118.604 66.4431 118.103C65.93 117.601 65.5211 117.002 65.2398 116.342C64.9585 115.682 64.8104 114.972 64.8039 114.254C64.8039 112.849 64.8039 111.453 64.8039 110.048C64.8295 109.818 64.7942 109.586 64.7015 109.374C64.6087 109.162 64.4618 108.979 64.2755 108.842C63.9817 108.653 63.7496 108.383 63.6078 108.064C63.4661 107.745 63.421 107.392 63.4781 107.047C63.7291 105.942 63.6082 104.785 63.1341 103.756C62.6601 102.727 61.8594 101.883 60.8564 101.356C60.1851 100.851 59.549 100.302 58.9525 99.7109C58.823 99.5912 58.6834 99.4018 58.484 99.5015C58.2847 99.6012 58.3445 99.8305 58.3445 100.01C58.3445 101.096 58.3445 102.183 58.3445 103.279C58.3445 107.386 58.3445 111.493 58.3445 115.6C58.301 115.89 58.3342 116.186 58.4409 116.459C58.5476 116.732 58.724 116.972 58.9525 117.155C59.1787 117.327 59.3389 117.571 59.4061 117.847C59.4732 118.123 59.4433 118.414 59.3214 118.67C59.2385 118.96 59.063 119.214 58.8217 119.394C58.5804 119.574 58.2867 119.67 57.9856 119.667H50.8883C50.6049 119.683 50.3241 119.605 50.0885 119.447C49.8528 119.289 49.6752 119.058 49.5825 118.79C49.449 118.519 49.4089 118.212 49.4684 117.916C49.528 117.621 49.6837 117.353 49.9114 117.155C50.1236 116.975 50.2876 116.745 50.3885 116.486C50.4895 116.226 50.5242 115.946 50.4896 115.67C50.4896 107.835 50.4896 99.9966 50.4896 92.155C50.5298 91.9074 50.5298 91.6549 50.4896 91.4074C49.6124 88.9652 49.9712 86.4233 49.9114 83.9113C49.9608 83.3536 49.7969 82.7979 49.4529 82.3563C49.1459 81.996 48.9858 81.5334 49.0043 81.0604C49.0043 79.9041 49.0043 78.7578 49.0043 77.6015C48.9685 77.253 49.0491 76.9025 49.2336 76.6047C50.0809 75.6079 49.8815 74.4515 49.9014 73.3251C49.9014 73.0759 49.9014 72.8267 49.9014 72.5775C49.8981 72.1827 50.046 71.8016 50.3148 71.5124C50.5836 71.2232 50.9529 71.0479 51.3468 71.0225C51.5432 71.0158 51.739 71.048 51.9229 71.117C52.1069 71.1861 52.2755 71.2907 52.419 71.4249C52.5625 71.5592 52.6781 71.7204 52.7593 71.8993C52.8404 72.0783 52.8855 72.2715 52.8919 72.4679C52.9439 73.1314 52.9439 73.798 52.8919 74.4615C52.8919 75.0995 53.1112 75.3487 53.7591 75.3387C55.1547 75.3387 56.5602 75.3387 57.9557 75.3387C66.4187 75.3387 74.9016 75.3387 83.3546 75.3387C84.2717 75.3387 84.5807 75.1194 84.5707 74.1525C84.5209 69.2681 84.5707 64.3737 84.5707 59.4893C84.5707 58.6221 84.2916 58.3629 83.4443 58.3829C81.3909 58.3829 79.3374 58.3829 77.284 58.3829C77.0253 58.3491 76.7633 58.4132 76.5494 58.5626C76.3355 58.7119 76.1851 58.9358 76.1277 59.1903C75.645 60.7531 74.6727 62.1193 73.3541 63.0872C72.0356 64.0552 70.4408 64.5735 68.8051 64.5657C67.1695 64.5579 65.5797 64.0244 64.2705 63.0439C62.9612 62.0634 62.0019 60.6879 61.5343 59.1205C61.4885 58.8961 61.3614 58.6966 61.1774 58.5604C60.9933 58.4243 60.7654 58.361 60.5375 58.3829C58.2979 58.3829 56.0551 58.3829 53.8089 58.3829C53.1211 58.3829 52.8819 58.642 52.8819 59.3199C52.8819 61.3135 52.8819 63.2473 52.8819 65.2011C52.9067 65.5129 52.9067 65.8263 52.8819 66.1381C52.8341 66.511 52.6537 66.8541 52.3736 67.1049C52.0936 67.3556 51.7327 67.4972 51.3568 67.5037C50.9611 67.4882 50.5868 67.3193 50.3133 67.0328C50.0399 66.7463 49.8886 66.3647 49.8915 65.9686C49.8915 64.9718 49.8915 63.975 49.8915 62.9782C49.8915 61.7421 49.8915 60.4961 49.8915 59.2501C49.9458 58.6595 49.8133 58.0667 49.5127 57.5555C49.3524 57.3392 49.266 57.0771 49.266 56.8079C49.266 56.5387 49.3524 56.2766 49.5127 56.0603C49.7889 55.6431 49.9089 55.1418 49.8516 54.6448C49.8516 53.7377 49.5825 53.5583 48.785 53.947C48.2624 54.1654 47.8125 54.5278 47.4878 54.9919C47.1631 55.456 46.977 56.0028 46.9509 56.5686C46.9509 57.0371 46.9509 57.5057 46.9509 57.9642V116.966C46.9658 117.463 46.9357 117.96 46.8612 118.451C46.8211 118.813 46.639 119.144 46.355 119.372C46.0709 119.6 45.7081 119.706 45.346 119.667C44.9809 119.673 44.6283 119.535 44.3637 119.283C44.099 119.032 43.9435 118.686 43.9305 118.321C43.902 117.99 43.902 117.656 43.9305 117.325C43.9305 112.41 43.9305 107.496 43.9305 102.582C43.9305 101.645 43.6813 101.296 42.7244 101.356C41.6355 101.42 40.5437 101.42 39.4548 101.356C38.6374 101.356 38.3783 101.605 38.3882 102.422C38.3882 107.406 38.3882 112.39 38.3882 117.374C38.4167 117.706 38.4167 118.04 38.3882 118.371C38.3962 118.768 38.2462 119.151 37.9714 119.437C37.6966 119.723 37.3195 119.888 36.9229 119.896C36.5264 119.904 36.1429 119.754 35.8569 119.48C35.5709 119.205 35.4057 118.828 35.3978 118.431C35.3429 118.125 35.3228 117.814 35.338 117.504C35.338 97.468 35.338 77.432 35.338 57.396C35.291 56.5 35.4323 55.604 35.7529 54.766C36.0735 53.9279 36.5663 53.1664 37.1993 52.5305C37.8324 51.8946 38.5917 51.3985 39.4283 51.0742C40.2649 50.7498 41.1603 50.6045 42.0565 50.6476C44.1399 50.7771 46.2232 50.6476 48.3165 50.6476C49.8815 50.6476 49.9115 50.6476 49.8815 49.1025C49.7827 46.9836 50.3624 44.8884 51.5362 43.1216C52.4141 41.788 53.6077 40.6917 55.011 39.93C56.4143 39.1684 57.9839 38.7649 59.5805 38.7556C60.0491 38.7556 60.5076 38.7556 60.9761 38.7556C61.4446 38.7556 61.9729 38.8453 61.9729 38.0578C61.9729 37.4397 61.9729 36.9812 61.1256 36.9613C60.9387 36.9499 60.7559 36.9016 60.5878 36.8191C60.4197 36.7365 60.2697 36.6215 60.1464 36.4805C60.0231 36.3396 59.9289 36.1756 59.8694 35.9981C59.8099 35.8205 59.7863 35.6329 59.7998 35.4461C59.8254 35.0698 59.9951 34.7178 60.2736 34.4635C60.5521 34.2091 60.918 34.0719 61.295 34.0805C62.0726 34.0805 62.8601 34.0805 63.6276 34.0805C64.2357 34.0805 64.4649 33.8512 64.4649 33.2531C64.4267 32.415 64.4534 31.5752 64.5447 30.7412C64.6766 29.2085 65.282 27.7548 66.2767 26.5814C67.2715 25.408 68.6065 24.5731 70.0969 24.1921L70.4458 24.0625H99.3734ZM68.7513 83.3032C63.7672 83.3032 58.8628 83.3032 53.9186 83.3032C53.1511 83.3032 52.862 83.5425 52.9218 84.3001C52.9717 85.6458 52.9218 86.9815 52.9218 88.2873C52.9218 89.5932 53.0015 89.5633 54.1977 89.5633H69.3095C69.8073 89.5527 70.305 89.5928 70.7947 89.6829C71.1416 89.723 71.4587 89.8983 71.677 90.1708C71.8954 90.4433 71.9974 90.7909 71.961 91.1382C71.9617 91.5039 71.8228 91.856 71.5728 92.1228C71.3227 92.3895 70.9802 92.5508 70.6153 92.5736C70.3066 92.5937 69.997 92.5937 69.6883 92.5736H59.421C59.0921 92.5736 58.7133 92.464 58.4242 92.773C58.2975 93.2411 58.2648 93.7297 58.3281 94.2105C58.3914 94.6913 58.5495 95.1547 58.793 95.574C60.8465 97.3783 62.9198 99.1725 64.9633 100.987C65.1459 101.154 65.3597 101.283 65.5924 101.367C65.825 101.45 66.072 101.487 66.319 101.475C67.8741 101.475 69.4291 101.475 70.9841 101.475C71.2633 101.486 71.5418 101.441 71.8036 101.344C72.0654 101.246 72.3052 101.098 72.5092 100.907C74.4331 99.1925 76.3869 97.5078 78.3307 95.8033C78.6651 95.4225 78.8973 94.9629 79.0054 94.4677C79.1135 93.9725 79.094 93.4579 78.9487 92.9724C78.5998 92.2048 77.8422 92.7032 77.284 92.5736C77.1046 92.5736 76.9052 92.5736 76.7258 92.5736C76.398 92.5264 76.0976 92.364 75.8785 92.1157C75.6593 91.8673 75.5357 91.5491 75.5296 91.218C75.4849 90.8913 75.5618 90.5596 75.7455 90.2858C75.9293 90.012 76.2072 89.8152 76.5264 89.7327C76.9459 89.623 77.3788 89.5726 77.8123 89.5832C79.5866 89.5832 81.361 89.5832 83.1353 89.5832C84.3116 89.5832 84.4611 89.4536 84.491 88.2475C84.5209 87.0413 84.491 85.6856 84.491 84.4197C84.491 83.4926 84.2019 83.2634 83.3147 83.2734C78.5101 83.3232 73.6357 83.3032 68.7513 83.3032ZM68.7513 41.8258H59.9792C59.4831 41.7987 58.9854 41.8221 58.494 41.8955C54.3373 42.7727 52.5131 46.0921 52.9617 50.199C52.9617 50.6077 53.2806 50.6875 53.6295 50.6875H55.6232C56.7197 50.6875 57.2978 51.2058 57.3178 52.1229C57.3377 53.04 56.7296 53.5882 55.5833 53.6081C55.055 53.6081 54.5267 53.6081 53.9983 53.6081C53.47 53.6081 52.9517 53.7178 53.0015 54.5152C53.0514 55.3127 53.3803 55.3725 53.9983 55.3725C56.1814 55.3725 58.3545 55.3725 60.5275 55.3725C60.7849 55.4131 61.0479 55.3514 61.2603 55.2005C61.4727 55.0495 61.6175 54.8214 61.6639 54.565C62.1549 53.0039 63.1326 51.641 64.454 50.6755C65.7754 49.7101 67.371 49.1929 69.0075 49.1995C70.644 49.2062 72.2354 49.7365 73.5489 50.7127C74.8623 51.6889 75.8288 53.0598 76.3071 54.6248C76.3416 54.8555 76.4656 55.0632 76.6522 55.2031C76.8387 55.343 77.0728 55.4038 77.3039 55.3725C79.477 55.3725 81.66 55.3725 83.8331 55.3725C84.4711 55.3725 84.7202 55.1731 84.7102 54.5152C84.7102 52.5216 84.7102 50.5279 84.7102 48.5343C84.716 47.6356 84.5406 46.7449 84.1944 45.9155C83.8483 45.086 83.3385 44.3349 82.6956 43.7068C82.0527 43.0788 81.2898 42.5868 80.4525 42.2602C79.6152 41.9335 78.7206 41.779 77.8223 41.8058C74.6823 41.8058 71.6918 41.8258 68.7114 41.8258H68.7513ZM68.8509 52.2524C68.2359 52.2511 67.6266 52.3719 67.0586 52.6078C66.4906 52.8438 65.9752 53.1902 65.5421 53.627C65.109 54.0638 64.767 54.5822 64.5359 55.1522C64.3048 55.7222 64.1892 56.3324 64.1958 56.9474C64.2017 57.564 64.329 58.1734 64.5703 58.7407C64.8117 59.3081 65.1625 59.8224 65.6026 60.2542C66.0428 60.686 66.5636 61.0269 67.1355 61.2574C67.7074 61.4879 68.3191 61.6035 68.9357 61.5976C69.5522 61.5917 70.1616 61.4644 70.729 61.223C71.2963 60.9816 71.8106 60.6309 72.2424 60.1907C72.6742 59.7506 73.0151 59.2297 73.2456 58.6579C73.4761 58.086 73.5917 57.4743 73.5858 56.8578C73.5795 56.2418 73.4502 55.6333 73.2055 55.0679C72.9608 54.5026 72.6057 53.9919 72.1609 53.5657C71.7161 53.1395 71.1907 52.8064 70.6154 52.586C70.0402 52.3656 69.4268 52.2624 68.8111 52.2823L68.8509 52.2524ZM68.5419 80.253C73.7652 80.253 78.9885 80.253 84.2218 80.253C85.0492 80.253 85.418 80.0237 85.3582 79.1366C85.2984 78.2494 84.7003 78.389 84.162 78.389H52.7324C52.234 78.389 52.0247 78.5883 51.9848 79.1066C51.915 79.934 52.1841 80.263 53.0713 80.253C58.2348 80.243 63.3983 80.253 68.5419 80.253ZM78.7892 99.4815C78.0371 100.191 77.245 100.856 76.4168 101.475C74.5129 102.741 73.5459 104.356 73.9646 106.699C74.0528 107.037 74.0434 107.394 73.9375 107.727C73.8317 108.06 73.6338 108.357 73.3665 108.582C72.3697 109.26 72.5591 110.207 72.5192 111.154C72.5192 111.772 72.7884 111.962 73.3665 111.952C74.8518 111.952 76.357 111.952 77.8322 111.952C78.7194 111.952 79.0384 111.693 79.0284 110.785C79.0284 107.307 79.0284 103.808 79.0284 100.349C79.0543 100.197 79.0481 100.041 79.0103 99.892C78.9725 99.7427 78.904 99.6029 78.8091 99.4815H78.7892ZM53.48 104.715C53.48 108.413 53.48 112.111 53.48 115.819C53.48 116.417 53.5398 116.816 54.3173 116.816C55.0948 116.816 55.3141 116.417 55.3141 115.73C55.3141 108.386 55.3141 101.047 55.3141 93.71C55.3141 93.0222 55.2344 92.6036 54.3173 92.6135C53.4003 92.6235 53.48 93.1019 53.48 93.7C53.5099 97.3683 53.4999 101.037 53.4999 104.715H53.48ZM82.0488 104.715C82.0488 108.423 82.0488 112.121 82.0488 115.819C82.0488 116.437 82.1385 116.816 82.8961 116.816C83.6537 116.816 83.8929 116.398 83.8331 115.72C83.8331 108.41 83.8331 101.07 83.8331 93.7C83.8331 93.0023 83.7334 92.6036 82.8363 92.6135C81.9391 92.6235 81.9989 93.1119 82.0089 93.71L82.0488 104.715ZM105.424 61.7023C105.424 62.8785 105.424 63.8653 105.424 64.8522C105.428 65.3196 105.391 65.7866 105.314 66.2477C105.127 67.2721 104.567 68.1906 103.741 68.8254C102.916 69.4603 101.884 69.7664 100.846 69.6846C99.8077 69.6027 98.8368 69.1387 98.1211 68.3823C97.4053 67.6259 96.9956 66.6309 96.9711 65.5898C96.9711 64.294 96.9711 63.0081 96.9711 61.6026C96.4449 62.1474 96.0313 62.7908 95.754 63.4957C95.4767 64.2006 95.3411 64.9532 95.355 65.7106C95.3689 66.4679 95.532 67.2151 95.835 67.9094C96.1379 68.6036 96.5748 69.2313 97.1206 69.7566C97.6849 70.2942 98.35 70.715 99.0775 70.9947C99.8051 71.2743 100.581 71.4073 101.36 71.386C102.139 71.3647 102.906 71.1895 103.618 70.8705C104.329 70.5515 104.97 70.095 105.504 69.5272C107.468 67.3143 107.517 63.5563 105.424 61.7023ZM94.4591 116.786C95.137 116.786 95.8248 116.786 96.4528 116.786C97.0807 116.786 97.32 116.597 97.31 115.979C97.31 114.583 97.31 113.188 97.31 111.792C97.31 111.154 97.0209 110.895 96.3929 110.905C95.0572 110.905 93.7215 110.905 92.4057 110.905C91.8076 110.905 91.5584 111.164 91.5683 111.752C91.5683 113.178 91.5683 114.603 91.5683 116.039C91.5683 116.627 91.8375 116.786 92.3758 116.776C92.914 116.766 93.7414 116.786 94.4591 116.786ZM74.2936 116.786C75.5396 116.786 76.7756 116.786 78.0216 116.786C78.6696 116.786 79.0783 116.697 79.0783 115.899C79.0783 115.102 78.6396 115.012 78.0017 115.012C75.9183 115.012 73.845 115.012 71.7616 115.012C71.4816 115.056 71.1953 115.037 70.9239 114.955C70.6525 114.873 70.4031 114.731 70.1942 114.539C69.9854 114.348 69.8224 114.111 69.7175 113.848C69.6127 113.585 69.5686 113.301 69.5886 113.018C69.5188 112.091 69.5886 111.154 69.5886 110.227C69.5886 109.619 69.3095 109.42 68.7313 109.42C68.1532 109.42 67.904 109.659 67.9239 110.247C67.9239 111.463 67.9239 112.669 67.9239 113.886C67.8757 114.275 67.9167 114.669 68.0437 115.04C68.1708 115.411 68.3807 115.748 68.6573 116.026C68.934 116.303 69.2702 116.514 69.6406 116.642C70.0109 116.771 70.4056 116.813 70.7947 116.766C71.9012 116.806 73.0874 116.786 74.2636 116.786H74.2936ZM41.1494 66.3773C41.8273 66.3773 42.5151 66.3773 43.1431 66.3773C43.6614 66.3773 43.8607 66.158 43.8508 65.6496C43.8508 64.5033 43.8508 63.357 43.8508 62.2107C43.8508 61.5827 43.5617 61.4032 42.9935 61.4231C42.1562 61.4231 41.3188 61.4231 40.4815 61.4231C37.9795 61.4231 38.3583 61.0842 38.3384 63.5962C38.3484 66.3873 38.3583 66.3873 41.1195 66.3773H41.1494ZM41.1494 74.4017C41.7974 74.4017 42.4553 74.4017 43.1431 74.4017C43.8309 74.4017 44.0103 74.2422 43.9903 73.6142C43.9903 72.4978 43.9903 71.3813 43.9903 70.2649C43.9903 69.6768 43.781 69.4076 43.1729 69.4176C41.8771 69.4176 40.5713 69.4176 39.2654 69.4176C38.6574 69.4176 38.458 69.6967 38.468 70.2749C38.468 71.3913 38.468 72.5077 38.468 73.6241C38.468 74.1724 38.6673 74.4216 39.2355 74.4017C39.8037 74.3818 40.4218 74.4017 41.0796 74.4017H41.1494ZM41.2491 77.3423C40.5613 77.3423 39.8735 77.3423 39.1957 77.3423C38.5178 77.3423 38.4181 77.5616 38.4281 78.1098C38.4281 79.2562 38.4281 80.4125 38.4281 81.5588C38.4281 82.127 38.6873 82.3264 39.2256 82.3164C40.5314 82.3164 41.8273 82.3164 43.1331 82.3164C43.7312 82.3164 43.9605 82.0573 43.9505 81.4691C43.9505 80.4125 43.9505 79.3558 43.9505 78.3092C43.9505 77.5018 43.6514 77.3124 42.9537 77.3124C42.2958 77.3722 41.7375 77.3323 41.1793 77.3423H41.2491ZM41.2491 85.3168C40.5713 85.3168 39.8934 85.3168 39.2555 85.3168C38.6175 85.3168 38.468 85.5062 38.478 86.0744C38.478 87.2174 38.478 88.3637 38.478 89.5134C38.478 90.0816 38.7272 90.2809 39.2654 90.271C40.0729 90.271 40.8803 90.271 41.6877 90.271C43.9903 90.271 43.9903 90.271 43.9903 87.9683C43.8707 85.3567 43.8707 85.3567 41.1793 85.3567L41.2491 85.3168ZM41.1395 98.2754C41.8173 98.2754 42.5051 98.2754 43.1331 98.2754C43.7611 98.2754 43.9106 98.0461 43.9007 97.4979C43.9007 96.3516 43.9007 95.2052 43.9007 94.0589C43.9007 93.5605 43.7212 93.3113 43.1929 93.3212H39.1059C38.5876 93.3212 38.3882 93.5406 38.3882 94.049C38.3882 95.1953 38.3882 96.3416 38.3882 97.4879C38.3882 98.1159 38.6673 98.2954 39.2355 98.2754C39.8037 98.2555 40.4516 98.3153 41.0697 98.3153L41.1395 98.2754ZM41.1395 58.333C41.7874 58.333 42.4453 58.333 43.1331 58.333C43.8209 58.333 44.0202 58.0738 43.9903 57.4458C43.9086 56.324 44.1216 55.2003 44.6084 54.1862C44.8875 53.6081 44.6084 53.5682 44.1399 53.5682C43.462 53.5682 42.7742 53.5682 42.1462 53.5682C39.7838 53.5682 38.5078 54.9638 38.5078 57.3362C38.5078 58.0439 38.6973 58.333 39.4548 58.333C39.8835 58.333 40.4815 58.3729 41.0697 58.3729L41.1395 58.333ZM68.8111 38.7257C69.8079 38.7257 70.7449 38.7257 71.7018 38.7257C72.3996 38.7257 72.5292 38.3867 72.5292 37.7986C72.5292 37.2105 72.3697 36.9414 71.7317 36.9513C69.7381 36.9513 67.7445 36.9513 65.7508 36.9513C65.1328 36.9513 64.9235 37.1706 64.9334 37.7687C64.9434 38.3668 64.9932 38.7655 65.7209 38.7655C66.6978 38.7356 67.7245 38.7655 68.7413 38.7655L68.8111 38.7257ZM68.7313 104.516C68.2329 104.516 67.7345 104.516 67.2461 104.516C66.7576 104.516 66.4387 104.765 66.4486 105.343C66.4586 105.921 66.4486 106.34 67.2161 106.34C68.1432 106.34 69.0702 106.34 69.9973 106.34C70.6452 106.34 70.9941 106.24 70.9941 105.443C70.9941 104.645 70.6652 104.446 69.9973 104.535C69.5387 104.615 69.0902 104.585 68.6615 104.585L68.7313 104.516ZM86.983 115.799C86.9132 116.397 87.0628 116.796 87.7606 116.727C88.4583 116.657 88.6078 116.527 88.5879 115.919C88.5679 115.311 88.5879 114.922 87.8303 114.922C87.0727 114.922 86.8135 115.221 86.9132 115.869L86.983 115.799Z" fill="#303B4D" stroke="#F7F7F7" stroke-width="0.66" stroke-miterlimit="10"/>
<path id="Vector_3" d="M70.1573 86.4545C70.164 86.6476 70.1318 86.8401 70.0628 87.0206C69.9938 87.2011 69.8893 87.3659 69.7555 87.5053C69.6216 87.6447 69.4612 87.7558 69.2837 87.8321C69.1062 87.9085 68.9151 87.9485 68.7219 87.9497C68.3304 87.9524 67.9535 87.8015 67.6721 87.5294C67.3906 87.2573 67.2271 86.8857 67.2167 86.4943C67.2141 86.3011 67.2497 86.1092 67.3215 85.9297C67.3934 85.7503 67.5 85.5868 67.6353 85.4488C67.7705 85.3107 67.9318 85.2008 68.1097 85.1253C68.2876 85.0499 68.4788 85.0104 68.6721 85.0091C68.8659 85.0009 69.0594 85.0324 69.2406 85.1016C69.4219 85.1708 69.5871 85.2763 69.7262 85.4117C69.8652 85.547 69.9752 85.7093 70.0493 85.8886C70.1235 86.0679 70.1602 86.2605 70.1573 86.4545Z" fill="#303B4D" stroke="#F7F7F7" stroke-width="0.66" stroke-miterlimit="10"/>
</g>
</svg>
