<svg width="145" height="145" viewBox="0 0 145 145" fill="none" xmlns="http://www.w3.org/2000/svg">
<g id="Component 10">
<path id="Vector" d="M119.462 0.22998H24.5648C11.0053 0.22998 0.0131836 11.2221 0.0131836 24.7815V119.678C0.0131836 133.238 11.0053 144.23 24.5648 144.23H119.462C133.021 144.23 144.013 133.238 144.013 119.678V24.7815C144.013 11.2221 133.021 0.22998 119.462 0.22998Z" fill="white"/>
<path id="Vector_2" d="M106.234 72.1803V92.1765C106.271 93.0158 106.136 93.8537 105.835 94.6383C105.535 95.423 105.077 96.1375 104.489 96.7376C103.901 97.3377 103.196 97.8106 102.418 98.1268C101.639 98.4431 100.804 98.5959 99.9644 98.5759H98.7383C98.3794 98.5759 98.22 98.7255 98.22 99.0943C98.22 100.021 98.22 100.938 98.22 101.865C98.22 102.234 98.3694 102.384 98.7383 102.384C99.1071 102.384 99.6753 102.384 100.154 102.384C100.441 102.374 100.727 102.423 100.994 102.528C101.262 102.633 101.505 102.792 101.709 102.994C101.912 103.197 102.072 103.439 102.179 103.706C102.286 103.973 102.336 104.259 102.328 104.546C102.32 104.833 102.253 105.115 102.131 105.376C102.01 105.636 101.836 105.869 101.621 106.059C101.406 106.25 101.155 106.395 100.882 106.484C100.609 106.574 100.32 106.607 100.034 106.58C97.4325 106.58 94.8208 106.58 92.2191 106.58C91.9442 106.592 91.6697 106.55 91.4112 106.455C91.1527 106.361 90.9153 106.217 90.7126 106.031C90.5099 105.845 90.3458 105.62 90.2297 105.371C90.1137 105.122 90.0479 104.852 90.0361 104.577C90.0243 104.302 90.0668 104.027 90.1611 103.769C90.2554 103.51 90.3997 103.273 90.5858 103.07C90.7718 102.868 90.9959 102.703 91.2454 102.587C91.4949 102.471 91.7648 102.406 92.0397 102.394C92.5077 102.364 92.9771 102.364 93.4452 102.394C93.8339 102.394 94.0233 102.254 94.0134 101.855C94.0134 100.948 94.0134 100.051 94.0134 99.1442C94.0134 98.7554 93.8539 98.5759 93.4651 98.5859H74.715C73.8179 98.5859 73.8179 98.5859 73.8179 99.4631C73.8179 100.34 73.8179 100.978 73.8179 101.736C73.8179 102.264 74.0073 102.424 74.5057 102.394C74.914 102.369 75.3235 102.369 75.7318 102.394C76.0189 102.384 76.305 102.433 76.5724 102.538C76.8399 102.643 77.083 102.802 77.2867 103.004C77.4904 103.207 77.6505 103.449 77.757 103.716C77.8635 103.983 77.9143 104.269 77.9061 104.556C77.8979 104.843 77.831 105.125 77.7094 105.386C77.5879 105.646 77.4143 105.879 77.1993 106.069C76.9844 106.26 76.7327 106.405 76.4597 106.494C76.1867 106.584 75.8983 106.617 75.6122 106.59C73.0338 106.59 70.4487 106.59 67.8569 106.59C67.5706 106.616 67.2821 106.583 67.0091 106.493C66.7361 106.403 66.4844 106.258 66.2697 106.067C66.0549 105.875 65.8817 105.642 65.7606 105.381C65.6395 105.121 65.5732 104.838 65.5657 104.551C65.5582 104.263 65.6097 103.977 65.717 103.711C65.8243 103.444 65.9851 103.202 66.1895 103C66.394 102.798 66.6377 102.64 66.9056 102.535C67.1735 102.431 67.46 102.383 67.7473 102.394C68.1959 102.394 68.6444 102.394 69.093 102.394C69.5415 102.394 69.6113 102.224 69.6113 101.865C69.6113 100.968 69.6113 100.061 69.6113 99.164C69.6113 98.7354 69.422 98.5759 69.0133 98.5859C68.173 98.6309 67.3303 98.5807 66.5013 98.4364C65.111 98.1526 63.8622 97.3954 62.9679 96.2938C62.0735 95.1922 61.5891 93.8146 61.597 92.3957C61.597 91.8774 61.597 91.3989 61.597 90.8606C61.597 90.5217 61.4474 90.3722 61.1085 90.3821H60.1117C59.7939 90.3342 59.4692 90.362 59.1642 90.4631C58.8591 90.5642 58.5822 90.7358 58.356 90.964C58.1297 91.1922 57.9604 91.4706 57.8619 91.7765C57.7635 92.0824 57.7385 92.4073 57.7891 92.7246C57.7891 95.1702 57.7891 97.6123 57.7891 100.051C57.838 100.99 57.6711 101.927 57.3013 102.791C56.9315 103.655 56.3686 104.423 55.6559 105.035C54.8176 105.805 53.7707 106.31 52.6465 106.488C51.5223 106.665 50.3706 106.506 49.3361 106.032C48.2398 105.639 47.2921 104.917 46.6228 103.964C45.9536 103.01 45.5955 101.874 45.598 100.709C45.5183 96.2035 45.598 91.7378 45.598 87.1724C45.598 86.3251 45.598 86.325 44.7408 86.325C44.3919 86.325 44.043 86.325 43.744 86.325C43.4486 86.3317 43.1553 86.2762 42.8829 86.162C42.6105 86.0477 42.3652 85.8773 42.163 85.662C41.9608 85.4466 41.8062 85.1911 41.7094 84.9121C41.6125 84.633 41.5756 84.3367 41.6008 84.0424C41.6008 82.3545 41.6008 80.6698 41.6008 78.9885C41.6008 78.4402 41.4613 78.191 40.8831 78.2509C40.4715 78.2758 40.0587 78.2758 39.6471 78.2509C39.1692 78.257 38.705 78.0913 38.3391 77.784C37.9732 77.4766 37.7298 77.048 37.6534 76.5763C37.5886 76.2145 37.5585 75.8473 37.5637 75.4798C37.5637 67.8641 37.5637 60.2551 37.5637 52.6527C37.5637 50.7587 38.3412 49.9912 40.2152 49.9912C45.1993 49.9912 50.1834 49.9912 55.2373 49.9912C55.5983 49.9488 55.9642 49.9893 56.3073 50.1096C56.6503 50.2298 56.9615 50.4266 57.2171 50.6851C57.4727 50.9436 57.666 51.2569 57.7824 51.6012C57.8988 51.9456 57.9352 52.3121 57.8888 52.6727C57.8888 57.577 57.8888 62.4813 57.8888 67.3757V75.6292C57.9255 76.184 57.8118 76.7385 57.5598 77.2341C57.3996 77.5298 57.164 77.7779 56.8769 77.953C56.5897 78.1281 56.2613 78.2239 55.9251 78.2309C55.4537 78.2608 54.9809 78.2608 54.5096 78.2309C53.9812 78.2309 53.8417 78.4203 53.8417 78.9088C53.8417 80.5735 53.8417 82.2382 53.8417 83.8929C53.8792 84.2119 53.8458 84.5353 53.7439 84.8399C53.6421 85.1445 53.4742 85.4229 53.2524 85.6552C53.0306 85.8875 52.7602 86.068 52.4606 86.1838C52.161 86.2996 51.8395 86.3478 51.5191 86.325H51.3297C49.7946 86.325 49.7946 86.3251 49.7946 87.8502V99.812C49.7946 100.031 49.7946 100.261 49.7946 100.49C49.8036 100.742 49.8624 100.989 49.9678 101.218C50.0731 101.447 50.2228 101.653 50.4083 101.823C50.5937 101.994 50.8112 102.126 51.0481 102.212C51.285 102.298 51.5366 102.336 51.7883 102.324C52.0435 102.323 52.2959 102.27 52.5297 102.168C52.7636 102.065 52.974 101.916 53.1478 101.729C53.3216 101.543 53.4552 101.322 53.5403 101.081C53.6254 100.841 53.6601 100.585 53.6423 100.33C53.6423 97.6589 53.6423 94.9974 53.6423 92.3558C53.634 90.9051 54.1355 89.4977 55.0592 88.379C55.9829 87.2604 57.2701 86.5016 58.6962 86.2354C59.4258 86.1308 60.165 86.1108 60.8992 86.1756C61.4674 86.1756 61.6468 86.0161 61.6468 85.448C61.6468 81.4009 61.6468 77.3637 61.6468 73.3266C61.6468 66.2692 61.6468 59.2117 61.6468 52.1543C61.6105 51.0608 61.8689 49.9776 62.3951 49.0183C62.9212 48.059 63.6956 47.2588 64.6372 46.7016C65.5882 46.1205 66.6827 45.8168 67.7971 45.8245C69.5017 45.8245 71.2062 45.8245 72.9108 45.8245C73.5488 45.8245 73.7082 45.6151 73.6983 45.0071C73.6983 43.4122 73.6983 41.8074 73.6983 40.2125C73.6496 39.8831 73.6786 39.5468 73.7831 39.2307C73.8876 38.9146 74.0647 38.6274 74.3002 38.392C74.5356 38.1566 74.8228 37.9796 75.1389 37.8751C75.455 37.7706 75.7912 37.7414 76.1205 37.7901H91.8603C92.1732 37.7514 92.4909 37.7845 92.7892 37.887C93.0874 37.9895 93.3583 38.1586 93.5813 38.3816C93.8043 38.6046 93.9735 38.8757 94.076 39.1739C94.1785 39.4721 94.2117 39.7897 94.1729 40.1027C94.1729 41.8073 94.1729 43.5018 94.1729 45.2064C94.1729 45.6749 94.3224 45.8145 94.7809 45.8046C96.5154 45.8046 98.2598 45.8046 100.004 45.8046C100.827 45.7869 101.645 45.9359 102.409 46.2428C103.173 46.5496 103.867 47.0078 104.449 47.5899C105.031 48.172 105.489 48.8659 105.796 49.6298C106.103 50.3936 106.252 51.2117 106.234 52.0347V72.1803ZM94.0134 80.2844C94.0134 75.8286 94.0134 71.3828 94.0134 66.937C94.0134 66.329 93.8639 66.1097 93.2259 66.1097C87.0124 66.1097 80.7989 66.1097 74.5854 66.1097C73.9774 66.1097 73.8378 66.309 73.8378 66.8871C73.8378 75.7854 73.8378 84.6836 73.8378 93.5819C73.8378 94.2198 74.0272 94.3794 74.6452 94.3794C80.8155 94.3794 86.9858 94.3794 93.1661 94.3794C94.0034 94.3794 94.0134 94.3794 94.0134 93.5122V80.2844ZM41.7304 64.1459C41.7304 67.2659 41.7304 70.376 41.7304 73.496C41.7304 73.9944 41.87 74.1839 42.3883 74.1739C45.917 74.1739 49.4458 74.1739 52.9745 74.1739C53.4928 74.1739 53.6324 73.9746 53.6224 73.4862C53.6224 67.2727 53.6224 61.0591 53.6224 54.8456C53.6224 54.3572 53.4729 54.2376 52.9845 54.2376C49.4424 54.2376 45.8971 54.2376 42.3484 54.2376C41.86 54.2376 41.7205 54.3572 41.7205 54.8456C41.7404 57.9756 41.7304 61.0558 41.7304 64.1459ZM83.9754 53.8987H100.632C102.317 53.8987 102.018 54.0881 102.078 52.4732C102.119 52.1527 102.087 51.8271 101.984 51.5208C101.881 51.2145 101.709 50.9356 101.483 50.7052C101.256 50.4748 100.98 50.2989 100.676 50.1907C100.371 50.0826 100.046 50.045 99.7252 50.0808C89.1888 50.0808 78.6524 50.0808 68.1061 50.0808H67.7373C67.4767 50.0717 67.217 50.1176 66.9753 50.2157C66.7336 50.3137 66.5153 50.4617 66.3346 50.6498C66.154 50.838 66.0152 51.0621 65.9271 51.3076C65.839 51.5531 65.8037 51.8144 65.8235 52.0745C65.8235 52.4034 65.8235 52.7324 65.8235 53.0713C65.8235 53.9186 65.8234 53.9285 66.6707 53.9285L83.9754 53.8987ZM98.22 80.1748V92.4854C98.22 94.5488 98.2199 94.5488 100.313 94.3594C100.715 94.3209 101.094 94.1566 101.396 93.8899C101.699 93.6231 101.909 93.2677 101.998 92.8742C102.073 92.4936 102.103 92.1055 102.088 91.7178V67.6049C102.088 67.3159 102.088 67.0268 102.088 66.7377C102.088 66.2991 101.948 66.1097 101.48 66.1197C100.662 66.1197 99.8448 66.1197 99.0174 66.1197C98.19 66.1197 98.21 66.1196 98.21 66.937L98.22 80.1748ZM65.8433 79.6364V92.2362C65.8098 92.5244 65.842 92.8166 65.9373 93.0907C66.0327 93.3647 66.1888 93.6136 66.394 93.8188C66.5991 94.024 66.8481 94.1801 67.1222 94.2755C67.3962 94.3708 67.6883 94.4029 67.9765 94.3694C68.3254 94.3694 68.6743 94.3694 68.9734 94.3694C69.2724 94.3694 69.5914 94.2199 69.6014 93.7713C69.6014 88.0895 69.5216 82.4175 69.6711 76.7357C69.6711 75.2305 69.6113 73.7453 69.6014 72.2002C69.6014 70.406 69.6014 68.6017 69.6014 66.7975C69.6014 66.2891 69.4319 66.0997 68.9235 66.1197C68.166 66.1197 67.4083 66.1197 66.6508 66.1197C65.8932 66.1197 65.7935 66.1197 65.7935 66.957L65.8433 79.6364ZM83.9854 58.1152C80.8454 58.1152 77.7154 58.1152 74.5755 58.1152C74.0073 58.1152 73.8179 58.2847 73.8478 58.8529C73.8478 59.7101 73.8478 60.5773 73.8478 61.4346C73.8478 61.8632 74.0173 62.0028 74.426 62.0028H93.4353C93.8539 62.0028 94.0233 61.8433 94.0134 61.4246C94.0134 60.5873 94.0134 59.7401 94.0134 58.9028C94.0134 58.2648 93.804 58.1053 93.196 58.1152C90.1357 58.1252 87.0556 58.1152 83.9854 58.1152ZM83.5867 42.0765C82.0915 42.0765 80.2673 42.1462 78.4431 42.0166C78.0643 42.0166 77.8749 42.1064 77.8849 42.525C77.8849 43.4521 77.8849 44.3791 77.8849 45.2962C77.8849 45.7149 78.0245 45.8843 78.4531 45.8843H89.4181C89.8567 45.8843 89.9862 45.7049 89.9763 45.2962C89.9763 44.4489 89.9763 43.6115 89.9763 42.7742C89.9763 42.226 89.7869 42.0566 89.2586 42.0665C87.5241 42.0865 85.68 42.0765 83.5867 42.0765ZM100.174 58.1152H98.6984C98.3695 58.1152 98.22 58.2548 98.22 58.5937C98.22 59.5905 98.22 60.5873 98.22 61.5841C98.22 61.8931 98.3595 62.0326 98.6685 62.0326H101.659C101.998 62.0326 102.137 61.9031 102.127 61.5642C102.127 60.5674 102.127 59.6403 102.127 58.6734C102.127 58.3145 101.988 58.155 101.619 58.165L100.174 58.1152ZM69.6412 60.0292V58.6236C69.6412 58.3046 69.5316 58.1152 69.1827 58.1152H66.2919C66.2307 58.1048 66.1679 58.1092 66.1087 58.128C66.0495 58.1469 65.9956 58.1796 65.9517 58.2235C65.9078 58.2675 65.875 58.3213 65.8562 58.3805C65.8373 58.4397 65.8329 58.5025 65.8433 58.5637C65.8433 59.5606 65.8433 60.5574 65.8433 61.5542C65.8433 61.8931 65.9929 62.0328 66.3318 62.0228H69.1528C69.4917 62.0228 69.6412 61.8831 69.6412 61.5442V60.0292ZM47.7113 82.1784H49.0072C49.386 82.1784 49.5654 82.0488 49.5654 81.65C49.5654 80.6532 49.5654 79.7661 49.5654 78.8191C49.5654 78.4702 49.4258 78.3008 49.057 78.3107H46.2858C45.927 78.3107 45.7575 78.4303 45.7575 78.8091C45.7575 79.8059 45.7575 80.733 45.7575 81.6899C45.7575 82.0687 45.9569 82.1883 46.3058 82.1784H47.7113Z" fill="#2F3A4C" stroke="white" stroke-miterlimit="10"/>
<path id="Vector_3" d="M49.7349 60.1685C49.7309 60.5759 49.6069 60.9733 49.3784 61.3107C49.15 61.6481 48.8271 61.9107 48.4503 62.0657C48.0734 62.2207 47.6591 62.2612 47.2594 62.1822C46.8596 62.1031 46.492 61.908 46.2025 61.6212C45.913 61.3344 45.7144 60.9686 45.6316 60.5696C45.5487 60.1706 45.5853 59.7561 45.7367 59.3778C45.8881 58.9994 46.1477 58.6742 46.4829 58.4425C46.8181 58.2109 47.2142 58.083 47.6217 58.0752C47.8986 58.0712 48.1735 58.1225 48.4304 58.2261C48.6873 58.3296 48.921 58.4833 49.1177 58.6782C49.3145 58.8731 49.4704 59.1053 49.5764 59.3612C49.6824 59.6171 49.7363 59.8915 49.7349 60.1685Z" fill="#2F3A4C" stroke="white" stroke-miterlimit="10"/>
<path id="Vector_4" d="M45.5971 68.2229C45.5774 67.9392 45.6163 67.6545 45.7113 67.3865C45.8064 67.1184 45.9555 66.8727 46.1495 66.6648C46.3435 66.4568 46.5782 66.291 46.839 66.1777C47.0998 66.0643 47.3812 66.0059 47.6656 66.0059C47.9499 66.0059 48.2313 66.0643 48.4921 66.1777C48.7529 66.291 48.9876 66.4568 49.1816 66.6648C49.3756 66.8727 49.5247 67.1184 49.6198 67.3865C49.7148 67.6545 49.7537 67.9392 49.734 68.2229C49.7537 68.5066 49.7148 68.7913 49.6198 69.0593C49.5247 69.3274 49.3756 69.573 49.1816 69.7809C48.9876 69.9889 48.7529 70.1546 48.4921 70.268C48.2313 70.3814 47.9499 70.4399 47.6656 70.4399C47.3812 70.4399 47.0998 70.3814 46.839 70.268C46.5782 70.1546 46.3435 69.9889 46.1495 69.7809C45.9555 69.573 45.8064 69.3274 45.7113 69.0593C45.6163 68.7913 45.5774 68.5066 45.5971 68.2229Z" fill="#2F3A4C" stroke="white" stroke-miterlimit="10"/>
</g>
</svg>
