<svg width="145" height="145" viewBox="0 0 145 145" fill="none" xmlns="http://www.w3.org/2000/svg">
<g id="Component 10">
<path id="Vector" d="M119.462 0.22998H24.5648C11.0053 0.22998 0.0131836 11.2221 0.0131836 24.7815V119.678C0.0131836 133.238 11.0053 144.23 24.5648 144.23H119.462C133.021 144.23 144.013 133.238 144.013 119.678V24.7815C144.013 11.2221 133.021 0.22998 119.462 0.22998Z" fill="white"/>
<path id="Vector_2" d="M75.6607 27.4231C75.9339 28.4665 76.0448 29.5457 75.9896 30.6228C76.0793 31.5 75.9896 32.3772 75.9896 33.2544C76.0593 40.6209 76.1491 47.9974 76.179 55.3639C76.179 56.3607 76.807 57.0484 77.0263 57.9156C77.0861 58.125 77.2754 58.135 77.4648 58.0951C77.6378 58.0673 77.808 58.0239 77.9732 57.9655C79.7475 57.1581 81.1232 57.6765 82.6284 58.8826C88.1807 63.3284 93.8526 67.6147 99.4746 71.9609C100.471 72.7085 100.471 72.9576 99.9032 74.0142L98.4678 76.7256C97.8797 77.8221 97.5707 77.9119 96.4742 77.3237L75.7603 66.3588L75.3715 66.1593C74.8034 65.8204 74.5741 65.9799 74.6139 66.6278C74.7535 69.1398 74.8732 71.6119 75.0227 74.1538C75.1722 76.6957 75.3516 79.0482 75.5011 81.5003C75.84 86.9828 76.1889 92.4653 76.4979 97.9478C76.6973 101.387 76.8966 104.826 77.0761 108.275C77.1558 110.009 77.1259 110.009 78.8404 110.019H81.492C81.6264 110.005 81.7622 110.021 81.8895 110.066C82.0169 110.111 82.1325 110.184 82.2281 110.28C82.3236 110.376 82.3966 110.491 82.4417 110.619C82.4868 110.746 82.5029 110.882 82.4888 111.016C82.4888 112.77 82.4888 114.525 82.4888 116.279C82.4888 117.166 81.9306 117.276 81.2029 117.276H65.4034C64.3268 117.276 63.2403 117.276 62.1637 117.276C61.3563 117.276 60.9676 116.967 60.9776 116.14C60.9776 114.475 60.9776 112.8 60.9776 111.156C60.9776 110.348 61.3264 109.969 62.1338 109.979C63.2502 109.979 64.3568 109.979 65.4732 109.979C66.0115 109.979 66.2906 109.81 66.3205 109.252C66.4002 108.026 66.5099 106.81 66.5897 105.583C67.0017 98.938 67.4037 92.2594 67.7958 85.5475C68.0549 81.2313 68.2942 76.915 68.5434 72.5889C68.6331 71.1634 68.7327 69.728 68.8523 68.3025C68.9321 67.3057 68.8523 67.1861 67.8555 67.5948L47.4308 75.7986C46.2047 76.287 46.095 76.2471 45.3375 75.1606L43.6429 72.7085C43.0149 71.7715 43.0847 71.4424 44.0117 70.8643C50.6306 66.7873 57.2693 62.7204 63.8682 58.6135C65.5184 57.7914 67.0424 56.7374 68.3938 55.4835C68.7926 55.0449 68.9421 54.7458 68.3938 54.377C66.789 53.2506 66.5597 51.8252 66.8986 49.9013C68.1446 42.9236 69.1913 35.8362 70.3078 28.7887C70.3154 28.6281 70.3548 28.4705 70.4237 28.3252C70.4927 28.1799 70.5897 28.0497 70.7093 27.9422C70.8289 27.8346 70.9687 27.7519 71.1205 27.6987C71.2723 27.6455 71.433 27.623 71.5936 27.6324C72.2913 27.6324 72.9792 27.4431 73.667 27.3434L75.6607 27.4231ZM71.3245 110.019C72.2615 110.089 73.4875 109.93 74.7136 109.93C75.4014 109.93 75.7105 109.7 75.6207 109.002C75.4712 106.79 75.3616 104.577 75.232 102.354C74.9529 97.7485 74.6671 93.1465 74.3747 88.5479C74.1853 85.4279 74.0159 82.3078 73.8265 79.1878C73.5474 74.7619 73.2583 70.326 72.9891 65.9002C72.9194 64.694 72.71 64.4847 71.5139 64.3053C70.7762 64.1856 70.6167 64.4349 70.6067 65.1227C70.6067 66.608 70.4871 68.1131 70.3974 69.5785C70.1781 73.1072 69.9488 76.6359 69.7395 80.1547C69.5999 82.4274 69.4804 84.7101 69.3409 86.9828C69.1315 90.2723 68.9023 93.5618 68.6929 96.8513C68.5201 99.5627 68.354 102.274 68.1945 104.985C68.1148 106.351 68.0748 107.727 67.9751 109.092C67.9153 109.85 68.2243 110.089 68.9719 110.029C69.7195 109.969 70.3377 110.019 71.3245 110.019ZM74.315 63.8368L75.202 64.3252L95.3677 74.9513C97.1421 75.8883 97.1021 75.8883 98.0591 74.1438C98.1591 74.0211 98.2299 73.8773 98.2663 73.7232C98.3027 73.5691 98.3036 73.4088 98.2691 73.2543C98.2346 73.0998 98.1654 72.9552 98.0669 72.8313C97.9683 72.7073 97.843 72.6074 97.7002 72.539C95.2281 70.6749 92.7859 68.7611 90.3338 66.8672L80.8241 59.5405C80.2163 59.3551 79.5774 59.2941 78.9454 59.3609C78.3135 59.4276 77.7015 59.6209 77.1459 59.9292C77.0791 60.0244 77.0348 60.1335 77.0163 60.2483C76.8477 60.9977 76.5248 61.7038 76.0683 62.3216C75.6118 62.9394 75.0316 63.4555 74.3647 63.8368H74.315ZM66.789 58.9624C66.4301 58.8726 66.2407 59.092 66.0314 59.2315C59.5853 63.2188 53.1425 67.1827 46.7031 71.1235C45.0982 72.1203 45.1282 72.1203 46.1449 73.6853C46.2004 73.8161 46.2832 73.9335 46.3878 74.0297C46.4924 74.1259 46.6163 74.1986 46.7513 74.243C46.8863 74.2874 47.0292 74.3023 47.1705 74.2869C47.3117 74.2715 47.448 74.2262 47.5703 74.1538C54.1692 71.4956 60.7782 68.8375 67.397 66.1793C67.8297 65.8778 68.1926 65.4867 68.4609 65.0327C68.7292 64.5786 68.8967 64.0722 68.9521 63.5477C68.912 63.3791 68.8174 63.2285 68.6829 63.1191C68.104 62.5921 67.641 61.9504 67.3235 61.2348C67.006 60.5191 66.841 59.7452 66.8389 58.9624H66.789ZM74.5542 47.4491H74.3448V32.7262C74.3448 31.7294 74.3448 30.7924 74.3448 29.8254C74.3448 29.5762 74.4246 29.2273 74.1155 29.1376C73.4474 29.0431 72.7666 29.0976 72.1219 29.2971C71.6833 29.3768 71.783 29.8753 71.7331 30.1943C70.7363 36.6437 69.7396 43.1528 68.5733 49.5523C68.2543 51.3566 68.4238 52.7123 69.9389 53.8088C70.0939 53.9586 70.2823 54.0693 70.4886 54.1317C70.6949 54.1941 70.9131 54.2064 71.1251 54.1676C72.0145 53.942 72.9546 54.03 73.7866 54.4168C74.4744 54.7258 74.5642 54.4169 74.5642 53.8487C74.5941 51.7155 74.604 49.5823 74.604 47.4491H74.5542ZM71.7033 115.831C74.5044 115.831 77.3153 115.831 80.1164 115.831C80.7444 115.831 81.0434 115.671 81.0036 114.993C81.0036 114.116 81.0036 113.239 81.0036 112.362C81.0036 111.833 80.8441 111.554 80.256 111.554H63.2402C62.6521 111.554 62.4827 111.823 62.4926 112.362C62.5375 113.178 62.5375 113.997 62.4926 114.814C62.4229 115.661 62.7818 115.811 63.5593 115.811C66.3105 115.811 69.0318 115.831 71.7531 115.831H71.7033ZM68.4337 59.2215C68.4475 59.9229 68.6677 60.6047 69.0667 61.1817C69.4658 61.7587 70.026 62.2051 70.6774 62.4654C71.3289 62.7257 72.0427 62.7882 72.7295 62.6452C73.4162 62.5021 74.0456 62.1598 74.5389 61.661C75.0322 61.1622 75.3676 60.5292 75.5031 59.8409C75.6386 59.1526 75.5682 58.4396 75.3007 57.791C75.0333 57.1425 74.5805 56.5871 73.9992 56.1945C73.4179 55.8018 72.7337 55.5891 72.0322 55.5831C71.0891 55.6118 70.1948 56.0086 69.5408 56.6887C68.8868 57.3688 68.5251 58.278 68.5334 59.2215H68.4337Z" fill="#2F3A4C" stroke="#2F3A4C" stroke-width="0.6" stroke-miterlimit="10"/>
</g>
</svg>
