<svg width="145" height="144" viewBox="0 0 145 144" fill="none" xmlns="http://www.w3.org/2000/svg">
<g id="Component 10">
<path id="Vector" d="M119.948 0H25.0516C11.4921 0 0.5 10.9921 0.5 24.5516V119.448C0.5 133.008 11.4921 144 25.0516 144H119.948C133.508 144 144.5 133.008 144.5 119.448V24.5516C144.5 10.9921 133.508 0 119.948 0Z" fill="white"/>
<path id="Vector_2" d="M23.526 105.264C23.9861 103.959 24.9376 102.886 26.1776 102.274C26.666 102.034 26.6062 101.586 26.6062 101.167C26.6062 97.5254 26.6062 93.8704 26.6062 90.2021C26.6062 88.8763 26.6062 88.8663 27.8921 88.8663C29.8857 88.8663 29.6863 88.7368 29.6963 90.6706C29.6963 93.98 29.6963 97.2894 29.6963 100.639C29.6963 101.506 29.9854 101.775 30.8327 101.765C34.3149 101.765 37.7905 101.765 41.2594 101.765C42.1267 101.765 42.3858 101.476 42.3858 100.619C42.3858 94.6379 42.3858 88.6571 42.3858 82.6163C42.3858 81.2806 42.3859 81.2606 43.7714 81.2606C45.5757 81.2606 47.3798 81.2606 49.1741 81.2606C49.9616 81.2606 50.2905 81.0513 50.2805 80.204C50.2805 76.6952 50.2805 73.2263 50.2805 69.6776C50.2805 68.9599 50.0413 68.6808 49.2837 68.6808C45.2965 68.6808 41.2195 68.6808 37.1824 68.6808C35.3648 68.7651 33.6352 69.4882 32.2986 70.7228C30.9619 71.9573 30.1039 73.6241 29.8758 75.4293C29.6681 78.5682 29.6249 81.7158 29.7462 84.8592C29.7462 85.856 29.3774 86.2248 28.4304 86.1251C28.2349 86.1052 28.0377 86.1052 27.8422 86.1251C26.9251 86.2248 26.5763 85.8659 26.5962 84.899C26.656 82.078 26.5962 79.2571 26.5962 76.4361C26.5962 73.528 27.7515 70.739 29.8079 68.6826C31.8642 66.6263 34.6531 65.4711 37.5612 65.4711C41.5484 65.4711 45.4361 65.4711 49.3636 65.4711C49.6828 65.5085 50.0059 65.4486 50.2905 65.2992C50.5751 65.1497 50.8079 64.9178 50.9584 64.6338C51.3751 63.922 51.9731 63.3334 52.6914 62.928C53.4097 62.5226 54.2227 62.3149 55.0474 62.326C55.8722 62.3371 56.6792 62.5667 57.3863 62.9914C58.0933 63.4161 58.6752 64.0206 59.0725 64.7434C59.1936 64.9871 59.3866 65.1877 59.6256 65.3178C59.8645 65.448 60.1378 65.5016 60.4082 65.4711C63.289 65.4113 62.8005 65.8399 62.8404 63.1186C62.8404 61.6433 62.8404 60.1282 62.8404 58.6928C62.8404 57.8156 63.1594 57.5264 63.9967 57.5763C64.8341 57.6261 65.7611 57.5763 66.6483 57.5763C67.3162 57.5763 67.6451 57.3769 67.5852 56.6792C67.5852 53.6887 67.5852 50.6983 67.5852 47.7078C67.5979 47.2808 67.4642 46.8623 67.2065 46.5216C66.1897 45.1925 65.1929 43.8634 64.216 42.5344C64.0698 42.3187 63.8694 42.1452 63.635 42.0315C63.4005 41.9178 63.1402 41.8677 62.8803 41.8864C62.1272 41.8979 61.3743 41.8546 60.6275 41.7568C59.4572 41.586 58.3941 40.9808 57.6499 40.0615C56.9058 39.1422 56.5351 37.9764 56.6118 36.7962C56.6884 35.6159 57.2068 34.5078 58.0637 33.6925C58.9205 32.8773 60.0529 32.4147 61.2355 32.3968C69.7018 32.3968 78.1649 32.3968 86.6245 32.3968C87.831 32.3837 88.9963 32.8346 89.8797 33.6563C90.7632 34.478 91.2972 35.6077 91.3714 36.812C91.4457 38.0162 91.0545 39.203 90.2786 40.127C89.5028 41.0509 88.4016 41.6416 87.2026 41.7768C86.9168 41.8532 86.6211 41.8868 86.3254 41.8764C84.5611 41.5375 83.7039 42.6141 82.6472 43.8103C81.7334 44.7839 81.0452 45.947 80.6317 47.2167C80.2182 48.4865 80.0896 49.8317 80.2549 51.1568C80.3645 52.956 80.3645 54.7603 80.2549 56.5596C80.2549 57.3072 80.4642 57.6361 81.2517 57.5564C82.0392 57.4766 83.0858 57.5564 84.0029 57.5564C84.7206 57.5564 84.9997 57.8255 84.9997 58.5532C84.9997 60.5468 84.9997 62.5404 84.9997 64.4543C84.9997 65.2418 85.2788 65.5409 85.9965 65.4511C86.2582 65.4213 86.5223 65.4213 86.7839 65.4511C87.2254 65.5287 87.6802 65.4632 88.0819 65.2642C88.4836 65.0651 88.8111 64.743 89.0168 64.3447C89.4525 63.6941 90.0467 63.1651 90.7432 62.8074C91.4397 62.4497 92.2158 62.2751 92.9984 62.3C93.7811 62.3249 94.5445 62.5486 95.2168 62.9499C95.8892 63.3512 96.4484 63.9169 96.8419 64.5939C96.9909 64.8766 97.2195 65.1093 97.4995 65.2635C97.7794 65.4176 98.0983 65.4863 98.4168 65.4611C102.215 65.4611 106.022 65.4611 109.82 65.4611C111.325 65.4156 112.824 65.6783 114.224 66.2332C115.624 66.788 116.895 67.6233 117.96 68.6876C119.026 69.7519 119.862 71.0227 120.418 72.422C120.974 73.8214 121.238 75.3197 121.194 76.8248C121.194 84.7993 121.194 92.7738 121.194 100.748C121.152 101.115 121.225 101.487 121.404 101.81C121.582 102.134 121.857 102.393 122.191 102.553C123.056 103.086 123.724 103.887 124.094 104.833C124.465 105.78 124.517 106.821 124.243 107.8C123.97 108.779 123.386 109.643 122.578 110.261C121.771 110.878 120.785 111.217 119.769 111.225C114.452 111.225 109.136 111.225 103.82 111.225C102.811 111.218 101.831 110.885 101.026 110.276C100.222 109.667 99.635 108.815 99.3538 107.846C99.0698 106.875 99.111 105.839 99.4709 104.894C99.8309 103.949 100.49 103.148 101.347 102.612C101.678 102.447 101.95 102.184 102.128 101.86C102.306 101.536 102.381 101.166 102.344 100.798C102.344 95.8142 102.344 90.8301 102.344 85.846C102.344 84.4604 102.344 84.4604 100.909 84.4604C100.577 84.4808 100.244 84.4808 99.912 84.4604C99.2397 84.3278 98.5429 84.4015 97.9132 84.6719C97.2834 84.9423 96.7502 85.3968 96.3833 85.9756C94.5292 88.4776 90.5918 88.0689 88.9471 85.3576C88.8008 85.0574 88.565 84.8098 88.2722 84.6492C87.9794 84.4885 87.6441 84.4226 87.3123 84.4604C78.4207 84.4604 69.5324 84.4604 60.6474 84.4604C60.3305 84.4269 60.0108 84.4923 59.7324 84.6475C59.454 84.8028 59.2306 85.0404 59.0925 85.3277C58.6803 86.0173 58.0962 86.5883 57.3973 86.9848C56.6985 87.3813 55.9087 87.5897 55.1052 87.5897C54.3017 87.5897 53.512 87.3813 52.8131 86.9848C52.1142 86.5883 51.5302 86.0173 51.118 85.3277C50.9658 85.0268 50.7237 84.7807 50.4255 84.6235C50.1272 84.4664 49.7874 84.4059 49.4532 84.4505C48.5063 84.4505 47.5493 84.4505 46.6024 84.4505C45.9843 84.4505 45.7052 84.6697 45.7052 85.3077C45.7052 90.6241 45.7052 95.9703 45.7052 101.346C45.7027 101.573 45.7664 101.796 45.8886 101.987C46.0107 102.179 46.186 102.33 46.3929 102.423C47.3179 102.938 48.0421 103.75 48.4486 104.727C48.8551 105.705 48.9202 106.791 48.6332 107.81C48.3462 108.828 47.7239 109.721 46.867 110.342C46.0101 110.964 44.9686 111.278 43.9109 111.235C38.857 111.235 33.8032 111.235 28.7593 111.235C27.6525 111.304 26.5536 111.007 25.6328 110.389C24.7121 109.771 24.0207 108.866 23.6656 107.816L23.526 105.264ZM118.084 87.9493C117.964 84.3907 118.323 79.9748 117.934 75.6087C117.749 73.7465 116.886 72.0172 115.51 70.7493C114.134 69.4813 112.339 68.763 110.468 68.7306C106.481 68.6808 102.494 68.7306 98.5664 68.7306C97.7988 68.7306 97.5695 68.9998 97.5695 69.7275C97.5695 73.223 97.5695 76.7285 97.5695 80.2439C97.5695 81.0414 97.8686 81.2407 98.5664 81.2407C100.4 81.2407 102.235 81.2407 104.069 81.2407C105.385 81.2407 105.404 81.2407 105.404 82.5466C105.404 88.5275 105.404 94.5083 105.404 100.489C105.404 101.376 105.644 101.705 106.561 101.695C110 101.646 113.449 101.646 116.888 101.695C117.885 101.695 118.094 101.337 118.084 100.429C118.034 96.5419 118.054 92.6842 118.054 87.9493H118.084ZM73.8952 81.2407C78.2213 81.2407 82.5475 81.2407 86.8538 81.2407C87.7708 81.2407 88.0499 80.9517 88.0399 80.0545C88.0399 76.6454 88.0399 73.2363 88.0399 69.8272C88.0399 68.9799 87.8007 68.6808 86.9235 68.6808C78.2379 68.6808 69.549 68.6808 60.8567 68.6808C59.9895 68.6808 59.7204 68.9599 59.7303 69.8172C59.7303 73.1964 59.7303 76.5756 59.7303 79.9448C59.7303 80.9416 59.9995 81.2606 61.0063 81.2507C65.2727 81.2108 69.569 81.2407 73.8652 81.2407H73.8952ZM73.8952 35.6065H61.3054C60.991 35.5806 60.6767 35.6568 60.4091 35.8238C60.1415 35.9908 59.9349 36.2397 59.8201 36.5335C59.7051 36.7914 59.6665 37.0769 59.7089 37.3561C59.7513 37.6353 59.8729 37.8964 60.0594 38.1085C60.2789 38.3283 60.5454 38.4955 60.839 38.5974C61.1325 38.6992 61.4454 38.7331 61.7539 38.6966H85.9367C86.3992 38.7296 86.8617 38.633 87.2724 38.4175C87.5433 38.2589 87.7558 38.0169 87.878 37.7277C88.0001 37.4385 88.0255 37.1175 87.9502 36.8126C87.9119 36.5161 87.7752 36.2409 87.562 36.0312C87.3487 35.8216 87.0711 35.6896 86.7739 35.6563C86.3839 35.6066 85.9908 35.5866 85.5978 35.5965L73.8952 35.6065ZM73.8153 65.511C76.108 65.511 78.4007 65.511 80.6934 65.511C81.3912 65.511 81.6902 65.3216 81.6902 64.5141C81.6902 63.5672 81.6902 62.6102 81.6902 61.6633C81.6902 61.0353 81.441 60.796 80.813 60.796H66.8576C66.1997 60.796 65.9904 61.0851 66.0003 61.6931C66.0003 62.6102 66.0003 63.5273 66.0003 64.4444C66.0003 65.3614 66.2695 65.4412 66.9972 65.4412C69.3098 65.4611 71.5725 65.4811 73.8353 65.4811L73.8153 65.511ZM70.7352 52.8913C70.7352 54.1971 70.7352 55.5129 70.7352 56.8187C70.7352 57.4069 70.9646 57.6461 71.5527 57.6361C73.0878 57.6361 74.6328 57.6361 76.1679 57.6361C76.776 57.6361 76.9653 57.357 76.9653 56.7988C76.9653 54.2337 76.9653 51.6785 76.9653 49.1333C76.9653 48.5053 76.7261 48.2361 76.0981 48.2461C74.6228 48.2461 73.1077 48.2461 71.6723 48.2461C70.9247 48.2461 70.6755 48.5651 70.6755 49.2429C70.7752 50.4391 70.7552 51.6851 70.7552 52.8614L70.7352 52.8913ZM53.4305 74.8611C53.4305 77.4229 53.4305 79.9748 53.4305 82.5266C53.4305 83.7527 53.9688 84.3707 54.9756 84.3707C55.9824 84.3707 56.4907 83.7228 56.5007 82.4967V67.4647C56.5007 66.2287 55.9625 65.5907 54.9856 65.5708C54.0087 65.5508 53.4305 66.1987 53.4205 67.4946C53.4305 69.9468 53.4305 72.4089 53.4305 74.8611ZM94.2999 75.0305C94.2999 72.4787 94.2999 69.9268 94.2999 67.365C94.2999 66.1987 93.7617 65.6007 92.8047 65.5708C91.8478 65.5409 91.2298 66.1888 91.2298 67.395C91.2298 72.4388 91.2298 77.4827 91.2298 82.5266C91.2298 83.7427 91.788 84.3707 92.7848 84.3707C93.7816 84.3707 94.29 83.7527 94.2999 82.4967C94.2999 80.0146 94.2999 77.5226 94.2999 75.0305ZM35.9364 108.025H38.7874C40.4919 108.025 42.1963 108.025 43.9009 108.025C44.1043 108.035 44.3075 108.002 44.4979 107.93C44.6882 107.858 44.8618 107.747 45.0076 107.605C45.1534 107.463 45.2685 107.293 45.3456 107.104C45.4228 106.916 45.4603 106.714 45.456 106.51C45.4466 106.096 45.2812 105.7 44.9929 105.403C44.7046 105.105 44.3146 104.928 43.9009 104.905C43.6417 104.905 43.3826 104.905 43.1235 104.905H29.1681C28.869 104.905 28.57 104.905 28.2809 104.905C28.0665 104.893 27.8518 104.924 27.6498 104.997C27.4479 105.07 27.2627 105.183 27.1054 105.329C26.9481 105.475 26.8219 105.652 26.7344 105.848C26.6469 106.044 26.5999 106.255 26.5962 106.47C26.5962 107.377 27.2043 107.965 28.2809 107.975C30.8427 108.045 33.3945 108.025 35.9463 108.025H35.9364ZM111.694 108.025C114.316 108.025 116.938 108.025 119.559 108.025C119.757 108.039 119.955 108.012 120.142 107.945C120.328 107.878 120.499 107.774 120.643 107.638C120.787 107.503 120.902 107.338 120.979 107.156C121.057 106.974 121.096 106.778 121.094 106.58C121.106 106.18 120.963 105.792 120.696 105.495C120.429 105.198 120.057 105.015 119.659 104.985C119.463 104.97 119.267 104.97 119.071 104.985H104.268C103.062 104.985 102.274 105.613 102.274 106.55C102.274 107.487 102.962 108.075 104.268 108.075C106.75 108.045 109.252 108.035 111.734 108.035L111.694 108.025ZM67.6451 41.9662C68.313 42.8733 68.8812 43.6209 69.4195 44.3784C69.5531 44.584 69.7388 44.7504 69.9577 44.8607C70.1766 44.9711 70.4208 45.0213 70.6655 45.0064C72.7887 45.0064 74.9119 45.0064 77.0352 45.0064C77.1976 45.039 77.3656 45.0305 77.524 44.9818C77.6823 44.9331 77.8261 44.8456 77.9422 44.7274C78.6729 43.8601 79.3392 42.9406 79.9358 41.9761L67.6451 41.9662Z" fill="#303B4D" stroke="#F7F7F7" stroke-width="0.69" stroke-miterlimit="10"/>
<path id="Vector_3" d="M70.667 76.6061C70.2384 76.4964 69.4808 76.8951 69.2415 76.2771C68.9869 75.4285 68.9869 74.5239 69.2415 73.6754C69.2914 73.476 69.5206 73.4162 69.72 73.4062H70.3082C72.6906 73.4062 72.7005 73.4062 72.551 75.7687C72.551 76.3867 72.2719 76.6659 71.6539 76.636C71.3748 76.6061 71.0458 76.6061 70.667 76.6061Z" fill="#303B4D" stroke="#F7F7F7" stroke-width="0.69" stroke-miterlimit="10"/>
<path id="Vector_4" d="M76.9057 76.6049H75.8291C75.5899 76.6049 75.3406 76.5152 75.3008 76.2561C75.1363 75.4235 75.1363 74.5667 75.3008 73.7341C75.3008 73.4849 75.6198 73.435 75.8491 73.4151C76.0783 73.3952 76.3674 73.4151 76.6266 73.4151C78.6202 73.4151 78.6202 73.4151 78.6202 75.4087C78.6202 76.4056 78.2813 76.7246 77.3642 76.6149C77.2016 76.6049 77.0385 76.6049 76.8758 76.6149L76.9057 76.6049Z" fill="#303B4D" stroke="#F7F7F7" stroke-width="0.69" stroke-miterlimit="10"/>
</g>
</svg>
