<svg width="144" height="144" viewBox="0 0 144 144" fill="none" xmlns="http://www.w3.org/2000/svg">
<g id="Component 10">
<path id="Vector" d="M119.448 0H24.5516C10.9921 0 0 10.9921 0 24.5516V119.448C0 133.008 10.9921 144 24.5516 144H119.448C133.008 144 144 133.008 144 119.448V24.5516C144 10.9921 133.008 0 119.448 0Z" fill="white"/>
<path id="Vector_2" d="M115.581 104.237C115.458 105.43 115.12 106.592 114.584 107.666C113.928 109.001 112.904 110.122 111.632 110.895C110.361 111.668 108.895 112.063 107.407 112.032C84.1081 112.032 60.8159 112.032 37.5303 112.032C36.1104 111.938 34.7095 112.399 33.6227 113.318C32.815 114.014 32.299 114.989 32.1774 116.049C32.1076 116.627 31.8783 116.876 31.2802 116.836C30.6162 116.801 29.9507 116.801 29.2866 116.836C28.8281 116.836 28.6287 116.667 28.6785 116.208C28.7498 115.132 29.0434 114.082 29.541 113.124C30.0386 112.167 30.7292 111.323 31.5693 110.646C32.6792 109.675 34.0342 109.027 35.4868 108.772C36.374 108.677 37.2677 108.657 38.1582 108.712C38.7563 108.712 38.9956 108.563 38.9756 107.925C38.9756 106.579 38.9756 105.223 38.9756 103.868C38.9756 103.459 38.9756 102.941 39.6335 102.921C40.1419 102.921 40.3512 103.06 40.3413 103.599C40.3413 105.054 40.3413 106.509 40.3413 107.965C40.3413 108.493 40.5008 108.712 41.069 108.712C43.2021 108.712 45.3453 108.712 47.4785 108.712C48.0168 108.712 48.1663 108.513 48.1563 108.005C48.1563 106.649 48.1563 105.283 48.1563 103.918C48.1563 103.409 48.0267 102.921 48.884 102.921C49.7413 102.921 49.6515 103.359 49.6515 103.918C49.6515 105.303 49.6515 106.689 49.6515 108.074C49.6515 108.543 49.7911 108.742 50.2895 108.742C52.4759 108.742 54.6589 108.742 56.8386 108.742C57.3071 108.742 57.4566 108.573 57.4566 108.124C57.4566 106.669 57.4566 105.213 57.4566 103.758C57.4566 103.2 57.636 102.951 58.2241 102.951C58.8123 102.951 58.9817 103.22 58.9718 103.768C58.9718 105.204 58.9718 106.629 58.9718 108.064C58.9718 108.593 59.1412 108.752 59.6596 108.752C61.8027 108.752 63.9359 108.752 66.0691 108.752C66.6572 108.752 66.7868 108.523 66.7768 108.005C66.7768 106.569 66.7768 105.134 66.7768 103.708C66.7768 103.1 67.0061 102.941 67.5643 102.951C68.1225 102.961 68.3119 103.12 68.302 103.678C68.302 105.134 68.302 106.589 68.302 108.044C68.302 108.553 68.4415 108.752 68.9798 108.752C71.1329 108.752 73.296 108.752 75.4591 108.752C75.9575 108.752 76.107 108.563 76.107 108.084C76.107 106.609 76.107 105.094 76.107 103.648C76.107 103.13 76.2865 102.951 76.8048 102.951C77.3232 102.951 77.5026 103.15 77.4926 103.658C77.4926 105.114 77.4926 106.569 77.4926 108.025C77.4926 108.583 77.692 108.752 78.2302 108.752C80.3634 108.752 82.5066 108.752 84.6398 108.752C85.1681 108.752 85.3475 108.553 85.3376 108.044C85.3376 106.609 85.3376 105.184 85.3376 103.748C85.3376 103.21 85.4771 102.951 86.0951 102.941C86.7132 102.931 86.8128 103.25 86.8128 103.768C86.8128 105.184 86.8128 106.589 86.8128 107.995C86.8128 108.513 86.9225 108.762 87.5106 108.752C89.6538 108.752 91.7869 108.752 93.9201 108.752C94.4385 108.752 94.6378 108.603 94.6279 108.064C94.6279 106.659 94.6279 105.253 94.6279 103.838C94.6279 103.32 94.6279 102.951 95.3555 102.941C96.0832 102.931 96.1231 103.26 96.1231 103.808C96.1231 105.214 96.1231 106.629 96.1231 108.034C96.1231 108.523 96.2527 108.732 96.8009 108.752C98.984 108.832 101.167 108.752 103.35 108.752C103.799 108.752 103.968 108.583 103.958 108.124C103.958 106.569 104.118 105.024 103.958 103.469C103.958 103.1 104.108 102.951 104.456 102.961C104.805 102.971 105.304 102.961 105.304 103.549C105.304 104.546 105.304 105.542 105.304 106.539C105.304 107.088 105.304 107.626 105.304 108.164C105.304 108.443 105.364 108.692 105.712 108.702C107.116 108.891 108.545 108.662 109.819 108.044C110.522 107.659 111.113 107.096 111.532 106.413C111.952 105.729 112.186 104.948 112.212 104.147C112.236 103.346 112.057 102.551 111.691 101.838C111.325 101.125 110.784 100.517 110.118 100.07C109.163 99.4271 108.015 99.1347 106.869 99.2426H36.8325C34.6884 99.2545 32.6275 98.4141 31.103 96.9065C29.5785 95.3988 28.7154 93.3473 28.7035 91.2032C28.6916 89.0592 29.5319 86.9982 31.0395 85.4737C32.5472 83.9493 34.5987 83.0861 36.7428 83.0742C37.2611 83.0742 37.7396 83.0742 38.2978 83.0742C38.856 83.0742 39.0454 82.9247 39.0354 82.3565C39.0354 80.9012 39.0354 79.4458 39.0354 77.9904C39.0354 77.4223 39.2448 77.2827 39.7731 77.2628C40.3014 77.2429 40.431 77.502 40.421 77.9904C40.421 79.4458 40.421 80.9012 40.421 82.3565C40.421 82.9147 40.6104 83.0841 41.1587 83.0742C43.2021 83.0742 45.2456 83.0742 47.2891 83.0742C48.2161 83.0742 48.2161 83.0742 48.2361 82.1571C48.2361 81.9677 48.1563 81.7385 48.3457 81.569C48.5949 81.569 48.6547 81.8282 48.7345 82.0076C49.3006 83.2909 49.9672 84.5275 50.7281 85.7058C50.8378 85.8752 51.0471 86.0646 50.9673 86.264C50.8876 86.4634 50.5487 86.4136 50.3393 86.4136C45.8935 86.4136 41.4577 86.4136 37.0219 86.4136C35.8693 86.3776 34.7432 86.7636 33.8549 87.499C32.9667 88.2343 32.3773 89.2686 32.1975 90.4076C32.0176 91.5467 32.2597 92.7123 32.8781 93.6855C33.4966 94.6588 34.449 95.3729 35.5566 95.6939C36.5664 95.9231 37.6071 95.9838 38.6367 95.8733C39.0853 95.8733 39.0255 95.4746 39.0255 95.1855C39.0255 93.7003 39.0255 92.195 39.0255 90.7397C39.0255 90.2413 39.175 90.0021 39.7033 90.012C40.2316 90.022 40.421 90.1915 40.4111 90.7198C40.4111 92.1752 40.4111 93.6305 40.4111 95.0859C40.4111 95.6939 40.5905 95.9132 41.2185 95.9033C43.2819 95.9033 45.3453 95.9033 47.4187 95.9033C48.2759 95.9033 48.4653 95.7438 48.3358 94.9064C48.1364 93.5707 48.3358 92.235 48.2161 90.9192C48.2161 90.3709 48.3756 90.0918 48.9737 90.0918C49.5718 90.0918 49.7512 90.361 49.7213 90.9192C49.6416 92.3147 49.821 93.7202 49.6117 95.1257C49.5419 95.5842 49.6914 95.983 50.3393 95.983C52.5523 95.983 54.7553 95.983 56.9682 95.983C57.4566 95.983 57.6161 95.8634 57.5363 95.3351C57.4864 94.748 57.4864 94.1577 57.5363 93.5707C57.5363 93.152 57.6959 93.0424 58.1145 93.2617C58.4385 93.3947 58.7077 93.6338 58.8779 93.9399C59.0482 94.246 59.1094 94.6009 59.0515 94.9463C58.9817 95.9431 59.0515 96.0727 60.0483 95.9431C62.5105 95.674 64.7533 96.5412 67.0261 97.1193C69.4718 97.7066 71.9927 97.9183 74.5022 97.7473C77.1666 97.5808 79.7926 97.0267 82.2972 96.1026C83.0555 95.9308 83.8372 95.887 84.6099 95.973C85.0784 95.973 85.3276 95.8235 85.2877 95.3251C85.2279 94.5775 85.826 94.408 86.2845 94.1787C86.6234 94.0192 86.6533 94.2884 86.6733 94.5475C86.8128 95.963 86.8228 95.9631 88.2582 95.9631C90.0724 95.9631 91.8767 95.9631 93.6909 95.9631C94.289 95.9631 94.5282 95.7936 94.5082 95.1656C94.5082 93.7301 94.5082 92.2947 94.5082 90.8693C94.5082 90.3509 94.6478 90.0818 95.206 90.0718C95.7642 90.0619 96.0035 90.3011 96.0035 90.8693C96.0035 92.3047 96.0035 93.7301 96.0035 95.1656C96.0035 95.7138 96.1231 95.973 96.7511 95.9631C98.8843 95.9631 101.017 95.9631 103.161 95.9631C103.679 95.9631 103.848 95.7836 103.838 95.2653C103.838 93.79 103.838 92.2748 103.838 90.8294C103.838 90.351 103.948 90.0818 104.496 90.0818C105.045 90.0818 105.234 90.3111 105.224 90.8494C105.224 92.235 105.224 93.6205 105.224 95.0061C105.224 96.0029 105.224 96.0029 106.221 96.0029C107.72 95.8713 109.229 96.0932 110.627 96.6509C111.956 97.2179 113.109 98.1293 113.967 99.2912C114.826 100.453 115.359 101.823 115.511 103.26C115.511 103.439 115.571 103.629 115.601 103.808L115.581 104.237Z" fill="#303B4D" stroke="#F7F7F7" stroke-width="0.73" stroke-miterlimit="10"/>
<path id="Vector_3" d="M115.581 27.3126C115.474 28.5475 115.136 29.7513 114.584 30.8613C113.935 32.1346 112.946 33.2033 111.726 33.9493C110.507 34.6952 109.105 35.0893 107.676 35.0878C84.2176 35.1276 60.7626 35.1276 37.3108 35.0878C36.2435 34.9976 35.1772 35.2728 34.2868 35.8682C33.3964 36.4636 32.7347 37.344 32.4103 38.3648C32.0858 39.3856 32.1179 40.4864 32.5012 41.4866C32.8844 42.4868 33.5962 43.3271 34.5197 43.8697C35.678 44.4507 36.9801 44.6827 38.2677 44.5376C38.7961 44.5376 38.9854 44.2585 38.9755 43.7301C38.9755 42.3246 39.0453 40.9191 39.0353 39.5136C39.0353 38.9554 39.2247 38.7759 39.773 38.7759C40.3212 38.7759 40.4408 38.9753 40.4308 39.4737C40.4308 40.5802 40.4308 41.6767 40.5206 42.7832C40.5206 43.2118 40.1617 43.6006 40.4608 44.0691C40.5132 44.1828 40.5957 44.28 40.6993 44.3502C40.803 44.4205 40.9238 44.4611 41.0489 44.4678C43.2518 44.6173 45.4648 44.5476 47.6677 44.5675C48.0963 44.5675 48.2359 44.398 48.2259 43.9793C48.2259 42.5938 48.2259 41.2082 48.2259 39.8226C48.2259 39.2943 48.0864 38.7461 48.9835 38.766C49.8807 38.786 49.7112 39.2844 49.7112 39.7628C49.7112 41.1185 49.7112 42.4841 49.7112 43.8398C49.7112 44.3681 49.9006 44.5475 50.409 44.5376C52.5421 44.5376 54.6853 44.5376 56.8185 44.5376C57.3368 44.5376 57.5262 44.3581 57.5163 43.8398C57.5163 42.4044 57.5163 40.969 57.5163 39.5435C57.5163 38.9055 57.7954 38.756 58.3735 38.7461C58.9517 38.7361 59.0414 39.075 59.0414 39.5435C59.0414 40.9789 59.0414 42.4143 59.0414 43.8398C59.0414 44.3681 59.2208 44.5475 59.7392 44.5376C61.8724 44.5376 64.0155 44.5376 66.1487 44.5376C66.667 44.5376 66.8564 44.3581 66.8464 43.8398C66.8464 42.4343 66.8464 41.0188 66.8464 39.6133C66.8464 39.075 66.8963 38.7461 67.594 38.7361C68.2918 38.7261 68.3816 39.075 68.3716 39.6432C68.3716 40.979 68.3716 42.3247 68.3716 43.6305C68.3716 44.5077 68.3716 44.4877 69.2886 44.5076C69.6874 44.5076 70.106 44.3382 70.5048 44.6173C69.8668 44.7768 69.2089 44.8964 68.561 44.9961C65.8275 45.4282 63.1839 46.3071 60.736 47.5978C60.4041 47.772 60.0342 47.8611 59.6594 47.857C51.9839 47.857 44.3085 47.857 36.623 47.857C35.2758 47.8585 33.9526 47.4998 32.7906 46.8181C31.6285 46.1363 30.67 45.1562 30.0141 43.9793C29.318 42.886 28.9044 41.6368 28.8104 40.3441C28.7165 39.0514 28.9451 37.7555 29.4758 36.573C30.0845 35.1413 31.0986 33.9189 32.3934 33.0563C33.6881 32.1937 35.2068 31.7287 36.7625 31.7185H106.849C107.936 31.813 109.024 31.5482 109.945 30.9648C110.867 30.3814 111.572 29.5116 111.952 28.4889C112.003 28.3867 112.043 28.2798 112.072 28.1699C112.391 26.9238 112.391 26.8939 113.677 26.9338C114.345 26.9338 115.033 26.7245 115.67 27.1232L115.581 27.3126Z" fill="#303B4D" stroke="#F7F7F7" stroke-width="0.73" stroke-miterlimit="10"/>
<path id="Vector_4" d="M115.58 52.9504C115.471 54.2375 115.102 55.489 114.494 56.6286C113.828 57.8513 112.85 58.8755 111.659 59.5969C110.468 60.3184 109.108 60.7113 107.715 60.7355C104.506 60.8053 101.286 60.7355 98.0663 60.7355C97.8379 60.7602 97.608 60.7052 97.4155 60.5799C97.2229 60.4546 97.0796 60.2666 97.0097 60.0477C96.4382 58.7382 95.7369 57.4893 94.9164 56.3196C94.6419 55.9375 94.5049 55.4737 94.5276 55.0038C94.5276 54.0868 94.5276 53.1697 94.5276 52.2526C94.5276 51.7044 94.7768 51.5947 95.2553 51.5947C95.7338 51.5947 96.0228 51.6844 96.0129 52.2426C96.0129 53.698 96.0129 55.1533 96.0129 56.6087C96.0129 57.1669 96.1724 57.3264 96.7306 57.3164C98.8239 57.3164 100.907 57.3164 103.001 57.3164C103.629 57.3164 103.878 57.1569 103.858 56.4791C103.808 55.1035 103.858 53.708 103.858 52.3324C103.858 51.8439 103.977 51.6047 104.526 51.5947C105.074 51.5848 105.253 51.814 105.243 52.3423C105.243 53.7578 105.243 55.1633 105.243 56.5688C105.243 57.1271 105.433 57.3264 105.981 57.3164C107.387 57.3164 108.772 57.4061 110.048 56.5489C110.844 56.0036 111.459 55.2333 111.814 54.3365C112.169 53.4396 112.248 52.4572 112.042 51.515C111.792 50.6457 111.31 49.8608 110.648 49.2444C109.986 48.628 109.169 48.2034 108.284 48.0161C107.799 47.9433 107.309 47.91 106.818 47.9165C100.12 47.9165 93.4311 47.9165 86.7425 47.9165C85.8307 47.8602 84.9455 47.5868 84.1608 47.119C82.038 46.1283 79.7916 45.4276 77.4821 45.0357C76.259 44.8269 75.0237 44.697 73.7839 44.6469C73.2356 44.6469 72.6874 44.9758 72.1192 44.6469C72.2089 44.308 72.488 44.4077 72.6974 44.4077C73.6104 44.3578 74.5255 44.3578 75.4386 44.4077C76.0666 44.4077 76.1264 44.2083 76.1264 43.6999C76.1264 42.3143 76.1264 40.9288 76.1264 39.5432C76.1264 39.0249 76.1962 38.7158 76.8441 38.7258C77.4921 38.7358 77.512 39.0448 77.512 39.5233C77.512 40.9587 77.512 42.3842 77.512 43.8196C77.512 44.3379 77.6914 44.5273 78.2098 44.5173C80.3429 44.5173 82.4861 44.5173 84.6193 44.5173C85.1775 44.5173 85.3669 44.298 85.3569 43.7697C85.3569 42.3143 85.3569 40.859 85.3569 39.4036C85.3569 38.8753 85.5264 38.6959 86.0547 38.7258C86.583 38.7557 86.8422 38.8056 86.8322 39.4136C86.8322 40.869 86.8322 42.3243 86.8322 43.7797C86.8322 44.3279 87.0017 44.5273 87.5599 44.5173C89.6731 44.5173 91.7864 44.5173 93.8996 44.5173C94.4379 44.5173 94.6572 44.3479 94.6472 43.7897C94.6472 42.3343 94.6472 40.8789 94.6472 39.4236C94.6472 38.9053 94.8267 38.7158 95.345 38.7258C95.8634 38.7358 96.1524 38.7956 96.1425 39.4036C96.1425 40.8391 96.1425 42.2745 96.1425 43.6999C96.1425 44.298 96.292 44.5373 96.93 44.5273C99.093 44.5273 101.246 44.5273 103.409 44.5273C103.898 44.5273 104.067 44.4376 104.037 43.8395C103.938 42.3144 104.037 40.7893 103.977 39.2641C103.977 38.7259 104.316 38.7458 104.685 38.7358C105.054 38.7258 105.353 38.8255 105.353 39.314C105.353 40.7892 105.353 42.3044 105.353 43.7498C105.353 44.2981 105.443 44.5273 106.081 44.5173C107.601 44.3616 109.136 44.5455 110.576 45.0556C111.946 45.5961 113.142 46.4998 114.036 47.6697C114.93 48.8395 115.488 50.231 115.65 51.6944C115.65 51.8639 115.71 52.0233 115.74 52.1828L115.58 52.9504Z" fill="#303B4D" stroke="#F7F7F7" stroke-width="0.73" stroke-miterlimit="10"/>
<path id="Vector_5" d="M115.581 78.5993C115.456 80.2889 114.851 81.9076 113.836 83.2644C113.092 84.2371 112.134 85.0254 111.037 85.5682C109.939 86.111 108.731 86.3937 107.507 86.3944C103.519 86.3944 99.532 86.3944 95.5447 86.3944C95.3254 86.3944 95.0164 86.514 94.8968 86.2549C94.7772 85.9957 95.0463 85.8362 95.1759 85.6568C95.626 84.9966 96.0259 84.3035 96.3721 83.5834C96.439 83.4098 96.5611 83.2631 96.7196 83.1659C96.8781 83.0686 97.0642 83.0262 97.2493 83.0452C99.1931 83.0452 101.147 83.0452 103.091 83.0452C103.669 83.0452 103.868 82.8757 103.858 82.2876C103.858 80.8521 103.858 79.4267 103.858 77.9913C103.858 77.4929 103.928 77.2138 104.546 77.2337C105.164 77.2536 105.264 77.4132 105.244 77.9614C105.244 79.3968 105.244 80.8322 105.244 82.2577C105.244 82.8957 105.453 83.085 106.061 83.0452C106.855 83.0616 107.649 83.0082 108.434 82.8856C109.278 82.7084 110.058 82.3023 110.688 81.7115C111.317 81.1208 111.772 80.3683 112.002 79.5363C112.243 78.7311 112.254 77.8743 112.032 77.0636C111.81 76.2529 111.364 75.5209 110.746 74.951C110.028 74.2845 109.175 73.7812 108.244 73.4757C107.816 73.2963 107.407 73.5455 106.998 73.5455H100.02C99.5719 73.5455 99.3526 73.366 99.4323 72.9175C99.5235 72.217 99.5503 71.5096 99.5121 70.8042C99.5121 70.3058 99.7214 70.1264 100.17 70.1264C101.167 70.1264 102.164 70.1264 103.16 70.1264C103.749 70.1264 103.938 69.9071 103.928 69.3389C103.928 68.0231 103.928 66.7073 103.928 65.3517C103.928 64.8533 103.778 64.2851 104.626 64.2951C105.473 64.305 105.294 64.8433 105.294 65.2919V69.0897C105.294 70.0865 105.294 70.0865 106.231 70.0865C107.946 69.9671 109.663 70.2933 111.215 71.0335C112.41 71.6391 113.435 72.5333 114.197 73.6351C114.96 74.7369 115.435 76.0114 115.581 77.3433C115.581 77.5028 115.641 77.6624 115.67 77.8218L115.581 78.5993Z" fill="#303B4D" stroke="#F7F7F7" stroke-width="0.73" stroke-miterlimit="10"/>
<path id="Vector_6" d="M72.9272 96.124C67.949 96.1184 63.0867 94.6219 58.9669 91.8275C54.847 89.0332 51.6585 85.0689 49.8122 80.4458C47.966 75.8227 47.5467 70.7526 48.6083 65.889C49.67 61.0254 52.1639 56.5912 55.7688 53.158C59.3736 49.7247 63.924 47.4498 68.8336 46.6265C73.7432 45.8031 78.7868 46.4689 83.3145 48.5383C87.8421 50.6076 91.6462 53.9856 94.2365 58.2367C96.8268 62.4879 98.0845 67.4173 97.8476 72.3898C97.5619 78.7981 94.8083 84.8475 90.1632 89.2714C85.5182 93.6954 79.3418 96.151 72.9272 96.124ZM75.17 56.4408C75.7601 57.9456 75.8094 59.6086 75.3096 61.1457C74.6822 63.1367 73.6657 64.9833 72.3191 66.5784C69.7824 69.5291 68.0821 73.1052 67.3949 76.9353C67.0913 78.495 67.1016 80.0996 67.425 81.6554C67.7485 83.2111 68.3787 84.6869 69.2788 85.9964C69.9177 86.9718 70.8023 87.7617 71.8435 88.2867C72.8847 88.8116 74.0457 89.0531 75.2099 88.9868C77.151 88.9244 79.0006 88.147 80.4033 86.8038C80.6027 86.6144 80.9715 86.4848 80.8918 86.1758C80.812 85.8668 80.4432 86.0063 80.2139 85.9565C77.9013 85.5179 76.9045 84.3117 76.9643 81.9692C77.0488 80.5805 77.5297 79.2453 78.3499 78.1215C79.2211 76.8569 79.9879 75.5234 80.6425 74.1342C81.3999 72.2374 81.6806 70.1838 81.4599 68.1533C81.3461 64.7498 80.1088 61.4795 77.9412 58.853C77.1349 57.9232 76.2021 57.1112 75.17 56.4408ZM69.847 89.545C69.7736 89.4377 69.6902 89.3375 69.5978 89.2459C67.6722 87.7641 66.2742 85.7022 65.6105 83.3648C64.4694 79.6793 64.6099 75.716 66.0093 72.1207C66.8491 69.9981 67.2329 67.7226 67.1357 65.442C67.0896 64.4233 66.8135 63.4282 66.3283 62.5313C66.2802 65.0523 65.5387 67.5113 64.1851 69.6386C63.7664 70.3962 63.1883 71.1039 62.8893 71.8914C61.3841 75.0858 61.1039 78.7215 62.1018 82.1088C62.4079 83.4505 62.9838 84.7159 63.7943 85.828C64.6049 86.9402 65.6332 87.8758 66.8167 88.5781C67.7342 89.1397 68.7738 89.4715 69.847 89.545Z" fill="#303B4D" stroke="#F7F7F7" stroke-width="0.73" stroke-miterlimit="10"/>
<path id="Vector_7" d="M42.3151 60.7564H37.032C36.3192 60.734 35.6107 60.8735 34.9596 61.1644C34.3086 61.4554 33.7321 61.8903 33.2734 62.4363C32.8147 62.9823 32.4858 63.6252 32.3115 64.3167C32.1373 65.0081 32.1221 65.7302 32.2672 66.4283C32.44 67.3827 32.9168 68.2555 33.6264 68.9167C34.336 69.5778 35.2404 69.9917 36.2046 70.0966C36.9024 70.1664 37.6101 70.0966 38.3079 70.1564C38.8561 70.1564 39.0555 69.977 39.0455 69.4188C39.0455 67.9933 39.0455 66.5579 39.0455 65.1324C39.0455 64.644 39.1751 64.3849 39.7034 64.3749C40.2317 64.3649 40.4411 64.5942 40.4311 65.1424C40.4311 66.5678 40.4311 68.0033 40.4311 69.4387C40.4311 69.9371 40.5906 70.1165 41.1089 70.1763C42.5855 70.2861 44.0682 70.2861 45.5448 70.1763C46.422 70.1763 46.5416 70.2461 46.5416 71.1731C46.5416 71.8111 46.5416 72.4491 46.5416 73.0771C46.5416 73.4658 46.3821 73.6353 45.9933 73.6253C44.1592 73.6253 42.335 73.6253 40.5009 73.6253C39.5041 73.6253 38.4375 73.5655 37.4008 73.6253C35.94 73.7604 34.471 73.4746 33.1674 72.8016C31.8638 72.1286 30.7801 71.0966 30.0443 69.8274C28.9509 68.0935 28.5607 66.0075 28.9535 63.9956C29.3463 61.9836 30.4923 60.1975 32.1575 59.002C33.7461 57.8845 35.6596 57.3237 37.6001 57.4071C39.3246 57.4071 39.0954 57.5766 39.1053 55.9119C39.1053 54.7456 39.1053 53.5694 39.1053 52.3932C39.1053 51.8748 39.2848 51.7053 39.8031 51.7053C40.3215 51.7053 40.5009 51.9047 40.4909 52.4131C40.4909 53.8386 40.4909 55.274 40.4909 56.6994C40.4909 57.2377 40.6205 57.447 41.2086 57.437C43.3219 57.3839 45.4351 57.3839 47.5484 57.437C48.1963 57.437 48.3358 57.2377 48.3159 56.6396C48.3159 55.254 48.3159 53.8684 48.3159 52.4828C48.3159 51.9047 48.5053 51.7153 49.0835 51.7053C49.6616 51.6954 49.841 51.9645 49.8211 52.5128C49.8211 53.7987 49.8211 55.0945 49.8211 56.3804C49.8211 56.7891 49.6915 57.2277 50.1301 57.5467C50.3195 57.6763 50.1301 57.8956 50.0803 58.0551C49.6616 58.8625 49.223 59.6699 48.8143 60.4873C48.6249 60.8661 48.3159 60.8461 47.987 60.8461L42.3151 60.7564Z" fill="#303B4D" stroke="#F7F7F7" stroke-width="0.73" stroke-miterlimit="10"/>
<path id="Vector_8" d="M76.4561 65.3516C77.6423 69.3388 77.2436 72.748 74.273 75.4593C73.328 76.3065 72.6109 77.3775 72.1876 78.5741C71.7644 79.7707 71.6486 81.0544 71.8508 82.3074C71.8508 82.5167 71.9804 82.7161 71.8508 82.9254C71.7212 83.1348 71.6016 82.8058 71.5617 82.6962C70.5047 80.2069 70.4158 77.4125 71.3125 74.8612C71.7442 73.8773 72.3447 72.9766 73.0868 72.1997C74.26 70.9201 75.2072 69.4505 75.8879 67.8536C76.2796 67.0788 76.4747 66.2195 76.4561 65.3516Z" fill="#303B4D" stroke="#F7F7F7" stroke-width="0.73" stroke-miterlimit="10"/>
</g>
</svg>
