<svg width="145" height="145" viewBox="0 0 145 145" fill="none" xmlns="http://www.w3.org/2000/svg">
<g id="Component 10">
<path id="Vector" d="M119.462 0.5H24.5648C11.0053 0.5 0.0131836 11.4921 0.0131836 25.0516V119.948C0.0131836 133.508 11.0053 144.5 24.5648 144.5H119.462C133.021 144.5 144.013 133.508 144.013 119.948V25.0516C144.013 11.4921 133.021 0.5 119.462 0.5Z" fill="white"/>
<g id="Vector_2">
<path d="M31.4734 97.8488C31.6367 97.5601 31.8821 97.3263 32.1785 97.1773C32.4749 97.0282 32.8088 96.9705 33.138 97.0115C34.2545 97.0115 35.3609 97.0115 36.4674 97.0115C37.7832 97.0115 37.7832 97.0115 37.7832 95.7356C37.7832 85.6877 37.7832 75.6431 37.7832 65.6019C37.7832 62.4519 37.7832 59.3119 37.7832 56.162C37.7832 55.4044 37.5539 55.0954 36.7864 55.1652C36.3882 55.1951 35.9884 55.1951 35.5902 55.1652C34.5436 55.1652 33.9554 54.6767 33.9654 53.8494C33.9754 53.022 34.5535 52.6034 35.5603 52.5834C36.0587 52.5834 36.5571 52.5834 37.0655 52.5834C37.5739 52.5834 37.7732 52.3841 37.7633 51.8757C37.7633 50.5466 37.7633 49.2175 37.7633 47.8884C37.7633 46.7421 38.2118 46.3135 39.3581 46.2836H39.4379C41.5711 46.2836 41.5711 46.2835 41.5711 44.0806C41.5711 42.7947 41.5711 41.4988 41.5711 40.203C41.5711 39.2061 42.0396 38.7078 43.0763 38.6779H100.802C102.108 38.6779 102.526 39.0965 102.526 40.3824C102.526 41.6683 102.526 43.2333 102.526 44.6588C102.526 46.4829 102.317 46.2736 104.111 46.2935H104.909C105.102 46.2761 105.296 46.3017 105.478 46.3686C105.659 46.4355 105.824 46.542 105.959 46.6804C106.095 46.8187 106.198 46.9855 106.261 47.1686C106.324 47.3516 106.346 47.5464 106.324 47.7389C106.324 49.0945 106.324 50.4402 106.324 51.7859C106.324 52.4538 106.553 52.6931 107.201 52.6433C107.597 52.6233 107.992 52.6233 108.388 52.6433C109.524 52.6433 110.112 53.0818 110.122 53.9291C110.132 54.7764 109.534 55.235 108.348 55.2449C107.899 55.2449 107.451 55.2449 107.002 55.2449C106.554 55.2449 106.304 55.4144 106.334 55.8928C106.334 56.0822 106.334 56.2616 106.334 56.451V95.8552C106.334 97.0514 106.334 97.0513 107.57 97.0513C108.806 97.0513 109.993 97.0513 111.209 97.0513C112.205 97.0513 112.674 97.51 112.674 98.5167C112.674 100.51 112.674 102.504 112.674 104.498C112.674 105.494 112.205 105.933 111.209 105.963H33.457C32.6596 105.963 31.9119 105.963 31.4634 105.136L31.4734 97.8488ZM41.4814 55.205C40.3749 55.205 40.3749 55.2051 40.3749 56.3016C40.3749 69.5193 40.3749 82.7337 40.3749 95.9449C40.3749 97.0214 40.3749 97.0315 41.4814 97.0315H86.2085C87.2651 97.0315 87.2651 97.0314 87.2651 95.9848C87.2651 82.767 87.2651 69.5525 87.2651 56.3414C87.2651 55.225 87.2651 55.225 86.1088 55.225L41.4814 55.205ZM34.6632 99.6232C34.2246 99.6232 34.0352 99.8026 34.0352 100.241C34.0352 100.849 34.0352 101.457 34.0352 102.065C34.0352 103.361 34.0351 103.361 35.3111 103.361H108.806C109.016 103.361 109.235 103.361 109.444 103.361C109.913 103.361 110.112 103.182 110.102 102.703C110.092 102.225 110.102 101.437 110.102 100.799C110.102 99.6331 110.102 99.6232 108.936 99.6232H34.6632ZM103.194 52.6133C103.593 52.6133 103.772 52.4339 103.772 52.0352C103.772 51.3972 103.772 50.7692 103.772 50.1313C103.772 48.8653 103.772 48.8653 102.526 48.8653H40.9929C40.5643 48.8653 40.3749 49.0547 40.3749 49.4833C40.3749 50.1213 40.3749 50.7593 40.3749 51.3873C40.3749 52.6233 40.3749 52.6233 41.5811 52.6233L103.194 52.6133ZM98.7584 76.0285V79.3579C98.7584 84.9301 98.7584 90.5122 98.7584 96.0844C98.7584 96.8221 98.9877 97.0813 99.7552 97.0215C100.752 96.9717 101.749 97.0215 102.686 97.0215C103.623 97.0215 103.812 97.0215 103.812 95.8951C103.812 83.7938 103.812 71.6924 103.812 59.591C103.812 58.4048 103.812 57.2086 103.812 56.0224C103.812 55.3944 103.593 55.1851 102.975 55.205C101.978 55.205 100.922 55.205 99.8848 55.205C98.8481 55.205 98.7883 55.205 98.7883 56.2916L98.7584 76.0285ZM92.9968 61.485C93.8142 61.485 94.6316 61.485 95.449 61.485C95.9474 61.485 96.1667 61.3056 96.1567 60.7872C96.1567 59.1524 96.1567 57.5177 96.1567 55.8829C96.1567 55.3646 95.9374 55.1851 95.439 55.1851C93.8042 55.1851 92.1695 55.1851 90.5347 55.1851C90.0662 55.1851 89.8569 55.3545 89.8569 55.833C89.8569 57.4977 89.8569 59.1524 89.8569 60.8171C89.8569 61.2956 90.0562 61.475 90.5247 61.4651L92.9968 61.485ZM96.1567 67.1967C96.1567 66.3794 96.1567 65.5619 96.1567 64.7446C96.1567 64.2661 95.9673 64.0867 95.4988 64.0867H90.5147C90.0263 64.0867 89.8668 64.3159 89.8768 64.7645C89.8768 66.3993 89.8768 68.034 89.8768 69.6688C89.8768 70.1872 90.0662 70.3766 90.5745 70.3766C92.2093 70.3766 93.8441 70.3766 95.4789 70.3766C96.0072 70.3766 96.1667 70.1374 96.1567 69.6489C96.1368 68.8016 96.1567 67.9443 96.1567 67.1668V67.1967ZM93.0367 72.9783C92.2193 72.9783 91.4019 72.9783 90.5845 72.9783C90.0861 72.9783 89.8668 73.1477 89.8768 73.6661C89.8768 75.3008 89.8768 76.9356 89.8768 78.5704C89.8768 79.0887 90.0861 79.2682 90.5845 79.2682C92.2193 79.2682 93.8541 79.2682 95.4888 79.2682C95.9474 79.2682 96.1567 79.1087 96.1567 78.6203C96.1567 76.9656 96.1567 75.3009 96.1567 73.6362C96.1567 73.1577 95.9474 72.9783 95.4888 72.9882C94.6714 72.9284 93.8541 72.9284 93.0367 72.9284V72.9783ZM96.1468 85.0398C96.1468 84.1925 96.1468 83.3551 96.1468 82.5078C96.1468 82.0293 95.9474 81.85 95.4789 81.8599C93.8242 81.8599 92.1595 81.8599 90.4948 81.8599C90.0762 81.8599 89.8668 82.0094 89.8668 82.458C89.8668 84.1426 89.8668 85.8372 89.8668 87.5218C89.8668 87.9604 90.0562 88.1299 90.4948 88.1299C92.1496 88.1299 93.8142 88.1299 95.4789 88.1299C96.0172 88.1299 96.1667 87.8907 96.1567 87.4022C96.1368 86.5948 96.1468 85.7973 96.1468 85.0098V85.0398ZM93.0965 90.7415C92.2492 90.7415 91.4119 90.7415 90.5646 90.7415C90.0462 90.7415 89.8668 90.9408 89.8768 91.4492C89.8768 93.084 89.8768 94.7188 89.8768 96.3536C89.8768 96.8121 90.0462 97.0215 90.5247 97.0115C92.1894 97.0115 93.8441 97.0115 95.5088 97.0115C95.9873 97.0115 96.1567 96.8121 96.1567 96.3536C96.1567 94.7188 96.1567 93.084 96.1567 91.4492C96.1567 90.8711 95.9075 90.7216 95.3892 90.7415C94.5818 90.7316 93.8641 90.7116 93.0965 90.7116V90.7415ZM72.0338 46.2636C73.0306 46.2636 74.0274 46.2636 75.0242 46.2636C75.5725 46.2636 75.8516 46.124 75.8416 45.506C75.8416 44.3198 75.8416 43.1236 75.8416 41.9374C75.8416 41.439 75.6622 41.2197 75.1538 41.2197C73.0937 41.2197 71.0303 41.2197 68.9636 41.2197C68.4452 41.2197 68.2658 41.439 68.2658 41.9374C68.2658 43.1236 68.2658 44.3198 68.2658 45.506C68.2658 46.1141 68.5349 46.2736 69.0832 46.2636C70.08 46.2138 71.0569 46.2337 72.0338 46.2337V46.2636ZM53.6924 41.2795C52.875 41.2795 52.0576 41.2795 51.2402 41.2795C50.7418 41.2795 50.5125 41.4689 50.5225 41.9773C50.5225 43.1934 50.5225 44.4095 50.5225 45.6256C50.5225 46.144 50.7418 46.3234 51.2402 46.3234C52.8551 46.3234 54.4599 46.3234 56.0748 46.3234C56.613 46.3234 56.8423 46.144 56.8324 45.5858C56.8324 44.3996 56.8324 43.2034 56.8324 42.0172C56.8324 41.4589 56.613 41.2696 56.0748 41.2795C55.2773 41.2297 54.4898 41.2097 53.7123 41.2097L53.6924 41.2795ZM62.5142 46.2636H65.0561C65.4648 46.2636 65.704 46.134 65.704 45.6755V41.7979C65.704 41.3892 65.4847 41.2397 65.1059 41.2397C63.4113 41.2397 61.7168 41.2397 60.0322 41.2397C59.5936 41.2397 59.4041 41.439 59.4141 41.8677C59.4141 43.1037 59.4141 44.3497 59.4141 45.5858C59.4141 46.1241 59.6633 46.2836 60.1418 46.2736C60.9293 46.2237 61.6869 46.2337 62.5142 46.2337V46.2636ZM81.5633 46.2636H84.0255C84.5139 46.2636 84.7532 46.1141 84.7432 45.5858C84.7432 44.3697 84.7432 43.1535 84.7432 41.9374C84.7432 41.429 84.5538 41.2297 84.0454 41.2297C82.4007 41.2297 80.7659 41.2297 79.1311 41.2297C78.6726 41.2297 78.4433 41.3792 78.4433 41.8677C78.4433 43.1137 78.4433 44.3497 78.4433 45.5958C78.4433 46.0643 78.6327 46.2636 79.1112 46.2536L81.5633 46.2636ZM90.435 46.2636C91.2524 46.2636 92.0798 46.2636 92.8971 46.2636C93.4454 46.2636 93.6348 46.0443 93.6248 45.506C93.6248 44.3198 93.6248 43.1236 93.6248 41.9374C93.6248 41.439 93.4553 41.2197 92.937 41.2297C91.3022 41.2297 89.6575 41.2297 88.0227 41.2297C87.5043 41.2297 87.3149 41.439 87.3249 41.9374C87.3249 43.1236 87.3249 44.3198 87.3249 45.506C87.3249 46.1141 87.5841 46.2835 88.1423 46.2636C88.8999 46.2138 89.6675 46.2337 90.435 46.2337V46.2636ZM47.9408 43.8114C47.9408 43.1834 47.9408 42.5455 47.9408 41.9075C47.9408 41.449 47.7713 41.2297 47.2928 41.2397C46.4754 41.2397 45.6581 41.2397 44.8307 41.2397C44.422 41.2397 44.1828 41.3792 44.1828 41.8278C44.1828 43.1236 44.1828 44.4195 44.1828 45.7154C44.1718 45.7873 44.1774 45.8607 44.1991 45.9301C44.2208 45.9996 44.2581 46.0632 44.3081 46.116C44.3581 46.1689 44.4195 46.2096 44.4876 46.2352C44.5557 46.2608 44.6287 46.2705 44.7011 46.2636H45.4986C47.9408 46.2437 47.9408 46.2337 47.9408 43.7815V43.8114ZM99.9646 43.8114C99.9646 43.1735 99.9646 42.5455 99.9646 41.9075C99.9646 41.4988 99.845 41.2496 99.3864 41.2496H96.7748C96.3661 41.2496 96.2166 41.459 96.2166 41.8477C96.2166 43.1104 96.2166 44.3763 96.2166 45.6456C96.2166 46.0742 96.4059 46.2636 96.8346 46.2636C97.6021 46.2636 98.3697 46.2636 99.1372 46.2636C99.9048 46.2636 100.014 46.0044 99.9745 45.3764C99.9346 44.7484 99.9646 44.2999 99.9646 43.7716V43.8114Z" fill="#2F3A4C"/>
<path d="M71.8848 86.884C69.6091 86.9156 67.3911 86.1674 65.5995 84.7638C63.8079 83.3602 62.5504 81.3858 62.0363 79.1687C61.796 78.0918 61.7817 76.9767 61.9945 75.8941C62.2073 74.8114 62.6424 73.7847 63.2724 72.8788C65.7644 69.2703 68.3362 65.7117 70.888 62.1431C71.003 61.9284 71.1741 61.749 71.383 61.624C71.5919 61.4989 71.8308 61.4328 72.0742 61.4328C72.3177 61.4328 72.5567 61.4989 72.7656 61.624C72.9745 61.749 73.1455 61.9284 73.2605 62.1431C75.8422 65.7316 78.4738 69.2703 80.926 72.9386C83.6971 77.1152 82.1022 82.7871 77.5867 85.3788C75.8642 86.404 73.8888 86.9254 71.8848 86.884ZM71.9945 84.2824C73.2538 84.2366 74.4924 83.9489 75.6429 83.435C79.2314 81.7704 80.7665 77.6136 78.7629 74.5235C76.7593 71.4334 74.5464 68.5426 72.4331 65.5522C72.174 65.1833 71.9746 65.1833 71.7254 65.5522C69.6022 68.5426 67.4191 71.5331 65.3856 74.5235C64.8575 75.2942 64.544 76.1917 64.4774 77.1237C64.4108 78.0557 64.5936 78.9886 65.0069 79.8266C66.3825 82.817 68.9044 84.063 71.9945 84.3023V84.2824Z" fill="#2F3A4C"/>
<path d="M46.7352 85.01C46.7352 86.8541 46.7352 88.7082 46.7352 90.5523C46.758 90.765 46.727 90.9801 46.6449 91.1776C46.5629 91.3752 46.4325 91.549 46.2657 91.683C46.0989 91.817 45.9012 91.9069 45.6906 91.9445C45.48 91.982 45.2633 91.9661 45.0605 91.898C44.7897 91.8231 44.5528 91.6575 44.3895 91.4289C44.2262 91.2003 44.1463 90.9224 44.1633 90.642C44.1633 86.8641 44.1633 83.0761 44.1633 79.2982C44.1537 79.125 44.18 78.9516 44.2406 78.789C44.3013 78.6264 44.395 78.4781 44.5158 78.3535C44.6366 78.229 44.7819 78.1308 44.9426 78.0652C45.1033 77.9996 45.2758 77.968 45.4493 77.9724C45.6223 77.9679 45.7944 77.9995 45.9546 78.0652C46.1147 78.1309 46.2595 78.2293 46.3795 78.354C46.4996 78.4788 46.5923 78.6271 46.6518 78.7897C46.7113 78.9523 46.7363 79.1255 46.7252 79.2982C46.7252 81.2021 46.7252 83.106 46.7252 85.01H46.7352Z" fill="#2F3A4C"/>
<path d="M46.7337 74.2143C46.7254 74.4677 46.6418 74.7129 46.4936 74.9186C46.3454 75.1243 46.1393 75.2811 45.9015 75.3692C45.6638 75.4572 45.4051 75.4724 45.1587 75.4129C44.9123 75.3533 44.6892 75.2217 44.5179 75.0348C44.3466 74.8479 44.2348 74.6143 44.1969 74.3636C44.1589 74.1129 44.1965 73.8566 44.3049 73.6274C44.4132 73.3982 44.5874 73.2064 44.8052 73.0766C45.0229 72.9468 45.2744 72.8848 45.5275 72.8985C45.8616 72.9141 46.176 73.0612 46.402 73.3077C46.628 73.5542 46.7472 73.8802 46.7337 74.2143Z" fill="#2F3A4C"/>
<path d="M77.178 77.0353C77.0996 78.2837 76.5663 79.46 75.6791 80.3417C74.7919 81.2234 73.6123 81.7494 72.3634 81.82C71.4264 81.82 70.8483 81.3914 70.7984 80.6238C70.7486 79.8563 71.2071 79.3778 72.0943 79.2184C72.7381 79.1944 73.3498 78.9306 73.809 78.4787C74.2683 78.0268 74.542 77.4195 74.5764 76.7761C74.7358 75.7793 75.2442 75.3607 76.0118 75.4305C76.7793 75.5003 77.198 76.0884 77.178 77.0353Z" fill="#2F3A4C"/>
<path d="M31.4734 97.8488C31.6367 97.5601 31.8821 97.3263 32.1785 97.1773C32.4749 97.0282 32.8088 96.9705 33.138 97.0115C34.2545 97.0115 35.3609 97.0115 36.4674 97.0115C37.7832 97.0115 37.7832 97.0115 37.7832 95.7356C37.7832 85.6877 37.7832 75.6431 37.7832 65.6019C37.7832 62.4519 37.7832 59.3119 37.7832 56.162C37.7832 55.4044 37.5539 55.0954 36.7864 55.1652C36.3882 55.1951 35.9884 55.1951 35.5902 55.1652C34.5436 55.1652 33.9554 54.6767 33.9654 53.8494C33.9754 53.022 34.5535 52.6034 35.5603 52.5834C36.0587 52.5834 36.5571 52.5834 37.0655 52.5834C37.5739 52.5834 37.7732 52.3841 37.7633 51.8757C37.7633 50.5466 37.7633 49.2175 37.7633 47.8884C37.7633 46.7421 38.2118 46.3135 39.3581 46.2836H39.4379C41.5711 46.2836 41.5711 46.2835 41.5711 44.0806C41.5711 42.7947 41.5711 41.4988 41.5711 40.203C41.5711 39.2061 42.0396 38.7078 43.0763 38.6779H100.802C102.108 38.6779 102.526 39.0965 102.526 40.3824C102.526 41.6683 102.526 43.2333 102.526 44.6588C102.526 46.4829 102.317 46.2736 104.111 46.2935H104.909C105.102 46.2761 105.296 46.3017 105.478 46.3686C105.659 46.4355 105.824 46.542 105.959 46.6804C106.095 46.8187 106.198 46.9855 106.261 47.1686C106.324 47.3516 106.346 47.5464 106.324 47.7389C106.324 49.0945 106.324 50.4402 106.324 51.7859C106.324 52.4538 106.553 52.6931 107.201 52.6433C107.597 52.6233 107.992 52.6233 108.388 52.6433C109.524 52.6433 110.112 53.0818 110.122 53.9291C110.132 54.7764 109.534 55.235 108.348 55.2449C107.899 55.2449 107.451 55.2449 107.002 55.2449C106.554 55.2449 106.304 55.4144 106.334 55.8928C106.334 56.0822 106.334 56.2616 106.334 56.451V95.8552C106.334 97.0514 106.334 97.0513 107.57 97.0513C108.806 97.0513 109.993 97.0513 111.209 97.0513C112.205 97.0513 112.674 97.51 112.674 98.5167C112.674 100.51 112.674 102.504 112.674 104.498C112.674 105.494 112.205 105.933 111.209 105.963H33.457C32.6596 105.963 31.9119 105.963 31.4634 105.136L31.4734 97.8488ZM41.4814 55.205C40.3749 55.205 40.3749 55.2051 40.3749 56.3016C40.3749 69.5193 40.3749 82.7337 40.3749 95.9449C40.3749 97.0214 40.3749 97.0315 41.4814 97.0315H86.2085C87.2651 97.0315 87.2651 97.0314 87.2651 95.9848C87.2651 82.767 87.2651 69.5525 87.2651 56.3414C87.2651 55.225 87.2651 55.225 86.1088 55.225L41.4814 55.205ZM34.6632 99.6232C34.2246 99.6232 34.0352 99.8026 34.0352 100.241C34.0352 100.849 34.0352 101.457 34.0352 102.065C34.0352 103.361 34.0351 103.361 35.3111 103.361H108.806C109.016 103.361 109.235 103.361 109.444 103.361C109.913 103.361 110.112 103.182 110.102 102.703C110.092 102.225 110.102 101.437 110.102 100.799C110.102 99.6331 110.102 99.6232 108.936 99.6232H34.6632ZM103.194 52.6133C103.593 52.6133 103.772 52.4339 103.772 52.0352C103.772 51.3972 103.772 50.7692 103.772 50.1313C103.772 48.8653 103.772 48.8653 102.526 48.8653H40.9929C40.5643 48.8653 40.3749 49.0547 40.3749 49.4833C40.3749 50.1213 40.3749 50.7593 40.3749 51.3873C40.3749 52.6233 40.3749 52.6233 41.5811 52.6233L103.194 52.6133ZM98.7584 76.0285V79.3579C98.7584 84.9301 98.7584 90.5122 98.7584 96.0844C98.7584 96.8221 98.9877 97.0813 99.7552 97.0215C100.752 96.9717 101.749 97.0215 102.686 97.0215C103.623 97.0215 103.812 97.0215 103.812 95.8951C103.812 83.7938 103.812 71.6924 103.812 59.591C103.812 58.4048 103.812 57.2086 103.812 56.0224C103.812 55.3944 103.593 55.1851 102.975 55.205C101.978 55.205 100.922 55.205 99.8848 55.205C98.8481 55.205 98.7883 55.205 98.7883 56.2916L98.7584 76.0285ZM92.9968 61.485C93.8142 61.485 94.6316 61.485 95.449 61.485C95.9474 61.485 96.1667 61.3056 96.1567 60.7872C96.1567 59.1524 96.1567 57.5177 96.1567 55.8829C96.1567 55.3646 95.9374 55.1851 95.439 55.1851C93.8042 55.1851 92.1695 55.1851 90.5347 55.1851C90.0662 55.1851 89.8569 55.3545 89.8569 55.833C89.8569 57.4977 89.8569 59.1524 89.8569 60.8171C89.8569 61.2956 90.0562 61.475 90.5247 61.4651L92.9968 61.485ZM96.1567 67.1967C96.1567 66.3794 96.1567 65.5619 96.1567 64.7446C96.1567 64.2661 95.9673 64.0867 95.4988 64.0867H90.5147C90.0263 64.0867 89.8668 64.3159 89.8768 64.7645C89.8768 66.3993 89.8768 68.034 89.8768 69.6688C89.8768 70.1872 90.0662 70.3766 90.5745 70.3766C92.2093 70.3766 93.8441 70.3766 95.4789 70.3766C96.0072 70.3766 96.1667 70.1374 96.1567 69.6489C96.1368 68.8016 96.1567 67.9443 96.1567 67.1668V67.1967ZM93.0367 72.9783C92.2193 72.9783 91.4019 72.9783 90.5845 72.9783C90.0861 72.9783 89.8668 73.1477 89.8768 73.6661C89.8768 75.3008 89.8768 76.9356 89.8768 78.5704C89.8768 79.0887 90.0861 79.2682 90.5845 79.2682C92.2193 79.2682 93.8541 79.2682 95.4888 79.2682C95.9474 79.2682 96.1567 79.1087 96.1567 78.6203C96.1567 76.9656 96.1567 75.3009 96.1567 73.6362C96.1567 73.1577 95.9474 72.9783 95.4888 72.9882C94.6714 72.9284 93.8541 72.9284 93.0367 72.9284V72.9783ZM96.1468 85.0398C96.1468 84.1925 96.1468 83.3551 96.1468 82.5078C96.1468 82.0293 95.9474 81.85 95.4789 81.8599C93.8242 81.8599 92.1595 81.8599 90.4948 81.8599C90.0762 81.8599 89.8668 82.0094 89.8668 82.458C89.8668 84.1426 89.8668 85.8372 89.8668 87.5218C89.8668 87.9604 90.0562 88.1299 90.4948 88.1299C92.1496 88.1299 93.8142 88.1299 95.4789 88.1299C96.0172 88.1299 96.1667 87.8907 96.1567 87.4022C96.1368 86.5948 96.1468 85.7973 96.1468 85.0098V85.0398ZM93.0965 90.7415C92.2492 90.7415 91.4119 90.7415 90.5646 90.7415C90.0462 90.7415 89.8668 90.9408 89.8768 91.4492C89.8768 93.084 89.8768 94.7188 89.8768 96.3536C89.8768 96.8121 90.0462 97.0215 90.5247 97.0115C92.1894 97.0115 93.8441 97.0115 95.5088 97.0115C95.9873 97.0115 96.1567 96.8121 96.1567 96.3536C96.1567 94.7188 96.1567 93.084 96.1567 91.4492C96.1567 90.8711 95.9075 90.7216 95.3892 90.7415C94.5818 90.7316 93.8641 90.7116 93.0965 90.7116V90.7415ZM72.0338 46.2636C73.0306 46.2636 74.0274 46.2636 75.0242 46.2636C75.5725 46.2636 75.8516 46.124 75.8416 45.506C75.8416 44.3198 75.8416 43.1236 75.8416 41.9374C75.8416 41.439 75.6622 41.2197 75.1538 41.2197C73.0937 41.2197 71.0303 41.2197 68.9636 41.2197C68.4452 41.2197 68.2658 41.439 68.2658 41.9374C68.2658 43.1236 68.2658 44.3198 68.2658 45.506C68.2658 46.1141 68.5349 46.2736 69.0832 46.2636C70.08 46.2138 71.0569 46.2337 72.0338 46.2337V46.2636ZM53.6924 41.2795C52.875 41.2795 52.0576 41.2795 51.2402 41.2795C50.7418 41.2795 50.5125 41.4689 50.5225 41.9773C50.5225 43.1934 50.5225 44.4095 50.5225 45.6256C50.5225 46.144 50.7418 46.3234 51.2402 46.3234C52.8551 46.3234 54.4599 46.3234 56.0748 46.3234C56.613 46.3234 56.8423 46.144 56.8324 45.5858C56.8324 44.3996 56.8324 43.2034 56.8324 42.0172C56.8324 41.4589 56.613 41.2696 56.0748 41.2795C55.2773 41.2297 54.4898 41.2097 53.7123 41.2097L53.6924 41.2795ZM62.5142 46.2636H65.0561C65.4648 46.2636 65.704 46.134 65.704 45.6755V41.7979C65.704 41.3892 65.4847 41.2397 65.1059 41.2397C63.4113 41.2397 61.7168 41.2397 60.0322 41.2397C59.5936 41.2397 59.4041 41.439 59.4141 41.8677C59.4141 43.1037 59.4141 44.3497 59.4141 45.5858C59.4141 46.1241 59.6633 46.2836 60.1418 46.2736C60.9293 46.2237 61.6869 46.2337 62.5142 46.2337V46.2636ZM81.5633 46.2636H84.0255C84.5139 46.2636 84.7532 46.1141 84.7432 45.5858C84.7432 44.3697 84.7432 43.1535 84.7432 41.9374C84.7432 41.429 84.5538 41.2297 84.0454 41.2297C82.4007 41.2297 80.7659 41.2297 79.1311 41.2297C78.6726 41.2297 78.4433 41.3792 78.4433 41.8677C78.4433 43.1137 78.4433 44.3497 78.4433 45.5958C78.4433 46.0643 78.6327 46.2636 79.1112 46.2536L81.5633 46.2636ZM90.435 46.2636C91.2524 46.2636 92.0798 46.2636 92.8971 46.2636C93.4454 46.2636 93.6348 46.0443 93.6248 45.506C93.6248 44.3198 93.6248 43.1236 93.6248 41.9374C93.6248 41.439 93.4553 41.2197 92.937 41.2297C91.3022 41.2297 89.6575 41.2297 88.0227 41.2297C87.5043 41.2297 87.3149 41.439 87.3249 41.9374C87.3249 43.1236 87.3249 44.3198 87.3249 45.506C87.3249 46.1141 87.5841 46.2835 88.1423 46.2636C88.8999 46.2138 89.6675 46.2337 90.435 46.2337V46.2636ZM47.9408 43.8114C47.9408 43.1834 47.9408 42.5455 47.9408 41.9075C47.9408 41.449 47.7713 41.2297 47.2928 41.2397C46.4754 41.2397 45.6581 41.2397 44.8307 41.2397C44.422 41.2397 44.1828 41.3792 44.1828 41.8278C44.1828 43.1236 44.1828 44.4195 44.1828 45.7154C44.1718 45.7873 44.1774 45.8607 44.1991 45.9301C44.2208 45.9996 44.2581 46.0632 44.3081 46.116C44.3581 46.1689 44.4195 46.2096 44.4876 46.2352C44.5557 46.2608 44.6287 46.2705 44.7011 46.2636H45.4986C47.9408 46.2437 47.9408 46.2337 47.9408 43.7815V43.8114ZM99.9646 43.8114C99.9646 43.1735 99.9646 42.5455 99.9646 41.9075C99.9646 41.4988 99.845 41.2496 99.3864 41.2496H96.7748C96.3661 41.2496 96.2166 41.459 96.2166 41.8477C96.2166 43.1104 96.2166 44.3763 96.2166 45.6456C96.2166 46.0742 96.4059 46.2636 96.8346 46.2636C97.6021 46.2636 98.3697 46.2636 99.1372 46.2636C99.9048 46.2636 100.014 46.0044 99.9745 45.3764C99.9346 44.7484 99.9646 44.2999 99.9646 43.7716V43.8114Z" stroke="white" stroke-width="0.23" stroke-miterlimit="10"/>
<path d="M71.8848 86.884C69.6091 86.9156 67.3911 86.1674 65.5995 84.7638C63.8079 83.3602 62.5504 81.3858 62.0363 79.1687C61.796 78.0918 61.7817 76.9767 61.9945 75.8941C62.2073 74.8114 62.6424 73.7847 63.2724 72.8788C65.7644 69.2703 68.3362 65.7117 70.888 62.1431C71.003 61.9284 71.1741 61.749 71.383 61.624C71.5919 61.4989 71.8308 61.4328 72.0742 61.4328C72.3177 61.4328 72.5567 61.4989 72.7656 61.624C72.9745 61.749 73.1455 61.9284 73.2605 62.1431C75.8422 65.7316 78.4738 69.2703 80.926 72.9386C83.6971 77.1152 82.1022 82.7871 77.5867 85.3788C75.8642 86.404 73.8888 86.9254 71.8848 86.884ZM71.9945 84.2824C73.2538 84.2366 74.4924 83.9489 75.6429 83.435C79.2314 81.7704 80.7665 77.6136 78.7629 74.5235C76.7593 71.4334 74.5464 68.5426 72.4331 65.5522C72.174 65.1833 71.9746 65.1833 71.7254 65.5522C69.6022 68.5426 67.4191 71.5331 65.3856 74.5235C64.8575 75.2942 64.544 76.1917 64.4774 77.1237C64.4108 78.0557 64.5936 78.9886 65.0069 79.8266C66.3825 82.817 68.9044 84.063 71.9945 84.3023V84.2824Z" stroke="white" stroke-width="0.23" stroke-miterlimit="10"/>
<path d="M46.7352 85.01C46.7352 86.8541 46.7352 88.7082 46.7352 90.5523C46.758 90.765 46.727 90.9801 46.6449 91.1776C46.5629 91.3752 46.4325 91.549 46.2657 91.683C46.0989 91.817 45.9012 91.9069 45.6906 91.9445C45.48 91.982 45.2633 91.9661 45.0605 91.898C44.7897 91.8231 44.5528 91.6575 44.3895 91.4289C44.2262 91.2003 44.1463 90.9224 44.1633 90.642C44.1633 86.8641 44.1633 83.0761 44.1633 79.2982C44.1537 79.125 44.18 78.9516 44.2406 78.789C44.3013 78.6264 44.395 78.4781 44.5158 78.3535C44.6366 78.229 44.7819 78.1308 44.9426 78.0652C45.1033 77.9996 45.2758 77.968 45.4493 77.9724C45.6223 77.9679 45.7944 77.9995 45.9546 78.0652C46.1147 78.1309 46.2595 78.2293 46.3795 78.354C46.4996 78.4788 46.5923 78.6271 46.6518 78.7897C46.7113 78.9523 46.7363 79.1255 46.7252 79.2982C46.7252 81.2021 46.7252 83.106 46.7252 85.01H46.7352Z" stroke="white" stroke-width="0.23" stroke-miterlimit="10"/>
<path d="M46.7337 74.2143C46.7254 74.4677 46.6418 74.7129 46.4936 74.9186C46.3454 75.1243 46.1393 75.2811 45.9015 75.3692C45.6638 75.4572 45.4051 75.4724 45.1587 75.4129C44.9123 75.3533 44.6892 75.2217 44.5179 75.0348C44.3466 74.8479 44.2348 74.6143 44.1969 74.3636C44.1589 74.1129 44.1965 73.8566 44.3049 73.6274C44.4132 73.3982 44.5874 73.2064 44.8052 73.0766C45.0229 72.9468 45.2744 72.8848 45.5275 72.8985C45.8616 72.9141 46.176 73.0612 46.402 73.3077C46.628 73.5542 46.7472 73.8802 46.7337 74.2143Z" stroke="white" stroke-width="0.23" stroke-miterlimit="10"/>
<path d="M77.178 77.0353C77.0996 78.2837 76.5663 79.46 75.6791 80.3417C74.7919 81.2234 73.6123 81.7494 72.3634 81.82C71.4264 81.82 70.8483 81.3914 70.7984 80.6238C70.7486 79.8563 71.2071 79.3778 72.0943 79.2184C72.7381 79.1944 73.3498 78.9306 73.809 78.4787C74.2683 78.0268 74.542 77.4195 74.5764 76.7761C74.7358 75.7793 75.2442 75.3607 76.0118 75.4305C76.7793 75.5003 77.198 76.0884 77.178 77.0353Z" stroke="white" stroke-width="0.23" stroke-miterlimit="10"/>
</g>
</g>
</svg>
