<svg width="145" height="145" viewBox="0 0 145 145" fill="none" xmlns="http://www.w3.org/2000/svg">
<g id="Component 10">
<path id="Vector" d="M119.962 0.5H25.0648C11.5053 0.5 0.513184 11.4921 0.513184 25.0516V119.948C0.513184 133.508 11.5053 144.5 25.0648 144.5H119.962C133.521 144.5 144.513 133.508 144.513 119.948V25.0516C144.513 11.4921 133.521 0.5 119.962 0.5Z" fill="white"/>
<path id="Vector_2" d="M72.6225 114.695C59.624 114.695 46.6255 114.695 33.627 114.695C33.2178 114.694 32.8128 114.612 32.4353 114.454C32.0579 114.296 31.7153 114.065 31.4273 113.774C31.1393 113.483 30.9115 113.138 30.757 112.759C30.6025 112.38 30.5243 111.974 30.5269 111.565C30.4721 110.785 30.4721 110.003 30.5269 109.223C30.6082 108.652 30.8528 108.117 31.2313 107.681C31.6098 107.246 32.106 106.93 32.6601 106.77C32.9791 106.671 33.029 106.511 33.029 106.232C33.029 99.5071 33.029 92.7785 33.029 86.0467C33.029 80.7337 32.9692 75.4306 33.029 70.0976C33.0032 68.3615 33.4998 66.6577 34.4543 65.2073C35.4088 63.7569 36.7772 62.6268 38.3819 61.9636C38.8517 61.7472 39.3428 61.5802 39.8471 61.4652C39.8805 61.4629 39.913 61.4536 39.9426 61.438C39.9722 61.4223 39.9981 61.4007 40.0188 61.3744C40.0394 61.3481 40.0544 61.3178 40.0626 61.2853C40.0708 61.2529 40.0721 61.2191 40.0665 61.1861C40.1163 59.4018 40.0665 57.6275 40.0665 55.8432C40.0665 55.5541 39.9468 55.4843 39.6777 55.4943C39.1109 55.5298 38.5447 55.4147 38.0367 55.1608C37.5287 54.9068 37.0969 54.5231 36.7851 54.0483C36.4733 53.5736 36.2927 53.0248 36.2615 52.4577C36.2303 51.8906 36.3497 51.3253 36.6075 50.8192C36.8516 50.2807 37.2499 49.8265 37.752 49.5143C38.2541 49.202 38.8375 49.0456 39.4285 49.0648C40.1462 49.0648 40.0765 49.1844 40.0765 48.4269C40.0765 44.3698 40.0765 40.3227 40.0765 36.2657C40.0394 35.4729 40.1703 34.6812 40.4606 33.9425C40.7509 33.2038 41.1941 32.5348 41.7611 31.9794C42.266 31.468 42.8685 31.0633 43.5329 30.7893C44.1974 30.5153 44.9101 30.3777 45.6287 30.3845C53.3939 30.3845 61.1591 30.3845 68.9143 30.3845C69.8036 30.3853 70.6785 30.6094 71.4587 31.0361C72.2389 31.4628 72.8995 32.0785 73.38 32.8267C74.0779 33.8189 74.4284 35.0139 74.3769 36.2258C74.3769 36.7243 74.3769 37.2227 74.3769 37.7111C74.3769 37.9404 74.4466 38.0401 74.6959 38.0401H77.6165C77.8458 38.0401 77.9255 37.9504 77.9255 37.7311C77.9255 37.5118 77.9255 36.9934 77.9255 36.6246C77.9402 36.2202 78.0391 35.8234 78.2158 35.4594C78.3925 35.0954 78.6431 34.7722 78.9517 34.5105C79.2603 34.2488 79.6201 34.0544 80.0081 33.9395C80.3961 33.8247 80.8038 33.7919 81.2051 33.8434C81.9466 33.9352 82.6269 34.3012 83.1121 34.8694C83.5973 35.4376 83.8523 36.1669 83.8267 36.9137V37.741C83.8267 37.9304 83.8865 38.0401 84.0958 38.0401H88.6114C88.8307 38.0401 88.8805 37.9304 88.8805 37.741C88.8588 37.225 88.8821 36.708 88.9503 36.196C89.1256 35.5072 89.5405 34.9033 90.1206 34.4927C90.7007 34.082 91.4081 33.8914 92.116 33.955C92.8239 34.0186 93.486 34.3322 93.9836 34.8397C94.4812 35.3471 94.7818 36.0153 94.8315 36.7243C94.8315 37.0432 94.8315 37.3622 94.8315 37.7211C94.8315 38.0799 94.9412 38.0799 95.2003 38.0799C95.5799 38.0617 95.9603 38.0784 96.3367 38.1298C97.2014 38.2876 97.9823 38.7466 98.5407 39.4255C99.0991 40.1043 99.3989 40.959 99.387 41.8379C99.387 42.1155 99.2767 42.3818 99.0804 42.5781C98.8841 42.7743 98.6179 42.8846 98.3403 42.8846C98.0628 42.8846 97.7965 42.7743 97.6002 42.5781C97.4039 42.3818 97.2936 42.1155 97.2936 41.8379C97.174 40.4823 96.1872 40.0337 95.0209 40.1433C94.8714 40.1433 94.8415 40.2629 94.8415 40.3826V44.4496C94.8415 44.7088 95.001 44.7088 95.1804 44.7088H97.8718C99.4261 44.655 100.964 45.0421 102.308 45.8252C103.242 46.3748 104.048 47.1168 104.674 48.0018C105.299 48.8869 105.73 49.8948 105.936 50.9588C106.016 51.3276 106.155 51.4373 106.524 51.4273C107.272 51.4273 108.019 51.4273 108.757 51.4273C109.638 51.4675 110.476 51.8176 111.123 52.4159C111.771 53.0142 112.186 53.8221 112.296 54.6969C112.316 54.9723 112.316 55.2488 112.296 55.5242V105.993C112.296 106.581 112.296 106.581 112.814 106.79C113.426 107.005 113.951 107.413 114.31 107.953C114.67 108.492 114.844 109.134 114.808 109.781V111.565C114.808 112.364 114.495 113.131 113.936 113.701C113.376 114.272 112.616 114.6 111.817 114.615H72.5428L72.6225 114.695ZM81.7035 75.0419V47.131C81.7082 47.0994 81.7056 47.0671 81.6959 47.0366C81.6863 47.0061 81.6697 46.9782 81.6476 46.9551C81.6254 46.932 81.5983 46.9143 81.5682 46.9033C81.5382 46.8923 81.506 46.8884 81.4742 46.8918H57.6304C57.0459 46.8926 56.4648 46.9799 55.9059 47.151C54.8309 47.4859 53.8789 48.131 53.1695 49.0054C52.46 49.8798 52.0249 50.9443 51.9186 52.0653C51.9186 52.4042 51.9784 52.4739 52.2974 52.4739H65.4853C65.7181 52.4917 65.9396 52.5821 66.1184 52.7323C66.2972 52.8825 66.4244 53.085 66.4821 53.3113C66.5275 53.5091 66.5151 53.7158 66.4461 53.9067C66.3772 54.0977 66.2547 54.2647 66.0933 54.3879C65.7956 54.574 65.4467 54.6612 65.0965 54.6371H52.4768C51.9585 54.6371 51.9585 54.637 51.9585 55.1454V59.7607C51.9585 60.1893 51.9585 60.1993 52.4071 60.1993H65.4255C65.6271 60.1782 65.8305 60.215 66.012 60.3054C66.1934 60.3958 66.3454 60.5361 66.45 60.7097C66.5546 60.8834 66.6075 61.0832 66.6026 61.2859C66.5977 61.4885 66.5352 61.6856 66.4223 61.854C66.305 62.0276 66.1432 62.1665 65.9538 62.2559C65.7643 62.3454 65.5543 62.3822 65.3457 62.3624H52.417C51.9585 62.3624 51.9585 62.3624 51.9585 62.8309V67.4761C51.9585 67.9844 51.9585 67.9844 52.4768 67.9844H65.6049C65.7927 67.9856 65.9763 68.0399 66.1346 68.1409C66.2929 68.242 66.4195 68.3856 66.4997 68.5554C66.5799 68.7252 66.6105 68.9143 66.588 69.1007C66.5655 69.2871 66.4908 69.4634 66.3725 69.6092C66.2624 69.7683 66.1122 69.8954 65.9371 69.9777C65.7621 70.06 65.5684 70.0945 65.3756 70.0777H52.3373C52.0283 70.0777 51.9286 70.1574 51.9385 70.4764C51.9385 72.0514 51.9385 73.6264 51.9385 75.2014C51.9385 75.7098 51.9385 75.7097 52.4569 75.7097H65.1663C65.2924 75.6996 65.419 75.6996 65.5451 75.7097C65.741 75.7251 65.9288 75.7948 66.0872 75.911C66.2457 76.0273 66.3687 76.1854 66.4422 76.3676C66.5109 76.5304 66.535 76.7084 66.5123 76.8836C66.4895 77.0587 66.4206 77.2247 66.3127 77.3645C66.1758 77.5287 66.0004 77.6565 65.8021 77.7365C65.6038 77.8165 65.3888 77.8462 65.1763 77.823H52.3373C52.0283 77.823 51.9286 77.9027 51.9385 78.2217C51.9385 79.7767 51.9385 81.3218 51.9385 82.8768C51.9385 83.3952 51.9385 83.3952 52.4469 83.3952H65.4653C65.6454 83.4035 65.8209 83.4549 65.9771 83.5451C66.1332 83.6353 66.2653 83.7617 66.3625 83.9135C66.4613 84.0696 66.5179 84.2485 66.5268 84.433C66.5357 84.6175 66.4965 84.8011 66.4131 84.9659C66.3297 85.1307 66.2049 85.271 66.051 85.3731C65.8971 85.4751 65.7194 85.5355 65.5351 85.5483C65.4055 85.5483 65.2759 85.5483 65.1563 85.5483H52.3373C52.1379 85.5483 51.9585 85.5483 51.9585 85.8274C51.9585 87.512 51.9585 89.2066 51.9585 90.8913C51.9585 91.1006 52.0183 91.2003 52.2276 91.1704H65.4553C65.6881 91.1557 65.9191 91.2191 66.1116 91.3506C66.3042 91.4821 66.4474 91.6742 66.5184 91.8963C66.5893 92.1185 66.5841 92.3578 66.5035 92.5767C66.4229 92.7955 66.2716 92.9812 66.0734 93.1042C65.8689 93.2345 65.6273 93.2941 65.3856 93.2737H52.427C51.9286 93.2737 51.9286 93.2737 51.9286 93.7621V98.3374C51.9286 98.8957 51.9286 98.8957 52.4669 98.8957H65.5551C65.8126 98.9162 66.0544 99.0278 66.2371 99.2105C66.4198 99.3932 66.5314 99.635 66.5519 99.8925C66.5729 100.13 66.5081 100.367 66.3691 100.561C66.23 100.755 66.0261 100.893 65.7943 100.949C65.5743 101.014 65.3457 101.044 65.1165 101.039H52.3373C52.0382 101.039 51.9485 101.109 51.9585 101.418C51.9585 103.003 51.9585 104.587 51.9585 106.172C51.9585 106.501 52.0183 106.621 52.3871 106.621H103.544C103.893 106.621 103.992 106.541 103.992 106.182C103.992 104.916 103.992 103.641 103.992 102.365V52.9225C104.028 51.9462 103.83 50.9756 103.414 50.0916C102.965 49.1193 102.242 48.2993 101.334 47.7326C100.425 47.1659 99.3709 46.8771 98.3004 46.9018H95.5094C94.7817 46.9018 94.8315 46.8419 94.8315 47.5696V102.395C94.8315 102.524 94.8315 102.644 94.8315 102.773C94.8254 102.93 94.7825 103.083 94.7063 103.219C94.6301 103.356 94.5228 103.473 94.3929 103.561C93.6553 104.099 92.7681 103.621 92.6884 102.624C92.6884 102.325 92.5588 102.305 92.3195 102.305H84.2354C83.8865 102.305 83.7669 102.375 83.7968 102.733C83.8157 102.931 83.7755 103.129 83.6812 103.303C83.5869 103.477 83.4429 103.619 83.2675 103.711C83.0921 103.803 82.8932 103.841 82.6964 103.819C82.4995 103.798 82.3134 103.718 82.162 103.591C81.9964 103.488 81.8648 103.338 81.7833 103.161C81.7018 102.984 81.674 102.787 81.7035 102.594V75.0419ZM35.222 88.0005V106.222C35.222 106.462 35.2219 106.651 35.5609 106.651H49.3468C49.905 106.651 49.905 106.651 49.905 106.083C49.905 88.14 49.905 70.1973 49.905 52.2547C49.9074 51.2745 50.1288 50.3073 50.553 49.4237C51.0541 48.2899 51.8214 47.2937 52.7898 46.5197C53.7581 45.7458 54.8988 45.2169 56.1152 44.9779C56.4541 44.9081 56.5538 44.7685 56.5638 44.4296C56.5638 43.4328 56.504 42.436 56.5638 41.4392C56.665 40.5416 57.0887 39.7113 57.7561 39.1026C58.4234 38.4939 59.2891 38.1483 60.1922 38.1298H67.9773C68.1966 38.1298 68.2863 38.0501 68.2764 37.8208C68.2664 37.5915 68.2764 37.2027 68.2764 36.8937C68.2764 36.5847 68.1866 36.505 67.8876 36.505H46.5158C46.1969 36.505 46.1072 36.6046 46.1172 36.9137C46.1172 38.1896 46.1172 39.4655 46.1172 40.7415V48.5266C46.1172 49.2144 46.0574 49.1346 46.7551 49.1446H47.5127C47.6545 49.1545 47.7927 49.1945 47.9177 49.2621C48.0428 49.3298 48.152 49.4234 48.2379 49.5367C48.3238 49.65 48.3845 49.7804 48.4158 49.919C48.4472 50.0577 48.4486 50.2015 48.4198 50.3408C48.3755 50.6104 48.2304 50.8531 48.0139 51.0197C47.7973 51.1862 47.5255 51.2643 47.2535 51.2379C44.7715 51.2379 42.2694 51.2379 39.8173 51.2379C39.6679 51.228 39.5181 51.228 39.3687 51.2379C39.144 51.2603 38.9322 51.3535 38.7638 51.504C38.5954 51.6544 38.4791 51.8545 38.4317 52.0752C38.3753 52.2872 38.3863 52.5113 38.4631 52.7168C38.5399 52.9222 38.6787 53.0986 38.8603 53.2215C39.1557 53.4124 39.5073 53.4968 39.8571 53.4608H46.8348C46.9792 53.4359 47.1273 53.4431 47.2685 53.4819C47.4098 53.5207 47.5407 53.5902 47.6521 53.6853C47.7634 53.7805 47.8524 53.8991 47.9128 54.0326C47.9731 54.166 48.0033 54.3111 48.0012 54.4576C48.0035 54.6078 47.9738 54.7569 47.914 54.8948C47.8542 55.0327 47.7657 55.1562 47.6544 55.2572C47.5431 55.3581 47.4115 55.4341 47.2684 55.4802C47.1254 55.5263 46.9742 55.5412 46.8249 55.5242H42.5585C42.2794 55.5242 42.1897 55.594 42.1897 55.893C42.1897 57.5776 42.1897 59.2623 42.1897 60.9568C42.1897 61.216 42.2695 61.2858 42.5187 61.2858H45.6486C45.7933 61.2776 45.9379 61.303 46.0711 61.36C46.2043 61.4171 46.3224 61.5043 46.4162 61.6148C46.5512 61.7571 46.6411 61.9362 46.6748 62.1294C46.7085 62.3227 46.6844 62.5216 46.6056 62.7013C46.5362 62.9076 46.4013 63.0856 46.2213 63.208C46.0413 63.3304 45.8261 63.3904 45.6088 63.3791H41.9704C41.0881 63.3765 40.2139 63.5477 39.3978 63.8829C38.5816 64.2181 37.8396 64.7108 37.2138 65.3328C36.5881 65.9548 36.091 66.6941 35.751 67.5082C35.4109 68.3223 35.2346 69.1954 35.2319 70.0777C35.2253 76.0453 35.222 82.0196 35.222 88.0005ZM72.6922 108.734H33.6669C33.4026 108.734 33.149 108.839 32.962 109.026C32.7751 109.213 32.6701 109.467 32.6701 109.731C32.6701 110.359 32.6701 110.977 32.6701 111.595C32.6701 111.86 32.7751 112.113 32.962 112.3C33.149 112.487 33.4026 112.592 33.6669 112.592C33.9062 112.592 34.1554 112.592 34.3946 112.592H111.757C112.022 112.592 112.275 112.487 112.462 112.3C112.649 112.113 112.754 111.86 112.754 111.595C112.754 110.99 112.754 110.382 112.754 109.771C112.784 109.555 112.735 109.335 112.616 109.152C112.497 108.968 112.316 108.834 112.106 108.774C111.898 108.706 111.677 108.682 111.458 108.704L72.6922 108.734ZM70.1803 44.7386H81.2948C81.6137 44.7386 81.7134 44.6489 81.7134 44.33C81.7134 43.1139 81.7134 41.8978 81.7134 40.6816C81.7134 40.1533 81.7134 40.1533 81.1851 40.1533H60.3816C60.1506 40.1462 59.9207 40.1869 59.7063 40.2729C59.4918 40.359 59.2975 40.4885 59.1355 40.6532C58.9735 40.818 58.8474 41.0145 58.7651 41.2304C58.6828 41.4463 58.646 41.6769 58.6571 41.9077V44.2801C58.6571 44.7287 58.6571 44.7287 59.1256 44.7287L70.1803 44.7386ZM57.2217 34.3618C60.9797 34.3618 64.7476 34.3618 68.5156 34.3618C68.7695 34.352 69.0228 34.3948 69.2595 34.4875C69.4961 34.5802 69.711 34.7208 69.8907 34.9006C70.0704 35.0803 70.2111 35.2952 70.3038 35.5318C70.3965 35.7685 70.4393 36.0217 70.4295 36.2757C70.4295 36.7741 70.4295 37.2725 70.4295 37.7609C70.4295 37.9902 70.5092 38.0899 70.7484 38.0899H71.9546C72.1639 38.0899 72.2337 38.0201 72.2337 37.8108C72.2337 37.1629 72.2337 36.5249 72.2337 35.877C72.2141 35.2777 72.0357 34.6944 71.717 34.1866C71.3983 33.6787 70.9506 33.2645 70.4195 32.9862C69.7689 32.6364 69.0338 32.4742 68.2963 32.5177H45.858C45.3719 32.5056 44.8884 32.5916 44.4364 32.7705C43.9843 32.9495 43.5729 33.2177 43.2268 33.5591C42.8807 33.9006 42.6069 34.3083 42.4219 34.7579C42.2368 35.2076 42.1443 35.6899 42.1499 36.176C42.1499 38.688 42.1499 41.1601 42.1499 43.7119C42.1499 45.4065 42.1499 47.0912 42.1499 48.7758C42.1499 49.015 42.2097 49.1047 42.4589 49.0948C42.7081 49.0848 43.1665 49.0948 43.5254 49.0948C43.8843 49.0948 44.0139 49.0948 44.0139 48.5964V36.186C43.9961 35.9419 44.031 35.6968 44.1163 35.4673C44.2017 35.2379 44.3355 35.0296 44.5086 34.8566C44.6817 34.6835 44.89 34.5497 45.1194 34.4643C45.3488 34.379 45.5939 34.344 45.838 34.3618H57.2217ZM88.2226 58.4548H92.2797C92.5688 58.4548 92.6884 58.385 92.6884 58.076C92.6884 56.7137 92.6884 55.3481 92.6884 53.9791C92.6884 53.6602 92.5688 53.6003 92.2797 53.6003H84.2354C83.9064 53.6003 83.8267 53.71 83.8267 54.0091C83.8267 55.3382 83.8267 56.6838 83.8267 58.0462C83.8267 58.3552 83.9064 58.4648 84.2354 58.4548H88.2226ZM88.2226 67.5159H84.2354C83.9463 67.5159 83.8267 67.5757 83.8267 67.8947C83.8267 69.2637 83.8267 70.6293 83.8267 71.9916C83.8267 72.2707 83.9065 72.3804 84.1955 72.3704H92.3195C92.6186 72.3704 92.6983 72.2707 92.6884 71.9916C92.6884 70.6359 92.6884 69.2902 92.6884 67.9346C92.6884 67.5857 92.5687 67.5059 92.2498 67.5159H88.2226ZM88.2226 100.201H92.2099C92.5189 100.201 92.6286 100.122 92.6286 99.8027C92.6286 98.4736 92.6286 97.1446 92.6286 95.8155C92.6286 95.4865 92.5289 95.3869 92.1999 95.3869H84.2254C83.9164 95.3869 83.8068 95.4666 83.8068 95.7955C83.8068 97.1512 83.8068 98.5069 83.8068 99.8526C83.8068 100.162 83.8965 100.251 84.1955 100.251L88.2226 100.201ZM88.2226 81.4414H84.2354C83.9662 81.4414 83.8466 81.5112 83.8466 81.8102C83.8466 83.1858 83.8466 84.5614 83.8466 85.937C83.8466 86.2361 83.9662 86.3059 84.2354 86.3059H92.3295C92.6385 86.3059 92.7183 86.1963 92.7083 85.9072C92.7083 84.5615 92.7083 83.2158 92.7083 81.9199C92.7083 81.6009 92.6186 81.4813 92.2797 81.4913C90.9141 81.4514 89.5783 81.4414 88.2226 81.4414ZM88.2226 65.3628H92.3595C92.5788 65.3628 92.6685 65.3628 92.6585 65.0737C92.6585 63.6782 92.6585 62.2726 92.6585 60.8771C92.6585 60.6179 92.5687 60.5382 92.3195 60.5382H84.1556C83.8865 60.5382 83.7968 60.6379 83.7968 60.897C83.7968 62.2726 83.7968 63.6582 83.7968 65.0339C83.7968 65.2831 83.8666 65.3628 84.1257 65.3628H88.2226ZM88.2226 79.3182H92.3495C92.6087 79.3182 92.6884 79.2584 92.6784 78.9893C92.6784 77.6203 92.6784 76.2546 92.6784 74.8923C92.6784 74.6032 92.6087 74.4936 92.2996 74.4936H84.2354C83.9563 74.4936 83.8466 74.5734 83.8466 74.8624C83.8466 76.238 83.8466 77.6236 83.8466 78.9992C83.8466 79.2584 83.9264 79.3182 84.1856 79.3182H88.2226ZM88.2226 93.2737H92.3295C92.5887 93.2737 92.6585 93.2038 92.6485 92.9446C92.6485 91.579 92.6485 90.2134 92.6485 88.8477C92.6485 88.5088 92.5189 88.449 92.2199 88.449H84.2454C83.9363 88.449 83.8267 88.5387 83.8267 88.8577C83.8267 90.1868 83.8267 91.5425 83.8267 92.9248C83.8267 93.2238 83.9263 93.2836 84.2054 93.2737H88.2226ZM88.2226 44.8084C89.5584 44.8084 90.8841 44.8084 92.2099 44.8084C92.5289 44.8084 92.6485 44.7287 92.6485 44.3898C92.6485 43.1338 92.6485 41.8877 92.6485 40.6318C92.6485 40.3227 92.5688 40.2131 92.2398 40.2231H84.2354C83.9064 40.2231 83.8366 40.3327 83.8366 40.6417C83.8366 41.8878 83.8366 43.1438 83.8366 44.3898C83.8366 44.6988 83.9164 44.8084 84.2454 44.8084C85.5512 44.7287 86.8869 44.7386 88.2226 44.7386V44.8084ZM88.2226 51.517H92.3195C92.5687 51.517 92.6585 51.4572 92.6485 51.1881C92.6485 49.9121 92.6485 48.6263 92.6485 47.3404C92.6485 47.0214 92.5189 46.9516 92.2299 46.9616H84.2354C83.9064 46.9616 83.8267 47.0812 83.8267 47.3902C83.8267 48.6462 83.8267 49.9121 83.8267 51.1781C83.8267 51.4273 83.8865 51.527 84.1656 51.527C85.5013 51.4373 86.867 51.4472 88.2226 51.4472V51.517ZM110.153 66.4194C110.153 65.3428 110.153 64.2663 110.153 63.1897C110.153 62.9206 110.063 62.8309 109.794 62.8309H106.415C106.135 62.8309 106.036 62.9106 106.046 63.1997C106.046 65.3329 106.046 67.476 106.046 69.6092C106.046 69.8783 106.125 69.9681 106.395 69.9581H109.774C110.053 69.9581 110.153 69.8784 110.153 69.5893C110.153 68.4629 110.153 67.4063 110.153 66.3497V66.4194ZM106.056 103.182C106.056 104.259 106.056 105.345 106.056 106.422C106.056 106.641 106.106 106.721 106.345 106.721C107.511 106.721 108.687 106.721 109.854 106.721C110.073 106.721 110.163 106.661 110.163 106.432C110.163 104.268 110.163 102.115 110.163 99.9523C110.163 99.6931 110.063 99.6134 109.814 99.6134H106.405C106.125 99.6134 106.046 99.7131 106.056 99.9822C106.076 100.979 106.066 102.046 106.066 103.112L106.056 103.182ZM106.056 75.5901C106.056 76.5869 106.056 77.6834 106.056 78.7301C106.056 79.0192 106.135 79.1288 106.444 79.1288C107.561 79.1288 108.667 79.1288 109.784 79.1288C110.103 79.1288 110.173 79.0092 110.173 78.7201C110.173 76.6401 110.173 74.5501 110.173 72.4502C110.173 72.1611 110.093 72.0414 109.784 72.0514H106.444C106.165 72.0514 106.056 72.1312 106.066 72.4202C106.076 73.4071 106.066 74.4637 106.066 75.5203L106.056 75.5901ZM106.056 93.9913C106.056 94.9882 106.056 96.0847 106.056 97.1313C106.056 97.4204 106.135 97.5301 106.444 97.5301C107.561 97.5301 108.667 97.5301 109.784 97.5301C110.103 97.5301 110.173 97.4104 110.173 97.1214C110.173 95.0347 110.173 92.9447 110.173 90.8513C110.173 90.5623 110.093 90.4526 109.784 90.4526C108.667 90.4526 107.551 90.4526 106.444 90.4526C106.125 90.4526 106.056 90.5722 106.066 90.8613C106.076 91.8681 106.066 92.865 106.066 93.9216L106.056 93.9913ZM106.056 84.7907V87.8809C106.056 88.1101 106.106 88.2197 106.365 88.2197H109.844C110.083 88.2197 110.163 88.1201 110.163 87.8908C110.163 85.7576 110.163 83.6211 110.163 81.4813C110.163 81.2221 110.063 81.1523 109.814 81.1523H106.405C106.125 81.1523 106.046 81.242 106.056 81.5112C106.076 82.5877 106.066 83.6544 106.066 84.721L106.056 84.7907ZM106.056 57.1988C106.056 58.2555 106.056 59.3121 106.056 60.3688C106.056 60.6578 106.145 60.7376 106.425 60.7376H109.764C110.073 60.7376 110.163 60.6379 110.163 60.3388C110.163 58.6542 110.163 56.9696 110.163 55.285C110.167 55.0718 110.128 54.86 110.048 54.6623C109.968 54.4645 109.849 54.2848 109.699 54.134C109.548 53.9833 109.368 53.8645 109.17 53.7848C108.973 53.7051 108.761 53.6661 108.548 53.6701C107.84 53.6701 107.142 53.6701 106.444 53.6701C106.125 53.6701 106.056 53.7798 106.066 54.0689C106.076 55.0358 106.066 56.0825 106.066 57.1291L106.056 57.1988ZM91.8012 38.0401H92.4193C92.5688 38.0401 92.6585 37.9803 92.6585 37.8208C92.6585 37.432 92.6585 37.0333 92.6585 36.6545C92.6407 36.5242 92.5909 36.4003 92.5136 36.2939C92.4363 36.1875 92.3339 36.1019 92.2154 36.0447C92.097 35.9874 91.9663 35.9603 91.8349 35.9659C91.7035 35.9714 91.5755 36.0094 91.4623 36.0764C91.2806 36.1962 91.1383 36.367 91.0531 36.5673C90.968 36.7677 90.944 36.9887 90.9838 37.2027C90.9838 38.04 90.9739 38.0401 91.8012 38.0401ZM80.8363 38.0401H81.4543C81.5839 38.0401 81.6835 38.04 81.6736 37.8407C81.7134 37.418 81.6932 36.9918 81.6138 36.5748C81.5738 36.4176 81.488 36.2758 81.3673 36.1676C81.2466 36.0593 81.0965 35.9894 80.9359 35.9667C80.7876 35.9443 80.6359 35.9643 80.4984 36.0242C80.3608 36.0842 80.243 36.1817 80.1584 36.3056C79.9904 36.5688 79.9264 36.885 79.979 37.1928C80.0089 38.1996 79.8693 38.0401 80.8562 38.0401H80.8363Z" fill="#2F3A4C" stroke="white" stroke-width="0.21" stroke-miterlimit="10"/>
</g>
</svg>
