<svg width="145" height="145" viewBox="0 0 145 145" fill="none" xmlns="http://www.w3.org/2000/svg">
<g id="Component 10">
<path id="Vector" d="M119.462 0.22998H24.5648C11.0053 0.22998 0.0131836 11.2221 0.0131836 24.7816V119.678C0.0131836 133.238 11.0053 144.23 24.5648 144.23H119.462C133.021 144.23 144.013 133.238 144.013 119.678V24.7816C144.013 11.2221 133.021 0.22998 119.462 0.22998Z" fill="white"/>
<path id="Vector_2" d="M49.6359 77.0446C48.0077 80.5667 46.3862 84.0888 44.7714 87.6109C44.0936 89.0762 43.3958 90.5316 42.7778 92.0069C42.6433 92.361 42.3978 92.6622 42.078 92.8652C41.7582 93.0682 41.3811 93.1622 41.0034 93.1333C39.6321 93.1996 38.2648 92.9364 37.0161 92.3657C36.8061 92.3062 36.6121 92.2007 36.4481 92.0566C36.2842 91.9125 36.1544 91.7337 36.0684 91.533C35.9824 91.3324 35.9423 91.1151 35.9511 90.897C35.9598 90.6789 36.0172 90.4655 36.119 90.2724C38.3452 82.5969 40.5748 74.9181 42.8077 67.236C42.9399 66.7624 43.1903 66.3302 43.5354 65.98C44.6119 64.8636 45.6586 63.7272 46.7551 62.6307C46.9723 62.4596 47.135 62.2291 47.2235 61.9672C47.312 61.7052 47.3224 61.4232 47.2535 61.1554C47.0486 60.3514 47.0694 59.5063 47.3133 58.7132C47.4161 58.4059 47.4352 58.0768 47.3686 57.7597C47.302 57.4426 47.1522 57.149 46.9345 56.909C41.8441 49.7386 36.767 42.5615 31.7032 35.3778C30.5768 33.7829 30.5768 33.6234 31.7032 31.9687C32.2683 31.0384 33.0221 30.237 33.9161 29.6162C34.0677 29.4883 34.2435 29.3923 34.4331 29.334C34.6226 29.2757 34.8221 29.2562 35.0194 29.2767C35.2166 29.2972 35.4077 29.3571 35.5813 29.4531C35.7548 29.5491 35.9072 29.6792 36.0293 29.8355C40.3023 34.3145 44.5887 38.7803 48.8883 43.2327C50.0346 44.4189 51.151 45.625 52.3172 46.7813C52.9824 47.4216 53.4525 48.2373 53.673 49.1338C54.0219 50.4396 54.4306 51.7255 54.7894 53.0314C54.8348 53.2898 54.9525 53.53 55.1289 53.7241C55.3054 53.9182 55.5334 54.0582 55.7863 54.1278C56.6692 54.4149 57.4602 54.9308 58.0789 55.6231C58.2185 55.7843 58.3975 55.9066 58.5983 55.9783C58.7992 56.0499 59.0151 56.0684 59.2252 56.0318L82.6005 53.8687C83.9761 53.749 85.3517 53.6294 86.7273 53.4899C87.0719 53.4429 87.4226 53.5064 87.7289 53.6712C88.0352 53.836 88.2813 54.0935 88.432 54.407C89.0919 55.4723 89.5451 56.6526 89.7677 57.8859C89.977 59.1518 89.5982 59.7798 88.3821 60.0788L65.0965 65.8105C64.5531 65.9452 63.9851 65.9452 63.4417 65.8105C61.9365 65.4317 60.4513 65.0529 58.9361 64.7041C58.6915 64.6565 58.4395 64.6623 58.1973 64.721C57.955 64.7796 57.7282 64.8898 57.5324 65.044C57.3366 65.1982 57.1763 65.3927 57.0625 65.6145C56.9486 65.8362 56.8839 66.0799 56.8728 66.3289C57.0123 70.0769 57.1917 73.8249 57.3712 77.563C57.4409 79.2476 57.5506 80.9223 57.6204 82.5471C57.8397 87.8003 58.0291 93.0634 58.2683 98.3266C58.4976 103.311 58.7767 108.375 58.996 113.398C58.996 114.196 59.3548 114.395 60.0825 114.395C69.3861 114.395 78.6698 114.395 87.9336 114.395C88.7111 114.395 88.9303 114.116 88.9802 113.398C89.2194 107.152 89.4886 100.905 89.7876 94.6584C90.0069 89.8039 90.2661 84.9395 90.5153 80.075C90.5851 78.7791 90.1465 78.4003 88.8805 78.6395C82.4809 79.8656 76.0814 81.0718 69.6918 82.3178C69.3433 82.4193 68.9709 82.4017 68.6334 82.2682C68.2959 82.1346 68.0125 81.8926 67.8278 81.5802C67.2865 80.8748 66.884 80.0732 66.6416 79.2177C66.3127 77.9119 66.5818 77.4135 67.8477 76.9649C72.6324 75.2803 77.447 73.6854 82.1719 71.8712C84.0686 71.0956 86.1617 70.9385 88.1528 71.4226C88.8483 71.5147 89.5539 71.3595 90.1465 70.984C91.851 70.2165 92.2597 68.7512 92.7881 67.226C94.6521 61.7734 96.5858 56.3508 98.4299 50.8982C98.5391 50.4558 98.7966 50.0642 99.1593 49.7886C99.522 49.5129 99.9682 49.3697 100.424 49.383C101.146 49.3295 101.872 49.3867 102.577 49.5525C103.962 49.9512 104.301 50.4396 104.042 51.8551C103.374 55.4735 102.686 59.092 102.048 62.7104C101.779 64.1359 101.44 65.5514 101.281 66.9868C101.063 68.7203 100.319 70.3452 99.1477 71.642C97.5728 73.4861 97.7222 75.5296 99.3271 77.3737C103.314 81.9524 107.278 86.5343 111.219 91.1197C112.216 92.266 112.216 92.6648 111.518 94.0304C111.348 94.3507 111.158 94.6603 110.95 94.9574C109.704 96.6619 108.956 96.7318 107.361 95.3661L97.3135 86.7536C97.0743 86.5443 96.8351 86.1456 96.5062 86.2951C96.1772 86.4446 96.3566 86.8833 96.3666 87.1923C96.6856 94.3295 97.0178 101.46 97.3634 108.584C97.4332 110.169 97.5527 111.744 97.5627 113.319C97.5627 114.196 97.9017 114.445 98.739 114.435C103.414 114.435 108.089 114.435 112.764 114.435C114.15 114.435 114.608 115.093 114.19 116.429C114.161 116.558 114.087 116.673 113.981 116.751C113.874 116.83 113.743 116.868 113.612 116.858H112.724H30.2479C28.7925 116.858 28.7726 116.857 28.7626 115.691C28.7526 114.525 28.7625 114.425 30.0484 114.425H46.6454C48.021 114.425 48.0809 114.425 48.1606 113C48.2603 111.385 48.3001 109.78 48.3799 108.165C48.6989 101.397 48.9481 94.6284 49.2471 87.8501C49.4066 84.2715 49.606 80.6931 49.7854 77.1145L49.6359 77.0446ZM54.2711 67.1563C53.673 68.6117 52.5765 69.8676 52.4768 71.4824C52.2475 75.1308 52.0681 78.7791 51.9086 82.4474C51.6794 87.7006 51.48 92.9638 51.2607 98.217C51.1809 99.9315 51.0812 101.636 51.0015 103.341C50.832 106.73 50.6825 110.109 50.5031 113.498C50.5031 114.186 50.7523 114.495 51.4202 114.425C52.736 114.425 54.0618 114.425 55.4075 114.425C56.3245 114.425 56.6135 114.126 56.5637 113.229C56.3843 109.77 56.2747 106.321 56.1152 102.872C55.8161 96.2035 55.4773 89.5347 55.1782 82.866C55.0187 79.417 54.9588 75.9582 54.7196 72.5092C54.702 70.7142 54.5353 68.9237 54.2212 67.1563H54.2711ZM52.2775 53.2009C52.0482 52.4034 51.7492 51.4963 51.5398 50.5693C51.2845 49.5131 50.7227 48.5559 49.925 47.818C47.8416 45.7148 45.828 43.5416 43.7746 41.3985L35.2817 32.5767C35.0225 32.3175 34.7933 31.9088 34.2849 32.3275C34.0987 32.4317 33.9391 32.5776 33.8185 32.7536C33.6979 32.9297 33.6195 33.1311 33.5896 33.3424C33.5597 33.5537 33.5789 33.7692 33.6459 33.9718C33.7129 34.1744 33.8259 34.3588 33.9759 34.5106L43.5453 48.0573C45.1602 50.35 46.7783 52.6327 48.3998 54.9054C48.5892 55.1745 48.7288 55.7527 49.277 55.2742C50.0252 54.6247 50.9115 54.1542 51.8687 53.8986C52.1877 53.8288 52.3373 53.6593 52.2675 53.2207L52.2775 53.2009ZM39.877 90.6412C40.5449 90.8007 40.8738 90.3322 41.1031 89.7441C44.459 82.4341 47.8283 75.1241 51.2108 67.8141C51.8587 66.4086 51.8488 66.4086 50.533 65.7208C50.3237 65.6112 50.1343 65.4716 49.935 65.372C49.3767 65.1327 49.0976 64.2156 48.4497 64.4349C47.8018 64.6542 47.5226 65.2423 47.084 65.6809C46.6454 66.1195 46.3265 66.5084 45.9178 66.8871C45.3864 67.377 45.009 68.0107 44.8313 68.7113C42.8376 75.5959 40.844 82.4773 38.8504 89.3553C38.5214 90.4518 38.6708 90.6213 39.867 90.6612L39.877 90.6412ZM64.2692 63.4979L67.9973 62.5808L86.2688 58.0952C86.5878 58.0154 87.0464 58.0952 87.1361 57.6067C87.1438 57.2059 87.0021 56.8165 86.7387 56.5144C86.4752 56.2122 86.1087 56.0189 85.7106 55.9719C84.7138 56.0218 83.717 56.1214 82.6604 56.2112L68.2465 57.547C65.6647 57.7962 63.0929 58.0554 60.5012 58.2946C60.0028 58.2946 59.644 58.4939 59.7835 59.072C59.9557 59.9466 59.9112 60.8501 59.6539 61.7036C59.5542 62.0924 59.6539 62.3516 60.0327 62.4512L64.2692 63.4979ZM92.7481 81.0918C92.5887 84.8398 92.4591 88.4183 92.2896 91.9969C91.9906 98.5958 91.6217 105.195 91.3825 111.794C91.2729 114.784 90.7346 114.345 94.0441 114.385C94.7717 114.385 95.0409 114.126 95.0409 113.389C94.9412 111.395 94.8914 109.401 94.8016 107.408C94.4827 100.35 94.1736 93.2827 93.8048 86.2253C93.7051 84.5407 93.8247 82.7864 92.7382 81.1117L92.7481 81.0918ZM53.4935 64.0063C54.0631 64.0972 54.6456 64.0635 55.2009 63.9074C55.7561 63.7513 56.2709 63.4767 56.7097 63.1024C57.1485 62.728 57.5009 62.263 57.7425 61.7393C57.9842 61.2156 58.1093 60.6456 58.1093 60.0688C58.1093 59.4921 57.9842 58.9222 57.7425 58.3985C57.5009 57.8748 57.1485 57.4097 56.7097 57.0354C56.2709 56.6611 55.7561 56.3864 55.2009 56.2304C54.6456 56.0743 54.0631 56.0405 53.4935 56.1315C52.924 56.0405 52.3415 56.0743 51.7862 56.2304C51.231 56.3864 50.7162 56.6611 50.2774 57.0354C49.8386 57.4097 49.4862 57.8748 49.2445 58.3985C49.0029 58.9222 48.8778 59.4921 48.8778 60.0688C48.8778 60.6456 49.0029 61.2156 49.2445 61.7393C49.4862 62.263 49.8386 62.728 50.2774 63.1024C50.7162 63.4767 51.231 63.7513 51.7862 63.9074C52.3415 64.0635 52.924 64.0972 53.4935 64.0063ZM96.7454 78.3705C96.1672 78.7592 95.5392 79.1679 94.9311 79.5965C94.9311 79.5965 94.9311 79.7958 94.9311 79.8756C95.4694 80.9721 95.6091 82.2579 96.6657 83.1152C98.7789 84.8497 100.822 86.664 102.886 88.4383C104.63 89.9435 106.375 91.4287 108.139 92.924C108.408 93.1532 108.677 93.6317 109.136 93.1632C109.594 92.6947 109.136 92.4555 108.897 92.1664L108.837 92.0866L97.3534 78.809C97.174 78.6495 97.0644 78.4302 96.7354 78.3903L96.7454 78.3705ZM101.48 52.0843C101.46 52.0198 101.423 51.9622 101.372 51.9181C101.32 51.874 101.258 51.8453 101.191 51.8351C101.081 51.7937 100.961 51.7888 100.848 51.8211C100.734 51.8534 100.635 51.9213 100.563 52.0146C100.42 52.2734 100.306 52.5476 100.224 52.8319C98.4233 57.9888 96.6257 63.1423 94.8315 68.2926C94.3231 69.7678 94.3231 69.7679 95.7286 70.5056C96.0376 70.6651 96.3865 71.0439 96.7254 70.6352C97.4531 69.6384 98.43 68.8608 98.6593 67.4952C99.2175 64.1658 99.9053 60.8464 100.533 57.527C100.802 55.7926 101.121 54.0481 101.47 52.1043L101.48 52.0843ZM88.1229 74.6523C88.1229 74.3432 88.3821 73.8448 87.7341 73.7651C86.3486 73.5856 84.993 73.197 83.5875 73.8649C82.4611 74.3932 81.2449 74.7122 80.0587 75.1308C76.6496 76.327 73.2405 77.5298 69.8314 78.7393C69.5722 78.829 69.0838 78.809 69.2133 79.3174C69.3429 79.8258 69.7217 79.786 70.1005 79.7361L70.579 79.6463L86.4582 76.6559C88.1029 76.3169 88.103 76.317 88.1129 74.6722L88.1229 74.6523ZM93.1768 77.3835C93.6925 77.3835 94.1966 77.2308 94.6257 76.9447C95.0547 76.6586 95.3895 76.2519 95.5877 75.7759C95.7859 75.2998 95.8387 74.7757 95.7396 74.2697C95.6404 73.7636 95.3937 73.2983 95.0304 72.9323C94.6671 72.5663 94.2036 72.3159 93.6984 72.2129C93.1931 72.1099 92.6686 72.1587 92.1911 72.3533C91.7135 72.5479 91.3043 72.8796 91.0149 73.3065C90.7256 73.7333 90.5691 74.2364 90.5652 74.752C90.5572 75.0982 90.6186 75.4425 90.7459 75.7645C90.8732 76.0866 91.0637 76.3799 91.3062 76.627C91.5487 76.8742 91.8383 77.0702 92.1579 77.2036C92.4774 77.3369 92.8206 77.4049 93.1668 77.4035L93.1768 77.3835Z" fill="#2F3A4C"/>
<path id="Vector_3" d="M90.1846 31.6597H72.4113C72.1557 31.6815 71.8991 31.631 71.6709 31.5138C71.4426 31.3965 71.2521 31.2173 71.121 30.9967C70.9899 30.7762 70.9235 30.5232 70.9296 30.2667C70.9357 30.0101 71.0139 29.7605 71.1553 29.5464C71.1959 29.4565 71.2619 29.3804 71.3451 29.3273C71.4283 29.2742 71.5252 29.2464 71.6239 29.2474C71.8862 29.2323 72.149 29.2323 72.4113 29.2474H107.669C109.044 29.1878 110.408 29.5218 111.601 30.2102C112.793 30.8986 113.764 31.9128 114.4 33.1338C115.036 34.3549 115.311 35.7321 115.192 37.1037C115.073 38.4753 114.565 39.7846 113.728 40.8777C112.891 41.9707 111.759 42.8024 110.466 43.2749C109.173 43.7474 107.771 43.8412 106.427 43.5453C105.082 43.2494 103.85 42.5761 102.875 41.6043C101.899 40.6326 101.221 39.4028 100.92 38.0593V37.86C100.92 37.3914 100.511 36.8133 101.04 36.4943C101.595 36.2658 102.213 36.2411 102.784 36.4245C103.233 36.5142 103.183 36.9628 103.243 37.3117C103.435 38.3879 103.987 39.3671 104.808 40.0894C105.628 40.8117 106.669 41.2346 107.761 41.2889C108.853 41.3433 109.931 41.026 110.82 40.3887C111.708 39.7515 112.354 38.8319 112.653 37.7801C112.856 37.0719 112.893 36.3261 112.759 35.6014C112.626 34.8767 112.326 34.1928 111.884 33.6035C111.441 33.0142 110.868 32.5355 110.209 32.2052C109.551 31.8748 108.824 31.7018 108.087 31.6996C102.106 31.6996 96.1754 31.6996 90.2144 31.6996L90.1846 31.6597Z" fill="#2F3A4C"/>
<path id="Vector_4" d="M70.7484 36.9028C76.6694 36.9028 82.6005 36.9028 88.5215 36.9028C89.8898 36.9048 91.2294 37.2953 92.3846 38.0286C93.5397 38.762 94.463 39.8082 95.047 41.0456C95.6309 42.283 95.8514 43.6608 95.6831 45.0187C95.5148 46.3766 94.9645 47.6589 94.0961 48.7163C93.2278 49.7737 92.077 50.5629 90.7778 50.9921C89.4785 51.4212 88.0842 51.4727 86.7568 51.1405C85.4294 50.8084 84.2236 50.1061 83.2796 49.1156C82.3356 48.1251 81.6922 46.8871 81.4242 45.5453C81.3345 45.0867 81.0753 44.4587 81.5139 44.1497C81.7823 44.0242 82.0731 43.9535 82.3692 43.9415C82.6653 43.9295 82.9607 43.9766 83.2384 44.08C83.8365 44.2096 83.687 44.8275 83.7966 45.2362C84.061 46.4867 84.8113 47.5809 85.8825 48.2782C86.9537 48.9755 88.2579 49.2188 89.5084 48.9544C90.7589 48.69 91.8531 47.9397 92.5504 46.8685C93.2477 45.7974 93.4909 44.493 93.2265 43.2426C93.0498 42.1249 92.4713 41.1103 91.5995 40.389C90.7277 39.6677 89.6225 39.2894 88.4916 39.3251C77.9918 39.3251 67.492 39.3251 56.9923 39.3251C55.507 39.3251 54.0018 39.3251 52.5465 39.3251C51.5497 39.3251 51.5497 38.737 51.5497 38.0292C51.5497 37.3215 51.6793 36.863 52.5465 36.863C58.6071 36.9228 64.6877 36.9028 70.7484 36.9028Z" fill="#2F3A4C"/>
<path id="Vector_5" d="M64.8857 47.0605C62.8123 47.0605 60.7488 47.0605 58.6754 47.0605C57.6786 47.0605 57.6786 46.5821 57.6786 45.8245C57.6786 45.0669 57.7683 44.5885 58.6754 44.5984C62.8554 44.5984 67.0288 44.5984 71.1955 44.5984C72.1026 44.5984 72.1923 45.0669 72.1923 45.7746C72.1923 46.4823 72.1923 47.0805 71.1955 47.0605C69.0922 47.0306 66.9889 47.0605 64.8857 47.0605Z" fill="#2F3A4C"/>
</g>
</svg>
