<svg width="145" height="145" viewBox="0 0 145 145" fill="none" xmlns="http://www.w3.org/2000/svg">
<g id="Component 10">
<path id="Vector" d="M119.692 0.77002H24.7948C11.2353 0.77002 0.243164 11.7621 0.243164 25.3216V120.218C0.243164 133.778 11.2353 144.77 24.7948 144.77H119.692C133.251 144.77 144.243 133.778 144.243 120.218V25.3216C144.243 11.7621 133.251 0.77002 119.692 0.77002Z" fill="white"/>
<path id="Vector_2" d="M71.9839 103.542H40.6939C39.0691 103.542 39.0392 103.542 39.0392 101.917C39.0392 97.9298 39.0392 93.9659 39.0392 90.0251C39.0392 88.7592 39.109 88.6993 40.345 88.6893C41.1923 88.6893 42.0396 88.6893 42.8769 88.6893C43.7142 88.6893 43.9734 88.9485 43.9635 89.756C43.9635 92.3277 43.9635 94.8895 43.9635 97.4613C43.9635 98.3485 44.2426 98.6376 45.1397 98.6376C63.0824 98.6376 81.0251 98.6376 98.9677 98.6376C99.9147 98.6376 100.124 98.2887 100.104 97.4414C100.104 94.9394 100.104 92.4573 100.104 89.9353C100.104 89.0382 100.343 88.6196 101.31 88.6794C102.277 88.7392 103.194 88.6794 104.141 88.6794C104.729 88.6794 105.048 88.8688 105.048 89.5167C105.048 93.9027 105.048 98.2887 105.048 102.675C105.067 102.788 105.058 102.904 105.024 103.013C104.989 103.123 104.929 103.222 104.848 103.304C104.767 103.386 104.668 103.447 104.559 103.483C104.45 103.519 104.334 103.529 104.221 103.512H103.154L71.9839 103.542Z" fill="#2F3A4C" stroke="white" stroke-width="1.6" stroke-miterlimit="10"/>
<path id="Vector_3" d="M53.7018 93.2147C50.8608 93.2147 51.1998 93.5138 51.2995 90.7825C51.3991 88.0512 50.3026 85.9778 49.3058 83.7449C48.5082 82.2497 48.0148 80.6114 47.854 78.9244C47.6932 77.2374 47.8681 75.5353 48.3688 73.9164C48.873 72.4752 49.542 71.0971 50.3625 69.8095C51.8178 67.4171 52.8246 64.9151 52.0172 62.0542C51.7382 61.0894 51.4054 60.141 51.0204 59.2133C50.1552 57.3165 49.7357 55.2467 49.7943 53.1626C49.7943 52.3552 49.5351 52.0362 48.7277 52.0861C47.9202 52.1359 47.2324 52.0861 46.4848 52.0861C45.9665 52.0861 45.7273 51.9167 46.0762 51.3883C48.0233 48.471 49.9637 45.5503 51.8975 42.6263C52.2165 42.1478 52.4757 42.1877 52.7648 42.6263L58.3868 51.3983C58.7058 51.8967 58.5563 52.106 57.9881 52.096C57.4199 52.0861 56.6224 52.096 55.9446 52.096C55.0375 52.0163 54.7086 52.3054 54.6887 53.2723C54.6675 54.8055 55.0091 56.322 55.6855 57.6981C58.1676 62.762 57.5695 67.5766 54.6887 72.2417C53.4244 73.9513 52.7524 76.0267 52.7747 78.1528C52.9704 79.7727 53.4926 81.3359 54.3099 82.7481C55.7685 85.5051 56.4572 88.6042 56.3035 91.7195C56.2337 93.2247 56.3035 93.2446 54.7783 93.2546L53.7018 93.2147Z" fill="#2F3A4C" stroke="white" stroke-width="1.6" stroke-miterlimit="10"/>
<path id="Vector_4" d="M72.0338 93.2147C69.1829 93.2147 69.5517 93.5038 69.6315 90.7825C69.6194 88.6298 69.0749 86.5134 68.0465 84.6222C66.8496 82.4824 66.167 80.0935 66.0529 77.6445C66.1654 74.9 67.0348 72.2402 68.5649 69.959C69.761 67.9654 70.7778 65.912 70.5585 63.4698C70.3836 62.1128 69.9898 60.7931 69.3922 59.5622C68.4585 57.5496 67.9948 55.351 68.0365 53.1328C68.0365 52.3154 67.7375 52.0164 66.95 52.0762C66.332 52.0762 65.714 52.0762 65.096 52.0762C64.4779 52.0762 64.0991 51.9366 64.5876 51.2089C66.0928 48.9661 67.578 46.7133 69.0533 44.4605C69.472 43.8424 69.8806 43.2144 70.2893 42.5865C70.5884 42.1279 70.8475 42.1279 71.1466 42.5865L76.7886 51.3584C77.1873 51.9665 76.8783 52.0762 76.33 52.0662C75.4827 52.0662 74.6454 52.0662 73.7981 52.0662C73.1602 52.0662 72.9608 52.3154 72.9309 52.9334C72.8809 54.434 73.1705 55.9265 73.7782 57.2995C74.8768 59.5206 75.4659 61.9589 75.5027 64.4366C75.3282 67.1077 74.4775 69.6907 73.0306 71.9427C71.9042 73.8665 70.8276 75.7804 71.0369 78.123C71.2424 79.8084 71.792 81.4336 72.6518 82.8977C74.076 85.6891 74.7265 88.8109 74.5358 91.9388C74.5358 92.8459 74.2367 93.2745 73.2898 93.1948C72.8811 93.1848 72.4524 93.2147 72.0338 93.2147Z" fill="#2F3A4C" stroke="white" stroke-width="1.6" stroke-miterlimit="10"/>
<path id="Vector_5" d="M90.3161 93.2049C87.5449 93.2049 87.8639 93.4939 87.9636 90.8325C87.9477 88.5867 87.3721 86.3803 86.2889 84.413C85.3292 82.5972 84.711 80.6206 84.4648 78.5816C84.3031 76.0657 84.8892 73.5582 86.1494 71.3747C86.6378 70.4576 87.1462 69.5704 87.6844 68.6633C88.4306 67.4361 88.8643 66.0448 88.9477 64.611C89.0312 63.1773 88.7617 61.7449 88.1629 60.4395C87.2945 58.6863 86.7284 56.7991 86.4883 54.8574C86.4384 54.2095 86.4185 53.5615 86.4185 52.8638C86.4185 52.166 86.1792 52.0364 85.6011 52.0464C84.7837 52.0464 83.9763 52.0464 83.1589 52.0464C82.6107 52.0464 82.3116 51.9068 82.7103 51.3187C84.6342 48.418 86.568 45.5272 88.4819 42.6265C88.8108 42.128 89.0501 42.1181 89.389 42.6265C91.2032 45.4773 93.0341 48.3183 94.8815 51.1493C95.34 51.857 95.2004 52.1461 94.3631 52.0663C93.8448 52.0663 93.3663 52.0663 92.8081 52.0663C91.3428 52.0663 91.3527 52.0663 91.3328 53.4818C91.3561 54.7514 91.627 56.0042 92.1303 57.17C93.0246 59.0588 93.6134 61.0775 93.8747 63.1509C94.1239 66.6996 92.8081 69.7698 91.0138 72.6905C90.0045 74.1624 89.4341 75.8909 89.3691 77.6745C89.4477 79.0639 89.8143 80.4217 90.4456 81.6618C91.4425 83.8249 92.5389 85.9282 92.7782 88.3405C92.9177 89.6463 92.828 90.9421 92.8579 92.238C92.8579 92.8461 92.5888 93.1351 91.9807 93.1252L90.3161 93.2049Z" fill="#2F3A4C" stroke="white" stroke-width="1.6" stroke-miterlimit="10"/>
</g>
</svg>
