<svg width="144" height="144" viewBox="0 0 144 144" fill="none" xmlns="http://www.w3.org/2000/svg">
<g id="Component 10">
<path id="Vector" d="M119.448 0H24.5516C10.9921 0 0 10.9921 0 24.5516V119.448C0 133.008 10.9921 144 24.5516 144H119.448C133.008 144 144 133.008 144 119.448V24.5516C144 10.9921 133.008 0 119.448 0Z" fill="white"/>
<path id="Vector_2" d="M33.0743 60.9943C34.0753 60.9906 35.04 60.6187 35.7845 59.9496C36.529 59.2805 37.0013 58.3608 37.1114 57.3659H42.0955V102.023C42.0955 103.271 42.5912 104.468 43.4736 105.35C44.3559 106.233 45.5526 106.728 46.8005 106.728C48.0483 106.728 49.245 106.233 50.1274 105.35C51.0097 104.468 51.5054 103.271 51.5054 102.023V96.9096H56.4895V102.023C56.4895 103.271 56.9852 104.468 57.8675 105.35C58.7499 106.233 59.9466 106.728 61.1944 106.728C62.4423 106.728 63.6391 106.233 64.5214 105.35C65.4038 104.468 65.8995 103.271 65.8995 102.023V96.9096H70.744V102.023C70.7147 102.66 70.8148 103.296 71.0382 103.893C71.2617 104.49 71.6039 105.035 72.0442 105.496C72.4844 105.957 73.0136 106.324 73.5996 106.575C74.1857 106.826 74.8165 106.955 75.4539 106.955C76.0914 106.955 76.7222 106.826 77.3082 106.575C77.8943 106.324 78.4235 105.957 78.8637 105.496C79.3039 105.035 79.6462 104.49 79.8696 103.893C80.0931 103.296 80.1932 102.66 80.1639 102.023V96.9096H85.1479V102.023C85.1479 103.271 85.6436 104.468 86.526 105.35C87.4083 106.233 88.6051 106.728 89.8529 106.728C91.1007 106.728 92.2976 106.233 93.1799 105.35C94.0623 104.468 94.558 103.271 94.558 102.023V96.9096H99.542V102.023C99.542 103.271 100.038 104.468 100.92 105.35C101.802 106.233 102.999 106.728 104.247 106.728C105.495 106.728 106.692 106.233 107.574 105.35C108.456 104.468 108.952 103.271 108.952 102.023V96.9096H110.028C111.419 96.9096 112.753 96.3572 113.736 95.3739C114.719 94.3906 115.272 93.0569 115.272 91.6663C115.272 90.2757 114.719 88.9421 113.736 87.9588C112.753 86.9755 111.419 86.4231 110.028 86.4231H108.952V57.3659H110.028C110.737 57.3968 111.444 57.2839 112.108 57.0341C112.772 56.7843 113.378 56.4027 113.89 55.9123C114.402 55.4219 114.81 54.8329 115.088 54.1807C115.367 53.5286 115.51 52.8268 115.51 52.1177C115.51 51.4085 115.367 50.7067 115.088 50.0546C114.81 49.4024 114.402 48.8134 113.89 48.3231C113.378 47.8327 112.772 47.4511 112.108 47.2012C111.444 46.9514 110.737 46.8385 110.028 46.8694H108.952V41.7558C108.952 40.5079 108.456 39.3112 107.574 38.4289C106.692 37.5465 105.495 37.0508 104.247 37.0508C102.999 37.0508 101.802 37.5465 100.92 38.4289C100.038 39.3112 99.542 40.5079 99.542 41.7558V46.8694H94.558V41.7558C94.558 40.5079 94.0623 39.3112 93.1799 38.4289C92.2976 37.5465 91.1007 37.0508 89.8529 37.0508C88.6051 37.0508 87.4083 37.5465 86.526 38.4289C85.6436 39.3112 85.1479 40.5079 85.1479 41.7558V46.8694H80.1639V41.7558C80.1081 40.5441 79.5876 39.4005 78.7104 38.5628C77.8332 37.725 76.6669 37.2575 75.4539 37.2575C74.241 37.2575 73.0747 37.725 72.1975 38.5628C71.3203 39.4005 70.7998 40.5441 70.744 41.7558V46.8694H65.8995V41.7558C65.8995 40.5079 65.4038 39.3112 64.5214 38.4289C63.6391 37.5465 62.4423 37.0508 61.1944 37.0508C59.9466 37.0508 58.7499 37.5465 57.8675 38.4289C56.9852 39.3112 56.4895 40.5079 56.4895 41.7558V46.8694H51.5054V41.7558C51.5054 40.5079 51.0097 39.3112 50.1274 38.4289C49.245 37.5465 48.0483 37.0508 46.8005 37.0508C45.5526 37.0508 44.3559 37.5465 43.4736 38.4289C42.5912 39.3112 42.0955 40.5079 42.0955 41.7558V46.8694H37.1114C37.0085 45.8362 36.5123 44.882 35.7256 44.2043C34.9389 43.5266 33.9218 43.1773 32.8847 43.2285C31.8476 43.2797 30.8698 43.7276 30.1537 44.4795C29.4376 45.2314 29.0378 46.2298 29.0371 47.2681V57.0968C29.0607 58.1473 29.4981 59.1461 30.2541 59.8759C31.0101 60.6058 32.0236 61.0077 33.0743 60.9943ZM56.3799 86.4231H51.3958V57.3659H56.3799V86.4231ZM51.5353 94.2281V88.9749H56.5194V94.2281H51.5353ZM70.6443 86.4231H65.7997V57.3659H70.6443V86.4231ZM65.7997 94.2281V88.9749H70.6443V94.2281H65.7997ZM85.0383 86.4231H80.0542V57.3659H85.0383V86.4231ZM80.0542 94.2281V88.9749H85.0383V94.2281H80.0542ZM99.2928 86.4231H94.3087V57.3659H99.2928V86.4231ZM94.4482 94.2281V88.9749H99.4323V94.2281H94.4482ZM109.919 89.1145C110.569 89.1551 111.18 89.4422 111.626 89.9172C112.073 90.3922 112.321 91.0195 112.321 91.6713C112.321 92.3231 112.073 92.9504 111.626 93.4254C111.18 93.9004 110.569 94.1875 109.919 94.2281H108.842V88.9749H109.919V89.1145ZM109.919 49.5608C110.569 49.6015 111.18 49.8885 111.626 50.3636C112.073 50.8386 112.321 51.4659 112.321 52.1177C112.321 52.7695 112.073 53.3967 111.626 53.8717C111.18 54.3468 110.569 54.6339 109.919 54.6745H108.842V49.4213H109.919V49.5608ZM101.944 41.7558C101.944 41.227 102.154 40.7199 102.528 40.346C102.902 39.9722 103.409 39.7621 103.938 39.7621C104.467 39.7621 104.974 39.9722 105.348 40.346C105.722 40.7199 105.932 41.227 105.932 41.7558V102.163C105.932 102.692 105.722 103.199 105.348 103.573C104.974 103.946 104.467 104.156 103.938 104.156C103.409 104.156 102.902 103.946 102.528 103.573C102.154 103.199 101.944 102.692 101.944 102.163V41.7558ZM99.2529 49.5608V54.7841H94.2688V49.5409L99.2529 49.5608ZM87.6799 41.7558C87.6799 41.227 87.89 40.7199 88.2638 40.346C88.6377 39.9722 89.1448 39.7621 89.6735 39.7621C90.2023 39.7621 90.7093 39.9722 91.0832 40.346C91.4571 40.7199 91.6672 41.227 91.6672 41.7558V102.163C91.6672 102.692 91.4571 103.199 91.0832 103.573C90.7093 103.946 90.2023 104.156 89.6735 104.156C89.1448 104.156 88.6377 103.946 88.2638 103.573C87.89 103.199 87.6799 102.692 87.6799 102.163V41.7558ZM84.9884 49.5608V54.7841H80.0043V49.5409L84.9884 49.5608ZM73.3257 41.7558C73.3257 41.227 73.5358 40.7199 73.9097 40.346C74.2836 39.9722 74.7906 39.7621 75.3194 39.7621C75.8481 39.7621 76.3552 39.9722 76.729 40.346C77.1029 40.7199 77.313 41.227 77.313 41.7558V102.163C77.313 102.692 77.1029 103.199 76.729 103.573C76.3552 103.946 75.8481 104.156 75.3194 104.156C74.7906 104.156 74.2836 103.946 73.9097 103.573C73.5358 103.199 73.3257 102.692 73.3257 102.163V41.7558ZM70.6344 49.5608V54.7841H65.7897V49.5409L70.6344 49.5608ZM59.0612 41.7558C59.0612 41.227 59.2713 40.7199 59.6452 40.346C60.0191 39.9722 60.5261 39.7621 61.0549 39.7621C61.5836 39.7621 62.0908 39.9722 62.4647 40.346C62.8385 40.7199 63.0485 41.227 63.0485 41.7558V102.163C63.0485 102.692 62.8385 103.199 62.4647 103.573C62.0908 103.946 61.5836 104.156 61.0549 104.156C60.5261 104.156 60.0191 103.946 59.6452 103.573C59.2713 103.199 59.0612 102.692 59.0612 102.163V41.7558ZM56.3699 49.5608V54.7841H51.3858V49.5409L56.3699 49.5608ZM44.8068 41.7558C44.8068 41.227 45.0169 40.7199 45.3908 40.346C45.7647 39.9722 46.2717 39.7621 46.8005 39.7621C47.3292 39.7621 47.8363 39.9722 48.2101 40.346C48.584 40.7199 48.7941 41.227 48.7941 41.7558V102.163C48.7941 102.692 48.584 103.199 48.2101 103.573C47.8363 103.946 47.3292 104.156 46.8005 104.156C46.2717 104.156 45.7647 103.946 45.3908 103.573C45.0169 103.199 44.8068 102.692 44.8068 102.163V41.7558ZM42.1154 54.7144H37.1313V49.4611H42.1154V54.7144ZM31.7486 47.1784C31.7512 46.8223 31.8938 46.4816 32.1456 46.2298C32.3974 45.978 32.7381 45.8353 33.0942 45.8327C33.4442 45.854 33.7743 46.0026 34.0222 46.2505C34.2701 46.4984 34.4187 46.8285 34.4399 47.1784V56.9971C34.4399 57.354 34.2982 57.6963 34.0458 57.9486C33.7934 58.201 33.4511 58.3428 33.0942 58.3428C32.745 58.3194 32.4161 58.1701 32.1686 57.9226C31.9211 57.6752 31.7719 57.3463 31.7486 56.9971V47.1784Z" fill="#303B4D" stroke="#F7F7F7" stroke-width="0.62" stroke-miterlimit="10"/>
</g>
</svg>
