<svg width="144" height="144" viewBox="0 0 144 144" fill="none" xmlns="http://www.w3.org/2000/svg">
<g id="Component 10">
<path id="Vector" d="M119.448 0H24.5516C10.9921 0 0 10.9921 0 24.5516V119.448C0 133.008 10.9921 144 24.5516 144H119.448C133.008 144 144 133.008 144 119.448V24.5516C144 10.9921 133.008 0 119.448 0Z" fill="white"/>
<path id="Vector_2" d="M106.56 90.4719H100.12V90.8806H99.5519V89.5049H94.7772V49.1838C94.7786 48.8476 94.7122 48.5145 94.582 48.2045C94.4519 47.8945 94.2606 47.6139 94.0196 47.3795C93.7799 47.1475 93.4953 46.9668 93.1834 46.8485C92.8714 46.7303 92.5386 46.6769 92.2054 46.6917H91.5574V36.4245H98.0068V34.4309H72.9369V27.503H77.1235V19.2793H66.7666V27.503H70.9433V34.4309H46.8303V36.4245H53.5787V46.612H52.7813C52.0587 46.6146 51.3665 46.9035 50.8564 47.4155C50.3464 47.9274 50.06 48.6206 50.06 49.3432V50.0111H44.7769V51.3767H44.2187V50.9381H37.7593C37.0701 50.9616 36.4181 51.2567 35.9456 51.759C35.4731 52.2614 35.2185 52.9302 35.2373 53.6196V57.2978C35.2267 57.6395 35.2835 57.98 35.4045 58.2997C35.5255 58.6194 35.7084 58.9122 35.9426 59.1612C36.1768 59.4102 36.4578 59.6107 36.7695 59.751C37.0812 59.8914 37.4176 59.969 37.7593 59.9793H44.2187V59.5506H44.7769V60.4777H50.06V97.7686C49.9984 100.477 51.013 103.1 52.8814 105.061C54.7499 107.023 57.3198 108.165 60.0281 108.235H68.0027V113.379H70.2754V116.419H69.2786C68.4855 116.419 67.7249 116.734 67.164 117.295C66.6032 117.856 66.2881 118.616 66.2881 119.409V119.988C66.298 120.731 66.5841 121.444 67.0909 121.987C67.5977 122.531 68.2888 122.866 69.0294 122.928V123.287C69.032 123.618 69.1655 123.935 69.4008 124.169C69.636 124.402 69.954 124.533 70.2854 124.533H73.6347C73.9651 124.533 74.2821 124.402 74.5157 124.168C74.7494 123.934 74.8807 123.618 74.8807 123.287V122.928C75.6231 122.869 76.3166 122.534 76.8255 121.99C77.3343 121.446 77.6219 120.732 77.6319 119.988V119.409C77.6319 118.616 77.3168 117.856 76.756 117.295C76.1952 116.734 75.4346 116.419 74.6415 116.419H73.6447V113.379H75.9274V108.235H84.7093C87.0289 108.191 89.2624 107.349 91.0342 105.851C92.8061 104.353 94.0081 102.291 94.4382 100.011H99.4223V99.0744H100.12V99.513H106.569C107.253 99.4896 107.901 99.1986 108.372 98.7028C108.844 98.2069 109.102 97.5457 109.091 96.8615V93.1832C109.105 92.8385 109.05 92.4947 108.929 92.1714C108.809 91.8482 108.626 91.552 108.391 91.2999C108.155 91.0478 107.872 90.8448 107.558 90.7027C107.244 90.5606 106.904 90.4821 106.56 90.4719ZM68.7603 21.2929H75.1299V25.5293H68.7603V21.2929ZM75.0203 103.899V106.241H69.0394V103.899H69.1291V102.902H69.0394V100.35H75.0203V102.902H74.8109V103.899H75.0203ZM68.0426 99.3435V102.892H64.8428C63.2909 102.892 61.8026 102.276 60.7053 101.178C59.6079 100.081 58.9914 98.5927 58.9914 97.0409V36.4544H70.9532V91.3491H68.7005V89.176H63.4771V94.489H68.7005V92.7346H75.3592V94.489H80.5725V89.176H75.3592V91.3491H72.9469V36.4544H84.809V97.0409C84.809 98.591 84.1939 100.078 83.0987 101.175C82.0035 102.272 80.5178 102.89 78.9676 102.892H76.027V99.3435H68.0426ZM67.4544 90.422V93.243H64.7431V90.422H67.4544ZM76.6152 93.243V90.422H79.3265V93.243H76.6152ZM46.7705 58.484V57.557H42.225V57.9856H37.7593C37.5997 57.9609 37.4557 57.8757 37.3573 57.7476C37.259 57.6195 37.2137 57.4584 37.231 57.2978V53.6196C37.2161 53.4595 37.2623 53.2996 37.3603 53.1721C37.4582 53.0446 37.6007 52.9587 37.7593 52.9318H42.225V53.3704H46.7705V52.0047H50.06V58.484H46.7705ZM60.0381 106.241C57.8585 106.171 55.7955 105.24 54.3009 103.652C52.8063 102.064 52.0018 99.9484 52.0636 97.7686V49.3632C52.0636 49.1693 52.1399 48.9831 52.2761 48.8451C52.4123 48.707 52.5974 48.6281 52.7913 48.6255H55.5824V36.4445H57.9747V97.0409C57.9747 98.8597 58.6973 100.604 59.9834 101.89C61.2695 103.176 63.0139 103.899 64.8328 103.899H68.0326V106.241H60.0381ZM73.6945 123.496H70.3452C70.2781 123.496 70.2137 123.47 70.1653 123.424C70.117 123.378 70.0886 123.314 70.086 123.247V122.908H73.9437V123.247C73.9437 123.28 73.9373 123.312 73.9247 123.343C73.9122 123.373 73.8938 123.4 73.8707 123.423C73.8476 123.447 73.8201 123.465 73.7898 123.477C73.7596 123.49 73.7272 123.496 73.6945 123.496ZM75.6881 119.37V119.948C75.6881 120.212 75.5831 120.466 75.3962 120.653C75.2092 120.839 74.9557 120.945 74.6913 120.945H69.2587C68.9943 120.945 68.7407 120.839 68.5538 120.653C68.3669 120.466 68.2619 120.212 68.2619 119.948V119.37C68.2619 119.105 68.3669 118.852 68.5538 118.665C68.7407 118.478 68.9943 118.373 69.2587 118.373H74.6913C74.823 118.371 74.9537 118.396 75.0758 118.446C75.1979 118.495 75.309 118.568 75.4026 118.661C75.4962 118.754 75.5706 118.864 75.6213 118.986C75.672 119.107 75.6981 119.238 75.6981 119.37H75.6881ZM75.0103 112.392H69.0294V108.245H75.0103V112.392ZM92.7636 97.7785C92.8254 99.9584 92.0209 102.074 90.5263 103.662C89.0317 105.25 86.9687 106.181 84.789 106.251H76.0071V103.909H78.9477C80.7666 103.909 82.511 103.186 83.7971 101.9C85.0833 100.614 85.8058 98.8697 85.8058 97.0508V36.4445H89.5439V48.7751L92.2552 48.6754C92.3881 48.6751 92.5162 48.7249 92.614 48.8149C92.7075 48.9153 92.7607 49.0466 92.7636 49.1838V97.7785ZM107.098 96.8615C107.112 97.023 107.065 97.1841 106.965 97.3119C106.865 97.4397 106.72 97.5246 106.56 97.5493H102.114V97.1106H97.5583V98.0477H94.7672C94.7672 97.9679 94.7672 97.8782 94.7672 97.7985V91.5584H97.5483V92.8742H102.114V92.4356H106.569C106.73 92.4603 106.875 92.5452 106.975 92.6729C107.075 92.8007 107.122 92.9618 107.108 93.1234L107.098 96.8615Z" fill="#303B4D"/>
</g>
</svg>
