<svg width="86" height="65" viewBox="0 0 86 65" fill="none" xmlns="http://www.w3.org/2000/svg">
<g id="icon-about-Multi-Storey Steel Building">
<g id="Vector">
<path d="M5.59499 30.8765V29.2599H19.5664V20.4243H5.59499V18.8156H35.688V20.4243H21.7166V29.2599H35.688V30.8765H5.59499Z" fill="#2075BC"/>
<path d="M5.59499 16.2466V14.6299H19.5664V5.79437H5.59499V4.18571H35.688V5.79437H21.7166V14.6299H35.688V16.2466H5.59499Z" fill="#2075BC"/>
<path d="M5.59499 45.5065V43.8898H19.5664V35.0542H5.59499V33.4456H35.688V35.0542H21.7166V43.8898H35.688V45.5065H5.59499Z" fill="#2075BC"/>
<path d="M25.1506 58.0395V55.1423C25.1506 53.2776 23.1288 51.765 20.6362 51.765C18.1436 51.765 16.1217 53.2776 16.1217 55.1423V58.0395H13.9714V55.1423C13.9714 52.3972 16.9561 50.1563 20.6362 50.1563C24.3055 50.1563 27.3009 52.3892 27.3009 55.1423V58.0395H25.1506Z" fill="#2075BC"/>
<path d="M50.2906 30.8765V29.2599H64.262V20.4243H50.2906V18.8156H80.3836V20.4243H66.4122V29.2599H80.3836V30.8765H50.2906Z" fill="#2075BC"/>
<path d="M50.2906 16.2466V14.6299H64.262V5.79437H50.2906V4.18571H80.3836V5.79437H66.4122V14.6299H80.3836V16.2466H50.2906Z" fill="#2075BC"/>
<path d="M50.2906 45.5065V43.8898H64.262V35.0542H50.2906V33.4456H80.3836V35.0542H66.4122V43.8898H80.3836V45.5065H50.2906Z" fill="#2075BC"/>
<path d="M69.8462 58.0395V55.1423C69.8462 53.2776 67.8244 51.765 65.3318 51.765C62.8392 51.765 60.8173 53.2776 60.8173 55.1423V58.0395H58.667V55.1423C58.667 52.3972 61.6517 50.1563 65.3318 50.1563C69.0011 50.1563 71.9965 52.3892 71.9965 55.1423V58.0395H69.8462Z" fill="#2075BC"/>
<path d="M1.08049 64.3141C0.492111 64.3141 0 63.9539 0 63.5057V59.3281C0 58.8879 0.481414 58.5197 1.08049 58.5197H2.80283V0.808335C2.80283 0.368157 3.28424 0 3.88332 0H37.4104C37.9988 0 38.4909 0.360154 38.4909 0.808335V8.3634H47.5091V0.808335C47.5091 0.368157 47.9906 0 48.5896 0H82.1167C82.7051 0 83.1972 0.360154 83.1972 0.808335V58.5197H84.9195C85.5079 58.5197 86 58.8799 86 59.3281V63.5057C86 63.9459 85.5186 64.3141 84.9195 64.3141H1.08049ZM2.16099 62.7054H83.8176V60.1364H2.16099V62.7054ZM49.6487 58.5197H81.0255V1.60866H49.6487V58.5197ZM38.4802 58.5197H47.4984V43.4096H38.4802V58.5197ZM4.95311 58.5197H36.3299V1.60866H4.95311V58.5197ZM38.4802 41.801H47.4984V39.2319H38.4802V41.801ZM38.4802 37.6233H47.4984V28.7797H38.4802V37.6233ZM38.4802 27.171H47.4984V24.602H38.4802V27.171ZM38.4802 22.9933H47.4984V14.1497H38.4802V22.9933ZM38.4802 12.5411H47.4984V9.97204H38.4802V12.5411Z" fill="#2E4456"/>
</g>
</g>
</svg>
