<svg width="71" height="64" viewBox="0 0 71 64" fill="none" xmlns="http://www.w3.org/2000/svg">
<g id="Vector">
<path d="M34.4851 40.2268C34.2684 40.2268 34.0518 40.2201 33.8419 40.1998C33.6726 40.193 33.5304 40.1794 33.3747 40.1524C33.2799 40.1456 33.2257 40.1388 33.1851 40.132C32.9819 40.1049 32.7991 40.0779 32.6163 40.0305C32.4064 39.9899 32.2168 39.9424 32.0272 39.8883L31.9866 39.8747H31.9392C31.8444 39.8409 31.6819 39.7935 31.5194 39.7326C31.1605 39.6107 30.7881 39.4549 30.3751 39.2586C30.172 39.157 29.9553 39.0419 29.7521 38.9268C29.5422 38.8049 29.3323 38.6695 29.1292 38.5341C29.1292 38.5341 28.9667 38.4325 28.9328 38.4122L28.8719 38.358H28.838C28.012 37.7622 27.2198 37.0377 26.4885 36.2116L26.4817 36.2048C26.4276 36.1168 26.3599 36.0356 26.2921 35.9611C25.4593 34.9454 24.7145 33.8485 24.0848 32.6906C23.9832 32.4943 23.929 32.3656 23.929 32.3656C22.8592 30.3005 22.0805 27.9509 21.5456 25.1545C21.4034 24.4096 21.2409 23.4278 21.1732 22.4731C21.1394 22.0601 20.9972 21.5116 20.232 21.5116C20.1914 21.5116 20.144 21.5116 20.1034 21.5184C19.995 21.5252 19.8935 21.5252 19.7919 21.5252C18.8778 21.5252 18.1601 21.234 17.5913 20.6314C16.8939 19.9137 16.6163 18.898 16.8465 17.923C17.07 16.9682 17.7403 16.2031 18.6476 15.8713C19.2705 15.6546 19.5211 15.3297 19.5685 14.6796C19.9273 11.1113 21.3493 8.03047 23.7801 5.53872C24.9244 4.36056 26.265 3.39903 27.7614 2.66776C28.2083 2.45108 28.4453 2.17349 28.5807 1.71306C28.8448 0.670313 29.6912 0.0473825 30.8355 0.0270693C32.183 0.0135272 33.5372 0 34.8914 0C35.9544 0 37.0175 0.00675618 38.0805 0.0270693C39.2316 0.0473825 40.0238 0.629687 40.3827 1.71306C40.5452 2.26828 40.9379 2.51881 41.2562 2.68131C45.8876 5.15275 48.5757 8.9513 49.246 13.9687L49.2866 14.1447C49.3137 14.2734 49.3476 14.3952 49.334 14.49C49.2663 15.3093 49.7606 15.6276 50.2617 15.8307C51.4737 16.325 52.1779 17.4219 52.0966 18.6949C51.9951 19.9949 51.2299 20.9564 49.9976 21.3085C49.72 21.3965 49.4424 21.3965 49.1445 21.3965C48.0205 21.4101 47.8783 21.5387 47.7767 22.6695C47.5803 24.7008 47.1741 26.6509 46.5308 28.6416C46.0975 29.9551 45.6438 31.0859 45.136 32.1016C44.7162 32.9547 44.2625 33.7266 43.7479 34.4579C43.4297 34.9386 43.0573 35.4126 42.651 35.8798C42.5494 36.0017 42.4479 36.1303 42.3734 36.2928C41.7098 37.0851 41.0056 37.7621 40.227 38.3512C40.0915 38.3919 39.9629 38.4731 39.8207 38.5679C38.5681 39.4143 37.2883 39.9221 35.9206 40.1252L35.8732 40.132L35.7716 40.1659L35.8596 40.1388C35.6023 40.1794 35.345 40.193 35.0742 40.2133C34.932 40.22 34.7966 40.2201 34.6476 40.2201C34.6409 40.2201 34.6341 40.2201 34.6273 40.2201C34.5867 40.2201 34.546 40.2201 34.5122 40.2268H34.4851ZM23.3535 21.5184C23.1978 21.5184 22.9811 21.5387 22.8186 21.7215C22.6832 21.8705 22.6425 22.0872 22.6764 22.3783C22.8389 23.7055 23.0894 25.4524 23.5905 27.1722C24.7212 31.1874 26.3463 34.0787 28.7026 36.2658C30.4563 37.8773 32.3793 38.6966 34.4242 38.6966H34.5934C36.6518 38.6492 38.5274 37.8366 40.1593 36.2861C43.6125 32.9683 45.5084 28.6619 46.2871 22.3242C46.3142 22.0601 46.2735 21.8637 46.1449 21.7215C45.9756 21.5319 45.7183 21.532 45.6235 21.532L45.4001 21.5387L27.2604 21.532C26.0484 21.532 24.8431 21.532 23.6311 21.5387C23.604 21.532 23.4077 21.5184 23.3535 21.5184ZM48.8601 20.0288C49.1444 20.0288 49.4491 20.0085 49.7538 19.873C50.3971 19.5683 50.6747 19.0402 50.5596 18.336C50.4445 17.6724 49.9908 17.2729 49.307 17.2323C49.1918 17.2188 49.0564 17.2188 48.9278 17.2188H19.9747C19.8461 17.2188 19.7174 17.2188 19.582 17.2323C18.8846 17.2932 18.4309 17.7063 18.3497 18.3563C18.2481 19.0673 18.5461 19.609 19.1825 19.8798C19.4669 20.0152 19.7784 20.0355 20.0628 20.0355L48.8601 20.0288ZM46.7543 15.6479C47.2215 15.6479 47.5397 15.6276 47.7428 15.3906C47.9798 15.0994 47.8986 14.6661 47.7361 13.7994C46.998 9.76383 44.8787 6.62883 41.4322 4.48917C41.1546 4.3199 40.9718 4.22513 40.789 4.22513C40.3421 4.22513 40.2811 4.72618 40.2405 5.05796L39.6447 9.49299C39.4144 11.2264 39.1842 12.9598 38.9472 14.6864C38.9202 14.8895 38.8998 15.1874 39.0894 15.4109C39.2723 15.6276 39.5566 15.6547 39.8275 15.6547H46.2803L46.7543 15.6479ZM36.0695 15.6479C37.1597 15.6479 37.3763 15.5667 37.4508 14.639C37.4644 14.4697 37.4779 14.2598 37.5118 14.0025C37.8368 11.7072 38.1347 9.37111 38.4191 7.11635C38.5884 5.75536 38.7644 4.40118 38.9405 3.0402C38.9879 2.65425 39.0014 2.22767 38.7373 1.93651C38.48 1.65213 38.067 1.61147 37.742 1.61147C37.3696 1.61147 36.9904 1.60474 36.618 1.60474L34.3768 1.61147C33.2325 1.61147 32.0882 1.61151 30.9574 1.60474C30.5714 1.60474 30.287 1.71305 30.1042 1.91618C29.9214 2.12608 29.8605 2.41726 29.9146 2.78967C30.4496 6.77105 30.9709 10.7524 31.4788 14.7473C31.5532 15.3635 31.8647 15.6547 32.4606 15.6547C32.8533 15.6479 33.2054 15.6479 33.5575 15.6479H36.0695ZM28.0932 4.23865C27.951 4.23865 27.8021 4.29285 27.6125 4.40119C23.7733 6.75751 21.5524 10.1904 21.0175 14.6051C20.9769 14.9369 21.031 15.1942 21.1935 15.3703C21.4102 15.614 21.742 15.6479 21.9722 15.6479C22.3988 15.6411 22.7847 15.6411 23.1707 15.6411L25.4931 15.6479H29.1224C29.3323 15.6479 29.6303 15.6208 29.8199 15.4042C29.962 15.2416 30.0094 15.0114 29.962 14.6999C29.4881 11.3009 29.0412 7.86797 28.6688 4.94964C28.6146 4.48244 28.4182 4.23865 28.0932 4.23865Z" fill="#2E4456"/>
<path d="M35.1284 64C35.1216 64 35.1216 64 35.1148 64C28.8855 63.9932 23.8207 58.9285 23.8207 52.7127C23.8207 49.7334 24.9718 46.937 27.0708 44.8447C29.2105 42.7118 32.0882 41.5336 35.1758 41.5336C35.1825 41.5336 35.1825 41.5336 35.1893 41.5336C41.4187 41.5404 46.3615 46.4426 46.4428 52.6923C46.4766 55.6107 45.3188 58.4071 43.1792 60.5738C41.026 62.7541 38.0941 64 35.1284 64ZM35.1758 43.1045C32.508 43.1045 30.0162 44.1202 28.1745 45.9619C26.3734 47.7562 25.3848 50.16 25.3848 52.7194C25.3848 58.0753 29.7521 62.4359 35.1148 62.4427H35.1216C37.6743 62.4427 40.1999 61.3661 42.0552 59.4837C43.8969 57.6149 44.899 55.218 44.8651 52.7194C44.7974 47.3364 40.5384 43.1113 35.1758 43.1045C35.1825 43.1045 35.1825 43.1045 35.1758 43.1045Z" fill="#2075BC"/>
<path d="M11.7208 47.6276C11.6666 47.6276 11.6057 47.6276 11.5515 47.6208L11.3484 47.614C10.7661 47.5869 9.67596 47.5463 9.37126 46.2869C9.24938 45.7588 9.10718 45.6572 9.10041 45.6505C9.10041 45.6505 8.93791 45.6437 8.55196 45.928C7.41442 46.788 6.49355 45.9078 6.09406 45.5286C5.08517 44.5671 5.48467 43.6394 5.80968 43.1722C6.09406 42.766 6.06698 42.6035 6.06698 42.6035C6.06698 42.6035 5.97895 42.4884 5.56592 42.4004C4.57734 42.1837 4.08983 41.4998 4.10337 40.369C4.12368 39.3128 4.59766 38.683 5.51853 38.4867C5.97219 38.3851 6.07375 38.2565 6.07375 38.2497C6.07375 38.2497 6.08052 38.0736 5.75551 37.6538C4.93621 36.5975 5.71488 35.7579 6.08729 35.3584C6.4123 35.0131 7.3264 34.0652 8.47071 34.9048C8.93791 35.2569 9.12072 35.2298 9.12072 35.2298C9.12072 35.2298 9.29 35.1282 9.4322 34.4647C9.70981 33.124 10.9151 33.124 11.3687 33.124C12.3911 33.124 13.0412 33.6589 13.2037 34.6272C13.2917 35.1147 13.4136 35.223 13.4203 35.223C13.4203 35.223 13.4203 35.223 13.4271 35.223C13.4677 35.223 13.6438 35.2095 14.0433 34.9589C14.5714 34.6204 15.2824 34.6272 15.9392 34.9793C16.6434 35.3584 17.0835 36.0152 17.097 36.6991V36.8142L17.0632 36.9226C17.0293 37.0715 16.9887 37.2679 16.86 37.4507C16.4944 37.9518 16.4673 38.1955 16.4876 38.2429C16.4876 38.2429 16.5892 38.4393 17.3679 38.5882H17.3746C18.4986 38.8049 18.5257 39.8409 18.5325 40.3351L18.5393 40.4909C18.5934 41.9264 17.6387 42.2649 17.2257 42.3394C16.6027 42.4545 16.5012 42.617 16.5012 42.617C16.5012 42.617 16.4606 42.8066 16.8262 43.3348C17.5507 44.3707 16.7856 45.1562 16.4199 45.5354L16.3319 45.6233C15.3772 46.6187 14.524 46.3276 13.9688 45.901C13.6235 45.6301 13.4677 45.5963 13.4474 45.6301C13.4474 45.6369 13.3391 45.7385 13.2578 46.1515C13.0479 47.1333 12.5333 47.6276 11.7208 47.6276ZM9.09364 44.2895C9.25615 44.2895 9.41188 44.3165 9.56762 44.3707C10.3801 44.6686 10.6104 45.6437 10.6848 45.9619C10.739 46.1786 10.7458 46.226 11.4026 46.2531L11.6463 46.2666C11.7547 46.2734 11.7953 46.2598 11.7953 46.2598C11.7953 46.2598 11.8562 46.1921 11.9172 45.8806C12.0729 45.0681 12.425 44.5536 12.9667 44.3504C13.5084 44.1473 14.1245 44.303 14.7813 44.8244C14.9709 44.9666 15.0183 45.0072 15.3366 44.6822L15.4314 44.5874C15.5465 44.4723 15.736 44.2691 15.7564 44.1879C15.7564 44.1879 15.7428 44.154 15.7022 44.0999C15.4991 43.8087 14.8897 42.9353 15.235 42.0956C15.5803 41.256 16.6231 41.0665 16.9684 41.0055C17.0903 40.9852 17.1918 40.9649 17.1715 40.5383L17.1647 40.3623C17.1647 40.2133 17.158 39.9695 17.1173 39.8951L17.2325 39.245L17.1106 39.9086C16.7314 39.8409 15.5735 39.6242 15.2147 38.7372C14.8829 37.9044 15.4652 37.0444 15.709 36.7059C15.709 36.6923 15.7157 36.6788 15.7157 36.6652C15.7157 36.6585 15.7157 36.6517 15.7157 36.6517C15.6819 36.4824 15.5058 36.2929 15.2824 36.171C15.0793 36.0559 14.8626 36.0288 14.7542 36.0965C14.4766 36.2725 13.637 36.8007 12.8516 36.4553C12.0729 36.11 11.9104 35.1621 11.8495 34.8506C11.8021 34.5662 11.7547 34.4714 11.3484 34.4714C10.7932 34.4714 10.7796 34.5459 10.739 34.7355C10.6645 35.0944 10.4343 36.171 9.57438 36.496C8.74154 36.8074 7.91548 36.1913 7.64464 35.9881C7.51599 35.9001 7.46859 35.8527 7.08264 36.259C6.95399 36.3944 6.75086 36.6178 6.73732 36.6991C6.73732 36.6991 6.74408 36.7397 6.81179 36.821C7.35348 37.5252 7.52953 38.1617 7.3264 38.7169C7.13004 39.2586 6.61544 39.6242 5.7826 39.807C5.55915 39.8544 5.44404 39.8815 5.43727 40.3893C5.4305 40.9852 5.56592 41.019 5.82322 41.0732C6.59512 41.2289 7.09618 41.5743 7.30609 42.1024C7.52276 42.6373 7.38733 43.2603 6.89982 43.9509C6.74408 44.1744 6.71023 44.2624 7.00816 44.5535C7.49567 45.014 7.54984 44.9733 7.71912 44.8447C8.23372 44.4723 8.68061 44.2895 9.09364 44.2895Z" fill="#2075BC"/>
<path d="M59.1791 51.7241C57.7572 51.7241 56.2879 51.4397 54.7576 50.8777C53.8165 50.5256 53.1326 50.2277 52.9768 49.5303C52.8143 48.7854 53.417 48.176 53.9993 47.587C54.0941 47.4922 54.1956 47.3974 54.2904 47.3026C54.4597 47.1469 54.6154 46.9979 54.7373 46.8422C55.929 45.3999 57.2765 44.8041 59.0911 44.9259C60.2693 45.0004 61.4407 44.5197 62.3277 43.6056C63.1402 42.766 63.6006 41.6623 63.6006 40.5925C63.5668 40.6195 63.5397 40.6466 63.5059 40.6737C63.1808 40.9716 62.8694 41.2493 62.6662 41.554C61.2443 43.653 59.2536 42.7728 58.4005 42.4004C57.0259 41.7977 56.7822 40.5789 56.6061 39.6919C56.5655 39.4888 56.5249 39.2789 56.4707 39.0825C56.2405 38.2497 56.8499 37.6945 57.1749 37.3965C57.2223 37.3559 57.2629 37.3153 57.3036 37.2814C57.7301 36.8684 58.1635 36.4621 58.6307 36.022C57.4593 36.1032 56.4233 36.5095 55.6717 37.2069C54.7238 38.0736 54.2769 39.3331 54.3988 40.7482C54.5342 42.2514 54.1076 43.3144 53.0175 44.2014C52.8821 44.3098 52.7466 44.452 52.6045 44.6009C52.53 44.6822 52.4555 44.7567 52.381 44.8311C51.3247 45.8874 50.6341 46.5239 49.808 46.3208C48.9752 46.1109 48.6502 45.1968 48.1897 43.7139C47.2553 40.7076 47.6142 37.5455 49.1918 34.8168C50.7559 32.1151 53.4034 30.165 56.4572 29.4744C59.599 28.7634 62.7678 29.3661 65.3747 31.1739C67.968 32.975 69.6404 35.7173 70.0738 38.8929C70.6493 43.1113 69.2545 46.5984 65.9299 49.2594C63.8715 50.898 61.6099 51.7241 59.1791 51.7241ZM54.6696 49.1579C54.805 49.2188 55.0082 49.3 55.2993 49.4152C58.888 50.7491 62.1381 50.2819 64.9616 48.0271C67.8326 45.7385 69.031 42.7321 68.5367 39.0961C68.1643 36.3606 66.7289 33.9975 64.4944 32.4537C62.2532 30.9031 59.5245 30.3817 56.8093 30.9979C54.1415 31.6005 51.9138 33.2323 50.5528 35.5954C49.1986 37.945 48.8871 40.6602 49.6929 43.2467C49.7945 43.5718 50.0314 44.3436 50.2143 44.6957C50.5257 44.4723 51.0606 43.9442 51.2841 43.7139C51.3518 43.6462 51.4127 43.5785 51.4804 43.5108C51.6497 43.3347 51.8258 43.1452 52.0425 42.9759C52.7196 42.4274 52.943 41.8587 52.855 40.8769C52.6857 38.9674 53.3154 37.2543 54.6222 36.0491C56.0983 34.6949 58.2921 34.16 60.6417 34.573L62.1787 34.8438L60.1677 36.733C59.5245 37.3356 58.9557 37.8637 58.4005 38.4054C58.3463 38.4528 58.2921 38.507 58.238 38.5611C58.1703 38.6221 58.0755 38.7101 58.0145 38.7778C58.0687 38.9809 58.1093 39.1909 58.1499 39.394C58.3192 40.2539 58.4411 40.7143 59.037 40.9784C60.337 41.5472 60.838 41.4862 61.3797 40.6873C61.6912 40.2268 62.0839 39.868 62.4699 39.5227C62.5985 39.4076 62.734 39.2856 62.8558 39.1638L62.9168 39.0961C63.0996 38.9065 63.648 38.3377 64.4267 38.6898C65.1174 39.0013 65.1377 39.6987 65.1444 39.956C65.1444 39.9966 65.1444 40.0305 65.1512 40.0711C65.3137 41.73 64.6976 43.4228 63.4585 44.6957C62.2532 45.9416 60.6282 46.5916 58.9963 46.4833C57.676 46.3953 56.8228 46.7744 55.9494 47.8375C55.7598 48.0609 55.5634 48.2505 55.3738 48.4333C55.2858 48.5146 55.1978 48.5958 55.1165 48.6839C54.9066 48.8938 54.7644 49.0427 54.6696 49.1579Z" fill="#2075BC"/>
<path d="M11.2604 51.6699C11.2536 51.6699 11.2536 51.6699 11.2604 51.6699C8.22695 51.6699 5.38311 50.4985 3.26377 48.3657C1.14443 46.2395 -0.0134247 43.4025 0.000117457 40.369C0.0272017 34.2209 5.0581 29.2103 11.2198 29.1968C11.2265 29.1968 11.2333 29.1968 11.2401 29.1968C17.4762 29.1968 22.5613 34.2209 22.5884 40.4097C22.6019 43.3618 21.4373 46.165 19.3044 48.3047C17.1377 50.4782 14.2803 51.6699 11.2604 51.6699ZM11.2198 30.7676C5.91803 30.7744 1.58455 35.0876 1.55746 40.3825C1.54392 42.9894 2.54604 45.4338 4.36746 47.2687C6.18887 49.1037 8.63321 50.1126 11.2468 50.1126C11.2468 50.1126 11.2469 50.1126 11.2536 50.1126C13.8605 50.1126 16.3251 49.0834 18.1872 47.2078C20.0221 45.3661 21.0243 42.9556 21.0175 40.4232C20.9972 35.1011 16.6095 30.7676 11.2333 30.7676C11.2333 30.7676 11.2265 30.7676 11.2198 30.7676Z" fill="#2075BC"/>
<path d="M31.5194 58.7389C31.5939 58.7931 31.6683 58.8405 31.7361 58.8946C34.3091 56.1253 36.8821 53.3627 39.6988 50.3292C38.6967 50.5662 38.0738 50.7287 37.4441 50.8506C37.092 50.9183 36.6654 51.1824 36.3878 50.8506C36.1034 50.5121 36.4623 50.1532 36.6112 49.835C37.0987 48.799 37.8435 47.8781 37.9587 46.6323C35.6971 49.0292 33.4356 51.4262 30.9371 54.0669C31.8715 53.8367 32.4877 53.6674 33.1038 53.5387C33.4898 53.4575 33.9773 53.1189 34.2617 53.5387C34.4851 53.8637 34.1059 54.2294 33.9299 54.5476C33.1377 55.9492 32.3251 57.3441 31.5194 58.7389Z" fill="#2075BC"/>
<path d="M11.2672 43.4295C11.213 43.4295 11.1656 43.4295 11.1114 43.4295C9.43897 43.3618 8.21341 42.0347 8.25403 40.3487C8.27435 39.5159 8.6129 38.7575 9.20199 38.2091C9.79784 37.6539 10.5968 37.383 11.4432 37.4168C13.0953 37.4981 14.3548 38.8591 14.3141 40.518C14.287 41.3441 13.9553 42.0956 13.373 42.6306C12.8177 43.1519 12.0729 43.4295 11.2672 43.4295ZM11.2739 38.7643C10.8338 38.7643 10.4275 38.9132 10.1229 39.1976C9.79784 39.4956 9.61502 39.9154 9.60824 40.3758C9.58793 41.3237 10.2447 42.0347 11.1724 42.0686C11.6802 42.0889 12.1339 41.9332 12.4589 41.6285C12.7703 41.3373 12.9532 40.9243 12.9667 40.4706C12.987 39.5565 12.2896 38.8049 11.3823 38.7575C11.3416 38.7643 11.3078 38.7643 11.2739 38.7643Z" fill="#2075BC"/>
</g>
</svg>
