<svg width="86" height="65" viewBox="0 0 86 65" fill="none" xmlns="http://www.w3.org/2000/svg">
<g id="icon-about-Pre-Engineered Buildings Manufacturer">
<g id="Vector">
<path d="M17.551 11.9288C17.2312 12.0254 15.4687 12.2411 15.3051 12.5311L7.91283 22.0131L5.8082 24.7202L0.171048 31.9191C0.0594946 32.0604 0 32.2314 0 32.4099L0.156174 63.7861V64.3141H86V21.9834C86 21.5744 85.063 21.1951 84.7432 20.9422L58.0969 0M84.1259 61.793H57.606V33.0718C57.6878 32.6925 57.673 32.3058 57.5614 31.9339L83.5087 22.6155C83.6351 22.5709 83.7466 22.4817 83.821 22.3627L84.1259 22.5932V61.793ZM8.64165 23.7311L12.7765 22.7717L8.01695 28.4981V24.8615C8.03183 24.7648 8.03183 24.6756 8.01695 24.5789L8.64165 23.7311ZM29.16 10.843L21.7975 18.8451L17.7667 19.7747V18.6963L22.7048 12.7543L29.16 10.843ZM39.3782 7.86078L29.1079 17.142L23.8649 18.3468L31.4134 10.1811L39.3782 7.86078ZM54.2743 3.51021L39.2295 14.7845H39.1551L31.5323 16.5396L42.0481 7.04272L54.2743 3.51021ZM39.0808 16.7032L40.9549 18.5401L26.386 27.7767C26.3265 27.8139 26.2745 27.866 26.2299 27.918L25.1069 26.9364L38.5676 16.8222L39.0808 16.7032ZM66.5749 9.20685L45.6327 20.5481L43.4388 18.4063L62.678 6.21724L66.5749 9.20685ZM71.7807 13.1856L49.0313 23.8947L46.5251 21.4777L67.6235 10.0547L71.7807 13.1856ZM76.1313 16.5173L52.2812 27.0553L49.9907 24.802L72.9037 14.0334L76.1313 16.5173ZM82.5716 21.4628L56.2153 30.9374L53.2108 27.9701L77.2319 17.3577L82.5716 21.4628ZM37.4223 37.6975L35.3251 35.868L51.4334 28.7584L54.3561 31.629L37.4223 37.6975ZM29.4128 30.6994L44.8443 22.3478L47.2613 24.7127L31.1977 32.2686L29.4128 30.6994ZM48.1984 25.62L50.4889 27.8511L34.3212 34.9979L32.1942 33.1387L48.1984 25.62ZM43.9445 21.4628L28.4535 29.8591L27.1595 28.7212L41.8473 19.3879L43.9445 21.4628ZM21.6785 20.7191L26.3414 19.6482L17.7593 27.4346V25.0177L21.6785 20.7191ZM17.7667 23.2105V21.5967L19.611 21.1728L17.7667 23.2105ZM15.1489 28.3494L14.5242 28.5055L15.1489 27.8213V28.3494ZM28.7956 19.083L35.697 17.4692L23.9988 26.2596H23.9244L19.7375 27.2413L28.7956 19.083ZM15.1489 22.2363V26.0365L12.5088 28.8997C12.4865 28.9294 12.4642 28.9592 12.4493 28.9889L8.41854 29.9334L14.7324 22.3404L15.1489 22.2363ZM5.82307 30.5358L2.8037 31.2498L5.82307 27.3677V30.5358ZM1.66586 32.9528L5.82307 31.9711V61.7781H1.65842L1.66586 32.9528ZM8.03182 31.4505L15.1415 29.7847V61.7781H8.03182V31.4505ZM17.7667 29.1749L23.9021 27.7321L36.5894 38.8279V61.793H17.7667V29.1749ZM38.0024 39.0064L55.5014 32.7148L55.8212 33.0346V61.793H37.9801L38.0024 39.0064ZM61.6591 5.4438L42.5538 17.5287L40.4194 15.439L57.5837 2.55086L57.7994 2.48394L61.6591 5.4438ZM20.6224 13.3492L17.7593 16.7999V14.1896L20.6224 13.3492ZM15.1489 15.4166V19.9457L14.7027 20.4737L10.4339 21.4554L15.1489 15.4166Z" fill="#2E4456"/>
<path d="M66.5973 9.22181L28.394 29.7848L29.5914 30.8334L67.8987 10.2183L66.5973 9.22181ZM61.4138 5.25794L26.0366 27.7173L27.2041 28.7362L62.6706 6.21731L61.4138 5.25794ZM20.7936 13.3046L6.00905 30.4987L8.47066 29.9186L23.4113 12.5386L20.7936 13.3046ZM71.6618 13.1039L31.287 32.3282L32.5066 33.3991L72.9855 14.1301L71.6618 13.1039ZM57.7994 2.49143L54.0364 3.59209L23.7981 26.0514L23.9542 26.2597L24.2814 26.1853L25.1218 26.9216L57.9036 2.57324L57.7994 2.49143ZM76.176 16.562L34.2469 34.9236L35.4814 36.0094L77.522 17.6032L76.176 16.562ZM38.7908 8.04677L17.7667 27.1595V27.7396L19.9011 27.2339L42.0556 7.1023L38.7908 8.04677ZM28.8328 10.9546L11.7131 29.0782L11.7726 29.1303L14.264 28.5428L31.6588 10.1291L28.8328 10.9546Z" fill="#2075BC"/>
</g>
</g>
</svg>
