<svg width="51" height="57" viewBox="0 0 51 57" fill="none" xmlns="http://www.w3.org/2000/svg">
<g id="Vector">
<path d="M43.1794 34.6672C44.0648 32.7488 44.4815 30.6362 44.4815 28.1175C44.4815 27.629 44.0879 27.2289 43.6076 27.2289H38.9954C38.5093 27.2289 38.1215 27.629 38.1215 28.1175C38.1215 29.3768 37.1146 30.4008 35.8761 30.4008C34.6377 30.4008 33.6308 29.3768 33.6308 28.1175C33.6308 27.629 33.2373 27.2289 32.7569 27.2289H29.0243V24.2218C30.8067 23.8157 32.1435 22.1915 32.1435 20.2554C32.1435 18.3193 30.8067 16.701 29.0243 16.295V12.3992C29.0243 11.9049 28.6308 11.5106 28.1505 11.5106C19.1401 11.5106 11.8136 18.9608 11.8136 28.1234C11.8136 34.1788 14.2674 36.9741 16.8715 39.9282C17.2709 40.3873 17.6875 40.8581 18.0984 41.3465C19.5394 43.059 20.2396 44.9892 20.2396 47.243V50.0442C20.2396 50.3267 20.2569 50.6033 20.2916 50.874C20.2916 50.8857 20.2974 50.9034 20.2974 50.9152C20.7199 54.3401 23.6018 57 27.0856 57H29.2211C32.5312 57 35.3032 54.5931 35.934 51.4095C37.1146 51.9921 38.4398 52.3216 39.8403 52.3216C44.8055 52.3216 48.8391 48.214 48.8391 43.1649C48.8333 39.3162 46.4896 36.0207 43.1794 34.6672ZM18.1736 38.7336C15.5984 35.8089 13.5613 33.4962 13.5613 28.1175C13.5613 20.2378 19.6377 13.7763 27.2708 13.3114V17.0835C27.2708 17.5778 27.6644 17.9721 28.1447 17.9721C29.3831 17.9721 30.3901 18.9961 30.3901 20.2554C30.3901 21.5148 29.3831 22.5387 28.1447 22.5387C27.6586 22.5387 27.2708 22.9389 27.2708 23.4273V28.1116C27.2708 28.6059 27.6644 29.0002 28.1447 29.0002H31.9757C32.375 30.8127 33.9722 32.1721 35.8761 32.1721C37.7801 32.1721 39.3715 30.8127 39.7708 29.0002H42.7106C42.618 30.9657 42.2187 32.637 41.4722 34.1612C40.9398 34.0611 40.39 34.0081 39.8287 34.0081C34.8634 34.0081 30.8299 38.1157 30.8299 43.159C30.8299 43.6415 30.8646 44.1123 30.9398 44.5772H21.6805C21.2986 42.9766 20.552 41.523 19.4236 40.1754C19.0011 39.6752 18.5787 39.1985 18.1736 38.7336ZM21.9525 46.3603H31.4028C31.9005 47.7197 32.7106 48.932 33.7465 49.8971H21.9873V47.2313C21.9815 46.937 21.9699 46.6487 21.9525 46.3603ZM29.2153 55.2169H27.0798C24.8344 55.2169 22.9247 53.734 22.2477 51.6743H34.0474C33.3703 53.7281 31.4606 55.2169 29.2153 55.2169ZM39.8345 50.5385C35.8356 50.5385 32.5833 47.2313 32.5833 43.1649C32.5833 39.0985 35.8356 35.7913 39.8345 35.7913C43.8333 35.7913 47.0856 39.0985 47.0856 43.1649C47.0856 47.2254 43.8275 50.5385 39.8345 50.5385Z" fill="#303B4D"/>
<path d="M43.0926 40.3343C42.8669 40.3343 42.647 40.4226 42.4734 40.5932L39.2673 43.8475L37.184 41.729C37.0104 41.5524 36.7905 41.4701 36.5648 41.4701C36.3391 41.4701 36.1192 41.5583 35.9456 41.729C35.6042 42.0762 35.6042 42.6411 35.9456 42.9883L38.6424 45.7365C38.816 45.9131 39.0359 45.9954 39.2615 45.9954C39.4872 45.9954 39.7071 45.9072 39.8807 45.7365L43.706 41.8526C44.0475 41.5054 44.0475 40.9404 43.706 40.5932C43.544 40.4167 43.3183 40.3343 43.0926 40.3343Z" fill="#2075BC"/>
<path d="M34.846 5.86126C38.5324 6.03192 41.9815 7.57371 44.6146 10.2513C47.2477 12.9289 48.7696 16.4362 48.9317 20.1848H44.5509L44.2789 21.4147C44.0301 22.5387 43.0289 23.3567 41.8947 23.3567C40.7604 23.3567 39.7593 22.5387 39.5104 21.4206L39.2384 20.1848H34.8402V16.8128C36.6111 16.4892 37.9595 14.9061 37.9595 13.0112C37.9595 11.1163 36.6111 9.53922 34.8402 9.21556V5.86126M34.1689 4.26647C33.6828 4.26647 33.2952 4.66664 33.2952 5.15508V9.84523C33.2952 10.3396 33.6886 10.7338 34.1689 10.7338C35.4074 10.7338 36.4143 11.7578 36.4143 13.0171C36.4143 14.2765 35.4074 15.3004 34.1689 15.3004C33.6828 15.3004 33.2952 15.7006 33.2952 16.189V20.8733C33.2952 21.3676 33.6886 21.7619 34.1689 21.7619H37.9999C38.3993 23.5744 39.9965 24.9338 41.8947 24.9338C43.7986 24.9338 45.3958 23.5744 45.7951 21.7619H49.6262C50.1065 21.7619 50.5 21.3617 50.5 20.8733C50.5 11.7225 43.1736 4.26647 34.1689 4.26647Z" fill="#2075BC"/>
<path d="M28.1447 0C27.6644 0 27.2708 0.400171 27.2708 0.888608V7.17355C27.2708 7.66787 27.6644 8.06216 28.1447 8.06216C28.625 8.06216 29.0185 7.66199 29.0185 7.17355V0.888608C29.0243 0.400171 28.6308 0 28.1447 0Z" fill="#2075BC"/>
<path d="M9.21524 7.97387C8.98954 7.97387 8.76966 8.06215 8.59605 8.23281C8.25462 8.58001 8.25462 9.14496 8.59605 9.49216L12.971 13.9411C13.1446 14.1176 13.3646 14.2 13.5903 14.2C13.816 14.2 14.0358 14.1117 14.2095 13.9411C14.5509 13.5939 14.5509 13.0289 14.2095 12.6817L9.83449 8.23281C9.66088 8.06215 9.43514 7.97387 9.21524 7.97387Z" fill="#2075BC"/>
<path d="M7.55436 27.2289H1.37385C0.893524 27.2289 0.5 27.629 0.5 28.1175C0.5 28.6059 0.893524 29.0061 1.37385 29.0061H7.55436C8.03469 29.0061 8.42821 28.6059 8.42821 28.1175C8.42821 27.6232 8.03469 27.2289 7.55436 27.2289Z" fill="#2075BC"/>
<path d="M13.5845 42.035C13.3588 42.035 13.1389 42.1233 12.9653 42.2939L8.59026 46.7428C8.24883 47.09 8.24883 47.655 8.59026 48.0022C8.76387 48.1787 8.98375 48.2611 9.20944 48.2611C9.43514 48.2611 9.65508 48.1728 9.82869 48.0022L14.2037 43.5533C14.5451 43.2061 14.5451 42.6411 14.2037 42.2939C14.0358 42.1174 13.8102 42.035 13.5845 42.035Z" fill="#2075BC"/>
</g>
</svg>
