<svg width="66" height="66" viewBox="0 0 66 66" fill="none" xmlns="http://www.w3.org/2000/svg">
<g id="Vector">
<path d="M57.2919 64.8534V53.8599H62.7926C63.9314 53.8599 64.8534 54.7818 64.8534 55.9207V62.7926C64.8534 63.9315 63.9314 64.8534 62.7926 64.8534H57.2919Z" fill="#EDF3FB"/>
<path d="M11.2337 66C11.0865 66 10.9161 65.9535 10.7921 65.8838L0.480334 60.1507C0.201428 59.9958 0.0310198 59.6937 0.0310198 59.3528C0.0310198 59.0119 0.201428 58.7097 0.480334 58.5548C0.550061 58.516 10.7921 52.8217 10.7921 52.8217C10.9161 52.752 11.0943 52.7055 11.2337 52.7055H62.7926C64.559 52.7055 66 54.1465 66 55.9129V62.7849C66 64.5513 64.559 65.9923 62.7926 65.9923H11.2337V66ZM57.9737 64.1716H62.7926C63.5518 64.1716 64.1716 63.5519 64.1716 62.7926V55.9207C64.1716 55.1614 63.5518 54.5416 62.7926 54.5416H57.9737V64.1716ZM52.2484 64.1716H56.1531V54.5416H52.2484V64.1716ZM12.1402 64.1716H50.42V60.267H20.3989C20.1277 60.267 19.8953 60.174 19.7404 59.9881C19.6009 59.8254 19.5234 59.5929 19.5234 59.3528C19.5234 58.8957 19.7946 58.4386 20.3989 58.4386H50.42V54.5339H12.1402V58.4386H15.8124C16.4012 58.4386 16.6646 58.8957 16.6646 59.345C16.6646 59.8021 16.4012 60.2592 15.8124 60.2592H12.1402V64.1716ZM2.7968 59.3528L10.3118 63.5286V55.1769L2.7968 59.3528Z" fill="#2075BC"/>
<path d="M58.2061 49.9552C57.6018 49.9552 57.3307 49.4981 57.3307 49.0488C57.3307 48.5917 57.6018 48.1345 58.2061 48.1345H64.1639V43.0833H61.6382C61.3671 43.0833 61.1347 42.9903 60.9797 42.8043C60.8403 42.6416 60.7551 42.4092 60.7551 42.1691C60.7551 41.712 61.0262 41.2548 61.6305 41.2548H64.1561V37.3502H62.7771C62.1651 37.3502 61.8939 36.8931 61.8939 36.436C61.8939 35.9866 62.1651 35.5296 62.7771 35.5296H64.1561V31.6248H61.6305C61.0262 31.6248 60.7551 31.1678 60.7551 30.7107C60.7551 30.2536 61.0262 29.7965 61.6305 29.7965H64.1561V25.8918H62.7771C62.1728 25.8918 61.9016 25.4347 61.9016 24.9853C61.9016 24.5437 62.1728 24.0634 62.7771 24.0634H64.1561V20.1665H61.6305C61.0184 20.1665 60.7473 19.7094 60.7473 19.2523C60.7473 18.8029 61.0184 18.3459 61.6305 18.3459H64.1561V14.4411H62.7771C62.1728 14.4411 61.9016 13.9841 61.9016 13.5347C61.9016 13.0931 62.1728 12.6128 62.7771 12.6128H64.1561V2.75036L3.64128 48.1345H53.6119C53.8831 48.1345 54.1155 48.2275 54.2704 48.4135C54.4099 48.5762 54.4951 48.8086 54.4951 49.0488C54.4951 49.5059 54.224 49.9629 53.6197 49.9629H0.921941C0.44935 49.9629 0.170463 49.6376 0.0697473 49.3354C-0.0309687 49.0333 -0.00771524 48.6072 0.371907 48.3205C0.433886 48.274 13.2016 38.6982 13.2016 38.6982L13.1241 38.5278C12.0239 36.0564 11.4584 33.43 11.4584 30.7184C11.4584 20.1045 20.089 11.4739 30.7029 11.4739C35.2351 11.4739 39.6356 13.0931 43.1065 16.0371L43.2459 16.1611L51.094 10.273L48.6613 7.8404C48.3979 7.57699 48.057 7.42977 47.6852 7.42977C47.3598 7.42977 47.0422 7.54597 46.7865 7.7629L44.7024 9.52932C44.1136 10.0252 43.3699 10.2963 42.6184 10.2963C42.1381 10.2963 41.6577 10.1801 41.2316 9.97093C40.2012 9.44411 39.0856 8.987 37.9235 8.59963C36.7149 8.21226 35.8781 7.12762 35.7774 5.83381C35.7464 5.36896 35.7 4.90413 35.6612 4.43929C35.6225 3.98994 35.5838 3.5406 35.545 3.09125C35.483 2.38624 34.8788 1.83617 34.166 1.83617H27.2243C26.5116 1.83617 25.9073 2.39394 25.8453 3.09896L25.6129 5.83381C25.5199 7.12762 24.6677 8.21226 23.4591 8.59963C22.3048 8.97925 21.1969 9.43635 20.1665 9.96318C19.7326 10.1801 19.26 10.2963 18.772 10.2963C18.0205 10.2963 17.2844 10.0252 16.7034 9.52932C16.0758 9.0025 15.2856 8.3362 14.6039 7.7629C14.3559 7.54597 14.0383 7.42977 13.7129 7.42977C13.3488 7.42977 13.0001 7.57699 12.7367 7.8404L7.82489 12.7522C7.31356 13.2635 7.28254 14.0693 7.74739 14.6194L9.51381 16.7034C10.3428 17.6951 10.5132 19.0586 9.95542 20.1742C9.4286 21.2046 8.97149 22.3203 8.58412 23.4746C8.19675 24.6832 7.11211 25.5276 5.8183 25.6206C5.34571 25.6594 4.8731 25.6981 4.40051 25.7368C3.95891 25.7756 3.52509 25.8143 3.08349 25.8453C2.37848 25.9073 1.82837 26.5116 1.82837 27.2243V34.166C1.82837 34.8788 2.38619 35.483 3.0912 35.545L5.82605 35.7775C7.09662 35.8704 8.18125 36.7072 8.58412 37.908C8.67709 38.1947 8.6461 38.4581 8.49115 38.675C8.31296 38.9229 7.98757 39.0856 7.66218 39.0856C7.47624 39.0856 7.03466 39.0313 6.85647 38.4968C6.68602 37.9932 6.22891 37.6446 5.67885 37.6059L2.93629 37.3734C1.29384 37.234 0 35.824 0 34.1738V27.2321C0 25.5819 1.28609 24.1719 2.92854 24.0324C3.61031 23.9782 4.29979 23.924 4.98156 23.862L5.66334 23.8C6.20566 23.7613 6.68601 23.4049 6.84096 22.909C7.25157 21.654 7.74738 20.4531 8.32069 19.3453C8.55311 18.8804 8.47567 18.2993 8.11154 17.8732L6.35287 15.7892C5.26049 14.5031 5.33794 12.6438 6.53104 11.4507L11.4507 6.5388C12.0627 5.92675 12.8684 5.59364 13.7129 5.59364C14.4644 5.59364 15.2004 5.86479 15.7892 6.36062C16.4632 6.93393 17.2534 7.59247 17.881 8.1193C18.1366 8.33622 18.4543 8.45243 18.7874 8.45243C18.9888 8.45243 19.1826 8.40596 19.353 8.32073C20.4609 7.75518 21.6462 7.25932 22.9013 6.84871C23.3971 6.68602 23.7613 6.22117 23.8 5.67885L24.0324 2.93629C24.1719 1.29384 25.5819 0 27.2321 0H34.1737C35.8239 0 37.2339 1.28609 37.3734 2.92854C37.4431 3.84273 37.5129 4.7569 37.6059 5.67109C37.6446 6.21341 38.0087 6.68602 38.4968 6.84871C39.7519 7.26707 40.9527 7.76288 42.0606 8.32844C42.231 8.41366 42.4247 8.46018 42.6184 8.46018C42.9438 8.46018 43.2692 8.33622 43.5326 8.1193L45.6166 6.36062C46.1977 5.86479 46.9337 5.58588 47.6929 5.58588C48.5451 5.58588 49.3509 5.92679 49.9629 6.53109L52.5815 9.14971L64.5357 0.178222C64.6907 0.0620113 64.8766 0 65.0703 0C65.2098 0 65.357 0.0309933 65.4887 0.10072C65.8063 0.263415 66 0.565593 66 0.906478V49.0332C66 49.5368 65.5894 49.9474 65.0858 49.9474H58.2061V49.9552ZM13.2868 30.7107C13.2868 32.9497 13.7284 35.1577 14.5961 37.2727L14.7123 37.5516L16.99 35.8394L16.9281 35.6768C16.3393 34.0653 16.0371 32.3918 16.0371 30.7029C16.0371 22.6146 22.6146 16.0371 30.7029 16.0371C32.3066 16.0371 33.8794 16.2928 35.3746 16.8118C36.0254 17.0365 35.9866 17.6098 35.9557 17.7803C35.8859 18.1831 35.5682 18.5937 35.0957 18.5937C34.9949 18.5937 34.8865 18.5783 34.778 18.5395C33.4687 18.0902 32.0974 17.8655 30.6951 17.8655C23.614 17.8655 17.8577 23.6218 17.8577 30.7029C17.8577 31.9502 18.0437 33.1898 18.4 34.3829L18.493 34.7006L41.7507 17.2612L41.5183 17.0753C38.4581 14.6348 34.6076 13.2868 30.6951 13.2868C21.1039 13.2868 13.2868 21.1039 13.2868 30.7107Z" fill="#2E4456"/>
<path d="M21.5455 43.0833C21.0729 43.0833 20.794 42.7579 20.6933 42.4557C20.5926 42.1536 20.6158 41.7275 20.9954 41.4408L57.6638 13.9376C57.8187 13.8214 58.0047 13.7594 58.1906 13.7594C58.64 13.7594 59.1203 14.108 59.1203 14.6658V42.1691C59.1203 42.6727 58.7097 43.0833 58.2061 43.0833H21.5455ZM24.2803 41.2548H57.2919V16.4942L24.2803 41.2548Z" fill="#2075BC"/>
</g>
</svg>
