<svg width="64" height="66" viewBox="0 0 64 66" fill="none" xmlns="http://www.w3.org/2000/svg">
<g id="Vector">
<path d="M20.9582 40.8559C20.3228 40.8559 19.6874 40.8428 19.0586 40.8233C17.8664 40.7776 17.1196 39.9877 17.1065 38.754V38.6169C17.1 38.1013 17.0934 37.5856 17.1065 37.0765C17.1196 36.5542 16.8641 36.2083 16.3598 36.0712C15.2724 35.771 14.185 35.3205 13.1304 34.733C12.947 34.6351 12.7832 34.5829 12.6194 34.5829C12.2854 34.5829 12.0561 34.7853 11.912 34.9354C11.4665 35.4054 11.067 35.8036 10.6805 36.1561C10.222 36.5738 9.74375 36.7892 9.25246 36.7892C8.74807 36.7892 8.25024 36.5608 7.78516 36.1039C6.86809 35.2096 5.99031 34.3349 5.1584 33.4863C4.31339 32.6247 4.31339 31.5411 5.14531 30.6533C5.51214 30.2617 5.91827 29.857 6.3768 29.4262C6.76983 29.0541 6.83534 28.6429 6.57987 28.199C6.03618 27.2656 5.59074 26.2016 5.25012 25.0462C5.0536 24.3804 4.56232 24.2955 4.20859 24.289C4.20859 24.289 3.27842 24.302 3.12776 24.302C2.81334 24.302 2.43994 24.289 2.06657 24.2106C1.11674 24.0148 0.520665 23.2968 0.507564 22.3438C0.501013 21.0252 0.494463 19.7001 0.507564 18.3815C0.520665 17.298 1.29361 16.5147 2.39409 16.4886C2.70196 16.4821 3.00985 16.4755 3.31118 16.4755C3.5863 16.4755 3.8614 16.4821 4.13653 16.4886H4.20859C4.75883 16.4886 5.09945 16.234 5.24356 15.7053C5.55798 14.5891 6.00342 13.5251 6.56022 12.5459C6.82879 12.0694 6.76328 11.6386 6.3506 11.26C5.93136 10.8749 5.52524 10.4506 5.16496 10.0785C4.31339 9.19731 4.30029 8.11372 5.12566 7.24556C5.93792 6.39698 6.80914 5.52881 7.79171 4.58884C8.2306 4.17108 8.72189 3.94916 9.22627 3.94916C9.73066 3.94916 10.2351 4.17763 10.6805 4.60845C11.0866 4.99357 11.4862 5.38523 11.8661 5.79646C12.0168 5.95312 12.2526 6.162 12.5932 6.162C12.757 6.162 12.9208 6.11629 13.0911 6.01838C14.0671 5.47006 15.1414 5.01969 16.386 4.65414C16.8641 4.51054 17.0934 4.19067 17.0869 3.69457C17.0803 3.47916 17.0869 3.2703 17.0869 3.05489C17.0934 2.76767 17.0934 2.48045 17.0803 2.18671C17.0279 1.12272 17.4537 0.42429 18.4166 0H23.6177C24.5479 0.469983 24.954 1.23368 24.9344 2.46086C24.9082 4.22982 25.0064 4.37345 26.6768 5.01315C27.4039 5.28731 28.1048 5.55493 28.714 5.94005C28.9367 6.07713 29.1463 6.14894 29.3494 6.14894C29.7359 6.14894 30.0044 5.9009 30.1748 5.7116C30.5481 5.29384 30.9542 4.90869 31.308 4.58231C31.7338 4.18413 32.2382 3.97525 32.7688 3.97525C33.4304 3.97525 34.0526 4.32121 34.4719 4.91522C34.688 5.22202 34.6684 5.48965 34.3998 5.77686C34.2361 5.94658 34.0592 6.04451 33.8889 6.04451C33.771 6.04451 33.6531 5.99227 33.5483 5.89435C33.2732 5.63978 33.0111 5.51578 32.7556 5.51578C32.3757 5.51578 32.0941 5.77034 31.8713 6.02491C31.5831 6.35129 31.2359 6.69072 30.7839 7.08237C30.3582 7.45444 29.9062 7.65026 29.4477 7.65026C29.1332 7.65026 28.7992 7.5589 28.4585 7.38265C27.3056 6.77559 26.1593 6.29906 24.9737 5.93352C23.9845 5.62672 23.4932 4.95441 23.4867 3.87736V3.70111C23.4802 3.19849 23.4802 2.69587 23.4867 2.19325C23.4932 1.90603 23.4146 1.68408 23.264 1.52742C23.1068 1.37076 22.8906 1.29244 22.5958 1.29244C22.0325 1.29897 21.4757 1.29898 20.9255 1.29898C20.4342 1.29898 19.9494 1.29897 19.4581 1.29244C19.0389 1.29244 18.5542 1.45563 18.5345 2.23241C18.528 2.46087 18.5345 2.6828 18.5345 2.91126C18.5411 3.42041 18.5542 3.90348 18.4494 4.37346C18.2856 5.14371 17.8729 5.63325 17.1917 5.85519C15.8095 6.31212 14.5715 6.82128 13.412 7.41528C13.1107 7.57194 12.8094 7.65026 12.5146 7.65026C12.0299 7.65026 11.5583 7.43487 11.1128 7.01711C10.7263 6.65157 10.3333 6.27947 9.97958 5.88782C9.74376 5.62672 9.50793 5.49618 9.25246 5.49618C8.91839 5.49618 8.66292 5.72464 8.49916 5.89435C7.86376 6.56016 7.18906 7.23252 6.43576 7.95708C6.27199 8.11374 6.05584 8.36178 6.05584 8.68816C6.06239 8.92968 6.18028 9.15814 6.4292 9.38008C6.71742 9.63465 6.986 9.91533 7.25457 10.1895L7.47728 10.4179C8.3223 11.2796 8.43365 12.0303 7.86376 13.0812C7.33972 14.0473 6.90739 15.0851 6.54057 16.2601C6.18029 17.4024 5.53179 17.8854 4.3134 17.9246C4.05793 17.9311 3.7959 17.9377 3.54043 17.9377C3.30461 17.9377 3.0688 17.9377 2.83298 17.9311C2.83298 17.9311 2.83298 17.9311 2.82643 17.9311C2.46615 17.9311 2.23688 18.0095 2.07312 18.1792C1.90936 18.3424 1.83076 18.5774 1.83731 18.8907C1.85697 19.9808 1.85042 21.0448 1.83731 21.9391C1.83076 22.2459 1.90936 22.4743 2.07312 22.6375C2.23033 22.7942 2.44649 22.8725 2.74127 22.8725C3.02949 22.866 3.26531 22.866 3.50768 22.866C3.78935 22.866 4.53612 22.8725 4.53612 22.8725C5.49249 22.879 6.12133 23.3164 6.41611 24.1585C6.90084 25.5553 7.43144 26.8217 8.04064 28.0358C8.38126 28.7212 8.28955 29.387 7.75241 30.0202C7.35938 30.4836 6.9336 30.9014 6.42266 31.404C6.26545 31.5541 6.05584 31.7957 6.05584 32.109C6.05584 32.3375 6.16718 32.5594 6.3899 32.7748C7.1039 33.4602 7.84411 34.1978 8.59741 34.9746C8.80703 35.19 9.01011 35.2944 9.22627 35.2944C9.5538 35.2944 9.78307 35.0464 9.86167 34.9681C10.2285 34.5764 10.615 34.2043 11.0015 33.8323C11.4993 33.3558 11.9906 33.1208 12.5146 33.1208C12.8683 33.1208 13.2352 33.2252 13.6347 33.4341C14.6763 33.9824 15.7637 34.4328 16.8773 34.7853C18.0039 35.1378 18.4625 35.7514 18.5214 36.9655C18.5476 37.4616 18.5411 37.9511 18.528 38.506C18.5214 38.8128 18.5935 39.0412 18.7507 39.1979C18.9013 39.348 19.111 39.4263 19.3861 39.4263C19.9363 39.4198 20.4669 39.4199 20.9975 39.4199C21.5281 39.4199 22.0587 39.4198 22.5958 39.4263C22.8841 39.4263 23.1002 39.348 23.2509 39.1979C23.4081 39.0412 23.4801 38.8128 23.4801 38.5125V38.3428C23.4736 37.788 23.4605 37.207 23.4933 36.6521C23.5391 35.8166 23.9518 35.2487 24.7575 34.9224C24.9016 34.8636 25.0326 34.8375 25.1571 34.8375C25.406 34.8375 25.6025 34.955 25.7335 35.19C25.9431 35.5686 25.858 35.8623 25.4584 36.1234C24.9999 36.4237 24.9344 36.8219 24.9278 37.1678C24.9213 37.3702 24.9278 37.5791 24.9278 37.7814C24.9344 38.2514 24.9409 38.6888 24.8689 39.1261C24.6855 40.2032 23.978 40.8363 22.943 40.869C22.288 40.8494 21.6198 40.8559 20.9582 40.8559Z" fill="#2075BC"/>
<path d="M16.5759 65.9935C15.5082 65.9935 14.4732 65.5692 13.7395 64.8251C13.0059 64.0809 12.6325 63.1083 12.6522 62.0051C12.6915 59.8772 12.6784 57.71 12.6718 55.6212C12.6653 54.6682 12.6653 53.7152 12.6653 52.7622C12.6653 48.7412 14.578 45.8886 18.3445 44.2828C19.9822 43.5844 21.7508 43.2515 23.4605 42.9251C23.9387 42.8338 24.4234 42.7424 24.9016 42.6445C26.9847 42.2136 29.0481 41.8285 30.9739 41.4695C31.6355 41.3455 31.9434 40.9734 31.8779 40.3598C32.0548 39.1588 31.6813 38.2775 30.6529 37.4681C28.9563 36.1234 27.869 34.2239 27.417 31.8218C27.3122 31.2474 27.0895 30.81 26.3624 30.5685C25.3405 30.2291 24.7771 29.4523 24.6854 28.2643C24.6658 28.0162 24.6658 27.7682 24.6789 27.5397C24.7444 26.6193 24.502 26.0188 23.8273 25.4705C23.264 25.007 22.9954 24.3086 23.0871 23.5383C23.1854 22.7224 23.6701 22.0304 24.3841 21.6845C24.9736 21.3973 25.2095 21.0187 25.1898 20.379C25.0392 15.1178 28.9957 9.12551 35.8868 8.1986C36.6598 8.09415 37.4327 8.04194 38.1729 8.04194C43.1054 8.04194 46.9899 10.2613 49.407 14.4585C50.4485 16.2731 50.966 18.2575 50.9398 20.3724C50.9333 21.0187 51.1626 21.3973 51.7325 21.6845C52.4792 22.0631 52.9508 22.742 53.0229 23.5644C53.0949 24.3869 52.7347 25.1833 52.0534 25.6924C51.6211 26.0123 51.4377 26.3843 51.4442 26.8935L51.4507 27.1742C51.4638 27.6637 51.477 28.1206 51.3918 28.5776C51.1953 29.6742 50.5927 30.3531 49.5642 30.6599C49.0664 30.81 48.8175 31.0907 48.7389 31.5998C48.3196 34.1652 47.0816 36.267 45.0575 37.8336C44.3959 38.3428 44.1273 38.8976 44.1601 39.694L44.1732 40.1183C44.1994 41.1366 44.278 41.3324 45.2081 41.4825C45.3654 41.5087 45.5488 41.5347 45.778 41.587C46.9833 41.8285 48.1952 42.0635 49.4005 42.2985C51.2739 42.6575 53.2128 43.0296 55.1059 43.4408C57.7327 44.0087 59.7568 45.0661 61.2962 46.685C62.698 48.1602 63.4316 50.0141 63.4644 52.1812C63.5233 55.6147 63.4971 59.009 63.4709 62.1879C63.4513 64.4138 61.853 65.9739 59.5734 65.9739H38.0288C36.0374 65.9739 34.0461 65.9739 32.0482 65.9674C30.0568 65.9608 28.0589 65.9608 26.0676 65.9608C22.3666 65.9608 19.3599 65.9739 16.6087 66L16.5759 65.9935ZM48.7389 43.6236C48.2017 43.6236 47.92 43.9434 47.7301 44.2176C45.8108 46.9983 43.8849 49.7725 41.9525 52.5467L40.1577 55.1316C39.2341 56.4567 38.7821 57.8993 38.8017 59.4137C38.8148 60.6409 38.828 62.0835 38.7952 63.4999C38.7887 63.7806 38.8083 64.1331 39.0441 64.3746C39.28 64.6162 39.6271 64.6423 39.8695 64.6423C40.8782 64.6292 41.8412 64.6227 42.7976 64.6227L46.3741 64.6292L49.8852 64.6227C50.8481 64.6227 51.8045 64.6292 52.7674 64.6423H52.774C53.1146 64.6423 53.4683 64.6096 53.7041 64.3616C53.9465 64.107 53.9596 63.735 53.9465 63.4869C53.9007 62.6122 53.9203 61.7179 53.94 60.8498L53.9465 60.6474C53.9531 60.2362 54.1823 59.9816 54.5753 59.962H54.5819C55.0077 59.962 55.2238 60.1644 55.3024 60.5691C55.3417 60.7845 55.3614 61.026 55.368 61.3459C55.3745 62.1226 55.3876 62.8994 55.368 63.6762C55.3614 63.996 55.4335 64.231 55.5972 64.4007C55.761 64.5639 55.9903 64.6423 56.2981 64.6423C56.6388 64.6357 56.9466 64.6357 57.248 64.6357L58.5712 64.6423C58.8725 64.6423 59.1738 64.6423 59.4751 64.6357C61.1062 64.6031 62.0429 63.637 62.0429 61.9921C62.0429 60.8628 62.0429 59.7335 62.0429 58.6043C62.0429 56.5481 62.0364 54.492 62.0495 52.4292C62.0691 49.6681 60.8114 47.5532 58.3091 46.1367C58.0864 46.0061 57.9096 45.9539 57.7458 45.9539C57.2414 45.9539 57.0907 46.4761 57.0383 46.672C56.4357 48.7934 56.0427 50.5362 55.8003 52.1616C55.5514 53.8588 55.4204 55.2426 55.3942 56.5351C55.3811 57.2074 55.1059 57.3445 54.8112 57.3902C54.7391 57.4032 54.6736 57.4098 54.6081 57.4098C54.4116 57.4098 54.2609 57.351 54.1496 57.2466C54.0055 57.103 53.9399 56.8484 53.953 56.5285C54.0906 53.1081 54.6736 49.6616 55.6889 46.2672C55.8134 45.843 55.9182 45.51 55.7479 45.2228C55.5907 44.9617 55.2893 44.8834 54.8177 44.792C54.1692 44.668 53.5207 44.544 52.8722 44.4199C51.6211 44.1849 50.3699 43.9434 49.1319 43.6823C48.9812 43.6366 48.8568 43.6236 48.7389 43.6236ZM27.3384 43.6366C27.2139 43.6366 27.0764 43.6562 26.9257 43.6889C25.668 43.963 24.3841 44.2045 23.1395 44.4395C22.55 44.5505 21.9604 44.6614 21.3709 44.7724C20.9058 44.8638 20.5652 44.9487 20.4014 45.2293C20.2311 45.51 20.3163 45.8364 20.4604 46.2933C21.5936 49.9096 22.1897 53.7739 22.229 57.7753C22.2486 59.5051 22.2618 61.509 22.2224 63.4934C22.2159 63.7741 22.2421 64.1266 22.4845 64.3681C22.7203 64.6096 23.0675 64.6423 23.3491 64.6423C24.3579 64.6292 25.3143 64.6227 26.2641 64.6227L29.7948 64.6292H36.1292C37.1969 64.6292 37.3607 64.466 37.3607 63.3759V61.9986C37.3607 61.1566 37.3607 60.3145 37.3607 59.4725C37.3672 57.9907 36.9545 56.6003 36.1292 55.3536C35.9064 55.0207 35.6772 54.6878 35.4479 54.3614L33.5417 51.6198C31.8517 49.1916 30.1616 46.7633 28.4847 44.322C28.2358 43.9761 27.9214 43.6366 27.3384 43.6366ZM18.8358 64.6227C19.1503 64.6227 19.4712 64.6227 19.7857 64.6357H19.7922C20.1525 64.6357 20.3818 64.5574 20.539 64.3942C20.7551 64.1723 20.7813 63.8655 20.7748 63.624C20.7551 62.573 20.7617 61.5221 20.7682 60.4712C20.7813 58.1539 20.801 55.7583 20.4997 53.3953C20.1983 51.0193 19.7071 48.7151 19.052 46.5479C18.9996 46.3782 18.862 45.9278 18.4101 45.9278C18.2725 45.9278 18.1284 45.9735 17.9581 46.0649C15.4623 47.4291 14.1719 49.407 14.126 51.9462C14.1064 53.1016 14.1129 54.257 14.1129 55.4123C14.1129 55.8171 14.1195 56.2218 14.1195 56.633L14.1129 56.9659V58.5129C14.1129 59.6879 14.1129 60.8628 14.1129 62.0378C14.1195 63.6697 15.0169 64.5901 16.6545 64.6292C16.9362 64.6358 17.2179 64.6357 17.4995 64.6357L18.8358 64.6227ZM38.0681 48.3038C37.8257 48.3038 37.5899 48.3822 37.3214 48.5519C36.6467 48.9762 35.9196 49.42 35.1531 49.8117C34.9501 49.9161 34.7011 50.0663 34.6356 50.3404C34.5701 50.6081 34.7011 50.8431 34.8452 51.0454C35.4741 51.9332 36.0964 52.834 36.7187 53.7348L37.5179 54.8901C37.6096 55.0402 37.7471 55.2491 38.1205 55.3209L38.3891 55.3732L38.5004 55.1251C38.5266 55.0664 38.5398 55.0207 38.5529 55.0011C39.4961 53.6238 40.4459 52.253 41.3957 50.8822C41.4809 50.7582 41.5923 50.5689 41.5399 50.347C41.4875 50.125 41.3041 50.001 41.1731 49.9292C40.4197 49.5114 39.5681 49.0414 38.7624 48.5388C38.5266 48.3756 38.2974 48.3038 38.0681 48.3038ZM44.8348 42.8468C44.1208 42.8468 43.7998 43.369 43.6229 43.7607C43.2954 44.4852 42.6862 45.0531 42.1425 45.5296C41.6447 45.9604 41.0748 46.3847 40.4066 46.8221C40.2494 46.9069 40.0005 47.0375 39.9939 47.3116C39.9874 47.4357 40.0333 47.6119 40.2691 47.762C40.3739 47.8273 40.4787 47.8991 40.5769 47.9709C40.9962 48.2581 41.4285 48.5519 41.9919 48.6302L42.0377 48.6367L42.0835 48.6302C42.7124 48.5649 43.2037 48.2647 43.5901 47.7163C43.5901 47.7163 45.4178 45.0857 45.9615 44.2959C46.2497 43.8782 46.3938 43.6693 46.2955 43.4082C46.1973 43.1471 45.9549 43.0818 45.5488 42.9773L45.4047 42.9382C45.1885 42.8729 45.0051 42.8468 44.8348 42.8468ZM31.5307 42.8141C31.4652 42.8141 31.3931 42.8207 31.3211 42.8338C31.1901 42.8599 31.0525 42.8925 30.9215 42.9186C30.7446 42.9578 30.5612 43.0035 30.3778 43.0296C30.2599 43.0492 29.952 43.1014 29.8341 43.3755C29.7162 43.6497 29.9062 43.9108 29.9651 44.0022C30.273 44.446 30.5809 44.8899 30.8888 45.3338C31.4718 46.1759 32.0744 47.0505 32.6967 47.8926C33.0504 48.3691 33.4762 48.6171 33.9675 48.6171C34.3081 48.6171 34.6618 48.4997 35.0483 48.2647L36.5091 47.3573L36.0571 47.0571C34.3998 45.9474 32.9653 44.8965 32.2054 43.2385C32.0744 42.9643 31.832 42.8141 31.5307 42.8141ZM34.0199 39.6809C33.8234 39.6809 33.4828 39.7527 33.3779 40.2162C33.3255 40.4447 33.3255 40.758 33.3255 41.2345C33.0766 42.7162 34.1116 43.7868 34.9173 44.4526C35.2317 44.7137 35.5658 44.9487 35.8933 45.1706C36.1684 45.3599 36.4501 45.5557 36.7121 45.7646C37.1707 46.1302 37.6096 46.3064 38.0681 46.3064C38.5266 46.3064 38.9786 46.1171 39.4306 45.745C39.6468 45.5623 39.8957 45.4056 40.1511 45.2424C40.3149 45.1314 40.4852 45.027 40.6424 44.916C42.3325 43.7084 43.053 42.2528 42.8434 40.4577C42.7976 40.0922 42.7386 39.5961 42.2014 39.5961C42.0704 39.5961 41.9263 39.6287 41.7167 39.7071C40.5376 40.1379 39.3127 40.3598 38.0943 40.3598C37.0659 40.3598 36.0112 40.2031 34.9566 39.8964C34.5112 39.7593 34.2426 39.6809 34.0199 39.6809ZM27.0829 26.1428C26.7881 26.1428 26.5261 26.1559 26.3427 26.3452C26.1331 26.554 26.1331 26.8413 26.1396 27.37V27.7159C26.1331 29.028 26.4213 29.3217 27.738 29.3609C28.393 29.3805 28.5764 29.5567 28.6354 30.2225C28.7336 31.391 28.9695 32.4092 29.3428 33.3492C30.6398 36.5738 34.3343 38.9107 38.1336 38.9107C38.2974 38.9107 38.4611 38.9041 38.6315 38.8976C42.7845 38.6692 46.4134 35.66 47.2585 31.7435C47.3305 31.4106 47.3698 31.0776 47.4091 30.7578C47.4353 30.5228 47.4615 30.2943 47.5008 30.0593C47.5925 29.5371 47.7759 29.3805 48.3196 29.3609C49.7411 29.2956 50.0097 29.0149 50.0097 27.5854V27.4744C50.0097 27.4222 50.0031 27.3634 50.0097 27.3112C50.0621 26.9261 50.0031 26.6454 49.8262 26.4431C49.5839 26.1689 49.1974 26.1363 48.9223 26.1363C47.1143 26.1493 45.3326 26.1559 43.5508 26.1559L32.1464 26.1493C30.666 26.1493 29.1856 26.1493 27.6987 26.1493L27.0829 26.1428ZM26.0152 22.8399C25.8318 22.8399 25.6418 22.8464 25.4584 22.866C24.9082 22.9182 24.5741 23.2642 24.5741 23.7929C24.5741 24.3412 24.9081 24.6872 25.4715 24.7198C25.7139 24.7329 25.9628 24.7394 26.2117 24.7394H49.9638C50.252 24.7394 50.5206 24.7394 50.7892 24.7002C51.2543 24.6349 51.5556 24.3086 51.5687 23.8451C51.5883 23.336 51.2935 22.977 50.7957 22.8921C50.5533 22.8529 50.311 22.8464 50.0883 22.8464L26.0152 22.8399ZM43.2103 21.4169C44.9527 21.4169 46.6885 21.4169 48.431 21.4299C48.7257 21.4299 49.0664 21.3973 49.3022 21.1492C49.538 20.9012 49.538 20.5552 49.5249 20.3137C49.5118 20.144 49.5053 19.9743 49.4987 19.8046C49.4791 19.3215 49.4529 18.8255 49.3481 18.3294C48.7127 15.3267 47.0882 12.9506 44.5269 11.2535C44.3238 11.1164 44.1666 11.0577 44.0159 11.0577C43.8784 11.0577 43.7539 11.1099 43.6688 11.2078C43.505 11.3775 43.4985 11.6255 43.505 11.8214C43.5116 11.9846 43.5181 12.2 43.4854 12.3958C43.4199 12.7809 43.1644 13.0159 42.7976 13.0159C42.7386 13.0159 42.6731 13.0094 42.6141 12.9963C42.4242 12.9572 42.0639 12.8854 42.0574 11.9062C42.0377 9.96103 41.9001 9.81087 39.9874 9.60199L39.8891 9.58897C39.7974 9.57591 39.7188 9.5759 39.6468 9.5759C39.3651 9.5759 39.162 9.64772 39.0114 9.79785C38.7952 10.0198 38.7821 10.3461 38.7887 10.6334C38.8149 11.8148 38.8149 13.0616 38.7887 14.452C38.7756 14.9873 38.5135 15.3071 38.0812 15.3071C37.4785 15.2875 37.3541 14.811 37.3541 14.4063C37.3476 13.5642 37.3475 12.7287 37.3475 11.8932V10.8357C37.3475 10.1373 37.3475 9.58243 36.5746 9.58243C36.437 9.58243 36.2602 9.59549 36.0309 9.6216L35.9588 9.62813C34.2295 9.8109 34.0854 9.96754 34.0789 11.6908V11.8018C34.0789 11.9063 34.0788 12.0172 34.0723 12.1217C34.0133 12.905 33.6727 13.0094 33.3386 13.0094C32.9718 12.9963 32.6574 12.918 32.6312 12.089C32.6312 12.0433 32.6377 11.9911 32.6443 11.9389C32.6705 11.7365 32.7229 11.3188 32.343 11.1295C32.2512 11.0838 32.1595 11.0642 32.0613 11.0642C31.7862 11.0642 31.5831 11.2404 31.439 11.371C31.3997 11.4036 31.3604 11.4428 31.3211 11.4689C28.3341 13.5708 26.7292 16.5799 26.5392 20.4116C26.5261 20.6597 26.5392 20.9665 26.7554 21.1949C26.9715 21.4234 27.286 21.4495 27.5349 21.4495C29.3494 21.4364 31.1508 21.4364 32.9456 21.4364L43.2103 21.4169Z" fill="#2E4456"/>
<path d="M20.7355 29.263C16.4842 29.2499 12.698 25.8686 12.115 21.567C11.4862 16.939 14.6304 12.559 19.2813 11.5994C19.8512 11.4819 20.4276 11.4232 20.9975 11.4232C21.9408 11.4232 22.8972 11.5864 23.8535 11.9062C24.6789 12.1804 24.692 12.5459 24.5872 12.8984C24.4889 13.2118 24.3121 13.3488 23.978 13.3488C23.8208 13.3488 23.6308 13.3162 23.4212 13.2509C22.6155 13.0029 21.7967 12.8788 20.9844 12.8788C17.5847 12.8788 14.6697 15.0917 13.7396 18.3881C13.1238 20.5683 13.5496 22.8921 14.9121 24.7655C16.2746 26.6324 18.3642 27.7551 20.6438 27.84C20.742 27.8465 20.8338 27.8465 20.932 27.8465C21.1613 27.8465 21.3709 27.853 21.5739 27.8857C21.9604 27.9509 22.2159 28.2512 22.2028 28.6167C22.1832 28.9823 21.9146 29.2369 21.5019 29.2695C21.4102 29.276 21.325 29.276 21.2333 29.276L20.7355 29.263Z" fill="#2075BC"/>
</g>
</svg>
