<svg width="64" height="57" viewBox="0 0 64 57" fill="none" xmlns="http://www.w3.org/2000/svg">
<g id="Vector">
<path d="M55.0841 51.5538C50.8848 51.5538 47.3527 48.2726 47.0527 44.0855L47.0221 43.6632H38.9417C37.2338 43.6632 35.8443 42.2736 35.8443 40.5657V33.979C35.8443 33.5443 36.1993 33.1893 36.634 33.1893C37.0686 33.1893 37.4236 33.5443 37.4236 33.979V40.5657C37.4236 41.4043 38.1031 42.0838 38.9417 42.0838H47.1445L47.2241 41.7288C47.9954 38.264 51.1358 35.6195 54.6801 35.4481C54.8148 35.442 54.9494 35.4359 55.0841 35.4359C55.8677 35.4359 56.639 35.5461 57.3797 35.7664L57.9612 35.9378V16.294C57.9612 15.4553 57.2817 14.7758 56.4431 14.7758H38.9356C38.097 14.7758 37.4175 15.4553 37.4175 16.294V23.046C37.4175 23.4806 37.0625 23.8357 36.6278 23.8357C36.1932 23.8357 35.8381 23.4806 35.8381 23.046V16.294C35.8381 14.5861 37.2277 13.1965 38.9356 13.1965H56.4431C58.151 13.1965 59.5406 14.5861 59.5406 16.294V36.7765L59.7303 36.9112C61.8667 38.4232 63.14 40.884 63.14 43.4856C63.14 47.9421 59.5283 51.5538 55.0841 51.5538ZM55.0902 37.0213C51.5765 37.0213 48.6076 39.9903 48.6076 43.4979C48.6076 47.0728 51.5153 49.9744 55.0841 49.9744C58.6529 49.9744 61.5606 47.0667 61.5606 43.4979C61.5606 40.0209 58.6223 37.0581 55.1515 37.0213H55.0902Z" fill="#303B4D"/>
<path d="M42.8534 22.2869C42.4188 22.2869 42.0637 21.9319 42.0637 21.4972C42.0637 21.0626 42.4188 20.7076 42.8534 20.7076H52.6661C53.1007 20.7076 53.4558 21.0626 53.4558 21.4972C53.4558 21.9319 53.1007 22.2869 52.6661 22.2869H42.8534Z" fill="#303B4D"/>
<path d="M42.8534 29.2164C42.4188 29.2164 42.0637 28.8614 42.0637 28.4268C42.0637 27.9922 42.4188 27.6371 42.8534 27.6371H52.6661C53.1007 27.6371 53.4558 27.9922 53.4558 28.4268C53.4558 28.8614 53.1007 29.2164 52.6661 29.2164H42.8534Z" fill="#303B4D"/>
<path d="M42.8534 36.3969C42.4188 36.3969 42.0637 36.0419 42.0637 35.6073C42.0637 35.1726 42.4188 34.8176 42.8534 34.8176H46.1284C46.563 34.8176 46.9181 35.1726 46.9181 35.6073C46.9181 36.0419 46.563 36.3969 46.1284 36.3969H42.8534Z" fill="#303B4D"/>
<path d="M54.0985 46.4362C53.8904 46.4362 53.6884 46.3566 53.5415 46.2036L51.8826 44.5447C51.7357 44.3977 51.65 44.1957 51.65 43.9876C51.65 43.7795 51.7295 43.5774 51.8826 43.4305C52.0356 43.2836 52.2315 43.1979 52.4396 43.1979C52.6477 43.1979 52.8498 43.2775 52.9967 43.4305L54.0985 44.5263L56.9267 41.6982C57.0736 41.5512 57.2756 41.4655 57.4838 41.4655C57.6919 41.4655 57.8939 41.5451 58.0408 41.6982C58.3469 42.0042 58.3469 42.5062 58.0408 42.8123L54.6556 46.1975C54.5087 46.3566 54.3128 46.4362 54.0985 46.4362Z" fill="#303B4D"/>
<path d="M30.035 56.102C24.9235 56.102 19.9529 54.7063 15.6495 52.0618L14.7557 51.5109L15.3189 54.1982C15.3618 54.4064 15.3251 54.6145 15.2087 54.792C15.0924 54.9695 14.9149 55.092 14.7129 55.1348C14.6639 55.1471 14.6088 55.1532 14.5598 55.1532C14.1925 55.1532 13.8559 54.8838 13.7824 54.5288L12.8091 49.8826C12.7479 49.6439 12.7846 49.4051 12.9132 49.2153C13.0356 49.0256 13.2254 48.9031 13.4396 48.8664L18.3123 48.089C18.3552 48.0829 18.3919 48.0767 18.4347 48.0767C18.8265 48.0767 19.151 48.3583 19.2122 48.744C19.2428 48.9521 19.1938 49.1603 19.0714 49.3317C18.949 49.5031 18.7653 49.6132 18.5572 49.65L15.5087 50.1336L16.5616 50.7763C20.6018 53.2372 25.2602 54.5349 30.0472 54.5349C35.3178 54.5349 40.3925 52.9678 44.7204 50.005C44.8551 49.9132 45.0081 49.8642 45.1673 49.8642C45.4305 49.8642 45.6693 49.9928 45.8162 50.207C45.9325 50.3784 45.9814 50.5927 45.9386 50.7947C45.9019 51.0028 45.7856 51.1803 45.608 51.3028C41.0047 54.437 35.6239 56.102 30.035 56.102Z" fill="#303B4D"/>
<path d="M42.1984 9.35221C41.8188 9.35221 41.4699 9.05837 41.4148 8.69108C41.3475 8.26258 41.6413 7.85857 42.0698 7.78511L45.1612 7.29538L44.1695 6.65263C39.9457 3.92245 35.0607 2.47777 30.035 2.47777C24.0176 2.47777 18.147 4.58357 13.507 8.39726C13.3662 8.51357 13.1886 8.57477 13.005 8.57477C12.7663 8.57477 12.5459 8.47071 12.3928 8.28706C12.1174 7.95038 12.1663 7.45454 12.503 7.17907C17.4247 3.12665 23.6503 0.898438 30.0289 0.898438C35.3178 0.898438 40.4721 2.41044 44.9347 5.2753L45.8468 5.85683L45.2958 3.2246C45.204 2.79609 45.4795 2.37984 45.908 2.29414C45.9631 2.28189 46.0182 2.27577 46.0733 2.27577C46.4467 2.27577 46.765 2.53899 46.8446 2.90016L47.8302 7.62595C47.873 7.83408 47.8301 8.04833 47.7016 8.23197C47.5792 8.40949 47.3894 8.53806 47.1813 8.56866L42.3147 9.34609C42.278 9.35221 42.2412 9.35221 42.1984 9.35221Z" fill="#303B4D"/>
<path d="M36.6095 29.3695C36.4625 29.3695 36.3279 29.3266 36.1993 29.2409C35.881 29.0328 35.7647 28.6043 35.9116 28.2615C36.034 27.9799 36.3034 27.8085 36.6217 27.8085C36.9033 27.8085 37.2767 27.9554 37.393 28.3717C37.4787 28.6839 37.3502 28.9165 37.2645 29.0328C37.1053 29.2409 36.8543 29.3695 36.6095 29.3695Z" fill="#303B4D"/>
<path d="M14.6823 35.2706C11.0583 35.2706 8.11392 32.3262 8.11392 28.7022C8.11392 25.0783 11.0583 22.1339 14.6823 22.1339C18.3062 22.1339 21.2507 25.0783 21.2507 28.7022C21.2507 32.3262 18.3001 35.2706 14.6823 35.2706ZM14.6823 24.1968C12.1969 24.1968 10.1769 26.2169 10.1769 28.7022C10.1769 31.1876 12.1969 33.2077 14.6823 33.2077C17.1676 33.2077 19.1938 31.1876 19.1938 28.7022C19.1938 26.2169 17.1676 24.1968 14.6823 24.1968Z" fill="#2075BC"/>
<path d="M14.6823 22.3481C18.1899 22.3481 21.0364 25.2007 21.0364 28.7022C21.0364 32.2037 18.1838 35.0563 14.6823 35.0563C11.1808 35.0563 8.32816 32.2037 8.32816 28.7022C8.32816 25.2007 11.1747 22.3481 14.6823 22.3481ZM14.6823 33.4219C17.2839 33.4219 19.402 31.3039 19.402 28.7022C19.402 26.1006 17.2839 23.9826 14.6823 23.9826C12.0806 23.9826 9.96263 26.1006 9.96263 28.7022C9.96263 31.3039 12.0745 33.4219 14.6823 33.4219ZM14.6823 21.9257C10.942 21.9257 7.89969 24.9681 7.89969 28.7084C7.89969 32.4486 10.942 35.491 14.6823 35.491C18.4225 35.491 21.4649 32.4486 21.4649 28.7084C21.4588 24.9681 18.4164 21.9257 14.6823 21.9257ZM14.6823 32.9995C12.3133 32.9995 10.385 31.0712 10.385 28.7022C10.385 26.3332 12.3133 24.405 14.6823 24.405C17.0513 24.405 18.9796 26.3332 18.9796 28.7022C18.9796 31.0712 17.0513 32.9995 14.6823 32.9995Z" fill="white"/>
<path d="M13.3968 44.3243C11.9031 44.3243 10.587 43.3203 10.1891 41.8818L9.82181 40.5596C9.79732 40.4616 9.72999 40.382 9.63817 40.3453C8.75056 39.9596 7.9058 39.4699 7.12225 38.8884C7.06715 38.8456 6.99981 38.8272 6.92636 38.8272C6.89575 38.8272 6.86513 38.8333 6.84065 38.8394L5.50617 39.1822C5.23682 39.2496 4.95525 39.2863 4.67978 39.2863C3.49221 39.2863 2.3842 38.6497 1.79042 37.6274L0.504919 35.4053C-0.241903 34.1136 -0.0337618 32.4731 1.01301 31.4079L1.98018 30.4285C2.05364 30.355 2.08426 30.2571 2.07202 30.1591C1.96183 29.192 1.96183 28.2125 2.07202 27.2514C2.08426 27.1535 2.04751 27.0556 1.97405 26.9821L1.01301 26.0027C-0.0337618 24.9375 -0.241903 23.297 0.504919 22.0053L1.78429 19.7832C2.37807 18.7609 3.48608 18.1182 4.67365 18.1182C4.95524 18.1182 5.23069 18.1549 5.50004 18.2222L6.83452 18.565C6.86513 18.5712 6.89574 18.5773 6.92023 18.5773C6.99369 18.5773 7.06102 18.5528 7.10999 18.5161C7.89354 17.9345 8.7383 17.4448 9.62592 17.0592C9.71162 17.0224 9.7851 16.9429 9.80959 16.8449L10.1769 15.5165C10.5748 14.078 11.8909 13.0741 13.3845 13.0741H15.9494C17.4369 13.0741 18.7592 14.078 19.1571 15.5104L19.5244 16.8388C19.5489 16.9367 19.6223 17.0163 19.708 17.053C20.5956 17.4387 21.4404 17.9284 22.224 18.51C22.279 18.5528 22.3464 18.5712 22.4198 18.5712C22.4505 18.5712 22.4811 18.565 22.5056 18.5589L23.84 18.2161C24.1094 18.1488 24.391 18.1121 24.6664 18.1121C25.854 18.1121 26.962 18.7487 27.5558 19.771L28.8352 21.9931C29.582 23.2847 29.3739 24.9253 28.3271 25.9904L27.3599 26.976C27.2864 27.0494 27.2558 27.1474 27.2619 27.2392C27.3721 28.2003 27.3721 29.1797 27.2619 30.1408C27.2497 30.2387 27.2864 30.3367 27.3599 30.4101L28.3271 31.3896C29.3739 32.4547 29.582 34.0953 28.8352 35.3869L27.5558 37.609C26.962 38.6313 25.854 39.274 24.6664 39.274C24.3848 39.274 24.1094 39.2373 23.84 39.17L22.5056 38.8272C22.4749 38.8211 22.4505 38.8149 22.4198 38.8149C22.3464 38.8149 22.279 38.8394 22.224 38.8761C21.4465 39.4577 20.6018 39.9474 19.708 40.3331C19.6223 40.3698 19.5489 40.4494 19.5244 40.5473L19.1571 41.8696C18.7592 43.3081 17.4369 44.312 15.9494 44.312L13.3968 44.3243ZM6.92636 36.4826C7.50178 36.4826 8.06494 36.6663 8.51793 37.0091C9.15456 37.4805 9.84631 37.8783 10.5686 38.1967C11.3093 38.515 11.8603 39.1516 12.0806 39.9413L12.448 41.2635C12.5643 41.6859 12.956 41.9859 13.3968 41.9859H15.9617C16.4024 41.9859 16.7942 41.6859 16.9105 41.2635L17.2778 39.9413C17.492 39.1577 18.043 38.5211 18.7837 38.1967C19.506 37.8845 20.1977 37.4866 20.8344 37.0091C21.2996 36.6663 21.8444 36.4826 22.4198 36.4826C22.6463 36.4826 22.8789 36.5133 23.0993 36.5683L24.4338 36.9112C24.5134 36.9295 24.5991 36.9417 24.6787 36.9417C25.0337 36.9417 25.3582 36.752 25.5357 36.452L26.8151 34.2299C27.0354 33.8504 26.9742 33.3607 26.662 33.0485L25.6948 32.0691C25.1255 31.4875 24.8501 30.6917 24.9419 29.8898C25.0337 29.1063 25.0337 28.3105 24.9419 27.5208C24.8501 26.7189 25.1255 25.9231 25.6948 25.3415L26.662 24.3621C26.9681 24.0499 27.0354 23.5602 26.8151 23.1807L25.5357 20.9586C25.3582 20.6525 25.0337 20.4688 24.6787 20.4688C24.593 20.4688 24.5134 20.4811 24.4338 20.4994L23.0993 20.8422C22.8789 20.9035 22.6463 20.928 22.4198 20.928C21.8444 20.928 21.2996 20.7443 20.8344 20.4015C20.1977 19.9301 19.506 19.5261 18.7837 19.2139C18.043 18.8895 17.4921 18.259 17.2717 17.4693L16.9044 16.1471C16.7881 15.7247 16.3963 15.4247 15.9556 15.4247H13.3906C12.9499 15.4247 12.5581 15.7247 12.4418 16.1471L12.0745 17.4754C11.8603 18.259 11.3093 18.8956 10.5625 19.2139C9.84019 19.5261 9.14847 19.924 8.51184 20.4015C8.05273 20.7443 7.50178 20.928 6.92636 20.928C6.69986 20.928 6.46725 20.8973 6.24688 20.8422L4.9124 20.4994C4.83282 20.4811 4.7471 20.4688 4.66752 20.4688C4.3186 20.4688 3.98802 20.6586 3.8105 20.9586L2.525 23.1807C2.30463 23.5602 2.36584 24.0499 2.67804 24.3621L3.64525 25.3415C4.21454 25.9231 4.49 26.7189 4.39818 27.5208C4.30635 28.3043 4.30635 29.1001 4.39818 29.8898C4.49 30.6917 4.21454 31.4875 3.64525 32.0691L2.67804 33.0485C2.36584 33.3607 2.30463 33.8504 2.525 34.2299L3.8105 36.452C3.98802 36.7581 4.31247 36.9417 4.6614 36.9417C4.7471 36.9417 4.82669 36.9295 4.90627 36.9112L6.24075 36.5683C6.47337 36.5133 6.69986 36.4826 6.92636 36.4826Z" fill="#2075BC"/>
<path d="M15.9617 13.1537C17.4186 13.1537 18.7102 14.1331 19.102 15.541L19.4693 16.8694C19.4999 16.9857 19.5856 17.0836 19.6896 17.1326C20.5711 17.5183 21.4159 18.0019 22.1872 18.5773C22.2545 18.6263 22.3341 18.6508 22.426 18.6508C22.4627 18.6508 22.4933 18.6446 22.53 18.6385L23.8645 18.2957C24.1277 18.2284 24.4032 18.1916 24.6725 18.1916C25.8356 18.1916 26.9191 18.816 27.5007 19.8199L28.7862 22.042C29.5147 23.3031 29.3126 24.913 28.2904 25.9537L27.3231 26.9392C27.2374 27.0249 27.1946 27.1474 27.2068 27.2637C27.317 28.2248 27.317 29.1919 27.2068 30.153C27.1946 30.2693 27.2374 30.3918 27.3231 30.4775L28.2904 31.4569C29.3126 32.4976 29.5208 34.1075 28.7862 35.3685L27.5068 37.5906C26.9252 38.5946 25.8417 39.2189 24.6787 39.2189C24.4032 39.2189 24.1338 39.1822 23.8706 39.1149L22.5361 38.7721C22.4994 38.766 22.4688 38.7598 22.4321 38.7598C22.3464 38.7598 22.2607 38.7843 22.1933 38.8394C21.4159 39.4148 20.5773 39.9046 19.6958 40.2841C19.5856 40.3331 19.506 40.431 19.4754 40.5473L19.1081 41.8696C18.7163 43.2775 17.4247 44.2569 15.9678 44.2569H13.4029C11.946 44.2569 10.6543 43.2775 10.2626 41.8696L9.89525 40.5473C9.86464 40.4249 9.77895 40.3331 9.67488 40.2841C8.79339 39.8984 7.94864 39.4148 7.17122 38.8394C7.10388 38.7904 7.02429 38.766 6.93247 38.766C6.89574 38.766 6.86514 38.7721 6.82841 38.7782L5.4939 39.121C5.23067 39.1883 4.95524 39.2251 4.68589 39.2251C3.52281 39.2251 2.43927 38.6007 1.85773 37.5968L0.572232 35.3747C-0.156226 34.1136 0.045788 32.5037 1.0742 31.463L2.0414 30.4836C2.1271 30.3979 2.16996 30.2755 2.15771 30.1591C2.04753 29.1981 2.04753 28.2248 2.15771 27.2698C2.16996 27.1535 2.1271 27.0311 2.0414 26.9392L1.08033 25.9598C0.058037 24.9191 -0.150092 23.3092 0.584487 22.0482L1.86386 19.8261C2.4454 18.8221 3.5289 18.1978 4.69198 18.1978C4.96745 18.1978 5.2368 18.2345 5.50002 18.3018L6.8345 18.6446C6.87123 18.6508 6.90187 18.6569 6.9386 18.6569C7.0243 18.6569 7.11 18.6324 7.17122 18.5834C7.94864 18.008 8.79339 17.5183 9.67488 17.1387C9.78507 17.0898 9.86464 16.9918 9.89525 16.8755L10.2626 15.5472C10.6543 14.1392 11.9399 13.1598 13.4029 13.1598H15.9617M6.9386 20.8545C6.71822 20.8545 6.49171 20.8239 6.27134 20.7688L4.93686 20.426C4.85116 20.4015 4.75934 20.3954 4.67364 20.3954C4.2941 20.3954 3.94518 20.5974 3.75541 20.9218L2.46988 23.1439C2.23114 23.5541 2.29848 24.0744 2.62904 24.4111L3.59625 25.3905C4.1533 25.9598 4.41654 26.7311 4.33084 27.5147C4.23901 28.3043 4.23901 29.1062 4.33084 29.902C4.42266 30.6856 4.1533 31.4569 3.59625 32.0201L2.62904 32.9995C2.29848 33.3362 2.23117 33.8565 2.46379 34.2667L3.74929 36.4888C3.93905 36.8132 4.28797 37.0152 4.66138 37.0152C4.7532 37.0152 4.8389 37.003 4.9246 36.9785L6.25908 36.6357C6.47333 36.5806 6.69371 36.55 6.91409 36.55C7.47114 36.55 8.0221 36.7336 8.46897 37.0581C9.11172 37.5355 9.80345 37.9334 10.5319 38.2518C11.2542 38.564 11.7929 39.1822 12.001 39.9474L12.3684 41.2696C12.4969 41.7226 12.9131 42.041 13.3845 42.0471H15.9494C16.4208 42.0471 16.8432 41.7288 16.9656 41.2696L17.3329 39.9474C17.541 39.1822 18.0797 38.564 18.802 38.2518C19.5305 37.9334 20.2222 37.5355 20.865 37.0581C21.318 36.7214 21.8505 36.5439 22.4076 36.5439C22.6279 36.5439 22.8545 36.5745 23.0687 36.6296L24.4032 36.9724C24.4889 36.9969 24.5807 37.003 24.6664 37.003C25.0459 37.003 25.3949 36.801 25.5846 36.4765L26.864 34.2544C27.1028 33.8443 27.0354 33.324 26.7049 32.9873L25.7377 32.0078C25.1806 31.4447 24.9174 30.6672 25.0092 29.8898C25.101 29.1001 25.101 28.2982 25.0092 27.5086C24.9174 26.725 25.1867 25.9537 25.7438 25.3905L26.711 24.4111C27.0416 24.0744 27.1089 23.5541 26.8702 23.1439L25.5908 20.9218C25.401 20.5974 25.0521 20.3954 24.6725 20.3954C24.5807 20.3954 24.495 20.4076 24.4093 20.426L23.0748 20.7688C22.8606 20.8239 22.6341 20.8545 22.4137 20.8545C21.8566 20.8545 21.318 20.677 20.8711 20.3464C20.2284 19.8689 19.5366 19.4649 18.8081 19.1527C18.0858 18.8405 17.5471 18.2222 17.339 17.4571L16.9717 16.1348C16.8431 15.6818 16.4269 15.3635 15.9555 15.3635H13.3906C12.9193 15.3635 12.4969 15.6818 12.3745 16.1348L12.0072 17.4632C11.799 18.2284 11.2604 18.8466 10.538 19.1588C9.80958 19.471 9.11785 19.8751 8.4751 20.3525C8.02823 20.677 7.49565 20.8545 6.9386 20.8545ZM15.9617 13.0129H13.3968C11.8725 13.0129 10.5258 14.0351 10.1217 15.5043L9.75447 16.8327C9.7361 16.9061 9.68102 16.9735 9.61368 17.0041C8.71995 17.3897 7.86906 17.8856 7.08551 18.4671C7.04265 18.4977 6.99369 18.5161 6.9386 18.5161C6.91411 18.5161 6.8896 18.5161 6.87123 18.51L5.53675 18.1672C5.25516 18.0937 4.97357 18.057 4.69198 18.057C3.49829 18.057 2.35973 18.6875 1.74146 19.7526L0.462049 21.9747C-0.303137 23.2908 -0.0888997 24.9742 0.982361 26.0577L1.94344 27.0372C1.99853 27.0984 2.02914 27.1719 2.01689 27.2514C1.90671 28.2186 1.90671 29.2042 2.01689 30.1714C2.02302 30.2448 1.99853 30.3244 1.94344 30.3795L0.976271 31.359C-0.0949898 32.4486 -0.309264 34.1259 0.455922 35.442L1.74146 37.6641C2.35973 38.7292 3.49829 39.3597 4.69198 39.3597C4.97357 39.3597 5.25516 39.323 5.53675 39.2496L6.87123 38.9068C6.89572 38.9006 6.92023 38.9006 6.9386 38.9006C6.99369 38.9006 7.04878 38.919 7.09163 38.9496C7.87518 39.5311 8.72607 40.027 9.61981 40.4126C9.68715 40.4433 9.74223 40.5045 9.76059 40.584L10.1279 41.9063C10.5319 43.3754 11.8786 44.3977 13.4029 44.3977H15.9678C17.4859 44.3977 18.8326 43.3754 19.2428 41.9063L19.61 40.584C19.6284 40.5106 19.6835 40.4433 19.7509 40.4126C20.6446 40.027 21.4955 39.5311 22.279 38.9496C22.3219 38.919 22.377 38.9006 22.4321 38.9006C22.4566 38.9006 22.481 38.9006 22.4994 38.9068L23.8339 39.2496C24.1155 39.323 24.3971 39.3597 24.6787 39.3597C25.8724 39.3597 27.011 38.7292 27.6292 37.6641L28.9086 35.442C29.6677 34.1259 29.4595 32.4486 28.3883 31.359L27.4211 30.3795C27.366 30.3183 27.3354 30.2448 27.3476 30.1714C27.4578 29.2042 27.4578 28.2186 27.3476 27.2514C27.3415 27.178 27.366 27.0984 27.4211 27.0433L28.3883 26.0577C29.4534 24.9742 29.6677 23.2908 28.9086 21.9747L27.6292 19.7526C27.011 18.6875 25.8724 18.057 24.6787 18.057C24.3971 18.057 24.1155 18.0937 23.8339 18.1672L22.4994 18.51C22.4749 18.5161 22.4504 18.5161 22.4321 18.5161C22.377 18.5161 22.3219 18.4977 22.279 18.4671C21.4955 17.8856 20.6446 17.3897 19.7509 17.0041C19.6835 16.9735 19.6284 16.9123 19.61 16.8327L19.2428 15.5043C18.8326 14.0351 17.4859 13.0129 15.9617 13.0129ZM6.9386 20.9953C7.52014 20.9953 8.08942 20.8116 8.5669 20.4566C9.20353 19.9852 9.88303 19.5873 10.6054 19.2813C11.3705 18.9507 11.9337 18.3018 12.1541 17.4938L12.5214 16.1715C12.6316 15.7798 12.9927 15.5043 13.4029 15.5043H15.9678C16.3779 15.5043 16.7391 15.7798 16.8493 16.1715L17.2166 17.4938C17.4369 18.3018 18.0001 18.9507 18.7653 19.2813C19.4815 19.5935 20.1671 19.9914 20.8037 20.4566C21.2812 20.8116 21.8505 20.9953 22.4321 20.9953C22.6647 20.9953 22.8973 20.9647 23.1299 20.9035L24.4644 20.5607C24.5379 20.5423 24.6175 20.53 24.6909 20.53C25.0154 20.53 25.3214 20.7015 25.4867 20.983L26.7661 23.2051C26.9681 23.5602 26.913 24.0132 26.6253 24.3009L25.6581 25.2803C25.0704 25.8741 24.7889 26.6883 24.8868 27.5147C24.9786 28.2921 24.9786 29.0879 24.8868 29.8653C24.7889 30.6917 25.0704 31.5059 25.6581 32.0997L26.6253 33.0791C26.913 33.3729 26.9681 33.8259 26.7661 34.181L25.4867 36.4031C25.3214 36.6908 25.0154 36.8622 24.6909 36.8622C24.6175 36.8622 24.5379 36.8499 24.4644 36.8316L23.1299 36.4888C22.8973 36.4276 22.6647 36.3969 22.4321 36.3969C21.8505 36.3969 21.2812 36.5806 20.8037 36.9356C20.1732 37.407 19.4876 37.7988 18.7714 38.111C18.0062 38.4415 17.4431 39.0965 17.2227 39.8984L16.8554 41.2207C16.7452 41.6186 16.3841 41.8941 15.9739 41.8941H13.409C12.9989 41.8941 12.6377 41.6186 12.5275 41.2207L12.1602 39.8984C11.9398 39.0904 11.3706 38.4415 10.6115 38.111C9.89528 37.7988 9.20966 37.4009 8.57302 36.9356C8.09555 36.5806 7.52014 36.3969 6.9386 36.3969C6.70598 36.3969 6.47336 36.4275 6.24686 36.4826L4.91238 36.8254C4.83893 36.8438 4.75935 36.8561 4.68589 36.8561C4.36757 36.8561 4.06148 36.6847 3.8962 36.3969L2.6107 34.1748C2.40869 33.8198 2.46377 33.3729 2.75148 33.0791L3.71869 32.0997C4.30635 31.5059 4.58794 30.6917 4.49 29.8653C4.39818 29.0879 4.39818 28.2921 4.49 27.5147C4.58794 26.6883 4.30635 25.8741 3.71869 25.2803L2.75148 24.3009C2.46377 24.007 2.40869 23.5602 2.6107 23.2051L3.8962 20.983C4.06148 20.6953 4.36757 20.5239 4.68589 20.5239C4.75935 20.5239 4.83893 20.5362 4.91238 20.5545L6.24686 20.8973C6.47336 20.9708 6.70598 20.9953 6.9386 20.9953Z" fill="white"/>
</g>
</svg>
