<svg width="62" height="60" viewBox="0 0 62 60" fill="none" xmlns="http://www.w3.org/2000/svg">
<g id="Vector">
<path d="M2.1812 59.9939C2.04016 59.9939 1.90523 59.9939 1.77032 59.9693C1.50664 59.9325 1.16327 59.8467 1.0345 59.6259C0.911855 59.4174 0.985439 59.0986 1.07129 58.8717C1.62931 57.3877 2.19347 55.9037 2.76376 54.4259C3.03971 53.7023 3.16847 53.6165 4.02084 53.6103C5.05717 53.5981 5.21047 53.4447 5.21047 52.4575V12.5435C5.21047 11.5562 5.05102 11.4029 4.00856 11.3968L2.50005 11.4029C2.16891 11.4029 1.83168 11.4029 1.50055 11.3907C0.721766 11.3661 0.500988 11.1638 0.482592 10.4463C0.451931 9.44067 0.451933 8.43499 0.445801 7.42932V6.51564C0.445801 6.33781 0.531638 6.16611 0.740131 5.93922C1.98495 4.57176 3.22978 3.20429 4.46233 1.83069L4.57271 1.70806C4.84252 1.41372 5.12459 1.1071 5.29629 0.696246C5.44346 0.365112 5.81139 0.309938 6.02602 0.309938C6.60857 0.303806 7.19114 0.297669 7.77369 0.285405C8.60766 0.27314 9.44164 0.260871 10.2756 0.260871C11.4407 0.260871 12.3973 0.285397 13.2926 0.334454C14.3719 0.401907 15.4818 0.634937 16.5488 0.861825C17.0516 0.966072 17.5544 1.07645 18.0573 1.16843C20.3813 1.59155 22.7054 2.01466 25.0295 2.43165C30.0824 3.34533 35.3069 4.29582 40.4395 5.25243C42.2546 5.59583 44.1126 5.76138 46.1301 5.76138H46.4612C47.9881 5.74299 49.5212 5.74299 51.0481 5.74299L57.3457 5.74913C57.5236 5.74913 57.7075 5.74912 57.8792 5.77978C58.2165 5.83497 58.4557 5.96375 58.5476 6.13545C58.6274 6.28262 58.6212 6.47884 58.5231 6.71799C57.9712 8.018 57.3642 9.38547 56.6099 11.0105C56.4627 11.3232 56.1561 11.3845 55.5981 11.3907H50.8273C48.8957 11.3907 46.9579 11.3907 45.0202 11.3968C45.0202 11.3968 44.7994 11.3845 44.7504 11.3845C44.2046 11.3845 44.0268 11.7218 43.9777 12.01C43.9777 12.0223 43.9777 12.0284 43.9777 12.0407H42.4202C42.3466 11.3968 41.7272 11.3968 41.5249 11.3968C37.6555 11.3968 33.78 11.3968 29.9106 11.3907C29.0092 11.3907 29.0092 12.0713 29.0092 12.4025C29.0154 15.4501 29.0154 18.4978 29.0154 21.5516C29.0092 22.4653 28.905 22.6615 27.7767 22.6676H15.2549C14.1818 22.6676 14.0223 22.8209 14.0223 23.845V52.3778C14.0223 53.4325 14.1756 53.5797 15.261 53.6042C16.0152 53.6226 16.1869 53.733 16.42 54.3707L16.7204 55.2047C17.1681 56.4372 17.6157 57.6636 18.045 58.8962C18.1247 59.1231 18.1983 59.442 18.0634 59.6443C17.9162 59.8712 17.5422 59.9509 17.2478 59.9755C17.1497 59.9877 17.0577 59.9877 16.9657 59.9877L2.1812 59.9939ZM4.81801 55.0084C4.28451 55.0084 3.94724 55.2353 3.77554 55.7075C3.57931 56.2655 3.3463 56.9155 3.05809 57.5594C2.99677 57.7066 2.84347 58.0438 3.0213 58.3198C3.18073 58.5651 3.48733 58.5957 3.73875 58.5957C4.59111 58.5896 5.40668 58.5835 6.22225 58.5835L9.51519 58.5896L12.8388 58.5835C13.6605 58.5835 14.4884 58.5835 15.3101 58.5957C15.5983 58.5957 15.911 58.5651 16.0766 58.3137C16.2605 58.0377 16.1134 57.6943 16.0582 57.5594C15.8374 57.0198 15.6289 56.425 15.4204 55.7566C15.261 55.2476 14.9115 55.0023 14.3473 55.0023C12.7591 55.0085 11.1709 55.0146 9.58267 55.0146C7.99446 55.0207 6.40622 55.0146 4.81801 55.0084ZM8.35625 53.0278L8.47886 53.2669C8.49726 53.2976 8.51567 53.3282 8.53407 53.3589L8.62607 53.549L8.86519 53.5981H11.7289C12.1704 53.5981 12.4647 53.3344 12.4647 52.9419C12.4709 52.2183 12.4709 51.4948 12.4709 50.8631V49.5693L8.35625 53.0278ZM6.70671 52.7457L8.02509 51.4579C9.22699 50.2806 10.3615 49.1707 11.502 48.0608C11.6676 47.8952 11.7534 47.7235 11.7534 47.5395C11.7534 47.2636 11.5633 47.0796 11.4162 46.9386L10.4902 46.0494C9.85861 45.4423 9.22698 44.8414 8.59538 44.2282C8.38075 44.0197 7.28923 42.9466 7.28923 42.9466L6.70671 42.3824V52.7457ZM11.735 36.5875C10.4105 37.8937 9.08595 39.206 7.76142 40.5182C7.61424 40.6654 7.54067 40.8249 7.54681 40.9843C7.55294 41.2357 7.73076 41.3951 7.84727 41.4994L8.10481 41.7508C9.06142 42.6829 10.0242 43.6211 10.9869 44.5532C11.1341 44.7004 11.2874 44.8414 11.4591 45.0008L11.8761 45.3933L12.4525 45.9452V36.7041L11.919 36.4036L11.735 36.5875ZM6.70057 39.5371L8.577 37.6791C9.5704 36.6918 10.5147 35.7536 11.4713 34.8092C11.6369 34.6498 11.7228 34.4781 11.7228 34.2941C11.7228 34.0182 11.5327 33.8342 11.3855 33.6871C10.8888 33.2088 10.4166 32.7488 9.94445 32.2828C9.47841 31.829 9.01853 31.3753 8.55248 30.9215C8.3072 30.6823 8.04964 30.4432 7.77369 30.1917C7.61426 30.0446 7.44869 29.8974 7.27699 29.7318L6.70057 29.1922V39.5371ZM11.9742 23.1459L11.7964 23.2441C11.7105 23.2931 11.643 23.3238 11.5817 23.379L10.3001 24.6177C9.46615 25.4271 8.63217 26.2365 7.79207 27.0337C7.59584 27.2238 7.49775 27.4139 7.50388 27.6163C7.50388 27.8922 7.6817 28.0946 7.84114 28.2356C8.41756 28.7875 8.98784 29.3455 9.56426 29.9035C10.1407 30.4616 10.7171 31.0196 11.2935 31.5776C11.3242 31.6083 11.3549 31.6389 11.3794 31.6757C11.4898 31.8106 11.6615 32.0191 11.9497 32.0191C12.011 32.0191 12.0723 32.0069 12.1275 31.9885C12.5751 31.8474 12.5077 31.3814 12.4893 31.2281C12.4832 31.1913 12.477 31.1606 12.477 31.1238C12.4893 29.7686 12.4832 28.4073 12.4832 27.046V22.8455L11.9742 23.1459ZM7.14207 16.5539C7.06848 16.5539 6.9949 16.5662 6.92132 16.5968L6.70671 16.6827V26.0955L7.74914 25.0776C9.03689 23.8205 10.2327 22.6554 11.4346 21.5025C11.594 21.3492 11.6676 21.1837 11.6676 21.0181C11.6676 20.7606 11.4836 20.5889 11.3487 20.4601L11.269 20.3865C10.0671 19.203 8.85906 18.0256 7.6449 16.8483C7.54066 16.7256 7.39961 16.5539 7.14207 16.5539ZM15.1384 11.4091C14.8195 11.4091 14.4884 11.4397 14.2615 11.6728C14.0346 11.8996 14.0101 12.2308 14.0162 12.4577C14.0468 15.2968 14.0468 17.8294 14.0162 20.1964C14.0162 20.4356 14.0407 20.7789 14.2737 21.0181C14.5067 21.2573 14.844 21.2879 15.1445 21.2879C16.0337 21.2757 16.8799 21.2695 17.7261 21.2695L20.7922 21.2757L23.8582 21.2695C24.7045 21.2695 25.5507 21.2757 26.3969 21.2879C26.7342 21.2879 27.0653 21.2573 27.3045 21.0181C27.5375 20.7789 27.5621 20.4356 27.5621 20.2025C27.5314 17.6516 27.5314 15.0699 27.5621 12.519C27.5621 12.2492 27.5375 11.9119 27.3106 11.6789C27.0776 11.4397 26.7342 11.4091 26.4582 11.4091C24.6799 11.4213 22.9262 11.4275 21.1785 11.4275C19.1549 11.4275 17.1497 11.4213 15.1384 11.4091ZM11.9129 9.83924C11.8454 9.88216 11.7964 9.91283 11.7596 9.93736C11.6921 9.98028 11.6247 10.0171 11.5633 10.0784L10.4657 11.1515C9.55202 12.0468 8.63831 12.936 7.72462 13.819C7.54679 13.9907 7.46095 14.1624 7.46095 14.3464C7.46095 14.5855 7.60197 14.7572 7.75528 14.9105C8.47887 15.6218 9.20248 16.3332 9.91993 17.0445C10.5025 17.6209 11.0789 18.1912 11.6614 18.7676C11.7289 18.8535 11.8515 18.8841 11.9374 18.9025L12.0048 18.9209L12.4464 19.062V9.48972L11.9129 9.83924ZM6.70057 12.8133L8.61379 10.9308C9.56427 9.99254 10.4963 9.07887 11.4284 8.16518C11.594 8.00575 11.6737 7.84018 11.6676 7.66234C11.6614 7.4048 11.4775 7.24536 11.361 7.14111L11.2935 7.07979L10.5822 6.39299C9.84636 5.67553 9.11048 4.96422 8.37463 4.25903C8.14774 4.0444 7.91471 3.84203 7.67556 3.63354C7.54678 3.51703 7.40576 3.40053 7.27085 3.27788L6.70057 2.76891V12.8133ZM53.7155 9.99868C54.0099 9.99868 54.2429 10.0048 54.433 10.0109C54.5679 10.0171 54.6844 10.0171 54.7825 10.0171C55.5122 10.0171 55.6349 9.735 55.9047 9.12179C55.9844 8.93783 56.0887 8.71094 56.2297 8.4166C56.4505 7.96896 56.5854 7.69301 56.4198 7.43546C56.2542 7.17178 55.9599 7.17178 55.3712 7.17178H15.0587C14.6907 7.17178 14.4148 7.18404 14.2247 7.38027C14.0223 7.58877 14.0223 7.8647 14.0223 8.33074C14.0223 8.44112 14.0223 8.5699 14.0223 8.71707C14.0223 9.2383 14.0162 9.55104 14.2369 9.7718C14.4577 9.99255 14.7766 9.99254 15.3468 9.99254L53.7155 9.99868ZM3.92884 10.0048C4.4746 9.99869 4.77506 9.99868 4.98969 9.79019C5.21657 9.57557 5.21047 9.26283 5.21047 8.75386C5.21047 8.58829 5.21047 8.44725 5.21047 8.32461C5.2166 7.8647 5.2166 7.58877 5.01424 7.38027C4.82414 7.18404 4.55433 7.17178 4.168 7.17178H3.29725C2.78215 7.17178 2.45713 7.19017 2.23637 7.41093C2.00948 7.64395 2.00948 7.96895 2.00948 8.50858V8.81519C2.00335 9.31189 2.00336 9.5817 2.20572 9.79019C2.41421 9.99868 2.7208 9.99868 3.11326 9.99868H3.38921L3.92884 10.0048ZM8.33784 2.27834L12.477 5.80431V5.06233C12.477 4.31421 12.477 3.39439 12.4709 2.47458C12.4709 2.29674 12.4096 1.72032 11.6246 1.72032H8.68123L8.33784 2.27834ZM14.7336 2.00853C14.5129 2.00853 14.3351 2.07599 14.2063 2.20476C14.0162 2.40099 14.0039 2.67079 14.0039 2.86088C14.0223 3.51702 14.0223 4.17929 14.0039 4.83543C13.9978 5.03166 14.0162 5.31987 14.2186 5.5345C14.378 5.70007 14.611 5.77978 14.9299 5.77978C17.628 5.77365 20.3261 5.77364 23.0243 5.77364H31.6583V5.44864L31.7809 5.10524L31.3824 5.03166C29.9168 4.76798 28.4451 4.49817 26.9795 4.22835C25.3606 3.93401 23.7417 3.63355 22.1167 3.33921C19.7559 2.90996 17.395 2.4807 15.0341 2.04532C14.9299 2.01466 14.8256 2.00853 14.7336 2.00853Z" fill="#2E4456"/>
<path d="M29.4139 59.9939C29.138 59.9939 28.8927 59.9877 28.6658 59.9203C28.2672 59.8099 28.1998 59.5953 28.1875 59.399C28.1752 59.2151 28.1753 59.0189 28.1753 58.8226V54.0212C28.1753 49.14 28.1814 44.2588 28.163 39.3777C28.1569 38.7706 28.3469 38.4027 28.8682 38.0225C32.3512 35.4593 35.8159 32.8838 39.2867 30.3083L42.1381 28.1927C42.2668 28.0884 42.3956 27.9965 42.5244 27.9045C42.8678 27.6592 43.0518 27.5733 43.2051 27.5733C43.3584 27.5733 43.5423 27.6653 43.8612 27.8983C46.0381 29.4804 48.215 31.0686 50.3919 32.663L52.3174 34.0673C52.857 34.4597 53.3905 34.8522 53.9302 35.2507C55.1321 36.1399 56.383 37.0536 57.6278 37.9305C58.1797 38.3168 58.4005 38.7399 58.3943 39.4022C58.3821 41.1928 58.3882 42.9772 58.3882 44.7678V58.5099C58.3882 58.6386 58.3882 58.7674 58.3882 58.8962C58.3514 59.7792 58.1981 60 57.1495 60L29.4139 59.9939ZM52.9674 58.5835C53.8688 58.5835 54.7702 58.5896 55.6655 58.6019C55.9905 58.6019 56.3523 58.5712 56.5915 58.3259C56.8306 58.0868 56.8552 57.7372 56.8552 57.4674C56.8306 55.3396 56.8368 53.2117 56.8368 51.0839V45.7673C56.8368 43.8173 56.8368 41.8673 56.8368 39.9112C56.8429 39.5126 56.7816 39.0588 56.2726 38.6909C51.8146 35.4593 47.7673 32.5097 43.8918 29.6644C43.7079 29.5356 43.4688 29.3884 43.1805 29.3884C42.9537 29.3884 42.7329 29.4743 42.4876 29.6644C38.4159 32.6998 34.338 35.7291 30.2479 38.7461C29.8125 39.0649 29.6163 39.4328 29.6163 39.9418C29.6286 46.2518 29.6286 52.016 29.6102 57.5655C29.6102 57.817 29.6408 58.1297 29.8677 58.3505C30.0946 58.5712 30.4135 58.6019 30.6649 58.6019C31.6399 58.5896 32.5781 58.5896 33.5163 58.5896H37.214C38.2381 58.5896 38.4097 58.424 38.4097 57.4245V49.9188C38.4159 48.7966 38.5814 48.6433 39.7649 48.6433H46.6697C47.9023 48.6433 48.0556 48.7905 48.0617 49.9433V57.3938C48.0617 58.4915 48.2702 58.5896 49.3372 58.5957L52.9674 58.5835ZM40.9178 49.9556C40.7032 49.9556 40.3904 49.9801 40.1758 50.2009C39.9673 50.4155 39.9428 50.716 39.9489 50.949C39.9673 51.7216 39.9612 52.4943 39.9612 53.2669L39.955 54.2665L39.9612 55.2721C39.9673 56.0448 39.9673 56.8174 39.9489 57.5901C39.9428 57.8231 39.9612 58.1236 40.1758 58.3382C40.3965 58.5589 40.7032 58.5896 40.9178 58.5896C41.715 58.5773 42.4876 58.5712 43.2603 58.5712C44.0329 58.5712 44.8055 58.5773 45.5782 58.5835C46.2282 58.5835 46.5409 58.283 46.5409 57.6882C46.5287 55.4132 46.5287 53.132 46.5409 50.857C46.5409 50.2622 46.2282 49.9617 45.6089 49.9617C44.7504 49.9678 43.9287 49.974 43.107 49.974C42.3895 49.974 41.672 49.9678 40.9546 49.9556H40.9178Z" fill="#2075BC"/>
<path d="M59.075 35.9375C58.566 35.9375 58.0632 35.7659 57.5726 35.4286C56.4504 34.6437 55.3222 33.8097 54.2368 33.0064L52.1886 31.4979C49.5089 29.5233 46.7372 27.4875 44.0329 25.4578C43.7754 25.2677 43.5485 25.1757 43.3154 25.1757C43.0088 25.1757 42.7452 25.3412 42.5367 25.4945C39.4216 27.8064 36.3003 30.1059 33.1791 32.4116L29.8125 34.8951C29.3281 35.2508 28.8927 35.5635 28.3776 35.7413C28.0955 35.8394 27.8073 35.8885 27.5191 35.8885C26.679 35.8885 25.9125 35.4531 25.471 34.7173C24.8823 33.7422 25.0969 32.6385 26.0106 31.9639C30.8243 28.4012 35.6442 24.8507 40.4702 21.3002C40.8503 21.0181 41.2673 20.7421 41.7518 20.5888C42.3404 20.411 42.4447 19.994 42.4324 19.669C42.3957 19.0068 41.8315 18.9454 41.6169 18.927C41.3838 18.9025 41.2121 18.7676 41.0404 18.4794C40.7829 18.0501 40.5253 17.6209 40.2678 17.1917L39.7772 16.37C39.5994 16.0818 39.6055 15.8181 39.7834 15.5115C40.2065 14.8124 40.6296 14.1072 41.0466 13.402C41.1999 13.1445 41.4145 12.9912 41.7211 12.9298C41.9112 12.8992 42.0706 12.8256 42.1871 12.7213H44.2107C44.3824 12.8624 44.6032 12.8992 44.7872 12.936C45.1122 12.9973 45.3084 13.1383 45.4617 13.3897L45.8664 14.0765C46.1608 14.5732 46.449 15.0638 46.7494 15.5605C46.915 15.8303 46.915 16.0695 46.7433 16.3577C46.3141 17.0813 45.8848 17.8049 45.4494 18.5223C45.2777 18.8105 45.0447 18.9393 44.7074 18.9393C44.1985 18.9393 44.0084 19.2582 43.99 19.528C43.9716 19.7242 43.9225 20.2271 44.456 20.3865C45.6886 20.7422 46.6329 21.4841 47.6325 22.2752C47.9697 22.5389 48.307 22.8087 48.6565 23.0601C52.3481 25.7276 56.0764 28.4809 59.6882 31.1361L60.559 31.7738C61.2765 32.3012 61.6321 33.0616 61.5401 33.8588C61.4481 34.6621 60.8963 35.355 60.0623 35.7107C59.725 35.864 59.3939 35.9375 59.075 35.9375ZM43.1008 23.4342C43.2848 23.4342 43.5424 23.5997 43.9593 23.9063C48.6504 27.3464 53.3414 30.7927 58.0325 34.2451C58.2839 34.4291 58.5783 34.613 58.9095 34.613C59.0995 34.613 59.3755 34.5517 59.6208 34.2451C59.8415 33.9753 59.8599 33.7177 59.8354 33.546C59.7986 33.2455 59.6023 32.9696 59.2589 32.7182L55.1259 29.6399C51.8023 27.1686 48.4848 24.6912 45.1612 22.22C44.64 21.8275 44.0084 21.619 43.2971 21.6068C42.5551 21.6252 41.8928 21.8705 41.1999 22.3733C39.0046 23.986 36.8093 25.5927 34.614 27.2054L27.0101 32.7734C26.4767 33.1597 26.4828 33.5951 26.587 33.8956C26.7281 34.2819 27.004 34.5088 27.3597 34.5517C27.3965 34.5578 27.4333 34.5578 27.4701 34.5578C27.838 34.5578 28.0894 34.3616 28.2917 34.2022L28.3899 34.1286C33.0012 30.7191 37.6187 27.3097 42.2301 23.9063C42.6716 23.5936 42.923 23.4342 43.1008 23.4342ZM43.2603 14.3096C42.3282 14.3096 41.4145 15.1251 41.4145 15.953C41.4084 16.3148 41.58 16.695 41.8989 17.0138C42.2668 17.3879 42.7636 17.6148 43.2296 17.6148C43.7263 17.6148 44.2475 17.3756 44.6277 16.977C44.9405 16.6459 45.0999 16.2657 45.0754 15.8978C45.0325 15.0945 44.1556 14.3157 43.2603 14.3096Z" fill="#2075BC"/>
<path d="M20.6511 18.8167L18.7441 18.8228C18.3516 18.8228 17.953 18.8228 17.5544 18.8167C16.7021 18.8105 16.561 18.5898 16.5549 17.9275C16.5488 16.8176 16.5488 15.7077 16.5549 14.6039C16.561 13.9968 16.7388 13.7945 17.2969 13.7883C18.4374 13.7699 19.578 13.7638 20.7186 13.7638C21.853 13.7638 22.9875 13.7699 24.1219 13.7883C24.6799 13.7945 24.8639 13.9968 24.8639 14.6039C24.87 15.7322 24.87 16.8605 24.8639 17.9888C24.8578 18.602 24.6493 18.8044 23.9932 18.8167C23.5455 18.8228 23.0917 18.8289 22.6441 18.8289L20.6511 18.8167ZM18.9096 15.1497C18.6214 15.1497 18.4007 15.2232 18.2474 15.3827C18.0082 15.6218 18.0082 15.9591 18.0143 16.2596V16.3332C18.0143 16.7195 18.0143 17.4308 18.9648 17.4308H19.0384C19.4247 17.4185 19.8172 17.4124 20.2096 17.4124C20.5101 17.4124 21.7181 17.4247 22.0186 17.4247C22.6563 17.4247 22.9875 17.4247 23.2205 17.1917C23.4474 16.9648 23.4412 16.652 23.429 16.0879C23.4167 15.3152 22.9323 15.1619 22.5276 15.1619H22.4662C22.2393 15.1681 22.0125 15.1742 21.7917 15.1742L20.7431 15.1681C20.5653 15.1681 19.8539 15.1803 19.6761 15.1803C19.4615 15.1803 19.2407 15.1742 19.0261 15.1619C18.9832 15.1497 18.9464 15.1497 18.9096 15.1497Z" fill="#2E4456"/>
<path d="M49.8707 47.5457C49.6131 47.5457 49.3617 47.5457 49.1042 47.5395C48.4603 47.5273 48.3315 47.3372 48.307 46.957C48.2028 45.4485 48.0801 43.7437 48.3744 42.1003C48.5952 40.8984 50.0179 39.8008 51.3547 39.8008C51.416 39.8008 51.4773 39.8008 51.5386 39.8069C53.1575 39.9418 54.4759 41.1866 54.5434 42.6461C54.5986 43.8051 54.6353 45.0315 54.666 46.5093C54.6721 46.9079 54.6108 47.1716 54.4698 47.3126C54.3165 47.4659 54.016 47.5457 53.5439 47.5457C53.3047 47.5457 53.0717 47.5457 52.8386 47.5457H49.8707ZM49.7664 44.032V44.4796C49.7664 44.7678 49.7726 45.0621 49.7664 45.3504C49.7542 45.6324 49.8217 45.8409 49.9688 45.9942C50.1099 46.1414 50.3184 46.215 50.5882 46.215C50.8641 46.2089 51.0971 46.2088 51.3301 46.2088C51.649 46.2088 51.9679 46.215 52.2867 46.215C52.4768 46.215 52.7406 46.1905 52.9306 46.0004C53.0165 45.9145 53.1146 45.7551 53.1085 45.5037C53.1023 45.2338 53.1023 44.964 53.1023 44.6942C53.1023 44.0074 53.1023 43.29 53.041 42.5909C52.9674 41.7937 52.2806 41.2112 51.3976 41.2112C51.3608 41.2112 51.3179 41.2112 51.2811 41.2173C50.4471 41.2664 49.8094 41.9041 49.7726 42.7442C49.7542 43.0447 49.7603 43.3452 49.7603 43.6518V43.7928L49.7664 44.032Z" fill="#2075BC"/>
<path d="M33.5225 47.5457C33.2649 47.5457 33.0074 47.5457 32.7498 47.5395C32.0508 47.5211 31.9527 47.1716 31.9465 46.8343L31.9404 46.5707C31.9158 45.2706 31.8913 43.9277 31.9527 42.6154C32.014 41.1621 33.4612 39.856 35.0494 39.8069H35.1168C36.5824 39.8069 37.9805 40.9843 38.1706 42.3763C38.3485 43.6334 38.2994 44.9272 38.2504 46.1782L38.2258 46.7914C38.2074 47.3126 38.0725 47.5334 37.257 47.5395C37.0117 47.5395 36.7725 47.5395 36.5272 47.5395H35.0616L33.5225 47.5457ZM35.0923 41.2112C34.1602 41.2112 33.455 41.9102 33.406 42.8791C33.3876 43.2532 33.3937 43.6272 33.3937 44.0013C33.3998 44.3876 33.3998 44.7801 33.3815 45.1664C33.3692 45.3872 33.3753 45.7121 33.5961 45.9452C33.8229 46.1843 34.1725 46.215 34.4546 46.215C36.5763 46.2027 36.7234 46.0617 36.7234 44.0687V43.7867C36.7234 43.4985 36.7235 43.2041 36.7173 42.9159C36.6928 41.8857 36.0612 41.2112 35.1107 41.2051H35.0923V41.2112Z" fill="#2075BC"/>
<path d="M43.2603 40.3895C41.2489 40.3895 39.5503 38.8012 39.5503 36.9187C39.5565 35.0239 41.2612 33.4234 43.2725 33.4234C45.3636 33.454 47.0683 35.0545 47.0561 36.9248C47.0377 38.838 45.3452 40.3956 43.2725 40.3956C43.2725 40.3895 43.2603 40.3895 43.2603 40.3895ZM43.2971 34.8031C42.1381 34.8092 41.0343 35.8333 41.022 36.9126C41.022 37.3909 41.2489 37.8998 41.6598 38.3107C42.1258 38.7829 42.7513 39.0588 43.34 39.0588C44.5909 39.0343 45.5414 38.0838 45.5292 36.8942C45.5169 35.7045 44.5603 34.8031 43.3154 34.8031H43.2971Z" fill="#2075BC"/>
</g>
</svg>
