<svg width="55" height="65" viewBox="0 0 55 65" fill="none" xmlns="http://www.w3.org/2000/svg">
<g id="About-whychoose-icon-loyal">
<g id="Vector">
<path d="M11.8584 57.5726L10.3581 57.5236C10.4316 55.3987 9.25583 54.3393 7.76778 52.9982C7.46772 52.7288 7.15542 52.4471 6.84923 52.1532C4.06909 49.4832 1.06851 46.3908 0.615357 43.4331C0.370411 41.8348 0.535759 27.4565 1.60127 23.9292C2.70353 20.2857 4.44876 19.9182 5.72248 20.255C6.95334 20.5367 8.25156 21.8655 8.23318 24.7559C8.23318 25.0805 8.22706 25.4295 8.22706 25.7847C8.19644 29.1098 8.1597 33.9475 8.74757 37.3278C9.05988 37.1808 9.40893 37.0951 9.7886 37.0706C13.524 36.8624 19.9171 43.1697 21.1296 44.817C23.1198 47.5237 22.9728 52.6247 22.8258 57.5665L21.3256 57.5236C21.4542 53.0595 21.6011 47.9952 19.9171 45.7111C18.5577 43.8678 12.6177 38.4178 9.86821 38.5709C9.42731 38.5954 9.13948 38.7668 8.93127 39.1281C8.77818 39.3914 8.48426 39.5384 8.17807 39.4956C7.87802 39.4527 7.62693 39.2322 7.55345 38.9383C6.64102 35.4111 6.69002 29.8386 6.72064 25.7663C6.72064 25.4112 6.72677 25.0682 6.72677 24.7375C6.73902 22.8515 6.05928 21.8594 5.37343 21.7063C5.36118 21.7063 5.34894 21.7002 5.33669 21.7002C4.41202 21.4491 3.64045 22.3432 3.03421 24.3518C2.0483 27.6279 1.86459 41.6695 2.09729 43.1942C2.47696 45.6866 5.28771 48.5586 7.89026 51.057C8.1842 51.3387 8.48424 51.6082 8.77818 51.8715C10.3397 53.286 11.9564 54.7435 11.8584 57.5726Z" fill="#303B4D"/>
<path d="M22.7769 64.0943H10.401C9.08439 64.0943 8.01886 63.0288 8.01886 61.7122V59.1709C8.01886 57.8604 9.09051 56.7888 10.401 56.7888H22.7769C24.0935 56.7888 25.159 57.8543 25.159 59.1709L25.1529 61.7122C25.1529 63.0288 24.0873 64.0943 22.7769 64.0943ZM10.401 58.2952C9.9172 58.2952 9.51916 58.6871 9.51916 59.1709V61.7122C9.51916 62.1959 9.91108 62.5879 10.401 62.5879H22.7769C23.2606 62.5879 23.6526 62.1959 23.6526 61.7122L23.6587 59.1709C23.6587 58.6871 23.2668 58.2952 22.7769 58.2952H10.401Z" fill="#303B4D"/>
<path d="M12.0176 46.1581C11.8339 46.1581 11.6441 46.0908 11.5032 45.9499C7.79842 42.4411 6.57369 40.0222 7.64533 38.3505C7.87191 38.0014 8.33117 37.8973 8.68634 38.1239C9.03539 38.3505 9.13949 38.8097 8.91292 39.1649C8.64347 39.5874 8.45365 40.9897 12.5381 44.8599C12.8382 45.1477 12.8504 45.6192 12.5687 45.9254C12.4156 46.0785 12.2136 46.1581 12.0176 46.1581Z" fill="#303B4D"/>
<path d="M43.1319 57.5726C43.0339 54.7496 44.6506 53.2922 46.2182 51.8837C46.5122 51.6204 46.8122 51.3509 47.1062 51.0693C49.7087 48.5708 52.5133 45.6988 52.8991 43.2065C53.1318 41.6878 52.9481 27.6402 51.9622 24.364C51.356 22.3555 50.5783 21.4614 49.6597 21.7125C49.6475 21.7186 49.6352 21.7186 49.623 21.7186C48.9432 21.8656 48.2635 22.8637 48.2696 24.7498C48.2696 25.0744 48.2758 25.4173 48.2758 25.7786C48.3125 29.8508 48.3554 35.4233 47.443 38.9506C47.3633 39.2445 47.1184 39.465 46.8183 39.5078C46.5122 39.5507 46.2182 39.4037 46.0651 39.1404C45.8569 38.7791 45.5691 38.6076 45.1282 38.5831C42.3787 38.43 36.4326 43.8801 35.0854 45.7233C33.4014 48.0136 33.5484 53.0717 33.677 57.5359L32.1767 57.5787C32.0358 52.643 31.8889 47.5359 33.8729 44.8293C35.0854 43.182 41.4663 36.8685 45.2139 37.0828C45.5936 37.1012 45.9427 37.1931 46.255 37.34C46.8428 33.9598 46.8 29.1282 46.7755 25.7969C46.7755 25.4356 46.7693 25.0927 46.7693 24.7682C46.751 21.8717 48.0492 20.549 49.2801 20.2673C50.5538 19.9305 52.299 20.2979 53.4013 23.9415C54.4668 27.4687 54.626 41.847 54.3872 43.4453C53.934 46.403 50.9334 49.4955 48.1533 52.1654C47.841 52.4655 47.5348 52.741 47.2348 53.0105C45.7467 54.3515 44.5771 55.4048 44.6444 57.5359L43.1319 57.5726Z" fill="#303B4D"/>
<path d="M44.5893 64.0943H32.2134C30.903 64.0943 29.8313 63.0288 29.8313 61.7122L29.8252 59.1709C29.8252 57.8604 30.8968 56.7888 32.2073 56.7888H44.5832C45.8998 56.7888 46.9653 57.8543 46.9653 59.1709V61.7122C46.9714 63.0288 45.8998 64.0943 44.5893 64.0943ZM32.2134 58.2952C31.7297 58.2952 31.3316 58.6871 31.3316 59.1709L31.3377 61.7122C31.3377 62.1959 31.7297 62.5879 32.2134 62.5879H44.5893C45.0731 62.5879 45.4711 62.1959 45.4711 61.7122V59.1709C45.4711 58.6871 45.0792 58.2952 44.5893 58.2952H32.2134Z" fill="#303B4D"/>
<path d="M42.9727 46.1581C42.7767 46.1581 42.5746 46.0785 42.4277 45.9254C42.1399 45.6254 42.1521 45.1477 42.4583 44.8599C46.5428 40.9836 46.3529 39.5874 46.0835 39.1649C45.8569 38.8159 45.961 38.3505 46.3101 38.1239C46.6591 37.8973 47.1245 38.0014 47.3511 38.3505C48.4227 40.0222 47.1919 42.4349 43.4932 45.9499C43.3401 46.0846 43.1564 46.1581 42.9727 46.1581Z" fill="#303B4D"/>
<path d="M29.8864 31.0755L29.6599 32.5636C32.6788 33.029 35.8999 34.6518 35.8999 37.7993V38.3688H37.4002V37.7993C37.4002 34.3701 34.522 31.792 29.8864 31.0755ZM25.0977 31.0755C20.4621 31.792 17.584 34.3701 17.584 37.7993V38.3688H19.0904V37.7993C19.0904 34.6518 22.3115 33.029 25.3304 32.5636L25.0977 31.0755Z" fill="#2075BC"/>
<path d="M27.4921 21.3512C24.2527 21.3512 21.6195 23.9905 21.6195 27.2299C21.6195 30.4693 24.2527 33.1025 27.4921 33.1025C30.7315 33.1025 33.3708 30.4693 33.3708 27.2299C33.3708 23.9905 30.7315 21.3512 27.4921 21.3512ZM27.4921 31.6022C25.0855 31.6022 23.1198 29.6426 23.1198 27.2299C23.1198 24.8172 25.0794 22.8576 27.4921 22.8576C29.9048 22.8576 31.8644 24.8233 31.8644 27.2299C31.8644 29.6426 29.9048 31.6022 27.4921 31.6022Z" fill="#2075BC"/>
<path d="M27.4921 16.8564C20.2417 16.8564 14.3385 22.7535 14.3385 30.01C14.3385 37.2666 20.2356 43.1636 27.4921 43.1636C34.7486 43.1636 40.6457 37.2604 40.6457 30.01C40.6457 22.7535 34.7425 16.8564 27.4921 16.8564ZM27.4921 41.6572C21.0684 41.6572 15.8449 36.4337 15.8449 30.01C15.8449 23.5863 21.0684 18.3628 27.4921 18.3628C33.9158 18.3628 39.1454 23.5863 39.1454 30.01C39.1454 36.4276 33.9158 41.6572 27.4921 41.6572Z" fill="#2075BC"/>
<path d="M27.4921 0.904297C27.1982 0.904297 26.9287 1.07576 26.8062 1.3452L25.2998 4.63973L21.6991 5.05613C21.4052 5.08675 21.1602 5.28883 21.0684 5.57052C20.9765 5.85221 21.0561 6.15839 21.2766 6.35435L23.9465 8.80381L23.23 12.3555C23.1688 12.6433 23.2851 12.9373 23.524 13.1149C23.6525 13.2128 23.8118 13.2557 23.9649 13.2557C24.0935 13.2557 24.2221 13.2251 24.3323 13.1577L27.486 11.3758L30.6396 13.1577C30.756 13.2251 30.8846 13.2557 31.0071 13.2557C31.1601 13.2557 31.3194 13.2067 31.448 13.1149C31.6868 12.9434 31.8031 12.6433 31.7419 12.3555L31.0254 8.80381L33.6892 6.35435C33.9035 6.15227 33.9893 5.84608 33.8974 5.57052C33.8056 5.28883 33.5606 5.08675 33.2667 5.05613L29.6843 4.6336L28.1779 1.33907C28.0555 1.07575 27.786 0.904297 27.4921 0.904297ZM25.0365 11.0328L25.5141 8.68133C25.5693 8.42413 25.4774 8.1547 25.2876 7.97711L23.5178 6.35435L25.8999 6.07877C26.1632 6.04816 26.3898 5.88282 26.5 5.644L27.4982 3.45785L28.4964 5.644C28.6066 5.88282 28.8332 6.04816 29.0965 6.07877L31.4786 6.35435L29.7088 7.97711C29.5129 8.1547 29.4272 8.42413 29.4823 8.68133L29.9599 11.0328L27.8656 9.85095C27.7493 9.78359 27.6207 9.75297 27.4982 9.75297C27.3696 9.75297 27.241 9.78359 27.1308 9.85095L25.0365 11.0328Z" fill="#2075BC"/>
<path d="M40.1987 5.65626C39.9047 5.65626 39.6353 5.82772 39.5128 6.09716L38.0064 9.39167L34.4057 9.8081C34.1117 9.83871 33.8668 10.0408 33.7749 10.3225C33.6831 10.6042 33.7627 10.9104 33.9831 11.1063L36.6469 13.5558L35.9305 17.1014C35.8692 17.3892 35.9856 17.6831 36.2244 17.8607C36.353 17.9587 36.5122 18.0015 36.6653 18.0015C36.7939 18.0015 36.9225 17.9709 37.0327 17.9036L40.1864 16.1277L43.3401 17.9036C43.4564 17.9709 43.585 18.0015 43.7075 18.0015C43.8606 18.0015 44.0198 17.9526 44.1484 17.8607C44.3872 17.6892 44.5036 17.3892 44.4424 17.1014L43.7259 13.5558L46.3897 11.1063C46.604 10.9042 46.6897 10.598 46.5979 10.3225C46.506 10.0408 46.2611 9.83871 45.9671 9.8081L42.3664 9.39167L40.86 6.09716C40.762 5.82772 40.4926 5.65626 40.1987 5.65626ZM37.7369 15.7909L38.2146 13.4394C38.2636 13.1822 38.1779 12.9128 37.988 12.7352L36.2183 11.1124L38.6065 10.8369C38.8698 10.8062 39.0964 10.6409 39.2066 10.4021L40.2048 8.21594L41.2029 10.4021C41.3132 10.6409 41.5397 10.8062 41.8031 10.8369L44.1913 11.1124L42.4215 12.7352C42.2256 12.9128 42.1399 13.1822 42.195 13.4394L42.6726 15.7909L40.5844 14.609C40.4681 14.5417 40.3456 14.5111 40.217 14.5111C40.0884 14.5111 39.9598 14.5417 39.8496 14.609L37.7369 15.7909Z" fill="#2075BC"/>
<path d="M14.7916 5.65626C14.4977 5.65626 14.2282 5.82772 14.1058 6.09716L12.5994 9.39167L8.99864 9.8081C8.70471 9.83871 8.45976 10.0408 8.36791 10.3225C8.27605 10.6042 8.35566 10.9104 8.57611 11.1063L11.2399 13.5558L10.5234 17.1014C10.4622 17.3892 10.5785 17.6831 10.8174 17.8607C10.946 17.9587 11.1052 18.0015 11.2583 18.0015C11.3869 18.0015 11.5155 17.9709 11.6257 17.9036L14.7794 16.1277L17.9331 17.9036C18.0494 17.9709 18.178 18.0015 18.3005 18.0015C18.4536 18.0015 18.6128 17.9526 18.7414 17.8607C18.9802 17.6892 19.0965 17.3892 19.0353 17.1014L18.3188 13.5558L20.9887 11.1063C21.2031 10.9104 21.2888 10.598 21.197 10.3225C21.1051 10.0408 20.8601 9.83871 20.5662 9.8081L16.9655 9.39167L15.4591 6.09716C15.3489 5.82772 15.0855 5.65626 14.7916 5.65626ZM10.8051 11.1124L13.1933 10.8369C13.4567 10.8062 13.6832 10.6409 13.7935 10.4021L14.7916 8.21594L15.7898 10.4021C15.9 10.6409 16.1266 10.8062 16.3899 10.8369L18.772 11.1124L17.0023 12.7352C16.8063 12.9128 16.7206 13.1822 16.7757 13.4394L17.2533 15.7909L15.1652 14.6152C15.0488 14.5478 14.9202 14.5172 14.7977 14.5172C14.6753 14.5172 14.5405 14.5478 14.4303 14.6152L12.3422 15.797L12.8198 13.4455C12.8688 13.1884 12.7831 12.9189 12.5932 12.7413L10.8051 11.1124Z" fill="#2075BC"/>
</g>
</g>
</svg>
