<svg width="55" height="55" viewBox="0 0 55 55" fill="none" xmlns="http://www.w3.org/2000/svg">
<g id="Vector">
<path fill-rule="evenodd" clip-rule="evenodd" d="M11.3467 9.18594C11.3452 9.75323 11.1191 10.2969 10.718 10.698C10.3169 11.0991 9.77322 11.3252 9.20593 11.3267H3.69712L11.3467 3.68854V9.18594Z" fill="#F7F8F8"/>
<path d="M29.5115 35.457H28.9406C28.7892 35.457 28.644 35.5171 28.5369 35.6242C28.4299 35.7312 28.3698 35.8764 28.3698 36.0278C28.3698 36.1792 28.4299 36.3244 28.5369 36.4315C28.644 36.5386 28.7892 36.5987 28.9406 36.5987H29.5115C29.6629 36.5987 29.8081 36.5386 29.9151 36.4315C30.0222 36.3244 30.0823 36.1792 30.0823 36.0278C30.0823 35.8764 30.0222 35.7312 29.9151 35.6242C29.8081 35.5171 29.6629 35.457 29.5115 35.457Z" fill="#2075BC"/>
<path d="M41.0201 30.4677C40.8711 30.4668 40.7277 30.5241 40.6204 30.6275L40.238 31.01C40.1351 31.1164 40.0776 31.2587 40.0776 31.4067C40.0776 31.5548 40.1351 31.697 40.238 31.8035C40.291 31.8591 40.3548 31.9035 40.4254 31.9339C40.496 31.9643 40.5721 31.9801 40.649 31.9804C40.796 31.9798 40.937 31.9226 41.0429 31.8206L41.4254 31.4381C41.5282 31.3317 41.5858 31.1894 41.5858 31.0414C41.5858 30.8933 41.5282 30.7511 41.4254 30.6446C41.373 30.5896 41.3101 30.5457 41.2405 30.5153C41.1709 30.4849 41.096 30.4687 41.0201 30.4677Z" fill="#2075BC"/>
<path d="M31.4124 40.0695C31.2655 40.0701 31.1244 40.1274 31.0185 40.2294L30.6361 40.6119C30.5332 40.7183 30.4757 40.8606 30.4757 41.0086C30.4757 41.1567 30.5332 41.2989 30.6361 41.4053C30.6891 41.461 30.7529 41.5054 30.8235 41.5358C30.8941 41.5662 30.9702 41.582 31.0471 41.5823C31.1941 41.5817 31.3352 41.5245 31.441 41.4225L31.8235 41.04C31.9264 40.9336 31.9839 40.7913 31.9839 40.6433C31.9839 40.4952 31.9264 40.3529 31.8235 40.2465C31.7704 40.1908 31.7067 40.1465 31.636 40.1161C31.5654 40.0857 31.4893 40.0698 31.4124 40.0695Z" fill="#2075BC"/>
<path d="M31.03 30.4562C30.9164 30.4567 30.8055 30.491 30.7115 30.5549C30.6175 30.6187 30.5447 30.7091 30.5024 30.8145C30.4601 30.92 30.4502 31.0356 30.474 31.1467C30.4978 31.2578 30.5543 31.3593 30.6361 31.4381L31.0185 31.8206C31.1244 31.9226 31.2654 31.9798 31.4124 31.9804C31.5608 31.9785 31.7032 31.9215 31.812 31.8206C31.8655 31.7675 31.908 31.7044 31.937 31.6348C31.966 31.5653 31.9809 31.4906 31.9809 31.4153C31.9809 31.3399 31.966 31.2653 31.937 31.1957C31.908 31.1262 31.8655 31.063 31.812 31.01L31.4296 30.6275C31.3223 30.5241 31.1789 30.4668 31.03 30.4677V30.4562Z" fill="#2075BC"/>
<path d="M36.0307 41.9705C35.8793 41.9705 35.7341 42.0307 35.6271 42.1377C35.52 42.2448 35.4598 42.39 35.4598 42.5414V43.1122C35.4598 43.2636 35.52 43.4088 35.6271 43.5159C35.7341 43.6229 35.8793 43.6831 36.0307 43.6831C36.1821 43.6831 36.3273 43.6229 36.4344 43.5159C36.5414 43.4088 36.6016 43.2636 36.6016 43.1122V42.5414C36.6016 42.39 36.5414 42.2448 36.4344 42.1377C36.3273 42.0307 36.1821 41.9705 36.0307 41.9705Z" fill="#2075BC"/>
<path d="M36.0307 30.6617C35.8793 30.6617 35.7341 30.7219 35.627 30.8289C35.52 30.936 35.4598 31.0812 35.4598 31.2326V35.6967L32.9195 37.1639C32.8124 37.2274 32.7289 37.3243 32.682 37.4397C32.635 37.5551 32.6271 37.6827 32.6595 37.803C32.6918 37.9233 32.7626 38.0298 32.8611 38.1061C32.9596 38.1824 33.0804 38.2244 33.2049 38.2257C33.3049 38.2263 33.4034 38.2008 33.4904 38.1514L36.3161 36.5188C36.4024 36.469 36.4742 36.3974 36.5242 36.3113C36.5743 36.2252 36.601 36.1275 36.6016 36.0278V31.2326C36.6016 31.0812 36.5414 30.936 36.4344 30.8289C36.3273 30.7219 36.1821 30.6617 36.0307 30.6617Z" fill="#2075BC"/>
<path d="M36.0307 28.3954C35.8793 28.3954 35.7341 28.4556 35.6271 28.5626C35.52 28.6697 35.4598 28.8149 35.4598 28.9663V29.5086C35.4598 29.66 35.52 29.8052 35.6271 29.9123C35.7341 30.0193 35.8793 30.0795 36.0307 30.0795C36.1821 30.0795 36.3273 30.0193 36.4344 29.9123C36.5414 29.8052 36.6016 29.66 36.6016 29.5086V28.9663C36.6016 28.8149 36.5414 28.6697 36.4344 28.5626C36.3273 28.4556 36.1821 28.3954 36.0307 28.3954Z" fill="#2075BC"/>
<path d="M40.6319 40.0581C40.5183 40.0586 40.4074 40.0929 40.3134 40.1567C40.2194 40.2206 40.1466 40.311 40.1043 40.4164C40.062 40.5219 40.0521 40.6375 40.0759 40.7486C40.0997 40.8597 40.1562 40.9612 40.238 41.04L40.6204 41.4225C40.7269 41.5254 40.8691 41.5829 41.0172 41.5829C41.1652 41.5829 41.3075 41.5254 41.4139 41.4225C41.4674 41.3694 41.5099 41.3063 41.5389 41.2367C41.5679 41.1671 41.5828 41.0925 41.5828 41.0172C41.5828 40.9418 41.5679 40.8672 41.5389 40.7976C41.5099 40.7281 41.4674 40.6649 41.4139 40.6119L41.0315 40.2294C40.9242 40.126 40.7808 40.0686 40.6319 40.0695V40.0581Z" fill="#2075BC"/>
<path d="M43.1208 35.457H42.55C42.3986 35.457 42.2534 35.5171 42.1463 35.6242C42.0392 35.7312 41.9791 35.8764 41.9791 36.0278C41.9791 36.1792 42.0392 36.3244 42.1463 36.4315C42.2534 36.5386 42.3986 36.5987 42.55 36.5987H43.1208C43.2722 36.5987 43.4174 36.5386 43.5245 36.4315C43.6315 36.3244 43.6917 36.1792 43.6917 36.0278C43.6917 35.8764 43.6315 35.7312 43.5245 35.6242C43.4174 35.5171 43.2722 35.457 43.1208 35.457Z" fill="#2075BC"/>
<path d="M9.20593 13.2219H2.25856V12.006H9.20593C9.9501 11.9956 10.6608 11.695 11.1865 11.1682C11.7122 10.6414 12.0114 9.93013 12.0203 9.18594V2.30705H13.2362V9.18594C13.2302 10.2535 12.8039 11.2757 12.0495 12.0312C11.2951 12.7866 10.2735 13.2144 9.20593 13.2219Z" fill="#303B4D"/>
<path d="M25.2471 51.5039H3.84555C3.06623 51.5009 2.31959 51.1904 1.76799 50.6398C1.21639 50.0893 0.90441 49.3433 0.899902 48.564V11.9717C0.900095 11.7911 0.938907 11.6126 1.01373 11.4481C1.08856 11.2837 1.19766 11.1372 1.33375 11.0184L11.0726 1.31375C11.1878 1.1861 11.3288 1.08444 11.4863 1.01553C11.6438 0.946632 11.8141 0.912068 11.986 0.914151H34.3352C35.115 0.915654 35.8625 1.22569 36.4145 1.77655C36.9664 2.32741 37.2779 3.0743 37.2809 3.85408V17.9429H36.065V3.83696C36.065 3.38275 35.8845 2.94715 35.5634 2.62598C35.2422 2.30481 34.8066 2.12437 34.3524 2.12437H11.986L11.9289 2.17004L2.11584 11.9832V48.5754C2.11584 49.0296 2.29626 49.4652 2.61743 49.7864C2.93861 50.1075 3.37422 50.288 3.82842 50.288H25.23L25.2471 51.5039Z" fill="#303B4D"/>
<path d="M37.6919 19.4044C37.7051 19.4056 37.7175 19.4114 37.7268 19.4208C37.7362 19.4302 37.742 19.4425 37.7433 19.4557V23.2634L38.885 23.5203C40.3021 23.8361 41.6539 24.3942 42.881 25.1701L43.8686 25.7923L46.5574 23.1035C46.5637 23.1009 46.5705 23.0995 46.5774 23.0995C46.5842 23.0995 46.591 23.1009 46.5974 23.1035H46.6316L48.9779 25.4498C48.9867 25.4601 48.9916 25.4733 48.9916 25.4869C48.9916 25.5005 48.9867 25.5136 48.9779 25.524L46.2948 28.207L46.917 29.2003C47.6887 30.4296 48.2465 31.7807 48.5668 33.1964L48.8237 34.3381H52.6257C52.6393 34.3381 52.6524 34.3435 52.662 34.3531C52.6716 34.3628 52.677 34.3758 52.677 34.3895V37.7062C52.677 37.7198 52.6716 37.7329 52.662 37.7425C52.6524 37.7521 52.6393 37.7575 52.6257 37.7575H48.8237L48.5668 38.8993C48.2465 40.3149 47.6887 41.666 46.917 42.8953L46.2948 43.8829L47.1168 44.7106L48.9836 46.5717C48.9924 46.582 48.9973 46.5952 48.9973 46.6088C48.9973 46.6224 48.9924 46.6355 48.9836 46.6459L46.6373 48.9921C46.6262 48.996 46.6142 48.996 46.6031 48.9921C46.5967 48.9948 46.59 48.9961 46.5831 48.9961C46.5762 48.9961 46.5694 48.9948 46.5631 48.9921L43.8744 46.3033L42.8868 46.9256C41.6596 47.7014 40.3078 48.2596 38.8907 48.5754L37.749 48.8323V52.6342C37.748 52.6481 37.7424 52.6612 37.7331 52.6715C37.7238 52.6819 37.7113 52.6888 37.6976 52.6913H34.3809C34.368 52.6956 34.3539 52.6956 34.341 52.6913V48.8608L33.2392 48.5754L32.029 48.2728C31.038 47.9467 30.0909 47.5 29.2089 46.9427L28.2213 46.3205L27.0853 47.4565L25.4926 49.0378L24.3509 47.896L23.1064 46.6002C23.098 46.5908 23.0933 46.5786 23.0933 46.5659C23.0933 46.5533 23.098 46.5411 23.1064 46.5317L24.9731 44.665L25.7952 43.8372L25.1729 42.8496C24.4022 41.6198 23.8445 40.2689 23.5231 38.8536L23.2663 37.7119H19.4643C19.4507 37.7119 19.4376 37.7065 19.428 37.6968C19.4184 37.6872 19.4129 37.6741 19.4129 37.6605V34.3438C19.4129 34.3302 19.4184 34.3171 19.428 34.3075C19.4376 34.2978 19.4507 34.2924 19.4643 34.2924H23.2663L23.5231 33.1507C23.8435 31.7351 24.4013 30.3839 25.1729 29.1547L25.7952 28.1614L24.9731 27.3393L23.1064 25.4783C23.0976 25.468 23.0927 25.4548 23.0927 25.4412C23.0927 25.4276 23.0976 25.4144 23.1064 25.4041L25.4526 23.0579C25.4637 23.0539 25.4758 23.0539 25.4869 23.0579C25.5001 23.0555 25.5136 23.0555 25.5269 23.0579L27.3879 24.9246L28.2156 25.7523L29.2032 25.1301C30.4308 24.3552 31.7825 23.7972 33.1992 23.4803L34.341 23.2234V19.4215C34.3409 19.4073 34.3461 19.3936 34.3556 19.383C34.3651 19.3724 34.3782 19.3658 34.3923 19.3644H37.7148M37.7148 17.903H34.3923C33.9911 17.903 33.6064 18.0624 33.3227 18.3461C33.0389 18.6298 32.8796 19.0146 32.8796 19.4158V22.0531C31.31 22.4123 29.8124 23.0338 28.4497 23.8913L26.5658 22.0531C26.2806 21.7718 25.8961 21.6141 25.4955 21.6141C25.0948 21.6141 24.7103 21.7718 24.4251 22.0531L22.0789 24.4051C21.7962 24.6896 21.6375 25.0744 21.6375 25.4755C21.6375 25.8765 21.7962 26.2613 22.0789 26.5458L23.9399 28.4068C23.0817 29.7706 22.462 31.2706 22.1074 32.8424H19.47C19.0688 32.8424 18.684 33.0018 18.4003 33.2855C18.1166 33.5692 17.9572 33.954 17.9572 34.3552V37.6719C17.9572 38.0731 18.1166 38.4579 18.4003 38.7416C18.684 39.0253 19.0688 39.1847 19.47 39.1847H22.1074C22.462 40.7565 23.0817 42.2565 23.9399 43.6203L22.0789 45.487C21.9377 45.6266 21.8256 45.7929 21.7491 45.9761C21.6726 46.1594 21.6332 46.356 21.6332 46.5545C21.6332 46.7531 21.6726 46.9497 21.7491 47.1329C21.8256 47.3162 21.9377 47.4824 22.0789 47.622L23.3062 48.8551L25.3499 50.8874H25.6296L28.1129 48.4212L28.4268 48.1073C29.4227 48.7356 30.4927 49.238 31.6122 49.6029L32.8738 49.9226V52.7769C32.9234 53.1386 33.1022 53.4702 33.3771 53.7104C33.6519 53.9507 34.0044 54.0834 34.3695 54.0842H37.6919C38.0927 54.0827 38.4766 53.9228 38.76 53.6394C39.0433 53.3561 39.2032 52.9721 39.2047 52.5714V49.934C40.7764 49.5762 42.2762 48.9547 43.6403 48.0958L45.5013 49.9626C45.7865 50.2439 46.1711 50.4016 46.5717 50.4016C46.9723 50.4016 47.3568 50.2439 47.642 49.9626L49.9883 47.6163C50.271 47.3318 50.4297 46.947 50.4297 46.546C50.4297 46.1449 50.271 45.7601 49.9883 45.4756L48.1273 43.6089C48.9889 42.2476 49.6124 40.7496 49.9711 39.179H52.6085C52.8074 39.1797 53.0045 39.1411 53.1883 39.0654C53.3722 38.9896 53.5393 38.8782 53.6799 38.7376C53.8205 38.597 53.9319 38.4299 54.0077 38.246C54.0835 38.0621 54.1221 37.8651 54.1213 37.6662V34.3495C54.1221 34.1506 54.0835 33.9536 54.0077 33.7697C53.9319 33.5858 53.8205 33.4188 53.6799 33.2781C53.5393 33.1375 53.3722 33.0261 53.1883 32.9503C53.0045 32.8746 52.8074 32.836 52.6085 32.8367H49.9711C49.6166 31.2649 48.9969 29.7649 48.1387 28.4011L49.9997 26.5401C50.2824 26.2556 50.4411 25.8708 50.4411 25.4698C50.4411 25.0687 50.2824 24.6839 49.9997 24.3994L47.642 22.0531C47.3568 21.7718 46.9723 21.6141 46.5717 21.6141C46.1711 21.6141 45.7865 21.7718 45.5013 22.0531L43.6403 23.9199C42.2751 23.0632 40.7757 22.4418 39.2047 22.0817V19.4443C39.2047 19.0431 39.0453 18.6583 38.7616 18.3746C38.4779 18.0909 38.0931 17.9315 37.6919 17.9315L37.7148 17.903Z" fill="#2075BC"/>
<path d="M36.0364 27.0767C37.8073 27.0756 39.5387 27.5998 41.0115 28.5829C42.4844 29.566 43.6326 30.9639 44.3108 32.5998C44.989 34.2356 45.1667 36.0358 44.8215 37.7727C44.4763 39.5096 43.6237 41.105 42.3715 42.3572C41.1193 43.6094 39.5239 44.462 37.787 44.8072C36.0501 45.1524 34.2499 44.9747 32.6141 44.2965C30.9782 43.6183 29.5803 42.4701 28.5972 40.9972C27.614 39.5244 27.0899 37.793 27.091 36.0221C27.0895 34.8475 27.3197 33.684 27.7684 32.5984C28.217 31.5128 28.8754 30.5263 29.7057 29.6955C30.5361 28.8646 31.5221 28.2056 32.6074 27.7562C33.6928 27.3069 34.856 27.076 36.0307 27.0767M36.0307 25.6153C34.6636 25.6153 33.3099 25.8847 32.0469 26.408C30.7839 26.9314 29.6364 27.6985 28.67 28.6654C27.7035 29.6324 26.9371 30.7803 26.4144 32.0436C25.8918 33.3068 25.6232 34.6607 25.6239 36.0278C25.6254 38.7884 26.7231 41.4354 28.6757 43.3869C30.6282 45.3384 33.2758 46.4346 36.0364 46.4346C38.755 46.371 41.3409 45.2463 43.2411 43.301C45.1413 41.3558 46.2052 38.7443 46.2052 36.025C46.2052 33.3056 45.1413 30.6942 43.2411 28.7489C41.3409 26.8037 38.755 25.679 36.0364 25.6153H36.0307Z" fill="#2075BC"/>
<path d="M31.1327 16.6414H7.0652C6.8926 16.6414 6.72708 16.5728 6.60503 16.4508C6.48299 16.3287 6.41443 16.1632 6.41443 15.9906C6.41443 15.818 6.48299 15.6525 6.60503 15.5304C6.72708 15.4084 6.8926 15.3398 7.0652 15.3398H31.1327C31.3053 15.3398 31.4708 15.4084 31.5929 15.5304C31.7149 15.6525 31.7835 15.818 31.7835 15.9906C31.7835 16.1632 31.7149 16.3287 31.5929 16.4508C31.4708 16.5728 31.3053 16.6414 31.1327 16.6414Z" fill="#2075BC"/>
<path d="M22.0275 20.6203H7.0652C6.8926 20.6203 6.72708 20.5517 6.60503 20.4297C6.48299 20.3076 6.41443 20.1421 6.41443 19.9695C6.41443 19.7969 6.48299 19.6314 6.60503 19.5093C6.72708 19.3873 6.8926 19.3187 7.0652 19.3187H22.0275C22.2001 19.3187 22.3656 19.3873 22.4877 19.5093C22.6097 19.6314 22.6783 19.7969 22.6783 19.9695C22.6783 20.1421 22.6097 20.3076 22.4877 20.4297C22.3656 20.5517 22.2001 20.6203 22.0275 20.6203Z" fill="#2075BC"/>
<path d="M18.2883 24.5992H7.0652C6.8926 24.5992 6.72708 24.5306 6.60503 24.4086C6.48299 24.2865 6.41443 24.121 6.41443 23.9484C6.41443 23.7758 6.48299 23.6103 6.60503 23.4882C6.72708 23.3662 6.8926 23.2976 7.0652 23.2976H18.2883C18.4609 23.2976 18.6265 23.3662 18.7485 23.4882C18.8706 23.6103 18.9391 23.7758 18.9391 23.9484C18.9391 24.121 18.8706 24.2865 18.7485 24.4086C18.6265 24.5306 18.4609 24.5992 18.2883 24.5992Z" fill="#2075BC"/>
</g>
</svg>
