<svg width="64" height="64" viewBox="0 0 64 64" fill="none" xmlns="http://www.w3.org/2000/svg">
<g id="Vector">
<path d="M61.5334 31.0594C62.4806 31.0594 63.2611 30.2789 63.2611 29.3317V28.0375C63.2611 27.0903 62.4806 26.3098 61.5334 26.3098H58.825V16.7705C58.825 15.2962 58.0845 14.0021 56.9571 13.2149C59.2719 12.0809 60.8796 9.70606 60.8796 6.95768C60.8796 3.12195 57.7576 0 53.9086 0C50.0662 0 46.9376 3.12195 46.9376 6.95768C46.9376 7.23118 46.9509 7.49803 46.9842 7.76486C46.9842 7.78487 46.9909 7.80488 46.9909 7.81822C47.3178 10.4732 49.1589 12.6612 51.6138 13.5285C50.7132 14.329 50.1329 15.4763 50.1329 16.7705V26.3098H8.55357C6.99259 26.3098 5.47165 26.6166 4.02408 27.217C2.60319 27.8107 1.31574 28.6779 0.201707 29.7986C0.00158204 30.0188 -0.0584701 30.3323 0.0616049 30.6058C0.18168 30.886 0.448526 31.0594 0.742043 31.0594H50.1396V53.5068H8.56024C6.99927 53.5068 5.47833 53.8136 4.03076 54.414C2.60987 55.0077 1.32237 55.8749 0.208344 56.9956C0.00154785 57.2024 -0.0584701 57.5293 0.0616049 57.8028C0.18168 58.083 0.448526 58.2564 0.742043 58.2564H50.1396V63.2595C50.1396 63.6665 50.4731 64 50.88 64C51.2869 64 51.6205 63.6665 51.6205 63.2595V47.2095C52.381 47.8833 53.3816 48.3035 54.4756 48.3035C55.5696 48.3035 56.5702 47.8766 57.3307 47.2095V63.2529C57.3307 63.6598 57.6643 63.9933 58.0712 63.9933C58.4781 63.9933 58.8117 63.6531 58.8117 63.2529V58.2497H61.52C62.4673 58.2497 63.2477 57.4693 63.2477 56.522V55.2279C63.2477 54.2806 62.4673 53.5001 61.52 53.5001H58.8117V31.0661H61.5334V31.0594ZM58.825 27.7907H61.5334C61.6735 27.7907 61.7802 27.8974 61.7802 28.0375V29.3317C61.7802 29.4718 61.6735 29.5785 61.5334 29.5785H58.825V27.7907ZM2.79663 56.7755C3.37032 56.3819 3.98403 56.055 4.62443 55.7882C5.89189 55.2612 7.21275 54.9944 8.58028 54.9944H50.1529V56.7755H2.79663ZM2.79663 29.5785C3.37032 29.1849 3.98403 28.858 4.62443 28.5912C5.89189 28.0575 7.2261 27.7907 8.58028 27.7907H50.1529V29.5785H2.79663ZM48.4318 6.96435C48.4318 3.94247 50.8934 1.4876 53.9152 1.4876C56.9371 1.4876 59.3987 3.94914 59.3987 6.96435C59.3987 9.97957 56.9371 12.4411 53.9152 12.4411C50.8934 12.4411 48.4318 9.98624 48.4318 6.96435ZM54.4823 46.8359C52.908 46.8359 51.6272 45.5485 51.6272 43.9808C51.6272 42.4132 52.9146 41.1257 54.4823 41.1257C56.0566 41.1257 57.3374 42.4132 57.3374 43.9808C57.3374 45.5485 56.0633 46.8359 54.4823 46.8359ZM57.3374 40.7388C56.5769 40.065 55.5763 39.6448 54.4823 39.6448C53.3883 39.6448 52.3876 40.0717 51.6272 40.7388V20.0125C52.3876 20.6863 53.3883 21.1065 54.4823 21.1065C55.5763 21.1065 56.5769 20.6796 57.3374 20.0125V40.7388ZM54.4823 19.6256C52.908 19.6256 51.6272 18.3381 51.6272 16.7705C51.6272 15.2028 52.9146 13.9154 54.4823 13.9154C56.0633 13.9154 57.3374 15.2028 57.3374 16.7705C57.3374 18.3381 56.0566 19.6256 54.4823 19.6256ZM61.5334 54.9877C61.6735 54.9877 61.7802 55.0944 61.7802 55.2345V56.5287C61.7802 56.6688 61.6735 56.7755 61.5334 56.7755H58.825V54.9877H61.5334Z" fill="#2E4456"/>
<path d="M15.8782 45.4017H34.4564C34.7833 45.4017 35.0568 45.1949 35.1569 44.8881C35.2569 44.5812 35.1502 44.2477 34.8834 44.0609C32.4619 42.3198 28.5861 40.2452 23.8631 40.2452C20.1542 40.2452 17.9261 41.6994 16.9255 42.5666C16.1516 43.227 16.085 43.3004 15.7381 43.7006L15.3312 44.1676C15.131 44.3877 15.0843 44.7013 15.2044 44.9681C15.3245 45.2349 15.5913 45.4017 15.8782 45.4017ZM24.617 41.7528C27.4654 41.8995 29.9536 42.8401 31.9215 43.9141H24.617V41.7528ZM17.8927 43.6806C18.6732 43.0069 20.3543 41.9329 23.1227 41.7528V43.9141H17.6193C17.706 43.8474 17.7927 43.774 17.8927 43.6806Z" fill="#2075BC"/>
<path d="M14.3839 50.9185C14.3839 51.3254 14.7174 51.659 15.1377 51.659C15.5579 51.659 15.8915 51.3254 15.8915 50.9185C15.8915 50.5116 15.5579 50.1647 15.1377 50.1647C14.7174 50.1647 14.3839 50.5049 14.3839 50.9185Z" fill="#2075BC"/>
<path d="M36.4177 50.9185C36.4177 51.3254 36.7512 51.659 37.1715 51.659C37.5917 51.659 37.9253 51.3254 37.9253 50.9185C37.9253 50.5116 37.5917 50.1647 37.1715 50.1647C36.7512 50.1647 36.4177 50.5049 36.4177 50.9185Z" fill="#2075BC"/>
<path d="M47.8915 47.9833C47.7114 47.6765 47.5246 47.403 47.3178 47.1561C46.4372 46.0888 45.2232 45.355 43.889 45.1015L41.2807 44.5745C40.7737 44.4745 40.3134 44.2277 39.9332 43.8741C38.2788 42.2197 32.2551 36.843 23.8631 36.843C19.0468 36.843 16.0583 38.8176 14.6907 39.9983C14.2371 40.3852 13.6834 40.5987 13.1098 40.5987H10.5882C8.09994 40.5987 6.07203 42.6266 6.07203 45.1149V49.2174C6.07203 50.5649 7.16603 51.659 8.51354 51.659H11.1152C11.2419 52.3594 11.5621 52.9864 11.9957 53.5068H15.091C13.6768 53.4801 12.5428 52.3327 12.5428 50.9185C12.5428 49.4843 13.7101 48.3169 15.1444 48.3169C16.5786 48.3169 17.746 49.4843 17.746 50.9185C17.746 52.3327 16.6119 53.4868 15.1977 53.5068H18.273C18.7066 52.9798 19.0268 52.3527 19.1535 51.659H33.169C33.2957 52.3527 33.6159 52.9864 34.0495 53.5068H37.1248C35.7105 53.4801 34.5765 52.3327 34.5765 50.9185C34.5765 49.4843 35.7439 48.3169 37.1781 48.3169C38.6124 48.3169 39.7797 49.4843 39.7797 50.9185C39.7797 52.3327 38.6457 53.4868 37.2315 53.5068H40.3068C40.7404 52.9798 41.0606 52.3527 41.1873 51.659H45.7902C46.6707 51.659 47.4579 51.2053 47.9048 50.4449C48.3251 49.671 48.3251 48.7505 47.8915 47.9833ZM46.6174 49.7111C46.4372 50.0179 46.1437 50.1847 45.7902 50.1847H41.1873C40.8404 48.2835 39.1794 46.8426 37.1848 46.8426C35.1902 46.8426 33.5292 48.2835 33.1823 50.1847H19.1469C18.8 48.2835 17.1389 46.8426 15.1444 46.8426C13.1498 46.8359 11.4887 48.2768 11.1419 50.1713H8.54025C8.00658 50.1713 7.57965 49.7378 7.57965 49.2108V45.1082C7.57965 43.4405 8.94716 42.073 10.6149 42.073H13.1364C14.057 42.073 14.9642 41.7261 15.6847 41.1124C16.8921 40.0784 19.5471 38.324 23.8898 38.324C31.708 38.324 37.3582 43.3738 38.9125 44.9281C39.4996 45.5018 40.2267 45.8753 41.0072 46.0354L43.6155 46.5558C44.6161 46.7559 45.53 47.2962 46.1971 48.1101C46.3438 48.2902 46.4906 48.497 46.624 48.7238C46.7975 49.0373 46.7975 49.4042 46.6174 49.7111Z" fill="#2075BC"/>
<path d="M15.8782 18.2047H34.4564C34.7833 18.2047 35.0568 17.9979 35.1569 17.6911C35.2569 17.3842 35.1502 17.0507 34.8834 16.8639C32.4619 15.1228 28.5861 13.0482 23.8631 13.0482C20.1542 13.0482 17.9261 14.5024 16.9255 15.3696C16.1516 16.03 16.085 16.1034 15.7381 16.5037L15.3312 16.9706C15.131 17.1907 15.0843 17.5043 15.2044 17.7711C15.3245 18.0313 15.5913 18.2047 15.8782 18.2047ZM24.617 14.5558C27.4654 14.7025 29.9536 15.6431 31.9215 16.7171H24.617V14.5558ZM17.8927 16.4836C18.6732 15.8099 20.3543 14.7359 23.1227 14.5558V16.7171H17.6193C17.706 16.6504 17.7927 16.5704 17.8927 16.4836Z" fill="#2075BC"/>
<path d="M14.3839 23.7148C14.3839 24.1218 14.7174 24.4553 15.1377 24.4553C15.5579 24.4553 15.8915 24.1218 15.8915 23.7148C15.8915 23.3079 15.5579 22.961 15.1377 22.961C14.7174 22.961 14.3839 23.3012 14.3839 23.7148Z" fill="#2075BC"/>
<path d="M36.4177 23.7148C36.4177 24.1218 36.7512 24.4553 37.1715 24.4553C37.5917 24.4553 37.9253 24.1218 37.9253 23.7148C37.9253 23.3079 37.5917 22.961 37.1715 22.961C36.7512 22.961 36.4177 23.3012 36.4177 23.7148Z" fill="#2075BC"/>
<path d="M47.8915 20.7796C47.7114 20.4728 47.5246 20.1993 47.3178 19.9525C46.4372 18.8851 45.2232 18.1514 43.889 17.8979L41.2807 17.3709C40.7737 17.2708 40.3134 17.024 39.9332 16.6704C38.2788 15.0161 32.2551 9.63937 23.8631 9.63937C19.0468 9.63937 16.0583 11.6139 14.6907 12.7947C14.2371 13.1816 13.6834 13.395 13.1098 13.395H10.5882C8.09994 13.395 6.07203 15.423 6.07203 17.9112V22.0138C6.07203 23.3613 7.16603 24.4553 8.51354 24.4553H11.1152C11.2419 25.1557 11.5621 25.7828 11.9957 26.3031H15.091C13.6768 26.2764 12.5428 25.129 12.5428 23.7148C12.5428 22.2806 13.7101 21.1132 15.1444 21.1132C16.5786 21.1132 17.746 22.2806 17.746 23.7148C17.746 25.129 16.6119 26.2831 15.1977 26.3031H18.273C18.7066 25.7761 19.0268 25.1491 19.1535 24.4553H33.169C33.2957 25.1491 33.6159 25.7828 34.0495 26.3031H37.1248C35.7105 26.2764 34.5765 25.129 34.5765 23.7148C34.5765 22.2806 35.7439 21.1132 37.1781 21.1132C38.6124 21.1132 39.7797 22.2806 39.7797 23.7148C39.7797 25.129 38.6457 26.2831 37.2315 26.3031H40.3068C40.7404 25.7761 41.0606 25.1491 41.1873 24.4553H45.7902C46.6707 24.4553 47.4579 24.0017 47.9048 23.2412C48.3251 22.474 48.3251 21.5535 47.8915 20.7796ZM46.6174 22.5141C46.4372 22.8209 46.1437 22.9877 45.7902 22.9877H41.1873C40.8404 21.0865 39.1794 19.6456 37.1848 19.6456C35.1902 19.6456 33.5292 21.0865 33.1823 22.9877H19.1469C18.8 21.0865 17.1389 19.6456 15.1444 19.6456C13.1498 19.6389 11.4887 21.0798 11.1419 22.9744H8.54025C8.00658 22.9744 7.57965 22.5408 7.57965 22.0138V17.9112C7.57965 16.2435 8.94716 14.876 10.6149 14.876H13.1364C14.057 14.876 14.9642 14.5291 15.6847 13.9154C16.8921 12.8814 19.5471 11.1269 23.8898 11.1269C31.708 11.1269 37.3582 16.1768 38.9125 17.7311C39.4996 18.3048 40.2267 18.6784 41.0072 18.8385L43.6155 19.3588C44.6161 19.5589 45.53 20.0992 46.1971 20.9131C46.3438 21.0932 46.4906 21.3 46.624 21.5268C46.7975 21.8403 46.7975 22.2072 46.6174 22.5141Z" fill="#2075BC"/>
<path d="M54.4823 43.227C54.0754 43.227 53.7418 43.5606 53.7418 43.9808C53.7418 44.3944 54.0754 44.7213 54.4823 44.7213C54.8892 44.7213 55.2227 44.3877 55.2227 43.9808C55.2227 43.5739 54.8959 43.227 54.4823 43.227Z" fill="#2E4456"/>
<path d="M54.4823 17.5109C54.8912 17.5109 55.2227 17.1794 55.2227 16.7705C55.2227 16.3615 54.8912 16.03 54.4823 16.03C54.0733 16.03 53.7418 16.3615 53.7418 16.7705C53.7418 17.1794 54.0733 17.5109 54.4823 17.5109Z" fill="#2E4456"/>
<path d="M53.1815 24.075C53.1815 24.482 53.515 24.8155 53.9219 24.8155H55.056C55.4629 24.8155 55.7964 24.482 55.7964 24.075C55.7964 23.6681 55.4629 23.3346 55.056 23.3346H53.9219C53.5017 23.3346 53.1815 23.6681 53.1815 24.075Z" fill="#2E4456"/>
<path d="M55.056 26.3098H53.9219C53.515 26.3098 53.1815 26.6433 53.1815 27.0503C53.1815 27.4572 53.515 27.7907 53.9219 27.7907H55.056C55.4629 27.7907 55.7964 27.4572 55.7964 27.0503C55.7964 26.6433 55.4629 26.3098 55.056 26.3098Z" fill="#2E4456"/>
<path d="M55.056 50.5383H53.9219C53.515 50.5383 53.1815 50.8718 53.1815 51.2787C53.1815 51.6856 53.515 52.0192 53.9219 52.0192H55.056C55.4629 52.0192 55.7964 51.6856 55.7964 51.2787C55.7964 50.8718 55.4629 50.5383 55.056 50.5383Z" fill="#2E4456"/>
<path d="M55.056 53.5068H53.9219C53.515 53.5068 53.1815 53.8403 53.1815 54.2472C53.1815 54.6542 53.515 54.9877 53.9219 54.9877H55.056C55.4629 54.9877 55.7964 54.6542 55.7964 54.2472C55.7964 53.8403 55.4629 53.5068 55.056 53.5068Z" fill="#2E4456"/>
<path d="M55.9432 7.86492C56.3568 7.64478 56.657 7.35126 56.8438 7.00438C57.0239 6.65749 57.1106 6.28394 57.1106 5.89036C57.1106 5.49678 57.0239 5.11653 56.8438 4.77632C56.6636 4.42944 56.3568 4.13591 55.9432 3.91578C55.5363 3.69564 55.0159 3.58891 54.3889 3.58891H52.2809C52.0941 3.58891 51.9274 3.65561 51.8073 3.78903C51.6805 3.91578 51.6205 4.08256 51.6205 4.26267V9.90619C51.6205 10.093 51.6872 10.2531 51.8206 10.3798C51.9473 10.5066 52.1075 10.5666 52.2942 10.5666C52.481 10.5666 52.6411 10.5066 52.7679 10.3798C52.8946 10.2531 52.968 10.0863 52.968 9.90619V8.18513H54.3889C55.0159 8.1918 55.543 8.07839 55.9432 7.86492ZM52.968 4.88973H54.3155C54.8559 4.88973 55.2628 4.98979 55.4629 5.17658C55.6697 5.3767 55.7698 5.59017 55.7698 5.89036C55.7698 6.17721 55.6697 6.404 55.4629 6.60412C55.2561 6.80425 54.8692 6.89098 54.3155 6.89098H52.968V4.88973Z" fill="#2E4456"/>
<path d="M46.9909 7.75818V7.81154C46.9909 7.7982 46.9909 7.7782 46.9909 7.75818Z" fill="#010101"/>
</g>
</svg>
