<svg width="55" height="59" viewBox="0 0 55 59" fill="none" xmlns="http://www.w3.org/2000/svg">
<g id="Vector">
<path fill-rule="evenodd" clip-rule="evenodd" d="M9.35314 41.9243L5.72614 31.6762L2.49951 32.8293C2.21099 32.9298 2.06379 33.2551 2.16389 33.5389L5.41995 42.7345C5.52005 43.0243 5.8439 43.1721 6.12652 43.0716L9.35314 41.9243ZM7.17459 30.866L7.29823 31.2149L8.94689 30.6236L17.2254 24.9761L16.772 24.0891C16.5954 23.7757 16.6425 23.3736 16.9075 23.1074L19.2862 20.7184C19.5276 20.4759 19.9104 20.405 20.2342 20.5706L22.3127 21.635C22.9545 21.2861 23.6198 21.0141 24.3205 20.8012L25.027 18.625C25.1154 18.2702 25.4392 18.0041 25.8219 18.0041H29.184C29.5255 18.0041 29.8493 18.2229 29.9612 18.5718L30.6795 20.7953C31.3861 21.0082 32.0455 21.2861 32.6873 21.6291L34.7364 20.5824C35.0484 20.4049 35.4488 20.4523 35.7138 20.7184L38.0925 23.1074C38.3339 23.3499 38.4046 23.7343 38.2456 24.0595L37.7805 24.982L46.059 30.6295L47.7076 31.2208C47.8784 30.7359 47.9903 30.3575 48.5261 30.0973C48.8382 29.9494 49.2032 29.9198 49.5565 30.044L53.0422 31.2918C54.1786 31.6998 54.7792 32.9535 54.3729 34.0948L51.1168 43.2904C50.7105 44.4317 49.4623 45.0349 48.3259 44.6268L44.8343 43.3791C44.1454 43.1307 43.7745 42.3797 43.9982 41.6878C39.6293 41.9598 38.0925 38.1633 37.9748 38.1219L38.228 38.6246C38.4046 38.938 38.3575 39.3401 38.0925 39.6062L35.7138 41.9953C35.4724 42.2377 35.0896 42.3087 34.7658 42.1431L33.653 41.5754L31.6039 49.4641V51.2263C32.1103 51.2263 32.5107 51.2027 32.9287 51.6226C33.1701 51.865 33.3232 52.2198 33.3232 52.5805V56.3001C33.3232 57.5124 32.3399 58.5 31.1329 58.5H21.4118C20.2048 58.5 19.2215 57.5124 19.2215 56.3001V52.5687C19.2215 51.8413 19.8103 51.2323 20.5345 51.2086C20.0988 50.1856 19.9339 49.1684 20.0399 48.1631C20.1753 46.8385 20.7818 45.5552 21.8652 44.3193V41.2916L20.2636 42.1136C19.9516 42.291 19.5512 42.2437 19.2862 41.9776L16.9075 39.5885C16.6661 39.346 16.5954 38.9617 16.7544 38.6364L17.0252 38.1042C16.9016 38.1456 15.3707 41.9421 11.0018 41.6701C11.2255 42.3679 10.8546 43.1189 10.1657 43.3613L6.6741 44.6091C5.53772 45.0171 4.28358 44.414 3.88319 43.2726L0.627124 34.0771C0.220851 32.9357 0.821416 31.6762 1.9578 31.274L5.44351 30.0263C6.15007 29.7838 6.9214 30.1623 7.17459 30.866ZM7.84581 32.7583L9.58278 32.1374C9.64755 32.1138 9.71232 32.0842 9.7712 32.0428L17.5139 26.7561L17.4138 26.9749L16.984 28.1576L14.7642 28.8791C14.3992 28.9973 14.1754 29.3462 14.199 29.7129V32.9771C14.1754 33.3438 14.3992 33.6927 14.7642 33.811C15.0998 33.9174 15.3589 34.0534 15.6886 33.9351L19.928 32.4213C20.2813 32.2971 20.6581 32.3267 20.9761 32.4745C22.0771 33.0008 21.9712 34.5974 20.8465 34.9996L16.1715 36.6672C15.9831 36.7322 15.8182 36.8683 15.7181 37.0634C14.5405 39.3579 12.8624 40.375 10.3835 39.9492L7.84581 32.7583ZM18.456 28.95C18.403 29.2339 18.2028 29.4823 17.9025 29.5828L15.8358 30.2569V32.1492L19.3922 30.8778C19.6454 30.7891 19.8986 30.7359 20.1518 30.7122C20.4756 26.9039 23.6551 23.9413 27.4941 23.9413C31.339 23.9413 34.5185 26.9039 34.8365 30.7122L35.1839 30.7655L36.2437 31.1026L39.1524 32.1434V30.251L37.0857 29.5769C36.7913 29.4822 36.5852 29.2339 36.5322 28.9441C36.3732 28.2227 35.9198 27.2115 35.543 26.5669C35.3958 26.3185 35.3958 26.0169 35.5195 25.7804L36.5087 23.8348L34.9719 22.2914L33.0347 23.2848C32.7639 23.4209 32.4518 23.3972 32.2163 23.2376C31.5568 22.8295 30.5794 22.4392 29.8317 22.25C29.549 22.179 29.343 21.9661 29.2605 21.7119L28.5893 19.6362H26.4166L25.7454 21.7119C25.6512 22.0075 25.4039 22.2145 25.1154 22.2677C24.397 22.4274 23.3902 22.8827 22.7484 23.2612C22.5011 23.409 22.2008 23.409 21.9653 23.2848L20.0281 22.2914L18.4913 23.8348L19.4805 25.7804C19.6866 26.1884 19.5158 26.4486 19.3451 26.7679C18.9565 27.448 18.6503 28.2049 18.456 28.95ZM21.771 31.0434C23.2194 31.8003 23.7964 33.5567 23.084 35.0292C23.5668 35.6087 24.1615 36.0936 24.8327 36.4484C24.9917 36.5312 25.1566 36.6081 25.3273 36.679C25.6276 36.7263 25.9102 36.821 26.1752 36.9511C26.5991 37.0516 27.0407 37.1048 27.4941 37.1048C29.2252 37.1048 30.8208 36.3361 31.9042 35.0292C31.1977 33.5567 31.7688 31.7944 33.2173 31.0434C33.0583 27.9979 30.55 25.5911 27.4882 25.5911C24.4382 25.5911 21.9241 27.9979 21.771 31.0434ZM21.9888 36.2651C21.8063 36.3833 21.612 36.478 21.4 36.5548L19.2744 37.3177L18.4913 38.8611L20.0281 40.4045L21.877 39.4584C21.9358 38.5714 22.3833 37.7789 23.0663 37.2645C22.6718 36.9629 22.3127 36.6317 21.9888 36.2651ZM44.5988 39.961L47.1483 32.7583L45.4113 32.1374C45.3466 32.1138 45.2818 32.0842 45.2229 32.0428L37.4802 26.7561C37.6863 27.2173 37.857 27.6609 38.0042 28.1576L40.171 28.8672C40.5243 28.9559 40.7892 29.2812 40.7892 29.6656V33.0422C40.7892 33.3852 40.5714 33.7104 40.224 33.8228C39.8884 33.9292 39.6293 34.0652 39.2996 33.947C38.7284 33.7459 35.1721 32.4449 34.7481 32.3562C34.4537 32.3267 34.1534 32.3976 33.9003 32.5455C32.9052 33.1368 33.07 34.627 34.1417 35.0055L38.8167 36.6731C39.0052 36.7382 39.17 36.8742 39.2701 37.0693C40.4419 39.3638 42.1258 40.3868 44.5988 39.961ZM49.2621 31.6762L45.6351 41.9243L48.8558 43.0716C49.1443 43.1721 49.4623 43.0243 49.5624 42.7345L52.8184 33.5389C52.9185 33.2492 52.7713 32.9298 52.4828 32.8293L49.2621 31.6762ZM35.7255 37.3118L33.6 36.5548C33.388 36.478 33.1878 36.3833 33.0053 36.2651C31.6628 37.7789 29.761 38.6896 27.7061 38.7488C27.712 38.7961 27.7178 38.8375 27.7178 38.8848V43.0597H28.5834L29.2546 40.9841C29.3783 40.6115 29.6374 40.4992 29.9376 40.4164L30.5912 40.2094L30.7031 40.168L30.7207 40.1621L30.9033 40.0912L30.9563 40.0675L31.6864 39.7363L31.8159 39.6713L32.2457 39.4288C32.493 39.281 32.7933 39.281 33.0288 39.4052L34.966 40.3986L36.5028 38.8552L35.7255 37.3118ZM22.3539 51.2145H29.9671V49.3577C29.9671 49.2926 29.973 49.2216 29.9906 49.1507L32.0043 41.4039L30.8562 41.8475L30.7914 41.8711L30.7266 41.8889L30.6795 41.9066L29.973 44.0828C29.8846 44.4376 29.5608 44.7037 29.1781 44.7037H26.9053C26.4519 44.7037 26.0869 44.3371 26.0869 43.8817V39.0504C26.0574 38.9203 25.7277 38.5595 25.5923 38.5004C25.3744 38.4413 25.1566 38.3703 24.9446 38.2934C24.921 38.2934 24.8916 38.2934 24.8681 38.2934C24.1203 38.2934 23.5079 38.9084 23.5079 39.6594V44.6387C23.5079 44.8397 23.4373 45.0408 23.2842 45.2004C21.5237 47.0809 21.1292 49.0206 22.3539 51.2145ZM20.8642 52.8585V56.2942C20.8642 56.6017 21.1115 56.8501 21.4177 56.8501H31.1388C31.445 56.8501 31.6923 56.6017 31.6923 56.2942V52.8585H20.8642Z" fill="#303B4D"/>
<path d="M27.4941 3.30893L28.5657 6.63826L28.8837 7.63173H29.92L33.3998 7.62581L30.5794 9.67779L29.7375 10.2869L31.1447 14.5979L27.4882 11.925L26.658 12.534L23.8435 14.592L25.2508 10.281L24.4088 9.6719L21.5884 7.61989L25.0682 7.62581H26.1045L26.4225 6.63234L27.4941 3.30893ZM27.4941 0.5C27.1644 0.5 26.8405 0.68921 26.7169 1.06768L25.0682 6.19474L19.7573 6.1829C19.7455 6.1829 19.7337 6.1829 19.716 6.1829C18.8741 6.1829 18.5914 7.21186 19.2156 7.66721L23.5609 10.825L21.8946 15.9462C21.7121 16.5198 22.1655 17.0224 22.6718 17.0224C22.8308 17.0224 22.9957 16.9751 23.1429 16.8628L27.4823 13.6872L31.7688 16.8273C31.9396 16.9633 32.128 17.0224 32.3046 17.0224C32.8228 17.0224 33.2585 16.502 33.0759 15.9462L31.4096 10.825L35.755 7.66721C36.3909 7.20595 36.0671 6.18882 35.2781 6.18882L29.9082 6.20066L28.2596 1.07952C28.1536 0.695135 27.8239 0.5 27.4941 0.5Z" fill="#2075BC"/>
<path d="M47.7665 9.33483H41.2249C40.7716 9.33483 40.4065 9.70148 40.4065 10.1568C40.4065 10.6122 40.7716 10.9788 41.2249 10.9788H47.7665C48.2199 10.9788 48.585 10.6122 48.585 10.1568C48.585 9.70148 48.214 9.33483 47.7665 9.33483Z" fill="#2075BC"/>
<path d="M45.3289 1.42843C45.217 1.42843 45.0993 1.45209 44.9933 1.50531L39.2525 4.14864C38.8403 4.33788 38.6637 4.8228 38.8521 5.23083C38.9875 5.53242 39.2878 5.70983 39.594 5.70983C39.7059 5.70983 39.8236 5.68617 39.9296 5.63295L45.6704 2.98958C46.0826 2.80034 46.2592 2.31546 46.0708 1.90743C45.9354 1.60583 45.641 1.42843 45.3289 1.42843Z" fill="#2075BC"/>
<path d="M40.0532 14.1189C39.7412 14.1189 39.4468 14.2963 39.3113 14.5979C39.1229 15.0118 39.3055 15.4967 39.7117 15.68L45.8529 18.5067C45.9648 18.56 46.0767 18.5836 46.1886 18.5836C46.5006 18.5836 46.795 18.4062 46.9304 18.1046C47.1189 17.6906 46.9363 17.2057 46.5301 17.0224L40.3889 14.1957C40.2829 14.1425 40.171 14.1189 40.0532 14.1189Z" fill="#2075BC"/>
<path d="M13.4748 9.33483H6.93318C6.47981 9.33483 6.11474 9.70148 6.11474 10.1568C6.11474 10.6122 6.47981 10.9788 6.93318 10.9788H13.4748C13.9281 10.9788 14.2932 10.6122 14.2932 10.1568C14.2932 9.70148 13.9281 9.33483 13.4748 9.33483Z" fill="#2075BC"/>
<path d="M9.37083 1.42843C9.05877 1.42843 8.76436 1.60583 8.62893 1.90743C8.44052 2.32137 8.62304 2.80626 9.02932 2.98958L14.7701 5.63295C14.882 5.68617 14.9939 5.70983 15.1057 5.70983C15.4178 5.70983 15.7122 5.53242 15.8476 5.23083C16.0361 4.81688 15.8535 4.33196 15.4472 4.14864L9.70643 1.50531C9.60045 1.45209 9.48859 1.42843 9.37083 1.42843Z" fill="#2075BC"/>
<path d="M14.6465 14.1189C14.5346 14.1189 14.4168 14.1425 14.3109 14.1957L8.16967 17.0224C7.75751 17.2117 7.58088 17.6965 7.76929 18.1046C7.90472 18.4062 8.19911 18.5836 8.51117 18.5836C8.62304 18.5836 8.74081 18.56 8.84679 18.5067L14.988 15.68C15.4001 15.4908 15.5768 15.0059 15.3884 14.5979C15.2529 14.2963 14.9586 14.1189 14.6465 14.1189Z" fill="#2075BC"/>
</g>
</svg>
