<svg width="57" height="57" viewBox="0 0 57 57" fill="none" xmlns="http://www.w3.org/2000/svg">
<g id="Vector">
<path fill-rule="evenodd" clip-rule="evenodd" d="M34.5877 4.72003C36.7469 5.28972 38.8174 6.16346 40.7395 7.31601L44.7086 5.52117C44.8751 5.44492 45.0604 5.42191 45.24 5.45518C45.4196 5.48844 45.5851 5.57641 45.7146 5.70748L50.8969 10.9864C51.0249 11.1188 51.1107 11.2873 51.1434 11.4701C51.176 11.6528 51.1539 11.8414 51.0799 12.0111L49.3239 16.0542C50.4579 18.016 51.3178 20.1292 51.8786 22.333L55.9269 23.9229C56.096 23.9904 56.2412 24.1083 56.3434 24.2612C56.4457 24.4141 56.5002 24.5949 56.5 24.7799V32.2325C56.5002 32.4175 56.4457 32.5983 56.3434 32.7512C56.2412 32.9041 56.096 33.0221 55.9269 33.0896L51.8786 34.6795C51.3139 36.878 50.4543 38.9867 49.3239 40.9459L51.0799 44.9951C51.1542 45.1638 51.1765 45.3514 51.1439 45.5333C51.1112 45.7152 51.0251 45.8827 50.8969 46.0136L45.7146 51.2925C45.5849 51.4232 45.4198 51.5113 45.2405 51.5456C45.0612 51.5799 44.876 51.5588 44.7086 51.4851L40.7395 49.7027C38.8163 50.8588 36.7435 51.7347 34.5816 52.3049L33.0269 56.4286C32.9599 56.5957 32.8462 56.7389 32.6998 56.8405C32.5534 56.9421 32.381 56.9976 32.2039 57H24.8876C24.7044 57.0002 24.5254 56.9439 24.3742 56.8386C24.223 56.7333 24.1065 56.5839 24.0401 56.41L22.4488 52.3049C20.285 51.7348 18.2102 50.8589 16.2849 49.7027L12.3158 51.4975C12.1484 51.5713 11.9631 51.5924 11.7839 51.558C11.6046 51.5237 11.4395 51.4356 11.3098 51.305L6.12743 46.0261C5.99876 45.8941 5.9124 45.7256 5.87975 45.5426C5.84709 45.3597 5.86967 45.1709 5.94452 45.0013L7.70654 40.9645C6.57364 39.0044 5.71387 36.8933 5.15194 34.6919L1.10969 33.102C0.933741 33.0406 0.780725 32.9253 0.671587 32.7719C0.562448 32.6184 0.502519 32.4344 0.5 32.245V24.7924C0.502519 24.6029 0.562448 24.4189 0.671587 24.2655C0.780725 24.1121 0.933741 23.9967 1.10969 23.9353L5.16412 22.3454C5.72492 20.1417 6.58474 18.0284 7.71872 16.0666L5.98721 12.0111C5.9132 11.8414 5.89107 11.6528 5.92369 11.4701C5.95632 11.2873 6.04218 11.1188 6.17012 10.9864L11.3525 5.70748C11.482 5.57641 11.6475 5.48844 11.8271 5.45518C12.0067 5.42191 12.192 5.44492 12.3585 5.52117L16.3275 7.31601C18.2515 6.16293 20.3242 5.28917 22.4854 4.72003L24.0462 0.590053C24.1111 0.415134 24.2272 0.264734 24.3788 0.159214C24.5304 0.0536946 24.7101 -0.00186266 24.8937 4.76613e-05H32.21C32.3925 -0.00059013 32.5709 0.0555603 32.7212 0.160996C32.8716 0.266432 32.9868 0.416133 33.0513 0.590053L34.5877 4.72003ZM33.0757 5.82548L31.5942 1.83835H25.4973L23.9852 5.82548C23.9363 5.96305 23.8553 6.08643 23.749 6.1849C23.6428 6.28337 23.5146 6.35399 23.3756 6.39066C21.0791 6.94608 18.8848 7.87284 16.8763 9.13568C16.7513 9.21459 16.6092 9.26096 16.4624 9.27071C16.3157 9.28045 16.1689 9.2533 16.0349 9.1916L12.1999 7.45884L7.90163 11.8435L9.60266 15.7437C9.66169 15.8805 9.68753 16.0298 9.67798 16.179C9.66843 16.3282 9.62377 16.4728 9.54779 16.6007C8.30668 18.6519 7.39297 20.8906 6.84077 23.2335C6.80398 23.3738 6.73507 23.5033 6.63969 23.6112C6.54431 23.7192 6.42518 23.8026 6.29205 23.8546L2.32907 25.4134V31.6239L6.23718 33.1579C6.37083 33.209 6.49046 33.2921 6.58596 33.4002C6.68146 33.5083 6.75003 33.6382 6.7859 33.7789C7.33694 36.1203 8.25074 38.3572 9.49292 40.4056C9.5689 40.5335 9.61356 40.6781 9.62311 40.8272C9.63266 40.9764 9.60682 41.1257 9.54779 41.2626L7.85896 45.2001L12.1634 49.5847L15.9922 47.8519C16.1259 47.7934 16.2713 47.7679 16.4164 47.7776C16.5616 47.7873 16.7025 47.8319 16.8275 47.9078C18.8414 49.1702 21.0392 50.0988 23.339 50.6591C23.4774 50.6972 23.6049 50.7683 23.7109 50.8666C23.8169 50.9649 23.8984 51.0875 23.9487 51.2242L25.4485 55.2052H31.5454L33.0513 51.2242C33.1002 51.0867 33.1813 50.9633 33.2875 50.8649C33.3938 50.7664 33.522 50.6957 33.661 50.6591C35.9566 50.1009 38.1505 49.1743 40.1603 47.914C40.2854 47.8356 40.4271 47.7891 40.5736 47.7783C40.72 47.7674 40.8668 47.7927 41.0017 47.8519L44.8305 49.5847L49.1349 45.2001L47.44 41.2937C47.381 41.1579 47.3552 41.0095 47.3647 40.8613C47.3743 40.7132 47.4189 40.5696 47.4949 40.4428C48.7336 38.3941 49.6434 36.1571 50.1897 33.8162C50.2276 33.6754 50.2976 33.5458 50.394 33.4379C50.4904 33.33 50.6105 33.2468 50.7445 33.1951L54.6526 31.6612V25.4507L50.7445 23.9167C50.6115 23.8634 50.4923 23.7797 50.3961 23.672C50.2999 23.5643 50.2293 23.4355 50.1897 23.2956C49.6663 20.9435 48.7728 18.6931 47.5437 16.6318C47.4677 16.5039 47.423 16.3592 47.4135 16.2101C47.4039 16.0609 47.4298 15.9116 47.4888 15.7747L49.1837 11.8745L44.8793 7.48993L41.0505 9.17916C40.9165 9.24087 40.7696 9.26806 40.6229 9.25831C40.4762 9.24856 40.3341 9.20216 40.2091 9.12325C38.2 7.86145 36.0059 6.93477 33.7098 6.37822C33.5707 6.34156 33.4426 6.27094 33.3363 6.17247C33.2301 6.074 33.149 5.95065 33.1001 5.81308L33.0757 5.82548ZM28.5457 7.50232C32.6259 7.50109 36.6148 8.7326 40.0077 11.041C43.4007 13.3494 46.0453 16.6311 47.607 20.4708C49.1687 24.3105 49.5773 28.5358 48.7811 32.6121C47.985 36.6884 46.0198 40.4326 43.1343 43.371C40.2488 46.3095 36.5725 48.3101 32.5705 49.1199C28.5685 49.9297 24.4206 49.5122 20.6516 47.9203C16.8826 46.3284 13.6618 43.6335 11.3966 40.1767C9.1314 36.7198 7.9236 32.6562 7.92602 28.5C7.92763 22.9305 10.1008 17.5897 13.9675 13.652C17.8343 9.71437 23.0781 7.50232 28.5457 7.50232ZM28.5457 9.36547C24.8227 9.36547 21.1834 10.4902 18.088 12.5974C14.9926 14.7045 12.5803 17.6995 11.1561 21.2034C9.73195 24.7073 9.35993 28.5628 10.0871 32.2821C10.8143 36.0014 12.6081 39.4174 15.2415 42.0982C17.8749 44.7789 21.2296 46.6039 24.8814 47.3422C28.5331 48.0806 32.3178 47.6991 35.7567 46.2461C39.1956 44.7932 42.1342 42.334 44.2008 39.1795C46.2675 36.0251 47.3693 32.3172 47.3668 28.5249C47.3709 26.0055 46.8869 23.51 45.9426 21.1814C44.9983 18.8528 43.6123 16.7369 41.8639 14.9548C40.1156 13.1728 38.0393 11.7596 35.7539 10.7962C33.4686 9.83281 31.0191 9.33819 28.5457 9.34064V9.36547Z" fill="#303B4D"/>
<path d="M21.6867 25.904H20.6685C20.5431 25.918 20.4272 25.9787 20.343 26.0744C20.2588 26.1701 20.2122 26.2941 20.2122 26.4226C20.2122 26.5511 20.2588 26.6751 20.343 26.7708C20.4272 26.8665 20.5431 26.9272 20.6685 26.9412H21.6867C21.8121 26.9272 21.9281 26.8665 22.0123 26.7708C22.0965 26.6751 22.1431 26.5511 22.1431 26.4226C22.1431 26.2941 22.0965 26.1701 22.0123 26.0744C21.9281 25.9787 21.8121 25.918 21.6867 25.904Z" fill="#2075BC"/>
<path d="M21.6867 27.9721H20.6685C20.5343 27.9721 20.4056 28.0265 20.3107 28.1231C20.2158 28.2198 20.1625 28.3509 20.1625 28.4876C20.1625 28.6243 20.2158 28.7554 20.3107 28.8521C20.4056 28.9488 20.5343 29.0031 20.6685 29.0031H21.6867C21.8209 29.0031 21.9496 28.9488 22.0445 28.8521C22.1394 28.7554 22.1928 28.6243 22.1928 28.4876C22.1928 28.3509 22.1394 28.2198 22.0445 28.1231C21.9496 28.0265 21.8209 27.9721 21.6867 27.9721Z" fill="#2075BC"/>
<path d="M21.6867 30.0403H20.6685C20.6021 30.0403 20.5363 30.0536 20.4749 30.0795C20.4135 30.1054 20.3577 30.1434 20.3107 30.1912C20.2637 30.2391 20.2264 30.2959 20.201 30.3584C20.1756 30.421 20.1625 30.488 20.1625 30.5557C20.1625 30.6234 20.1756 30.6904 20.201 30.753C20.2264 30.8155 20.2637 30.8723 20.3107 30.9202C20.3577 30.9681 20.4135 31.006 20.4749 31.0319C20.5363 31.0579 20.6021 31.0712 20.6685 31.0712H21.6867C21.7532 31.0712 21.819 31.0579 21.8804 31.0319C21.9418 31.006 21.9976 30.9681 22.0445 30.9202C22.0915 30.8723 22.1288 30.8155 22.1542 30.753C22.1797 30.6904 22.1928 30.6234 22.1928 30.5557C22.1928 30.488 22.1797 30.421 22.1542 30.3584C22.1288 30.2959 22.0915 30.2391 22.0445 30.1912C21.9976 30.1434 21.9418 30.1054 21.8804 30.0795C21.819 30.0536 21.7532 30.0403 21.6867 30.0403Z" fill="#2075BC"/>
<path d="M21.6867 32.1021H20.6685C20.5431 32.1161 20.4272 32.1768 20.343 32.2725C20.2588 32.3682 20.2122 32.4922 20.2122 32.6207C20.2122 32.7492 20.2588 32.8732 20.343 32.9689C20.4272 33.0646 20.5431 33.1253 20.6685 33.1393H21.6867C21.8121 33.1253 21.9281 33.0646 22.0123 32.9689C22.0965 32.8732 22.1431 32.7492 22.1431 32.6207C22.1431 32.4922 22.0965 32.3682 22.0123 32.2725C21.9281 32.1768 21.8121 32.1161 21.6867 32.1021Z" fill="#2075BC"/>
<path d="M21.6867 34.1702H20.6685C20.5343 34.1702 20.4056 34.2245 20.3107 34.3212C20.2158 34.4179 20.1625 34.549 20.1625 34.6857C20.1625 34.8224 20.2158 34.9535 20.3107 35.0502C20.4056 35.1469 20.5343 35.2012 20.6685 35.2012H21.6867C21.8209 35.2012 21.9496 35.1469 22.0445 35.0502C22.1394 34.9535 22.1928 34.8224 22.1928 34.6857C22.1928 34.549 22.1394 34.4179 22.0445 34.3212C21.9496 34.2245 21.8209 34.1702 21.6867 34.1702Z" fill="#2075BC"/>
<path d="M29.7956 15.0605C29.6948 15.0613 29.5965 15.0924 29.513 15.1498C29.4295 15.2073 29.3645 15.2885 29.3261 15.3835L27.3934 20.296C27.3503 20.4075 27.2884 20.5105 27.2105 20.6003L24.0645 24.2086C23.9424 23.9443 23.7494 23.7206 23.5077 23.5634C23.266 23.4063 22.9855 23.322 22.6988 23.3205H19.6504C19.2477 23.3238 18.8625 23.4886 18.5783 23.7792C18.2941 24.0699 18.1338 24.4629 18.1322 24.8731V31.5867C18.1322 31.7234 18.1855 31.8545 18.2804 31.9511C18.3753 32.0478 18.5041 32.1021 18.6383 32.1021C18.7725 32.1021 18.9012 32.0478 18.9961 31.9511C19.091 31.8545 19.1443 31.7234 19.1443 31.5867V24.8731C19.1443 24.7364 19.1976 24.6053 19.2925 24.5086C19.3874 24.4119 19.5161 24.3576 19.6504 24.3576H22.6988C22.833 24.3576 22.9617 24.4119 23.0566 24.5086C23.1515 24.6053 23.2048 24.7364 23.2048 24.8731V36.2383C23.2048 36.375 23.1515 36.5061 23.0566 36.6028C22.9617 36.6995 22.833 36.7538 22.6988 36.7538H19.6504C19.5161 36.7538 19.3874 36.6995 19.2925 36.6028C19.1976 36.5061 19.1443 36.375 19.1443 36.2383V35.7166C19.1443 35.5799 19.091 35.4488 18.9961 35.3522C18.9012 35.2555 18.7725 35.2012 18.6383 35.2012C18.5041 35.2012 18.3753 35.2555 18.2804 35.3522C18.1855 35.4488 18.1322 35.5799 18.1322 35.7166V36.2383C18.1338 36.6479 18.2943 37.0403 18.5786 37.33C18.863 37.6196 19.2482 37.7831 19.6504 37.7847H22.6988C23.0643 37.7852 23.4175 37.6509 23.6933 37.4066C23.969 37.1622 24.1485 36.8244 24.1986 36.4557L27.5946 37.7537C27.6532 37.7631 27.7128 37.7631 27.7714 37.7537H36.6424C37.0902 37.7539 37.5282 37.6198 37.9017 37.368C38.2751 37.1163 38.5676 36.7581 38.7425 36.3382C38.9174 35.9182 38.967 35.4551 38.8852 35.0066C38.8034 34.5581 38.5938 34.1441 38.2825 33.8162C38.6301 33.6154 38.9196 33.3248 39.1219 32.9738C39.3242 32.6227 39.4321 32.2235 39.4348 31.8164C39.4362 31.2215 39.2187 30.6475 38.8251 30.2079C39.1244 30.0311 39.3801 29.7871 39.5729 29.4944C39.7656 29.2017 39.8902 28.8681 39.9372 28.5189C39.9843 28.1698 39.9525 27.8143 39.8443 27.4795C39.7361 27.1448 39.5543 26.8396 39.3128 26.5872C39.7581 26.3385 40.1088 25.945 40.3091 25.4697C40.5094 24.9943 40.5477 24.4643 40.4179 23.9642C40.2882 23.4641 39.9978 23.0226 39.5931 22.7101C39.1884 22.3976 38.6927 22.2321 38.1849 22.2399H32.6063C32.5453 22.2399 32.4904 22.2399 32.4294 22.2399L32.9294 18.6502C32.9921 18.1957 32.9585 17.7328 32.8308 17.2927C32.7031 16.8526 32.4842 16.4455 32.1889 16.0989C31.8937 15.7522 31.5289 15.4741 31.1192 15.2832C30.7095 15.0923 30.2644 14.993 29.8139 14.9922L29.7956 15.0605ZM27.8629 36.7538L24.2047 35.3626V25.5873L27.9543 21.2896C28.1127 21.1073 28.2367 20.8967 28.3201 20.6686L30.1065 16.1101C30.384 16.1532 30.6503 16.2518 30.8902 16.4002C31.13 16.5486 31.3387 16.7439 31.5042 16.9748C31.6697 17.2057 31.7887 17.4677 31.8543 17.7456C31.92 18.0235 31.931 18.312 31.8868 18.5943L31.3137 22.6994C31.0627 22.8665 30.8467 23.0826 30.6782 23.3352C30.5097 23.5879 30.3921 23.8721 30.3321 24.1713C30.1405 24.6698 29.8417 25.1182 29.4577 25.4836C29.0736 25.849 28.6141 26.1221 28.1128 26.2829C28.049 26.3033 27.9897 26.3365 27.9385 26.3804C27.8873 26.4244 27.8452 26.4782 27.8145 26.5389C27.7839 26.5995 27.7654 26.6658 27.7601 26.7338C27.7548 26.8018 27.7628 26.8702 27.7836 26.935C27.8168 27.0388 27.8811 27.1294 27.9675 27.1941C28.0539 27.2587 28.1581 27.294 28.2653 27.2952C28.318 27.3007 28.3711 27.3007 28.4238 27.2952C29.2788 27.0139 30.0336 26.4826 30.5943 25.7674C30.7402 26.0289 30.9325 26.2605 31.1613 26.4506C30.8932 26.6646 30.6764 26.938 30.5275 27.2501C30.3785 27.5621 30.3013 27.9046 30.3016 28.2516C30.3017 28.5984 30.3771 28.9409 30.5226 29.2545C30.6681 29.5681 30.88 29.8449 31.143 30.0651C30.8798 30.2837 30.6677 30.5594 30.5222 30.872C30.3766 31.1846 30.3013 31.5263 30.3016 31.8723C30.3016 32.2208 30.3795 32.5647 30.5295 32.8778C30.6795 33.191 30.8977 33.4652 31.1674 33.6796C30.8977 33.894 30.6795 34.1681 30.5295 34.4813C30.3795 34.7945 30.3016 35.1384 30.3016 35.4868C30.3017 35.9466 30.4353 36.3961 30.6857 36.7786L27.8629 36.7538ZM32.588 25.904C32.2516 25.904 31.9291 25.768 31.6912 25.5257C31.4534 25.2834 31.3198 24.9548 31.3198 24.6122C31.3198 24.2696 31.4534 23.9411 31.6912 23.6988C31.9291 23.4566 32.2516 23.3205 32.588 23.3205H38.1666C38.503 23.3205 38.8255 23.4566 39.0633 23.6988C39.3012 23.9411 39.4348 24.2696 39.4348 24.6122C39.4348 24.9548 39.3012 25.2834 39.0633 25.5257C38.8255 25.768 38.503 25.904 38.1666 25.904H32.588ZM32.588 29.5186C32.4144 29.5308 32.2403 29.5066 32.0764 29.4474C31.9124 29.3882 31.7622 29.2953 31.635 29.1744C31.5078 29.0535 31.4064 28.9073 31.3371 28.7448C31.2677 28.5823 31.2319 28.407 31.2319 28.2299C31.2319 28.0527 31.2677 27.8774 31.3371 27.7149C31.4064 27.5524 31.5078 27.4062 31.635 27.2853C31.7622 27.1645 31.9124 27.0715 32.0764 27.0123C32.2403 26.9531 32.4144 26.9289 32.588 26.9412H37.6545C37.828 26.9289 38.0022 26.9531 38.1661 27.0123C38.33 27.0715 38.4803 27.1645 38.6075 27.2853C38.7346 27.4062 38.8361 27.5524 38.9054 27.7149C38.9747 27.8774 39.0105 28.0527 39.0105 28.2299C39.0105 28.407 38.9747 28.5823 38.9054 28.7448C38.8361 28.9073 38.7346 29.0535 38.6075 29.1744C38.4803 29.2953 38.33 29.3882 38.1661 29.4474C38.0022 29.5066 37.828 29.5308 37.6545 29.5186H37.4045C37.2758 29.5198 37.1524 29.5703 37.0586 29.6601C36.9648 29.7498 36.9077 29.8723 36.8985 30.003C36.888 30.1333 36.9271 30.2627 37.0077 30.3644C37.0882 30.4661 37.2041 30.5324 37.3314 30.5495C37.6453 30.6036 37.9282 30.7749 38.1248 31.0299C38.3215 31.285 38.4178 31.6055 38.3949 31.929C38.3721 32.2525 38.2317 32.5557 38.0012 32.7795C37.7708 33.0033 37.4667 33.1315 37.1484 33.1393H32.588C32.2516 33.1393 31.9291 33.0032 31.6912 32.7609C31.4534 32.5187 31.3198 32.1901 31.3198 31.8475C31.3198 31.5049 31.4534 31.1763 31.6912 30.9341C31.9291 30.6918 32.2516 30.5557 32.588 30.5557H35.3742C35.4997 30.5417 35.6156 30.481 35.6998 30.3853C35.784 30.2896 35.8306 30.1657 35.8306 30.0371C35.8306 29.9086 35.784 29.7846 35.6998 29.6889C35.6156 29.5932 35.4997 29.5326 35.3742 29.5186H32.588ZM32.588 36.7538C32.2516 36.7538 31.9291 36.6177 31.6912 36.3754C31.4534 36.1332 31.3198 35.8046 31.3198 35.462C31.3198 35.1194 31.4534 34.7908 31.6912 34.5486C31.9291 34.3063 32.2516 34.1702 32.588 34.1702H36.6424C36.9787 34.1702 37.3013 34.3063 37.5391 34.5486C37.7769 34.7908 37.9106 35.1194 37.9106 35.462C37.9106 35.8046 37.7769 36.1332 37.5391 36.3754C37.3013 36.6177 36.9787 36.7538 36.6424 36.7538H32.588Z" fill="#2075BC"/>
<path d="M18.6444 33.1393C18.5443 33.1393 18.4464 33.1695 18.3632 33.2262C18.28 33.2828 18.2151 33.3633 18.1768 33.4575C18.1385 33.5517 18.1285 33.6553 18.1481 33.7553C18.1676 33.8553 18.2158 33.9471 18.2865 34.0192C18.3573 34.0913 18.4475 34.1404 18.5456 34.1603C18.6438 34.1802 18.7456 34.17 18.838 34.131C18.9305 34.092 19.0095 34.0259 19.0651 33.9411C19.1207 33.8563 19.1504 33.7567 19.1504 33.6547C19.1504 33.518 19.0971 33.3869 19.0022 33.2903C18.9073 33.1936 18.7786 33.1393 18.6444 33.1393Z" fill="#2075BC"/>
</g>
</svg>
