<svg width="56" height="55" viewBox="0 0 56 55" fill="none" xmlns="http://www.w3.org/2000/svg">
<g id="Vector">
<path d="M27.7763 54.9656C27.4555 54.9605 27.1916 54.7069 27.1709 54.3861C27.1605 54.2154 27.2226 54.055 27.3416 53.9308C27.4554 53.8066 27.6158 53.7393 27.7866 53.7393H28.2109L28.8474 53.729L29.2768 53.7083C29.4734 53.7083 29.6339 53.7807 29.7529 53.9101C29.9185 54.0912 29.9598 54.3344 29.8667 54.5569C29.7736 54.7846 29.5718 54.9243 29.3286 54.9346L29.2251 54.9398L29.0543 54.9501L28.8887 54.9553L28.2213 54.9708H27.7763V54.9656ZM20.3304 53.848C20.2683 53.848 20.2113 53.8376 20.1492 53.8221L19.5904 53.6514L18.9643 53.4444L18.6797 53.3461C18.4624 53.2633 18.3123 53.077 18.2813 52.8493C18.2606 52.6734 18.3123 52.5027 18.4313 52.3681C18.5503 52.2336 18.7159 52.156 18.8919 52.156C18.9591 52.156 19.0316 52.1663 19.0988 52.1922L19.5179 52.3423L19.9681 52.4923L20.5063 52.6579C20.677 52.7096 20.8167 52.8338 20.8892 52.9942C20.9616 53.1598 20.9616 53.3461 20.884 53.5117C20.7753 53.7135 20.5632 53.848 20.3304 53.848ZM36.7072 53.5168C36.5261 53.5168 36.3554 53.4392 36.2416 53.2995C36.1226 53.1598 36.076 52.9839 36.107 52.8028C36.1432 52.5751 36.2984 52.394 36.5158 52.3215L36.8884 52.1922L37.5041 51.9593L37.9025 51.7989C37.975 51.7731 38.0525 51.7575 38.1302 51.7575C38.2854 51.7575 38.4303 51.8145 38.5441 51.9179C38.6994 52.0628 38.7666 52.2698 38.7304 52.4768C38.6942 52.6838 38.5545 52.8545 38.3579 52.9321L37.9491 53.0977L37.4679 53.2788L36.9142 53.4754C36.8366 53.5065 36.7745 53.5168 36.7072 53.5168ZM12.2117 49.8637C12.0824 49.8637 11.9582 49.8223 11.8495 49.7499L11.5028 49.4912L11.0992 49.1859L10.7008 48.8754L10.6232 48.8133C10.4732 48.6891 10.3903 48.5132 10.3955 48.3218C10.4007 48.1303 10.4938 47.9544 10.649 47.8405C10.7525 47.7629 10.8768 47.7215 11.0061 47.7215C11.1458 47.7215 11.2855 47.7681 11.3942 47.8561L11.5908 48.0165L11.9685 48.3114L12.0979 48.4097L12.2221 48.5029L12.5636 48.7512C12.724 48.8651 12.8171 49.0462 12.8171 49.2428C12.8171 49.4394 12.7291 49.6153 12.5791 49.7344C12.4808 49.8223 12.3514 49.8637 12.2117 49.8637ZM25.5668 49.5533C20.1441 48.9686 15.1353 46.4072 11.4615 42.3454C7.76178 38.2524 5.72303 32.9539 5.72303 27.4328C5.72303 21.4874 8.03603 15.8991 12.2428 11.6975C16.4444 7.49592 22.0327 5.17779 27.978 5.17779C35.6361 5.17779 42.663 9.04306 46.7766 15.5162C46.8645 15.6559 46.8955 15.8163 46.8593 15.9767C46.8231 16.1371 46.73 16.2717 46.5903 16.3596C46.492 16.4217 46.3782 16.4528 46.2643 16.4528C46.0522 16.4528 45.8607 16.3441 45.7469 16.1682C45.2657 15.4075 44.7275 14.6676 44.1531 13.9742L44.0807 13.8863L43.9772 13.9328C43.3046 14.2537 42.5853 14.5538 41.8454 14.828C41.7781 14.8539 41.7057 14.8642 41.6332 14.8642C41.3745 14.8642 41.1468 14.7038 41.0589 14.4606C41.002 14.3054 41.0123 14.1398 41.0796 13.9898C41.1469 13.8397 41.271 13.731 41.4262 13.6741C41.9799 13.4723 42.5233 13.2498 43.0407 13.017L43.227 12.9342L43.0872 12.7893C40.1844 9.783 36.4951 7.73911 32.4125 6.86464L31.9209 6.76115L32.2831 7.11302C32.9869 7.79086 33.6595 8.64464 34.2804 9.65364C34.4564 9.94341 34.3684 10.3211 34.0786 10.4971C33.9803 10.5591 33.8717 10.5902 33.7578 10.5902C33.5405 10.5902 33.3491 10.4815 33.2352 10.3004C32.1434 8.52563 30.3479 6.4093 27.9832 6.4093C25.6651 6.4093 23.3521 8.58772 21.6394 12.3857C21.2669 13.2136 20.9202 14.1191 20.6097 15.0816L20.558 15.242L20.7236 15.2678C23.0573 15.6507 25.5047 15.8422 27.9884 15.8422C29.1733 15.8422 30.3842 15.7956 31.5898 15.7077C31.5898 15.7077 31.5897 15.7077 31.5949 15.7077C31.9571 15.7077 32.2262 15.956 32.2469 16.2717C32.2572 16.4372 32.2055 16.5925 32.1021 16.7167C31.9934 16.8408 31.8485 16.9133 31.6829 16.9288C30.4462 17.022 29.2044 17.0685 27.9884 17.0685C25.3753 17.0685 22.8036 16.8564 20.3406 16.4424L20.2113 16.4217L20.1751 16.5459C19.3575 19.5884 18.897 23.0915 18.8401 26.6773V26.8222H22.5916C22.9279 26.8222 23.2021 27.0965 23.2021 27.438C23.2021 27.7795 22.9279 28.0537 22.5916 28.0537H18.8401V28.1986C18.897 31.7793 19.3575 35.2823 20.1751 38.33L20.2113 38.4542L20.3406 38.4335C22.6536 38.0454 25.0701 37.8333 27.5176 37.8074C27.8591 37.8074 28.1333 38.0817 28.1385 38.4128C28.1385 38.5784 28.0764 38.7285 27.9626 38.8475C27.8487 38.9665 27.6934 39.0286 27.533 39.0286C25.2097 39.0493 22.9227 39.2459 20.7236 39.6029L20.558 39.6288L20.6097 39.7892C21.3134 41.9728 22.1879 43.82 23.2073 45.2844C23.3004 45.4189 23.3367 45.5793 23.3108 45.7449C23.2798 45.9053 23.1917 46.045 23.0572 46.1382C22.9537 46.2106 22.8296 46.2468 22.7054 46.2468C22.5036 46.2468 22.3173 46.1485 22.2035 45.9829C21.0858 44.3892 20.1389 42.366 19.3886 39.9755L19.3524 39.8513L19.223 39.8772C16.8583 40.3584 14.7368 41.0207 12.9206 41.8434L12.7343 41.9262L12.8792 42.0711C16.2788 45.5845 20.8374 47.8095 25.7117 48.3321C26.048 48.3683 26.2912 48.6736 26.255 49.01C26.2239 49.3204 25.96 49.5584 25.6444 49.5584C25.6133 49.5584 25.5927 49.5584 25.5668 49.5533ZM6.97008 28.1934C7.13565 32.8918 8.80696 37.2848 11.8029 40.8862L11.8754 40.9741L11.9789 40.9276C13.94 39.991 16.2529 39.2407 18.8556 38.7026L19.0057 38.6715L18.9643 38.5267C18.1364 35.3962 17.6707 31.8207 17.6138 28.1882V28.0485H6.97008V28.1934ZM11.8288 13.9846C8.81734 17.5963 7.13565 21.9842 6.97008 26.6722L6.9649 26.8222H17.6086V26.6825C17.6655 23.0397 18.1312 19.4643 18.9591 16.3441L19.0005 16.1992L18.8505 16.1682C16.2633 15.6352 13.9606 14.8901 11.9996 13.9535L11.9013 13.907L11.8288 13.9846ZM23.554 6.87499C19.4973 7.74946 15.808 9.79852 12.9 12.7997L12.7551 12.9445L12.9413 13.0273C14.7575 13.8501 16.8687 14.5072 19.2178 14.9832L19.3472 15.0091L19.3886 14.8849C19.7249 13.8138 20.1079 12.7997 20.527 11.8734C21.4377 9.85543 22.5036 8.25655 23.6885 7.11818L24.0559 6.76633L23.554 6.87499ZM5.88865 43.4113C5.68685 43.4113 5.50058 43.313 5.38675 43.1474L5.15904 42.8162L4.96241 42.5213L4.86931 42.3764L4.77096 42.2263L4.53814 41.8538C4.41913 41.652 4.41914 41.4088 4.54332 41.207C4.65716 41.0311 4.84861 40.9224 5.06076 40.9224C5.27291 40.9224 5.46954 41.0311 5.58338 41.2173L5.62993 41.2846L5.89901 41.7089L6.17326 42.128L6.39573 42.4488C6.52509 42.6351 6.54059 42.868 6.4371 43.0749C6.33361 43.2819 6.12149 43.4113 5.88865 43.4113ZM53.2238 37.3883C53.0272 37.3883 52.8358 37.29 52.7219 37.1244C52.6081 36.9588 52.5822 36.7519 52.6495 36.5604L52.8358 36.0533L52.8875 35.8981L52.9392 35.7532L53.1307 35.1581C53.2135 34.8994 53.4464 34.7287 53.7103 34.7287C53.7775 34.7287 53.8447 34.739 53.912 34.7597C54.2276 34.8684 54.3984 35.2047 54.3001 35.5203L54.207 35.8153L54.0517 36.2862L53.8034 36.9847C53.7309 37.171 53.5809 37.3107 53.3843 37.3624C53.3325 37.3831 53.2808 37.3883 53.2238 37.3883ZM2.04406 35.2358C1.76464 35.2358 1.5215 35.0495 1.44905 34.7804L1.36107 34.4596L1.27826 34.1388L1.23689 33.9732L1.12307 33.4816L1.08163 33.2902C1.02989 33.0418 1.1282 32.8038 1.33517 32.6589C1.43866 32.5865 1.55769 32.5503 1.68188 32.5503C1.97164 32.5503 2.22003 32.7521 2.28212 33.0367L2.43214 33.6886L2.5512 34.1543L2.59257 34.3147L2.63394 34.4699C2.68051 34.6511 2.64951 34.8373 2.54602 34.9874C2.44253 35.1374 2.28213 35.2306 2.09585 35.2461L2.04406 35.2358ZM54.9003 28.5091C54.7347 28.5091 54.5744 28.4418 54.4605 28.3228C54.3467 28.2038 54.2846 28.0486 54.2846 27.8778L54.2898 27.2051L54.2794 26.7291L54.2691 26.4083C54.2587 26.1547 54.3984 25.9322 54.6261 25.8236C54.7089 25.7873 54.7917 25.7666 54.8848 25.7666C55.2108 25.7666 55.4799 26.0254 55.4954 26.3565L55.5058 26.6929L55.5109 27.024V27.1896L55.5161 27.3552L55.5109 27.9037C55.5058 28.121 55.3868 28.3124 55.1953 28.4263C55.1073 28.4832 55.009 28.5091 54.9003 28.5091ZM1.12825 26.2427C1.00924 26.2427 0.895387 26.2065 0.791899 26.1392C0.605621 26.0202 0.502119 25.8132 0.517642 25.5855L0.522821 25.5079L0.579732 24.8508L0.652181 24.1936L0.672898 24.0436C0.714293 23.7383 0.972977 23.5054 1.28344 23.5054C1.3714 23.5054 1.45937 23.5261 1.54216 23.5624C1.78535 23.6762 1.92509 23.9246 1.89404 24.1936L1.84225 24.6438L1.7957 25.1147L1.75433 25.6632C1.70776 26.0461 1.40249 26.2427 1.12825 26.2427ZM53.5446 19.5729C53.2756 19.5729 53.0427 19.4073 52.9599 19.1538L52.8565 18.8433L52.6909 18.3828L52.577 18.0775L52.458 17.7671C52.3701 17.5446 52.4114 17.3117 52.5667 17.1306C52.6857 17.0012 52.8461 16.9288 53.022 16.9288C53.2756 16.9288 53.4981 17.0789 53.5912 17.3169L53.8396 17.9637L54.0673 18.6105L54.1242 18.7761C54.1811 18.9572 54.1552 19.1538 54.0414 19.3194C53.9275 19.4798 53.7464 19.5729 53.5446 19.5729ZM3.23419 17.4566C3.14623 17.4566 3.06345 17.4411 2.98583 17.4048C2.68054 17.2703 2.54085 16.9133 2.67538 16.6028L2.82021 16.2613L2.95993 15.956L3.1721 15.511L3.32218 15.1954C3.42566 14.9936 3.6326 14.8642 3.86545 14.8591C4.08277 14.8591 4.27941 14.9677 4.39324 15.1488C4.50708 15.3299 4.51746 15.5524 4.41914 15.7491L4.27942 16.0388L4.07762 16.4683L3.80336 17.0892C3.69987 17.3117 3.48256 17.4566 3.23419 17.4566ZM49.2965 11.594C49.105 11.594 48.9291 11.5061 48.8101 11.356L48.5152 10.9834L48.1995 10.5954L47.8736 10.2125C47.7338 10.0521 47.6925 9.82956 47.7545 9.62776C47.8373 9.36904 48.0702 9.20346 48.3393 9.20346C48.5152 9.20346 48.6807 9.28107 48.7997 9.41561L48.9188 9.55015L49.0274 9.67951L49.1412 9.81405L49.5759 10.3522L49.7777 10.6109C49.9226 10.8023 49.9484 11.0559 49.8398 11.268C49.7311 11.4698 49.5242 11.594 49.2965 11.594ZM8.13431 9.86061C7.90146 9.86061 7.62721 9.7209 7.53924 9.40527C7.4875 9.19829 7.53926 8.99131 7.68414 8.8309L8.11366 8.37039L8.35166 8.12719L8.76557 7.71325C8.87941 7.60459 9.0295 7.54249 9.1899 7.54249C9.30891 7.54249 9.42276 7.57353 9.52107 7.6408C9.68148 7.74429 9.77975 7.90987 9.80044 8.09615C9.82114 8.28243 9.75388 8.46353 9.61417 8.59806L9.33998 8.8723L9.11227 9.10516L8.66211 9.57601L8.58448 9.66398C8.46029 9.78817 8.30506 9.86061 8.13431 9.86061ZM42.6526 5.46756C42.5336 5.46756 42.4198 5.43134 42.3163 5.36408L42.1507 5.26058L42.0213 5.17779L41.4728 4.84146L41.0537 4.59826C40.8778 4.49995 40.7691 4.3292 40.7484 4.13257C40.7277 3.93595 40.795 3.74967 40.945 3.61514C41.0589 3.51165 41.2038 3.45473 41.359 3.45473C41.4677 3.45473 41.5712 3.48578 41.6643 3.53752L41.8195 3.62548L42.3939 3.96699L42.8182 4.23089L42.9889 4.34473C43.139 4.44304 43.2425 4.60345 43.2632 4.78455C43.2839 4.96048 43.2269 5.13641 43.1079 5.27094C42.9889 5.39513 42.8234 5.46756 42.6526 5.46756ZM15.2698 4.31886C15.0576 4.31886 14.8558 4.20502 14.742 4.02392C14.654 3.87903 14.6333 3.70827 14.6747 3.54787C14.7213 3.38229 14.8248 3.24776 14.98 3.16497L15.6475 2.81828L16.2788 2.50783L16.3616 2.4716C16.4444 2.43021 16.5323 2.41468 16.6203 2.41468C16.8273 2.41468 17.0187 2.51816 17.1326 2.68892C17.2309 2.83898 17.2568 3.02526 17.2102 3.19601C17.1636 3.36677 17.0394 3.50648 16.879 3.58409L16.6462 3.69275L16.196 3.91524L15.8959 4.0653L15.5543 4.24641C15.4716 4.29298 15.3681 4.31886 15.2698 4.31886ZM34.3529 1.89208C34.3012 1.89208 34.2546 1.8869 34.2028 1.87137L33.4111 1.69027L33.1059 1.62818L32.7643 1.56091C32.5418 1.51951 32.3659 1.36946 32.2935 1.15731C32.2211 0.945158 32.2676 0.717478 32.4177 0.551898C32.5367 0.422539 32.6971 0.350106 32.8679 0.350106C32.9041 0.350106 32.9455 0.355274 32.9817 0.360449L33.3387 0.427718L33.8251 0.526033L34.503 0.681258C34.7203 0.733001 34.8859 0.898585 34.948 1.12108C34.9945 1.30219 34.9583 1.49882 34.8444 1.64888C34.7254 1.79894 34.5443 1.89208 34.3529 1.89208C34.3581 1.89208 34.3581 1.89208 34.3529 1.89208ZM23.8334 1.44189C23.6626 1.44189 23.5074 1.36946 23.3832 1.24528C23.228 1.07452 23.1814 0.84685 23.2538 0.629526C23.3314 0.412203 23.5126 0.262146 23.7402 0.225926L24.2525 0.148297L24.5837 0.106909L25.277 0.0292969H25.3288C25.5254 0.0292969 25.7013 0.117262 25.8204 0.272493C25.9549 0.453596 25.9859 0.68127 25.8928 0.888245C25.7997 1.09522 25.6133 1.22974 25.3857 1.25044L24.7338 1.32289L24.2577 1.38498L23.9265 1.43155C23.8955 1.4419 23.8644 1.44189 23.8334 1.44189Z" fill="#303B4D"/>
<path d="M35.6465 14.5124C37.0436 14.8642 37.6334 15.7594 38.5286 17.6791L39.1754 19.0658H41.4056C45.1674 19.0658 48.2254 22.1239 48.2254 25.8857V41.7503L48.2409 44.146H50.2797V47.4318H29.8098V44.146H31.864V40.7309C35.2739 39.4167 37.6697 36.3793 38.984 31.6861L39.8326 28.6488L32.4022 28.6333H31.2948L30.5756 29.4767L29.7581 30.4288L27.9522 27.8467L36.5365 17.8447L35.6465 14.5124ZM33.5147 11.92H33.4629C33.2301 11.92 33.0076 12.0287 32.8627 12.2149C32.7178 12.4012 32.6712 12.6444 32.7333 12.8721L33.8924 17.2393C32.3608 19.0244 30.8292 20.8096 29.2975 22.5947C27.9677 24.1471 26.6327 25.6994 25.3029 27.2517C25.0804 27.5156 25.0597 27.8933 25.2563 28.1779L28.1229 32.276C28.4696 32.7831 29.0026 33.078 29.6235 33.1091C29.6597 33.1091 29.6908 33.1091 29.727 33.1091C30.3013 33.1091 30.8188 32.8711 31.1966 32.4312L32.3918 31.029L36.671 31.0393C35.4343 35.4531 33.256 37.9989 30.0375 38.7957C29.7012 38.8785 29.4631 39.1838 29.4631 39.5305V41.7503H29.4424C28.3196 41.7503 27.4037 42.6662 27.4037 43.789V47.794C27.4037 48.9168 28.3196 49.8327 29.4424 49.8327H50.6315C51.7543 49.8327 52.6702 48.9168 52.6702 47.794V43.789C52.6702 42.6662 51.7543 41.7503 50.6315 41.7503H50.6159V25.8857C50.6159 20.8044 46.4816 16.6701 41.4004 16.6701H40.6967C39.2013 13.4465 37.8663 11.92 33.5147 11.92Z" fill="#2075BC"/>
<path d="M30.9792 41.7503H49.105V25.8857C49.105 21.6375 45.6486 18.181 41.4004 18.181H40.2103C39.9101 18.181 39.6411 18.0051 39.5221 17.736C38.2181 14.8435 37.4057 13.6534 34.4512 13.462L35.455 17.2341C35.5171 17.4773 35.4602 17.7308 35.2998 17.9223C33.6802 19.8058 32.0658 21.6944 30.4462 23.5779C29.2406 24.9801 28.0401 26.3824 26.8345 27.7846L29.37 31.4119C29.4528 31.5309 29.5562 31.5878 29.7011 31.593C29.846 31.5982 29.9546 31.5568 30.0478 31.4429L31.4759 29.7768C31.6208 29.6112 31.8278 29.5129 32.0503 29.5129L37.5817 29.5232C39.548 29.1921 40.5622 28.1572 40.7691 26.2737C40.8157 25.8598 41.1882 25.5597 41.6022 25.6062C42.0161 25.6528 42.3162 26.0254 42.2696 26.4393C42.0058 28.8454 40.6242 30.3874 38.2647 30.9307C37.6386 33.3523 36.7435 35.3392 35.5896 36.8346C34.3632 38.4284 32.8109 39.5253 30.9792 40.0997V41.7503Z" fill="#F7F8F8"/>
<path d="M51.1593 43.789C51.1593 43.4992 50.9264 43.2664 50.6366 43.2664H29.4476C29.1578 43.2664 28.925 43.4992 28.925 43.789V47.794C28.925 48.0837 29.1578 48.3166 29.4476 48.3166H50.6366C50.9264 48.3166 51.1593 48.0837 51.1593 47.794V43.789Z" fill="#F7F8F8"/>
</g>
</svg>
