<svg width="57" height="57" viewBox="0 0 57 57" fill="none" xmlns="http://www.w3.org/2000/svg">
<g id="Vector">
<path d="M56.5 32.1659V24.8403C56.5 24.3948 56.1783 24.0174 55.739 23.9494L51.2595 23.2317C50.6779 20.7135 49.6941 18.3376 48.3206 16.1412L50.9811 12.4598C51.241 12.1009 51.2038 11.606 50.8883 11.2904L45.7096 6.11176C45.3941 5.79621 44.8991 5.75911 44.5402 6.01897L40.8589 8.67945C38.6624 7.3059 36.2865 6.32214 33.7683 5.74055L33.0507 1.26105C32.9826 0.821758 32.6052 0.5 32.1597 0.5H24.8341C24.3886 0.5 24.0112 0.821758 23.9431 1.26105L23.2255 5.74055C20.7073 6.32214 18.3314 7.3059 16.1349 8.67945L12.4598 6.01897C12.1009 5.75911 11.6059 5.79621 11.2904 6.11176L6.11173 11.2904C5.79618 11.606 5.75905 12.1009 6.01891 12.4598L8.67942 16.135C7.30587 18.3314 6.32211 20.7135 5.74051 23.2255L1.26101 23.9432C0.821721 24.0112 0.5 24.3886 0.5 24.8341V32.1597C0.5 32.6052 0.821721 32.9826 1.26101 33.0507L5.74051 33.7684C6.32211 36.2866 7.30587 38.6624 8.67942 40.8589L6.01891 44.5402C5.75905 44.8991 5.79618 45.394 6.11173 45.7096L11.2904 50.8882C11.6059 51.2038 12.1009 51.2409 12.4598 50.9811L16.1349 48.3206C18.3314 49.6941 20.7135 50.6841 23.2255 51.2595L23.9431 55.739C24.0112 56.1783 24.3886 56.5 24.8341 56.5H32.1597C32.6052 56.5 32.9826 56.1783 33.0507 55.739L33.6941 51.7173C36.0452 54.6315 39.6462 56.5 43.674 56.5C50.7459 56.5 56.5 50.746 56.5 43.674C56.5 39.6462 54.6315 36.0453 51.7173 33.6941L55.739 33.0507C56.1783 32.9888 56.5 32.6114 56.5 32.1659ZM44.6392 30.8914C44.3237 30.8666 44.0019 30.8542 43.6802 30.8542C41.7436 30.8542 39.8998 31.2873 38.254 32.0607V30.6315C38.254 28.4969 36.6392 26.8697 33.8179 26.1706C32.8341 25.9293 31.8566 25.7498 30.879 25.6446C32.3763 24.5928 33.3909 22.5882 33.3909 20.2866C33.3909 17.1744 31.5224 15.2378 28.5093 15.2378C25.4961 15.2378 23.6276 17.1744 23.6276 20.2866C23.6276 22.582 24.6361 24.5866 26.1272 25.6384C25.1373 25.7498 24.1597 25.923 23.1883 26.1767C20.336 26.913 18.7583 28.4907 18.7583 30.6315V38.6686C18.7583 39.1698 19.1605 39.5719 19.6616 39.5719H31.5348C31.0955 40.8589 30.8604 42.2448 30.8604 43.674C30.8604 43.9958 30.8728 44.3175 30.8976 44.633C30.1056 44.7506 29.3074 44.8063 28.5093 44.8063C19.5131 44.8063 12.1999 37.4869 12.1999 28.4969C12.1999 19.5008 19.5193 12.1876 28.5093 12.1876C37.5054 12.1876 44.8187 19.507 44.8187 28.4969C44.8125 29.3012 44.7506 30.0994 44.6392 30.8914ZM33.3291 31.5781C32.8279 31.5781 32.4258 31.9803 32.4258 32.4814V37.5364C32.3825 37.6106 32.3453 37.6911 32.302 37.7653H24.5804V32.4814C24.5804 31.9803 24.1783 31.5781 23.6771 31.5781C23.176 31.5781 22.7738 31.9803 22.7738 32.4814V37.7653H20.5588V30.6315C20.5588 29.0476 22.2293 28.2866 23.6276 27.9277C26.8017 27.111 30.087 27.111 33.3786 27.9277C34.5232 28.2123 36.4412 28.9424 36.4412 30.6315V33.094C35.6307 33.6508 34.8882 34.2943 34.2262 35.012V32.4753C34.2324 31.9865 33.8241 31.5781 33.3291 31.5781ZM28.5031 24.6176C26.8078 24.6176 25.4281 22.6748 25.4281 20.2866C25.4281 17.4652 27.3584 17.0445 28.5031 17.0445C29.6477 17.0445 31.5781 17.4652 31.5781 20.2866C31.5781 22.6748 30.1983 24.6176 28.5031 24.6176ZM54.6934 43.6802C54.6934 49.756 49.7498 54.6996 43.674 54.6996C37.5982 54.6996 32.6547 49.756 32.6547 43.6802C32.6547 37.6044 37.5982 32.6609 43.674 32.6609C49.756 32.6609 54.6934 37.6044 54.6934 43.6802ZM54.6934 31.3925L50.3624 32.0855C50.1335 32.1226 49.9354 32.2401 49.7993 32.4134C48.7537 31.8442 47.6153 31.4111 46.4212 31.1512C46.5511 30.2726 46.6129 29.3879 46.6129 28.5031C46.6129 18.5108 38.483 10.3871 28.4969 10.3871C18.5109 10.3871 10.3809 18.517 10.3809 28.5031C10.3809 38.4954 18.5109 46.6191 28.4969 46.6191C29.3817 46.6191 30.2726 46.5511 31.1512 46.4273C31.411 47.6276 31.8442 48.7599 32.4134 49.8055C32.2402 49.9416 32.1226 50.1396 32.0855 50.3685L31.3925 54.6996H25.6075L24.9145 50.3685C24.8527 49.9973 24.5681 49.7003 24.203 49.6261C21.4868 49.0754 18.9315 48.0174 16.6051 46.4768C16.2896 46.2665 15.8813 46.2788 15.5781 46.4954L12.0267 49.0692L7.93691 44.9795L10.5108 41.4281C10.7335 41.1249 10.7397 40.7104 10.5294 40.401C8.98877 38.0808 7.93079 35.5255 7.38013 32.8032C7.30588 32.432 7.00885 32.1474 6.63762 32.0917L2.30661 31.3987V25.6137L6.63762 24.9207C7.00885 24.8589 7.30588 24.5742 7.38013 24.2092C7.93079 21.493 8.98877 18.9378 10.5294 16.6114C10.7397 16.2958 10.7273 15.8875 10.5108 15.5843L7.93691 12.0329L12.0267 7.94317L15.5781 10.517C15.8813 10.7398 16.2958 10.746 16.6051 10.5356C18.9253 8.99499 21.4807 7.93697 24.203 7.38631C24.5742 7.31207 24.8589 7.01511 24.9145 6.64388L25.6075 2.31287H31.3925L32.0855 6.64388C32.1473 7.01511 32.432 7.31207 32.797 7.38631C35.5193 7.93697 38.0747 8.99499 40.3949 10.5356C40.7104 10.746 41.1187 10.7336 41.4219 10.517L44.9734 7.94317L49.0631 12.0329L46.4892 15.5843C46.2665 15.8875 46.2603 16.302 46.4706 16.6114C48.0112 18.9316 49.0692 21.4869 49.6199 24.2092C49.6941 24.5804 49.9911 24.8651 50.3624 24.9207L54.6934 25.6137V31.3925ZM49.7993 41.1744C48.3515 42.6346 44.4412 46.6377 42.5294 48.5495C42.1953 48.8836 41.657 48.8836 41.3291 48.5495L37.5673 44.7877C37.4064 44.6268 37.3198 44.4165 37.3198 44.1876C37.3198 43.9586 37.4064 43.7483 37.5673 43.5874C37.7281 43.4265 37.9386 43.3399 38.1675 43.3399C38.3964 43.3399 38.6068 43.4265 38.7676 43.5874L41.2858 46.1056C41.4528 46.2726 41.688 46.3716 41.9231 46.3716H41.9293C42.1706 46.3716 42.3995 46.2726 42.5666 46.0994L48.599 39.9803C48.927 39.6524 49.4652 39.6462 49.7931 39.9741C49.954 40.135 50.0406 40.3453 50.0406 40.5743C50.0468 40.797 49.9602 41.0136 49.7993 41.1744Z" fill="#303B4D"/>
<path d="M43.8102 32.6423C49.8984 32.6423 54.8543 37.5982 54.8543 43.6864C54.8543 49.7746 49.8984 54.7305 43.8102 54.7305C37.722 54.7305 32.766 49.7746 32.766 43.6864C32.766 37.5921 37.722 32.6423 43.8102 32.6423ZM43.8102 30.9903C36.8001 30.9903 31.1203 36.6702 31.1203 43.6802C31.1203 50.6903 36.8001 56.3701 43.8102 56.3701C50.8203 56.3701 56.5 50.6903 56.5 43.6802C56.5 36.6702 50.8203 30.9903 43.8102 30.9903Z" fill="#2075BC"/>
<path d="M42.647 48.9331C42.2758 48.9331 41.9292 48.7908 41.6694 48.5309L36.7134 43.5751C36.4536 43.3152 36.3113 42.9687 36.3113 42.5975C36.3113 42.2262 36.4536 41.8797 36.7134 41.6199C36.9733 41.36 37.3198 41.2177 37.6911 41.2177C38.0623 41.2177 38.4088 41.36 38.6686 41.6199L42.647 45.5982L48.6857 39.5596C48.9455 39.2997 49.292 39.1574 49.6632 39.1574C50.0345 39.1574 50.3809 39.2997 50.6408 39.5596C51.1791 40.0978 51.1791 40.9764 50.6408 41.5147L43.6245 48.5248C43.3647 48.7846 43.0182 48.9331 42.647 48.9331Z" fill="#2075BC"/>
<path d="M49.6695 39.3739C49.9788 39.3739 50.2696 39.4977 50.4923 39.7142C50.7089 39.9308 50.8326 40.2216 50.8326 40.5309C50.8326 40.8403 50.7151 41.1311 50.4923 41.3476L43.4761 48.3577C43.2595 48.5743 42.9687 48.698 42.6593 48.698C42.35 48.698 42.0592 48.5805 41.8427 48.3577L36.8867 43.4018C36.4351 42.9501 36.4351 42.2138 36.8867 41.7622C37.1033 41.5456 37.3941 41.4219 37.7035 41.4219C38.0128 41.4219 38.3036 41.5394 38.5202 41.7622L42.6593 45.9014L48.8589 39.7081C49.0631 39.4977 49.3601 39.3739 49.6695 39.3739ZM49.6695 38.9285C49.2611 38.9285 48.8465 39.0832 48.5372 39.3987L42.6532 45.2765L38.8295 41.4528C38.514 41.1373 38.1056 40.9826 37.6911 40.9826C37.2827 40.9826 36.8682 41.1373 36.5526 41.4528C35.9277 42.0777 35.9277 43.0986 36.5526 43.7235L41.5085 48.6795C41.8241 48.995 42.2325 49.1497 42.647 49.1497C43.0554 49.1497 43.4699 48.995 43.7854 48.6795L50.8017 41.6694C51.4266 41.0445 51.4266 40.0236 50.8017 39.3987C50.4861 39.0894 50.0778 38.9285 49.6695 38.9285Z" fill="white"/>
</g>
</svg>
