<svg width="25" height="25" viewBox="0 0 25 25" fill="none" xmlns="http://www.w3.org/2000/svg">
<g id="bx:map">
<g id="Vector">
<path d="M12.5001 14.5C14.7061 14.5 16.5001 12.706 16.5001 10.5C16.5001 8.294 14.7061 6.5 12.5001 6.5C10.2941 6.5 8.50009 8.294 8.50009 10.5C8.50009 12.706 10.2941 14.5 12.5001 14.5ZM12.5001 8.5C13.6031 8.5 14.5001 9.397 14.5001 10.5C14.5001 11.603 13.6031 12.5 12.5001 12.5C11.3971 12.5 10.5001 11.603 10.5001 10.5C10.5001 9.397 11.3971 8.5 12.5001 8.5Z" fill="#D9D9D9"/>
<path d="M11.9201 22.314C12.0894 22.4346 12.2922 22.4994 12.5001 22.4994C12.708 22.4994 12.9107 22.4346 13.0801 22.314C13.3841 22.099 20.5291 16.94 20.5001 10.5C20.5001 6.089 16.9111 2.5 12.5001 2.5C8.08909 2.5 4.50009 6.089 4.50009 10.495C4.47109 16.94 11.6161 22.099 11.9201 22.314ZM12.5001 4.5C15.8091 4.5 18.5001 7.191 18.5001 10.505C18.5211 14.943 14.1121 18.928 12.5001 20.235C10.8891 18.927 6.47909 14.941 6.50009 10.5C6.50009 7.191 9.19109 4.5 12.5001 4.5Z" fill="#D9D9D9"/>
</g>
</g>
</svg>
