<svg width="25" height="25" viewBox="0 0 25 25" fill="none" xmlns="http://www.w3.org/2000/svg">
<g id="ph:phone">
<path id="Vector" d="M21.3472 15.3557L16.9306 13.3766L16.9184 13.371C16.6892 13.2729 16.439 13.2336 16.1907 13.2565C15.9424 13.2794 15.7037 13.3639 15.4963 13.5022C15.4718 13.5184 15.4483 13.5359 15.4259 13.5547L13.1441 15.5001C11.6984 14.7979 10.2059 13.3166 9.50376 11.8897L11.4519 9.57318C11.4706 9.54974 11.4884 9.5263 11.5053 9.50099C11.6407 9.29409 11.7229 9.05692 11.7445 8.81059C11.7661 8.56427 11.7264 8.31642 11.6291 8.08912V8.07787L9.64438 3.6538C9.5157 3.35687 9.29444 3.10951 9.01362 2.94865C8.7328 2.7878 8.4075 2.72208 8.08626 2.7613C6.81592 2.92847 5.64986 3.55234 4.80588 4.51639C3.9619 5.48045 3.49771 6.71876 3.50001 8.00005C3.50001 15.4438 9.55626 21.5001 17 21.5001C18.2813 21.5023 19.5196 21.0382 20.4837 20.1942C21.4477 19.3502 22.0716 18.1841 22.2388 16.9138C22.2781 16.5927 22.2125 16.2674 22.0518 15.9866C21.8911 15.7058 21.644 15.4845 21.3472 15.3557ZM17 20.0001C13.8185 19.9966 10.7682 18.7312 8.51856 16.4815C6.26888 14.2318 5.00348 11.1816 5.00001 8.00005C4.99648 7.08458 5.32631 6.19911 5.92789 5.50903C6.52947 4.81895 7.36167 4.37143 8.26907 4.25005C8.2687 4.25379 8.2687 4.25756 8.26907 4.2613L10.2378 8.66755L8.30001 10.9869C8.2803 11.0095 8.26243 11.0337 8.24657 11.0591C8.10549 11.2756 8.02273 11.5249 8.0063 11.7827C7.98988 12.0406 8.04035 12.2984 8.15282 12.531C9.0022 14.2682 10.7525 16.0054 12.5084 16.8538C12.7428 16.9652 13.002 17.0139 13.2608 16.9952C13.5196 16.9765 13.7692 16.8909 13.985 16.7469C14.0091 16.7308 14.0323 16.7133 14.0544 16.6944L16.3334 14.7501L20.7397 16.7235H20.75C20.6301 17.6322 20.1833 18.4661 19.4931 19.0691C18.8028 19.6722 17.9166 20.0031 17 20.0001Z" fill="#F2F2FF"/>
</g>
</svg>
