<svg width="25" height="25" viewBox="0 0 25 25" fill="none" xmlns="http://www.w3.org/2000/svg">
<g id="ant-design:mobile-outlined">
<path id="Vector" d="M17.9375 1.95312H7.0625C6.23516 1.95312 5.5625 2.62578 5.5625 3.45312V21.4531C5.5625 22.2805 6.23516 22.9531 7.0625 22.9531H17.9375C18.7648 22.9531 19.4375 22.2805 19.4375 21.4531V3.45312C19.4375 2.62578 18.7648 1.95312 17.9375 1.95312ZM17.75 21.2656H7.25V3.64062H17.75V21.2656ZM11.5625 18.875C11.5625 19.1236 11.6613 19.3621 11.8371 19.5379C12.0129 19.7137 12.2514 19.8125 12.5 19.8125C12.7486 19.8125 12.9871 19.7137 13.1629 19.5379C13.3387 19.3621 13.4375 19.1236 13.4375 18.875C13.4375 18.6264 13.3387 18.3879 13.1629 18.2121C12.9871 18.0363 12.7486 17.9375 12.5 17.9375C12.2514 17.9375 12.0129 18.0363 11.8371 18.2121C11.6613 18.3879 11.5625 18.6264 11.5625 18.875Z" fill="#F2F2FF"/>
</g>
</svg>
