<svg width="73" height="82" viewBox="0 0 73 82" fill="none" xmlns="http://www.w3.org/2000/svg">
<g id="Frame 7">
<g id="Vector">
<path d="M0 59.3058H2.76318V60.9009C3.33076 59.6687 4.42856 59.0564 6.06406 59.0564C6.8258 59.0564 7.51286 59.2378 8.13271 59.5931C8.74509 59.9484 9.23051 60.4549 9.57404 61.1126C9.94745 60.4247 10.4179 59.9106 10.993 59.5704C11.568 59.2302 12.3074 59.0564 13.2259 59.0564C14.0026 59.0564 14.6971 59.2453 15.3244 59.6158C15.9443 59.9862 16.4372 60.5078 16.7957 61.1882C17.1541 61.8686 17.3334 62.6548 17.3334 63.5468V70.222H14.5328V64.2423C14.5328 63.3351 14.3387 62.6548 13.9503 62.2087C13.562 61.7627 13.0392 61.5359 12.3746 61.5359C11.6651 61.5359 11.1274 61.74 10.7465 62.1407C10.3657 62.5489 10.179 63.2444 10.179 64.2423V70.222H7.37844V64.2423C7.37844 63.3351 7.16933 62.6548 6.75859 62.2087C6.34038 61.7627 5.77281 61.5359 5.05588 61.5359C4.42109 61.5359 3.88339 61.7627 3.45771 62.2163C3.03203 62.6699 2.81546 63.3427 2.81546 64.2423V70.222H0.0149393V59.3058H0Z" fill="white"/>
<path d="M21.1495 69.7231C20.3056 69.209 19.6484 68.5211 19.178 67.6593C18.7075 66.7899 18.4685 65.8374 18.4685 64.7866C18.4685 63.7509 18.7075 62.7908 19.1929 61.9139C19.6783 61.0294 20.343 60.3339 21.1943 59.8123C22.0457 59.2983 22.9941 59.0337 24.0471 59.0337C25.1001 59.0337 26.0411 59.2907 26.8775 59.8123C27.714 60.3264 28.3637 61.0294 28.8267 61.8988C29.2897 62.7757 29.5212 63.7358 29.5212 64.7866C29.5212 65.1343 29.4913 65.4745 29.4391 65.792H21.3661C21.5304 66.4497 21.8441 66.9789 22.3071 67.3796C22.7701 67.7802 23.3451 67.9768 24.0397 67.9768C24.6222 67.9768 25.1375 67.8407 25.593 67.5686C26.0486 67.2964 26.407 66.9411 26.6759 66.5102L28.8566 68.1658C28.4159 68.8688 27.7662 69.4283 26.9074 69.8516C26.0486 70.2749 25.0927 70.4942 24.0397 70.4942C22.9643 70.4866 21.9934 70.2296 21.1495 69.7231ZM26.7132 63.6678C26.5489 63.0403 26.2203 62.5111 25.7349 62.0954C25.2495 61.672 24.6744 61.4679 24.0098 61.4679C23.3601 61.4679 22.7925 61.672 22.3145 62.0727C21.8366 62.4809 21.5229 63.0101 21.3736 63.6678H26.7132Z" fill="white"/>
<path d="M33.5614 65.0361V70.222H30.7609V54.8985H33.5614V63.7131L37.6091 59.3058H41.5971L36.5113 64.3859L41.6195 70.222H37.9004L33.5614 65.0361Z" fill="white"/>
<path d="M43.24 69.7231C42.426 69.209 41.7763 68.5211 41.2983 67.6593C40.8204 66.7899 40.5814 65.845 40.5814 64.8093C40.5814 63.7736 40.8204 62.8211 41.2983 61.9442C41.7763 61.0672 42.426 60.3717 43.24 59.8577C44.0541 59.3436 44.9502 59.079 45.9211 59.079C46.8098 59.079 47.5192 59.2453 48.0719 59.5855C48.617 59.9182 49.0427 60.402 49.3489 61.037V59.3134H52.127V70.222H49.4086V68.4379C49.0875 69.0956 48.6544 69.6021 48.1092 69.9574C47.564 70.3127 46.8322 70.4942 45.9211 70.4942C44.9428 70.4866 44.0541 70.2296 43.24 69.7231ZM43.7628 66.3439C44.0167 66.8277 44.3752 67.2133 44.8233 67.5005C45.2713 67.7878 45.7866 67.9314 46.3691 67.9314C46.9666 67.9314 47.4968 67.7954 47.9598 67.5081C48.4229 67.2284 48.7813 66.8504 49.0278 66.3741C49.2742 65.8979 49.4012 65.3763 49.4012 64.8017C49.4012 64.2272 49.2742 63.698 49.0278 63.2142C48.7813 62.7304 48.4229 62.3448 47.9598 62.0575C47.4968 61.7703 46.9666 61.6266 46.3691 61.6266C45.7866 61.6266 45.2713 61.7703 44.8158 62.0575C44.3602 62.3448 44.0092 62.7228 43.7553 63.1991C43.5089 63.6753 43.3819 64.1969 43.3819 64.7715C43.3819 65.3385 43.5089 65.8601 43.7628 66.3439Z" fill="white"/>
<path d="M53.7775 59.3058H56.4958V61.3847C56.69 60.591 57.0634 59.9862 57.631 59.578C58.1911 59.1697 58.9304 58.9959 59.8415 59.0564V61.7174H59.4457C58.6168 61.7174 57.9297 61.982 57.392 62.5036C56.8543 63.0252 56.5854 63.7358 56.5854 64.6354V70.2145H53.7849V59.3058H53.7775Z" fill="white"/>
<path d="M63.5755 65.0361V70.222H60.775V54.8985H63.5755V63.7131L67.6232 59.3058H71.6112L66.5254 64.3859L71.6336 70.222H67.9145L63.5755 65.0361Z" fill="white"/>
<path d="M0.104564 80.7224V80.4276H0.642264V80.7678C0.642264 81.2365 0.866305 81.4633 1.22477 81.4633C1.59071 81.4633 1.81475 81.2365 1.81475 80.7602C1.81475 80.2764 1.62058 79.9664 1.03807 79.4599C0.336073 78.8627 0.104564 78.4394 0.104564 77.8497C0.104564 77.0635 0.507842 76.5948 1.23971 76.5948C1.97158 76.5948 2.35245 77.056 2.35245 77.8648V78.0765H1.81475V77.827C1.81475 77.3583 1.60565 77.1316 1.23971 77.1316C0.881244 77.1316 0.664668 77.3583 0.664668 77.8119C0.664668 78.2428 0.866311 78.5452 1.46375 79.0593C2.15828 79.6565 2.38232 80.0798 2.38232 80.7149C2.38232 81.5313 1.97158 82 1.23224 82C0.492904 82 0.104564 81.5313 0.104564 80.7224Z" fill="white"/>
<path d="M3.27849 77.2072V76.678H5.63839V77.2072H4.74223V81.9244H4.18213V77.2072H3.27849Z" fill="white"/>
<path d="M6.70633 76.678H7.8116C8.61068 76.678 8.95421 77.056 8.95421 77.8724V78.1975C8.95421 78.772 8.77498 79.1198 8.37171 79.2558V79.2634C8.79738 79.3768 8.96168 79.7397 8.96168 80.3596V81.2969C8.96168 81.5388 8.96915 81.7505 9.03636 81.932H8.46879C8.42398 81.7808 8.40157 81.6447 8.40157 81.2969V80.3293C8.40157 79.7623 8.20741 79.5658 7.72945 79.5658H7.2739V81.932H6.7138V76.678H6.70633ZM7.72198 79.0215C8.1626 79.0215 8.38664 78.8249 8.38664 78.3033V77.9253C8.38664 77.4188 8.21487 77.2072 7.79666 77.2072H7.26643V79.0215H7.72198Z" fill="white"/>
<path d="M10.179 80.6997V76.678H10.7391V80.7451C10.7391 81.2365 10.9482 81.4633 11.3216 81.4633C11.695 81.4633 11.9041 81.2365 11.9041 80.7451V76.678H12.4493V80.6997C12.4493 81.5313 12.0534 82 11.3066 82C10.5673 82 10.179 81.5313 10.179 80.6997Z" fill="white"/>
<path d="M13.6666 80.7451V77.8497C13.6666 77.0635 14.0698 76.5948 14.7942 76.5948C15.5261 76.5948 15.9219 77.056 15.9219 77.8497V78.3865H15.3842V77.8119C15.3842 77.3659 15.1602 77.1316 14.8092 77.1316C14.4582 77.1316 14.2341 77.3659 14.2341 77.8119V80.7829C14.2341 81.2289 14.4582 81.4633 14.8092 81.4633C15.1602 81.4633 15.3842 81.2289 15.3842 80.7829V80.0496H15.9219V80.7451C15.9219 81.5237 15.5261 82 14.7942 82C14.0698 82 13.6666 81.5237 13.6666 80.7451Z" fill="white"/>
<path d="M17.774 77.2072H16.8778V76.678H19.2302V77.2072H18.3341V81.9244H17.774V77.2072Z" fill="white"/>
<path d="M20.2683 80.6997V76.678H20.8284V80.7451C20.8284 81.2365 21.0375 81.4633 21.4109 81.4633C21.7843 81.4633 21.9934 81.2365 21.9934 80.7451V76.678H22.5461V80.6997C22.5461 81.5313 22.1503 82 21.4035 82C20.6641 82 20.2683 81.5313 20.2683 80.6997Z" fill="white"/>
<path d="M23.8156 76.678H24.9209C25.72 76.678 26.0635 77.056 26.0635 77.8724V78.1975C26.0635 78.772 25.8843 79.1198 25.481 79.2558V79.2634C25.9067 79.3768 26.071 79.7397 26.071 80.3596V81.2969C26.071 81.5388 26.0785 81.7505 26.1457 81.932H25.5781C25.5333 81.7808 25.5109 81.6447 25.5109 81.2969V80.3293C25.5109 79.7623 25.3167 79.5658 24.8388 79.5658H24.3832V81.932H23.8231V76.678H23.8156ZM24.8388 79.0215C25.2794 79.0215 25.5034 78.8249 25.5034 78.3033V77.9253C25.5034 77.4188 25.3316 77.2072 24.9134 77.2072H24.3832V79.0215H24.8388Z" fill="white"/>
<path d="M27.3182 76.678H29.3943V77.2072H27.8857V78.9156H29.1105V79.4448H27.8857V81.3877H29.3943V81.9168H27.3182V76.678Z" fill="white"/>
<path d="M30.3726 80.7224V80.4276H30.9103V80.7678C30.9103 81.2365 31.1343 81.4633 31.4928 81.4633C31.8587 81.4633 32.0828 81.2365 32.0828 80.7602C32.0828 80.2764 31.8886 79.9664 31.3061 79.4599C30.6041 78.8627 30.3726 78.4394 30.3726 77.8497C30.3726 77.0635 30.7759 76.5948 31.5077 76.5948C32.2396 76.5948 32.6205 77.056 32.6205 77.8648V78.0765H32.0828V77.827C32.0828 77.3583 31.8737 77.1316 31.5077 77.1316C31.1493 77.1316 30.9327 77.3583 30.9327 77.8119C30.9327 78.2428 31.1343 78.5452 31.7318 79.0593C32.4263 79.6565 32.6503 80.0798 32.6503 80.7149C32.6503 81.5313 32.2396 82 31.5003 82C30.7609 82 30.3726 81.5313 30.3726 80.7224Z" fill="white"/>
<path d="M35.5704 76.678H36.1305V81.9244H35.5704V76.678Z" fill="white"/>
<path d="M37.4299 76.678H38.1543L39.2969 80.4276V76.678H39.8122V81.9244H39.2297L37.9527 77.6607V81.9244H37.4374V76.678H37.4299Z" fill="white"/>
<path d="M41.1042 76.678H42.2617C43.0384 76.678 43.4043 77.1089 43.4043 77.9556V80.6544C43.4043 81.5011 43.0459 81.932 42.2617 81.932H41.1042V76.678ZM42.2468 81.3877C42.6426 81.3877 42.8368 81.1835 42.8368 80.6695V77.9178C42.8368 77.4037 42.6426 77.2072 42.2468 77.2072H41.6718V81.3877H42.2468Z" fill="white"/>
<path d="M44.644 76.678H45.2041V81.9244H44.644V76.678Z" fill="white"/>
<path d="M48.1615 80.8056H46.989L46.8023 81.9244H46.2721L47.213 76.678H47.9748L48.9232 81.9244H48.3557L48.1615 80.8056ZM48.0719 80.2991L47.564 77.3432L47.0712 80.2991H48.0719Z" fill="white"/>
<path d="M51.7835 76.678H52.8888C53.6655 76.678 54.0314 77.1089 54.0314 77.9556V78.4016C54.0314 79.2483 53.6729 79.6716 52.8888 79.6716H52.3436V81.9244H51.7835V76.678ZM52.8888 79.1349C53.2846 79.1349 53.4638 78.9459 53.4638 78.4318V77.9178C53.4638 77.4037 53.2846 77.2147 52.8888 77.2147H52.3436V79.1424H52.8888V79.1349Z" fill="white"/>
<path d="M54.935 76.678H55.5026L56.2345 81.1306L56.9663 76.678H57.4891L56.5929 81.9244H55.8387L54.935 76.678Z" fill="white"/>
<path d="M59.259 77.2072H58.3629V76.678H60.7153V77.2072H59.8191V81.9244H59.259V77.2072Z" fill="white"/>
<path d="M64.1282 76.678V81.3952H65.5695V81.9244H63.5606V76.678H64.1282Z" fill="white"/>
<path d="M66.7121 77.2072H65.816V76.678H68.1684V77.2072H67.2722V81.9244H66.7121V77.2072Z" fill="white"/>
<path d="M69.2438 76.678H70.4014C71.178 76.678 71.544 77.1089 71.544 77.9556V80.6544C71.544 81.5011 71.1855 81.932 70.4014 81.932H69.2438V76.678ZM70.379 81.3877C70.7748 81.3877 70.9689 81.1835 70.9689 80.6695V77.9178C70.9689 77.4037 70.7748 77.2072 70.379 77.2072H69.8039V81.3877H70.379Z" fill="white"/>
<path d="M70.8196 17.5461L36.4665 0.158754C36.0558 -0.0529179 35.5778 -0.0529179 35.1596 0.158754L0.806551 17.5461C0.806551 17.5461 0.799086 17.5536 0.791618 17.5536C0.761745 17.5687 0.739341 17.5839 0.709469 17.599C0.694532 17.6065 0.679592 17.6217 0.664656 17.6292C0.642252 17.6443 0.627319 17.6595 0.597447 17.6746C0.575042 17.6897 0.560105 17.7048 0.537701 17.7199C0.522765 17.735 0.50783 17.7426 0.492894 17.7577C0.47049 17.7804 0.448083 17.8031 0.425679 17.8182C0.418211 17.8258 0.40328 17.8409 0.395812 17.8484C0.373407 17.8711 0.35847 17.8938 0.336066 17.9165C0.32113 17.9316 0.313661 17.9467 0.306193 17.9618C0.283789 17.9845 0.268853 18.0072 0.253917 18.0299C0.246449 18.0526 0.231512 18.0677 0.224044 18.0904C0.209108 18.113 0.201637 18.1282 0.186701 18.1508C0.179233 18.1735 0.164301 18.2037 0.149364 18.2264C0.141896 18.2415 0.134429 18.2567 0.126961 18.2793C0.112025 18.3096 0.104556 18.3398 0.0970883 18.3625C0.0896203 18.3852 0.0821531 18.4003 0.0746851 18.4154C0.067217 18.4457 0.0597442 18.4683 0.0522761 18.4986C0.0522761 18.5213 0.0373425 18.5364 0.0373425 18.5591C0.0298745 18.5817 0.029877 18.612 0.0224089 18.6347C0.0149409 18.6573 0.0149393 18.6876 0.0149393 18.7103C0.0149393 18.7329 0.0149393 18.748 0.0149393 18.7707C0.00747124 18.801 0.00746965 18.8312 0.00746965 18.8614C0.00746965 18.869 0 18.869 0 18.8766V49.3421H71.6336V18.8766C71.6336 18.3096 71.3124 17.8031 70.8196 17.5461ZM41.2237 46.3863H30.4025V33.7011L35.8093 30.9645L41.2162 33.7011V46.3863H41.2237ZM48.0943 46.3863H44.1511V32.7864C44.1511 32.227 43.8375 31.7129 43.3446 31.4635L36.474 27.986C36.2649 27.8802 36.0408 27.8272 35.8168 27.8272C35.5928 27.8272 35.3687 27.8802 35.1596 27.986L28.289 31.4635C27.7961 31.7129 27.4824 32.227 27.4824 32.7864V46.3863H23.5318V30.2161L35.8093 24.002L48.0868 30.2161V46.3863H48.0943ZM54.9649 46.3863H51.0217V29.3089C51.0217 28.7495 50.7081 28.2355 50.2152 27.986L36.474 21.0311C36.0632 20.827 35.5853 20.827 35.1671 21.0311L21.4258 27.986C20.9255 28.2355 20.6118 28.7495 20.6118 29.3089V46.3863H16.6687V26.7462L35.8168 17.0547L54.9649 26.7462V46.3863ZM61.8355 46.3863H57.8849V25.8239C57.8849 25.2645 57.5712 24.7504 57.0783 24.501L36.4665 14.0686C36.0558 13.8645 35.5778 13.8645 35.1596 14.0686L14.5478 24.5085C14.0549 24.758 13.7412 25.2721 13.7412 25.8315V46.3939H9.79062V23.2612L35.8093 10.0846L61.8355 23.2612V46.3863ZM68.7061 46.3863H64.763V22.3465C64.763 21.787 64.4418 21.273 63.9489 21.0235L36.4665 7.11368C36.0558 6.90956 35.5778 6.90956 35.1596 7.11368L7.67716 21.0235C7.18427 21.273 6.87061 21.787 6.87061 22.3465V46.3863H2.92001V19.7913L35.8093 3.13727L68.6986 19.7913V46.3863H68.7061Z" fill="white"/>
<path d="M35.6973 34.2908L33.4419 35.4852C33.3598 35.5306 33.3075 35.6137 33.3075 35.7044V42.7274C33.3075 43.1205 33.6287 43.438 34.0319 43.438H37.5867C37.99 43.438 38.3111 43.1205 38.3111 42.7274V35.7044C38.3111 35.6137 38.2588 35.523 38.1767 35.4852L35.9213 34.2908C35.8541 34.253 35.772 34.253 35.6973 34.2908Z" fill="white"/>
</g>
</g>
</svg>
