<svg width="56" height="56" viewBox="0 0 56 56" fill="none" xmlns="http://www.w3.org/2000/svg">
<g id="mdi:menu">
<path id="Vector" d="M7 16.3333C7 15.0447 8.04467 14 9.33333 14H46.6667C47.9553 14 49 15.0447 49 16.3333C49 17.622 47.9553 18.6667 46.6667 18.6667H9.33333C8.04467 18.6667 7 17.622 7 16.3333ZM7 28C7 26.7113 8.04467 25.6667 9.33333 25.6667H46.6667C47.9553 25.6667 49 26.7113 49 28C49 29.2887 47.9553 30.3333 46.6667 30.3333H9.33333C8.04467 30.3333 7 29.2887 7 28ZM7 39.6667C7 38.378 8.04467 37.3333 9.33333 37.3333H46.6667C47.9553 37.3333 49 38.378 49 39.6667C49 40.9553 47.9553 42 46.6667 42H9.33333C8.04467 42 7 40.9553 7 39.6667Z" fill="white"/>
</g>
</svg>
