<svg width="33" height="33" viewBox="0 0 33 33" fill="none" xmlns="http://www.w3.org/2000/svg">
<g id="Vector">
<path d="M32.9776 16.5C32.9776 25.3338 25.8113 32.5 16.9776 32.5C8.14386 32.5 0.9776 25.3338 0.9776 16.5C0.9776 7.66625 8.14386 0.5 16.9776 0.5C25.8195 0.508134 32.9776 7.66625 32.9776 16.5Z" fill="#EEEEEE"/>
<path d="M30.399 16.5C30.399 23.9103 24.396 29.9133 16.9857 29.9133C9.57549 29.9133 3.57246 23.9103 3.57246 16.5C3.57246 9.08974 9.57549 3.08668 16.9857 3.08668C24.3879 3.08668 30.399 9.09787 30.399 16.5Z" fill="url(#paint0_linear_309_4047)"/>
<path d="M22.7284 16.7278C22.4519 16.6871 22.2567 16.4187 22.2974 16.1421C22.7041 13.531 20.9064 11.0826 18.2953 10.6759C18.0188 10.6352 17.8235 10.3668 17.8642 10.0902C17.9049 9.81368 18.1733 9.61846 18.4498 9.65913C21.6222 10.1472 23.8022 13.1324 23.306 16.2966C23.2654 16.5813 23.005 16.7766 22.7284 16.7278Z" fill="#EEEEEE"/>
<path d="M20.0442 16.7115C19.7676 16.6708 19.5724 16.4024 19.6131 16.1258C19.8246 14.7511 18.881 13.4578 17.5063 13.2382C17.2298 13.1975 17.0345 12.9291 17.0752 12.6525C17.1159 12.376 17.3843 12.1807 17.6608 12.2214C19.5968 12.5224 20.9308 14.3444 20.6298 16.2804C20.5892 16.5569 20.3289 16.7522 20.0442 16.7115Z" fill="#EEEEEE"/>
<path fill-rule="evenodd" clip-rule="evenodd" d="M23.6557 21.7872C23.5825 21.6083 23.3385 21.4781 22.9806 21.226C22.6227 20.9738 20.8657 19.7537 20.5322 19.5666C20.1987 19.3876 19.9465 19.2819 19.6293 19.6235C19.3121 19.9652 18.4335 20.7135 18.1733 20.9413C17.9048 21.1609 17.6771 21.1609 17.3192 20.9087C16.9613 20.6566 15.7737 20.0547 14.5047 18.5254C13.5124 17.3297 12.9348 15.955 12.764 15.532C12.6013 15.1172 12.8373 14.9382 13.0569 14.7755C13.2603 14.6291 13.5124 14.3851 13.7402 14.198C13.9679 14.0028 14.0574 13.8482 14.2282 13.6124C14.399 13.3765 14.3664 13.1406 14.3014 12.9372C14.2363 12.7339 13.7564 10.7247 13.5531 9.90315C13.3497 9.08973 13.0243 9.06533 12.7966 9.03279C12.5688 9.00026 12.1458 9.00026 12.1458 9.00026C12.1458 9.00026 11.3568 8.97585 10.9419 9.30122C10.5271 9.62659 9.38829 10.4075 9.09546 12.2946C8.80263 14.1817 9.90079 16.2234 10.0553 16.5081C10.2099 16.7928 12.0726 21.1853 15.7656 23.3327C19.4585 25.4802 19.5399 24.9677 20.2638 25.0084C20.9796 25.0572 22.6959 24.439 23.1595 23.5849C23.6232 22.7308 23.7289 21.9581 23.6557 21.7872Z" fill="#EEEEEE"/>
</g>
<defs>
<linearGradient id="paint0_linear_309_4047" x1="3.85149" y1="3.38359" x2="35.2004" y2="34.7324" gradientUnits="userSpaceOnUse">
<stop stop-color="#0059AA"/>
<stop offset="0.5704" stop-color="#0D76DB"/>
<stop offset="1" stop-color="#1689FC"/>
</linearGradient>
</defs>
</svg>
