<svg width="32" height="33" viewBox="0 0 32 33" fill="none" xmlns="http://www.w3.org/2000/svg">
<g id="Vector">
<path fill-rule="evenodd" clip-rule="evenodd" d="M16.3719 2.44449C8.72197 2.44449 2.50445 8.61403 2.50445 16.1999C2.50445 19.2087 3.48864 22.0014 5.14505 24.2659L3.41669 29.3712L8.74595 27.6748C10.9385 29.1072 13.5552 29.9474 16.3719 29.9474C24.0138 29.9474 30.2393 23.7778 30.2393 16.1919C30.2313 8.62203 24.0138 2.44449 16.3719 2.44449Z" fill="url(#paint0_linear_309_4048)"/>
<path fill-rule="evenodd" clip-rule="evenodd" d="M31.9998 16.0879C31.9998 24.6981 24.9661 31.6758 16.2919 31.6758C13.5392 31.6758 10.9466 30.9716 8.69799 29.7393L-0.000183105 32.5L2.83246 24.1379C1.4001 21.7853 0.575938 19.0326 0.575938 16.0879C0.575938 7.47775 7.60971 0.5 16.2919 0.5C24.9661 0.5 31.9998 7.47775 31.9998 16.0879ZM16.2919 2.98062C9.01006 2.98062 3.08057 8.86209 3.08057 16.0879C3.08057 18.9526 4.01681 21.6093 5.59321 23.7698L3.94475 28.635L9.01809 27.0186C11.1066 28.387 13.6032 29.1872 16.2839 29.1872C23.5657 29.1872 29.4952 23.3057 29.4952 16.0799C29.4952 8.86209 23.5737 2.98062 16.2919 2.98062ZM24.2219 19.6808C24.1259 19.5208 23.8698 19.4247 23.4857 19.2327C23.1016 19.0406 21.2051 18.1204 20.853 17.9924C20.5009 17.8643 20.2449 17.8003 19.9888 18.1844C19.7327 18.5685 18.9965 19.4247 18.7645 19.6808C18.5404 19.9369 18.3164 19.9689 17.9323 19.7768C17.5482 19.5848 16.3078 19.1847 14.8355 17.8803C13.6912 16.8641 12.915 15.6158 12.691 15.2317C12.4669 14.8476 12.6669 14.6395 12.859 14.4555C13.035 14.2794 13.2431 14.0074 13.4351 13.7833C13.6272 13.5593 13.6913 13.3992 13.8193 13.1432C13.9473 12.8871 13.8833 12.663 13.7873 12.471C13.6912 12.2789 12.9231 10.3985 12.603 9.63029C12.2829 8.8701 11.9627 8.8941 11.7387 8.8941C11.5146 8.8941 11.0986 8.95811 11.0986 8.95811C11.0986 8.95811 10.3304 9.05414 9.97028 9.43823C9.61819 9.82233 8.626 10.7426 8.626 12.623C8.626 14.5035 10.0023 16.32 10.1944 16.576C10.3864 16.8321 12.859 20.8171 16.772 22.3455C20.685 23.8738 20.685 23.3617 21.3972 23.2977C22.1013 23.2337 23.6777 22.3775 23.9978 21.4812C24.3179 20.601 24.3179 19.8408 24.2219 19.6808Z" fill="#EEEEEE"/>
</g>
<defs>
<linearGradient id="paint0_linear_309_4048" x1="15.9958" y1="0.503166" x2="15.9958" y2="32.5183" gradientUnits="userSpaceOnUse">
<stop stop-color="#00C13E"/>
<stop offset="1" stop-color="#008530"/>
</linearGradient>
</defs>
</svg>
