<svg width="36" height="36" viewBox="0 0 36 36" fill="none" xmlns="http://www.w3.org/2000/svg">
<rect width="36" height="36" rx="18" fill="#1D75BD"/>
<path d="M17.9808 28.993H9.27555C8.54534 28.993 8.412 28.8152 8.6681 28.1231C8.79933 27.7633 8.7824 27.3103 9.27555 27.141C9.40042 27.0966 9.32636 26.8341 9.32636 26.6732C9.32636 21.2124 9.32636 15.753 9.32636 10.295C9.32636 9.96476 9.32636 9.63245 9.32636 9.30226C9.33846 9.18397 9.31919 9.06457 9.27052 8.95608C9.22185 8.84759 9.14549 8.75382 9.04909 8.6842C8.67658 8.37095 8.59826 7.82274 8.5517 7.33381C8.53265 7.14543 8.7316 7.03113 8.92421 7.00362C9.04474 6.99619 9.16561 6.99619 9.28614 7.00362H26.6967C27.4693 7.00362 27.5835 7.16025 27.3317 7.88413C27.2841 7.99453 27.2452 8.10846 27.2153 8.2249C27.1391 8.68209 26.8809 8.87682 26.4258 8.80063C25.9708 8.72443 25.8586 8.88952 25.8268 9.34882C25.685 11.4167 24.7918 13.1756 23.4711 14.7377C22.6162 15.7294 21.6316 16.6016 20.544 17.3305C19.8624 17.8004 19.8667 18.2047 20.544 18.6788C22.6605 20.1477 24.3876 21.9384 25.3252 24.3937C25.5516 25.0102 25.7134 25.6486 25.8078 26.2986C25.829 26.4214 25.8374 26.5568 25.6681 26.5716C25.5347 26.5843 25.4988 26.47 25.4839 26.36C25.0183 23.0771 23.0267 20.8378 20.4593 18.99C20.3746 18.9286 20.2836 18.8736 20.2011 18.8122C19.5661 18.3359 19.5492 17.6332 20.2011 17.1718C20.8449 16.7292 21.4613 16.2478 22.0467 15.7304C23.7526 14.1705 25.0098 12.3438 25.4332 10.0156C25.4564 9.88221 25.4713 9.74674 25.4839 9.6134C25.5665 8.77945 25.5665 8.77945 24.7051 8.77945H11.6842C11.5792 8.78793 11.4738 8.78793 11.3688 8.77945C11.2228 8.75617 10.9667 8.87259 10.9667 8.63553C10.9667 8.39847 11.2228 8.48736 11.3688 8.48736C16.33 8.48736 21.2918 8.48736 26.2544 8.48736C26.4406 8.48736 26.701 8.58684 26.8004 8.39635C26.9368 8.09716 27.0431 7.78521 27.1179 7.46505C27.1433 7.37615 27.065 7.33804 26.9803 7.33593H9.34328C8.82473 7.33593 8.86494 7.33593 8.97077 7.81852C9.08506 8.34979 9.3327 8.59107 9.89147 8.50006C10.1814 8.45349 10.4185 8.51487 10.4375 8.90856C10.5772 11.6602 11.9022 13.8381 13.8769 15.6711C14.4414 16.1893 15.0442 16.6641 15.6802 17.0914C16.4739 17.6353 16.476 18.3613 15.6802 18.8926C14.0462 20.0059 12.6387 21.3373 11.6312 23.0581C10.9624 24.2027 10.5562 25.4816 10.4418 26.8024C10.4164 27.0817 10.4672 27.2003 10.7868 27.2003C15.8664 27.1904 20.9461 27.1904 26.0258 27.2003C26.4597 27.2003 26.375 26.9442 26.375 26.7029C26.375 21.1094 26.375 15.5152 26.375 9.92031C26.375 9.70865 26.2501 9.28532 26.502 9.29802C26.8279 9.29802 26.6544 9.72135 26.6544 9.93301C26.6671 15.5124 26.6706 21.0918 26.665 26.6711C26.6465 26.7913 26.6616 26.9142 26.7087 27.0263C26.7557 27.1384 26.8329 27.2352 26.9317 27.3061C27.3148 27.613 27.3973 28.1654 27.4354 28.6523C27.4544 28.9041 27.1899 29.0015 26.9401 29.0015H17.9808V28.993ZM9.62266 17.9867C9.62266 20.9316 9.62266 23.8765 9.62266 26.8214C9.62266 26.9928 9.56764 27.1897 9.86819 27.1918C10.1687 27.1939 10.1391 27.0288 10.1455 26.8405C10.1853 25.9867 10.3669 25.1454 10.683 24.3513C11.6037 21.9257 13.3181 20.1604 15.4029 18.7063C16.1649 18.1751 16.1606 17.8195 15.4029 17.2819C12.5456 15.2457 10.3952 12.7566 10.1497 9.0525C10.137 8.86413 10.0671 8.79215 9.87665 8.79003C9.68616 8.78792 9.6142 8.88529 9.6269 9.0652C9.6269 9.17103 9.6269 9.27686 9.6269 9.38057L9.62266 17.9867ZM10.973 27.486H9.56975C9.27132 27.486 8.77393 28.2776 8.89457 28.557C8.9065 28.5817 8.92387 28.6034 8.94537 28.6205C9.39074 28.6671 9.83976 28.6671 10.2851 28.6205C10.3121 28.5873 10.3283 28.5467 10.3317 28.5041C10.3486 28.0914 10.6471 27.8437 10.973 27.4924V27.486Z" fill="white"/>
<path d="M17.9999 26.5716H12.7678C12.1329 26.5716 11.9551 26.36 12.1329 25.725C12.8144 23.238 14.4611 21.5214 16.6305 20.2874C17.6316 19.716 18.728 19.8493 19.7228 20.4483C20.1163 20.6933 20.4906 20.9678 20.8424 21.2695C22.2922 22.476 23.4309 23.8984 23.8966 25.7758C24.0341 26.3346 23.8606 26.5611 23.2743 26.5632L17.9999 26.5716Z" fill="white"/>
<path d="M22.1504 13.8826C22.1417 14.0361 22.0752 14.1805 21.9642 14.2869C21.5006 14.9091 20.8932 15.3812 20.309 15.8786C19.4413 16.6173 18.6878 17.4406 18.2327 18.5031C18.1883 18.609 18.1629 18.7466 18.0041 18.7466C17.8454 18.7466 17.8348 18.6428 17.7925 18.5349C17.2401 17.1909 16.1924 16.2659 15.1151 15.36C14.4547 14.8054 13.86 14.1937 13.5086 13.3852C13.4472 13.2455 13.3118 13.0889 13.4578 12.928C13.6039 12.7671 13.7436 12.909 13.8811 12.9534C14.797 13.25 15.7572 13.3861 16.7194 13.3556C17.6803 13.3556 18.6412 13.2857 19.6021 13.2349C20.2762 13.1673 20.957 13.2196 21.6128 13.3894C21.8647 13.4847 22.1123 13.6117 22.1504 13.8826Z" fill="white"/>
</svg>
