<svg width="36" height="36" viewBox="0 0 36 36" fill="none" xmlns="http://www.w3.org/2000/svg">
<rect width="36" height="36" rx="18" fill="#1D75BD"/>
<path d="M25.5808 28C25.2299 27.9998 24.8833 27.9231 24.5651 27.7754C24.2468 27.6277 23.9645 27.4124 23.7378 27.1446C23.1692 26.4841 22.6021 25.8204 22.0479 25.1486C21.8739 24.9376 21.7128 24.8264 21.4696 25.0262C21.4495 25.0429 21.4258 25.0545 21.4003 25.06C20.5287 25.2211 20.2597 25.8333 20.1002 26.6323C19.8263 28 19.778 27.9952 18.4071 27.9952H17.1956C16.6076 27.9952 16.3353 27.7809 16.1951 27.2187C16.0775 26.7354 15.9535 26.2634 15.8472 25.7817C15.8383 25.6991 15.8032 25.6214 15.7469 25.5602C15.6907 25.4991 15.6163 25.4575 15.5346 25.4418C15.4211 25.4238 15.3119 25.385 15.2124 25.3274C14.6293 24.9182 14.117 25.0681 13.6014 25.4789C13.3391 25.6705 13.061 25.8398 12.7702 25.9847C12.6112 26.0925 12.4186 26.1391 12.2279 26.116C12.0372 26.0929 11.8613 26.0016 11.7327 25.859C11.2494 25.3919 10.7661 24.9118 10.2941 24.4253C9.97187 24.087 9.93159 23.731 10.17 23.3218C10.431 22.8739 10.6995 22.4304 10.9755 21.9911C11.0303 21.9278 11.0621 21.8478 11.0656 21.7641C11.0691 21.6805 11.0442 21.5981 10.9948 21.5304C10.9183 21.4259 10.8635 21.307 10.8337 21.1808C10.7194 20.5074 10.2667 20.2674 9.64967 20.1885C9.34276 20.1366 9.03974 20.0639 8.74268 19.971C8.2191 19.8276 8.00322 19.5522 8 19.0238C8 18.4116 8 17.7994 8 17.1873C8 16.617 8.22716 16.3399 8.79262 16.1998C9.2582 16.0838 9.72378 15.9629 10.1926 15.8598C10.2825 15.8521 10.3672 15.8146 10.4334 15.7534C10.4996 15.6921 10.5436 15.6105 10.5583 15.5215C10.5666 15.4569 10.5874 15.3946 10.6195 15.3379C11.0657 14.671 10.9417 14.0701 10.4455 13.4853C10.2812 13.2667 10.1388 13.0325 10.0202 12.7861C9.79627 12.3818 9.82687 12.0483 10.1459 11.7165C10.6141 11.2289 11.0926 10.7504 11.5813 10.2811C11.7141 10.1335 11.8962 10.0394 12.0935 10.0166C12.2907 9.99377 12.4895 10.0437 12.6526 10.1571C13.0811 10.4019 13.4983 10.6661 13.922 10.9223C13.9858 10.9666 14.0525 11.0064 14.1218 11.0415C14.3586 11.1462 15.5814 10.5292 15.6458 10.2747C15.7763 9.75755 15.8939 9.23882 16.0308 8.72493C16.1678 8.21103 16.4465 8.00322 16.9491 8C17.5935 8 18.225 8 18.863 8C19.3608 8 19.6685 8.24003 19.7861 8.72976C19.9037 9.21949 20.0213 9.69633 20.1276 10.17C20.1358 10.2661 20.1759 10.3567 20.2416 10.4274C20.3073 10.4981 20.3948 10.5447 20.4901 10.5598C20.6069 10.5738 20.7194 10.6122 20.8203 10.6726C21.3777 11.0656 21.8659 10.9207 22.3588 10.534C22.6329 10.3355 22.9222 10.1589 23.2239 10.0056C23.6073 9.7946 23.9457 9.82199 24.263 10.1248C24.7635 10.5995 25.2516 11.0871 25.7274 11.5876C26.0351 11.9098 26.0609 12.2642 25.8321 12.6605C25.5712 13.1116 25.3021 13.5562 25.0266 13.9928C24.9725 14.056 24.9409 14.1353 24.9369 14.2185C24.9328 14.3016 24.9564 14.3837 25.0041 14.4519C25.0885 14.5682 25.1502 14.6994 25.1861 14.8385C25.3021 15.4732 25.7194 15.7132 26.3138 15.789C26.6571 15.8484 26.9953 15.934 27.3255 16.0451C27.519 16.0851 27.6922 16.192 27.8147 16.3469C27.9372 16.5019 28.0013 16.695 27.9957 16.8925C27.9957 17.5691 28.0054 18.2457 27.9957 18.9223C27.9957 19.383 27.7347 19.6714 27.2498 19.7922C26.7649 19.913 26.2832 20.0242 25.8096 20.1321C25.7202 20.1411 25.636 20.1782 25.5691 20.2381C25.5022 20.2981 25.4561 20.3777 25.4374 20.4656C25.3829 20.6511 25.3139 20.8321 25.2312 21.0068C24.9799 21.6206 25.0444 21.938 25.5534 22.3858C26.0996 22.8691 26.6811 23.3153 27.2095 23.8115C27.5652 24.1412 27.8134 24.5702 27.9219 25.0429C28.0304 25.5155 27.9942 26.0098 27.818 26.4616C27.6418 26.9134 27.3337 27.3017 26.9339 27.576C26.5341 27.8504 26.0609 27.9981 25.576 28H25.5808ZM24.3484 21.3613C24.5799 20.9519 24.7575 20.5144 24.8768 20.0596C24.9 19.9318 24.9632 19.8147 25.0573 19.7252C25.1515 19.6358 25.2716 19.5785 25.4004 19.5618C25.9336 19.4491 26.4572 19.2928 26.9904 19.1832C27.0453 19.1804 27.0989 19.166 27.1478 19.1409C27.1967 19.1158 27.2397 19.0806 27.2739 19.0377C27.3082 18.9947 27.3329 18.945 27.3465 18.8918C27.3602 18.8386 27.3623 18.7831 27.3529 18.729C27.3433 18.1828 27.3352 17.6351 27.3529 17.089C27.3642 16.791 27.2305 16.6702 26.9647 16.6057C26.4089 16.4784 25.8563 16.327 25.2989 16.2078C25.1897 16.1955 25.087 16.1497 25.0048 16.0767C24.9226 16.0038 24.865 15.9072 24.8398 15.8002C24.7114 15.3483 24.5246 14.915 24.284 14.5115C24.222 14.4209 24.1909 14.3127 24.1953 14.203C24.1996 14.0933 24.2392 13.988 24.3081 13.9025C24.6142 13.4193 24.8929 12.9199 25.2039 12.4398C25.2376 12.401 25.2627 12.3556 25.2777 12.3064C25.2926 12.2572 25.2969 12.2054 25.2904 12.1544C25.2838 12.1034 25.2665 12.0544 25.2397 12.0106C25.2128 11.9668 25.177 11.9291 25.1346 11.9001C24.7399 11.5232 24.3452 11.1414 23.9763 10.7386C23.7636 10.505 23.5832 10.5115 23.3319 10.671C22.8486 10.9819 22.3556 11.2654 21.8707 11.5683C21.7864 11.6293 21.6861 11.6643 21.5822 11.6689C21.4782 11.6735 21.3752 11.6474 21.2859 11.594C20.8762 11.3677 20.4393 11.1945 19.9858 11.0785C19.8721 11.0535 19.769 10.9934 19.6913 10.9067C19.6135 10.82 19.5649 10.7111 19.5525 10.5952C19.4268 10.0524 19.2818 9.51269 19.1626 8.96819C19.1588 8.91642 19.1443 8.86601 19.1199 8.82016C19.0956 8.77432 19.062 8.73405 19.0212 8.70192C18.9804 8.66979 18.9334 8.6465 18.8831 8.63355C18.8329 8.62059 18.7805 8.61825 18.7293 8.62666C18.1831 8.63633 17.6354 8.646 17.0893 8.62666C16.7671 8.61378 16.6494 8.75393 16.5882 9.03584C16.4642 9.59323 16.3176 10.1442 16.1919 10.7016C16.1785 10.8043 16.1344 10.9006 16.0654 10.9779C15.9965 11.0552 15.9058 11.1099 15.8053 11.1349C15.3434 11.2699 14.9002 11.462 14.4859 11.7068C14.3998 11.7645 14.2974 11.793 14.1938 11.7881C14.0902 11.7832 13.991 11.7451 13.9108 11.6794C13.4387 11.3814 12.9442 11.1075 12.4818 10.8047C12.2482 10.6532 12.0807 10.6436 11.8777 10.8611C11.5071 11.2627 11.1216 11.6499 10.721 12.0226C10.5035 12.2255 10.5099 12.4011 10.6598 12.6347C10.9675 13.118 11.2526 13.611 11.5571 14.0959C11.6224 14.185 11.6597 14.2916 11.6643 14.402C11.6689 14.5125 11.6406 14.6218 11.5829 14.7161C11.3611 15.1132 11.1926 15.5379 11.0818 15.9791C11.0562 16.0996 10.9926 16.2087 10.9004 16.2904C10.8082 16.3722 10.6923 16.4223 10.5695 16.4333C10.0379 16.5493 9.51273 16.7024 8.97949 16.8135C8.92465 16.8172 8.87122 16.8324 8.82267 16.8581C8.77412 16.8839 8.73156 16.9196 8.69779 16.963C8.66402 17.0063 8.63979 17.0563 8.6267 17.1097C8.61361 17.1631 8.61197 17.2186 8.62185 17.2727C8.63313 17.8059 8.6428 18.3407 8.62185 18.8723C8.60574 19.2074 8.75395 19.3331 9.05199 19.3975C9.611 19.5167 10.1636 19.6633 10.7194 19.7906C10.8157 19.8055 10.9056 19.8485 10.9778 19.9141C11.0499 19.9796 11.1012 20.065 11.1253 20.1595C11.2645 20.6332 11.4621 21.0877 11.7134 21.5127C11.7656 21.5946 11.791 21.6909 11.7858 21.788C11.7806 21.8851 11.7451 21.9781 11.6844 22.054C11.3799 22.5372 11.0996 23.0366 10.7886 23.5167C10.6436 23.7406 10.642 23.8985 10.845 24.0886C11.2521 24.472 11.6478 24.8678 12.0323 25.2759C12.224 25.4805 12.39 25.4708 12.6107 25.3306C13.1036 25.0181 13.6095 24.7233 14.1057 24.4156C14.1899 24.3544 14.2904 24.3195 14.3944 24.3152C14.4985 24.3109 14.6015 24.3374 14.6905 24.3915C15.0879 24.613 15.5125 24.782 15.9535 24.8941C16.0745 24.9172 16.1852 24.9779 16.2696 25.0675C16.3541 25.1572 16.4081 25.2713 16.4239 25.3935C16.5447 25.938 16.6946 26.476 16.8122 27.0221C16.8164 27.0736 16.8312 27.1237 16.8557 27.1692C16.8803 27.2146 16.914 27.2545 16.9547 27.2863C16.9954 27.3181 17.0423 27.3411 17.0923 27.3538C17.1424 27.3666 17.1945 27.3689 17.2455 27.3604C17.7916 27.3508 18.3394 27.3411 18.8855 27.3604C19.2077 27.3749 19.3237 27.2316 19.3865 26.9497C19.5041 26.418 19.6636 25.8945 19.7619 25.3596C19.7791 25.2251 19.8384 25.0994 19.9312 25.0004C20.0241 24.9015 20.1458 24.8344 20.279 24.8087C20.6563 24.7025 21.0165 24.5431 21.3487 24.3351C21.0265 23.9629 20.7221 23.6263 20.4434 23.267C20.3962 23.186 20.3189 23.1269 20.2283 23.1028C20.1377 23.0786 20.0413 23.0913 19.9601 23.1381C19.0496 23.5052 18.0541 23.6085 17.0876 23.4362C14.175 22.9207 12.245 20.3608 12.5189 17.4015C12.6359 16.3131 13.075 15.2843 13.7798 14.4467C14.4847 13.6091 15.4234 13.0007 16.4759 12.6995C17.5283 12.3982 18.6468 12.4176 19.6881 12.7553C20.7295 13.093 21.6464 13.7336 22.3218 14.5952C23.5574 16.2175 23.8248 18.0056 23.1611 19.9356C23.1144 20.0677 22.9758 20.2078 23.1611 20.356C23.5461 20.6718 23.9296 21.002 24.3484 21.3613ZM15.5942 18.8643C15.5765 21.0278 17.6032 22.6726 19.6427 22.1538C20.126 22.0314 20.3709 22.1667 20.6592 22.5131C21.832 23.9227 23.029 25.3129 24.2211 26.7016C24.4253 26.9477 24.6925 27.1337 24.9942 27.2397C25.2959 27.3457 25.6208 27.3677 25.934 27.3033C26.2472 27.2389 26.5371 27.0906 26.7725 26.8743C27.008 26.6579 27.1802 26.3816 27.2708 26.0749C27.4995 25.3129 27.2547 24.6718 26.6537 24.1595C25.2167 22.9384 23.7792 21.7184 22.3411 20.4994C22.235 20.4275 22.1564 20.3218 22.1181 20.1995C22.0798 20.0772 22.084 19.9456 22.1301 19.826C22.2863 19.2833 22.3011 18.7096 22.1732 18.1596C22.0453 17.6095 21.7788 17.1013 21.3991 16.6832C21.0194 16.2651 20.5392 15.951 20.0039 15.7708C19.4687 15.5906 18.8962 15.5503 18.341 15.6536C18.2411 15.6698 18.1171 15.6536 18.0832 15.7809C18.0494 15.9082 18.159 15.942 18.2202 15.9984C18.6605 16.4419 19.1019 16.8839 19.5444 17.3242C19.6481 17.4136 19.7307 17.5248 19.7864 17.6498C19.8421 17.7749 19.8695 17.9107 19.8666 18.0475C19.8263 19.0511 19.48 19.4974 18.5182 19.7616C18.457 19.7793 18.3893 19.7857 18.3297 19.8083C17.9399 19.9533 17.6177 19.8357 17.3373 19.5554C17.0055 19.2332 16.6833 18.8836 16.3385 18.5663C16.1549 18.3955 15.9793 18.0169 15.7715 18.1152C15.5282 18.2296 15.6571 18.6371 15.5942 18.8643ZM18.043 22.8208L17.7385 22.7128C15.7602 22.0507 14.6583 20.1998 15.0272 18.1603C15.0884 17.822 15.2205 17.5433 15.5846 17.4321C15.9487 17.321 16.1871 17.4789 16.4175 17.7141C16.7558 18.0556 17.1392 18.3584 17.4276 18.7451C17.7916 19.2284 18.1928 19.2557 18.7035 19.0447C19.0917 18.8836 19.3302 18.0475 19.0386 17.7559C18.5923 17.3 18.1364 16.8522 17.6869 16.4011C17.4646 16.1772 17.3245 15.9323 17.426 15.5957C17.5274 15.259 17.7868 15.1124 18.1122 15.0415C19.0571 14.8464 20.0407 14.9999 20.8811 15.4738C21.7216 15.9476 22.3621 16.7096 22.6842 17.619C22.7181 17.7157 22.7165 17.8381 22.8292 17.9154C22.9662 15.4039 20.6979 13.1518 18.0285 13.1309C15.1899 13.1083 13.0005 15.4072 13.1407 18.2956C13.2873 21.2807 16.0002 22.9948 18.043 22.8208Z" fill="white"/>
<path d="M26.6376 25.6589C26.6537 26.403 25.8853 26.8813 25.2925 26.5093C24.833 26.2139 24.4428 25.8228 24.1486 25.3626C24.0571 25.1948 24.0216 25.0022 24.0476 24.8129C24.0735 24.6236 24.1595 24.4475 24.2928 24.3106C24.4261 24.1737 24.5999 24.0831 24.7885 24.0522C24.9771 24.0212 25.1706 24.0515 25.3408 24.1385C25.8154 24.4557 26.2227 24.8635 26.5394 25.3384C26.5902 25.4388 26.6234 25.5472 26.6376 25.6589ZM25.0266 24.6926C24.8559 24.6926 24.7721 24.7232 24.7286 24.815C24.6995 24.8663 24.6884 24.926 24.6972 24.9843C24.7059 25.0427 24.734 25.0965 24.7769 25.1371L25.4874 25.8522C25.6098 25.9778 25.7564 26.039 25.895 25.9085C26.0335 25.7781 25.982 25.6074 25.845 25.4737C25.6243 25.2563 25.4068 25.034 25.1877 24.815C25.1424 24.7636 25.0863 24.7229 25.0234 24.6958L25.0266 24.6926Z" fill="white"/>
</svg>
