<svg width="36" height="36" viewBox="0 0 36 36" fill="none" xmlns="http://www.w3.org/2000/svg">
<rect width="36" height="36" rx="18" fill="#1D75BD"/>
<path d="M18.0199 8C20.361 8.00755 22.6912 8.32517 24.9517 8.94484C25.8353 9.16978 26.6179 9.69268 27.1718 10.4282C27.7257 11.1638 28.0182 12.0685 28.0016 12.9949C28.0016 13.339 28.0016 13.6831 28.0016 14.0244C28.0017 14.2599 27.9481 14.4923 27.8451 14.7032C27.7421 14.9142 27.5925 15.098 27.408 15.2404C27.2235 15.3827 27.0091 15.4796 26.7816 15.5236C26.5541 15.5676 26.3197 15.5574 26.0968 15.4938C25.3981 15.2936 24.7104 15.0623 24.02 14.8226C23.7221 14.7205 23.4633 14.5255 23.2806 14.2652C23.0979 14.0049 23.0006 13.6927 23.0025 13.3729C23.0025 13.0231 23.1633 12.5465 22.922 12.3575C22.6808 12.1686 22.251 12.2927 21.9017 12.2927C19.0763 12.2927 16.2537 12.2927 13.4311 12.2927C13.079 12.2927 12.9653 12.3885 13.0096 12.7326C13.0225 12.9204 13.0225 13.1089 13.0096 13.2967C13.0335 13.6496 12.936 14 12.7336 14.2877C12.5312 14.5754 12.2367 14.7824 11.9006 14.8733C11.2601 15.0905 10.6196 15.302 9.95967 15.4938C9.73395 15.5664 9.49449 15.5832 9.26108 15.543C9.02768 15.5028 8.80705 15.4066 8.61741 15.2625C8.42777 15.1184 8.27458 14.9304 8.17049 14.7141C8.0664 14.4979 8.01439 14.2595 8.01879 14.0187C7.97722 13.4251 7.99674 12.8286 8.07702 12.2391C8.41251 10.5468 9.39683 9.45251 11.0133 8.9815C13.2942 8.33243 15.6514 8.00222 18.0199 8ZM17.9811 11.7314H22.972C23.5071 11.7314 23.5265 11.7314 23.5404 12.2729C23.5328 12.3368 23.5491 12.4013 23.5861 12.4535C23.6231 12.5058 23.678 12.542 23.74 12.5549C24.9017 12.9244 26.0607 13.308 27.2225 13.6831C27.3528 13.7254 27.436 13.7282 27.4499 13.5421C27.6134 11.4268 26.4656 9.9489 24.8408 9.50328C20.5288 8.32377 15.9938 8.27137 11.6566 9.35097C9.34413 9.90095 8.44025 11.5763 8.55116 13.4518C8.56502 13.6888 8.60383 13.7339 8.84229 13.6662C9.95136 13.2911 11.0882 12.9301 12.2167 12.5719C12.3886 12.5183 12.4939 12.4421 12.4579 12.2447C12.4024 11.8386 12.5937 11.7173 12.9764 11.7229C14.6483 11.7399 16.3147 11.7314 17.9811 11.7314ZM12.4357 13.0908C11.3266 13.4518 10.2425 13.8044 9.16114 14.1626C8.98923 14.2218 8.68424 14.2021 8.68424 14.4023C8.68424 14.6505 8.93379 14.8141 9.17224 14.9156C9.39173 15.0017 9.63482 15.0017 9.85431 14.9156C10.4588 14.7154 11.066 14.5292 11.6704 14.3318C12.2749 14.1344 12.4856 13.7988 12.4385 13.0908H12.4357ZM23.5709 13.0908C23.5265 13.7593 23.7234 14.1203 24.2308 14.298C24.8925 14.5292 25.5589 14.7473 26.2299 14.9523C26.4186 15.0085 26.62 15.0022 26.8049 14.9343C26.9899 14.8663 27.1487 14.7403 27.2585 14.5744C27.3445 14.4446 27.4194 14.3374 27.1809 14.2641C25.9859 13.8721 24.7908 13.4885 23.5736 13.0908H23.5709Z" fill="white"/>
<path d="M17.8341 27.9995C15.9857 27.9995 14.1372 27.9995 12.2887 27.9995C10.8636 27.9995 10.029 27.1364 9.98464 25.6896C9.93165 24.2578 10.1578 22.8296 10.6501 21.4872C11.2961 19.7357 11.8673 17.956 12.4523 16.182C12.5803 15.7066 12.8501 15.2834 13.2246 14.9707C13.599 14.658 14.0597 14.4712 14.543 14.4362C14.7759 14.4108 14.8202 14.3233 14.8036 14.1203C14.8036 14.0808 14.8036 14.0413 14.8036 14.0018C14.7204 12.916 15.1557 12.7947 15.9404 12.8313C16.4644 12.8567 16.7278 13.1134 16.7473 13.638C16.775 14.4221 16.775 14.4221 17.5541 14.4221C17.9173 14.4221 18.2833 14.4221 18.6465 14.4221C18.8545 14.4221 18.9737 14.3769 18.9404 14.14C18.9404 14.0864 18.9404 14.0328 18.9404 13.9793C18.86 12.9216 19.2787 12.7862 20.0911 12.8257C20.1955 12.8161 20.3006 12.8296 20.3993 12.8653C20.4981 12.9011 20.588 12.9582 20.6629 13.0328C20.7377 13.1073 20.7958 13.1975 20.833 13.2972C20.8703 13.3968 20.8858 13.5035 20.8786 13.6098C20.8786 13.8608 20.8148 14.1739 20.9312 14.3403C21.0477 14.5067 21.3582 14.4418 21.5773 14.5095C21.9389 14.6022 22.2718 14.7855 22.546 15.0427C22.8201 15.2998 23.0266 15.6226 23.1466 15.9817C23.898 18.1704 24.6272 20.3675 25.3648 22.5646C25.7557 23.7294 25.7169 24.9393 25.6421 26.1352C25.5727 27.2098 24.6273 27.9769 23.5043 27.9797C21.6133 28.0051 19.7279 27.9995 17.8341 27.9995ZM17.8147 27.4354C19.6891 27.4354 21.5634 27.4354 23.4378 27.4354C24.3472 27.4354 25.0404 26.8713 25.0875 26.0252C25.1485 24.9422 25.1901 23.8478 24.8435 22.8015C24.1152 20.5865 23.3703 18.3791 22.6087 16.1792C22.3315 15.412 21.6993 14.9946 20.8481 14.9918C18.8425 14.9918 16.8387 14.9918 14.8369 14.9918C14.4229 14.9628 14.012 15.0816 13.6749 15.3277C13.3379 15.5738 13.0957 15.9318 12.9902 16.3399C12.505 17.7501 12.0309 19.1829 11.5401 20.5987C10.9856 22.2205 10.4615 23.8281 10.5336 25.6021C10.5835 26.8685 11.3848 27.4579 12.3497 27.441C14.1769 27.41 15.9986 27.4382 17.8341 27.4382L17.8147 27.4354ZM16.1705 13.9651C16.1983 13.6408 16.2177 13.4011 15.7602 13.4011C15.3027 13.4011 15.3526 13.6549 15.3359 13.9651C15.3193 14.2754 15.3554 14.4756 15.774 14.4756C16.1927 14.4756 16.226 14.2585 16.1705 13.9651ZM19.4978 13.9257C19.4978 14.2077 19.4201 14.4644 19.8776 14.4531C20.2824 14.4531 20.3517 14.3008 20.3212 13.9482C20.2991 13.6662 20.3767 13.3841 19.9053 13.3841C19.434 13.3841 19.4673 13.6323 19.4978 13.9257Z" fill="white"/>
<path d="M16.908 18.6216C16.908 17.8573 17.08 17.6853 17.8563 17.6853C18.5911 17.6853 18.7824 17.8883 18.7796 18.6668C18.7796 19.3916 18.5661 19.589 17.7925 19.589C17.0855 19.589 16.908 19.3944 16.908 18.6216ZM17.8452 19.0165C18.1558 19.1096 18.2251 18.9432 18.2306 18.6442C18.2362 18.3452 18.1613 18.2268 17.8425 18.2324C17.5236 18.2381 17.4376 18.3114 17.4487 18.6301C17.4598 18.9488 17.4931 19.0983 17.8341 19.0165H17.8452Z" fill="white"/>
<path d="M16.908 23.8084C16.908 23.0243 17.08 22.8466 17.8341 22.8466C18.5883 22.8466 18.7796 23.0468 18.7796 23.8084C18.7796 24.5699 18.5772 24.7504 17.8147 24.7504C17.0522 24.7504 16.908 24.5642 16.908 23.8084ZM17.4626 23.7914C17.396 24.0735 17.4626 24.2145 17.8064 24.2004C18.0837 24.1863 18.2445 24.1637 18.2251 23.8225C18.2251 23.5404 18.1946 23.374 17.8508 23.3966C17.5901 23.4135 17.385 23.422 17.4681 23.7914H17.4626Z" fill="white"/>
<path d="M15.3082 17.6853C16.0541 17.6853 16.2204 17.8658 16.2204 18.6611C16.2204 19.4565 16.0402 19.589 15.2611 19.589C14.5485 19.589 14.3489 19.3775 14.3489 18.6301C14.3489 17.8827 14.5485 17.6853 15.3082 17.6853ZM15.3082 19.0221C15.6548 19.1039 15.6742 18.898 15.6825 18.6188C15.6908 18.3396 15.6104 18.2296 15.3137 18.2324C15.0171 18.2352 14.8978 18.3086 14.9034 18.6329C14.9089 18.9573 14.981 19.0898 15.3027 19.0221H15.3082Z" fill="white"/>
<path d="M16.2204 23.7914C16.2204 24.5727 16.0513 24.7504 15.2916 24.7504C14.5319 24.7504 14.3489 24.5473 14.3489 23.783C14.3489 23.0186 14.554 22.8466 15.3193 22.8466C16.0846 22.8466 16.2204 23.0327 16.2204 23.7914ZM15.6659 23.8253C15.7158 23.5432 15.6659 23.3853 15.311 23.3938C14.9561 23.4022 14.8923 23.4727 14.9062 23.7971C14.9062 24.065 14.9505 24.2145 15.2694 24.1976C15.5273 24.1835 15.7435 24.1835 15.6603 23.8253H15.6659Z" fill="white"/>
<path d="M21.3 18.6329C21.3 19.4113 21.1253 19.589 20.3656 19.589C19.6059 19.589 19.4257 19.386 19.4284 18.6188C19.4312 17.8517 19.6308 17.6853 20.3989 17.6853C21.1669 17.6853 21.3 17.8686 21.3 18.6329ZM20.7455 18.6329C20.8092 18.3227 20.6956 18.224 20.3767 18.2211C20.0578 18.2183 19.9885 18.3424 19.9885 18.6386C19.9885 18.9347 20.0634 19.0306 20.3628 19.0278C20.6623 19.025 20.812 18.977 20.7371 18.6442L20.7455 18.6329Z" fill="white"/>
<path d="M21.3 23.8055C21.3 24.5783 21.1281 24.7504 20.3573 24.7504C19.5865 24.7504 19.4257 24.5473 19.4284 23.7717C19.4312 22.9961 19.6364 22.8438 20.4072 22.8466C21.1253 22.8466 21.3 23.0356 21.3 23.8055ZM20.7455 23.8055C20.8148 23.4868 20.6817 23.3966 20.3712 23.4022C20.0606 23.4079 19.983 23.4868 19.9885 23.783C19.9941 24.0791 20.0273 24.2201 20.3712 24.2089C20.6623 24.1919 20.8092 24.1242 20.7371 23.7999L20.7455 23.8055Z" fill="white"/>
<path d="M16.2204 21.2051C16.2204 22.0005 16.0624 22.1669 15.2971 22.1669C14.5318 22.1669 14.3489 21.9695 14.3489 21.2164C14.3489 20.4634 14.5485 20.2716 15.3054 20.2716C16.0624 20.2716 16.2204 20.4408 16.2204 21.2051ZM15.2971 21.5887C15.5744 21.6479 15.6797 21.5436 15.6797 21.2361C15.6797 20.9287 15.6077 20.8215 15.2916 20.8328C15.0143 20.8328 14.8951 20.8892 14.8978 21.2023C14.9006 21.5154 14.981 21.6507 15.2971 21.5859V21.5887Z" fill="white"/>
<path d="M21.3 21.2051C21.3 21.9892 21.1336 22.1556 20.3656 22.1556C19.5976 22.1556 19.4257 21.9582 19.4284 21.1938C19.4312 20.4295 19.6308 20.2603 20.3961 20.2603C21.1614 20.2603 21.3 20.4464 21.3 21.2051ZM20.385 21.5774C20.6845 21.6451 20.7482 21.5041 20.7566 21.2164C20.7649 20.9287 20.6623 20.8187 20.3628 20.8216C20.0634 20.8244 19.9802 20.9005 19.9802 21.1995C19.9802 21.4984 20.08 21.6479 20.385 21.5859V21.5774Z" fill="white"/>
<path d="M16.908 21.222C16.908 20.438 17.0716 20.2687 17.8397 20.2687C18.6077 20.2687 18.7796 20.469 18.7796 21.2305C18.7796 21.992 18.5772 22.1669 17.8119 22.1641C17.0467 22.1612 16.908 21.9864 16.908 21.222ZM17.848 21.5859C18.1253 21.6451 18.2251 21.5238 18.2334 21.2249C18.2417 20.9259 18.1114 20.8441 17.8231 20.83C17.4848 20.8131 17.4598 20.9682 17.4487 21.2474C17.4349 21.5802 17.5874 21.6282 17.848 21.5859Z" fill="white"/>
</svg>
