<svg width="36" height="36" viewBox="0 0 36 36" fill="none" xmlns="http://www.w3.org/2000/svg">
<rect width="36" height="36" rx="18" fill="#1D75BD"/>
<path d="M26.427 8.00514C27.0146 8.00514 27.0635 8.05486 27.0635 8.62406C27.0635 12.6238 27.0023 16.6254 27.088 20.6251C27.1335 22.7185 26.2363 24.2118 24.582 25.3724C22.6425 26.7337 20.4302 27.4812 18.1323 27.9852C18.0401 28.0049 17.9446 28.0049 17.8524 27.9852C15.5335 27.4709 13.3055 26.7286 11.3678 25.3519C10.1716 24.5049 9.22545 23.466 8.96487 21.9641C8.92496 21.7118 8.90682 21.4565 8.91066 21.2012C8.91066 16.9974 8.91066 12.7947 8.91066 8.5932C8.91066 8.05486 8.96837 8 9.53149 8L26.427 8.00514ZM26.4042 8.68063H9.58746C9.57871 8.79036 9.56822 8.86922 9.56822 8.9498C9.56822 13.0987 9.56822 17.2477 9.56822 21.3966C9.56786 21.5582 9.5825 21.7194 9.61194 21.8784C9.86202 23.1659 10.6875 24.0609 11.7228 24.8015C13.4349 26.0256 15.3953 26.7165 17.4205 27.2189C17.7888 27.3063 18.1731 27.3063 18.5415 27.2189C20.5859 26.7148 22.5516 26.0188 24.2742 24.7792C25.6855 23.766 26.4585 22.4802 26.4235 20.6646C26.3465 16.8397 26.399 13.013 26.399 9.18811L26.4042 8.68063Z" fill="white"/>
<path d="M24.3564 10.083C24.9265 10.083 24.9825 10.1345 24.9825 10.6728C24.9825 14.1486 24.9825 17.6249 24.9825 21.1018C24.9825 22.1493 24.4088 22.8762 23.6289 23.478C22.1249 24.6404 20.362 25.2661 18.5573 25.7822C18.1906 25.8911 17.7994 25.8911 17.4327 25.7822C15.6192 25.2679 13.8616 24.6352 12.3506 23.4814C11.443 22.7956 10.9656 21.923 10.9831 20.7383C11.0285 17.4243 10.9988 14.1086 10.9988 10.7945C10.9988 10.0899 10.9988 10.0813 11.6983 10.0813L24.3564 10.083ZM11.6529 10.7431V11.218C11.6529 14.3966 11.6756 17.5752 11.6389 20.7537C11.6185 21.1838 11.7081 21.6121 11.8996 21.9995C12.0911 22.387 12.3784 22.7214 12.7354 22.9722C14.0697 23.9889 15.621 24.5495 17.2037 25.0535C17.7098 25.2232 18.2592 25.2232 18.7654 25.0535C20.362 24.5392 21.9273 23.9786 23.2651 22.9448C23.6103 22.7007 23.8886 22.3766 24.075 22.0015C24.2614 21.6264 24.3503 21.2118 24.3336 20.7949C24.3004 17.6026 24.3214 14.4103 24.3214 11.218V10.7465L11.6529 10.7431Z" fill="white"/>
<path d="M16.9116 18.5147C17.2614 18.1598 17.5639 17.8203 17.8892 17.4963C18.7391 16.6562 19.5961 15.823 20.4477 14.9846C20.6104 14.8252 20.787 14.7258 20.9724 14.9126C21.1578 15.0995 21.0738 15.2744 20.9094 15.4355C19.6573 16.6608 18.4063 17.8872 17.1564 19.1147C16.9326 19.3359 16.7367 19.3256 16.5339 19.0907C16.0302 18.5044 15.509 17.9318 15.0264 17.33C14.9835 17.2572 14.9595 17.1752 14.9565 17.0912C14.9534 17.0073 14.9714 16.9238 15.0089 16.8482C15.1715 16.6356 15.3709 16.7574 15.5213 16.9288L16.9116 18.5147Z" fill="white"/>
</svg>
