<svg width="36" height="36" viewBox="0 0 36 36" fill="none" xmlns="http://www.w3.org/2000/svg">
<rect width="36" height="36" rx="18" fill="#1D75BD"/>
<path d="M19.6547 9.40611V10.2611C19.6547 12.4023 19.661 14.5443 19.6477 16.6863C19.6477 17.0148 19.7354 17.097 20.0394 17.097C21.5625 17.0814 23.0856 17.0887 24.6087 17.0904C25.3859 17.0904 25.7307 17.4493 25.7315 18.2534C25.7315 19.7679 25.7393 21.2824 25.726 22.7961C25.726 23.0778 25.7879 23.1608 26.0668 23.1641C27.1934 23.1747 27.9926 24.0379 27.9981 25.2174C28.0012 25.8585 28.0012 26.4997 27.9981 27.1409C27.9981 27.7158 27.7301 27.9992 27.184 28C21.0666 28 14.9488 28 8.83079 28C8.26041 28 8.00343 27.7191 7.99951 27.1187C7.99951 26.6547 7.99951 26.1915 7.99951 25.7274C8.00421 24.4626 8.783 23.4277 9.97312 23.2027C10.328 23.1361 10.3515 22.9825 10.3508 22.6811C10.3429 19.3663 10.3414 16.0514 10.3461 12.7366C10.3461 11.8331 10.6109 11.4537 11.4171 11.1637C11.7603 11.0405 12.2076 10.9995 12.409 10.7481C12.6299 10.4722 12.4599 9.98925 12.4795 9.5983C12.4928 9.32644 12.474 9.04966 12.5132 8.78273C12.5915 8.26447 12.9676 7.97537 13.491 8.00165C13.7141 8.0085 13.9262 8.10469 14.0837 8.27044C14.2413 8.43618 14.3322 8.65889 14.3379 8.89278C14.354 9.1789 14.354 9.46576 14.3379 9.75188C14.3176 10.064 14.4014 10.1223 14.6882 10.018C15.9872 9.54656 17.3074 9.13507 18.5899 8.62175C19.212 8.37535 19.6226 8.42956 20.0786 8.9626C20.7289 9.7215 21.4614 10.4057 22.1752 11.103C22.35 11.2654 22.4875 11.4671 22.5773 11.6931C22.6671 11.9192 22.707 12.1636 22.6939 12.408C22.6727 13.5127 22.6868 14.6182 22.6876 15.7229C22.6876 15.957 22.7174 16.2387 22.3954 16.2305C22.0733 16.2223 22.1156 15.934 22.1156 15.7056C22.1156 14.6281 22.1055 13.5497 22.1156 12.4721C22.125 12.2892 22.0947 12.1065 22.0268 11.9378C21.9589 11.769 21.8554 11.6186 21.7239 11.498C21.0572 10.841 20.4022 10.1609 19.6547 9.40611ZM19.0859 20.2763L15.666 21.4795C15.5547 21.5181 15.4458 21.5617 15.333 21.5945C15.1543 21.643 14.982 21.6274 14.9107 21.4171C14.8394 21.2069 14.9616 21.0886 15.141 21.0212L15.362 20.9391L18.7929 19.7268C18.9362 19.6759 19.0969 19.6611 19.0898 19.4262C19.0773 18.9926 19.0859 18.5573 19.0859 18.085C18.9292 18.1318 18.8093 18.1671 18.6887 18.2066C17.5322 18.6123 16.3758 19.0191 15.2194 19.4271C14.457 19.6948 13.6923 19.9576 12.9308 20.2295C12.7373 20.2985 12.5908 20.2599 12.521 20.0562C12.4513 19.8525 12.561 19.7219 12.7412 19.6496C12.8015 19.625 12.8634 19.6045 12.9245 19.5823C14.5699 19.0024 16.223 18.4324 17.8676 17.8378C18.2765 17.6908 18.8563 17.6998 19.0428 17.3195C19.2293 16.9393 19.0796 16.4161 19.0773 15.9496C19.0748 15.9346 19.0706 15.92 19.0647 15.906C18.9174 15.888 18.7913 15.9635 18.6581 16.0104L13.0123 17.998C12.8148 18.0669 12.6127 18.1154 12.5265 17.8493C12.4403 17.5832 12.6049 17.4781 12.8172 17.4189C12.8799 17.4017 12.9386 17.3713 13.0005 17.3499C14.9331 16.6682 16.8637 15.9868 18.7921 15.3057C18.9182 15.2613 19.089 15.2646 19.089 15.0511C19.089 14.5969 19.089 14.1427 19.089 13.6548L13.0123 15.7845C12.8156 15.8535 12.6135 15.9052 12.5249 15.6399C12.4364 15.3746 12.597 15.2671 12.8109 15.2071C12.8893 15.1857 12.9582 15.1554 13.0319 15.1291C14.9498 14.4507 16.8678 13.7723 18.7858 13.0938C18.912 13.0495 19.0851 13.0544 19.0851 12.8417V11.4356C17.7587 11.9021 16.4925 12.3481 15.2264 12.7924C14.4641 13.0602 13.7002 13.323 12.9394 13.5957C12.7475 13.6647 12.5994 13.6367 12.5242 13.4314C12.449 13.2261 12.5539 13.0938 12.7334 13.0207C12.8054 12.9895 12.8799 12.9674 12.9543 12.9386C14.6271 12.3514 16.3014 11.769 17.9686 11.1736C18.3361 11.043 18.8477 11.0373 19.0248 10.7301C19.2019 10.4229 19.0608 9.93504 19.0882 9.52767C19.1117 9.17942 19.024 9.117 18.7012 9.23445C16.357 10.0738 14.0057 10.8943 11.6568 11.7222C11.0206 11.9465 10.9478 12.0508 10.9478 12.7505C10.9478 17.0904 10.9478 21.4303 10.9478 25.7701C10.9478 26.2202 10.9541 26.6736 10.9478 27.1212C10.9478 27.3282 11.0081 27.416 11.2157 27.4078C11.5409 27.3939 11.8676 27.3922 12.192 27.4078C12.416 27.4193 12.4889 27.3298 12.485 27.1015C12.4748 26.4871 12.4764 25.8695 12.485 25.2593C12.4913 24.6958 12.6621 24.4626 13.1674 24.3147C13.9671 24.0798 14.7676 23.8482 15.5688 23.6199C16.2285 23.4302 16.5356 23.6749 16.5396 24.396C16.5435 25.2831 16.5474 26.1701 16.5356 27.0571C16.5356 27.3191 16.6046 27.4169 16.867 27.4095C17.504 27.3922 18.1426 27.3947 18.7803 27.4095C19.0201 27.4144 19.0937 27.3331 19.0937 27.0809C19.0804 26.3984 19.089 25.7159 19.089 25.0334L19.0859 20.2763ZM19.6539 21.5682C19.6539 22.7411 19.6625 23.9139 19.6477 25.0876C19.6437 25.3849 19.7143 25.4909 20.0151 25.4868C21.2248 25.4695 22.4361 25.472 23.6466 25.4868C23.9177 25.4868 24.0054 25.4005 24.0039 25.1172C24.0039 24.3887 24.3321 23.84 24.9072 23.4556C25.0678 23.348 25.1423 23.2413 25.1423 23.0368C25.1344 21.427 25.1344 19.8172 25.1423 18.2074C25.1423 17.8132 24.9613 17.6826 24.6111 17.6834C23.0754 17.69 21.5398 17.6924 20.0041 17.6834C19.7315 17.6834 19.6469 17.7655 19.6508 18.053C19.6625 19.2217 19.6539 20.3946 19.6539 21.5682ZM21.8665 26.1052H20.5432C19.6257 26.1052 19.6359 26.1052 19.6484 27.0752C19.6484 27.3536 19.7456 27.4152 19.9908 27.4128C21.0289 27.4004 22.0679 27.4078 23.106 27.4078C24.0109 27.4078 24.0007 27.4078 24.0023 26.4699C24.0023 26.1923 23.9388 26.0888 23.6583 26.0986C23.0613 26.12 22.4635 26.1052 21.8665 26.1052ZM25.9869 25.4761C26.3637 25.4761 26.7414 25.4629 27.1174 25.4802C27.3666 25.4917 27.4238 25.3833 27.4128 25.1426C27.376 24.3213 26.786 23.7464 25.9767 23.7464C25.6149 23.7424 25.2657 23.8856 25.0027 24.1461C24.7396 24.4065 24.5832 24.7637 24.5664 25.1426C24.5562 25.3767 24.6009 25.4958 24.8571 25.4835C25.2332 25.4654 25.61 25.4761 25.9869 25.4761ZM25.9869 26.1019H25.4815C24.5147 26.1019 24.5233 26.1019 24.5594 27.1179C24.568 27.3643 24.6573 27.4111 24.8626 27.4078C25.4063 27.3972 25.9516 27.4136 26.4954 27.4021C27.5358 27.3807 27.3972 27.6329 27.4152 26.3869C27.4191 26.1405 27.3219 26.0913 27.1151 26.0986C26.7422 26.1142 26.3653 26.1052 25.9892 26.1052L25.9869 26.1019ZM15.9645 25.8153V25.0761C15.9645 24.1176 15.9645 24.1242 15.094 24.3813C14.8707 24.447 14.7869 24.5521 14.7955 24.8018C14.8143 25.3767 14.801 25.9459 14.801 26.5183C14.801 27.4563 14.801 27.4489 15.7012 27.4062C15.9057 27.3963 15.9731 27.3298 15.9676 27.1195C15.959 26.6908 15.9668 26.2547 15.9668 25.8186L15.9645 25.8153ZM14.2314 26.0617V25.5689C14.2314 24.5734 14.2314 24.5792 13.3233 24.9028C13.1282 24.9726 13.064 25.0786 13.071 25.288C13.0844 25.7093 13.075 26.1315 13.075 26.5537C13.075 27.4571 13.075 27.4571 13.9627 27.4078C14.1632 27.3972 14.24 27.3331 14.2337 27.1212C14.2283 26.7721 14.233 26.4181 14.2337 26.0641L14.2314 26.0617ZM9.46385 26.1036C9.24291 26.1036 9.02197 26.1036 8.80102 26.1036C8.7117 26.1036 8.59888 26.0945 8.59731 26.2284C8.59261 26.5684 8.5887 26.9085 8.61063 27.2468C8.62004 27.4013 8.76733 27.4037 8.88642 27.4037C9.24996 27.4037 9.61428 27.3857 9.97704 27.4103C10.2599 27.4292 10.357 27.3487 10.3531 27.0317C10.3445 26.1052 10.3594 26.1052 9.4662 26.106L9.46385 26.1036ZM9.4521 25.4769C9.63309 25.4769 9.81642 25.4621 9.99584 25.4769C10.2575 25.504 10.3711 25.4202 10.3508 25.1229C10.3269 24.7705 10.3269 24.4167 10.3508 24.0642C10.3711 23.7735 10.2528 23.7505 10.0374 23.8039C9.75033 23.8648 9.48191 23.9986 9.2556 24.1935C9.02928 24.3883 8.85195 24.6384 8.73913 24.9217C8.52915 25.4145 8.56676 25.4728 9.06662 25.4736L9.4521 25.4769ZM13.0757 10.5691C13.3398 10.4278 13.7096 10.5256 13.7589 10.1716C13.8154 9.7716 13.7832 9.35601 13.7644 8.94863C13.7645 8.90012 13.7548 8.85215 13.736 8.80782C13.7172 8.76348 13.6898 8.72377 13.6554 8.69126C13.6211 8.65875 13.5806 8.63415 13.5366 8.61906C13.4927 8.60398 13.4461 8.59874 13.4001 8.60368C13.1933 8.61107 13.0742 8.74577 13.075 8.97902C13.0797 9.49563 13.0781 10.0106 13.0781 10.5716L13.0757 10.5691Z" fill="white"/>
<path d="M14.1648 21.7935C14.1566 21.862 14.1296 21.9267 14.0871 21.9795C14.0445 22.0322 13.9882 22.0709 13.925 22.0908C13.5834 22.2099 13.2411 22.3265 12.901 22.4481C12.7224 22.5113 12.5923 22.4522 12.5242 22.2772C12.5062 22.2405 12.4964 22.2 12.4953 22.1587C12.4942 22.1174 12.502 22.0765 12.518 22.0387C12.534 22.001 12.5578 21.9675 12.5878 21.9407C12.6177 21.9139 12.653 21.8945 12.691 21.8838C13.0538 21.7466 13.4197 21.6177 13.7879 21.5101C14.0034 21.4518 14.1319 21.5717 14.1648 21.7935Z" fill="white"/>
<path d="M22.4032 20.7857C22.8443 20.7857 23.2862 20.7808 23.7273 20.7857C24.1151 20.7914 24.2985 20.9795 24.3227 21.3762C24.3267 21.4304 24.3227 21.4855 24.3227 21.5405C24.329 22.4776 24.2405 22.5721 23.3567 22.5721C22.6304 22.5721 21.9033 22.5721 21.1762 22.5721C20.6027 22.5721 20.4468 22.4012 20.4421 21.7877C20.4421 21.6522 20.4358 21.5159 20.4421 21.377C20.4688 20.9713 20.6466 20.7898 21.036 20.7841C21.4943 20.7808 21.9488 20.7857 22.4032 20.7857ZM22.3766 21.9355C22.7401 21.9355 23.1044 21.929 23.468 21.9355C23.645 21.9405 23.7289 21.8887 23.7218 21.685C23.7148 21.5159 23.7022 21.3984 23.4946 21.4009C22.7545 21.408 22.0141 21.408 21.2734 21.4009C21.072 21.4009 21.0454 21.5011 21.0384 21.6777C21.0336 21.8715 21.0948 21.9421 21.2828 21.9364C21.6487 21.929 22.013 21.9372 22.3766 21.9372V21.9355Z" fill="white"/>
<path d="M22.3648 20.2198C21.9362 20.2198 21.5084 20.2198 21.0799 20.2198C20.9772 20.2198 20.8574 20.2354 20.7735 20.1886C20.2752 19.9085 20.4601 19.4067 20.4601 18.9829C20.4562 18.6486 20.667 18.4597 20.989 18.4581C21.9229 18.4523 22.8568 18.4507 23.7907 18.4581C24.1331 18.4581 24.3063 18.6716 24.3259 19.0256C24.3259 19.0659 24.3259 19.1077 24.3259 19.148C24.3423 20.1508 24.2796 20.2198 23.3387 20.2198H22.3648ZM22.3758 19.065C22.013 19.065 21.6503 19.0724 21.2883 19.065C21.1065 19.0593 21.0305 19.1168 21.0423 19.3172C21.0517 19.4897 21.0368 19.635 21.2773 19.6309C22.0154 19.6205 22.7537 19.6205 23.4922 19.6309C23.7351 19.6309 23.7101 19.4757 23.7218 19.3081C23.7359 19.0979 23.6348 19.0617 23.4648 19.0667C23.1013 19.07 22.7385 19.0642 22.3765 19.0642L22.3758 19.065Z" fill="white"/>
<path d="M21.4207 23.1552C21.5774 23.1552 21.7341 23.1503 21.8908 23.1552C22.2003 23.1675 22.3609 23.3384 22.386 23.6628C22.4761 24.8061 21.8179 25.3013 20.7688 24.8734C20.7319 24.8618 20.6974 24.8431 20.667 24.8184C20.3042 24.4439 20.4382 23.9782 20.4883 23.5494C20.5291 23.2004 20.8135 23.1322 21.1151 23.1519C21.2186 23.1585 21.3228 23.1519 21.4285 23.1519L21.4207 23.1552ZM21.4473 24.3051C21.5703 24.2591 21.8148 24.4192 21.8226 24.0537C21.8305 23.6882 21.6236 23.7449 21.4183 23.7474C21.2311 23.7474 21.0391 23.6915 21.0352 24.0283C21.0305 24.3814 21.2366 24.296 21.4473 24.3083V24.3051Z" fill="white"/>
</svg>
