<svg width="36" height="36" viewBox="0 0 36 36" fill="none" xmlns="http://www.w3.org/2000/svg">
<rect width="36" height="36" rx="18" fill="#1D75BD"/>
<path d="M21.8891 22.8972C20.3914 20.6473 15.6553 20.6457 14.124 22.8972C14.6893 23.2062 15.1744 23.6509 15.5386 24.1936C15.6041 24.2942 15.6633 24.3965 15.724 24.5004C15.8423 24.7066 15.8839 24.9194 15.6441 25.0513C15.4043 25.1833 15.2893 25.02 15.1822 24.8254C14.9561 24.4007 14.6409 24.0336 14.2594 23.751C13.878 23.4685 13.4402 23.2776 12.9779 23.1924C12.1609 23.0225 11.3124 23.1347 10.5634 23.5118C9.81432 23.8889 9.20634 24.5099 8.83325 25.279C8.32335 26.3676 8.90998 27.349 10.0784 27.3507H18.3166C18.4334 27.3452 18.5503 27.3479 18.6667 27.3589C18.7392 27.3639 18.8073 27.3968 18.8574 27.4512C18.9074 27.5057 18.9358 27.5775 18.9368 27.6525C18.9406 27.6927 18.9364 27.7332 18.9247 27.7718C18.913 27.8103 18.8939 27.846 18.8685 27.8767C18.8432 27.9075 18.8121 27.9327 18.7772 27.9508C18.7422 27.969 18.7041 27.9797 18.6651 27.9824C18.5749 27.9934 18.484 27.9962 18.3934 27.9907C15.6079 27.9907 12.8224 27.9907 10.0369 27.9907C8.4848 27.9907 7.59288 26.5523 8.23224 25.0876C8.64119 24.1727 9.33641 23.4262 10.2061 22.9681C11.0758 22.5101 12.0695 22.3672 13.0275 22.5623C13.3472 22.6316 13.5518 22.592 13.7756 22.3001C14.375 21.5149 15.2013 21.0646 16.1316 20.8271C16.4289 20.7512 16.5648 20.6358 16.6111 20.2877C16.829 18.7486 16.9687 17.1988 17.0299 15.6446C17.0443 15.3147 16.95 15.3015 16.6815 15.3757C15.2701 15.765 13.8459 15.9481 12.4185 15.4747C10.4173 14.8149 9.27921 13.2792 8.56792 11.3379C8.30182 10.5818 8.11637 9.7981 8.01486 9.00059C7.9797 8.74988 7.97491 8.50575 8.2818 8.41998C10.2367 7.87732 12.1787 7.7734 14.0808 8.63441C15.5514 9.29419 16.5152 10.4702 17.137 11.9712C17.1978 12.118 17.2569 12.2665 17.332 12.4496C17.4631 12.2038 17.567 11.9745 17.7013 11.7667C17.8787 11.4913 18.1105 11.4962 18.2959 11.7667C18.3588 11.8682 18.4159 11.9734 18.4669 12.0818C18.5228 12.1873 18.574 12.2945 18.6523 12.4479C18.7226 12.283 18.7802 12.1708 18.8297 12.0471C19.8559 9.48223 21.7676 8.21215 24.3986 8.02412C25.4909 7.9562 26.5864 8.08286 27.637 8.39854C27.9215 8.48102 28.0238 8.63936 27.9855 8.92307C27.7457 10.6748 27.2502 12.3242 26.1217 13.7065C24.8078 15.3147 23.0959 15.8969 21.1059 15.7188C20.4838 15.6736 19.8688 15.5558 19.2725 15.3675C19.0471 15.2932 18.9528 15.3147 18.9624 15.6083C19.0188 17.2306 19.1667 18.8481 19.4052 20.4527C19.4068 20.5313 19.4355 20.6067 19.4862 20.6654C19.5369 20.724 19.6062 20.7621 19.6817 20.7727C20.775 21.0382 21.7293 21.5496 22.399 22.5145C22.5445 22.7223 22.7043 22.6085 22.853 22.5821C24.2739 22.3331 25.5703 22.6069 26.6891 23.5833C27.2215 24.0451 27.629 24.6412 27.872 25.3136C27.9841 25.6118 28.0242 25.9336 27.9888 26.2514C27.9533 26.5691 27.8434 26.8732 27.6686 27.1372C27.4937 27.4013 27.2591 27.6175 26.9852 27.767C26.7112 27.9166 26.4061 27.995 26.0961 27.9956C25.0172 28.0055 23.9367 27.9956 22.8561 27.9956C22.6148 27.9956 22.3766 27.9676 22.3926 27.6558C22.4022 27.3721 22.626 27.349 22.8497 27.349C23.8919 27.349 24.9335 27.349 25.9747 27.349C27.0728 27.349 27.6674 26.3841 27.215 25.3515C26.192 23.0077 22.9856 22.3496 21.3153 24.1392C21.1186 24.3546 20.9504 24.5958 20.815 24.8567C20.7175 25.0381 20.58 25.1652 20.3738 25.0513C20.1676 24.9375 20.1628 24.7462 20.2715 24.5367C20.6423 23.8376 21.2051 23.2672 21.8891 22.8972ZM27.3237 9.21832C25.0731 10.0925 22.9536 11.0607 21.0228 12.4232C20.3074 12.9107 19.6618 13.4992 19.1047 14.1716C18.8617 14.4784 18.8889 14.5741 19.2645 14.6862C19.8862 14.8793 20.525 15.008 21.1714 15.0705C22.5077 15.191 23.772 14.9584 24.8478 14.0891C26.3487 12.8784 26.9497 11.1597 27.3285 9.21832H27.3237ZM8.691 9.21007C8.95953 10.7358 9.41028 12.0768 10.3022 13.2232C10.932 14.0555 11.811 14.6494 12.8021 14.9122C14.1831 15.2817 15.5322 15.0606 16.8685 14.6466C17.1514 14.5592 17.0987 14.3976 16.958 14.2343C16.7329 13.9561 16.491 13.6928 16.2339 13.4458C14.0537 11.4583 11.4339 10.3185 8.69579 9.21007H8.691ZM26.4782 8.8406C23.366 7.86907 19.3892 10.2146 19.1974 13.083C21.3249 11.1366 23.844 9.94242 26.483 8.8406H26.4782ZM16.8365 13.1077C16.3298 10.015 12.3386 7.69423 9.56053 8.85049C12.166 9.94077 14.685 11.1284 16.8365 13.1077ZM18.0066 12.6046C17.8073 12.9547 17.7019 13.3532 17.7013 13.7592C17.7095 15.9599 17.554 18.1579 17.2361 20.3339C17.2025 20.555 17.2729 20.6127 17.4839 20.6011C17.8347 20.5805 18.1864 20.5805 18.5372 20.6011C18.7562 20.6127 18.8106 20.5368 18.777 20.3273C18.4599 18.1645 18.306 15.9796 18.3166 13.7922C18.3158 13.3778 18.2088 12.9709 18.0066 12.6129V12.6046Z" fill="white"/>
<path d="M16.1348 25.5825C16.1349 25.2984 16.2379 25.0247 16.4237 24.815C16.6094 24.6053 16.8644 24.4749 17.1386 24.4494C17.4131 24.4317 17.6843 24.5189 17.9005 24.6945C18.1166 24.87 18.2625 25.1216 18.3103 25.4011C18.3406 25.6172 18.3103 25.8283 18.0721 25.8794C17.8339 25.9306 17.7252 25.7772 17.6901 25.5396C17.6881 25.4756 17.6732 25.4127 17.6463 25.355C17.6194 25.2973 17.5811 25.2461 17.5338 25.2046C17.4865 25.1631 17.4313 25.1323 17.3718 25.1141C17.3123 25.096 17.2497 25.0909 17.1882 25.0992C17.0751 25.1027 16.9679 25.1518 16.8895 25.236C16.8112 25.3202 16.7681 25.4328 16.7694 25.5495C16.7641 25.61 16.7707 25.671 16.7886 25.7288C16.8065 25.7866 16.8355 25.8402 16.8738 25.8863C16.912 25.9324 16.9589 25.9701 17.0115 25.9973C17.0641 26.0244 17.1215 26.0404 17.1802 26.0444C17.4263 26.084 17.5926 26.1961 17.5222 26.4617C17.4519 26.7272 17.2201 26.7239 17.0043 26.6761C16.7616 26.6207 16.544 26.4828 16.3863 26.2845C16.2286 26.0862 16.14 25.839 16.1348 25.5825Z" fill="white"/>
<path d="M19.8799 23.1397C19.8828 23.3799 19.7991 23.6127 19.645 23.7927C19.4909 23.9728 19.2775 24.0873 19.0461 24.1141C18.8148 24.1408 18.582 24.0778 18.3932 23.9374C18.2043 23.7969 18.0728 23.5891 18.0241 23.3541C17.981 23.1397 18.0002 22.9269 18.2319 22.8593C18.4637 22.7917 18.5964 22.9302 18.6331 23.171C18.6343 23.2151 18.6445 23.2585 18.663 23.2983C18.6814 23.3381 18.7078 23.3734 18.7403 23.402C18.7729 23.4307 18.8109 23.4519 18.8519 23.4644C18.8929 23.4769 18.936 23.4803 18.9784 23.4745C19.0513 23.4704 19.12 23.4377 19.1705 23.3832C19.221 23.3286 19.2494 23.2563 19.2501 23.1809C19.2501 22.9731 19.1334 22.8692 18.94 22.8362C18.7466 22.8032 18.598 22.6713 18.6475 22.4502C18.6971 22.2292 18.9001 22.1682 19.1111 22.2045C19.3224 22.2485 19.5133 22.3647 19.6528 22.5344C19.7923 22.7041 19.8723 22.9173 19.8799 23.1397Z" fill="white"/>
<path d="M13.0083 25.4093C13.0056 25.6391 12.9254 25.8607 12.7816 26.0362C12.6379 26.2116 12.4394 26.33 12.2203 26.371C12.0205 26.4023 11.8399 26.3627 11.7791 26.145C11.7634 26.1 11.7583 26.0517 11.7642 26.0042C11.7701 25.9568 11.7868 25.9114 11.8131 25.8719C11.8393 25.8325 11.8743 25.8 11.915 25.7772C11.9558 25.7544 12.0013 25.742 12.0477 25.7409C12.2571 25.7029 12.3945 25.6023 12.3674 25.3747C12.364 25.2992 12.3323 25.2279 12.2788 25.1762C12.2254 25.1244 12.1545 25.0962 12.0812 25.0976C11.8798 25.0976 11.7807 25.2213 11.7504 25.4275C11.72 25.6337 11.5905 25.7772 11.3731 25.726C11.1557 25.6749 11.103 25.4621 11.1398 25.246C11.1825 25.0098 11.3087 24.7985 11.494 24.653C11.6793 24.5075 11.9105 24.4383 12.1424 24.4589C12.3744 24.4795 12.5907 24.5883 12.7493 24.7643C12.9078 24.9402 12.9973 25.1707 13.0003 25.411L13.0083 25.4093Z" fill="white"/>
<path d="M23.0064 25.4225C23.009 25.18 23.0979 24.9468 23.2561 24.7674C23.4144 24.588 23.631 24.4748 23.8647 24.4494C24.1004 24.4334 24.3334 24.5078 24.5192 24.6581C24.705 24.8085 24.8305 25.0243 24.8717 25.2642C24.9005 25.4704 24.8606 25.6568 24.648 25.7161C24.6041 25.7318 24.5573 25.7366 24.5114 25.7299C24.4654 25.7232 24.4217 25.7054 24.3837 25.6778C24.3458 25.6503 24.3147 25.6138 24.2931 25.5714C24.2715 25.529 24.26 25.482 24.2596 25.4341C24.2228 25.2197 24.1221 25.0828 23.9015 25.1042C23.8353 25.1089 23.7728 25.1377 23.7251 25.1854C23.6774 25.2331 23.6476 25.2966 23.641 25.3648C23.6154 25.5941 23.7449 25.7046 23.9606 25.7409C24.1764 25.7772 24.2963 25.9058 24.2436 26.1351C24.1908 26.3644 24.015 26.404 23.8136 26.3759C23.5923 26.3394 23.3904 26.224 23.2429 26.0498C23.0955 25.8757 23.0118 25.6537 23.0064 25.4225Z" fill="white"/>
<path d="M20.6535 27.9891C20.4074 27.9891 20.1612 27.9891 19.9151 27.9891C19.7025 27.9891 19.5618 27.8819 19.573 27.6493C19.5842 27.4167 19.72 27.3491 19.9135 27.3491H21.392C21.6094 27.3491 21.7468 27.4678 21.7373 27.6889C21.7361 27.7329 21.726 27.7761 21.7075 27.8158C21.689 27.8554 21.6625 27.8906 21.6299 27.9189C21.5973 27.9473 21.5592 27.9682 21.5182 27.9803C21.4772 27.9924 21.4342 27.9954 21.392 27.9891H20.6535Z" fill="white"/>
</svg>
