<svg width="61" height="62" viewBox="0 0 61 62" fill="none" xmlns="http://www.w3.org/2000/svg">
<g id="Statistic Icon Container">
<g id="Statistic Icon">
<g id="Statistic Icon_2">
<g id="Statistic Icon_3">
<g id="Statistic Icon Detail">
<path id="Vector" d="M26.1215 31.7178L21.6187 27.3275L27.84 26.4195L30.6243 20.7833L33.4085 26.4195L39.6299 27.3275L35.1271 31.7178L36.1927 37.9165L30.6243 34.9898L25.0558 37.9165L26.1215 31.7178ZM34.3541 35.3951L33.6412 31.2374L36.6655 28.2956L32.4929 27.6877L30.6243 23.9053L28.7556 27.6877L24.583 28.2956L27.6074 31.2374L26.8944 35.3951L30.6318 33.4287L34.3541 35.3951Z" fill="#1C75BC"/>
</g>
<g id="Statistic Icon Detail_2">
<path id="Vector_2" d="M20.0425 61.6015V54.4346C20.0425 52.9637 21.2357 51.7702 22.7066 51.7702H26.9618V45.5638H28.3352V53.1513H22.6991C21.9862 53.1513 21.4083 53.729 21.4083 54.4419V60.2357H39.8098V54.4419C39.8098 53.729 39.232 53.1513 38.519 53.1513H32.883V45.5638H34.2564V51.7702H38.5115C39.9824 51.7702 41.1757 52.9637 41.1757 54.4346V61.6015H20.0425Z" fill="#1C75BC"/>
</g>
<g id="Statistic Icon Background">
<path id="Vector_3" d="M23.6372 45.7817C20.0124 45.7817 16.7554 43.4777 15.5321 40.048L15.4646 39.8458H12.8229C8.89048 39.8458 5.13813 37.9693 2.78165 34.8248C1.16064 32.6634 0.267578 29.9917 0.267578 27.2901V20.6637H10.549V22.0368H1.64844V27.2827C1.64844 29.6842 2.44394 32.0707 3.88484 33.9919C5.98616 36.7911 9.33326 38.4646 12.8304 38.4646H15.1419L14.7742 35.8831H12.8304C10.1363 35.8831 7.56214 34.5997 5.94863 32.4459C4.83794 30.9674 4.23005 29.1364 4.23005 27.2827V24.6187H10.549V25.9918H5.60343V27.2827C5.60343 28.8362 6.11374 30.3745 7.05182 31.6203C8.41017 33.4289 10.5715 34.5097 12.8304 34.5097H14.579L12.0349 16.7087H14.1212V13.8494L17.746 13.2488L17.806 13.0762C18.0012 12.4984 18.2338 11.928 18.504 11.3877L18.5865 11.2301L16.4552 8.24324L21.4758 3.22265L24.4627 5.35386L24.6203 5.27142C25.1531 5.00875 25.7235 4.76884 26.3089 4.57371L26.4815 4.51362L27.0818 0.888794H34.1813L34.7817 4.51362L34.9543 4.57371C35.6447 4.80636 36.3051 5.08375 36.928 5.41396L36.2601 6.62248C35.5471 6.24725 34.7816 5.94672 33.9861 5.71408L33.5659 5.59425L33.0105 2.26954H28.2451L27.6897 5.59425L27.2695 5.71408C26.3614 5.97674 25.5134 6.32975 24.7329 6.76503L24.3501 6.975L21.6109 5.01637L18.2413 8.38579L20.2 11.1253L19.9899 11.5079C19.5546 12.2958 19.2019 13.1513 18.9468 14.0444L18.8267 14.4647L15.4946 15.0202V16.7161H21.0631L21.0931 16.446C21.5809 11.5229 25.686 7.81561 30.6315 7.81561C35.5771 7.81561 39.6822 11.5229 40.17 16.446L40.2 16.7161H45.7685V15.0202L42.4439 14.4647L42.3239 14.0444C42.0612 13.1363 41.7085 12.2883 41.2732 11.5079L41.0631 11.1253L43.0218 8.38579L39.4496 4.81373L40.4252 3.8379L44.8229 8.23592L42.6916 11.2228L42.7742 11.3803C43.0368 11.9207 43.277 12.4835 43.4721 13.0689L43.5321 13.2415L47.1569 13.8417V16.701H49.2432L46.6991 34.5023H48.4477C50.7066 34.5023 52.8679 33.4216 54.2263 31.613C55.1569 30.3672 55.6672 28.8289 55.6672 27.2754V25.9844H50.7216V24.611H57.0406V27.2754C57.0406 29.1216 56.4327 30.9601 55.322 32.4385C53.7085 34.5924 51.1344 35.8757 48.4402 35.8757H46.4965L46.1288 38.4573H48.4402C51.9374 38.4573 55.2845 36.7838 57.3858 33.9846C58.8267 32.0634 59.6222 29.6769 59.6222 27.2754V22.0294H50.7216V20.656H61.003V27.2827C61.003 29.9844 60.11 32.6561 58.489 34.8175C56.1325 37.9619 52.3727 39.8381 48.4477 39.8381H45.7985L45.731 40.0407C44.5077 43.4703 41.2507 45.7744 37.6259 45.7744H23.6372V45.7817ZM16.4852 38.2019C16.988 41.7366 20.065 44.401 23.6372 44.401H37.6034C41.1756 44.401 44.2526 41.7366 44.7554 38.2019L47.6297 18.0895H13.6109L16.4852 38.2019ZM30.6241 11.7629C33.3783 11.7629 35.7122 13.7366 36.17 16.4533L36.215 16.701H38.8042L38.7591 16.3636C38.2413 12.266 34.7441 9.174 30.6165 9.174C26.489 9.174 22.9918 12.266 22.474 16.3636L22.4289 16.701H25.0181L25.0631 16.4533C25.5359 13.7366 27.8698 11.7629 30.6241 11.7629ZM30.6241 13.144C28.6954 13.144 27.0068 14.4573 26.519 16.3335L26.4214 16.7087H34.8267L34.7291 16.3335C34.2413 14.4573 32.5528 13.144 30.6241 13.144Z" fill="#1C75BC"/>
</g>
</g>
</g>
</g>
</g>
</svg>
