<svg width="63" height="63" viewBox="0 0 63 63" fill="none" xmlns="http://www.w3.org/2000/svg">
<path d="M61.1755 36.5423H57.3856C56.7027 39.8444 55.4044 42.9289 53.6108 45.6531L56.29 48.3322C54.2412 51.2815 51.6821 53.8409 48.7328 55.8896L46.0536 53.2102C43.3294 55.0039 40.2524 56.3024 36.9429 56.9853V60.775C33.4232 61.4054 29.7759 61.4054 26.2562 60.775V56.9853C22.9541 56.3024 19.8697 55.0039 17.1455 53.2102L14.4663 55.8896C11.517 53.8409 8.95792 51.2815 6.90914 48.3322L9.58827 45.6531C7.79465 42.9289 6.49636 39.8519 5.81344 36.5423H2.02358C1.39318 33.0226 1.39318 29.3756 2.02358 25.8559H5.81344C6.49636 22.5538 7.79465 19.4693 9.58827 16.7451L6.90914 14.066C8.95792 11.1167 11.517 8.55734 14.4663 6.50856L17.1455 9.18797C19.8697 7.39435 22.9466 6.09584 26.2562 5.41291V1.62319C29.7759 0.992792 33.4232 0.992792 36.9429 1.62319V5.41291C40.2449 6.09584 43.3294 7.39435 46.0536 9.18797L48.7328 6.50856C51.6821 8.55734 54.2412 11.1167 56.29 14.066L53.6108 16.7451C55.4044 19.4693 56.7027 22.5463 57.3856 25.8559H61.1755C61.8059 29.3756 61.8059 33.0226 61.1755 36.5423Z" stroke="#1C75BC" stroke-width="1.6771" stroke-miterlimit="10"/>
<path d="M31.5993 54.5456C27.967 54.5456 24.4999 53.7425 21.2954 52.159C20.9877 52.0089 20.8601 51.6336 21.0102 51.3184C21.1603 51.0032 21.5355 50.8832 21.8507 51.0333C24.8826 52.5267 28.1621 53.2847 31.5993 53.2847C43.7344 53.2847 53.6931 43.4911 53.6931 31.1909C53.6931 26.0202 51.9295 20.8268 48.5899 16.1739C48.3873 15.8962 48.4548 15.4987 48.7325 15.3036C49.0102 15.1084 49.4079 15.1684 49.603 15.4461C53.1002 20.3167 54.9464 25.7575 54.9464 31.1909C54.9464 44.1816 44.4323 54.5456 31.5993 54.5456ZM19.059 50.8981C18.4661 50.5153 17.8807 50.1027 17.3179 49.6749C17.0477 49.4648 16.9952 49.0671 17.2053 48.7969C17.4154 48.5267 17.8132 48.4743 18.0833 48.6844C18.6162 49.0972 19.1715 49.4873 19.7344 49.8475C20.027 50.0351 20.1096 50.4178 19.922 50.7105C19.7419 50.9956 19.3517 51.0782 19.059 50.8981Z" fill="#1C75BC"/>
<path d="M50.5635 31.1987C50.5635 37.3076 47.6742 42.7335 43.1939 46.2081C39.9894 48.6922 35.9669 50.1631 31.5991 50.1631C27.2314 50.1631 23.2089 48.6847 20.0044 46.2081C15.5241 42.741 12.6348 37.3076 12.6348 31.1987C12.6348 20.7222 21.1226 12.2344 31.5991 12.2344C42.0757 12.2344 50.5635 20.7222 50.5635 31.1987Z" stroke="#1C75BC" stroke-width="1.6771" stroke-miterlimit="10"/>
<path d="M43.1944 23.0781V46.2074C39.9899 48.6915 35.9674 50.1624 31.5996 50.1624C27.2319 50.1624 23.2094 48.684 20.0049 46.2074V23.0781H43.1944Z" stroke="#1C75BC" stroke-width="1.6771" stroke-miterlimit="10"/>
<path d="M40.613 44.2652C40.2678 44.2652 39.9901 43.9875 39.9901 43.6423V42.2241C39.9901 41.8789 40.2678 41.6012 40.613 41.6012C40.9582 41.6012 41.2359 41.8789 41.2359 42.2241V43.6423C41.2434 43.98 40.9582 44.2652 40.613 44.2652ZM40.613 40.3403C40.2678 40.3403 39.9901 40.0625 39.9901 39.7173V26.074H22.5867C22.2415 26.074 21.9639 25.7963 21.9639 25.4511C21.9639 25.1059 22.2415 24.8281 22.5867 24.8281H40.613C40.9582 24.8281 41.2359 25.1059 41.2359 25.4511V39.725C41.2434 40.0552 40.9582 40.3403 40.613 40.3403Z" fill="#1C75BC"/>
<path d="M25.6708 29.5717H26.7589C27.1041 29.5717 27.3818 29.294 27.3818 28.9488C27.3818 28.6035 27.1041 28.3262 26.7589 28.3262H25.6708C25.3255 28.3262 25.0479 28.6035 25.0479 28.9488C25.0479 29.294 25.3255 29.5717 25.6708 29.5717Z" fill="#1C75BC"/>
<path d="M29.8436 29.5717H37.5209C37.8661 29.5717 38.1438 29.294 38.1438 28.9488C38.1438 28.6035 37.8661 28.3262 37.5209 28.3262H29.8436C29.4984 28.3262 29.2207 28.6035 29.2207 28.9488C29.2207 29.294 29.4984 29.5717 29.8436 29.5717Z" fill="#1C75BC"/>
<path d="M25.6708 32.8279H26.7589C27.1041 32.8279 27.3818 32.5502 27.3818 32.205C27.3818 31.8598 27.1041 31.582 26.7589 31.582H25.6708C25.3255 31.582 25.0479 31.8598 25.0479 32.205C25.0479 32.5502 25.3255 32.8279 25.6708 32.8279Z" fill="#1C75BC"/>
<path d="M29.8436 32.8279H37.5209C37.8661 32.8279 38.1438 32.5502 38.1438 32.205C38.1438 31.8598 37.8661 31.582 37.5209 31.582H29.8436C29.4984 31.582 29.2207 31.8598 29.2207 32.205C29.2207 32.5502 29.4984 32.8279 29.8436 32.8279Z" fill="#1C75BC"/>
<path d="M25.6708 36.0857H26.7589C27.1041 36.0857 27.3818 35.808 27.3818 35.4628C27.3818 35.1176 27.1041 34.8398 26.7589 34.8398H25.6708C25.3255 34.8398 25.0479 35.1176 25.0479 35.4628C25.0479 35.8005 25.3255 36.0857 25.6708 36.0857Z" fill="#1C75BC"/>
<path d="M29.8436 36.0857H37.5209C37.8661 36.0857 38.1438 35.808 38.1438 35.4628C38.1438 35.1176 37.8661 34.8398 37.5209 34.8398H29.8436C29.4984 34.8398 29.2207 35.1176 29.2207 35.4628C29.2207 35.8005 29.4984 36.0857 29.8436 36.0857Z" fill="#1C75BC"/>
<path d="M28.3576 41.5632C28.11 41.8109 28.11 42.2013 28.3576 42.4489L30.2338 44.3251C30.4814 44.5727 30.8717 44.5727 31.1193 44.3251L34.8342 40.6101C35.0818 40.3625 35.0818 39.9725 34.8342 39.7248C34.5865 39.4771 34.1963 39.4771 33.9486 39.7248L30.6766 42.9967L29.2432 41.5632C29.003 41.3231 28.6053 41.3231 28.3576 41.5632Z" fill="#1C75BC"/>
</svg>
