<svg width="49" height="62" viewBox="0 0 49 62" fill="none" xmlns="http://www.w3.org/2000/svg">
<g id="Statistic Icon Container">
<path id="Vector" d="M33.3469 41.9823C33.0542 42.26 32.8741 42.6504 32.8741 43.0857V47.9711C32.8741 48.9467 32.4013 49.8623 31.6133 50.4401L26.2249 54.335C25.1593 55.1005 23.7184 55.1005 22.6527 54.335L17.2643 50.4401C16.4688 49.8623 16.0036 48.9467 16.0036 47.9711V43.0857C16.0036 42.6504 15.8234 42.26 15.5308 41.9823C16.6264 41.6746 17.7597 41.4347 18.9379 41.2546C18.9379 41.2546 18.9529 41.2546 18.9829 41.2546V41.322C19.0279 44.3164 21.467 46.7178 24.4614 46.7178C27.4782 46.7178 29.9322 44.2715 29.9397 41.2546C31.1105 41.4347 32.2512 41.6746 33.3469 41.9823Z" stroke="#1C75BC" stroke-width="1.5" stroke-miterlimit="10"/>
<path id="Vector_2" d="M47.5905 60.7216H1.28662C1.28662 53.4646 4.13088 48.3614 8.67872 45.1494V56.0462H40.1984V45.1494C44.7463 48.3614 47.5905 53.4721 47.5905 60.7216Z" stroke="#1C75BC" stroke-width="1.5" stroke-miterlimit="10"/>
<path id="Vector_3" d="M40.1984 43.0857V56.0463H8.67871V43.0857C8.67871 42.2376 9.35416 41.562 10.2022 41.562H14.4798C14.8851 41.562 15.2528 41.7121 15.523 41.9823H15.5305C15.8232 42.26 16.0033 42.6504 16.0033 43.0857V47.971C16.0033 48.9467 16.4685 49.8623 17.264 50.4401L22.6524 54.335C23.7181 55.1005 25.159 55.1005 26.2247 54.335L31.613 50.4401C32.401 49.8623 32.8738 48.9467 32.8738 47.971V43.0857C32.8738 42.6504 33.0539 42.26 33.3466 41.9823C33.6168 41.7197 33.9845 41.562 34.3973 41.562H38.6749C39.5155 41.562 40.1984 42.2376 40.1984 43.0857Z" stroke="#1C75BC" stroke-width="1.5" stroke-miterlimit="10"/>
<path id="Vector_4" d="M40.1984 56.0463H8.67871V60.7217H40.1984V56.0463Z" stroke="#1C75BC" stroke-width="1.5" stroke-miterlimit="10"/>
<path id="Vector_5" d="M29.9396 38.5602V41.2396C29.9396 41.2471 29.9396 41.2471 29.9396 41.2546C29.9321 44.2715 27.4781 46.7179 24.4613 46.7179C21.4669 46.7179 19.0278 44.3164 18.9828 41.322V41.2546L18.9678 38.5829C19.5907 39.0857 20.2286 39.521 20.8515 39.8812C23.0653 41.172 25.8121 41.172 28.026 39.8812C28.6639 39.5135 29.3092 39.0705 29.9396 38.5602Z" stroke="#1C75BC" stroke-width="1.5" stroke-miterlimit="10"/>
<path id="Vector_6" d="M13.7893 29.1644C13.7893 29.2844 13.7968 29.3972 13.8043 29.5172H12.506C10.8024 29.5172 9.41406 28.129 9.41406 26.4179C9.41406 24.7143 10.8024 23.3259 12.506 23.3259H13.279L13.7593 28.6392C13.7743 28.8194 13.7818 28.9917 13.7893 29.1644Z" stroke="#1C75BC" stroke-width="1.5" stroke-miterlimit="10"/>
<path id="Vector_7" d="M39.463 26.4179C39.463 28.129 38.0746 29.5172 36.3635 29.5172C36.3635 29.5172 35.8833 29.5172 35.0728 29.5172C35.0803 29.3972 35.0877 29.2844 35.0877 29.1644C35.0952 28.9917 35.0952 28.8194 35.1102 28.6392L35.5905 23.3259H36.3635C38.0746 23.3259 39.463 24.7143 39.463 26.4179Z" stroke="#1C75BC" stroke-width="1.5" stroke-miterlimit="10"/>
<g id="Statistic Icon">
<path id="Vector_8" d="M35.5907 23.3259L35.1104 28.6393C35.0954 28.8194 35.0954 28.9918 35.0879 29.1644C35.0879 29.2845 35.0805 29.3972 35.0729 29.5173C34.8403 33.2621 32.5213 36.474 29.9397 38.5603C29.3093 39.0706 28.6639 39.5136 28.026 39.8813C25.8121 41.1721 23.0654 41.1721 20.8515 39.8813C20.2286 39.5211 19.5907 39.0858 18.9678 38.583C16.3787 36.4967 14.0372 33.2771 13.8046 29.5173C13.7971 29.3972 13.7896 29.2845 13.7896 29.1644C13.7821 28.9918 13.7746 28.8194 13.7596 28.6393L13.2793 23.3259H35.5907Z" stroke="#1C75BC" stroke-width="1.5" stroke-miterlimit="10"/>
<path id="Vector_9" d="M35.5982 23.2656L35.5907 23.3257H13.2793V23.2583C19.4031 23.2658 29.4369 23.2656 35.5982 23.2656Z" stroke="#1C75BC" stroke-width="1.5" stroke-miterlimit="10"/>
</g>
<g id="Statistic Icon Detail">
<g id="Statistic Icon Detail_2">
<path id="Vector_10" d="M40.8889 23.2585C40.4311 23.266 38.4198 23.2658 35.5981 23.2658C29.4367 23.2658 19.403 23.266 13.2791 23.2585C10.1121 23.2585 7.98828 23.2585 7.98828 23.2585L8.04087 17.3295C8.29602 17.3295 9.03149 17.337 10.1122 17.3295C11.0277 17.337 12.1984 17.3372 13.5343 17.3372C19.6131 17.3447 29.2641 17.3447 35.3429 17.3372H38.7575C39.8457 17.3297 40.5812 17.3295 40.8363 17.3295L40.8889 23.2585Z" stroke="#1C75BC" stroke-width="1.5" stroke-miterlimit="10"/>
</g>
</g>
<path id="Vector_11" d="M38.7576 17.337H35.3431C29.2643 17.3445 19.6132 17.3445 13.5344 17.337C12.1986 17.337 11.0279 17.3368 10.1123 17.3293C10.5176 13.3969 11.8384 9.81726 14.4125 7.33321L15.4181 11.5883C15.6507 12.5864 16.6413 13.1944 17.6319 12.9617C18.6301 12.7291 19.238 11.731 19.0053 10.7404L17.6695 5.10416C19.0804 4.45875 20.7164 4.03108 22.5926 3.88098V11.806C22.5926 12.1962 22.7126 12.5566 22.9153 12.8492C23.253 13.337 23.8083 13.6521 24.4387 13.6521C25.0691 13.6521 25.6245 13.337 25.9622 12.8492C26.1648 12.5566 26.2849 12.1962 26.2849 11.806V3.88098C28.161 4.03108 29.7896 4.45875 31.2005 5.10416L29.8721 10.7404C29.6395 11.731 30.2473 12.7291 31.2379 12.9617C32.2361 13.1944 33.2267 12.5864 33.4594 11.5883L34.465 7.34054C37.0391 9.81709 38.3524 13.4046 38.7576 17.337Z" stroke="#1C75BC" stroke-width="1.5" stroke-miterlimit="10"/>
<g id="Statistic Icon Background">
<g id="Statistic Icon Detail_3">
<path id="Vector_12" d="M17.6317 12.9619C16.6411 13.1945 15.6505 12.5866 15.4178 11.5885L14.4122 7.33337L13.9769 5.50959C13.7442 4.51897 14.3597 3.52088 15.3503 3.28823C16.3409 3.05559 17.3315 3.67103 17.5642 4.66165L17.6692 5.10431L19.0051 10.7405C19.2377 11.7311 18.6298 12.7292 17.6317 12.9619Z" stroke="#1C75BC" stroke-width="1.5" stroke-miterlimit="10"/>
</g>
<g id="Statistic Icon Detail_4">
<path id="Vector_13" d="M34.9 5.50972L34.4647 7.34082L33.4591 11.5886C33.2265 12.5867 32.2358 13.1947 31.2377 12.962C30.247 12.7294 29.6392 11.7313 29.8719 10.7406L31.2002 5.10443L31.3053 4.66177C31.5454 3.67115 32.536 3.05571 33.5266 3.28836C34.5172 3.521 35.1326 4.5191 34.9 5.50972Z" stroke="#1C75BC" stroke-width="1.5" stroke-miterlimit="10"/>
</g>
</g>
<g id="Statistic Icon_2">
<path id="Vector_14" d="M26.2845 2.92071V11.8061C26.2845 12.1964 26.1645 12.5567 25.9619 12.8494C25.6242 13.3372 25.0688 13.6523 24.4384 13.6523C23.808 13.6523 23.2526 13.3372 22.9149 12.8494C22.7123 12.5567 22.5923 12.1964 22.5923 11.8061V2.92071C22.5923 1.90757 23.4178 1.08191 24.4384 1.08191C24.9487 1.08191 25.414 1.2922 25.7442 1.62241C26.0744 1.95261 26.2845 2.41789 26.2845 2.92071Z" stroke="#1C75BC" stroke-width="1.5" stroke-miterlimit="10"/>
</g>
</g>
</svg>
