<svg width="54" height="55" viewBox="0 0 54 55" fill="none" xmlns="http://www.w3.org/2000/svg">
<path id="Vector" d="M29.0721 41.6017C28.9145 41.4591 28.7044 41.3916 28.4943 41.4141C27.9839 41.4666 27.4661 41.4966 26.9633 41.4966C19.2109 41.4966 12.8995 35.1925 12.8995 27.4326C12.8995 19.6803 19.2034 13.369 26.9633 13.369C27.4661 13.369 27.9839 13.3989 28.4943 13.4515C28.7044 13.474 28.9145 13.4064 29.0721 13.2638C29.2297 13.1212 29.3197 12.9188 29.3197 12.7087V1.25633C29.3197 0.84357 28.982 0.505859 28.5693 0.505859H22.603C22.2428 0.505859 21.9351 0.760872 21.8676 1.10609L20.907 5.97681L16.074 7.9805L11.9464 5.21131C11.6462 5.00869 11.2559 5.0538 11.0008 5.30146L4.83945 11.4628C4.58429 11.7179 4.54677 12.108 4.7494 12.4082L7.51859 16.5358L5.51489 21.3688L0.644357 22.3296C0.291637 22.3971 0.0439453 22.7048 0.0439453 23.065V31.7778C0.0439453 32.1381 0.299141 32.4457 0.644357 32.5133L5.51489 33.4741L7.51859 38.3071L4.7494 42.4347C4.54677 42.7348 4.5918 43.1249 4.83945 43.3801L11.0008 49.5414C11.2559 49.7965 11.6462 49.8342 11.9464 49.6315L16.074 46.8623L20.907 48.866L21.8676 53.7368C21.9351 54.0895 22.2428 54.337 22.603 54.337H28.5693C28.982 54.337 29.3197 53.9993 29.3197 53.5865V42.1419C29.3197 41.9467 29.2297 41.7443 29.0721 41.6017ZM27.8188 52.8588H23.2109L22.2954 48.198C22.2503 47.9504 22.0778 47.7478 21.8451 47.6502L16.2766 45.3391C16.0439 45.2415 15.7812 45.2714 15.5711 45.4065L11.6237 48.0555L6.33288 42.7648L8.98206 38.8172C9.12465 38.607 9.14713 38.3444 9.04957 38.1118L6.73816 32.5433C6.6406 32.3107 6.4379 32.1455 6.19024 32.093L1.52986 31.1776V23.6953L6.19024 22.7799C6.4379 22.7349 6.6406 22.5622 6.73816 22.3296L9.04957 16.7611C9.14713 16.5285 9.11714 16.2659 8.98206 16.0557L6.33288 12.1081L11.6237 6.81742L15.5711 9.46642C15.7812 9.609 16.0439 9.6314 16.2766 9.53384L21.8451 7.2227C22.0778 7.12514 22.2428 6.92253 22.2954 6.67488L23.2109 2.01449H27.8188V11.9054C27.5261 11.8904 27.2409 11.8831 26.9558 11.8831C18.3779 11.8831 11.3985 18.8624 11.3985 27.4403C11.3985 36.0182 18.3779 42.9975 26.9558 42.9975C27.2409 42.9975 27.5336 42.9898 27.8188 42.9748V52.8588ZM53.2897 25.5942C53.3272 25.3915 53.3498 25.1889 53.3498 24.9712C53.3498 23.8755 52.7719 22.915 51.9088 22.3596C52.4042 21.8118 52.7119 21.0836 52.7119 20.2881C52.7119 18.5846 51.3235 17.2038 49.6274 17.2038H43.0984C43.4511 14.2545 43.9164 8.52823 41.4098 5.98414C40.4342 4.99352 39.1434 4.58835 37.5674 4.76096C36.6443 4.86603 35.9764 5.6765 36.0514 6.60708C36.7043 14.3294 34.9107 17.3913 28.997 18.442C28.6368 17.8716 27.9989 17.4889 27.271 17.4889H23.4436C22.3179 17.4889 21.3948 18.4044 21.3948 19.5377V35.3426C21.3948 36.4683 22.3104 37.3913 23.4436 37.3913H27.271C28.104 37.3913 28.8244 36.8884 29.1396 36.1755C29.3648 36.1905 29.5749 36.2133 29.77 36.2433C29.815 36.2508 29.8601 36.2583 29.9051 36.2583C30.2353 36.3033 30.5355 36.3634 30.8132 36.4309C31.2184 36.5285 31.5936 36.6333 31.9839 36.7534C32.6068 36.941 33.2597 37.1363 34.1378 37.2939C35.1659 37.4815 36.284 37.5489 37.4248 37.5489C39.3159 37.5489 41.2897 37.354 43.1209 37.1814C43.8864 37.1063 44.6068 37.0388 45.3047 36.9787H48.5693C50.1528 36.9787 51.4361 35.6952 51.4361 34.1117C51.4361 33.4888 51.241 32.9187 50.9032 32.4459C51.9089 31.9731 52.6218 30.9748 52.6819 29.8115C52.6819 29.759 52.6894 29.7065 52.6894 29.654C52.6894 28.866 52.3891 28.1457 51.9013 27.5979C52.6068 27.1476 53.1171 26.4347 53.2897 25.5942ZM49.5974 31.245H44.2691C43.3911 31.245 42.678 30.532 42.678 29.654C42.678 28.7759 43.3911 28.0632 44.2691 28.0632H49.5974C50.4755 28.0632 51.1884 28.7759 51.1884 29.654C51.1884 30.5245 50.4755 31.245 49.5974 31.245ZM51.8564 25.1288C51.7738 25.9318 51.0984 26.5623 50.2729 26.5623H44.0889C43.2109 26.5623 42.4979 25.8493 42.4979 24.9712C42.4979 24.0932 43.2109 23.3801 44.0889 23.3801H50.2729C51.0984 23.3801 51.7738 24.0105 51.8564 24.806C51.8639 24.8585 51.8639 24.9112 51.8639 24.9712C51.8639 25.0238 51.8564 25.0763 51.8564 25.1288ZM49.6349 18.6974C50.513 18.6974 51.2259 19.4101 51.2259 20.2881C51.2259 21.1662 50.513 21.8792 49.6349 21.8792H44.9971C44.119 21.8792 43.4061 21.1662 43.4061 20.2881C43.4061 19.4101 44.119 18.6974 44.9971 18.6974H49.6349ZM36.3366 15.6955C37.5374 13.6317 37.9051 10.7873 37.5449 6.47956C37.5374 6.36699 37.6199 6.26188 37.7325 6.24687C38.8507 6.11929 39.6987 6.37448 40.3441 7.02739C42.603 9.32383 41.7775 15.7403 41.5074 17.8491V17.8568C41.5074 17.8718 41.5074 17.8869 41.5074 17.9019C41.5074 17.9094 41.5074 17.9244 41.5074 17.9319C41.5074 17.9469 41.5074 17.9616 41.5074 17.9766C41.5074 17.9916 41.5074 17.9994 41.5074 18.0144V18.0217C41.9802 22.3669 40.877 24.5659 37.695 25.6165C37.3048 25.7441 37.0871 26.1721 37.2222 26.5623C37.3273 26.8775 37.6199 27.0801 37.9351 27.0801C38.0102 27.0801 38.0928 27.0649 38.1678 27.0423C39.3911 26.6371 40.3291 26.0895 41.0421 25.4366C41.1621 26.2246 41.5824 26.9147 42.1828 27.3875C41.5749 27.9504 41.1996 28.7536 41.1996 29.6466C41.1996 30.8774 41.9201 31.9429 42.9632 32.4382C42.6255 32.911 42.4229 33.4888 42.4229 34.1117C42.4229 34.6971 42.603 35.245 42.9032 35.7028C42.5505 35.7403 42.1903 35.7704 41.8301 35.808C39.3085 36.0406 36.6068 36.2207 34.4304 35.823C33.6274 35.6804 33.0196 35.4928 32.4342 35.3202C32.0815 35.2152 31.7287 35.11 31.346 35.0124C31.2409 34.9899 31.1434 34.9598 31.0308 34.9373C31.0233 34.9373 31.0158 34.9375 31.0008 34.93C30.6181 34.8474 30.1903 34.7722 29.7025 34.7196C29.5824 34.7046 29.4548 34.6973 29.3273 34.6822V19.8979C32.8094 19.2675 35.0458 17.9244 36.3366 15.6955ZM27.8188 35.3426C27.8188 35.6503 27.5712 35.8981 27.2635 35.8981H23.4361C23.1284 35.8981 22.8808 35.6503 22.8808 35.3426V19.5377C22.8808 19.23 23.1284 18.9825 23.4361 18.9825H27.2635C27.5712 18.9825 27.8188 19.23 27.8188 19.5377V35.3426ZM48.5693 35.4851H45.2747C44.5168 35.4851 43.9013 34.8697 43.9013 34.1117C43.9013 33.3537 44.5168 32.7387 45.2747 32.7387H48.5693C49.3273 32.7387 49.9426 33.3537 49.9426 34.1117C49.9426 34.8697 49.3273 35.4851 48.5693 35.4851ZM38.7456 39.7629C34.7231 39.7629 31.4511 43.0348 31.4511 47.0573C31.4511 51.0798 34.7231 54.352 38.7456 54.352C42.7681 54.352 46.0402 51.0798 46.0402 47.0573C46.0402 43.0348 42.7681 39.7629 38.7456 39.7629ZM38.7456 52.8588C35.5486 52.8588 32.9445 50.2543 32.9445 47.0573C32.9445 43.8603 35.5486 41.2562 38.7456 41.2562C41.9426 41.2562 44.5468 43.8603 44.5468 47.0573C44.5468 50.2543 41.9426 52.8588 38.7456 52.8588ZM41.9426 44.5435C42.2353 44.8362 42.2353 45.3087 41.9426 45.6014L37.9652 49.5791C37.8226 49.7217 37.6349 49.7968 37.4398 49.7968C37.4098 49.7968 37.3722 49.7966 37.3422 49.7891C37.1096 49.7591 36.907 49.6242 36.7944 49.4216L35.4361 47.065C35.226 46.7048 35.3535 46.2471 35.7062 46.0445C36.0665 45.8343 36.5243 45.9618 36.7269 46.3145L37.5974 47.8228L40.8845 44.5358C41.1772 44.2506 41.6499 44.2508 41.9426 44.5435Z" fill="#1C75BC"/>
</svg>
