<svg width="97" height="93" viewBox="0 0 97 93" fill="none" xmlns="http://www.w3.org/2000/svg">
<g id="Group">
<path id="Vector" d="M87.2148 42.416V35.6302C87.2073 32.0836 84.3355 29.2043 80.7889 29.2043C80.6764 29.2043 80.5715 29.1368 80.534 29.0244C79.9191 27.0524 79.1243 25.1479 78.1646 23.3183C78.1121 23.2134 78.1346 23.0859 78.217 23.0034C80.7289 20.4915 80.7289 16.4201 78.2246 13.9082L73.3808 9.05693C70.8689 6.54506 66.8049 6.54506 64.2931 9.05693C64.2406 9.10941 64.1731 9.13942 64.0981 9.13942C64.0531 9.13942 64.0157 9.13191 63.9782 9.10942C62.1561 8.14966 60.2441 7.35486 58.2721 6.74002C58.1596 6.70252 58.0921 6.59755 58.0921 6.48508C58.0847 2.93848 55.2129 0.0592041 51.6663 0.0592041H44.813C41.2664 0.0667022 38.3871 2.93848 38.3871 6.48508C38.3871 6.59755 38.3197 6.70252 38.2072 6.74002C36.2352 7.35486 34.3307 8.14966 32.5011 9.10942C32.4636 9.13191 32.4261 9.13942 32.3812 9.13942C32.3062 9.13942 32.2387 9.10941 32.1862 9.05693C29.6818 6.54506 25.6104 6.53758 23.0985 9.04944C23.0985 9.04944 23.0985 9.04943 23.091 9.05693L18.2472 13.9007C15.7429 16.4126 15.7429 20.4765 18.2472 22.9884C18.3372 23.0709 18.3597 23.1983 18.2997 23.3033C17.34 25.1254 16.5452 27.0374 15.9303 29.0094C15.8928 29.1219 15.7879 29.1893 15.6754 29.1893C12.1288 29.1968 9.24951 32.0686 9.24951 35.6152V42.401C9.87935 40.369 10.8991 38.4795 12.2488 36.8374V35.6077C12.2488 33.7182 13.7859 32.1811 15.6754 32.1811C16.3052 32.1811 16.9126 31.9936 17.4374 31.6562C17.6324 31.3413 17.8573 31.0489 18.0973 30.7714C18.2772 30.5765 18.4647 30.3965 18.6596 30.2241C18.7121 30.1191 18.7571 30.0066 18.7946 29.8942C19.3495 28.1021 20.0768 26.3626 20.954 24.698C21.6214 23.4308 21.3889 21.8787 20.3692 20.8664L20.3617 20.859C19.027 19.5168 19.027 17.3498 20.3617 16.0152L25.2055 11.1714C26.5476 9.82924 28.7146 9.82924 30.0492 11.1714L30.0567 11.1789C31.069 12.1911 32.6211 12.4311 33.8883 11.7638C35.5528 10.8865 37.2924 10.1667 39.0845 9.6043C40.4491 9.1769 41.3789 7.91722 41.3714 6.48508C41.3714 4.59556 42.9085 3.05844 44.798 3.05844H51.6513C53.5408 3.05844 55.0779 4.59556 55.0779 6.48508C55.0779 7.91722 56.0002 9.1769 57.3648 9.6043C59.1569 10.1592 60.8964 10.8865 62.561 11.7638C63.8282 12.4311 65.3803 12.1986 66.3926 11.1789L66.4 11.1714C67.7422 9.82924 69.9092 9.82924 71.2438 11.1714L76.0876 16.0152C77.4298 17.3573 77.4298 19.5243 76.0876 20.859L76.0801 20.8664C75.0679 21.8787 74.8279 23.4308 75.4952 24.698C76.3725 26.3626 77.0923 28.1021 77.6547 29.8942C77.6922 30.0066 77.7372 30.1191 77.7897 30.2241C77.9846 30.3965 78.1721 30.5765 78.352 30.7714C78.5995 31.0489 78.8169 31.3413 79.0118 31.6562C79.5367 32.0011 80.1516 32.1811 80.7739 32.1811C82.6634 32.1811 84.2005 33.7182 84.2005 35.6077V36.8299C85.5652 38.4945 86.5849 40.384 87.2148 42.416Z" fill="#2E4456"/>
<path id="Vector_2" d="M37.4351 60.4789C38.5148 61.0263 39.632 61.4911 40.7792 61.866C41.4615 62.0085 42.1364 62.196 42.7962 62.4284C46.3653 63.2607 50.0844 63.2607 53.6535 62.4284C54.3133 62.196 54.9881 62.0085 55.6704 61.866C56.7577 61.5136 57.8149 61.0787 58.8421 60.5689C58.3098 59.7216 57.8599 58.8293 57.5075 57.892C51.599 60.8013 44.6707 60.7713 38.7922 57.8096C38.4248 58.7393 37.9674 59.6316 37.4351 60.4789Z" fill="#2075BC"/>
<path id="Vector_3" d="M66.7528 29.1892C67.6376 28.7768 68.6049 28.5593 69.5871 28.5593H69.7896C63.9935 16.6448 49.6422 11.6811 37.7277 17.4771C32.8989 19.824 28.9924 23.7305 26.6455 28.5593H26.8479C27.8302 28.5593 28.79 28.7768 29.6822 29.1892C35.1334 18.9543 47.8501 15.0777 58.085 20.5289C61.7816 22.4859 64.7958 25.5001 66.7528 29.1892Z" fill="#2075BC"/>
<path id="Vector_4" d="M24.9809 58.5518C26.5705 58.5593 28.1001 57.922 29.2248 56.7973C29.8097 56.2124 29.8097 55.2602 29.2248 54.6753C28.64 54.0905 27.6877 54.0905 27.1029 54.6753C25.9182 55.8075 24.0511 55.8075 22.8589 54.6753C22.2741 54.0905 21.3218 54.0905 20.737 54.6753C20.1521 55.2602 20.1521 56.2124 20.737 56.7973C21.8617 57.922 23.3913 58.5518 24.9809 58.5518Z" fill="#2075BC"/>
<path id="Vector_5" d="M71.4692 58.5518C73.0588 58.5593 74.5884 57.922 75.7131 56.7973C76.298 56.2124 76.298 55.2602 75.7131 54.6753C75.1283 54.0905 74.176 54.0905 73.5911 54.6753C72.4064 55.8075 70.5394 55.8075 69.3472 54.6753C68.7624 54.0905 67.8101 54.0905 67.2253 54.6753C66.6404 55.2602 66.6404 56.2124 67.2253 56.7973C68.35 57.922 69.8796 58.5518 71.4692 58.5518Z" fill="#2075BC"/>
<path id="Vector_6" d="M84.1557 64.5428H79.7094V61.0187C81.9813 58.7318 83.286 55.6576 83.346 52.4409L83.4509 48.7968H84.958C85.7903 48.7968 86.4577 48.1294 86.4577 47.2972C86.4577 46.4724 85.7903 45.7975 84.958 45.7975H84.8681C84.3357 41.0962 81.3739 37.0098 77.07 35.0378C76.9426 33.0733 75.3155 31.5511 73.3435 31.5511H69.5869C67.6149 31.5511 65.9878 33.0733 65.8604 35.0378C61.549 37.0098 58.5947 41.0962 58.0624 45.7975H57.9649C57.1401 45.7975 56.4653 46.4724 56.4653 47.2972C56.4653 48.1294 57.1401 48.7968 57.9649 48.7968H59.562L59.472 52.0735C59.382 55.3726 60.6192 58.5743 62.9136 60.9512C63.0111 61.0562 63.1161 61.1462 63.2135 61.2362V64.5428H58.7672C54.4633 64.4978 50.4593 66.7248 48.2173 70.3988C45.9829 66.7248 41.9714 64.4978 37.6675 64.5428H33.2211V61.0187C35.4931 58.7318 36.7977 55.6576 36.8577 52.4409L36.9627 48.7968H38.4698C39.3021 48.7968 39.9694 48.1294 39.9694 47.2972C39.9694 46.4724 39.3021 45.7975 38.4698 45.7975H38.3798C37.8475 41.0962 34.8857 37.0098 30.5818 35.0378C30.4543 33.0733 28.8273 31.5511 26.8553 31.5511H23.0987C21.1267 31.5511 19.4996 33.0733 19.3721 35.0378C15.0607 37.0098 12.1065 41.0962 11.5741 45.7975H11.4766C10.6519 45.7975 9.97702 46.4724 9.97702 47.2972C9.97702 48.1294 10.6519 48.7968 11.4766 48.7968H13.0737L12.9838 52.0735C12.8938 55.3726 14.131 58.5743 16.4254 60.9512C16.5229 61.0562 16.6278 61.1462 16.7253 61.2362V64.5428H12.2789C5.63563 64.5428 0.229492 69.619 0.229492 75.8499V92.3008H3.22873V75.8499C3.22873 71.2686 7.29271 67.542 12.2789 67.542H16.9053C16.9727 67.6845 17.0627 67.812 17.1752 67.9244L22.5214 73.2256L19.0497 84.3003C18.8473 84.9301 19.0872 85.62 19.6346 85.9949L24.1334 89.0316C24.6433 89.3765 25.3106 89.3765 25.813 89.0316L30.3119 85.9949C30.8667 85.62 31.1067 84.9301 30.9042 84.3003L27.4326 73.2256L32.7788 67.9244C32.8912 67.812 32.9812 67.6845 33.0487 67.542H37.6675C42.6612 67.542 46.7177 71.2686 46.7177 75.8499V92.3008H49.717V75.8499C49.717 71.2686 53.7809 67.542 58.7672 67.542H63.3935C63.461 67.6845 63.551 67.812 63.6634 67.9244L69.0096 73.2256L65.538 84.3003C65.3355 84.9301 65.5755 85.62 66.1228 85.9949L70.6217 89.0316C71.1315 89.3765 71.7989 89.3765 72.3012 89.0316L76.8001 85.9949C77.355 85.62 77.5949 84.9301 77.3925 84.3003L73.9208 73.2256L79.267 67.9244C79.3795 67.812 79.4694 67.6845 79.5369 67.542H84.1557C89.1495 67.542 93.206 71.2686 93.206 75.8499V92.3008H96.2052V75.8499C96.2052 69.619 90.8066 64.5428 84.1557 64.5428ZM19.6346 38.2769L19.7321 39.2067C19.822 40.0315 20.5568 40.6314 21.3816 40.5414C22.2064 40.4589 22.8063 39.7241 22.7163 38.8993L22.3489 35.3827C22.3114 34.9703 22.6113 34.6029 23.0162 34.5579C23.0462 34.5579 23.0687 34.5504 23.0987 34.5504H26.8553C27.2677 34.5579 27.6051 34.8878 27.6051 35.3077V35.3827L27.2302 38.8993C27.1477 39.7241 27.7475 40.4589 28.5723 40.5414C28.6248 40.5489 28.6773 40.5489 28.7298 40.5489C29.4946 40.5489 30.1394 39.9715 30.2144 39.2067L30.3119 38.2769C33.0487 39.889 34.9082 42.6558 35.3656 45.7975H14.5884C15.0457 42.6558 16.9053 39.889 19.6346 38.2769ZM27.71 84.1353L24.9732 85.9799L22.2439 84.1353L24.9732 75.4225L27.71 84.1353ZM30.2219 66.2374L25.1157 71.2911H24.8383L19.7246 66.2374V63.3506C21.2692 64.1154 22.9562 64.5203 24.6733 64.5428C24.7258 64.5503 24.7858 64.5503 24.8383 64.5503C26.7128 64.5428 28.5648 64.0854 30.2219 63.2156V66.2374ZM24.8383 61.5511C24.7933 61.5511 24.7558 61.5511 24.7183 61.5436C22.3939 61.5136 20.1819 60.5463 18.5849 58.8667C16.8453 57.0672 15.908 54.6453 15.983 52.1484L16.0805 48.7968H33.9634L33.8585 52.3659C33.836 57.3671 29.832 61.4386 24.8383 61.5511ZM66.1228 38.2769L66.2203 39.2067C66.3103 40.0315 67.0451 40.6314 67.8699 40.5414C68.6946 40.4589 69.2945 39.7241 69.2045 38.8993L68.8371 35.3827C68.7996 34.9703 69.0996 34.6029 69.5045 34.5579C69.5344 34.5579 69.5569 34.5504 69.5869 34.5504H73.3435C73.7559 34.5579 74.0933 34.8878 74.0933 35.3077V35.3827L73.7184 38.8993C73.6359 39.7241 74.2358 40.4589 75.0605 40.5414C75.113 40.5489 75.1655 40.5489 75.218 40.5489C75.9828 40.5489 76.6277 39.9715 76.7026 39.2067L76.8001 38.2769C79.5369 39.889 81.3964 42.6558 81.8538 45.7975H61.0766C61.534 42.6558 63.3935 39.889 66.1228 38.2769ZM74.1983 84.1353L71.4615 85.9799L68.7321 84.1353L71.4615 75.4225L74.1983 84.1353ZM76.7101 66.2374L71.6039 71.2911H71.3265L66.2128 66.2374V63.3506C67.7574 64.1154 69.4445 64.5203 71.1615 64.5428C71.214 64.5503 71.274 64.5503 71.3265 64.5503C73.201 64.5428 75.053 64.0854 76.7101 63.2156V66.2374ZM71.3265 61.5511C71.2815 61.5511 71.244 61.5511 71.2065 61.5436C68.8821 61.5136 66.6702 60.5463 65.0731 58.8667C63.3335 57.0672 62.3962 54.6453 62.4712 52.1484L62.5687 48.7968H80.4517L80.3467 52.3659C80.3242 57.3671 76.3202 61.4386 71.3265 61.5511ZM86.6226 80.4988C85.7978 80.4988 85.123 81.1736 85.123 81.9984V92.3008H88.1222V81.9984C88.1222 81.1736 87.4549 80.4988 86.6226 80.4988ZM56.3078 80.4988C55.4755 80.4988 54.8082 81.1736 54.8082 81.9984V92.3008H57.8074V81.9984C57.8074 81.1736 57.1326 80.4988 56.3078 80.4988ZM40.1344 80.4988C39.3096 80.4988 38.6348 81.1736 38.6348 81.9984V92.3008H41.634V81.9984C41.634 81.1736 40.9667 80.4988 40.1344 80.4988ZM9.81957 80.4988C8.98728 80.4988 8.31995 81.1736 8.31995 81.9984V92.3008H11.3192V81.9984C11.3192 81.1736 10.6444 80.4988 9.81957 80.4988Z" fill="#2E4456"/>
</g>
</svg>
