<svg width="94" height="94" viewBox="0 0 94 94" fill="none" xmlns="http://www.w3.org/2000/svg">
<g id="Group">
<g id="Vector">
<path d="M36.5028 27.515C47.2314 27.515 55.97 36.2555 55.97 47.0045C55.97 57.7453 47.2394 66.4939 36.5028 66.4939C25.7661 66.4939 17.0355 57.7534 17.0355 47.0045C17.0435 36.2555 25.7741 27.515 36.5028 27.515ZM36.5028 24.3016C23.9767 24.3016 13.8258 34.4641 13.8258 47.0045C13.8258 59.5448 23.9767 69.7073 36.5028 69.7073C49.0289 69.7073 59.1798 59.5448 59.1798 47.0045C59.1798 34.4641 49.0289 24.3016 36.5028 24.3016Z" fill="#2075BC"/>
<path d="M39.3597 10.7168H33.0526C29.7545 10.7168 27.0824 13.392 27.0824 16.6938C27.0824 16.7982 27.0182 16.8946 26.9139 16.9348C25.0843 17.5052 23.3109 18.2442 21.6097 19.136C21.5134 19.1842 21.3931 19.1681 21.3208 19.0878C18.9857 16.75 15.2062 16.75 12.8711 19.0797L8.36142 23.5866C6.02632 25.9243 6.02632 29.7081 8.36142 32.0459C8.40957 32.0941 8.44167 32.1584 8.44167 32.2307C8.44167 32.2708 8.43364 32.311 8.40957 32.3431C7.51083 34.0382 6.78062 35.8217 6.21089 37.6533C6.17879 37.7578 6.08251 37.822 5.97016 37.822C2.67213 37.822 0 40.4972 0 43.799V50.1777C0 53.4795 2.67213 56.1546 5.97016 56.1546C6.07448 56.1546 6.17077 56.2189 6.21089 56.3233C6.78062 58.155 7.51886 59.9304 8.40957 61.6335C8.42562 61.6657 8.44167 61.7058 8.44167 61.746C8.44167 61.8103 8.4176 61.8745 8.36946 61.9227C6.03435 64.2525 6.02632 68.0443 8.36142 70.3821C8.36142 70.3821 8.36143 70.3821 8.36946 70.3901L12.8792 74.8969C15.2143 77.2267 18.9938 77.2267 21.3289 74.8969C21.4011 74.8166 21.5215 74.7925 21.6258 74.8487C23.3189 75.7405 25.1004 76.4796 26.9299 77.0499C27.0342 77.0821 27.0984 77.1785 27.0984 77.2909C27.0984 80.5927 29.7706 83.2679 33.0686 83.2679H39.3758C37.49 82.6814 35.7327 81.7335 34.2081 80.4803H33.0686C31.3113 80.4803 29.8829 79.0503 29.8829 77.2909C29.8829 76.7045 29.7144 76.1421 29.3934 75.6521C29.1045 75.4673 28.8237 75.2665 28.5749 75.0335C28.3984 74.8728 28.2219 74.6961 28.0614 74.5113C27.9651 74.4631 27.8608 74.4229 27.7564 74.3908C26.0874 73.8686 24.4744 73.2018 22.9257 72.3824C21.7461 71.7638 20.3018 71.9807 19.3629 72.9207L19.3549 72.9287C18.1111 74.1739 16.097 74.1739 14.8452 72.9287L10.3354 68.4219C9.09166 67.1767 9.09166 65.1603 10.3354 63.9151L10.3435 63.907C11.2903 62.9671 11.507 61.5211 10.8811 60.3401C10.0626 58.7977 9.39659 57.1749 8.875 55.5039C8.4818 54.2346 7.3022 53.375 5.97817 53.375C4.22083 53.375 2.79248 51.945 2.79248 50.1857V43.807C2.79248 42.0477 4.22083 40.6177 5.97817 40.6177C7.31023 40.6177 8.4818 39.7581 8.875 38.4888C9.39659 36.8179 10.0626 35.2031 10.8811 33.6526C11.499 32.4717 11.2823 31.0256 10.3435 30.0857L10.3354 30.0777C9.09166 28.8325 9.09166 26.8161 10.3354 25.5709L14.8452 21.064C16.0889 19.8188 18.1031 19.8188 19.3549 21.064L19.3629 21.0721C20.3018 22.012 21.7461 22.2369 22.9257 21.6103C24.4744 20.7909 26.0874 20.1241 27.7564 19.6019C27.8608 19.5698 27.9651 19.5216 28.0614 19.4814C28.2219 19.2966 28.3904 19.1199 28.5749 18.9592C28.8317 18.7343 29.1045 18.5254 29.3934 18.3407C29.7144 17.8506 29.8829 17.2802 29.8829 16.7018C29.8829 14.9424 31.3113 13.5125 33.0686 13.5125H34.2081C35.7167 12.2512 37.474 11.3032 39.3597 10.7168Z" fill="#2E4456"/>
</g>
<path id="Vector_2" d="M89.5842 92H36.0614C34.7695 92 33.7183 90.9476 33.7183 89.6542V4.34581C33.7183 3.05241 34.7695 2 36.0614 2H89.5842C90.8761 2 91.9273 3.05241 91.9273 4.34581V89.6542C91.9273 90.9476 90.8761 92 89.5842 92Z" fill="white" stroke="#2E4456" stroke-width="2.4" stroke-miterlimit="10"/>
<path id="Vector_3" d="M79.7702 22.1315H45.8883C43.6478 22.0354 43.6783 18.8562 45.8875 18.7754H79.7702C80.6991 18.7754 81.446 19.5228 81.446 20.4534C81.446 21.3834 80.6917 22.1315 79.7702 22.1315ZM79.7702 39.6448H45.8879C43.6616 39.5565 43.6646 36.3699 45.8875 36.2886H79.7702C80.6991 36.2886 81.446 37.036 81.446 37.9667C81.446 38.8967 80.6917 39.6448 79.7702 39.6448ZM79.7702 57.158H45.8879C43.6616 57.0698 43.6646 53.8832 45.8875 53.8019H79.7702C80.6984 53.8019 81.446 54.5566 81.446 55.48C81.446 56.4099 80.6917 57.158 79.7702 57.158ZM79.7702 74.671H45.8879C45.3141 74.6483 44.9022 74.4289 44.6323 74.1253C44.3585 73.8173 44.2184 73.4085 44.2192 72.9935C44.2201 72.5785 44.362 72.1692 44.6367 71.8608C44.9074 71.5567 45.3185 71.3376 45.8879 71.3149H79.7702C80.6991 71.3149 81.446 72.0623 81.446 72.993C81.446 73.923 80.6917 74.671 79.7702 74.671Z" fill="#2E4456" stroke="white" stroke-width="0.5"/>
<path id="Vector_4" d="M54.4776 44.3397C53.6249 44.3397 52.9268 43.6473 52.9268 42.7866V33.1463C52.9268 32.2916 53.6189 31.5933 54.4776 31.5933C55.3303 31.5933 56.0285 32.2856 56.0285 33.1463V42.7866C56.0285 43.6413 55.3363 44.3397 54.4776 44.3397ZM71.1685 61.8528C70.3158 61.8528 69.6177 61.1605 69.6177 60.2997V50.6595C69.6177 49.8047 70.3098 49.1064 71.1685 49.1064C72.0213 49.1064 72.7194 49.7987 72.7194 50.6595V60.2997C72.7194 61.1605 72.0213 61.8528 71.1685 61.8528ZM54.4776 79.9203C53.6249 79.9203 52.9268 79.228 52.9268 78.3673V68.727C52.9268 67.8723 53.6189 67.1739 54.4776 67.1739C55.3303 67.1739 56.0285 67.8663 56.0285 68.727V78.3673C56.0285 79.229 55.3373 79.9203 54.4776 79.9203ZM71.1683 26.8265C70.3155 26.8265 69.6174 26.1342 69.6174 25.2734V15.6331C69.6174 14.7784 70.3096 14.0801 71.1683 14.0801C72.021 14.0801 72.7191 14.7724 72.7191 15.6331V25.2734C72.7191 26.1271 72.02 26.8265 71.1683 26.8265Z" fill="#2075BC" stroke="white" stroke-width="0.75"/>
</g>
</svg>
