<svg width="89" height="89" viewBox="0 0 89 89" fill="none" xmlns="http://www.w3.org/2000/svg">
<g id="Group">
<g id="Group_2">
<g id="Group_3">
<path id="Vector" d="M34.6486 26.052C44.6736 26.052 52.839 34.2192 52.839 44.2631C52.839 54.2995 44.6811 62.4742 34.6486 62.4742C24.6162 62.4742 16.4582 54.307 16.4582 44.2631C16.4657 34.2192 24.6237 26.052 34.6486 26.052ZM34.6486 23.0493C22.9441 23.0493 13.459 32.5452 13.459 44.2631C13.459 55.981 22.9441 65.4769 34.6486 65.4769C46.3532 65.4769 55.8383 55.981 55.8383 44.2631C55.8383 32.5452 46.3532 23.0493 34.6486 23.0493Z" fill="#2075BC"/>
</g>
<path id="Vector_2" d="M37.3182 10.3555H31.4247C28.343 10.3555 25.8461 12.8552 25.8461 15.9404C25.8461 16.038 25.7861 16.1281 25.6887 16.1656C23.9791 16.6986 22.322 17.3892 20.7324 18.2224C20.6424 18.2675 20.53 18.2525 20.4625 18.1774C18.2805 15.993 14.7489 15.993 12.567 18.1699L8.35305 22.3811C6.1711 24.5656 6.1711 28.1012 8.35305 30.2856C8.39804 30.3307 8.42803 30.3907 8.42803 30.4583C8.42803 30.4958 8.42053 30.5333 8.39804 30.5634C7.55825 32.1473 6.87593 33.8138 6.34356 35.5253C6.31357 35.6229 6.2236 35.6829 6.11863 35.6829C3.03691 35.6829 0.540039 38.1826 0.540039 41.2679V47.2281C0.540039 50.3134 3.03691 52.8131 6.11863 52.8131C6.2161 52.8131 6.30607 52.8731 6.34356 52.9707C6.87593 54.6823 7.56575 56.3412 8.39804 57.9326C8.41303 57.9627 8.42803 58.0002 8.42803 58.0377C8.42803 58.0978 8.40554 58.1578 8.36055 58.2029C6.17861 60.3798 6.1711 63.9229 8.35305 66.1074C8.35305 66.1074 8.35306 66.1074 8.36055 66.1149L12.5745 70.3261C14.7564 72.503 18.288 72.503 20.47 70.3261C20.5375 70.251 20.6499 70.2285 20.7474 70.2811C22.3295 71.1143 23.9941 71.8049 25.7037 72.3379C25.8011 72.3679 25.8611 72.458 25.8611 72.5631C25.8611 75.6483 28.358 78.148 31.4397 78.148H37.3332C35.5712 77.6001 33.9291 76.7143 32.5044 75.5432H31.4397C29.7976 75.5432 28.463 74.207 28.463 72.5631C28.463 72.0151 28.3055 71.4896 28.0056 71.0317C27.7357 70.8591 27.4732 70.6714 27.2408 70.4537C27.0758 70.3036 26.9109 70.1384 26.7609 69.9658C26.6709 69.9208 26.5734 69.8832 26.476 69.8532C24.9164 69.3653 23.4092 68.7422 21.9621 67.9765C20.8599 67.3985 19.5102 67.6012 18.633 68.4795L18.6255 68.487C17.4633 69.6505 15.5812 69.6505 14.4115 68.487L10.1976 64.2757C9.03539 63.1122 9.03539 61.2281 10.1976 60.0645L10.2051 60.057C11.0899 59.1787 11.2923 57.8275 10.7075 56.7241C9.94266 55.2828 9.32031 53.7664 8.83294 52.2051C8.46553 51.019 7.3633 50.2158 6.12611 50.2158C4.48403 50.2158 3.14936 48.8796 3.14936 47.2357V41.2754C3.14936 39.6314 4.48403 38.2952 6.12611 38.2952C7.3708 38.2952 8.46553 37.492 8.83294 36.306C9.32031 34.7446 9.94266 33.2357 10.7075 31.787C11.2848 30.6835 11.0824 29.3323 10.2051 28.454L10.1976 28.4465C9.03539 27.283 9.03539 25.3988 10.1976 24.2353L14.4115 20.024C15.5737 18.8605 17.4558 18.8605 18.6255 20.024L18.633 20.0315C19.5102 20.9098 20.8599 21.12 21.9621 20.5345C23.4092 19.7688 24.9164 19.1458 26.476 18.6578C26.5734 18.6278 26.6709 18.5828 26.7609 18.5452C26.9109 18.3726 27.0683 18.2074 27.2408 18.0573C27.4807 17.8471 27.7357 17.6519 28.0056 17.4793C28.3055 17.0214 28.463 16.4884 28.463 15.9479C28.463 14.304 29.7976 12.9678 31.4397 12.9678H32.5044C33.9141 11.7892 35.5562 10.9035 37.3182 10.3555Z" fill="#2E4456"/>
</g>
<path id="Vector_3" d="M84.2487 86.3078H34.2363C33.0291 86.3078 32.0469 85.3245 32.0469 84.1159V4.40277C32.0469 3.1942 33.0291 2.21082 34.2363 2.21082H84.2487C85.4558 2.21082 86.4381 3.1942 86.4381 4.40277V84.1159C86.4381 85.3245 85.4558 86.3078 84.2487 86.3078Z" fill="white" stroke="#2E4456" stroke-width="4" stroke-miterlimit="10"/>
<path id="Vector_4" d="M43.4138 21.2551H75.0783C76.068 21.2551 76.8778 20.4518 76.8778 19.4534C76.8778 18.4551 76.0755 17.6519 75.0783 17.6519H43.4138C41.0369 17.7344 41.0219 21.1575 43.4138 21.2551Z" fill="#2E4456"/>
<path id="Vector_5" d="M43.4138 37.6197H75.0783C76.068 37.6197 76.8778 36.8165 76.8778 35.8181C76.8778 34.8197 76.0755 34.0165 75.0783 34.0165H43.4138C41.0369 34.0991 41.0219 37.5296 43.4138 37.6197Z" fill="#2E4456"/>
<path id="Vector_6" d="M43.4138 53.9843H75.0783C76.068 53.9843 76.8778 53.1811 76.8778 52.1827C76.8778 51.1918 76.0755 50.3811 75.0783 50.3811H43.4138C41.0369 50.4637 41.0219 53.8942 43.4138 53.9843Z" fill="#2E4456"/>
<path id="Vector_7" d="M43.4138 70.3486H75.0783C76.068 70.3486 76.8778 69.5453 76.8778 68.547C76.8778 67.5486 76.0755 66.7454 75.0783 66.7454H43.4138C41.0369 66.8354 41.0219 70.2585 43.4138 70.3486Z" fill="#2E4456"/>
<g id="Group_4">
<g id="Group_5">
<path id="Vector_8" d="M51.4446 42.1236C50.4548 42.1236 49.645 41.3204 49.645 40.322V31.314C49.645 30.3232 50.4473 29.5125 51.4446 29.5125C52.4343 29.5125 53.2441 30.3157 53.2441 31.314V40.322C53.2441 41.3129 52.4418 42.1236 51.4446 42.1236Z" fill="#2075BC"/>
</g>
<g id="Group_6">
<path id="Vector_9" d="M67.0407 58.4881C66.051 58.4881 65.2412 57.6849 65.2412 56.6865V47.6785C65.2412 46.6877 66.0435 45.877 67.0407 45.877C68.0305 45.877 68.8403 46.6802 68.8403 47.6785V56.6865C68.8403 57.6849 68.0305 58.4881 67.0407 58.4881Z" fill="#2075BC"/>
</g>
<g id="Group_7">
<path id="Vector_10" d="M51.4446 75.3706C50.4548 75.3706 49.645 74.5674 49.645 73.569V64.561C49.645 63.5701 50.4473 62.7594 51.4446 62.7594C52.4343 62.7594 53.2441 63.5626 53.2441 64.561V73.569C53.2441 74.5674 52.4418 75.3706 51.4446 75.3706Z" fill="#2075BC"/>
</g>
<g id="Group_8">
<path id="Vector_11" d="M67.0407 25.7591C66.051 25.7591 65.2412 24.9559 65.2412 23.9575V14.9495C65.2412 13.9587 66.0435 13.1479 67.0407 13.1479C68.0305 13.1479 68.8403 13.9512 68.8403 14.9495V23.9575C68.8403 24.9484 68.0305 25.7591 67.0407 25.7591Z" fill="#2075BC"/>
</g>
</g>
</g>
</svg>
