<svg width="73" height="96" viewBox="0 0 73 96" fill="none" xmlns="http://www.w3.org/2000/svg">
<g id="Group">
<g id="Group_2">
<g id="Group_3">
<g id="Group_4">
<path id="Vector" d="M41.2421 14.1255C50.3523 14.1255 57.7604 21.5337 57.7604 30.6439C57.7604 39.7541 50.3523 47.1622 41.2421 47.1622C32.1319 47.1622 24.7238 39.7541 24.7238 30.6439C24.7238 21.5337 32.1319 14.1255 41.2421 14.1255ZM41.2421 12.0336C30.9622 12.0336 22.6318 20.364 22.6318 30.6439C22.6318 40.9238 30.9622 49.2541 41.2421 49.2541C51.522 49.2541 59.8524 40.9238 59.8524 30.6439C59.8524 20.364 51.522 12.0336 41.2421 12.0336Z" fill="#2075BC"/>
</g>
<g id="Group_5">
<path id="Vector_2" d="M38.4076 60.6213C35.5733 60.6213 33.2714 58.3119 33.2714 55.4851C31.7868 55.0427 30.3097 54.4278 28.9075 53.693C27.9703 54.6603 26.6806 55.1926 25.3085 55.1926C23.9363 55.1926 22.6466 54.6603 21.6719 53.693L17.9753 49.9965C17.0005 49.0217 16.4682 47.732 16.4682 46.3599C16.4682 44.9877 17.008 43.6981 17.9753 42.7308C17.233 41.3661 16.6181 39.889 16.1458 38.3744C16.1308 38.3744 16.1158 38.3744 16.1008 38.3744C13.319 38.3744 11.0396 36.08 11.0396 33.2607V28.0345C11.0396 25.2077 13.349 22.8983 16.1758 22.8983C16.6182 21.4137 17.233 19.9366 17.9678 18.5344C17.0005 17.5972 16.4607 16.3075 16.4607 14.9353C16.4607 13.5632 16.993 12.2735 17.9678 11.2988L21.6643 7.6022C22.6316 6.63494 23.9288 6.10258 25.301 6.10258C26.6731 6.10258 27.9628 6.63494 28.9375 7.60969C30.3022 6.86738 31.7793 6.25254 33.2939 5.78016C33.2714 2.98337 35.5733 0.67395 38.4076 0.67395H45.1034C47.9302 0.67395 50.2396 2.98337 50.2396 5.81015C51.7243 6.25254 53.2014 6.86738 54.6035 7.6022C55.5333 6.63494 56.8305 6.10258 58.2026 6.10258C59.5748 6.10258 60.8644 6.63494 61.8392 7.6022L65.5357 11.2988C66.503 12.266 67.0429 13.5632 67.0429 14.9353C67.0429 16.3075 66.5105 17.5972 65.5357 18.5719C66.2706 19.9366 66.8854 21.4137 67.3578 22.9283C67.3728 22.9283 67.3878 22.9283 67.4028 22.9283C70.1846 22.9283 72.464 25.2227 72.464 28.042V33.2682C72.464 36.095 70.1546 38.4044 67.3278 38.4044C66.8854 39.889 66.2781 41.3661 65.5357 42.7683C66.503 43.6981 67.0354 44.9877 67.0429 46.3599C67.0429 47.732 66.5105 49.0217 65.5433 49.9965L61.8392 53.7005C60.8719 54.6678 59.5748 55.2001 58.2026 55.2001C56.8305 55.2001 55.5408 54.6678 54.566 53.7005C53.2014 54.4428 51.7242 55.0502 50.2096 55.5226C50.2321 58.3194 47.9302 60.6288 45.0959 60.6288H38.4076V60.6213ZM35.7908 54.3679C35.9483 54.7203 36.0307 55.1027 36.0382 55.4776C36.0382 56.7673 37.0505 57.8095 38.3402 57.847C38.8575 57.8545 41.0395 57.862 42.8765 57.862H44.0837L44.0987 57.847L44.1662 57.8545L45.1484 57.847C46.4306 57.8245 47.4804 56.7598 47.4804 55.4701C47.4804 55.3276 47.4953 55.1777 47.5253 55.0127L47.5328 54.9452C47.5403 54.8927 47.7278 53.6105 49.0549 53.0032L49.0699 52.9882L49.1149 52.9732L49.2949 52.8982C49.3249 52.8832 49.3549 52.8757 49.3849 52.8682C50.742 52.4408 52.0617 51.8935 53.3139 51.2337C53.7038 51.0312 54.1461 50.9187 54.5885 50.9187C55.3159 50.9187 56.0057 51.2037 56.5231 51.721C56.9729 52.1709 57.5728 52.4184 58.2101 52.4184C58.8475 52.4184 59.4398 52.1709 59.8897 51.721L63.5863 48.0245C64.0361 47.5746 64.2836 46.9747 64.2836 46.3449C64.2836 45.715 64.0361 45.1152 63.5863 44.6653C62.7315 43.8105 62.5365 42.5284 63.0989 41.4636C63.7587 40.2114 64.3061 38.8918 64.726 37.5421C65.0859 36.3949 66.1281 35.6301 67.3278 35.6301C68.64 35.6301 69.7122 34.5654 69.7122 33.2532V28.027C69.7122 26.7149 68.6475 25.6501 67.3353 25.6501C66.1356 25.6501 65.0859 24.8853 64.7334 23.7381C64.3136 22.381 63.7662 21.0613 63.1064 19.8166C62.544 18.7519 62.739 17.4622 63.5938 16.6149C64.0437 16.165 64.2911 15.5652 64.2911 14.9278C64.2911 14.2905 64.0437 13.6982 63.5938 13.2483L59.8972 9.5517C59.4473 9.10182 58.8474 8.85438 58.2176 8.85438C57.5803 8.85438 56.9879 9.10182 56.538 9.5517C56.0207 10.0691 55.3309 10.354 54.6035 10.354C54.1612 10.354 53.7263 10.2415 53.3364 10.0391C52.0842 9.37925 50.7645 8.83188 49.4148 8.41199C47.5853 7.9621 47.5178 6.12507 47.5178 6.10258V6.07258C47.5103 5.98261 47.5028 5.89263 47.5028 5.80265C47.5028 4.51298 46.4531 3.44825 45.1634 3.42575L44.9385 3.41826H44.0912L44.0837 3.41076C43.6488 3.41076 43.1689 3.41076 42.6665 3.41076C41.4893 3.41076 40.2372 3.41826 39.3674 3.42575L38.3701 3.43325C37.073 3.46324 36.0532 4.50548 36.0532 5.80265C36.0532 5.91512 36.0457 6.0201 36.0307 6.13257C36.0457 6.34252 36.0532 7.66218 34.4411 8.29202L34.3362 8.33701C34.2687 8.367 34.2087 8.3895 34.1487 8.41199C32.7915 8.83188 31.4719 9.37925 30.2197 10.0391C29.8298 10.2415 29.3874 10.354 28.9525 10.354C28.2252 10.354 27.5354 10.0691 27.018 9.5517C26.5681 9.10182 25.9683 8.85438 25.3309 8.85438C24.6936 8.85438 24.1012 9.10182 23.6514 9.5517L19.9548 13.2483C19.025 14.178 19.025 15.6851 19.9548 16.6074C20.8096 17.4622 21.0046 18.7444 20.4422 19.8091C19.7824 21.0613 19.235 22.381 18.8151 23.7306C18.4552 24.8778 17.413 25.6426 16.2133 25.6426C14.9011 25.6426 13.8289 26.7074 13.8289 28.0195V33.2457C13.8289 34.5579 14.8936 35.6226 16.2058 35.6226C17.4054 35.6226 18.4552 36.3874 18.8076 37.5346C19.2275 38.8843 19.7749 40.2039 20.4347 41.4561C20.9971 42.5209 20.8021 43.8105 19.9473 44.6578C19.0175 45.5876 19.0175 47.0947 19.9473 48.0245L23.6439 51.721C24.0937 52.1709 24.6936 52.4184 25.3234 52.4184C25.9533 52.4184 26.5532 52.1709 27.003 51.721C27.5204 51.2037 28.2102 50.9187 28.9375 50.9187C29.3799 50.9187 29.8148 51.0312 30.2047 51.2337C31.4569 51.8935 32.7766 52.4408 34.1262 52.8607L34.1637 52.8757C34.2012 52.8832 35.011 53.1457 35.5584 53.9405L35.5958 53.9555L35.6033 53.993C35.6408 54.0529 35.6708 54.1129 35.7008 54.1729L35.7758 54.3079L35.7908 54.3679Z" fill="#2E4456"/>
</g>
</g>
<g id="Group_6">
<g id="Group_7">
<g id="Group_8">
<path id="Vector_3" d="M19.5875 95.7048C19.2351 95.7048 18.8976 95.5699 18.6502 95.3149L0.407313 77.0721C0.159875 76.8246 0.0249023 76.4872 0.0249023 76.1348C0.0249023 75.7824 0.167374 75.445 0.407313 75.1975L6.21834 69.3865C6.46578 69.1316 6.80319 68.9966 7.1556 68.9966C7.50802 68.9966 7.84543 69.1316 8.09287 69.3865L9.59249 70.8861L16.4232 64.2203C18.6352 62.0608 21.2895 60.9586 24.3113 60.9586H29.8673C31.9068 60.9586 33.6839 61.431 35.4459 62.4508L36.8481 63.2605H50.0222C52.3541 63.2605 54.3712 64.7527 55.061 66.9421L62.3866 59.0316C63.1664 58.1918 64.1562 57.7419 65.2509 57.7419C66.2181 57.7419 67.2229 58.1094 68.0027 58.7467C69.5323 60.0064 70.3121 62.3458 68.835 64.3778L58.4426 78.7066C56.0957 81.9458 52.6916 83.7229 48.8751 83.7229H28.7726C27.468 83.7229 26.3807 84.2177 25.5335 85.2L24.7761 86.0623L26.3283 87.6144C26.5757 87.8543 26.7182 88.1992 26.7182 88.5516C26.7182 88.9116 26.5757 89.2415 26.3283 89.4889L20.5247 95.2924C20.2773 95.5624 19.9399 95.7048 19.5875 95.7048ZM19.5875 92.4956L23.5165 88.5666L7.1556 72.2058L3.22661 76.1348L19.5875 92.4956ZM22.9016 84.1953L23.5315 83.4679C24.8886 81.9083 26.6957 81.0835 28.7726 81.0835H48.8751C51.8668 81.0835 54.4311 79.7264 56.2981 77.1545L66.683 62.8332C67.4329 61.8059 66.5106 60.9661 66.3156 60.8087C66.0007 60.5462 65.6183 60.3963 65.2734 60.3963C64.921 60.3963 64.6061 60.5462 64.3361 60.8387L53.9438 72.0633C52.939 73.173 51.5144 73.8104 50.0297 73.8104H38.4902C37.7553 73.8104 37.163 73.218 37.163 72.4832C37.163 71.7484 37.7553 71.156 38.4902 71.156H50.0297C50.7721 71.156 51.4844 70.8336 51.9793 70.2713C52.4067 69.7989 52.6466 69.1765 52.6466 68.5317C52.6466 67.0846 51.4694 65.9149 50.0297 65.9149H36.4957C36.2632 65.9149 36.0383 65.8549 35.8283 65.7349L34.1188 64.7527C32.7466 63.9654 31.4419 63.613 29.8673 63.613H24.3113C21.9719 63.613 19.9999 64.4302 18.2828 66.1173L11.4745 72.7606L22.9016 84.1953Z" fill="#2E4456"/>
</g>
</g>
</g>
</g>
<path id="Vector_4" fill-rule="evenodd" clip-rule="evenodd" d="M47.3978 22.5159H35.0859V24.9752H38.7825C40.3871 24.9752 41.7593 26.0025 42.2691 27.4346H35.0934V29.894H42.2691C41.7668 31.3261 40.3946 32.3534 38.7825 32.3534H35.0859V34.7453L42.869 41.8835L44.5335 40.0689L38.8125 34.8203C41.7818 34.8053 44.2486 32.6983 44.811 29.894H47.3978V27.4346H44.811C44.6235 26.5274 44.2411 25.6876 43.7012 24.9752H47.3978V22.5159Z" fill="#2E4456"/>
</g>
</svg>
