<svg width="89" height="81" viewBox="0 0 89 81" fill="none" xmlns="http://www.w3.org/2000/svg">
<g id="Group">
<g id="Group_2">
<path id="Vector" d="M30.2708 62.0571C29.7085 61.8696 29.1686 61.6521 28.6588 61.4197L32.3853 57.6932L27.0542 52.362L22.5928 56.8234C22.2254 56.396 21.8955 55.9761 21.603 55.5712L25.9294 51.2373L25.502 50.8099C25.1721 50.4875 24.9922 50.0526 24.9922 49.5877C24.9922 49.1228 25.1721 48.6954 25.502 48.373L27.3766 46.491C27.7065 46.1686 28.1414 45.9886 28.6063 45.9886C28.9362 45.9886 29.2586 46.0861 29.536 46.2585L29.8735 46.476L29.9484 46.0861C30.3308 44.0316 30.8032 41.9172 32.0554 40.665L32.8127 39.9077L32.0629 39.1503L31.9204 39.1803C31.538 39.2628 31.1406 39.3078 30.7507 39.3078C29.2811 39.3078 27.8414 38.708 26.8067 37.6657C25.2321 36.0686 24.7448 33.6917 25.5696 31.5998C25.607 31.5023 25.667 31.4123 25.7495 31.3298C25.8995 31.1799 26.0944 31.1049 26.3119 31.1049C26.5293 31.1049 26.7318 31.1874 26.8817 31.3373L29.6935 34.1491L30.9007 33.8267L31.2231 32.612L28.4113 29.8002C28.3363 29.7252 28.2764 29.6353 28.2314 29.5303C28.0739 29.1254 28.2689 28.6605 28.6738 28.4955C29.3411 28.2331 30.0384 28.0981 30.7582 28.0981C32.2578 28.0981 33.6675 28.6755 34.7322 29.7252C36.0819 31.0674 36.6517 32.9794 36.2543 34.8464L36.2243 34.9889L36.9816 35.7387L38.7437 33.9692C39.2536 33.4593 39.9284 33.1819 40.6482 33.1819C40.7982 33.1819 40.9407 33.1969 41.0906 33.2194C42.5528 33.4668 43.55 34.8539 43.3025 36.3086L43.2651 36.541L43.49 36.6085C43.9024 36.736 44.2923 36.9684 44.6072 37.2833C45.2296 37.9057 45.507 38.8054 45.3495 39.6752L45.2896 39.9001L45.5145 39.9751C46.6317 40.335 47.374 41.3623 47.374 42.547C47.374 42.7644 47.344 42.9894 47.2915 43.2143L47.2316 43.4468L47.4565 43.5293C47.584 43.5817 47.719 43.6342 47.8389 43.7017C49.1286 44.429 49.5935 46.0711 48.8737 47.3683L48.7762 47.5482L51.0781 49.8426C51.7154 50.4725 51.9554 51.3947 51.7079 52.257C51.3705 53.4117 50.4782 54.304 49.331 54.6414C49.1061 54.7014 48.8811 54.7314 48.6487 54.7314C47.9964 54.7314 47.3665 54.469 46.9166 54.0041L44.6447 51.7397L43.7674 52.6169C42.5977 53.7941 40.5958 54.3115 38.6537 54.7389L38.2113 54.8364L38.5113 55.1813C39.1111 55.8711 39.0811 56.9058 38.4363 57.5432L36.5617 59.4252C36.2393 59.7401 35.7894 59.9276 35.332 59.9276C34.8747 59.9276 34.4398 59.7476 34.1099 59.4252L33.5026 58.8104L30.2708 62.0571ZM26.5218 49.5802L35.3471 58.398L37.409 56.3285L28.5988 47.5107L26.5218 49.5802ZM34.4923 40.455L33.1801 41.7747C32.1679 42.7869 31.763 44.9689 31.4406 46.7234C31.3806 47.0833 31.3206 47.4133 31.2531 47.7357L31.2231 47.8781L36.8542 53.5092L37.9339 53.2693C39.606 52.9019 41.6904 52.452 42.6502 51.4922L47.0966 47.0533L47.314 46.8434C47.7339 46.416 47.7339 45.7187 47.314 45.2988C47.1041 45.0888 46.8267 44.9689 46.5268 44.9689C46.2418 44.9689 45.9644 45.0814 45.7544 45.2838L44.1274 46.9109C43.9774 47.0608 43.7749 47.1433 43.565 47.1433C43.355 47.1433 43.1526 47.0608 43.0026 46.9109C42.6952 46.6035 42.6952 46.1011 43.0026 45.7862L44.7572 44.0241L44.7947 44.0091L44.8697 43.9042L45.462 43.3193C45.8894 42.8919 45.8894 42.1946 45.4695 41.7672C45.2521 41.5572 44.9746 41.4448 44.6897 41.4448C44.4348 41.4448 44.1948 41.5272 43.9999 41.6847H43.9924L43.9099 41.7672L41.4505 44.2341C41.3006 44.384 41.0981 44.4665 40.8807 44.4665C40.6707 44.4665 40.4683 44.384 40.3183 44.2341C40.0034 43.9191 40.0034 43.4168 40.3183 43.1019L42.8602 40.56V40.5525L43.46 39.9601C43.8874 39.5253 43.8874 38.8429 43.46 38.408C43.2576 38.2056 42.9801 38.0931 42.7027 38.0931C42.3878 38.0931 42.1103 38.2056 41.9079 38.408L38.7587 41.5572C38.6087 41.7072 38.4063 41.7897 38.1963 41.7897C37.9864 41.7897 37.7839 41.7072 37.634 41.5572C37.3191 41.2423 37.3191 40.7399 37.634 40.425L40.7757 37.2833L41.398 36.6535C41.8254 36.2336 41.8329 35.5288 41.4055 35.0939C41.2031 34.8914 40.9332 34.779 40.6557 34.779C40.3183 34.779 40.0559 34.8914 39.8534 35.0939L34.5748 40.38L34.4923 40.455ZM45.7844 50.6149L48.0488 52.8794C48.1988 53.0443 48.4313 53.1493 48.6712 53.1493C48.7612 53.1493 48.8587 53.1343 48.9486 53.1043C49.526 52.9094 49.9834 52.4445 50.1708 51.8671C50.2833 51.5597 50.2008 51.2073 49.9459 50.9749L47.6814 48.7104L45.7844 50.6149ZM32.2804 37.4408C32.4903 37.4408 32.6927 37.5232 32.8502 37.6732L33.9299 38.7604L35.8345 36.8559L34.7472 35.7687C34.5373 35.5588 34.4623 35.2363 34.5598 34.9514C35.0621 33.5193 34.6873 31.8997 33.5925 30.8425C32.9627 30.2201 32.1304 29.8152 31.2531 29.7102L30.4733 29.6128L32.6627 31.8022C32.8652 32.0047 32.9477 32.2971 32.8727 32.5745L32.3103 34.674C32.2354 34.9439 32.0179 35.1613 31.748 35.2363L29.6485 35.7987C29.581 35.8212 29.506 35.8287 29.4386 35.8287C29.2286 35.8287 29.0337 35.7462 28.8912 35.5962L26.6943 33.4068L26.7917 34.1791C26.8967 35.0564 27.3016 35.8887 27.924 36.5185C28.6738 37.2833 29.671 37.7032 30.7358 37.7032C31.1781 37.7032 31.6205 37.6282 32.0404 37.4783C32.1154 37.4558 32.1979 37.4408 32.2804 37.4408Z" fill="#2075BC"/>
</g>
<g id="Group_3">
<path id="Vector_2" d="M65.8419 34.8839C64.2373 34.8689 62.9177 33.5493 62.9027 31.9447C62.9027 30.3026 64.2223 28.9754 65.8494 28.9679H67.9414C69.1711 28.9679 70.2808 29.7477 70.7157 30.9024L70.8282 31.1949H75.282V27.4233H73.3775C72.9726 27.4233 72.6427 27.0934 72.6427 26.6885V18.5755C72.6427 18.1706 72.9726 17.8407 73.3775 17.8407H75.282L75.222 17.3384C74.7872 13.6118 71.8779 10.7026 68.1513 10.2527C67.8364 10.2152 67.514 10.1927 67.1916 10.1927C63.1051 10.1927 59.656 13.2594 59.1761 17.3309L59.1161 17.8332H61.0206C61.4255 17.8332 61.7555 18.1632 61.7555 18.5681V26.681C61.7555 27.0859 61.4255 27.4158 61.0206 27.4158H58.3888C56.5293 27.4083 55.0146 25.8937 55.0146 24.0417V21.2074C55.0146 19.7303 55.9594 18.4406 57.3616 17.9832L57.6465 17.8932L57.669 17.5933C58.0139 12.892 61.8154 9.09045 66.5093 8.76053C66.7417 8.74553 66.9741 8.73804 67.2066 8.73804C72.1853 8.73804 76.3618 12.6296 76.7217 17.6008L76.7442 17.9007L77.0291 17.9907C78.4388 18.4406 79.376 19.7378 79.376 21.2149V24.0492C79.376 25.5113 78.4462 26.801 77.0516 27.2509L76.7442 27.3483V31.9297C76.7442 32.3346 76.4142 32.6645 76.0093 32.6645H70.8207L70.7082 32.9569C70.2808 34.1116 69.1636 34.8914 67.9339 34.8914H65.8419V34.8839ZM65.8044 30.4301C64.9871 30.4526 64.3273 31.1199 64.3273 31.9222V31.9447C64.3498 32.7695 65.0097 33.4143 65.8269 33.4143H67.9714C68.8037 33.3918 69.441 32.7395 69.441 31.9297C69.4335 31.0899 68.7587 30.4301 67.9489 30.4301H65.8044ZM74.0973 25.9462H76.0019C77.0516 25.9387 77.8989 25.0839 77.8989 24.0417V21.2074C77.8989 20.1576 77.0516 19.3029 76.0019 19.3029H74.0973V25.9462ZM58.3663 19.3029C57.3166 19.3029 56.4618 20.1576 56.4618 21.2074V24.0417C56.4618 25.0839 57.3166 25.9387 58.3588 25.9462H60.2633V19.3029H58.3663Z" fill="#2075BC"/>
</g>
<path id="Vector_3" d="M60.9905 40.755C60.1283 40.4775 59.2885 40.1401 58.4787 39.7502C60.1958 51.0349 52.4352 61.5622 41.1505 63.2793C40.1308 63.4367 39.0961 63.5117 38.0538 63.5117C36.2168 63.5192 34.3948 63.2718 32.6252 62.7844H32.6177C32.4527 62.7469 32.2953 62.7019 32.1379 62.6494C22.2854 59.8976 19.0387 50.9074 19.0387 50.9074C15.3271 42.1646 18.0564 31.7198 26.1244 25.9987C32.3778 21.5673 40.5732 20.96 47.4115 24.4316C47.2915 23.5693 47.239 22.692 47.239 21.7998V21.7323C44.3372 20.4801 41.218 19.8278 38.0538 19.8278C25.3595 19.8278 15.0347 30.1601 15.0347 42.8544C15.0272 48.0731 16.8042 53.1418 20.0659 57.2133C20.1184 57.2958 20.1784 57.3708 20.2458 57.4382L20.2684 57.4607C22.5253 60.205 25.3821 62.3945 28.6213 63.8641C28.6962 63.9016 28.7712 63.9391 28.8537 63.9616C31.7555 65.2363 34.8896 65.8886 38.0538 65.8811C50.7556 65.8811 61.088 55.5562 61.088 42.8544C61.088 42.1571 61.0505 41.4523 60.9905 40.755Z" fill="#2E4456"/>
<path id="Vector_4" d="M75.6492 42.8544C75.6492 44.5714 75.5293 46.296 75.2968 47.9981C75.2368 48.478 74.8844 48.8679 74.412 48.9878L67.9712 50.6149C67.2513 53.3892 66.1491 56.051 64.6945 58.5179L68.0986 64.224C68.346 64.6439 68.3161 65.1612 68.0236 65.5511C65.9467 68.2954 63.4948 70.7398 60.7505 72.8243C60.3681 73.1167 59.8432 73.1467 59.4233 72.8993L53.7173 69.4951C51.2504 70.9498 48.5886 72.052 45.8143 72.7718L44.1872 79.2052C44.0747 79.6776 43.6848 80.03 43.2049 80.09C39.7858 80.5623 36.3292 80.5623 32.91 80.09C32.4376 80.03 32.0477 79.6776 31.9278 79.2127L30.3007 72.7718C27.5264 72.052 24.8645 70.9423 22.3977 69.4876L16.6916 72.8993C16.2792 73.1467 15.7544 73.1167 15.3645 72.8243C12.6202 70.7398 10.1683 68.2954 8.08381 65.5511C7.79139 65.1687 7.76138 64.6439 8.01631 64.224L11.4205 58.5179C9.96585 56.051 8.86363 53.3892 8.14381 50.6149L1.70292 48.9878C1.23054 48.8679 0.878137 48.478 0.818152 47.9981C0.345772 44.5865 0.345772 41.1223 0.818152 37.7107C0.878137 37.2308 1.23054 36.8409 1.70292 36.7209L8.14381 35.0939C8.86363 32.3196 9.96585 29.6577 11.4205 27.1909L8.01631 21.4848C7.76887 21.0724 7.79889 20.5475 8.09132 20.1651C10.1758 17.4208 12.6202 14.9689 15.3645 12.8845C15.7469 12.592 16.2717 12.5621 16.6916 12.8095L22.3977 16.2211C24.8645 14.7665 27.5264 13.6643 30.3007 12.9445L31.9278 6.5036C32.0477 6.03122 32.4376 5.68629 32.91 5.6188C36.3292 5.15392 39.7858 5.15392 43.2049 5.6188C43.6848 5.68629 44.0747 6.03122 44.1872 6.5036L45.8143 12.9445C46.849 13.2144 47.8688 13.5368 48.866 13.9042C48.4611 14.8415 48.1237 15.8162 47.8687 16.821C47.9287 16.596 47.9887 16.3636 48.0562 16.1386C46.9165 15.7112 45.7543 15.3514 44.5696 15.0739C44.1347 14.9764 43.7973 14.639 43.6923 14.2116L42.0877 7.86823C39.4109 7.56081 36.7041 7.56081 34.0272 7.86823L32.4227 14.2116C32.3177 14.639 31.9802 14.9764 31.5454 15.0739C28.5311 15.7787 25.6519 16.9784 23.0275 18.613C22.6526 18.8455 22.1727 18.853 21.7903 18.6205L16.1667 15.2614C14.0598 16.9409 12.1478 18.853 10.4682 20.9674L13.8199 26.591C14.0523 26.9734 14.0448 27.4458 13.8124 27.8207C12.1778 30.4525 10.9856 33.3243 10.2808 36.3385C10.1758 36.7734 9.84584 37.1108 9.41845 37.2233L3.06758 38.8204C2.76016 41.5047 2.76016 44.2115 3.06758 46.8884L9.41845 48.493C9.84584 48.5979 10.1758 48.9353 10.2808 49.3702C10.9856 52.3845 12.1778 55.2637 13.8124 57.8881C14.0448 58.263 14.0523 58.7429 13.8199 59.1253L10.4607 64.7488C12.1403 66.8558 14.0598 68.7678 16.1667 70.4474L21.7903 67.0882C22.1727 66.8633 22.6526 66.8633 23.0275 67.0958C25.6519 68.7378 28.5311 69.93 31.5454 70.6349C31.9802 70.7398 32.3177 71.0697 32.4227 71.5046L34.0272 77.848C36.7041 78.1479 39.4109 78.1479 42.0877 77.848L43.6923 71.4971C43.7973 71.0697 44.1347 70.7398 44.5696 70.6349C47.5838 69.93 50.4631 68.7378 53.0874 67.1032C53.4623 66.8708 53.9422 66.8633 54.3246 67.0958L59.9482 70.4474C62.0551 68.7678 63.9747 66.8558 65.6468 64.7488L62.2951 59.1253C62.0626 58.7429 62.0701 58.263 62.3026 57.8881C63.9372 55.2637 65.1369 52.3845 65.8342 49.3702C65.9392 48.9353 66.2691 48.5979 66.6965 48.493L73.0474 46.8884C73.1973 45.5537 73.2798 44.204 73.2798 42.8544C73.2798 42.187 73.2573 41.5047 73.2198 40.8074C74.0146 40.5525 74.7869 40.2525 75.5293 39.9076C75.6117 40.9049 75.6492 41.8946 75.6492 42.8544Z" fill="#2E4456"/>
<path id="Vector_5" d="M87.1212 21.7998C87.1212 21.7998 87.1212 21.7998 87.1212 21.8073C87.1212 22.1372 87.1137 22.4746 87.0912 22.8045V22.8645C87.0762 23.1494 87.0537 23.4343 87.0237 23.7193C86.9562 24.4391 86.8513 25.1364 86.7088 25.8262C86.6488 26.1037 86.5888 26.3811 86.5213 26.6585C86.4913 26.7635 86.4689 26.8685 86.4389 26.9734C86.3789 27.1834 86.3189 27.3858 86.2589 27.5958C86.2064 27.7608 86.1539 27.9257 86.1014 28.0832C85.914 28.653 85.7041 29.2004 85.4641 29.7402C85.3816 29.9427 85.2916 30.1451 85.1942 30.3401C85.1717 30.4001 85.1417 30.4526 85.1117 30.5125C84.9842 30.7825 84.8493 31.0449 84.7068 31.2998C84.5344 31.6148 84.3544 31.9222 84.1669 32.2296C84.0395 32.4396 83.9045 32.6495 83.7695 32.8595C83.7021 32.9494 83.6421 33.0469 83.5821 33.1369C83.4396 33.3393 83.2972 33.5343 83.1547 33.7292C82.9597 33.9842 82.7648 34.2316 82.5624 34.479C82.3524 34.7265 82.1499 34.9664 81.9325 35.2064C81.7151 35.4388 81.4976 35.6712 81.2727 35.8962C81.0477 36.1211 80.8153 36.3386 80.5829 36.556C80.3429 36.7735 80.1029 36.9759 79.8555 37.1859C79.6456 37.3583 79.4356 37.5233 79.2182 37.6957C79.1807 37.7182 79.1432 37.7482 79.1057 37.7782C78.8583 37.9582 78.6108 38.1381 78.3559 38.3106C78.3334 38.3256 78.3109 38.3406 78.2884 38.3556C78.0335 38.528 77.7785 38.693 77.5161 38.8504C77.2462 39.0154 76.9688 39.1729 76.6913 39.3228C76.4739 39.4428 76.2489 39.5627 76.024 39.6677C75.8965 39.7352 75.769 39.7952 75.6341 39.8552C75.6041 39.8777 75.5666 39.8927 75.5291 39.9077C74.7868 40.2526 74.0145 40.5525 73.2197 40.8074C72.9798 40.8824 72.7323 40.9574 72.4774 41.0249C72.2375 41.0924 71.9975 41.1524 71.7576 41.2048C71.5476 41.2573 71.3377 41.3098 71.1278 41.3473C70.9628 41.3848 70.8053 41.4148 70.6404 41.4373C70.3029 41.4973 69.958 41.5497 69.6206 41.5872C69.5531 41.6022 69.4932 41.6097 69.4257 41.6097C69.1857 41.6397 68.9458 41.6622 68.7058 41.6772C68.4509 41.6997 68.2035 41.7147 67.9485 41.7222C67.6936 41.7372 67.4387 41.7447 67.1837 41.7447C67.1088 41.7447 67.0413 41.7372 66.9663 41.7297H66.8988C66.6889 41.7297 66.4789 41.7222 66.2614 41.7147C66.0515 41.7072 65.8341 41.6922 65.6166 41.6772C65.3767 41.6547 65.1368 41.6322 64.8968 41.6097C64.8369 41.6097 64.7768 41.6022 64.7243 41.5872C64.0045 41.5048 63.2997 41.3773 62.6024 41.2123C62.5574 41.2048 62.5049 41.1898 62.46 41.1748C62.235 41.1224 62.0176 41.0624 61.8001 41.0024C61.7626 41.0024 61.7251 40.9874 61.6951 40.9724C61.4627 40.9049 61.2227 40.8299 60.9903 40.755C60.128 40.4775 59.2883 40.1401 58.4785 39.7502C57.9161 39.4728 57.3687 39.1804 56.8438 38.8579C56.6639 38.7455 56.484 38.6405 56.3115 38.513C55.9666 38.2956 55.6291 38.0631 55.2992 37.8157C54.9693 37.5683 54.6544 37.3133 54.3395 37.0584C54.3245 37.0509 54.317 37.0434 54.3095 37.0359C54.0021 36.766 53.7022 36.496 53.4097 36.2186C53.1173 35.9412 52.8324 35.6562 52.5624 35.3563C52.4275 35.2063 52.2925 35.0564 52.1575 34.9064C52.0226 34.749 51.8876 34.599 51.7601 34.4415C51.5052 34.1266 51.2578 33.8042 51.0178 33.4743C50.7854 33.1519 50.5604 32.822 50.3505 32.4921C50.3355 32.4771 50.328 32.462 50.3205 32.447C50.1106 32.1096 49.9081 31.7647 49.7132 31.4198C49.6157 31.2399 49.5257 31.0599 49.4282 30.8799C49.2483 30.52 49.0758 30.1601 48.9109 29.7927C48.9034 29.7852 48.8959 29.7777 48.9034 29.7702C48.6784 29.2754 48.4835 28.773 48.3185 28.2631C48.0186 27.4233 47.7861 26.5536 47.6137 25.6688C47.5612 25.3913 47.5087 25.1139 47.4712 24.8365C47.4487 24.7015 47.4338 24.5666 47.4113 24.4316C47.2913 23.5693 47.2388 22.692 47.2388 21.7998V21.7323C47.2388 21.4698 47.2463 21.2149 47.2538 20.9525C47.2613 20.825 47.2688 20.6975 47.2763 20.5701C47.2913 20.3151 47.3138 20.0602 47.3438 19.8053C47.3438 19.7378 47.3513 19.6778 47.3588 19.6103C47.3888 19.3404 47.4188 19.078 47.4637 18.808C47.4937 18.6056 47.5237 18.4106 47.5687 18.2082C47.6062 17.9982 47.6437 17.7958 47.6887 17.5933C47.7412 17.3309 47.8011 17.0759 47.8686 16.821C47.9286 16.5961 47.9886 16.3636 48.0561 16.1387C48.281 15.3739 48.551 14.6316 48.8659 13.9043C48.9634 13.6793 49.0608 13.4544 49.1733 13.2294C49.2333 13.102 49.2933 12.9745 49.3607 12.847C49.4507 12.6746 49.5407 12.4946 49.6307 12.3296C49.6382 12.3072 49.6532 12.2847 49.6682 12.2622C49.7957 12.0222 49.9306 11.7898 50.0731 11.5573C50.373 11.0475 50.7029 10.5451 51.0553 10.0652C51.1603 9.92277 51.2653 9.7803 51.3702 9.64534C51.7001 9.21045 52.0526 8.79804 52.42 8.39314C52.6224 8.1757 52.8249 7.95827 53.0348 7.74832C53.2898 7.49338 53.5447 7.24593 53.8146 7.00599C54.0171 6.82604 54.2195 6.64609 54.4295 6.47363C54.8419 6.12122 55.2842 5.79132 55.7341 5.4764C55.8916 5.36392 56.0491 5.25145 56.2065 5.14648C56.409 5.01901 56.6114 4.88404 56.8214 4.76407C57.0238 4.6366 57.2263 4.51662 57.4362 4.40415C57.5862 4.31417 57.7361 4.2317 57.8936 4.15672C58.0286 4.08174 58.171 4.00675 58.3135 3.93927C58.8833 3.65434 59.4682 3.39191 60.0681 3.16697C60.278 3.09199 60.4879 3.00952 60.7054 2.94203C61.4252 2.6871 62.1675 2.48464 62.9248 2.31968C63.0523 2.28969 63.1798 2.26719 63.3072 2.24469C63.5772 2.18471 63.8546 2.13223 64.1395 2.09474C64.4694 2.04226 64.7993 1.99726 65.1367 1.96727C65.4067 1.93727 65.6766 1.91478 65.954 1.89979C66.089 1.89229 66.2315 1.88479 66.3664 1.87729C66.6364 1.86979 66.9063 1.8623 67.1762 1.8623C68.9008 1.8623 70.5654 2.07975 72.1625 2.49214C72.4849 2.57462 72.7998 2.66459 73.1147 2.76206C79.3531 4.70407 84.2794 9.63033 86.2214 15.8688C86.3189 16.1837 86.4089 16.4986 86.4914 16.821C86.9038 18.4106 87.1212 20.0752 87.1212 21.7998Z" stroke="#2E4456" stroke-width="2.5" stroke-miterlimit="10"/>
</g>
</svg>
