<svg width="116" height="118" viewBox="0 0 116 118" fill="none" xmlns="http://www.w3.org/2000/svg">
<g id="Group" filter="url(#filter0_d_1227_3366)">
<path id="Vector" d="M57.623 107.522C83.9245 107.522 105.246 86.2001 105.246 59.8986C105.246 33.5971 83.9245 12.2759 57.623 12.2759C31.3215 12.2759 10 33.5971 10 59.8986C10 86.2001 31.3215 107.522 57.623 107.522Z" fill="#FFE6E1"/>
<g id="Group_2">
<path id="Vector_2" d="M85.3562 56.0838C88.7219 36.4756 80.6503 11.5523 58.4455 10.1283C51.3637 9.67143 44.4418 12.2756 40.8705 17.3014C28.6182 22.1292 27.5902 43.6489 28.9609 51.0505C32.715 71.3516 14.6146 67.8561 19.2139 86.916L57.0367 84.8297H58.4835L95.6362 85.3094C98.7659 70.9326 83.8256 71.8998 85.3562 56.0838Z" fill="#521F4D"/>
<path id="Vector_3" d="M68.7635 53.6315H46.4521V82.0881H68.7635V53.6315Z" fill="#EE938B"/>
<g id="Group_3">
<path id="Vector_4" d="M98.5525 84.2434C88.0517 79.8344 68.8928 76.5066 68.8928 76.5066C61.5369 82.6974 52.2393 82.6594 46.452 76.5066C46.452 76.5066 27.057 79.3774 16.1069 83.2153C23.9273 97.1123 38.5249 106.692 55.4222 107.461C56.1761 107.484 56.9299 107.514 57.699 107.514C75.0684 107.499 90.2524 98.1632 98.5525 84.2434Z" fill="#E8525F"/>
</g>
<g id="Group_4">
<path id="Vector_5" d="M77.3534 50.1896C76.5234 50.1896 75.8457 51.3927 75.8457 52.87C75.8457 54.3473 76.5234 55.5504 77.3534 55.5504C78.1834 55.5504 78.8612 54.3473 78.8612 52.87C78.8536 51.3927 78.1834 50.1896 77.3534 50.1896ZM77.3534 54.3777C76.7823 54.3777 76.3178 53.5554 76.3178 52.535C76.3178 51.5146 76.7823 50.6923 77.3534 50.6923C77.9245 50.6923 78.3891 51.5146 78.3891 52.535C78.3891 53.5554 77.9245 54.3777 77.3534 54.3777Z" fill="white"/>
<path id="Vector_6" d="M36.2788 52.8699C36.2788 54.3472 36.9566 55.5503 37.7866 55.5503C38.6166 55.5503 39.2943 54.3472 39.2943 52.8699C39.2943 51.3926 38.6166 50.1895 37.7866 50.1895C36.9566 50.1895 36.2788 51.3926 36.2788 52.8699ZM36.751 52.5349C36.751 51.5145 37.2155 50.6921 37.7866 50.6921C38.3577 50.6921 38.8222 51.5145 38.8222 52.5349C38.8222 53.5553 38.3577 54.3776 37.7866 54.3776C37.2155 54.3776 36.751 53.5553 36.751 52.5349Z" fill="white"/>
<g id="Group_5">
<path id="Vector_7" d="M57.5772 19.167C43.2005 19.1822 39.9261 29.9573 40.2231 40.8008C40.2231 48.6212 40.1774 54.3777 40.9008 56.3119C41.6242 58.2461 46.6652 69.8739 57.5772 69.8892C68.4816 69.8663 73.5227 58.2384 74.2537 56.3119C74.9771 54.3777 74.9314 48.6212 74.9314 40.8008C75.2284 29.9573 71.9616 19.1822 57.5772 19.167Z" fill="#EE938B"/>
</g>
<g id="Group_6">
<path id="Vector_8" d="M57.5773 70.2089C53.2978 70.2013 49.4447 68.4653 46.1094 65.0462L46.5662 64.597C49.7721 67.8866 53.4729 69.5617 57.5697 69.5694C61.5979 69.5617 65.2454 67.9399 68.4208 64.7569L68.8777 65.2061C65.5881 68.5185 61.7807 70.2013 57.5773 70.2089Z" fill="#D16363"/>
</g>
<path id="Vector_9" d="M40.8553 40.4274C40.8553 40.4274 37.9617 36.1708 34.9919 38.6609C32.0221 41.1509 34.9081 55.2841 40.8553 52.794C46.8024 50.304 40.8553 40.4274 40.8553 40.4274Z" fill="#EE938B"/>
<path id="Vector_10" d="M74.3527 40.4274C74.3527 40.4274 77.2463 36.1708 80.2161 38.6609C83.1859 41.1509 80.2998 55.2841 74.3527 52.794C68.4055 50.304 74.3527 40.4274 74.3527 40.4274Z" fill="#EE938B"/>
<path id="Vector_11" d="M40.4343 48.5207L39.7964 48.568L40.1356 53.1397L40.7736 53.0924L40.4343 48.5207Z" fill="#D16363"/>
<path id="Vector_12" d="M74.7112 48.0635L74.335 53.1132L74.9727 53.1607L75.3489 48.111L74.7112 48.0635Z" fill="#D16363"/>
<path id="Vector_13" d="M36.4769 45.9714C35.7992 43.7022 35.7916 42.1256 36.4617 41.288C36.9567 40.6636 37.642 40.7016 37.6725 40.7016L37.6344 41.3415L37.6573 41.0218L37.642 41.3415C37.6268 41.3415 37.246 41.3261 36.9643 41.6992C36.6673 42.0799 36.3018 43.1157 37.1014 45.7885L36.4769 45.9714Z" fill="#D16363"/>
<path id="Vector_14" d="M78.9748 45.9714L78.358 45.7885C79.1652 43.1157 78.7921 42.0799 78.4951 41.6992C78.2057 41.3261 77.8326 41.3415 77.8174 41.3415L77.7793 40.7016C77.8021 40.7016 78.4875 40.6636 78.9901 41.288C79.6602 42.1256 79.6602 43.7022 78.9748 45.9714Z" fill="#D16363"/>
<path id="Vector_15" d="M39.0506 53.5706C38.944 53.5706 38.845 53.5552 38.7384 53.5323C38.708 53.5247 38.6927 53.5018 38.6699 53.4866C38.4871 54.012 38.1597 54.37 37.7866 54.37C37.2155 54.37 36.751 53.5477 36.751 52.5273C36.751 51.5145 37.2078 50.6922 37.779 50.6846C38.1216 50.6465 38.0302 50.1741 37.779 50.1893C36.9489 50.1969 36.2788 51.3925 36.2788 52.8698C36.2788 54.347 36.9566 55.5502 37.7866 55.5502C38.4795 55.5502 39.0582 54.7052 39.2334 53.5706C39.1724 53.5706 39.1115 53.5706 39.0506 53.5706Z" fill="white"/>
<path id="Vector_16" d="M77.3605 50.1893C77.1092 50.1741 77.0178 50.6465 77.3605 50.6846C77.9316 50.6922 78.3885 51.5145 78.3885 52.5273C78.3885 53.5477 77.924 54.37 77.3529 54.37C77.033 54.37 76.7589 54.1036 76.5686 53.7C76.5153 53.7381 76.4619 53.7835 76.401 53.8216C76.2716 53.9054 76.1421 53.9741 76.0127 54.0503C76.2564 54.9336 76.7589 55.5427 77.3529 55.5427C78.1829 55.5427 78.8606 54.3396 78.8606 52.8623C78.853 51.3927 78.1905 50.1969 77.3605 50.1893Z" fill="white"/>
<path id="Vector_17" d="M40.1317 39.5517C40.0022 31.9369 45.6828 27.977 45.6828 27.977C50.8 36.9473 64.9102 40.0008 77.8021 35.5461C77.8021 35.5461 76.5533 13.9887 56.4121 15.2527C36.2785 16.5168 40.1317 39.5517 40.1317 39.5517Z" fill="#521F4D"/>
</g>
</g>
</g>
<defs>
<filter id="filter0_d_1227_3366" x="0" y="0.0769043" width="115.246" height="117.445" filterUnits="userSpaceOnUse" color-interpolation-filters="sRGB">
<feFlood flood-opacity="0" result="BackgroundImageFix"/>
<feColorMatrix in="SourceAlpha" type="matrix" values="0 0 0 0 0 0 0 0 0 0 0 0 0 0 0 0 0 0 127 0" result="hardAlpha"/>
<feOffset/>
<feGaussianBlur stdDeviation="5"/>
<feComposite in2="hardAlpha" operator="out"/>
<feColorMatrix type="matrix" values="0 0 0 0 0 0 0 0 0 0 0 0 0 0 0 0 0 0 0.4 0"/>
<feBlend mode="normal" in2="BackgroundImageFix" result="effect1_dropShadow_1227_3366"/>
<feBlend mode="normal" in="SourceGraphic" in2="effect1_dropShadow_1227_3366" result="shape"/>
</filter>
</defs>
</svg>
