<svg width="111" height="110" viewBox="0 0 111 110" fill="none" xmlns="http://www.w3.org/2000/svg">
<path d="M91.5788 0H19.0882C8.73025 0 0.333496 8.39675 0.333496 18.7547V91.2453C0.333496 101.603 8.73025 110 19.0882 110H91.5788C101.937 110 110.334 101.603 110.334 91.2453V18.7547C110.334 8.39675 101.937 0 91.5788 0Z" fill="white"/>
<path d="M55.052 28.7148H74.5376C74.6823 28.8062 74.8346 28.8824 74.9717 28.989C75.2175 29.1637 75.4059 29.4075 75.513 29.6895C75.6201 29.9715 75.6411 30.2789 75.5732 30.5728C75.5195 30.87 75.3786 31.1446 75.1684 31.3615C74.9583 31.5784 74.6883 31.728 74.393 31.7911C74.1403 31.8257 73.8842 31.8257 73.6315 31.7911C73.5684 31.7815 73.504 31.7845 73.4421 31.8C73.3802 31.8155 73.322 31.8432 73.271 31.8815C73.2199 31.9198 73.177 31.9679 73.1448 32.023C73.1126 32.0781 73.0916 32.139 73.0833 32.2023C72.7711 33.3369 72.4513 34.4867 72.1314 35.5984C72.0401 35.9182 72.1314 36.0401 72.4817 36.0248C73.0071 36.0248 73.5401 36.0248 74.0655 36.0248C75.3353 36.0141 76.5874 36.323 77.7065 36.9232C78.8256 37.5233 79.7757 38.3953 80.4694 39.459C81.0749 40.3859 81.4987 41.4196 81.7182 42.5048V68.3486C81.4827 69.5596 80.8655 70.6634 79.9569 71.4979C79.0484 72.3325 77.8963 72.854 76.6697 72.9859C76.2661 73.0468 76.4337 73.2753 76.5022 73.4732C76.9362 74.6383 77.4236 75.7957 77.7967 76.9836C78.0403 77.745 78.3525 78.1638 79.2511 78.08C79.6251 78.0716 79.9878 78.2092 80.2621 78.4637C80.5365 78.7181 80.701 79.0694 80.7207 79.4431C80.7686 79.8288 80.6722 80.2187 80.4502 80.5377C80.2281 80.8568 79.896 81.0825 79.5176 81.1716C79.2948 81.1945 79.0702 81.1945 78.8475 81.1716H50.2929C49.8947 81.1439 49.522 80.9661 49.2497 80.6743C48.9775 80.3825 48.8261 79.9983 48.8261 79.5992C48.8261 79.2001 48.9775 78.8159 49.2497 78.524C49.522 78.2322 49.8947 78.0545 50.2929 78.0268C50.4802 78.0077 50.669 78.0077 50.8563 78.0268C51.0096 78.0512 51.1663 78.0146 51.293 77.925C51.4196 77.8353 51.5061 77.6997 51.534 77.547C52.0417 76.1866 52.5493 74.8286 53.057 73.4732C53.2092 73.0849 53.1103 72.9859 52.7143 72.9326C51.3198 72.7187 50.0506 72.0053 49.1429 70.9253C48.2352 69.8453 47.7508 68.4723 47.7801 67.0618C47.8486 59.2645 47.7801 51.4748 47.7801 43.6775C47.7763 41.9374 48.3611 40.2471 49.4394 38.8814C50.5176 37.5156 52.026 36.5545 53.7194 36.1543C54.798 35.9708 55.8941 35.912 56.9861 35.9791C57.4049 35.9791 57.4886 35.8421 57.3744 35.4613C57.1003 34.5095 56.849 33.5501 56.613 32.5983C56.3769 31.6465 56.4531 31.7531 55.5317 31.7378C55.3041 31.7422 55.0784 31.6955 54.8712 31.6011C54.664 31.5068 54.4806 31.3671 54.3345 31.1925C54.1884 31.0179 54.0833 30.8128 54.0269 30.5922C53.9705 30.3716 53.9643 30.1412 54.0088 29.9179C54.0704 29.6471 54.1979 29.3957 54.3798 29.1859C54.5618 28.976 54.7926 28.8143 55.052 28.7148ZM64.7605 69.9096H75.7788C76.153 69.9451 76.5305 69.8983 76.8848 69.7727C77.2391 69.6471 77.5616 69.4457 77.83 69.1824C78.0983 68.9192 78.3059 68.6005 78.4382 68.2487C78.5706 67.8968 78.6245 67.5204 78.5962 67.1455C78.5962 63.6961 78.5962 60.2391 78.5962 56.7897C78.5962 56.3557 78.5124 56.2719 78.1241 56.5156C76.8389 57.3144 75.35 57.7242 73.8371 57.6959C67.7911 57.6959 61.7426 57.6959 55.6916 57.6959C54.1963 57.7174 52.7264 57.3076 51.4579 56.5156C51.0772 56.2872 50.9706 56.3176 50.9706 56.7745C50.9706 60.2468 50.9706 63.7114 50.9706 67.1836C50.9402 67.8571 51.1691 68.5166 51.6102 69.0263C51.8879 69.3309 52.2306 69.5691 52.6128 69.7233C52.9951 69.8775 53.4071 69.9438 53.8184 69.9172L64.7605 69.9096ZM64.7605 45.3679H51.6406C51.1838 45.3679 50.9934 45.4821 51.001 45.9694C51.001 47.2335 51.001 48.4975 51.001 49.7767C50.9769 50.4004 51.0808 51.0223 51.3064 51.6042C51.5319 52.1861 51.8743 52.7157 52.3123 53.1602C52.7504 53.6047 53.2749 53.9547 53.8535 54.1887C54.4321 54.4227 55.0525 54.5356 55.6764 54.5206C61.768 54.5663 67.8597 54.5663 73.9513 54.5206C75.1138 54.5586 76.2454 54.1427 77.1067 53.3611C77.9679 52.5794 78.4912 51.4933 78.5657 50.3326C78.6584 48.9513 78.6788 47.5661 78.6267 46.1827C78.6267 45.3831 78.6267 45.3831 77.8652 45.3831L64.7605 45.3679ZM64.7605 78.1105H74.2559C74.6595 78.1105 74.7813 78.0191 74.6214 77.6079C74.096 76.2602 73.5858 74.8972 73.0985 73.5341C73.0603 73.3774 72.965 73.2405 72.8312 73.1504C72.6974 73.0602 72.5347 73.0233 72.3751 73.0468C67.2987 73.0468 62.2427 73.0468 57.2069 73.0468C57.0468 73.0299 56.8861 73.0726 56.7554 73.1667C56.6248 73.2608 56.5334 73.3998 56.4987 73.557C56.0114 74.8896 55.5012 76.2069 54.9758 77.5394C54.7702 78.0801 54.7855 78.1029 55.3718 78.1029L64.7605 78.1105ZM64.7605 42.2155H77.7053C78.2535 42.2155 78.2992 42.1469 78.0403 41.6748C77.6568 40.9215 77.0677 40.2922 76.3414 39.8596C75.6151 39.4271 74.7812 39.209 73.9361 39.2306C67.8444 39.2001 61.7528 39.2001 55.6611 39.2306C54.8457 39.2105 54.0402 39.4125 53.3307 39.8149C52.6212 40.2172 52.0344 40.8049 51.633 41.5149C51.2752 42.1241 51.3132 42.1926 51.9985 42.1926L64.7605 42.2155ZM64.7605 31.8368C63.2376 31.8368 61.7147 31.8368 60.2527 31.8368C59.6892 31.8368 59.674 31.8368 59.8263 32.4231C60.108 33.4587 60.4126 34.4867 60.6791 35.5299C60.6894 35.6129 60.7162 35.6931 60.758 35.7655C60.7998 35.838 60.8557 35.9014 60.9225 35.9518C60.9893 36.0022 61.0655 36.0387 61.1467 36.0591C61.2278 36.0795 61.3122 36.0834 61.3949 36.0705C63.626 36.0705 65.8647 36.0705 68.0957 36.0705C68.1743 36.0835 68.2546 36.0808 68.3321 36.0625C68.4096 36.0442 68.4827 36.0108 68.5472 35.964C68.6116 35.9173 68.6662 35.8582 68.7076 35.7902C68.7491 35.7222 68.7766 35.6467 68.7886 35.568C69.0704 34.4943 69.3674 33.4206 69.6796 32.3622C69.809 31.9358 69.6796 31.8216 69.2607 31.8292C67.814 31.852 66.3139 31.8444 64.8138 31.8444L64.7605 31.8368Z" fill="#2075BC"/>
<path d="M49.7139 28.7148C49.9777 28.8202 50.2111 28.9895 50.3932 29.2075C50.5753 29.4255 50.7004 29.6853 50.7571 29.9636C50.8095 30.1901 50.8093 30.4256 50.7566 30.652C50.7039 30.8784 50.6001 31.0898 50.4531 31.2698C50.3061 31.4499 50.1198 31.594 49.9085 31.6909C49.6973 31.7879 49.4666 31.8352 49.2342 31.8292C46.8688 31.8546 44.5346 32.3733 42.3811 33.3521C36.7844 36.0172 33.4568 40.4032 32.5278 46.5558C32.4084 47.3497 32.3499 48.1515 32.3527 48.9544C32.3527 52.9825 32.3527 57.0182 32.3527 61.0539C32.3527 61.724 32.3527 61.7316 33.0456 61.7316H39.9673C40.5844 61.7203 41.1975 61.8332 41.7702 62.0635C42.3429 62.2938 42.8635 62.6368 43.301 63.0722C43.7385 63.5076 44.0841 64.0265 44.3172 64.598C44.5503 65.1696 44.6661 65.7821 44.6578 66.3993C44.6578 70.7777 44.6578 75.1485 44.6578 79.5268C44.6887 79.7665 44.6644 80.01 44.5867 80.2388C44.5089 80.4676 44.3799 80.6756 44.2094 80.8469C44.0389 81.0181 43.8314 81.1481 43.603 81.2268C43.3745 81.3055 43.1311 81.3309 42.8913 81.301H30.9212C30.6852 81.33 30.4458 81.3052 30.2208 81.2286C29.9957 81.1519 29.791 81.0253 29.6218 80.8584C29.4526 80.6914 29.3234 80.4883 29.2438 80.2643C29.1642 80.0403 29.1363 79.8012 29.1622 79.5649C29.1622 63.1936 29.1622 46.8223 29.1622 30.451C29.1437 30.0907 29.2369 29.7335 29.4291 29.4282C29.6213 29.1229 29.903 28.8844 30.2359 28.7453L49.7139 28.7148ZM32.3222 71.4554C32.3222 73.4733 32.3222 75.4835 32.3222 77.5014C32.3222 77.9811 32.4745 78.1257 32.9466 78.1181C35.5737 78.1181 38.2083 78.1181 40.8353 78.1181C41.3303 78.1181 41.4902 77.9735 41.4902 77.4785C41.4902 73.8692 41.4902 70.2675 41.4902 66.6582C41.5231 66.4138 41.499 66.1651 41.4198 65.9316C41.3406 65.698 41.2085 65.486 41.0337 65.3119C40.859 65.1379 40.6463 65.0067 40.4125 64.9285C40.1786 64.8503 39.9298 64.8273 39.6855 64.8612C37.4469 64.8612 35.2082 64.8612 32.9695 64.8612C32.4593 64.8612 32.3299 65.0439 32.3299 65.5236C32.3299 67.4958 32.3222 69.4832 32.3222 71.463V71.4554ZM32.3222 37.7076C33.9227 35.4292 35.9189 33.4562 38.2159 31.8825C36.3732 31.8368 34.5457 31.8368 32.7258 31.8368C32.6707 31.8275 32.6142 31.8316 32.561 31.8486C32.5078 31.8656 32.4595 31.8951 32.42 31.9345C32.3805 31.974 32.351 32.0224 32.334 32.0756C32.317 32.1288 32.313 32.1853 32.3222 32.2404V37.7076Z" fill="#303B4D" stroke="white" stroke-width="0.52" stroke-miterlimit="10"/>
<path d="M57.1534 62.7372C57.6635 62.7372 58.1737 62.7372 58.6763 62.7372C59.0923 62.7372 59.4913 62.9025 59.7854 63.1967C60.0796 63.4908 60.2449 63.8898 60.2449 64.3058C60.2449 64.7219 60.0796 65.1208 59.7854 65.415C59.4913 65.7092 59.0923 65.8744 58.6763 65.8744C57.6052 65.8744 56.5315 65.8744 55.4553 65.8744C55.0393 65.8744 54.6403 65.7092 54.3462 65.415C54.052 65.1208 53.8867 64.7219 53.8867 64.3058C53.8867 63.8898 54.052 63.4908 54.3462 63.1967C54.6403 62.9025 55.0393 62.7372 55.4553 62.7372C56.0569 62.722 56.6051 62.7372 57.1534 62.7372Z" fill="#2075BC"/>
<path d="M72.4734 65.889C71.948 65.889 71.415 65.889 70.8896 65.889C70.4915 65.8612 70.1187 65.6835 69.8465 65.3917C69.5742 65.0999 69.4229 64.7156 69.4229 64.3165C69.4229 63.9175 69.5742 63.5332 69.8465 63.2414C70.1187 62.9496 70.4915 62.7719 70.8896 62.7441C71.9607 62.7441 73.0343 62.7441 74.1105 62.7441C74.5266 62.7441 74.9255 62.9094 75.2197 63.2036C75.5139 63.4977 75.6791 63.8967 75.6791 64.3127C75.6791 64.7288 75.5139 65.1277 75.2197 65.4219C74.9255 65.7161 74.5266 65.8813 74.1105 65.8813C73.5623 65.9042 73.0217 65.889 72.4734 65.889Z" fill="#2075BC"/>
</svg>
