<svg width="111" height="110" viewBox="0 0 111 110" fill="none" xmlns="http://www.w3.org/2000/svg">
<path d="M91.9118 0H19.4212C9.06326 0 0.666504 8.39675 0.666504 18.7547V91.2453C0.666504 101.603 9.06326 110 19.4212 110H91.9118C102.27 110 110.667 101.603 110.667 91.2453V18.7547C110.667 8.39675 102.27 0 91.9118 0Z" fill="white"/>
<path d="M55.636 80.6302H16.8017C16.6306 80.6354 16.4602 80.6058 16.3009 80.5432C16.1416 80.4805 15.9967 80.3862 15.8749 80.2658C15.7532 80.1455 15.6571 80.0017 15.5926 79.8431C15.5281 79.6845 15.4965 79.5145 15.4996 79.3434C15.4935 79.1679 15.5228 78.993 15.586 78.8292C15.6491 78.6654 15.7448 78.5161 15.8671 78.3902C15.9894 78.2643 16.136 78.1645 16.2979 78.0966C16.4598 78.0288 16.6338 77.9945 16.8093 77.9956C17.3424 77.9956 17.8754 77.9956 18.4084 77.9956C18.6901 77.9956 18.8348 77.9042 18.812 77.6072C18.812 77.5082 18.812 77.4016 18.812 77.295V37.7907C18.812 37.0902 18.812 37.0902 18.1038 37.0902C17.685 37.0902 17.2662 37.0902 16.855 37.0902C16.6716 37.0958 16.489 37.0631 16.3189 36.9941C16.1488 36.9251 15.9951 36.8213 15.8674 36.6894C15.7398 36.5575 15.6412 36.4003 15.5779 36.2281C15.5145 36.0558 15.4879 35.8722 15.4996 35.6891V30.7396C15.486 30.5571 15.5119 30.3738 15.5755 30.2023C15.6392 30.0307 15.7391 29.8749 15.8685 29.7455C15.9979 29.6161 16.1537 29.5162 16.3253 29.4525C16.4969 29.3888 16.6801 29.3629 16.8626 29.3766H78.3883C78.5645 29.365 78.7412 29.39 78.9072 29.4501C79.0733 29.5101 79.2251 29.6039 79.3532 29.7255C79.4812 29.8471 79.5827 29.9939 79.6512 30.1566C79.7197 30.3194 79.7538 30.4945 79.7513 30.6711C79.7513 32.3767 79.7513 34.09 79.7513 35.7957C79.7474 35.9687 79.7094 36.1392 79.6395 36.2975C79.5696 36.4558 79.4692 36.5988 79.344 36.7183C79.2189 36.8379 79.0714 36.9315 78.91 36.994C78.7487 37.0565 78.5765 37.0866 78.4035 37.0825C77.8858 37.0825 77.368 37.0825 76.8426 37.0825C76.5684 37.0825 76.439 37.1891 76.4466 37.4709V43.4483C76.4466 43.7834 76.6293 43.829 76.9035 43.829C78.2284 43.829 79.5457 43.829 80.8707 43.829H94.1581C94.4147 43.8181 94.6714 43.8464 94.9195 43.9128C95.1697 43.9923 95.3887 44.1481 95.5457 44.3585C95.7028 44.5688 95.79 44.823 95.7952 45.0854C95.7952 46.7378 95.7952 48.3825 95.7952 50.0349C95.7974 50.3361 95.692 50.6282 95.4979 50.8585C95.3039 51.0889 95.034 51.2423 94.7368 51.2913C94.3384 51.3484 93.9352 51.3638 93.5337 51.337C93.2367 51.337 93.0844 51.436 93.1149 51.7482C93.1187 51.8217 93.1187 51.8954 93.1149 51.969V77.3407C93.1149 77.9803 93.1149 77.9728 93.7469 77.9804C94.0286 77.9804 94.318 77.9804 94.5921 77.9804C94.7633 77.9929 94.9303 78.0391 95.0835 78.1164C95.2368 78.1937 95.3732 78.3005 95.485 78.4307C95.5968 78.5609 95.6818 78.712 95.735 78.8751C95.7883 79.0383 95.8087 79.2104 95.7952 79.3814C95.7922 79.5454 95.757 79.7073 95.6915 79.8576C95.626 80.008 95.5314 80.144 95.4134 80.2578C95.2953 80.3717 95.1559 80.4611 95.0032 80.5211C94.8506 80.5811 94.6876 80.6104 94.5236 80.6074H55.636V80.6302ZM47.6179 48.6491C51.2348 48.6491 54.8441 48.6491 58.4534 48.6491C58.9027 48.6491 59.0397 48.5272 59.0321 48.0704C59.0321 44.5981 59.0321 41.1208 59.0321 37.6384C59.0321 37.1815 58.9027 37.0597 58.4534 37.0673H36.828C36.2341 37.0673 36.2265 37.0673 36.2265 37.6536V48.0399C36.2265 48.6262 36.2265 48.6338 36.828 48.6338L47.6179 48.6491ZM83.452 63.7411C85.6222 63.7411 87.7923 63.7411 89.9624 63.7411C90.3889 63.7411 90.5183 63.6117 90.5183 63.1777C90.5183 59.4211 90.5183 55.6621 90.5183 51.9005C90.5183 51.4664 90.3736 51.3446 89.9548 51.3446C85.645 51.3446 81.3352 51.3446 77.0101 51.3446C76.4466 51.3446 76.4314 51.3446 76.4314 51.9233C76.4314 55.6697 76.4314 59.416 76.4314 63.1624C76.4314 63.6269 76.5989 63.7335 77.0329 63.7335C79.1726 63.7411 81.3123 63.7411 83.452 63.7411ZM83.452 78.0108C85.6069 78.0108 87.7618 78.0108 89.9168 78.0108C90.3584 78.0108 90.4955 77.889 90.4955 77.4321C90.4955 73.9599 90.4955 70.4851 90.4955 67.0078C90.4955 66.5737 90.3813 66.4138 89.9244 66.4138C85.6145 66.4138 81.3123 66.4138 76.9796 66.4138C76.4238 66.4138 76.4009 66.4138 76.4009 66.9849C76.4009 70.4648 76.4009 73.937 76.4009 77.4093C76.4009 77.8585 76.5304 77.9956 76.9796 77.9956C79.1726 77.9727 81.3123 77.988 83.4748 77.988L83.452 78.0108ZM47.6179 63.7411C51.2272 63.7411 54.8365 63.7411 58.4534 63.7411C58.895 63.7411 59.0397 63.6269 59.0397 63.17C59.0397 59.4389 59.0397 55.7078 59.0397 51.9766C59.0397 51.3598 59.0397 51.3522 58.4306 51.3522H36.8356C36.2417 51.3522 36.2265 51.3522 36.2265 51.9462V63.1396C36.2265 63.7259 36.2265 63.7259 36.828 63.7259L47.6179 63.7411ZM21.4542 57.52C21.4542 59.4237 21.4542 61.3273 21.4542 63.2309C21.4542 63.604 21.538 63.7564 21.9492 63.7487H33.036C33.4319 63.7487 33.5462 63.6193 33.5385 63.2309C33.5385 59.4592 33.5385 55.6875 33.5385 51.9157C33.5385 51.4741 33.3863 51.3598 32.9675 51.3598C29.3125 51.3598 25.6575 51.3598 22.0025 51.3598C21.538 51.3598 21.4314 51.5121 21.4314 51.9538C21.4618 53.7889 21.4466 55.6468 21.4542 57.4972V57.52ZM61.6667 57.52C61.6667 59.4084 61.6667 61.3273 61.6667 63.1853C61.6667 63.6041 61.7733 63.7487 62.215 63.7487C65.8852 63.7487 69.5554 63.7487 73.2257 63.7487C73.6673 63.7487 73.7739 63.5888 73.7663 63.1777C73.7663 59.4313 73.7663 55.6875 73.7663 51.9462C73.7663 51.5045 73.6444 51.3522 73.1876 51.3522C69.5326 51.3522 65.8776 51.3522 62.2226 51.3522C61.8038 51.3522 61.6515 51.4665 61.6591 51.9081C61.682 53.7584 61.6667 55.6316 61.6667 57.5048V57.52ZM47.6026 32.0265H19.0709C18.911 32.0265 18.7434 32.0265 18.5835 32.0265C18.2637 32.0265 18.119 32.1178 18.1343 32.4605C18.1495 32.8032 18.1343 33.222 18.1343 33.6179C18.1343 34.3794 18.1343 34.3794 18.8957 34.3794H76.2639C76.3552 34.3794 76.4466 34.3794 76.538 34.3794C76.8959 34.3794 77.0558 34.2728 77.0406 33.8996C77.0253 33.5265 77.0406 33.1001 77.0406 32.6965C77.0406 31.996 77.0406 31.996 76.3248 31.996L47.6026 32.0265ZM27.4773 48.6567C29.3048 48.6567 31.1323 48.6567 32.9598 48.6567C33.4015 48.6567 33.5461 48.5348 33.5461 48.078C33.5461 44.6057 33.5461 41.131 33.5461 37.6536C33.5461 37.1968 33.4091 37.0673 32.9598 37.0749C29.3048 37.0749 25.6499 37.0749 21.9949 37.0749C21.5761 37.0749 21.439 37.1968 21.439 37.6308C21.439 41.1183 21.439 44.6083 21.439 48.1008C21.439 48.5272 21.5684 48.6567 21.9949 48.6567C23.8224 48.6414 25.6498 48.6567 27.4773 48.6567ZM67.7203 37.0902C65.8776 37.0902 64.0349 37.0902 62.1922 37.0902C61.781 37.0902 61.6591 37.2044 61.6591 37.6232C61.6591 41.1259 61.6591 44.6311 61.6591 48.1389C61.6591 48.5501 61.7886 48.6719 62.1922 48.6719C65.8624 48.6719 69.5326 48.6719 73.2028 48.6719C73.6216 48.6719 73.7663 48.5501 73.7663 48.116C73.7663 44.6184 73.7663 41.1259 73.7663 37.6384C73.7663 37.2044 73.6216 37.0825 73.2028 37.0902C71.4134 37.0902 69.5478 37.0902 67.7203 37.0902ZM27.4697 77.988C29.2972 77.988 31.1247 77.988 32.9522 77.988C33.3939 77.988 33.5461 77.8814 33.5461 77.4169C33.5461 73.937 33.5461 70.4648 33.5461 66.9849C33.5461 66.5433 33.4243 66.391 32.9675 66.391C29.3125 66.391 25.6575 66.391 22.0025 66.391C21.576 66.391 21.439 66.5128 21.439 66.9468C21.439 70.4343 21.439 73.9243 21.439 77.4169C21.439 77.8433 21.5532 77.988 21.9872 77.9804C23.8147 77.9728 25.6422 77.988 27.4697 77.988ZM67.6898 77.988C69.5173 77.988 71.3448 77.988 73.1723 77.988C73.6064 77.988 73.7663 77.889 73.7663 77.4169C73.7663 73.9446 73.7663 70.4648 73.7663 66.9925C73.7663 66.5509 73.6444 66.391 73.1876 66.391C69.5326 66.391 65.8776 66.391 62.2226 66.391C61.8038 66.391 61.6591 66.5052 61.6591 66.9393C61.6591 70.4318 61.6591 73.9243 61.6591 77.4169C61.6591 77.8357 61.7657 77.988 62.2074 77.9804C64.0349 77.9728 65.8624 77.988 67.6898 77.988ZM47.6102 66.4062H36.691C36.4016 66.4062 36.2189 66.4062 36.2189 66.7946C36.2189 70.3734 36.2189 73.9599 36.2189 77.5387C36.2189 77.8966 36.3712 77.9956 36.7062 77.988C37.4677 77.988 38.191 77.988 38.9296 77.988C39.3713 77.988 39.5236 77.8737 39.5236 77.4169C39.5236 75.2315 39.5236 73.0461 39.5236 70.8607C39.4927 70.6402 39.5137 70.4155 39.5849 70.2045C39.6561 69.9935 39.7756 69.802 39.9338 69.6452C40.092 69.4885 40.2846 69.3709 40.4963 69.3016C40.708 69.2324 40.9329 69.2135 41.1531 69.2465H54.174C54.3802 69.2204 54.5896 69.2419 54.7862 69.3092C54.9829 69.3766 55.1615 69.488 55.3084 69.635C55.4554 69.7819 55.5668 69.9605 55.6341 70.1572C55.7015 70.3538 55.7229 70.5632 55.6969 70.7694C55.6969 73.0004 55.6969 75.2315 55.6969 77.4626C55.6969 77.8509 55.8111 77.9804 56.2071 77.9727C56.9685 77.9727 57.73 77.9347 58.4915 77.9727C58.9483 77.9727 59.0625 77.8281 59.0549 77.3864C59.0549 73.9218 59.0549 70.4648 59.0549 67.0002C59.0549 66.391 59.0549 66.391 58.4306 66.391L47.6102 66.4062ZM47.6102 77.988H52.6054C52.9557 77.988 53.0699 77.8738 53.0623 77.5235C53.0623 75.8331 53.0623 74.1426 53.0623 72.4446C53.0623 72.0486 52.9176 71.9344 52.5369 71.942H42.7293C42.3257 71.942 42.1887 72.0715 42.1963 72.4827C42.1963 74.1426 42.1963 75.8102 42.1963 77.4702C42.1963 77.8966 42.3638 77.9956 42.7521 77.9956C44.3664 77.9727 45.9807 77.988 47.6026 77.988H47.6102ZM84.8759 46.5246H79.6219C78.7157 46.5246 77.8096 46.5246 76.9035 46.5246C76.5837 46.5246 76.439 46.6312 76.4466 46.9662C76.4542 47.3013 76.4466 47.6439 76.4466 47.9866C76.4466 48.6567 76.4466 48.6567 77.1091 48.6567H92.7951C93.0768 48.6567 93.1987 48.5577 93.191 48.2683C93.191 47.8343 93.191 47.4003 93.191 46.9739C93.191 46.5474 93.0616 46.517 92.7037 46.517C90.0995 46.5322 87.4877 46.5246 84.8683 46.5246H84.8759Z" fill="#303B4D" stroke="white" stroke-width="0.34" stroke-miterlimit="10"/>
<path d="M44.4658 55.1675C45.2272 55.1675 45.9887 55.1675 46.7501 55.1675C47.0477 55.1552 47.3435 55.2185 47.6099 55.3517C47.8762 55.4849 48.1044 55.6835 48.273 55.929C48.6842 56.4239 49.1335 56.8884 49.5675 57.3605C49.6729 57.4676 49.8136 57.5326 49.9635 57.5433C50.9001 57.688 51.8291 57.8402 52.7657 57.9697C52.93 57.9718 53.092 58.0084 53.2413 58.0771C53.3905 58.1458 53.5237 58.2451 53.6321 58.3686C53.7405 58.4921 53.8217 58.637 53.8706 58.7939C53.9194 58.9508 53.9347 59.1162 53.9154 59.2794C53.9154 59.787 53.9154 60.2947 53.9154 60.8023C53.9337 60.9714 53.9136 61.1425 53.8568 61.3028C53.8 61.4631 53.7079 61.6086 53.5872 61.7285C53.4666 61.8484 53.3205 61.9397 53.1599 61.9955C52.9992 62.0514 52.828 62.0703 52.659 62.0511C52.3316 62.0511 52.2326 62.1805 52.1184 62.447C51.9793 62.796 51.7404 63.0963 51.4316 63.3102C51.1229 63.5242 50.7579 63.6424 50.3823 63.6502C50.0314 63.6735 49.6808 63.6008 49.3682 63.4398C49.0556 63.2788 48.7928 63.0356 48.6081 62.7364C48.4982 62.5788 48.4158 62.4038 48.3644 62.2186C48.3569 62.1694 48.3303 62.125 48.2905 62.0951C48.2506 62.0652 48.2006 62.0522 48.1512 62.0587H42.9353C42.883 62.052 42.8301 62.0657 42.7876 62.0969C42.7451 62.128 42.7161 62.1744 42.7068 62.2262C42.5948 62.6117 42.3679 62.9538 42.0563 63.2069C41.7447 63.46 41.3633 63.612 40.9631 63.6425C40.7004 63.6722 40.4345 63.6462 40.1826 63.5661C39.9307 63.4861 39.6984 63.3539 39.5011 63.1781C39.1938 62.9321 38.9703 62.5969 38.8615 62.2186C38.8578 62.1935 38.8491 62.1693 38.8359 62.1476C38.8227 62.1259 38.8053 62.107 38.7848 62.0921C38.7642 62.0772 38.7408 62.0666 38.7161 62.0608C38.6913 62.0551 38.6657 62.0544 38.6406 62.0587C38.5188 62.0587 38.397 62.0587 38.2751 62.0587C38.1169 62.0683 37.9584 62.0448 37.8097 61.9898C37.661 61.9347 37.5254 61.8494 37.4115 61.7391C37.2976 61.6288 37.2079 61.4959 37.1482 61.3491C37.0884 61.2022 37.0599 61.0446 37.0644 60.8861C37.0644 60.315 37.0644 59.7363 37.0644 59.1576C37.065 58.9265 37.1391 58.7016 37.276 58.5154C37.4129 58.3293 37.6055 58.1915 37.8259 58.122C38.3741 57.9164 38.9376 57.7413 39.5011 57.5585C39.6303 57.516 39.7406 57.4298 39.8133 57.3148C40.1407 56.8047 40.4834 56.3097 40.8108 55.7919C40.9228 55.6116 41.0803 55.464 41.2674 55.3637C41.4545 55.2635 41.6647 55.2142 41.8768 55.2208L44.4658 55.1675ZM44.5038 55.9899C43.651 55.9899 42.7906 55.9899 41.9377 55.9899C41.8453 55.9829 41.7527 56.0021 41.6706 56.0451C41.5884 56.0882 41.5201 56.1535 41.4732 56.2336C41.1763 56.7057 40.8641 57.1549 40.5671 57.627C40.3728 57.949 40.0664 58.1876 39.7067 58.2971C39.2346 58.4342 38.7625 58.6093 38.2904 58.7616C37.9934 58.8682 37.9401 58.9367 37.9401 59.2489V60.6957C37.9401 61.0993 38.0086 61.1678 38.4198 61.1678C38.831 61.1678 38.8234 61.1678 38.9757 60.8023C39.1384 60.4157 39.4168 60.0888 39.7726 59.8666C40.1284 59.6444 40.5442 59.5377 40.9631 59.5611C41.3659 59.5868 41.7516 59.7335 42.0695 59.9822C42.3875 60.2309 42.6229 60.5698 42.7449 60.9546C42.7561 61.0242 42.7945 61.0865 42.8515 61.1279C42.9086 61.1693 42.9798 61.1864 43.0495 61.1754H48.0827C48.1242 61.1819 48.1666 61.1802 48.2074 61.1703C48.2482 61.1604 48.2867 61.1426 48.3207 61.1179C48.3546 61.0931 48.3833 61.0619 48.4052 61.0261C48.4271 60.9902 48.4417 60.9504 48.4482 60.9089C48.5802 60.5219 48.8276 60.1846 49.1569 59.9424C49.4863 59.7001 49.882 59.5644 50.2908 59.5536C50.6995 59.5429 51.1017 59.6575 51.4434 59.8821C51.7851 60.1066 52.0499 60.4304 52.2022 60.8099C52.3545 61.1754 52.3545 61.1754 52.758 61.1678C53.1616 61.1602 53.1464 61.0688 53.1464 60.7719V59.2489C53.1464 58.8834 53.0855 58.7997 52.7276 58.7464L49.9026 58.32C49.5668 58.2837 49.2556 58.1268 49.0269 57.8783C48.5624 57.3529 48.0827 56.8427 47.6182 56.3173C47.5388 56.2121 47.4348 56.1279 47.3153 56.0722C47.1959 56.0164 47.0646 55.9908 46.9329 55.9975C46.1258 56.0051 45.311 55.9899 44.5038 55.9899ZM50.3366 60.3911C50.179 60.3901 50.0227 60.4203 49.8768 60.4799C49.7309 60.5395 49.5982 60.6275 49.4863 60.7386C49.3745 60.8497 49.2858 60.9818 49.2252 61.1273C49.1647 61.2729 49.1335 61.429 49.1335 61.5866C49.1414 61.9044 49.2733 62.2065 49.5009 62.4285C49.7286 62.6504 50.0339 62.7746 50.3518 62.7745C50.5091 62.7745 50.6648 62.7433 50.81 62.6826C50.9551 62.622 51.0867 62.5331 51.1972 62.4212C51.3077 62.3093 51.3949 62.1765 51.4537 62.0306C51.5125 61.8848 51.5417 61.7286 51.5397 61.5714C51.5408 61.4141 51.5102 61.2583 51.4499 61.1131C51.3895 60.9679 51.3005 60.8364 51.1883 60.7263C51.0761 60.6162 50.9428 60.5298 50.7965 60.4722C50.6502 60.4146 50.4938 60.387 50.3366 60.3911ZM39.6762 61.579C39.6731 61.7362 39.7017 61.8924 39.7602 62.0383C39.8187 62.1843 39.906 62.3169 40.0168 62.4285C40.1276 62.54 40.2597 62.6281 40.4053 62.6876C40.5509 62.747 40.7069 62.7766 40.8641 62.7745C41.0286 62.7876 41.194 62.7666 41.35 62.7127C41.506 62.6588 41.6491 62.5731 41.7703 62.4612C41.8916 62.3493 41.9884 62.2134 42.0546 62.0623C42.1207 61.9111 42.1549 61.7478 42.1549 61.5828C42.1549 61.4178 42.1207 61.2545 42.0546 61.1034C41.9884 60.9522 41.8916 60.8163 41.7703 60.7044C41.6491 60.5925 41.506 60.5068 41.35 60.4529C41.194 60.399 41.0286 60.378 40.8641 60.3911C40.7051 60.3837 40.5462 60.4092 40.3975 60.466C40.2488 60.5228 40.1134 60.6096 39.9998 60.7211C39.8861 60.8326 39.7967 60.9663 39.7371 61.1139C39.6775 61.2615 39.649 61.4199 39.6534 61.579H39.6762Z" fill="#2075BC" stroke="#2075BC" stroke-miterlimit="10"/>
<path d="M44.4656 40.2358C45.227 40.2358 45.9885 40.2358 46.7499 40.2358C47.0435 40.2176 47.3368 40.2737 47.603 40.3988C47.8691 40.5238 48.0995 40.714 48.2728 40.9515C48.684 41.4541 49.1333 41.911 49.5673 42.3907C49.6727 42.4978 49.8134 42.5628 49.9633 42.5734C50.8999 42.7181 51.8289 42.8628 52.7655 42.9922C52.9301 42.9954 53.0923 43.0329 53.2415 43.1025C53.3908 43.172 53.5239 43.2721 53.6322 43.3962C53.7405 43.5202 53.8216 43.6656 53.8704 43.8229C53.9191 43.9802 53.9344 44.146 53.9152 44.3095C53.9152 44.8172 53.9152 45.3248 53.9152 45.8325C53.9337 46.0013 53.9138 46.1721 53.8569 46.3321C53.8001 46.4922 53.7078 46.6373 53.587 46.7566C53.4662 46.876 53.3199 46.9665 53.1592 47.0214C52.9985 47.0763 52.8274 47.0941 52.6588 47.0736C52.3314 47.0736 52.2324 47.2031 52.1182 47.4696C51.9817 47.8203 51.7434 48.1222 51.4341 48.3366C51.1247 48.5509 50.7584 48.668 50.3821 48.6727C50.0319 48.6977 49.6815 48.6265 49.3688 48.4668C49.0561 48.3071 48.793 48.0649 48.6079 47.7666C48.4964 47.6071 48.4139 47.4293 48.3642 47.2412C48.3606 47.217 48.3521 47.1938 48.3393 47.173C48.3265 47.1522 48.3097 47.1342 48.2898 47.12C48.2699 47.1058 48.2474 47.0957 48.2236 47.0904C48.1997 47.085 48.1751 47.0845 48.151 47.0889H42.935C42.8838 47.0819 42.8319 47.0945 42.7896 47.1242C42.7472 47.1538 42.7176 47.1983 42.7066 47.2488C42.5976 47.6359 42.3715 47.9798 42.0593 48.2334C41.7471 48.4869 41.3641 48.6377 40.9629 48.6651C40.5022 48.7057 40.0417 48.5862 39.6589 48.3268C39.276 48.0674 38.9943 47.684 38.8613 47.2412C38.852 47.1918 38.8236 47.148 38.7822 47.1195C38.7409 47.091 38.6899 47.08 38.6404 47.0889H38.2749C38.117 47.0973 37.9589 47.073 37.8108 47.0176C37.6626 46.9621 37.5275 46.8767 37.4138 46.7666C37.3002 46.6565 37.2105 46.5242 37.1503 46.3779C37.0902 46.2316 37.0609 46.0744 37.0642 45.9162C37.0642 45.3375 37.0642 44.7588 37.0642 44.1801C37.0653 43.95 37.1397 43.7263 37.2766 43.5414C37.4136 43.3566 37.6059 43.2202 37.8257 43.1521C38.3739 42.9465 38.9374 42.7714 39.5009 42.581C39.6313 42.5409 39.7424 42.4542 39.8131 42.3374C40.1405 41.8348 40.4832 41.3399 40.8106 40.8145C40.9214 40.6331 41.0787 40.4846 41.2661 40.3842C41.4534 40.2838 41.6642 40.2352 41.8766 40.2434L44.4656 40.2358ZM44.5036 41.0581H41.9375C41.8448 41.0493 41.7515 41.0676 41.669 41.1109C41.5865 41.1541 41.5184 41.2205 41.473 41.3018C41.1761 41.7663 40.8639 42.2232 40.5669 42.6877C40.3779 43.0142 40.0693 43.2544 39.7065 43.3577C39.2344 43.5024 38.7623 43.6699 38.2902 43.8298C37.9932 43.9288 37.9399 43.9973 37.9399 44.3095V45.7639C37.9399 46.1751 38.0084 46.2437 38.4196 46.2437C38.8308 46.2437 38.8232 46.2436 38.9755 45.8781C39.1382 45.4915 39.4166 45.1647 39.7724 44.9425C40.1282 44.7203 40.544 44.6135 40.9629 44.637C41.366 44.6616 41.7522 44.808 42.0703 45.0568C42.3885 45.3056 42.6236 45.6451 42.7447 46.0304C42.7502 46.0647 42.7625 46.0975 42.7809 46.1269C42.7993 46.1562 42.8234 46.1816 42.8518 46.2015C42.8802 46.2214 42.9124 46.2354 42.9463 46.2426C42.9802 46.2499 43.0152 46.2502 43.0493 46.2437C44.7245 46.2437 46.4022 46.2437 48.0825 46.2437C48.1652 46.257 48.2498 46.2373 48.3181 46.1889C48.3865 46.1405 48.4331 46.0672 48.448 45.9847C48.58 45.5978 48.8273 45.2605 49.1567 45.0182C49.4861 44.7759 49.8818 44.6403 50.2906 44.6295C50.6993 44.6187 51.1015 44.7333 51.4432 44.9579C51.7849 45.1825 52.0497 45.5063 52.202 45.8858C52.3542 46.2513 52.3543 46.2513 52.7578 46.2437C53.1614 46.236 53.1462 46.1447 53.1462 45.8477V44.3248C53.1462 43.9517 53.0852 43.8755 52.7274 43.8222C51.7832 43.6699 50.8466 43.5329 49.9024 43.3958C49.5666 43.3596 49.2554 43.2026 49.0267 42.9542C48.5622 42.4287 48.0825 41.9186 47.618 41.3856C47.5373 41.2822 47.4329 41.1999 47.3136 41.1455C47.1943 41.0912 47.0636 41.0664 46.9327 41.0734C46.1255 41.0734 45.3108 41.0581 44.5036 41.0581ZM50.3364 45.4594C50.1788 45.4583 50.0225 45.4885 49.8766 45.5482C49.7306 45.6078 49.598 45.6957 49.4861 45.8068C49.3743 45.9179 49.2856 46.05 49.225 46.1956C49.1645 46.3411 49.1333 46.4972 49.1333 46.6548C49.1412 46.9726 49.2731 47.2748 49.5007 47.4967C49.7284 47.7186 50.0337 47.8428 50.3516 47.8427C50.5093 47.8417 50.6652 47.8096 50.8103 47.7481C50.9555 47.6866 51.0871 47.597 51.1975 47.4845C51.3079 47.372 51.3949 47.2387 51.4536 47.0924C51.5123 46.9461 51.5415 46.7896 51.5395 46.632C51.5396 46.4757 51.5082 46.3211 51.4473 46.1772C51.3864 46.0333 51.2972 45.9031 51.1849 45.7944C51.0727 45.6857 50.9397 45.6007 50.7939 45.5445C50.6482 45.4882 50.4926 45.4619 50.3364 45.467V45.4594ZM39.676 46.6472C39.674 46.8041 39.7033 46.9599 39.7622 47.1053C39.821 47.2508 39.9083 47.3831 40.0189 47.4944C40.1295 47.6057 40.2613 47.6938 40.4063 47.7536C40.5514 47.8135 40.707 47.8437 40.8639 47.8427C41.1816 47.8407 41.4857 47.713 41.7097 47.4876C41.9337 47.2622 42.0594 46.9574 42.0594 46.6396C42.0605 46.4824 42.0299 46.3265 41.9695 46.1814C41.9091 46.0362 41.8202 45.9046 41.708 45.7945C41.5957 45.6844 41.4625 45.598 41.3162 45.5404C41.1698 45.4828 41.0134 45.4553 40.8563 45.4594C40.6979 45.453 40.5399 45.4793 40.3921 45.5366C40.2443 45.5938 40.1098 45.6809 39.997 45.7922C39.8842 45.9036 39.7955 46.037 39.7363 46.184C39.6772 46.3311 39.6489 46.4888 39.6532 46.6472H39.676Z" fill="#2075BC" stroke="#2075BC" stroke-miterlimit="10"/>
</svg>
