<svg width="110" height="110" viewBox="0 0 110 110" fill="none" xmlns="http://www.w3.org/2000/svg">
<path d="M91.2453 0H18.7547C8.39676 0 0 8.39675 0 18.7547V91.2454C0 101.603 8.39676 110 18.7547 110H91.2453C101.603 110 110 101.603 110 91.2454V18.7547C110 8.39675 101.603 0 91.2453 0Z" fill="white"/>
<path d="M83.5015 81.3549C83.4558 80.8752 83.5015 80.3955 83.5015 79.9081C83.5159 79.6799 83.4839 79.4511 83.4074 79.2355C83.3308 79.02 83.2113 78.8223 83.0561 78.6543C82.901 78.4863 82.7133 78.3515 82.5045 78.2582C82.2957 78.1648 82.0702 78.1148 81.8415 78.1111H81.08H56.4621C55.9139 78.1111 55.891 77.837 55.891 76.8699C55.891 66.5446 55.891 56.2167 55.891 45.8863C55.891 45.3075 55.891 44.8964 56.6525 44.706C56.9734 44.6055 57.252 44.4015 57.4448 44.1261C57.6377 43.8506 57.7339 43.519 57.7185 43.1831C57.7185 42.6805 57.7185 42.178 57.7185 41.6602C57.7185 41.3404 57.848 41.1728 58.183 41.1728C59.8963 41.1728 59.6069 41.0053 59.6374 42.5054C59.6374 42.7414 59.6374 42.9851 59.6374 43.2288C59.666 43.6398 59.8392 44.0274 60.1264 44.3229C60.4135 44.6184 60.796 44.8027 61.206 44.8431C61.5928 44.8862 61.9818 44.9066 62.371 44.904H75.3158C77.486 44.904 78.0266 44.371 78.0266 42.216C78.0266 40.7693 78.0266 39.3225 78.0266 37.8757C78.0266 36.429 77.3413 35.7056 75.8869 35.6904C73.237 35.6904 70.5567 35.6904 67.9373 35.6904C67.7708 35.6888 67.6047 35.7067 67.4423 35.7436C67.2238 35.7755 67.0249 35.8874 66.8842 36.0577C66.7435 36.2279 66.671 36.4444 66.6809 36.665C66.7016 36.89 66.8049 37.0993 66.9708 37.2525C67.1367 37.4058 67.3535 37.4922 67.5794 37.495C67.7621 37.495 67.9525 37.495 68.1353 37.495C70.6176 37.495 73.1076 37.495 75.5899 37.495C76.0696 37.495 76.2448 37.6549 76.2371 38.1422C76.2371 39.589 76.2371 41.0358 76.2371 42.4749C76.2371 42.9318 76.0849 43.0993 75.6204 43.0993H62.0588C61.5639 43.0993 61.4116 42.909 61.4192 42.4369C61.4192 41.0129 61.4192 39.589 61.4192 38.1575C61.4192 37.6397 61.6172 37.4722 62.1121 37.495C62.7441 37.495 63.3761 37.495 64.0081 37.495C64.6402 37.495 65.0285 37.1828 65.0666 36.665C65.0743 36.5387 65.0552 36.4121 65.0105 36.2937C64.9659 36.1752 64.8968 36.0675 64.8076 35.9777C64.7185 35.8878 64.6114 35.8178 64.4933 35.7722C64.3752 35.7266 64.2488 35.7065 64.1224 35.7132C63.1448 35.6218 62.1608 35.6218 61.1832 35.7132C60.7437 35.7555 60.3366 35.9629 60.044 36.2936C59.7515 36.6243 59.5953 37.0536 59.607 37.495C59.607 37.9062 59.607 38.3098 59.607 38.7209C59.607 38.8504 59.607 39.0103 59.607 39.1017C59.2262 39.6804 58.6323 39.292 58.1373 39.3758C57.8328 39.4291 57.7261 39.2083 57.7261 38.9265C57.7261 38.4392 57.7261 37.9595 57.7261 37.4798C57.7424 37.0948 57.6267 36.7159 57.3982 36.4057C57.1698 36.0955 56.8422 35.8727 56.4698 35.7741C56.3819 35.7644 56.297 35.7363 56.2206 35.6917C56.1442 35.6471 56.0781 35.587 56.0264 35.5152C55.9747 35.4434 55.9387 35.3616 55.9206 35.2751C55.9025 35.1885 55.9028 35.0991 55.9215 35.0127C55.9215 33.6192 55.8301 33.7715 57.1398 33.7715H81.1638C81.4075 33.7715 81.6511 33.7715 81.8872 33.7715C82.3277 33.7392 82.7401 33.543 83.0432 33.2216C83.3462 32.9002 83.5179 32.477 83.5243 32.0354C83.5243 30.7561 83.5243 29.487 83.5243 28.2281C83.5264 28.0002 83.4828 27.7743 83.3961 27.5635C83.3094 27.3528 83.1813 27.1616 83.0195 27.0012C82.8576 26.8408 82.6653 26.7144 82.4538 26.6296C82.2423 26.5447 82.016 26.5031 81.7882 26.5072H81.3465C63.7873 26.5072 46.2307 26.5072 28.6766 26.5072C28.2425 26.459 27.8042 26.5449 27.4203 26.7531C27.0365 26.9614 26.7255 27.2821 26.5293 27.6722V32.5227C26.6931 32.9294 26.9841 33.2722 27.3587 33.5C27.7334 33.7277 28.1716 33.8283 28.608 33.7867C36.8013 33.7867 44.9946 33.7867 53.1879 33.7867C53.4848 33.7867 53.9493 33.6268 54.0331 34.0075C54.1799 34.5045 54.1799 35.0334 54.0331 35.5304C53.9798 35.6751 53.7894 35.6751 53.6524 35.7208C53.2514 35.8185 52.8979 36.0547 52.6541 36.3877C52.4103 36.7206 52.2919 37.129 52.3198 37.5407C52.3198 37.9671 52.3198 38.3935 52.3198 38.8199C52.3198 39.2464 52.1599 39.3758 51.7563 39.3758C50.2334 39.3758 50.4238 39.5281 50.4085 38.0509C50.4507 37.6246 50.404 37.1942 50.2715 36.7868C50.162 36.4989 49.9769 36.2458 49.7357 36.0541C49.4945 35.8625 49.2061 35.7395 48.9009 35.698C48.5704 35.6521 48.2371 35.6292 47.9034 35.6294H34.4865C34.1347 35.6242 33.7831 35.6497 33.4357 35.7056C33.0844 35.7584 32.7583 35.9196 32.503 36.1667C32.2477 36.4138 32.076 36.7344 32.0118 37.0838C31.9331 37.5028 31.9075 37.9301 31.9356 38.3554C31.9356 39.7489 31.9356 41.1348 31.9356 42.5282C31.9356 44.1806 32.5828 44.8126 34.2809 44.8126C38.1186 44.8126 41.9564 44.8126 45.7941 44.8126C46.7563 44.8481 47.7198 44.8303 48.68 44.7593C49.1298 44.7339 49.5525 44.5361 49.8602 44.2071C50.1679 43.8781 50.3371 43.4432 50.3324 42.9927C50.3324 42.5891 50.3324 42.178 50.3324 41.7668C50.3324 41.6373 50.3324 41.485 50.3324 41.386C50.7055 40.7769 51.2994 41.1957 51.7868 41.0967C52.0914 41.0358 52.2208 41.249 52.2208 41.5383C52.2208 42.0181 52.2208 42.5054 52.2208 42.9851C52.1983 43.3702 52.3107 43.7511 52.5386 44.0624C52.7665 44.3737 53.0957 44.5959 53.4696 44.6908C53.9493 44.8126 54.0255 45.0563 54.0178 45.4522C54.0178 48.8255 54.0178 52.2063 54.0178 55.5796C54.0178 62.7322 54.0178 69.8874 54.0178 77.0451C54.0178 77.342 54.1701 77.7608 53.7894 77.8903C53.6564 77.9367 53.5184 77.9674 53.3782 77.9817C53.209 78.0046 53.0373 78.0046 52.868 77.9817H28.1816C27.8177 78.008 27.4679 78.1333 27.1699 78.344C26.872 78.5547 26.6373 78.8428 26.4912 79.1771C26.4912 80.464 26.4912 81.7585 26.4912 83.0453C26.4912 83.3728 26.575 83.4108 26.8643 83.4108C29.0421 83.4108 31.2198 83.4108 33.3976 83.4108C33.6031 83.3143 33.7648 83.1441 33.8509 82.934C33.9369 82.7239 33.9409 82.4892 33.8621 82.2763C33.6946 81.7965 33.2986 81.6899 32.8341 81.6976C31.4939 81.6976 30.1614 81.6976 28.8288 81.6976C28.372 81.6976 28.1969 81.5453 28.2045 81.0808C28.2045 79.5579 28.0598 79.7711 29.5142 79.7711H80.7374C80.9398 79.7481 81.1441 79.7481 81.3465 79.7711C82.0623 79.9462 81.6587 80.5325 81.7273 80.9285C81.7958 81.3245 81.8719 81.6443 81.3389 81.69C81.1333 81.69 80.9277 81.69 80.7298 81.69H36.6719C36.1998 81.69 35.7733 81.7356 35.5601 82.2306C35.3469 82.7255 35.6134 83.0834 35.9485 83.4032H82.3364C82.7186 83.2242 83.0358 82.931 83.2445 82.5642C83.4531 82.1974 83.5429 81.7749 83.5015 81.3549ZM48.5201 42.4216C48.5201 42.9013 48.3526 43.0765 47.8729 43.0689H34.3646C33.9002 43.0689 33.7479 42.9013 33.7555 42.4521C33.7555 41.0205 33.7555 39.5966 33.7555 38.1727C33.7555 37.6397 33.9154 37.4569 34.456 37.4645C36.6795 37.4645 38.9029 37.4645 41.1264 37.4645H47.7968C48.4744 37.4645 48.5582 37.5102 48.5582 38.1879C48.5201 39.6195 48.5049 41.0282 48.5201 42.4216ZM76.1381 28.8068C76.1381 28.4032 76.2829 28.2357 76.694 28.2357C78.217 28.2357 79.717 28.2357 81.1942 28.2357C81.5673 28.2357 81.7425 28.3651 81.7425 28.7535C81.7425 29.6469 81.7425 30.5378 81.7425 31.4262C81.7425 31.845 81.5445 31.9744 81.1638 31.9668H78.9403C78.1788 31.9668 77.4936 31.9668 76.7702 31.9668C76.3285 31.9668 76.1229 31.8298 76.1381 31.3577C76.161 30.5201 76.1534 29.6672 76.1381 28.822V28.8068ZM63.833 28.2357C67.1378 28.2357 70.4374 28.2357 73.732 28.2357C74.166 28.2357 74.3259 28.4032 74.3183 28.8296C74.3183 29.6596 74.3183 30.4972 74.3183 31.3272C74.3183 31.8221 74.1127 31.9744 73.6482 31.9744C72.0187 31.9744 70.3891 31.9744 68.7596 31.9744H63.9777C63.2619 31.9744 63.2163 31.9744 63.2163 31.213C63.2163 30.4515 63.2163 29.6901 63.2163 28.8829C63.2239 28.4413 63.3609 28.2509 63.833 28.2509V28.2357ZM29.2781 31.982C28.2045 31.982 28.2045 31.9821 28.2045 30.9389V29.1571C28.2045 28.2585 28.2045 28.2585 29.0801 28.2585H60.6653C61.3735 28.2585 61.4268 28.2585 61.4268 29.02V31.0759C61.4268 31.9821 61.4268 31.9897 60.5359 31.9897L29.2781 31.982ZM54.0102 41.782V40.2591C54.0102 39.4976 54.0102 38.7819 54.0102 38.0356C54.0102 37.6549 54.1625 37.5102 54.5432 37.5178C56.1652 37.5178 55.9139 37.3579 55.9291 38.8428C55.9291 40.0611 55.9291 41.2871 55.9291 42.5054C55.9291 42.9623 55.7616 43.1222 55.3123 43.1146C53.8199 43.0613 54.0254 43.2288 54.0102 41.782Z" fill="#303B4D"/>
<path d="M83.4939 55.762C83.5349 55.3697 83.4452 54.9749 83.2386 54.6389C83.0321 54.3029 82.7203 54.0445 82.3518 53.904C82.1312 53.8182 81.9452 53.6619 81.8227 53.4595C81.7001 53.2571 81.6479 53.0198 81.6741 52.7847C81.6222 52.4306 81.6653 52.0692 81.7991 51.7374C81.9329 51.4055 82.1526 51.1152 82.4355 50.8962C82.737 50.6477 83.0102 50.3669 83.2503 50.0586C83.3987 49.8891 83.4746 49.6681 83.4618 49.4431C83.449 49.2181 83.3484 49.0072 83.1817 48.8555C83.1065 48.7782 83.0165 48.7167 82.9171 48.6747C82.8177 48.6327 82.711 48.6111 82.6031 48.6111C82.4951 48.6111 82.3883 48.6327 82.2889 48.6747C82.1895 48.7167 82.0996 48.7782 82.0243 48.8555C81.339 49.4799 80.6842 50.1424 80.0598 50.8201C79.7095 51.1932 79.8161 51.7034 79.839 52.1603C79.8618 52.6171 79.7552 52.8608 79.2679 52.9979C78.9229 53.081 78.6146 53.2749 78.3905 53.55C78.1663 53.8251 78.0385 54.1661 78.0267 54.5208C77.9353 55.6688 77.9353 56.8222 78.0267 57.9702C78.0446 58.3231 78.1745 58.6611 78.3978 58.935C78.621 59.2089 78.9258 59.4044 79.2679 59.4931C79.4489 59.5248 79.6102 59.6264 79.7171 59.776C79.8239 59.9255 79.8677 60.1111 79.839 60.2926C79.839 63.0719 79.839 65.8589 79.839 68.6686C79.8707 68.9274 79.8463 69.19 79.7677 69.4386C79.6891 69.6872 79.558 69.916 79.3833 70.1095C79.2085 70.303 78.9943 70.4567 78.755 70.5602C78.5157 70.6637 78.2569 70.7145 77.9962 70.7093C77.7354 70.714 77.4766 70.6632 77.2369 70.5604C76.9972 70.4575 76.7821 70.305 76.6057 70.1128C76.4294 69.9206 76.2959 69.6932 76.214 69.4455C76.1321 69.1979 76.1037 68.9357 76.1307 68.6763C76.1307 62.3359 76.1307 55.9904 76.1307 49.6398C76.1738 48.9951 75.9825 48.3566 75.5922 47.8417C75.2018 47.3268 74.6386 46.9702 74.0062 46.8377C73.7559 46.7855 73.5003 46.7625 73.2447 46.7692H62.5082C62.117 46.7364 61.7233 46.7897 61.3549 46.9254C60.9864 47.0611 60.6522 47.2758 60.3757 47.5545C60.0991 47.8332 59.887 48.1691 59.7542 48.5386C59.6214 48.9081 59.5712 49.3022 59.6071 49.6931C59.6071 57.6428 59.6071 65.5949 59.6071 73.5496C59.6071 74.0826 59.5233 74.3796 58.9293 74.5471C58.571 74.6617 58.2602 74.8905 58.0443 75.1985C57.8284 75.5066 57.7193 75.8769 57.7339 76.2527C57.7339 76.6792 57.7339 77.1056 57.7339 77.532C57.7339 77.9584 57.5587 78.0498 57.1932 78.0726H56.8506H60.0487C59.9615 78.0861 59.8724 78.0683 59.7971 78.0223C59.7218 77.9763 59.6653 77.9051 59.6375 77.8213C59.4756 77.3448 59.4756 76.8282 59.6375 76.3517C59.7213 76.1081 60.0258 76.1918 60.239 76.1918H67.9145C70.4349 76.1918 72.9554 76.1918 75.4758 76.1918C76.0164 76.1918 76.184 76.367 76.1764 76.9C76.1764 78.065 76.1764 78.065 75.0342 78.065H60.4979C60.3685 78.065 60.2086 78.065 60.0639 78.065H81.0573C80.2958 78.065 79.5344 78.065 78.7729 78.065C78.0114 78.065 78.0114 77.9965 78.0114 77.3036C78.0114 76.8771 78.0115 76.4507 77.9658 76.0243C77.9369 75.6621 77.7927 75.3187 77.5542 75.0446C77.3157 74.7705 76.9956 74.5801 76.6408 74.5014C76.5631 74.4922 76.488 74.4673 76.4201 74.4282C76.3523 74.3891 76.2931 74.3366 76.2461 74.274C76.1991 74.2113 76.1653 74.1398 76.1468 74.0637C76.1283 73.9876 76.1253 73.9086 76.1383 73.8313C76.1383 73.4658 76.1383 73.0699 76.1383 72.7196C76.1383 72.0876 76.1383 72.0876 76.717 72.3008C77.1955 72.4817 77.7068 72.5598 78.2175 72.5298C78.7283 72.4999 79.2269 72.3626 79.681 72.1269C80.1351 71.8912 80.5344 71.5625 80.8529 71.1621C81.1714 70.7617 81.4019 70.2987 81.5294 69.8032C81.6438 69.3737 81.6977 68.9303 81.6893 68.4859C81.6893 65.7827 81.6893 63.0719 81.6893 60.3688C81.6893 59.9195 81.7959 59.6606 82.268 59.5159C82.6382 59.4123 82.9617 59.185 83.1847 58.8719C83.4077 58.5588 83.5169 58.1788 83.4939 57.795C83.4939 57.0945 83.4711 56.4244 83.4939 55.762ZM61.4117 49.7845C61.4117 48.8099 61.6477 48.5814 62.6376 48.5814H73.0924C74.0747 48.5814 74.3032 48.8022 74.3032 49.7921V69.8337C74.3032 70.5951 74.3032 70.656 73.496 70.656H62.2265C61.465 70.656 61.465 70.618 61.465 69.8946C61.4396 63.1988 61.4269 56.4955 61.4269 49.7845H61.4117ZM73.2904 74.4024H62.2798C62.0057 74.4024 61.6021 74.5243 61.5183 74.174C61.3557 73.6952 61.3692 73.1741 61.5564 72.7044C61.6554 72.4835 61.9523 72.5597 62.1732 72.5597H73.595C74.3565 72.5597 74.3565 72.5597 74.3565 73.3211V73.3744C74.326 74.4024 74.326 74.4024 73.2904 74.4024ZM81.735 57.3915C81.735 57.4448 81.735 57.5133 81.735 57.5514C81.3162 58.0615 80.7451 57.7417 80.2121 57.795C79.8618 57.795 79.8161 57.5438 79.8161 57.262C79.8161 56.9803 79.8161 56.5995 79.8161 56.2645C79.8161 55.9295 79.8161 55.602 79.8161 55.267C79.8161 54.932 79.9227 54.7264 80.3415 54.9167C81.7578 55.5183 81.933 55.8 81.735 57.361V57.3915Z" fill="#2075BC"/>
<path d="M52.4038 77.974C52.221 77.9131 52.2134 77.7151 52.2134 77.54C52.2134 77.1516 52.2134 76.7785 52.2134 76.375C52.2439 75.9347 52.1155 75.4981 51.8514 75.1446C51.5873 74.7911 51.2051 74.5441 50.7742 74.4485C50.4773 74.3571 50.3326 74.2048 50.3478 73.9002C50.3478 73.7099 50.3478 73.5271 50.3478 73.3444V49.8154C50.3478 47.8127 49.297 46.7695 47.302 46.7695H36.7939C34.8827 46.7695 33.809 47.8508 33.809 49.7773C33.809 56.0821 33.809 62.3845 33.809 68.6842C33.8353 68.9443 33.8056 69.2071 33.7217 69.4547C33.6378 69.7023 33.5018 69.929 33.3228 70.1196C33.1438 70.3101 32.926 70.4601 32.6841 70.5592C32.4422 70.6584 32.1818 70.7045 31.9206 70.6945C31.6877 70.7006 31.4559 70.6603 31.2387 70.5761C31.0215 70.4918 30.8232 70.3653 30.6553 70.2037C30.4874 70.0422 30.3533 69.8489 30.2607 69.6352C30.1681 69.4214 30.1189 69.1913 30.1159 68.9584C30.1159 66.0115 30.1159 63.0647 30.1159 60.1179C30.1026 59.9883 30.1393 59.8585 30.2186 59.7552C30.2979 59.6518 30.4137 59.5827 30.5423 59.562C30.9541 59.4665 31.3196 59.23 31.5754 58.8935C31.8313 58.557 31.9615 58.1416 31.9434 57.7193C31.9967 56.6818 31.9967 55.6424 31.9434 54.6049C31.9384 54.2212 31.8053 53.8502 31.5653 53.5508C31.3252 53.2514 30.992 53.0408 30.6185 52.9526C30.2302 52.846 30.0779 52.6556 30.1312 52.2825C30.2071 51.849 30.1563 51.4028 29.9847 50.9976C29.8132 50.5923 29.5282 50.2453 29.1641 49.9981C28.8062 49.7087 28.5093 49.3432 28.1742 49.0234C27.5574 48.4371 27.093 48.4676 26.5371 49.13V49.8915L27.9762 51.3459C28.3172 52.0078 28.4039 52.7717 28.2199 53.4932C28.1049 53.64 27.9484 53.7488 27.7707 53.8054C27.2182 54.03 26.7755 54.4618 26.5371 55.0085V58.3437C26.6566 58.6368 26.8427 58.898 27.0805 59.1068C27.3184 59.3157 27.6016 59.4663 27.9077 59.5468C28.3418 59.6458 28.2961 59.9808 28.2961 60.3082V68.532C28.2769 69.2553 28.4447 69.9713 28.7834 70.6107C29.209 71.3989 29.9114 72.0015 30.755 72.3024C31.5987 72.6033 32.5238 72.5812 33.3521 72.2403C33.7709 72.0727 33.9308 72.1108 33.8775 72.5829C33.8585 72.7677 33.8585 72.954 33.8775 73.1388C33.9308 73.8317 33.9308 74.3952 33.0247 74.6617C32.709 74.7846 32.441 75.0054 32.2601 75.2919C32.0792 75.5783 31.9949 75.9152 32.0196 76.2531C32.0196 76.6415 32.0196 77.0146 32.0196 77.4181C32.0196 77.8217 31.8521 78.0958 31.3723 78.0882C30.4814 78.0882 29.5905 78.0882 28.7072 78.0882C28.5601 78.0805 28.4127 78.0805 28.2656 78.0882H34.3572C34.2701 78.1017 34.1809 78.0839 34.1057 78.0379C34.0304 77.9919 33.9738 77.9207 33.9461 77.837C33.7842 77.3605 33.7842 76.8438 33.9461 76.3673C34.0298 76.1237 34.3344 76.2074 34.5476 76.2074H42.1622C44.6978 76.2074 47.2411 76.2074 49.7767 76.2074C50.3174 76.2074 50.4849 76.3826 50.4773 76.9156C50.4773 78.0806 50.4773 78.0806 49.3351 78.0806H34.6771C34.5476 78.0806 34.3877 78.0806 34.243 78.0806H52.8835C52.7201 78.063 52.5592 78.0273 52.4038 77.974ZM28.6311 57.7878C28.3341 57.7497 28.2047 57.6127 28.2047 57.3233C28.2047 57.1939 28.2047 57.0644 28.2047 56.935C28.2047 55.4882 28.3113 55.3359 29.6895 54.8486C29.9789 54.742 30.1235 54.8029 30.1235 55.1151V56.5009C30.1235 57.864 30.0398 57.9629 28.6311 57.7878ZM35.6289 49.8534C35.6289 48.7874 35.8269 48.5818 36.8929 48.5818H47.2335C48.2995 48.5818 48.5204 48.7874 48.5204 49.8382V69.9102C48.5204 70.6717 48.4747 70.6717 47.7589 70.6717H36.3827C35.667 70.6717 35.6213 70.626 35.6213 69.9102C35.6213 66.5141 35.6213 63.1231 35.6213 59.7371C35.6213 56.4426 35.6238 53.148 35.6289 49.8534ZM47.4391 74.4028H36.4817C36.2076 74.4028 35.804 74.5322 35.7203 74.1744C35.5493 73.702 35.5493 73.1847 35.7203 72.7124C35.8193 72.4839 36.1162 72.5601 36.3294 72.5601H47.7893C48.4594 72.5601 48.4975 72.6057 48.5127 73.3215C48.5356 74.4028 48.5356 74.4028 47.4391 74.4028Z" fill="#2075BC"/>
<path d="M68.767 41.157H64.3049C64.1184 41.1718 63.9321 41.1276 63.7721 41.0305C63.6122 40.9335 63.487 40.7886 63.414 40.6164C63.3473 40.4725 63.324 40.3123 63.347 40.1554C63.37 39.9985 63.4383 39.8518 63.5434 39.7331C63.6335 39.6199 63.7501 39.5307 63.883 39.4736C64.0159 39.4165 64.1608 39.3931 64.3049 39.4057H73.4424C73.5634 39.392 73.686 39.4051 73.8015 39.444C73.9169 39.483 74.0222 39.5469 74.1102 39.6312C74.1981 39.7156 74.2664 39.8182 74.3103 39.9319C74.3541 40.0455 74.3724 40.1674 74.3638 40.289C74.3657 40.4104 74.3416 40.5309 74.2932 40.6423C74.2447 40.7537 74.173 40.8535 74.0829 40.935C73.9928 41.0165 73.8863 41.0777 73.7706 41.1147C73.6549 41.1517 73.5326 41.1635 73.4119 41.1494L68.767 41.157Z" fill="#303B4D"/>
<path d="M72.4532 52.2443C72.4552 52.0103 72.4111 51.7782 72.3234 51.5613C72.2357 51.3443 72.1062 51.1468 71.9421 50.9799C71.7781 50.813 71.5828 50.6801 71.3674 50.5887C71.1519 50.4973 70.9206 50.4493 70.6866 50.4473C68.8134 50.4473 66.9403 50.4473 65.0671 50.4473C64.8334 50.4473 64.6021 50.4934 64.3863 50.583C64.1706 50.6727 63.9747 50.804 63.8098 50.9696C63.645 51.1352 63.5144 51.3317 63.4257 51.5478C63.337 51.7639 63.2919 51.9955 63.2929 52.2291C63.2624 53.4677 63.2624 54.7089 63.2929 55.9526C63.2907 56.1904 63.3366 56.4262 63.4278 56.6459C63.519 56.8656 63.6535 57.0645 63.8235 57.2309C63.9934 57.3973 64.1952 57.5277 64.4168 57.6142C64.6383 57.7007 64.875 57.7416 65.1128 57.7344C66.0189 57.7344 66.9327 57.7344 67.8388 57.7344C68.7449 57.7344 69.6891 57.7344 70.6181 57.7344C70.8558 57.7436 71.0929 57.7048 71.3152 57.6201C71.5375 57.5355 71.7404 57.4068 71.9118 57.2419C72.0831 57.0769 72.2194 56.879 72.3125 56.6601C72.4055 56.4412 72.4534 56.2057 72.4532 55.9678C72.4938 54.7292 72.4938 53.488 72.4532 52.2443ZM70.6409 55.4424C70.6409 55.8536 70.4506 55.9907 70.0622 55.9831C69.3008 55.9831 68.5774 55.9831 67.8388 55.9831C67.1002 55.9831 66.392 55.9831 65.6686 55.9831C65.265 55.9831 65.1051 55.8232 65.1051 55.4196C65.1051 54.5515 65.1051 53.6835 65.1051 52.8078C65.1051 52.3966 65.2955 52.2595 65.6838 52.2595C67.1535 52.2595 68.6155 52.2595 70.0775 52.2595C70.481 52.2595 70.6409 52.4271 70.6409 52.8306C70.6257 53.6987 70.6257 54.6048 70.6409 55.4424Z" fill="#2075BC"/>
<path d="M66.9019 62.4695C66.8884 62.687 66.7929 62.8914 66.6346 63.0412C66.4763 63.191 66.267 63.2752 66.0491 63.2767C65.7369 63.2767 65.4247 63.2767 65.1049 63.2767C64.7851 63.2767 64.4805 63.2767 64.1607 63.2767C63.9362 63.2692 63.7228 63.1772 63.5632 63.019C63.4037 62.8609 63.3097 62.6483 63.3003 62.4238C63.2855 62.2052 63.3569 61.9896 63.4992 61.823C63.6416 61.6565 63.8435 61.5523 64.0617 61.5329C64.7576 61.4187 65.4675 61.4187 66.1633 61.5329C66.3853 61.5596 66.5876 61.6732 66.726 61.8487C66.8644 62.0242 66.9277 62.2475 66.9019 62.4695Z" fill="#2075BC"/>
<path d="M72.4375 62.4238C72.4299 62.6496 72.3367 62.8641 72.177 63.0238C72.0173 63.1836 71.8028 63.2767 71.577 63.2843H70.6328C70.3206 63.2843 70.0008 63.2843 69.6886 63.2843C69.4722 63.2825 69.2647 63.1979 69.1089 63.0477C68.953 62.8975 68.8607 62.6933 68.851 62.4771C68.835 62.3645 68.8424 62.2498 68.8726 62.1402C68.9029 62.0305 68.9553 61.9282 69.0267 61.8397C69.0981 61.7512 69.1869 61.6782 69.2877 61.6255C69.3885 61.5727 69.499 61.5412 69.6124 61.5329C70.3083 61.4187 71.0182 61.4187 71.7141 61.5329C71.9254 61.5614 72.1179 61.6695 72.2523 61.835C72.3867 62.0006 72.4529 62.2111 72.4375 62.4238Z" fill="#2075BC"/>
<path d="M44.8196 50.4397C42.987 50.4397 41.1519 50.4397 39.3143 50.4397C39.0763 50.4377 38.8403 50.4826 38.6196 50.5718C38.399 50.661 38.1981 50.7929 38.0284 50.9597C37.8587 51.1266 37.7235 51.3253 37.6306 51.5444C37.5376 51.7635 37.4888 51.9988 37.4868 52.2368C37.4868 53.4779 37.4868 54.7267 37.4868 55.9679C37.4887 56.2051 37.538 56.4396 37.6318 56.6576C37.7255 56.8756 37.8619 57.0726 38.0328 57.2371C38.2037 57.4017 38.4058 57.5304 38.6272 57.6158C38.8486 57.7012 39.0847 57.7416 39.3219 57.7345C40.228 57.7345 41.1418 57.7345 42.0479 57.7345C42.9541 57.7345 43.8678 57.7345 44.7739 57.7345C45.0204 57.7472 45.2668 57.7087 45.4977 57.6216C45.7286 57.5345 45.939 57.4005 46.1156 57.2282C46.2923 57.0558 46.4313 56.8488 46.5241 56.6201C46.6169 56.3915 46.6614 56.1461 46.6547 55.8994C46.6547 54.6963 46.6547 53.4932 46.6547 52.2824C46.6599 52.0397 46.616 51.7984 46.5257 51.573C46.4354 51.3476 46.3005 51.1427 46.1292 50.9707C45.9579 50.7986 45.7536 50.6629 45.5285 50.5717C45.3035 50.4805 45.0624 50.4356 44.8196 50.4397ZM44.8196 55.4501C44.8196 55.8689 44.614 55.9907 44.2333 55.9831C43.5099 55.9831 42.7865 55.9831 42.0631 55.9831C41.3397 55.9831 40.6164 55.9831 39.893 55.9831C39.4742 55.9831 39.2762 55.8537 39.2915 55.412C39.2915 54.544 39.2915 53.6759 39.2915 52.8002C39.2915 52.4271 39.4437 52.2596 39.8244 52.2596C41.3017 52.2596 42.7865 52.2596 44.2714 52.2596C44.6293 52.2596 44.8196 52.3967 44.8196 52.785C44.8272 53.6683 44.8196 54.5592 44.8348 55.4501H44.8196Z" fill="#2075BC"/>
<path d="M46.6394 62.4092C46.6443 62.6222 46.5686 62.8291 46.4274 62.9887C46.2862 63.1482 46.0899 63.2486 45.8779 63.2696C45.5457 63.2887 45.2127 63.2887 44.8804 63.2696C44.5682 63.2696 44.2484 63.2696 43.9362 63.2696C43.7105 63.2658 43.4951 63.1749 43.3347 63.016C43.1744 62.8571 43.0816 62.6425 43.0758 62.4168C43.0664 62.3081 43.0788 62.1987 43.1121 62.0948C43.1455 61.991 43.1991 61.8948 43.27 61.8119C43.3408 61.729 43.4275 61.661 43.5249 61.6119C43.6223 61.5628 43.7284 61.5336 43.8372 61.5259C44.5501 61.4002 45.2794 61.4002 45.9922 61.5259C46.1913 61.5648 46.3685 61.6773 46.4885 61.841C46.6084 62.0047 46.6623 62.2075 46.6394 62.4092Z" fill="#2075BC"/>
<path d="M41.0965 62.463C41.081 62.6879 40.9801 62.8983 40.8144 63.0512C40.6488 63.2041 40.431 63.2879 40.2056 63.2854C39.8934 63.2854 39.5736 63.2854 39.2614 63.2854C38.9492 63.2854 38.6675 63.2854 38.3705 63.2854C38.1448 63.2836 37.9284 63.1946 37.7667 63.0371C37.605 62.8796 37.5103 62.6658 37.5024 62.4402C37.4875 62.2208 37.5587 62.0042 37.7009 61.8365C37.8431 61.6687 38.045 61.5629 38.2639 61.5416C38.9569 61.4236 39.6649 61.4236 40.3579 61.5416C40.5769 61.5684 40.7768 61.6798 40.9148 61.852C41.0528 62.0241 41.118 62.2434 41.0965 62.463Z" fill="#2075BC"/>
<path d="M41.1261 41.1565H36.6792C35.9863 41.1565 35.5827 40.7301 35.6893 40.1286C35.7106 39.9204 35.8126 39.7288 35.9734 39.595C36.1343 39.4612 36.3412 39.3958 36.5498 39.4128C39.5956 39.4128 42.6693 39.4128 45.771 39.4128C46.0012 39.4128 46.2221 39.5043 46.3849 39.6671C46.5477 39.8298 46.6391 40.0506 46.6391 40.2809C46.6391 40.5111 46.5477 40.7319 46.3849 40.8947C46.2221 41.0575 46.0012 41.1489 45.771 41.1489C44.2481 41.1489 42.7252 41.1489 41.1642 41.1489L41.1261 41.1565Z" fill="#303B4D"/>
</svg>
