<svg width="111" height="110" viewBox="0 0 111 110" fill="none" xmlns="http://www.w3.org/2000/svg">
<path d="M91.5788 0H19.0882C8.73025 0 0.333496 8.39676 0.333496 18.7547V91.2453C0.333496 101.603 8.73025 110 19.0882 110H91.5788C101.937 110 110.334 101.603 110.334 91.2453V18.7547C110.334 8.39676 101.937 0 91.5788 0Z" fill="white"/>
<path d="M55.2876 84.3004H27.5096C26.2761 84.3004 26.04 84.0567 26.04 82.8232C26.04 81.9247 26.04 81.0261 26.04 80.12C26.04 79.2139 26.3522 78.8941 27.2355 78.8484C28.1188 78.8027 28.1569 78.7951 28.1569 77.8661V40.4938C28.1569 39.5496 28.1569 39.5496 27.2355 39.5192C26.3142 39.4887 26.0477 39.1613 26.04 38.316C26.04 37.3261 26.04 36.3439 26.04 35.3616C26.04 34.3793 26.3446 34.0671 27.3193 34.0671H36.6624C37.4695 34.0671 37.4695 34.0671 37.4695 33.2524C37.4695 32.8031 37.4695 32.3462 37.4695 31.897C37.4695 31.4477 37.3401 31.0746 36.7537 31.1355C36.5921 31.1583 36.428 31.1583 36.2664 31.1355C36.0145 31.1316 35.7738 31.0304 35.5949 30.8529C35.416 30.6754 35.3128 30.4356 35.307 30.1837C35.307 28.9958 35.307 27.808 35.307 26.6201C35.307 26.4895 35.3349 26.3604 35.3886 26.2414C35.4424 26.1224 35.5208 26.0161 35.6187 25.9297C35.7167 25.8433 35.8318 25.7787 35.9566 25.7402C36.0814 25.7017 36.213 25.6901 36.3425 25.7063H73.7757C75.1311 25.7063 75.3672 25.95 75.3672 27.3282C75.3672 28.1658 75.3672 29.011 75.3672 29.8486C75.3672 30.6862 74.9941 31.1355 74.0499 31.1584C73.1057 31.1812 73.1818 31.1583 73.1818 32.0569C73.1818 32.4833 73.1818 32.9173 73.1818 33.3437C73.1361 33.9072 73.3341 34.1052 73.9052 34.1052C76.8749 34.1052 79.8445 34.1052 82.8218 34.1052C83.1036 34.1052 83.3929 34.1052 83.6747 34.1052C83.7992 34.102 83.923 34.1243 84.0386 34.1707C84.1542 34.2172 84.259 34.2867 84.3468 34.3751C84.4345 34.4636 84.5032 34.569 84.5487 34.6849C84.5942 34.8009 84.6155 34.9249 84.6113 35.0494C84.6113 36.2221 84.6113 37.3871 84.6113 38.5521C84.6113 39.2069 84.2001 39.5192 83.4538 39.5496C82.502 39.5877 82.502 39.5877 82.502 40.5547V77.8661C82.502 78.7265 82.3726 78.8941 83.4462 78.8865C84.2991 78.8865 84.6189 79.2596 84.6265 80.12C84.6341 80.9805 84.6265 82.0465 84.6265 83.0059C84.6265 83.9654 84.3295 84.3308 83.3092 84.3308H55.2876V84.3004ZM39.3579 52.0451V71.843C39.3579 72.0257 39.3579 72.2085 39.3579 72.3912C39.3579 72.7567 39.5102 72.909 39.8757 72.9014C40.5306 72.9014 41.1854 72.9014 41.8403 72.9014C42.754 72.9014 42.754 72.9014 42.754 72.0105C42.754 66.462 42.754 60.9084 42.754 55.3498C42.754 54.398 43.0281 54.1011 43.9266 54.1011H66.7703C67.6384 54.1011 67.9354 54.398 67.943 55.2889C67.943 56.7281 67.943 58.1596 67.943 59.5911V72.0714C67.943 72.9014 67.943 72.9014 68.7958 72.9014H70.4558C71.3391 72.9014 71.3467 72.9014 71.3467 72.0257V32.0721C71.3467 31.1584 71.3467 31.1584 70.4253 31.1584H40.2717C39.3579 31.1584 39.3579 31.1584 39.3579 32.0721V52.0451ZM30.0453 59.1571V60.5125C30.0453 66.3656 30.0453 72.2237 30.0453 78.0869C30.0453 78.4981 30.0453 78.8484 30.624 78.8484C32.1469 78.8484 33.6165 78.8484 35.109 78.8484C35.2608 78.8637 35.4131 78.8236 35.5377 78.7354C35.6622 78.6472 35.7507 78.517 35.7867 78.3687C36.3121 76.8458 36.8603 75.3609 37.3934 73.8532C37.4558 73.6381 37.484 73.4146 37.4771 73.1907C37.4771 62.2105 37.4771 51.2303 37.4771 40.2501C37.4771 39.6791 37.302 39.4887 36.7157 39.4887C34.7511 39.4887 32.7865 39.4887 30.8144 39.4887C30.0529 39.4887 30.0529 39.4887 30.0529 40.3187L30.0453 59.1571ZM80.6288 59.218C80.6288 52.903 80.6288 46.5931 80.6288 40.2882C80.6288 39.7095 80.4766 39.5268 79.8674 39.5268C77.88 39.5268 75.8926 39.5268 73.9052 39.5268C73.3341 39.5268 73.1437 39.7019 73.1437 40.2882C73.1437 51.2481 73.1437 62.208 73.1437 73.1679C73.1335 73.4255 73.167 73.683 73.2427 73.9294C73.7757 75.3914 74.3088 76.8533 74.8189 78.3306C74.8557 78.4988 74.9544 78.6471 75.0955 78.7459C75.2366 78.8447 75.4097 78.8867 75.5804 78.8636C76.9739 78.8636 78.3673 78.8636 79.7608 78.8636C80.5679 78.8636 80.5755 78.8636 80.5755 78.0412L80.6288 59.218ZM55.3637 55.9057H45.4648C44.6348 55.9057 44.6348 55.9057 44.6348 56.7129V73.1222C44.6244 73.4712 44.676 73.8192 44.7871 74.1502C45.2744 75.498 45.7618 76.8457 46.2339 78.2011C46.3785 78.5971 46.5308 78.9169 47.041 78.8408C47.5512 78.7646 47.4065 78.3154 47.4065 78.0184C47.4065 73.1831 47.4065 68.3479 47.4065 63.5126C47.4065 62.3781 47.673 62.1039 48.8228 62.1039H61.7676C62.9402 62.1039 63.1991 62.3781 63.1991 63.566V78.1326C63.1991 78.4144 63.0849 78.7875 63.5722 78.8408C63.7428 78.8719 63.9189 78.834 64.0616 78.7355C64.2044 78.637 64.3022 78.4859 64.3337 78.3154C64.8286 76.8838 65.3464 75.4599 65.8566 74.036C65.941 73.7626 65.9771 73.4765 65.9632 73.1907C65.9632 67.6778 65.9632 62.1649 65.9632 56.6519C65.9632 56.058 65.7728 55.8905 65.2017 55.8905C61.9655 55.9133 58.6684 55.9057 55.3637 55.9057ZM55.3637 80.7292H28.3016C28.2096 80.7268 28.1201 80.7591 28.0509 80.8198C27.9817 80.8805 27.938 80.9651 27.9285 81.0566C27.6924 82.0769 27.9285 82.4044 28.964 82.4044H81.6873H82.365C82.4367 82.4064 82.5074 82.3873 82.5684 82.3494C82.6293 82.3114 82.6777 82.2564 82.7076 82.1912C82.804 82.0427 82.8566 81.8701 82.8596 81.6931C82.8625 81.5161 82.8157 81.3419 82.7244 81.1903C82.6331 81.0386 82.501 80.9157 82.3432 80.8355C82.1854 80.7553 82.0082 80.7211 81.8319 80.7368L55.3637 80.7292ZM54.4271 71.4013C54.4271 69.117 54.4271 66.8326 54.4271 64.5863C54.4271 64.1446 54.3053 63.9619 53.8408 63.9695C52.5311 63.9695 51.2214 63.9695 49.9117 63.9695C49.4091 63.9695 49.2873 64.1827 49.2873 64.6396C49.2873 69.1373 49.2873 73.6375 49.2873 78.1402C49.2873 78.6351 49.4472 78.8408 49.965 78.8255C51.229 78.8255 52.5007 78.8255 53.7723 78.8255C54.2825 78.8255 54.4424 78.6504 54.4424 78.1402C54.4195 75.9244 54.4271 73.6857 54.4271 71.4013ZM56.2394 71.4013C56.2394 73.6857 56.2394 75.9015 56.2394 78.1554C56.2394 78.658 56.3917 78.8408 56.9019 78.8331C58.1735 78.8331 59.4375 78.8331 60.7091 78.8331C61.166 78.8331 61.3868 78.7037 61.3792 78.2087C61.3792 73.64 61.3792 69.0966 61.3792 64.5787C61.3792 64.1294 61.1965 63.9695 60.7548 63.9771C59.4908 63.9771 58.2192 63.9771 56.9476 63.9771C56.3612 63.9771 56.2242 64.1751 56.2242 64.7386C56.2546 66.962 56.2089 69.1931 56.2089 71.4013H56.2394ZM55.2724 29.2471H73.1513C73.2232 29.2492 73.2938 29.2281 73.3528 29.187C73.4118 29.1458 73.4559 29.0868 73.4788 29.0187C73.8062 28.1506 73.4178 27.5643 72.5041 27.5643H38.1624H37.5456C37.4238 27.5643 37.2715 27.5643 37.2411 27.7242C37.1154 28.1569 37.1154 28.6164 37.2411 29.0491C37.3553 29.3842 37.7512 29.2319 38.0025 29.2319L55.2724 29.2471ZM40.9798 78.8408C41.9621 78.8408 42.9444 78.8408 43.9266 78.8408C44.3226 78.8408 44.4521 78.7189 44.3074 78.3306C43.9114 77.2721 43.5459 76.2137 43.1576 75.1553C43.1266 75.0149 43.0451 74.8908 42.9285 74.8065C42.812 74.7223 42.6686 74.6839 42.5256 74.6984C41.5052 74.6984 40.4849 74.6984 39.4797 74.6984C39.3486 74.6842 39.2168 74.7192 39.1099 74.7966C39.003 74.8739 38.9285 74.9882 38.901 75.1172C38.5355 76.1604 38.1396 77.2036 37.7741 78.2392C37.5837 78.7418 37.7741 78.8484 38.2462 78.8408C39.1752 78.8332 40.0965 78.8408 40.9798 78.8408ZM69.5192 78.8408C70.4786 78.8408 71.4381 78.8408 72.4051 78.8408C72.8848 78.8408 73.0295 78.6961 72.8468 78.224C72.4737 77.2265 72.0853 76.229 71.7731 75.2239C71.7416 75.0533 71.6438 74.9022 71.501 74.8037C71.3583 74.7052 71.1823 74.6673 71.0117 74.6984C70.0674 74.6984 69.1309 74.6984 68.1866 74.6984C68.0168 74.6732 67.8437 74.7135 67.7023 74.811C67.561 74.9085 67.4619 75.0561 67.4252 75.2239C67.0749 76.2391 66.7094 77.2544 66.3287 78.2697C66.1764 78.6656 66.2525 78.8331 66.7018 78.8255C67.6689 78.8331 68.6055 78.8408 69.5497 78.8408H69.5192ZM32.6266 37.6307C34.0429 37.6307 35.4516 37.6307 36.8679 37.6307C37.2867 37.6307 37.4847 37.4937 37.4467 37.0596C37.4276 36.8774 37.4276 36.6936 37.4467 36.5114C37.4923 36.0774 37.2791 35.9403 36.8679 35.9403C34.0886 35.9403 31.3017 35.9403 28.4919 35.9403C27.7305 35.9403 27.8904 36.42 27.8752 36.8541C27.8599 37.2881 27.8752 37.6536 28.4995 37.6155C29.9159 37.6079 31.2865 37.6307 32.6571 37.6307H32.6266ZM77.8952 37.6307C79.2887 37.6307 80.6821 37.6307 82.0756 37.6307C82.5477 37.6307 82.7685 37.4785 82.7229 36.9987C82.7114 36.8339 82.7114 36.6686 82.7229 36.5038C82.7229 36.1231 82.5858 35.9479 82.1898 35.9479H73.7224C73.3265 35.9479 73.1513 36.0926 73.1818 36.4885C73.1932 36.6127 73.1932 36.7376 73.1818 36.8617C73.098 37.4328 73.3112 37.6231 73.9433 37.6231C75.2453 37.6003 76.6007 37.6307 77.9257 37.6307H77.8952Z" fill="#303B4D"/>
<path d="M59.1867 47.4455C59.1867 48.3669 59.1867 49.2882 59.1867 50.2096C59.1867 50.9711 58.8365 51.3137 58.0902 51.3213C56.2475 51.3213 54.4048 51.3213 52.5621 51.3213C51.8006 51.3213 51.4884 50.9406 51.4884 50.202C51.4884 48.3593 51.4884 46.5165 51.4884 44.6738C51.4643 44.5244 51.4756 44.3713 51.5214 44.2271C51.5673 44.0828 51.6463 43.9513 51.7523 43.8431C51.8582 43.735 51.988 43.6532 52.1313 43.6044C52.2746 43.5556 52.4274 43.5411 52.5773 43.5621C54.42 43.5621 56.2628 43.5621 58.1055 43.5621C58.8669 43.5621 59.1791 43.9428 59.1867 44.6814C59.1944 45.6028 59.1867 46.5242 59.1867 47.4455ZM57.3059 47.4455V45.9226C57.3059 45.5952 57.1613 45.4429 56.8262 45.4429H53.8185C53.5139 45.4429 53.3616 45.5876 53.3616 45.8845V48.9303C53.3616 49.2578 53.5063 49.4177 53.8413 49.4177C54.8261 49.4177 55.8084 49.4177 56.7882 49.4177C57.1536 49.4177 57.3136 49.2654 57.3136 48.9075C57.3059 48.443 57.3059 47.9481 57.3059 47.4607V47.4455Z" fill="#2075BC"/>
<path d="M51.4808 37.7445C51.4808 36.8232 51.4808 35.9018 51.4808 34.9805C51.4808 34.2571 51.7853 33.8916 52.5087 33.8764C54.3921 33.8459 56.2729 33.8459 58.1511 33.8764C58.8669 33.8764 59.1715 34.2571 59.1715 34.9881C59.1715 36.8308 59.1715 38.6659 59.1715 40.5086C59.1939 40.6578 59.1815 40.8102 59.135 40.9537C59.0886 41.0972 59.0095 41.228 58.904 41.3358C58.7984 41.4435 58.6693 41.5253 58.5268 41.5747C58.3842 41.6241 58.2322 41.6397 58.0826 41.6204C56.2399 41.6204 54.3971 41.6204 52.5544 41.6204C51.793 41.6204 51.4808 41.2473 51.4731 40.5086C51.4731 39.5873 51.4808 38.6583 51.4808 37.7445ZM55.3413 35.7343C54.854 35.7343 54.3591 35.7343 53.8717 35.7343C53.3844 35.7343 53.3539 35.8942 53.3616 36.2445C53.3616 37.2268 53.3616 38.2091 53.3616 39.1913C53.3616 39.5873 53.5367 39.7396 53.925 39.7396C54.8616 39.7396 55.8058 39.7396 56.7424 39.7396C57.1688 39.7396 57.3287 39.5644 57.3211 39.1532C57.3211 38.1862 57.3211 37.2268 57.3211 36.2673C57.3211 35.8714 57.1536 35.7191 56.7653 35.7343C56.3769 35.7495 55.8134 35.7343 55.3413 35.7343Z" fill="#2075BC"/>
<path d="M49.4857 37.7768C49.4857 38.6753 49.4857 39.5738 49.4857 40.4723C49.4857 41.3709 49.1659 41.6145 48.3893 41.6221C46.5618 41.6221 44.7393 41.6221 42.922 41.6221C42.7677 41.6453 42.6101 41.6319 42.4618 41.5831C42.3136 41.5343 42.1789 41.4514 42.0685 41.341C41.9582 41.2307 41.8753 41.096 41.8264 40.9477C41.7776 40.7995 41.7643 40.6419 41.7874 40.4876C41.7874 38.6702 41.7874 36.8478 41.7874 35.0203C41.7874 34.2589 42.1149 33.8781 42.9068 33.8705C44.7241 33.84 46.5465 33.84 48.374 33.8705C49.204 33.8705 49.4857 34.2284 49.4857 35.0736C49.4857 35.9188 49.4857 36.8706 49.4857 37.7768ZM47.6659 37.7311C47.6659 37.2438 47.6659 36.7488 47.6659 36.2615C47.6659 35.7742 47.506 35.7208 47.1176 35.7285C46.143 35.7285 45.1607 35.7285 44.1784 35.7285C43.8205 35.7285 43.653 35.8503 43.653 36.2234C43.653 37.2285 43.653 38.226 43.653 39.2312C43.653 39.5967 43.8281 39.7337 44.1784 39.7337C45.1607 39.7337 46.143 39.7337 47.1252 39.7337C47.5136 39.7337 47.6811 39.5967 47.6659 39.1931C47.6506 38.7895 47.6735 38.2184 47.6659 37.7311Z" fill="#2075BC"/>
<path d="M61.1894 37.7065C61.1894 36.808 61.1894 35.9094 61.1894 35.0109C61.1894 34.2495 61.4636 33.8992 62.1869 33.884C64.0906 33.8434 65.9917 33.8434 67.8902 33.884C68.5755 33.884 68.8801 34.2723 68.8877 34.9576C68.8877 36.8207 68.8877 38.6837 68.8877 40.5467C68.9049 40.6918 68.8889 40.8389 68.841 40.977C68.7931 41.115 68.7145 41.2404 68.6112 41.3438C68.5078 41.4471 68.3824 41.5257 68.2444 41.5736C68.1063 41.6215 67.9592 41.6375 67.8141 41.6204C65.9561 41.6204 64.0906 41.6204 62.2326 41.6204C61.5245 41.6204 61.2046 41.2549 61.1894 40.5315C61.1818 39.5949 61.1894 38.6583 61.1894 37.7065ZM63.0017 37.7065C63.0017 38.1938 63.0017 38.6887 63.0017 39.1761C63.0017 39.6634 63.1083 39.7472 63.5195 39.7396C64.4992 39.7396 65.4815 39.7396 66.4663 39.7396C66.8547 39.7396 67.0222 39.5873 67.0146 39.1989C67.0146 38.2192 67.0146 37.2369 67.0146 36.2521C67.0146 35.9018 66.8927 35.7267 66.512 35.7343C65.5145 35.7343 64.5094 35.7343 63.5119 35.7343C63.1464 35.7343 62.9941 35.8714 63.0017 36.2445C63.0093 36.6176 63.0017 37.2115 63.0017 37.7065Z" fill="#2075BC"/>
<path d="M49.478 47.4538C49.478 48.3751 49.478 49.2965 49.478 50.2179C49.5008 50.3668 49.4885 50.5189 49.442 50.6622C49.3956 50.8055 49.3164 50.9359 49.2106 51.0432C49.1048 51.1504 48.9755 51.2315 48.8329 51.2799C48.6903 51.3283 48.5383 51.3427 48.3891 51.322C46.5565 51.322 44.7164 51.322 42.8686 51.322C42.7185 51.34 42.5664 51.3232 42.4239 51.2728C42.2815 51.2225 42.1526 51.14 42.0472 51.0317C41.9419 50.9234 41.8629 50.7922 41.8165 50.6484C41.7701 50.5047 41.7575 50.3521 41.7797 50.2027C41.7797 48.3599 41.7797 46.5172 41.7797 44.6745C41.7797 43.9663 42.1147 43.5856 42.8229 43.5704C44.7037 43.5704 46.6301 43.5704 48.4729 43.5704C48.6128 43.5574 48.7538 43.5763 48.8854 43.6258C49.0169 43.6752 49.1355 43.7538 49.2323 43.8557C49.329 43.9576 49.4014 44.0801 49.444 44.214C49.4865 44.3479 49.4982 44.4897 49.478 44.6288C49.4932 45.573 49.478 46.5096 49.478 47.4538ZM47.6733 47.4538C47.6733 46.9588 47.6733 46.4715 47.6733 45.9842C47.6733 45.6263 47.5591 45.4588 47.1784 45.4588C46.1809 45.4588 45.1758 45.4588 44.1783 45.4588C43.8128 45.4588 43.6605 45.6035 43.6605 45.9613C43.6605 46.9665 43.6605 47.964 43.6605 48.9691C43.6605 49.2965 43.7975 49.4564 44.1402 49.4564C45.1555 49.4564 46.1707 49.4564 47.186 49.4564C47.521 49.4564 47.6657 49.3117 47.6581 48.9767C47.6581 48.4513 47.6657 47.9411 47.6733 47.4309V47.4538Z" fill="#2075BC"/>
<path d="M61.1894 47.4C61.1894 46.4787 61.1894 45.5573 61.1894 44.6359C61.1894 43.9582 61.5169 43.5775 62.1945 43.5699C64.0753 43.5699 65.9561 43.5699 67.8369 43.5699C67.9828 43.5543 68.1302 43.5723 68.268 43.6226C68.4058 43.6729 68.5302 43.7542 68.6317 43.86C68.7331 43.9659 68.809 44.0937 68.8534 44.2334C68.8978 44.3732 68.9095 44.5214 68.8877 44.6664C68.8877 46.5091 68.8877 48.3518 68.8877 50.1945C68.911 50.3439 68.8994 50.4965 68.854 50.6407C68.8086 50.7848 68.7305 50.9165 68.6259 51.0255C68.5213 51.1346 68.3929 51.218 68.2508 51.2693C68.1087 51.3207 67.9566 51.3385 67.8065 51.3215C65.9739 51.3215 64.1337 51.3215 62.2859 51.3215C61.5245 51.3215 61.197 50.9484 61.1894 50.1565C61.1818 49.2427 61.1894 48.3214 61.1894 47.4ZM64.9967 45.4431C64.5246 45.4431 64.0525 45.4431 63.5804 45.4431C63.1083 45.4431 62.9788 45.5497 62.9941 45.9913C62.9941 46.9736 62.9941 47.9559 62.9941 48.9382C62.9941 49.3036 63.1311 49.456 63.4966 49.4483C64.5018 49.4483 65.4993 49.4483 66.5425 49.4483C66.908 49.4483 67.0526 49.2884 67.045 48.9305C67.045 47.933 67.045 46.9279 67.045 45.9304C67.045 45.5953 66.9004 45.4431 66.5653 45.4507L64.9967 45.4431Z" fill="#2075BC"/>
</svg>
