<svg width="111" height="110" viewBox="0 0 111 110" fill="none" xmlns="http://www.w3.org/2000/svg">
<path d="M91.9118 0H19.4212C9.06326 0 0.666504 8.39676 0.666504 18.7547V91.2453C0.666504 101.603 9.06326 110 19.4212 110H91.9118C102.27 110 110.667 101.603 110.667 91.2453V18.7547C110.667 8.39676 102.27 0 91.9118 0Z" fill="white"/>
<path fill-rule="evenodd" clip-rule="evenodd" d="M41.9837 52.3661C41.7568 52.3641 41.5399 52.2726 41.3802 52.1114C41.2205 51.9503 41.1309 51.7325 41.1309 51.5056V39.2386C41.151 39.0253 41.2499 38.8272 41.4084 38.6831C41.5668 38.5389 41.7733 38.459 41.9875 38.459C42.2017 38.459 42.4082 38.5389 42.5666 38.6831C42.7251 38.8272 42.824 39.0253 42.8441 39.2386V51.5361C42.8421 51.7637 42.7509 51.9814 42.5899 52.1423C42.429 52.3033 42.2113 52.3946 41.9837 52.3966V52.3661Z" fill="#2075BC"/>
<path fill-rule="evenodd" clip-rule="evenodd" d="M48.8211 52.3653C48.5942 52.3633 48.3773 52.2718 48.2176 52.1106C48.0579 51.9495 47.9683 51.7318 47.9683 51.5049V42.139C47.9884 41.9257 48.0873 41.7276 48.2458 41.5835C48.4042 41.4393 48.6107 41.3594 48.8249 41.3594C49.0391 41.3594 49.2456 41.4393 49.404 41.5835C49.5625 41.7276 49.6614 41.9257 49.6815 42.139V51.5353C49.6815 51.7636 49.5909 51.9824 49.4295 52.1438C49.2682 52.3051 49.0493 52.3958 48.8211 52.3958V52.3653Z" fill="#2075BC"/>
<path fill-rule="evenodd" clip-rule="evenodd" d="M55.6671 52.3648C55.4395 52.3628 55.2218 52.2715 55.0609 52.1106C54.8999 51.9497 54.8086 51.732 54.8066 51.5044V42.9456C54.8268 42.7324 54.9257 42.5343 55.0841 42.3901C55.2426 42.2459 55.4491 42.166 55.6633 42.166C55.8775 42.166 56.084 42.2459 56.2424 42.3901C56.4008 42.5343 56.4998 42.7324 56.5199 42.9456V51.5348C56.5199 51.7617 56.4303 51.9794 56.2706 52.1406C56.1109 52.3017 55.894 52.3933 55.6671 52.3953V52.3648Z" fill="#2075BC"/>
<path fill-rule="evenodd" clip-rule="evenodd" d="M62.5042 52.3647C62.2773 52.3627 62.0604 52.2712 61.9007 52.1101C61.741 51.9489 61.6514 51.7312 61.6514 51.5043V42.1536C61.6514 41.9274 61.7412 41.7105 61.9012 41.5506C62.0611 41.3906 62.278 41.3008 62.5042 41.3008C62.7304 41.3008 62.9473 41.3906 63.1072 41.5506C63.2672 41.7105 63.357 41.9274 63.357 42.1536V51.5348C63.3492 51.7563 63.2561 51.9663 63.0972 52.121C62.9384 52.2756 62.7259 52.3629 62.5042 52.3647Z" fill="#2075BC"/>
<path fill-rule="evenodd" clip-rule="evenodd" d="M42.9425 80.783H26.8377C26.6108 80.781 26.3939 80.6894 26.2342 80.5283C26.0745 80.3671 25.9849 80.1494 25.9849 79.9225V74.1202C25.9849 73.8933 26.0745 73.6756 26.2342 73.5145C26.3939 73.3533 26.6108 73.2618 26.8377 73.2598H42.9425C43.1694 73.2618 43.3863 73.3533 43.546 73.5145C43.7057 73.6756 43.7953 73.8933 43.7953 74.1202V79.9225C43.7953 80.1494 43.7057 80.3671 43.546 80.5283C43.3863 80.6894 43.1694 80.781 42.9425 80.783ZM27.7134 79.0697H42.0973V74.973H27.6981L27.7134 79.0697Z" fill="#303B4D"/>
<path fill-rule="evenodd" clip-rule="evenodd" d="M39.836 74.9726H29.9371C29.7102 74.9726 29.4925 74.883 29.3314 74.7233C29.1702 74.5636 29.0787 74.3467 29.0767 74.1198V68.3099C29.0787 68.083 29.1702 67.8661 29.3314 67.7064C29.4925 67.5466 29.7102 67.4571 29.9371 67.4571H39.836C39.9487 67.4561 40.0604 67.4774 40.1647 67.5198C40.2691 67.5622 40.364 67.6248 40.444 67.7041C40.524 67.7834 40.5875 67.8778 40.6308 67.9818C40.6742 68.0857 40.6965 68.1973 40.6965 68.3099V74.1198C40.6965 74.2324 40.6742 74.344 40.6308 74.4479C40.5875 74.5519 40.524 74.6463 40.444 74.7256C40.364 74.8049 40.2691 74.8675 40.1647 74.9099C40.0604 74.9523 39.9487 74.9736 39.836 74.9726ZM30.7976 73.2594H38.9832V69.1703H30.7976V73.2594Z" fill="#303B4D"/>
<path fill-rule="evenodd" clip-rule="evenodd" d="M84.4878 80.783H68.3678C68.1402 80.781 67.9225 80.6897 67.7615 80.5287C67.6006 80.3678 67.5093 80.1501 67.5073 79.9225V74.1202C67.5093 73.8926 67.6006 73.6749 67.7615 73.514C67.9225 73.3531 68.1402 73.2618 68.3678 73.2598H84.465C84.6919 73.2618 84.9088 73.3533 85.0685 73.5145C85.2282 73.6756 85.3178 73.8933 85.3178 74.1202V79.9225C85.3179 80.1455 85.2315 80.3599 85.0766 80.5204C84.9218 80.6809 84.7107 80.7751 84.4878 80.783ZM69.2587 79.0697H83.6502V74.973H69.2587V79.0697Z" fill="#303B4D"/>
<path fill-rule="evenodd" clip-rule="evenodd" d="M81.3885 74.9726H71.4895C71.2634 74.9726 71.0464 74.8827 70.8865 74.7228C70.7266 74.5629 70.6367 74.346 70.6367 74.1198V68.3099C70.6367 68.1979 70.6588 68.087 70.7016 67.9835C70.7445 67.88 70.8073 67.786 70.8865 67.7068C70.9657 67.6276 71.0597 67.5648 71.1632 67.522C71.2666 67.4791 71.3776 67.457 71.4895 67.457H81.3885C81.5005 67.457 81.6114 67.4791 81.7148 67.522C81.8183 67.5648 81.9123 67.6276 81.9915 67.7068C82.0707 67.786 82.1335 67.88 82.1764 67.9835C82.2192 68.087 82.2413 68.1979 82.2413 68.3099V74.1198C82.2413 74.346 82.1515 74.5629 81.9915 74.7228C81.8316 74.8827 81.6147 74.9726 81.3885 74.9726ZM72.3424 73.2593H80.5509V69.1703H72.3424V73.2593Z" fill="#303B4D"/>
<path fill-rule="evenodd" clip-rule="evenodd" d="M79.211 69.1716H73.698C73.4705 69.1696 73.2527 69.0783 73.0918 68.9173C72.9309 68.7564 72.8396 68.5387 72.8376 68.3111V58.1381C72.8396 57.9112 72.9312 57.6942 73.0923 57.5345C73.2534 57.3748 73.4711 57.2852 73.698 57.2852H79.2414C79.4676 57.2852 79.6845 57.3751 79.8445 57.535C80.0044 57.6949 80.0943 57.9119 80.0943 58.1381V68.3111C80.0943 68.426 80.0713 68.5398 80.0267 68.6457C79.982 68.7516 79.9166 68.8475 79.8342 68.9277C79.7519 69.0079 79.6543 69.0708 79.5473 69.1127C79.4402 69.1546 79.3259 69.1746 79.211 69.1716ZM74.5204 67.4583H78.3277V58.9985H74.5204V67.4583ZM79.211 52.3662H73.698C73.4705 52.3642 73.2527 52.2729 73.0918 52.112C72.9309 51.951 72.8396 51.7333 72.8376 51.5058C72.8376 49.8001 72.7158 35.8731 72.9214 35.4314L75.6245 29.6824C75.6975 29.5437 75.807 29.4275 75.9412 29.3465C76.0754 29.2655 76.2292 29.2227 76.386 29.2227C76.5427 29.2227 76.6965 29.2655 76.8307 29.3465C76.9649 29.4275 77.0744 29.5437 77.1474 29.6824C77.5434 30.4439 80.0714 35.3629 80.0714 35.7741V51.4829C80.0714 51.7098 79.9818 51.9275 79.8221 52.0887C79.6624 52.2498 79.4455 52.3414 79.2186 52.3434L79.211 52.3662ZM74.5204 50.6529H78.3277V36.0254L76.3631 32.0429L74.4976 36.0177V50.6834L74.5204 50.6529Z" fill="#303B4D"/>
<path fill-rule="evenodd" clip-rule="evenodd" d="M37.6658 69.1708H32.1224C31.8948 69.1688 31.6771 69.0775 31.5161 68.9166C31.3552 68.7556 31.2639 68.5379 31.2619 68.3103V58.1373C31.2639 57.9104 31.3555 57.6935 31.5166 57.5338C31.6778 57.374 31.8955 57.2844 32.1224 57.2845H37.6658C37.8919 57.2845 38.1089 57.3743 38.2688 57.5342C38.4287 57.6942 38.5186 57.9111 38.5186 58.1373V68.3103C38.5186 68.5372 38.429 68.7549 38.2693 68.9161C38.1095 69.0772 37.8926 69.1688 37.6658 69.1708ZM32.9752 67.4575H36.7825V58.9977H32.9752V67.4575ZM37.6658 52.3654H32.1224C31.8948 52.3634 31.6771 52.2721 31.5161 52.1112C31.3552 51.9503 31.2639 51.7326 31.2619 51.505C31.2619 49.8069 31.1401 35.8647 31.3457 35.4307L34.0488 29.6816C34.1199 29.5407 34.2288 29.4222 34.3632 29.3395C34.4976 29.2567 34.6524 29.2129 34.8103 29.2129C34.9682 29.2129 35.123 29.2567 35.2574 29.3395C35.3918 29.4222 35.5007 29.5407 35.5718 29.6816L38.3587 35.3164C41.5111 38.5983 47.6637 42.0706 55.5828 42.0706C62.3598 42.0706 69.2053 39.3902 73.0202 35.2174C73.1789 35.0728 73.386 34.9927 73.6008 34.993C73.8155 34.9932 74.0224 35.0738 74.1808 35.2188C74.3392 35.3639 74.4376 35.5629 74.4568 35.7768C74.4759 35.9907 74.4143 36.204 74.2842 36.3749C70.1571 40.8674 62.8167 43.7686 55.5828 43.7686C49.3658 43.8268 43.3241 41.7097 38.5034 37.7836V51.4898C38.5034 51.7167 38.4138 51.9344 38.254 52.0955C38.0943 52.2567 37.8774 52.3482 37.6505 52.3502L37.6658 52.3654ZM32.9752 50.6522H36.7825V36.0246L34.8636 32.0422L32.998 36.017V50.6826L32.9752 50.6522Z" fill="#303B4D"/>
<path fill-rule="evenodd" clip-rule="evenodd" d="M69.3426 52.3647C69.1157 52.3627 68.8988 52.2712 68.7391 52.11C68.5793 51.9489 68.4897 51.7312 68.4897 51.5043V39.2601C68.5099 39.0468 68.6088 38.8487 68.7673 38.7046C68.9257 38.5604 69.1322 38.4805 69.3464 38.4805C69.5606 38.4805 69.7671 38.5604 69.9255 38.7046C70.0839 38.8487 70.1829 39.0468 70.203 39.2601V51.5347C70.1933 51.757 70.0986 51.967 69.9384 52.1215C69.7783 52.2759 69.565 52.363 69.3426 52.3647Z" fill="#303B4D"/>
<path fill-rule="evenodd" clip-rule="evenodd" d="M22.4596 44.4999C22.2535 44.4933 22.0566 44.413 21.9048 44.2735C21.753 44.1341 21.6563 43.9447 21.6323 43.74C21.6083 43.5352 21.6587 43.3286 21.7742 43.1578C21.8896 42.9871 22.0626 42.8634 22.2616 42.8094C27.6451 41.5074 31.3534 35.4462 31.3991 35.3852C31.5254 35.2107 31.7127 35.0899 31.9238 35.0467C32.135 35.0036 32.3547 35.0412 32.5394 35.1522C32.7241 35.2633 32.8604 35.4396 32.9214 35.6463C32.9824 35.853 32.9636 36.075 32.8687 36.2685C32.7012 36.5426 28.7492 43.0074 22.6728 44.477C22.607 44.4849 22.5406 44.4849 22.4748 44.477L22.4596 44.4999Z" fill="#303B4D"/>
<path fill-rule="evenodd" clip-rule="evenodd" d="M88.8736 44.5005C88.8053 44.508 88.7364 44.508 88.668 44.5005C82.5764 43.0309 78.6397 36.5661 78.4721 36.292C78.3773 36.0985 78.3585 35.8764 78.4194 35.6697C78.4804 35.463 78.6167 35.2867 78.8015 35.1757C78.9862 35.0647 79.2058 35.027 79.417 35.0702C79.6281 35.1133 79.8154 35.2341 79.9418 35.4087C79.9798 35.4696 83.7034 41.5384 89.0792 42.8329C89.2782 42.8869 89.4512 43.0105 89.5667 43.1813C89.6822 43.352 89.7325 43.5586 89.7085 43.7634C89.6845 43.9682 89.5878 44.1575 89.436 44.297C89.2842 44.4365 89.0873 44.5168 88.8812 44.5233L88.8736 44.5005Z" fill="#303B4D"/>
<path fill-rule="evenodd" clip-rule="evenodd" d="M91.3259 58.9968H20.0079C19.7803 58.9948 19.5626 58.9035 19.4017 58.7425C19.2407 58.5816 19.1494 58.3639 19.1475 58.1363V51.5345C19.1495 51.3076 19.241 51.0907 19.4022 50.931C19.5633 50.7712 19.781 50.6816 20.0079 50.6816H91.3259C91.5521 50.6816 91.769 50.7715 91.929 50.9314C92.0889 51.0914 92.1787 51.3083 92.1787 51.5345V58.1363C92.1788 58.3632 92.0891 58.5809 91.9294 58.742C91.7697 58.9032 91.5528 58.9947 91.3259 58.9968ZM20.8607 57.2835H90.4502V52.3645H20.8607V57.253V57.2835Z" fill="#2075BC"/>
</svg>
