<svg width="110" height="110" viewBox="0 0 110 110" fill="none" xmlns="http://www.w3.org/2000/svg">
<path d="M91.2453 0H18.7547C8.39676 0 0 8.39676 0 18.7547V91.2453C0 101.603 8.39676 110 18.7547 110H91.2453C101.603 110 110 101.603 110 91.2453V18.7547C110 8.39676 101.603 0 91.2453 0Z" fill="white"/>
<path d="M55.0157 85.1071H26.9256C25.3493 85.1071 24.923 84.6731 24.923 83.0816C24.923 82.4877 24.923 81.9014 24.923 81.315C24.9082 81.119 24.9343 80.922 24.9998 80.7366C25.0653 80.5512 25.1686 80.3815 25.3033 80.2382C25.4379 80.095 25.601 79.9814 25.7819 79.9045C25.9629 79.8277 26.1579 79.7894 26.3545 79.7921C26.9179 79.7921 27.017 79.5485 27.017 79.0307C27.017 74.736 27.017 70.4414 27.017 66.1392C27.017 64.8828 27.2987 64.6163 28.5399 64.6163H30.1846C31.1288 64.6163 31.1288 64.6163 31.1288 63.6873C31.1288 60.078 31.1288 56.4763 31.1288 52.867C31.1288 51.2222 31.1288 49.5851 31.1288 47.9404C31.1288 47.3921 30.9461 47.2703 30.4587 47.3845C30.1237 47.4606 29.7886 47.5063 29.446 47.5673C29.2269 47.6168 28.9996 47.6172 28.7803 47.5686C28.561 47.5199 28.3552 47.4233 28.1777 47.2858C28.0001 47.1482 27.8551 46.9731 27.7532 46.773C27.6513 46.5728 27.5949 46.3526 27.5881 46.1281C27.55 45.3666 27.5881 44.6052 27.5881 43.8437C27.5968 43.463 27.7478 43.0994 28.0114 42.8245C28.275 42.5497 28.632 42.3835 29.012 42.3589L40.7308 40.2953L56.3406 37.5541C57.5133 37.3485 58.6935 37.1277 59.8662 36.9297C60.0808 36.8879 60.302 36.8929 60.5146 36.9442C60.7271 36.9955 60.9262 37.092 61.0981 37.2271C61.2701 37.3622 61.4109 37.5327 61.511 37.7271C61.6112 37.9215 61.6683 38.1352 61.6785 38.3536C61.6785 39.1151 61.6785 39.9375 61.6785 40.7294C61.6589 41.0748 61.5223 41.4032 61.2912 41.6607C61.06 41.9181 60.7481 42.0891 60.4068 42.1457C59.851 42.2675 59.2875 42.3513 58.7316 42.4427C58.6463 42.4416 58.5618 42.4592 58.484 42.4942C58.4061 42.5292 58.3369 42.5808 58.281 42.6453C58.2252 42.7098 58.1842 42.7858 58.1607 42.8678C58.1373 42.9499 58.132 43.036 58.1453 43.1203C58.1453 46.2423 58.1453 49.3617 58.1453 52.4786C58.1453 52.8974 58.2824 53.0574 58.7088 53.0497C59.9195 53.0497 61.1378 53.0497 62.3562 53.0497C62.8663 53.0497 62.9653 52.8442 62.9653 52.3949C62.9653 50.1486 62.9653 47.8947 62.9653 45.6484V31.7061C62.9653 30.2517 63.4375 29.7872 64.8994 29.7872H68.6686C68.8795 29.7641 69.0929 29.7867 69.2943 29.8535C69.4957 29.9202 69.6803 30.0296 69.8357 30.1741C69.991 30.3186 70.1134 30.4949 70.1946 30.6909C70.2757 30.8869 70.3136 31.0981 70.3058 31.3102C70.3058 31.531 70.3058 31.7518 70.3058 31.9802V52.1588C70.3058 52.9888 70.3058 52.9888 71.1434 52.9888C71.6916 52.9888 72.2399 52.9888 72.7881 52.9888C73.1384 52.9888 73.3211 52.867 73.2983 52.4939C73.2983 52.3111 73.2983 52.1284 73.2983 51.9456C73.2983 43.6255 73.2983 35.2977 73.2983 26.9622C73.2737 26.5974 73.3149 26.2312 73.4201 25.881C73.4995 25.5942 73.6721 25.3421 73.9106 25.1642C74.1491 24.9864 74.44 24.893 74.7375 24.8987C76.2604 24.8987 77.7299 24.8987 79.23 24.8987C79.5906 24.8964 79.938 25.0339 80.1993 25.2824C80.4606 25.5309 80.6154 25.871 80.6311 26.2312C80.6452 26.4849 80.6452 26.7391 80.6311 26.9927V52.1208C80.6311 52.9431 80.6311 52.9431 81.4459 52.9812C81.6749 52.9773 81.9021 53.0226 82.1121 53.114C82.3221 53.2055 82.51 53.3411 82.663 53.5114C82.8161 53.6818 82.9308 53.8831 82.9993 54.1017C83.0678 54.3203 83.0886 54.551 83.0602 54.7782C83.0602 60.012 83.0602 65.2407 83.0602 70.4643C83.0602 73.3197 83.0602 76.1828 83.0602 79.0383C83.0602 79.4952 83.1287 79.7312 83.6769 79.754C84.048 79.7718 84.3969 79.9354 84.6479 80.2092C84.8989 80.483 85.0316 80.8449 85.0171 81.216C85.0171 81.9775 85.0171 82.739 85.0171 83.4623C85.0364 83.6768 85.0079 83.8929 84.9335 84.095C84.8591 84.2971 84.7409 84.4802 84.5871 84.631C84.4334 84.7818 84.2481 84.8966 84.0446 84.967C83.8411 85.0375 83.6245 85.0619 83.4105 85.0385H55.0157V85.1071ZM65.3791 79.7769H80.4484C81.2098 79.7769 81.2098 79.7769 81.2098 78.9621V55.6159C81.2098 54.8087 81.2098 54.8087 80.4027 54.8087H50.3556C49.5941 54.8087 49.5941 54.8087 49.5941 55.6235V78.9621C49.5941 79.7616 49.5941 79.7693 50.3556 79.7693L65.3791 79.7769ZM33.0172 55.7301C33.0172 58.4256 33.0172 61.1212 33.0172 63.8167C33.0172 64.4107 33.1543 64.6391 33.7787 64.6315C38.1951 64.6315 42.6116 64.6315 47.028 64.6315C47.622 64.6315 47.7895 64.4487 47.7895 63.87C47.7895 60.8242 47.7895 57.7784 47.7895 54.6945C47.7895 53.5218 48.2844 53.0345 49.4571 53.0269C51.5435 53.0269 53.6298 53.0269 55.7162 53.0269C56.1503 53.0269 56.3331 52.9051 56.3254 52.4406C56.3254 49.4506 56.3254 46.453 56.3254 43.4478C56.3254 42.9604 56.1579 42.8843 55.7087 42.9681C53.3405 43.4021 50.9648 43.8057 48.589 44.2245C43.6472 45.0849 38.6901 45.9606 33.7635 46.8058C33.1924 46.9048 33.002 47.1256 33.002 47.7119C33.0401 50.377 33.0172 53.0497 33.0172 55.7224V55.7301ZM38.3474 66.4742C35.431 66.4742 32.5147 66.4742 29.5983 66.4742C29.0043 66.4742 28.8368 66.657 28.8368 67.2357C28.8368 70.9212 28.8368 74.6066 28.8368 78.292C28.8368 79.8149 28.8368 79.7616 30.3597 79.8149C30.9537 79.8149 31.1212 79.6322 31.1212 79.0535C31.1212 76.3579 31.1212 73.6624 31.1212 70.9668C31.0853 70.7168 31.1082 70.4618 31.1883 70.2223C31.2683 69.9827 31.4032 69.7651 31.5821 69.5869C31.7611 69.4087 31.9792 69.2747 32.2191 69.1957C32.459 69.1166 32.7141 69.0948 32.964 69.1317C36.5276 69.1317 40.0912 69.1317 43.6243 69.1317C43.8637 69.1023 44.1066 69.1285 44.3343 69.2082C44.5619 69.288 44.7681 69.4191 44.9368 69.5915C45.1055 69.7638 45.2321 69.9728 45.3069 70.2021C45.3817 70.4314 45.4026 70.6748 45.3681 70.9135V78.2083C45.3681 79.8149 45.3681 79.7921 46.9519 79.8149C47.523 79.8149 47.7134 79.6779 47.7134 79.0535C47.7134 75.1041 47.7134 71.1521 47.7134 67.1976C47.7134 66.6493 47.5611 66.4361 46.9976 66.4361C44.1726 66.4818 41.279 66.4666 38.416 66.4666L38.3474 66.4742ZM54.97 83.2948H82.9383C83.0089 83.2981 83.0783 83.2762 83.1341 83.2329C83.1899 83.1896 83.2285 83.1279 83.2429 83.0588C83.5475 82.1526 83.1972 81.6424 82.2683 81.6348H27.7556H27.0855C26.9408 81.6348 26.7809 81.6348 26.7504 81.8328C26.64 82.2469 26.64 82.6827 26.7504 83.0968C26.8799 83.4547 27.2835 83.2796 27.5652 83.2796L54.97 83.2948ZM75.1791 41.5137C75.1791 45.1154 75.1791 48.7247 75.1791 52.3264C75.1791 52.7832 75.24 53.0878 75.8035 53.0345C76.5649 52.9888 77.2578 53.0345 77.9888 53.0345C78.7198 53.0345 78.796 53.0345 78.796 52.2274V34.8509C78.796 33.5108 78.796 32.1782 78.796 30.8381C78.796 30.305 78.6514 30.0766 78.0803 30.0766C77.3873 30.0766 76.702 30.0766 76.0091 30.0766C75.1867 30.0766 75.1791 30.0766 75.1791 30.937V41.5137ZM68.4402 43.9503C68.4402 41.1939 68.4402 38.4374 68.4402 35.6885C68.4402 35.0946 68.2498 34.9271 67.6787 34.9271C66.9173 34.9652 66.1558 34.9271 65.3944 34.9271C64.9451 34.9271 64.7928 35.1022 64.7928 35.5439C64.7928 41.1685 64.7928 46.8007 64.7928 52.4406C64.7928 52.9051 64.9832 53.0345 65.4172 53.0193C66.1787 53.0193 66.9401 52.9812 67.7016 53.0193C68.2879 53.0193 68.4631 52.8518 68.4631 52.2578C68.4554 49.4937 68.4706 46.722 68.4706 43.9427L68.4402 43.9503ZM29.4384 44.7956C29.4384 45.7093 29.4384 45.7169 30.1999 45.557L58.8306 40.5085C59.8357 40.3334 59.8129 40.3334 59.8053 39.3131C59.8053 38.8943 59.6606 38.7724 59.2647 38.8486C58.5717 38.9856 57.8712 39.0999 57.1706 39.2217C48.221 40.8157 39.2383 42.4046 30.2227 43.9884C29.6744 44.0646 29.3394 44.2549 29.4688 44.7879L29.4384 44.7956ZM43.6167 75.4061C43.6167 74.1345 43.6167 72.8552 43.6167 71.5988C43.6167 71.1115 43.4492 70.9592 42.9847 70.9744C41.911 70.9744 40.8374 70.9744 39.7638 70.9744C39.3602 70.9744 39.185 71.0886 39.185 71.5303C39.185 74.0964 39.185 76.6701 39.185 79.2362C39.185 79.6703 39.3449 79.7997 39.7561 79.7921C40.8298 79.7921 41.9034 79.7921 42.9771 79.7921C43.5025 79.7921 43.632 79.6017 43.6167 79.1144C43.632 77.8656 43.6472 76.6321 43.6472 75.3985L43.6167 75.4061ZM32.9563 75.3148C32.9563 76.6092 32.9563 77.9037 32.9563 79.1982C32.9563 79.6093 33.0705 79.7921 33.5046 79.7769C34.5782 79.7769 35.6519 79.7769 36.7256 79.7769C37.19 79.7769 37.3118 79.5789 37.3118 79.1525C37.3118 76.6143 37.3118 74.0761 37.3118 71.5379C37.3118 71.043 37.1063 70.9135 36.657 70.9211C35.6417 70.9211 34.6264 70.9211 33.6112 70.9211C33.1238 70.9211 32.9259 71.0582 32.9411 71.576C33.0401 72.84 33.0172 74.0736 33.0172 75.3071L32.9563 75.3148ZM76.9533 28.2186H78.2934C78.9026 28.2186 78.7351 27.7618 78.7503 27.4572C78.7655 27.1526 78.8417 26.7338 78.2858 26.7414C77.3949 26.7414 76.4964 26.7414 75.6055 26.7414C75.4228 26.7414 75.2552 26.7414 75.1715 26.9775C74.8821 27.7389 75.1715 28.2415 76.0471 28.2415L76.9533 28.2186ZM66.5975 33.0767H67.4503C68.4478 33.0767 68.5011 33.0006 68.4098 31.9955C68.4098 31.6909 68.2498 31.5691 67.9529 31.5767C67.0619 31.5767 66.1711 31.5767 65.2802 31.5767C64.7243 31.5767 64.7928 31.9574 64.808 32.2924C64.8233 32.6275 64.6482 33.0539 65.2649 33.0539L66.5975 33.0767Z" fill="#303B4D"/>
<path d="M52.1832 72.5067C52.1832 71.9432 52.1832 71.3721 52.1832 70.8086C52.1656 70.584 52.1961 70.3583 52.2726 70.1464C52.3492 69.9346 52.4701 69.7415 52.6272 69.58C52.7843 69.4186 52.974 69.2926 53.1837 69.2103C53.3934 69.128 53.6182 69.0914 53.8432 69.1029C55.0158 69.0725 56.1885 69.0725 57.3611 69.1029C57.5662 69.0947 57.7708 69.128 57.9627 69.2009C58.1545 69.2737 58.3296 69.3846 58.4776 69.5269C58.6255 69.6691 58.7432 69.8398 58.8235 70.0286C58.9038 70.2175 58.9451 70.4206 58.945 70.6258C59.0515 71.8749 59.0515 73.1308 58.945 74.3798C58.9572 74.583 58.9261 74.7865 58.8539 74.9768C58.7817 75.1671 58.67 75.3399 58.526 75.4838C58.3821 75.6278 58.2093 75.7395 58.019 75.8117C57.8287 75.8839 57.6252 75.9149 57.4221 75.9027C56.1728 76.0055 54.9173 76.0055 53.6681 75.9027C53.4567 75.9035 53.2475 75.8603 53.0537 75.7758C52.86 75.6913 52.686 75.5674 52.5427 75.4119C52.3995 75.2565 52.2902 75.073 52.2217 74.873C52.1533 74.673 52.1272 74.461 52.1452 74.2504C52.168 73.6412 52.1832 73.0701 52.1832 72.5067ZM54.0488 72.4686C54.0488 74.0524 54.0488 74.0524 55.6478 74.0524C57.2469 74.0524 57.1708 74.0524 57.1708 72.5295C57.1708 71.0066 57.1707 70.9381 55.5793 70.9381C53.9878 70.9381 54.0488 70.9609 54.0488 72.4686Z" fill="#2075BC"/>
<path d="M55.64 58.4563C56.2416 58.4563 56.8508 58.4563 57.4599 58.4563C57.8299 58.4397 58.1915 58.5694 58.4665 58.8174C58.7415 59.0653 58.9079 59.4116 58.9295 59.7813C59.0552 61.1109 59.0552 62.4493 58.9295 63.7789C58.9236 63.9726 58.8795 64.1632 58.7996 64.3398C58.7198 64.5163 58.6059 64.6754 58.4643 64.8077C58.3228 64.94 58.1564 65.0431 57.9749 65.1109C57.7934 65.1787 57.6003 65.21 57.4066 65.2028C56.1883 65.2028 54.9776 65.2028 53.7668 65.2028C53.5572 65.2104 53.3482 65.1745 53.1531 65.0974C52.9579 65.0204 52.7808 64.9039 52.6328 64.7552C52.4848 64.6065 52.3692 64.4288 52.2931 64.2333C52.217 64.0378 52.1821 63.8287 52.1907 63.619C52.1526 62.4007 52.1526 61.19 52.1907 59.9793C52.1902 59.7707 52.2326 59.5642 52.3153 59.3727C52.3979 59.1811 52.519 59.0086 52.6711 58.8658C52.8232 58.7231 53.003 58.613 53.1993 58.5426C53.3957 58.4721 53.6044 58.4428 53.8125 58.4563H55.64ZM55.64 60.2382C54.0791 60.2382 54.0791 60.2382 54.0791 61.8068C54.0791 63.3754 54.0791 63.3297 55.602 63.3297C57.1249 63.3297 57.1249 63.3297 57.1249 61.7458C57.1249 60.162 57.1477 60.2686 55.6096 60.2686L55.64 60.2382Z" fill="#2075BC"/>
<path d="M68.7828 72.5145C68.7828 73.1465 68.7828 73.7709 68.7828 74.3953C68.7956 74.7549 68.6689 75.1056 68.429 75.3738C68.1891 75.6421 67.8548 75.8072 67.4959 75.8345C66.1665 75.9639 64.8277 75.9639 63.4983 75.8345C63.3017 75.8336 63.1073 75.7931 62.9267 75.7154C62.7462 75.6377 62.5831 75.5244 62.4473 75.3822C62.3116 75.24 62.2059 75.0719 62.1366 74.888C62.0672 74.704 62.0357 74.508 62.0439 74.3115C62.0439 73.1161 62.0439 71.9206 62.0439 70.7327C62.0306 70.5172 62.0631 70.3014 62.1395 70.0995C62.2159 69.8975 62.3344 69.7142 62.487 69.5615C62.6397 69.4089 62.8231 69.2904 63.025 69.214C63.2269 69.1376 63.4428 69.105 63.6582 69.1184C64.8537 69.0803 66.0415 69.0803 67.237 69.1184C67.4484 69.1176 67.6577 69.1609 67.8514 69.2454C68.0451 69.3299 68.2191 69.4538 68.3624 69.6092C68.5056 69.7646 68.615 69.9482 68.6834 70.1482C68.7518 70.3481 68.7779 70.5601 68.7599 70.7707C68.7599 71.3571 68.7599 71.9434 68.7599 72.5297L68.7828 72.5145ZM65.4476 74.0374C66.9705 74.0374 66.9705 74.0374 66.9705 72.4688C66.9705 70.9002 66.9705 70.9459 65.4476 70.9459C63.9247 70.9459 63.9247 70.9459 63.9247 72.5221C63.9247 74.0983 63.9019 74.0526 65.4476 74.0526V74.0374Z" fill="#2075BC"/>
<path d="M78.6358 72.4983C78.6358 73.1075 78.6358 73.7167 78.6358 74.3182C78.6536 74.5074 78.6325 74.6982 78.5738 74.8789C78.5151 75.0596 78.4201 75.2264 78.2945 75.369C78.169 75.5117 78.0157 75.6271 77.8439 75.7083C77.6721 75.7895 77.4855 75.8347 77.2956 75.8411C75.9662 75.9705 74.6274 75.9705 73.298 75.8411C73.1056 75.8353 72.9164 75.791 72.7414 75.7108C72.5665 75.6306 72.4094 75.5161 72.2794 75.3741C72.1495 75.2321 72.0494 75.0655 71.985 74.8841C71.9206 74.7028 71.8932 74.5103 71.9045 74.3182C71.8664 73.0846 71.8588 71.8435 71.9045 70.6099C71.9044 70.406 71.9453 70.2042 72.0247 70.0164C72.104 69.8286 72.2203 69.6586 72.3666 69.5166C72.5129 69.3745 72.6862 69.2633 72.8763 69.1895C73.0664 69.1157 73.2693 69.0809 73.4731 69.087C74.6838 69.0413 75.9022 69.0413 77.1205 69.087C77.3291 69.0866 77.5356 69.129 77.7271 69.2116C77.9187 69.2942 78.0912 69.4154 78.2339 69.5675C78.3767 69.7195 78.4867 69.8993 78.5572 70.0957C78.6276 70.292 78.657 70.5007 78.6434 70.7089C78.6434 71.3181 78.6358 71.912 78.6358 72.4983ZM76.8464 72.5669C76.8464 72.2242 76.8464 71.8815 76.8464 71.5389C76.8464 71.1962 76.7398 70.9373 76.3058 70.9525C75.6357 70.9525 74.9656 70.9525 74.3031 70.9525C73.8691 70.9525 73.732 71.1277 73.7397 71.5312C73.7397 72.1633 73.7777 72.7877 73.7397 73.4197C73.7016 74.0517 73.93 74.0974 74.4174 74.0593C74.7372 74.0593 75.0646 74.0593 75.392 74.0593C76.8464 74.0517 76.8464 74.0517 76.8464 72.5669Z" fill="#2075BC"/>
<path d="M65.4705 58.4568C66.0797 58.4568 66.6812 58.4568 67.2904 58.4568C67.4941 58.4421 67.6987 58.4714 67.8902 58.5427C68.0816 58.614 68.2555 58.7257 68.3999 58.8702C68.5444 59.0147 68.6561 59.1885 68.7274 59.38C68.7988 59.5714 68.828 59.776 68.8133 59.9797C68.8133 61.2133 68.8133 62.4469 68.8133 63.688C68.8227 63.8867 68.7913 64.0851 68.7209 64.2711C68.6506 64.4571 68.5429 64.6267 68.4045 64.7694C68.266 64.9121 68.0998 65.0249 67.916 65.1009C67.7323 65.1768 67.5349 65.2143 67.3361 65.2109C66.0771 65.2516 64.808 65.2516 63.5288 65.2109C63.1249 65.2109 62.7375 65.0505 62.4519 64.7649C62.1663 64.4793 62.0059 64.0919 62.0059 63.688C62.0059 62.4773 62.0059 61.259 62.0059 60.0407C62.0056 59.8341 62.0474 59.6297 62.1286 59.4397C62.2099 59.2498 62.3289 59.0784 62.4785 58.9359C62.6281 58.7935 62.8051 58.683 62.9987 58.6111C63.1924 58.5392 63.3986 58.5074 63.6049 58.5178L65.4705 58.4568ZM65.4705 60.2387C63.8715 60.2387 63.8714 60.2386 63.8714 61.8301C63.8714 63.4215 63.8714 63.353 65.3944 63.353C66.9173 63.353 66.9858 63.353 66.9858 61.754C66.9858 60.1549 66.9934 60.2691 65.501 60.2691L65.4705 60.2387Z" fill="#2075BC"/>
<path d="M75.3315 58.4576C75.9406 58.4576 76.5498 58.4576 77.1514 58.4576C77.3457 58.4492 77.5396 58.4809 77.7211 58.5507C77.9027 58.6205 78.0679 58.7269 78.2065 58.8634C78.3451 58.9998 78.4541 59.1633 78.5267 59.3437C78.5993 59.5242 78.634 59.7176 78.6286 59.912C78.6286 61.1684 78.6286 62.4248 78.6286 63.6812C78.6411 63.8767 78.6133 64.0728 78.547 64.2571C78.4807 64.4415 78.3772 64.6103 78.243 64.7531C78.1088 64.8958 77.9467 65.0095 77.7668 65.0871C77.5869 65.1647 77.393 65.2045 77.197 65.2041C75.9254 65.2574 74.6462 65.2498 73.3898 65.2041C72.9952 65.1903 72.6214 65.0238 72.3472 64.7396C72.073 64.4555 71.9199 64.076 71.9201 63.6812C71.8745 62.4477 71.8821 61.2065 71.9201 59.9729C71.9198 59.765 71.962 59.5592 72.0441 59.3682C72.1263 59.1772 72.2468 59.0051 72.398 58.8624C72.5492 58.7198 72.7281 58.6096 72.9236 58.5386C73.119 58.4677 73.3269 58.4375 73.5344 58.45L75.3315 58.4576ZM76.8544 61.7928C76.8544 60.2699 76.8544 60.2699 75.3315 60.2699C73.8085 60.2699 73.7477 60.2699 73.7477 61.8766C73.7477 63.4832 73.7477 63.3995 75.2706 63.3995C76.7935 63.3995 76.8467 63.3766 76.8467 61.8233L76.8544 61.7928Z" fill="#2075BC"/>
<path d="M41.6747 51.0181C41.6747 51.6045 41.6747 52.1984 41.6747 52.7771C41.6883 52.9853 41.6589 53.194 41.5885 53.3903C41.518 53.5867 41.408 53.7664 41.2652 53.9185C41.1224 54.0706 40.9499 54.1917 40.7584 54.2744C40.5669 54.357 40.3604 54.3994 40.1518 54.399C38.9411 54.437 37.7227 54.437 36.512 54.399C36.2957 54.4094 36.0796 54.3736 35.8781 54.2939C35.6767 54.2142 35.4946 54.0925 35.344 53.9368C35.1934 53.7812 35.0777 53.5952 35.0047 53.3912C34.9317 53.1873 34.903 52.9701 34.9206 52.7542C34.9206 51.5816 34.9206 50.409 34.9206 49.2363C34.9113 49.0306 34.9438 48.8252 35.0162 48.6324C35.0886 48.4397 35.1993 48.2636 35.3417 48.1149C35.484 47.9661 35.655 47.8478 35.8444 47.767C36.0338 47.6862 36.2376 47.6447 36.4435 47.6449C37.7502 47.5194 39.0659 47.5194 40.3726 47.6449C40.743 47.6665 41.0898 47.8341 41.3367 48.1111C41.5837 48.388 41.7107 48.7516 41.6899 49.1221C41.6899 49.7465 41.6899 50.3709 41.6899 50.9953L41.6747 51.0181ZM38.37 49.4495C36.7861 49.4495 36.7861 49.4495 36.7861 51.0486C36.7861 52.6476 36.7861 52.5715 38.309 52.5715C39.832 52.5715 39.8853 52.5715 39.8853 50.9724C39.8853 49.3734 39.8777 49.4495 38.37 49.4495Z" fill="#2075BC"/>
<path d="M41.6669 59.5087C41.6669 60.1179 41.6669 60.7271 41.6669 61.3362C41.6741 61.5247 41.6434 61.7128 41.5769 61.8893C41.5103 62.0658 41.4092 62.2273 41.2794 62.3642C41.1496 62.5011 40.9937 62.6106 40.821 62.6865C40.6483 62.7623 40.4621 62.8029 40.2735 62.8058C38.9536 62.8414 37.6363 62.8414 36.3215 62.8058C35.9364 62.7842 35.575 62.6127 35.3147 62.3281C35.0543 62.0435 34.9155 61.6684 34.928 61.2829C34.928 60.0494 34.928 58.8158 34.928 57.5746C34.9279 57.3701 34.969 57.1676 35.0489 56.9792C35.1287 56.7909 35.2457 56.6206 35.3928 56.4785C35.5399 56.3363 35.7141 56.2253 35.9051 56.152C36.096 56.0786 36.2998 56.0446 36.5042 56.0517C37.7226 56.0517 38.9333 56.0517 40.1517 56.0517C40.3534 56.0454 40.5542 56.0804 40.7418 56.1547C40.9295 56.229 41.0999 56.3409 41.2426 56.4836C41.3853 56.6263 41.4972 56.7968 41.5715 56.9844C41.6458 57.172 41.6809 57.3729 41.6746 57.5746C41.6784 57.6152 41.6784 57.6559 41.6746 57.6964V59.4554L41.6669 59.5087ZM36.786 59.4402C36.786 61.0316 36.786 61.0316 38.3774 61.0316C39.9689 61.0316 39.9004 61.0316 39.9004 59.5087C39.9004 57.9858 39.9003 57.9097 38.3165 57.9097C36.7327 57.9097 36.786 57.9325 36.786 59.4402Z" fill="#2075BC"/>
</svg>
