<svg width="110" height="110" viewBox="0 0 110 110" fill="none" xmlns="http://www.w3.org/2000/svg">
<path d="M91.2453 0H18.7547C8.39675 0 0 8.39675 0 18.7547V91.2453C0 101.603 8.39675 110 18.7547 110H91.2453C101.603 110 110 101.603 110 91.2453V18.7547C110 8.39675 101.603 0 91.2453 0Z" fill="white"/>
<mask id="mask0_2111_5605" style="mask-type:luminance" maskUnits="userSpaceOnUse" x="22" y="49" width="65" height="30">
<path d="M86.8975 49.1289H22.6763V78.7572H86.8975V49.1289Z" fill="white"/>
</mask>
<g mask="url(#mask0_2111_5605)">
<path d="M56.9876 64.5865L54.7033 65.2109L52.4189 64.5865C52.2749 64.5463 52.1243 64.5351 51.9759 64.5536C51.8276 64.5721 51.6844 64.62 51.5547 64.6944C51.425 64.7688 51.3114 64.8683 51.2205 64.987C51.1297 65.1058 51.0634 65.2414 51.0254 65.3861C50.9484 65.6768 50.9891 65.9862 51.1388 66.2471C51.2885 66.508 51.5351 66.6993 51.825 66.7795L54.4444 67.4801C54.6387 67.5335 54.8439 67.5335 55.0383 67.4801L57.6501 66.7795C57.9352 66.6948 58.1753 66.5007 58.3179 66.2397C58.4606 65.9786 58.4942 65.6718 58.4116 65.3861C58.3736 65.2414 58.3073 65.1058 58.2165 64.987C58.1256 64.8683 58.012 64.7688 57.8823 64.6944C57.7526 64.62 57.6094 64.5721 57.461 64.5536C57.3127 64.5351 57.1621 64.5463 57.0181 64.5865H56.9876Z" fill="#2075BC"/>
<path d="M91.9232 34.6916L56.3099 13.2337C55.8119 12.9351 55.2421 12.7773 54.6614 12.7773C54.0807 12.7773 53.5108 12.9351 53.0128 13.2337L29.5066 27.4044C29.2563 27.5577 29.0757 27.8026 29.0032 28.087C28.9307 28.3714 28.972 28.6729 29.1183 28.9273C29.2729 29.1761 29.5178 29.3555 29.8016 29.4279C30.0855 29.5003 30.3863 29.4601 30.6412 29.3157L54.1474 15.1526C54.2913 15.0667 54.4557 15.0214 54.6233 15.0214C54.7909 15.0214 54.9553 15.0667 55.0992 15.1526L90.7125 36.6104C90.8438 36.6904 90.953 36.802 91.0302 36.935C91.1073 37.068 91.1499 37.2182 91.1542 37.3719V86.4325H89.319V38.6131C89.3232 38.5878 89.3232 38.5621 89.319 38.5369V38.4608C89.3181 38.443 89.3181 38.4252 89.319 38.4075C89.3233 38.3797 89.3233 38.3515 89.319 38.3237C89.2426 38.0386 89.0601 37.7934 88.8089 37.6384L55.2515 17.4217C55.0751 17.3133 54.8722 17.2559 54.6652 17.2559C54.4581 17.2559 54.2552 17.3133 54.0788 17.4217L20.5215 37.6384C20.3528 37.7393 20.213 37.882 20.1156 38.0528C20.0182 38.2235 19.9666 38.4165 19.9656 38.6131V86.4325H18.1533V37.4252C18.1576 37.2715 18.2002 37.1213 18.2773 36.9883C18.3545 36.8553 18.4637 36.7437 18.595 36.6637L26.141 32.095C26.2693 32.0183 26.3811 31.9169 26.4701 31.7968C26.5591 31.6768 26.6235 31.5403 26.6596 31.3952C26.6957 31.2502 26.7028 31.0994 26.6804 30.9516C26.6581 30.8038 26.6067 30.6619 26.5294 30.534C26.3717 30.2778 26.1194 30.094 25.8271 30.0228C25.5348 29.9515 25.2263 29.9984 24.9684 30.1533L17.4223 34.722C16.9571 35.0107 16.5731 35.4131 16.3066 35.8915C16.0401 36.3698 15.9 36.9081 15.8994 37.4556V87.5975C15.9014 87.8991 16.0227 88.1877 16.2366 88.4003C16.4506 88.6128 16.74 88.7321 17.0416 88.7321H92.3801C92.681 88.7321 92.9696 88.6126 93.1824 88.3998C93.3951 88.187 93.5147 87.8984 93.5147 87.5975V37.4252C93.5141 36.8777 93.374 36.3393 93.1075 35.861C92.841 35.3827 92.457 34.9802 91.9918 34.6916H91.9232ZM22.2423 79.3281V69.9622L22.8896 70.7237C23.3579 71.2953 23.9362 71.7671 24.5901 72.1111C25.2441 72.4551 25.9605 72.6643 26.6969 72.7263L32.8799 73.2213V75.5513C32.8799 76.1572 33.1206 76.7382 33.549 77.1666C33.9774 77.595 34.5584 77.8357 35.1643 77.8357H37.6771C38.2829 77.8357 38.864 77.595 39.2924 77.1666C39.7208 76.7382 39.9614 76.1572 39.9614 75.5513V73.7924L42.8778 74.0284V75.4828C42.8682 75.64 42.8915 75.7976 42.9462 75.9453C43.0008 76.0931 43.0856 76.2278 43.1952 76.341C43.3048 76.4542 43.4368 76.5433 43.5827 76.6027C43.7287 76.6621 43.8854 76.6904 44.0428 76.6859C44.3438 76.6859 44.6323 76.5663 44.8451 76.3536C45.0579 76.1408 45.1774 75.8522 45.1774 75.5513V74.2797L47.6522 74.4777C48.1144 74.8304 48.628 75.1103 49.1751 75.3076L52.8605 76.6859C53.0958 76.7754 53.3377 76.8467 53.5839 76.8991V79.3662L22.2423 79.3281ZM32.9027 32.8108H44.1114V37.1967H25.6308L32.9027 32.8108ZM43.9439 26.1632H65.3636L72.6355 30.5416H36.6415L43.9439 26.1632ZM80.8745 67.9063H85.8316L84.6818 69.315C84.4076 69.6519 84.0677 69.9296 83.6829 70.1312C83.298 70.3328 82.8762 70.454 82.4431 70.4876L63.559 72.0105C63.9115 71.1531 64.0501 70.2227 63.9626 69.2997L63.8407 67.9063H75.5671C75.8681 67.9063 76.1566 67.7868 76.3694 67.574C76.5822 67.3612 76.7017 67.0726 76.7017 66.7717C76.7017 66.4701 76.5824 66.1807 76.3699 65.9667C76.1573 65.7528 75.8688 65.6315 75.5671 65.6295H63.6275V65.4925L68.9577 62.4466C69.4063 62.197 69.7577 61.8035 69.9552 61.3296C70.1528 60.8558 70.185 60.3292 70.0466 59.8348C69.9206 59.3399 69.6324 58.9014 69.228 58.5894C68.8235 58.2775 68.3263 58.1101 67.8155 58.114L60.635 58.1673C59.2724 57.0883 57.5754 56.5199 55.8378 56.5606V53.4462C55.8358 53.1466 55.7154 52.86 55.5028 52.6489C55.2903 52.4378 55.0028 52.3193 54.7032 52.3193C54.4016 52.3193 54.1123 52.4385 53.8983 52.6511C53.6843 52.8637 53.5631 53.1522 53.5611 53.4538V56.5682C51.8235 56.5276 50.1265 57.0959 48.7639 58.1749L41.5833 58.1216C41.0636 58.1056 40.5539 58.2674 40.1385 58.5803C39.7232 58.8932 39.427 59.3384 39.299 59.8425C39.1606 60.3368 39.1928 60.8634 39.3903 61.3373C39.5879 61.8111 39.9393 62.2046 40.3879 62.4543L45.7181 65.5001V65.6371H22.2576V46.121H87.0956V65.6295H80.8821C80.5792 65.6295 80.2887 65.7499 80.0745 65.9641C79.8603 66.1783 79.7399 66.4688 79.7399 66.7717C79.7419 67.0707 79.861 67.357 80.0717 67.5691C80.2824 67.7813 80.5679 67.9023 80.8669 67.9063H80.8745ZM74.1661 73.4345V75.5818H71.6456V73.6401L74.1661 73.4345ZM55.7388 74.5233C55.3968 74.6466 55.0363 74.711 54.6728 74.7137C54.3067 74.7111 53.9437 74.6468 53.5991 74.5233L49.9213 73.1451C49.1949 72.8718 48.5781 72.3677 48.1655 71.7103C47.7529 71.0529 47.5672 70.2784 47.6369 69.5053L48.1852 63.566C48.3014 62.268 48.9 61.0607 49.8628 60.1825C50.8256 59.3042 52.0827 58.8188 53.3859 58.8221H55.952C57.2552 58.8188 58.5123 59.3042 59.4751 60.1825C60.438 61.0607 61.0366 62.268 61.1528 63.566L61.701 69.5053C61.7707 70.2784 61.5851 71.0529 61.1725 71.7103C60.7599 72.3677 60.1431 72.8718 59.4167 73.1451L55.7388 74.5233ZM26.8948 70.4876C26.4619 70.4532 26.0404 70.3315 25.6557 70.13C25.271 69.9285 24.931 69.6513 24.6562 69.315L23.5064 67.9063H45.5048L45.3754 69.2997C45.2915 70.2226 45.4299 71.1521 45.779 72.0105L26.8948 70.4876ZM37.6923 73.6401V75.5818H35.1719V73.4345L37.6923 73.6401ZM45.9617 62.9797L41.5148 60.4364C41.5066 60.4143 41.5066 60.39 41.5148 60.3679L46.7993 60.4059C46.3621 61.2047 46.0756 62.0772 45.9541 62.9797H45.9617ZM63.3762 62.9797C63.251 62.0722 62.962 61.195 62.5234 60.3907L67.8003 60.3526C67.8003 60.3526 67.8003 60.4059 67.8003 60.4136L63.3762 62.9797ZM58.6857 37.1663V32.7803H62.9574V37.1663H58.6857ZM52.929 37.1663V32.7803H56.4089V37.1663H52.929ZM46.3881 37.1663V32.7803H50.6675V37.1663H46.3881ZM65.2266 32.7803H76.4428L83.7071 37.1663H65.2266V32.7803ZM87.088 39.4354V43.8138H22.25V39.4354H87.088ZM55.8074 76.8306C56.0661 76.7784 56.3206 76.7072 56.5688 76.6173L60.2466 75.2391C60.7926 75.0394 61.3058 74.7597 61.7696 74.4091L64.2367 74.2111V75.4828C64.2387 75.7844 64.3599 76.073 64.5739 76.2855C64.7879 76.4981 65.0773 76.6174 65.3789 76.6173C65.6798 76.6173 65.9683 76.4978 66.1811 76.285C66.3939 76.0723 66.5134 75.7837 66.5134 75.4828V74.0284L69.4298 73.7924V75.5513C69.4298 76.1572 69.6705 76.7382 70.0989 77.1666C70.5273 77.595 71.1083 77.8357 71.7142 77.8357H74.2346C74.8405 77.8357 75.4215 77.595 75.8499 77.1666C76.2783 76.7382 76.519 76.1572 76.519 75.5513V73.2213L82.6944 72.7263C83.4305 72.6634 84.1466 72.4539 84.8005 72.1099C85.4544 71.766 86.0328 71.2947 86.5017 70.7237L87.1413 69.9622V79.3281H55.8607L55.8074 76.8306ZM54.7032 19.6985L61.6553 23.8865H47.7511L54.7032 19.6985ZM22.2804 81.6049H87.1184V86.4325H22.2804V81.6049Z" fill="#2075BC"/>
</g>
<path d="M89.4407 78.1398C89.2181 78.5324 88.8843 78.8504 88.4812 79.0535C88.2629 79.1436 88.0272 79.1838 87.7913 79.171C87.5555 79.1583 87.3255 79.0929 87.1181 78.9798C86.9108 78.8666 86.7314 78.7085 86.5931 78.5171C86.4548 78.3256 86.361 78.1056 86.3187 77.8733C86.2439 77.4332 86.2107 76.987 86.2197 76.5407C86.2197 67.5555 86.2197 58.5729 86.2197 49.5928C86.2526 49.3123 86.1871 49.0291 86.0343 48.7916C85.8815 48.5541 85.651 48.377 85.3821 48.2907C75.5238 43.7219 65.6782 39.1532 55.8452 34.5845C55.5934 34.4498 55.3122 34.3794 55.0266 34.3794C54.7411 34.3794 54.4599 34.4498 54.2081 34.5845C44.3447 39.1837 34.4762 43.7702 24.6027 48.344C24.3561 48.4277 24.1458 48.5938 24.0071 48.8142C23.8685 49.0347 23.8099 49.2961 23.8412 49.5547C23.8412 58.5551 23.8412 67.5581 23.8412 76.5635C23.8467 77.0098 23.8136 77.4556 23.7422 77.8961C23.6837 78.2798 23.4808 78.6267 23.1751 78.8659C22.8695 79.105 22.484 79.2185 22.0975 79.183C21.7107 79.1695 21.3422 79.0149 21.0617 78.7484C20.7811 78.4818 20.6078 78.1218 20.5745 77.7362C20.563 77.513 20.563 77.2893 20.5745 77.0661C20.5745 67.421 20.5745 57.7911 20.5745 48.1765C20.5376 47.6993 20.6594 47.2233 20.9211 46.8225C21.1828 46.4217 21.5696 46.1187 22.0213 45.9606C29.9557 42.2955 37.8774 38.6176 45.7864 34.9271C48.5048 33.6631 51.2308 32.4067 53.9416 31.1198C54.28 30.9473 54.6544 30.8574 55.0343 30.8574C55.4141 30.8574 55.7885 30.9473 56.1269 31.1198C64.5994 35.0794 73.0846 39.0288 81.5824 42.9681C83.7678 43.9884 85.9608 45.0164 88.1614 46.0139C88.704 46.2311 89.1592 46.6221 89.4559 47.1256L89.4407 78.1398Z" fill="#303B4D" stroke="white" stroke-width="0.48" stroke-miterlimit="10"/>
</svg>
