<svg width="110" height="111" viewBox="0 0 110 111" fill="none" xmlns="http://www.w3.org/2000/svg">
<path d="M91.2453 0.5H18.7547C8.39675 0.5 0 8.89676 0 19.2547V91.7453C0 102.103 8.39675 110.5 18.7547 110.5H91.2453C101.603 110.5 110 102.103 110 91.7453V19.2547C110 8.89676 101.603 0.5 91.2453 0.5Z" fill="white"/>
<path d="M84.9558 31.5443C84.5446 31.5443 84.4456 31.3235 84.4456 30.9732C84.4456 30.1051 84.4456 29.2371 84.4456 28.369C84.4456 27.501 84.1334 27.204 83.2806 27.1964H42.162C41.2787 27.1964 41.2787 27.1964 41.1264 26.3359C41.0217 25.8136 40.7342 25.3457 40.3155 25.0163C39.8968 24.6869 39.3743 24.5176 38.842 24.5389C35.0956 24.5389 31.3493 24.5389 27.6029 24.5389C27.1156 24.5389 26.6359 24.5389 26.1485 24.5389C25.5776 24.5409 25.0307 24.7686 24.627 25.1723C24.2233 25.576 23.9956 26.1229 23.9936 26.6938C23.9936 28.6888 23.9936 30.6838 23.9936 32.6789C23.9936 33.3642 24.3591 33.7373 24.9607 33.7297C25.5622 33.7221 25.882 33.349 25.8896 32.6408C25.8896 30.8666 25.8896 29.0924 25.8896 27.3106C25.8896 26.5491 26.0115 26.4426 26.7729 26.4349H38.3166C39.0781 26.4349 39.2075 26.5568 39.2075 27.303V38.9076C39.2075 39.6234 39.0704 39.7604 38.3547 39.7604H26.7577C25.9962 39.7604 25.8896 39.631 25.882 38.8695C25.882 38.4888 25.882 38.108 25.882 37.7197C25.8832 37.5981 25.8595 37.4776 25.8124 37.3655C25.7652 37.2534 25.6957 37.1522 25.6079 37.068C25.5202 36.9838 25.4161 36.9185 25.3022 36.8761C25.1883 36.8336 25.0668 36.8149 24.9454 36.8212C24.8235 36.8116 24.7009 36.8276 24.5856 36.8683C24.4702 36.9089 24.3647 36.9733 24.2758 37.0573C24.1868 37.1412 24.1164 37.2428 24.0691 37.3556C24.0219 37.4684 23.9987 37.5898 24.0012 37.7121C23.9631 38.3766 23.9631 39.0427 24.0012 39.7071C24.0138 40.0316 24.1101 40.3474 24.2809 40.6236C24.4517 40.8998 24.6912 41.1271 24.9759 41.2833C25.1786 41.3864 25.3437 41.5509 25.4476 41.7532C25.5515 41.9555 25.5889 42.1854 25.5546 42.4103C25.5546 52.0808 25.5546 61.7513 25.5546 71.4218C25.5546 75.9905 25.5546 80.5846 25.5546 85.2041C25.5205 85.4433 25.5521 85.6873 25.6459 85.91C25.7398 86.1326 25.8925 86.3256 26.0876 86.4682H31.8594C32.0635 86.3141 32.2082 86.0945 32.2693 85.8462C32.3303 85.5979 32.3039 85.3362 32.1945 85.1052C31.9584 84.5874 31.4787 84.6026 30.999 84.6026C30.0548 84.6026 29.1106 84.6026 28.1588 84.6026C27.7247 84.6026 27.5496 84.4503 27.5496 84.001C27.5496 78.0261 27.5496 72.0436 27.5496 66.0535C27.5496 65.5966 27.7552 65.4672 28.174 65.4672C32.9356 65.4672 37.6897 65.4672 42.4361 65.4672C42.9386 65.4672 43.1062 65.6652 43.1062 66.1525C43.1062 72.0665 43.1062 77.9881 43.1062 83.9173C43.1062 84.4427 42.9006 84.6102 42.3828 84.6102C40.6543 84.6102 38.9181 84.6102 37.1896 84.6102C36.7175 84.6102 36.2302 84.6102 35.9942 85.1127C35.8876 85.3443 35.8627 85.6052 35.9236 85.8528C35.9844 86.1003 36.1274 86.32 36.3292 86.4758H83.9583C84.1647 86.315 84.3234 86.1011 84.4173 85.8569C84.5112 85.6127 84.5368 85.3475 84.4913 85.0899V42.791C84.4913 42.5854 84.4913 42.3874 84.4913 42.1818C84.4913 41.8316 84.6284 41.6488 84.9939 41.6717C85.1958 41.6803 85.3964 41.6356 85.5756 41.542C85.7547 41.4485 85.906 41.3093 86.0142 41.1387V32.0697C85.9019 31.8945 85.7441 31.7532 85.5577 31.6606C85.3713 31.5681 85.1633 31.5279 84.9558 31.5443ZM42.7787 29.1076C49.18 29.1076 55.5839 29.1076 61.9903 29.1076C68.554 29.1076 75.1178 29.1076 81.6815 29.1076C82.542 29.1076 82.5496 29.1077 82.542 29.9833C82.542 31.7956 82.7857 31.5443 80.9734 31.5443H42.2533C41.3015 31.5443 41.2939 31.5443 41.3015 30.5696C41.3091 28.8868 41.0883 29.1 42.7787 29.1V29.1076ZM27.5115 42.4331C27.5115 41.961 27.679 41.7478 28.1435 41.7935C28.2856 41.8011 28.4279 41.8011 28.5699 41.7935H81.4988C82.542 41.7935 82.542 41.7935 82.542 42.8672V58.3933C82.542 59.2309 82.542 59.2308 81.6892 59.2308H73.6558C73.1989 59.2308 73.0162 59.1623 72.9629 58.8882H70.9298C70.8612 59.1547 70.6633 59.2461 70.313 59.2385C69.247 59.2385 68.1809 59.2385 67.1225 59.2385C66.0641 59.2385 64.9904 59.2385 63.9244 59.2385C63.5741 59.2385 63.3761 59.1547 63.3 58.8882H61.2669C61.1984 59.1699 60.9775 59.2308 60.6425 59.2308H49.3729C49.0379 59.2308 48.8323 59.1623 48.7714 58.8882H46.7231C46.6545 59.1471 46.4642 59.2385 46.1063 59.2385C43.9818 59.2385 41.8498 59.2385 39.7253 59.2385C39.375 59.2385 39.1694 59.1547 39.0933 58.8882H37.0602C36.9993 59.1471 36.8013 59.2308 36.4815 59.2308H28.1055C27.6638 59.2308 27.5039 59.0633 27.5039 58.6217C27.5191 53.2204 27.5217 47.8217 27.5115 42.4255V42.4331ZM64.2975 84.6178C63.935 84.5912 63.5711 84.5912 63.2086 84.6178C62.7441 84.6178 62.5538 84.4655 62.569 83.9934C62.569 82.9883 62.569 81.9832 62.569 80.9476C62.569 79.912 62.569 78.9373 62.569 77.9018C62.569 77.4297 62.7365 77.2545 63.201 77.2697C65.3635 77.3154 64.9904 76.9652 65.0133 79.0135C65.0133 80.6202 65.0133 82.2268 65.0133 83.8335C65.0361 84.4427 64.8457 84.6635 64.2975 84.6102V84.6178ZM82.5724 83.9173C82.5724 84.4427 82.4049 84.6254 81.8719 84.6254C77.1204 84.6254 72.3689 84.6254 67.6174 84.6254C67.1225 84.6254 66.9321 84.4732 66.9398 83.963C66.9398 82.7599 66.9398 81.5492 66.9398 80.3384C66.916 80.1306 66.9675 79.9211 67.0848 79.7479C67.2021 79.5747 67.3775 79.4493 67.5794 79.3942C71.3105 77.8155 75.034 76.2291 78.7499 74.6351C78.9914 74.5379 79.2255 74.4233 79.4505 74.2925C79.6365 74.1837 79.7758 74.0101 79.8418 73.805C79.9078 73.5999 79.8959 73.3776 79.8084 73.1807C79.7492 72.9618 79.6073 72.7744 79.4128 72.658C79.2182 72.5415 78.9861 72.5051 78.7652 72.5563C78.4715 72.6294 78.1858 72.7314 77.9123 72.8609L67.6479 77.2317C66.9474 77.5287 66.8864 77.5058 66.8864 76.7443C66.8864 75.6935 66.6123 75.4347 65.5539 75.4347H61.8075C60.9471 75.4347 60.6349 75.7544 60.6273 76.5997C60.6273 77.9703 60.7643 77.8485 59.3404 77.8561H49.1902C48.9898 77.8447 48.789 77.8447 48.5886 77.8561C48.4676 77.8599 48.3486 77.888 48.2386 77.9387C48.1286 77.9893 48.0299 78.0614 47.9482 78.1509C47.8666 78.2403 47.8037 78.3452 47.7633 78.4594C47.7229 78.5735 47.7058 78.6946 47.713 78.8155C47.7047 79.0506 47.7897 79.2794 47.9495 79.452C48.1093 79.6246 48.3308 79.727 48.5658 79.7369C48.7662 79.7482 48.967 79.7482 49.1673 79.7369C52.731 79.7369 56.3022 79.7369 59.8658 79.7369C60.4369 79.7369 60.6273 79.8968 60.6273 80.4983C60.5892 81.6633 60.6273 82.836 60.6273 84.001C60.6273 84.4351 60.4826 84.6178 60.0257 84.6178C55.2133 84.6178 50.3908 84.6178 45.5581 84.6178C45.1088 84.6178 44.9565 84.4351 44.9641 84.001C44.9641 78.0388 44.9641 72.0766 44.9641 66.1144C44.9641 65.4596 45.3448 65.4824 45.7941 65.4824H72.5593C72.841 65.4824 73.1304 65.4824 73.4121 65.4824C73.5377 65.4921 73.6639 65.4752 73.7826 65.433C73.9012 65.3907 74.0096 65.324 74.1008 65.2371C74.192 65.1502 74.2639 65.0451 74.3119 64.9287C74.3598 64.8122 74.3827 64.6869 74.3792 64.561C74.3896 64.4297 74.3713 64.2977 74.3256 64.1742C74.2798 64.0507 74.2076 63.9386 74.1141 63.8458C74.0206 63.753 73.908 63.6818 73.7841 63.637C73.6603 63.5922 73.5281 63.5749 73.3969 63.5864H28.471C27.4887 63.5864 27.4811 63.5864 27.4887 62.5889C27.4887 60.9441 27.2907 61.1497 28.9355 61.1497H81.6359C82.5115 61.1497 82.5191 61.1497 82.5115 62.0178C82.5115 63.8453 82.7552 63.5407 80.9886 63.594C80.3033 63.594 79.618 63.594 78.9403 63.594C78.8093 63.5798 78.6768 63.5938 78.5517 63.6352C78.4266 63.6766 78.3118 63.7443 78.2151 63.8337C78.1184 63.9232 78.042 64.0324 77.9911 64.154C77.9402 64.2755 77.9159 64.4065 77.9199 64.5382C77.9123 64.6705 77.9338 64.8029 77.9829 64.926C78.032 65.0491 78.1074 65.1599 78.204 65.2506C78.3006 65.3414 78.4159 65.4099 78.5418 65.4512C78.6677 65.4926 78.8011 65.5058 78.9327 65.49C79.9226 65.49 80.9049 65.49 81.8947 65.49C82.3973 65.49 82.5572 65.6652 82.5572 66.1601C82.5471 72.0741 82.5445 77.9906 82.5496 83.9097L82.5724 83.9173ZM83.3796 39.7528C76.4605 39.7528 69.5338 39.7528 62.5994 39.7528H42.0401C41.1797 39.7528 41.1797 39.7528 41.1797 38.8695C41.1797 37.3466 41.1797 35.7958 41.1797 34.217C41.1797 33.4556 41.1797 33.4556 41.9411 33.4556H83.2578C84.0877 33.4556 84.0877 33.4556 84.0954 34.3084C84.0954 35.877 84.0954 37.4532 84.0954 39.0218C84.141 39.6005 83.9354 39.7756 83.3567 39.768L83.3796 39.7528Z" fill="#303B4D"/>
<path d="M29.2402 33.1064V29.4209C29.2402 28.4996 29.522 28.2026 30.4586 28.1265C31.3617 28.0529 32.2699 28.0707 33.1694 28.1798C33.9639 28.31 34.6844 28.7233 35.198 29.3433C35.7117 29.9633 35.9837 30.7482 35.9639 31.553C35.94 32.3551 35.6284 33.1219 35.086 33.7132C34.5436 34.3046 33.8065 34.6811 33.0094 34.774C32.6135 34.8121 32.248 34.8349 31.8063 34.8425C31.7258 34.8318 31.6438 34.8401 31.5671 34.8669C31.4904 34.8937 31.421 34.9382 31.3647 34.9968C31.3083 35.0554 31.2666 35.1264 31.2428 35.2041C31.219 35.2818 31.2138 35.364 31.2276 35.4441C31.2276 35.9466 31.2276 36.4568 31.2276 36.967C31.1819 37.6904 30.7936 38.0711 30.1921 38.0483C29.5905 38.0254 29.2859 37.6218 29.2631 36.9289V33.1216L29.2402 33.1064ZM32.1871 30.0606C31.2276 30.0606 31.2276 30.0606 31.22 31.0428V31.5835C31.22 32.916 31.517 33.1064 32.8343 32.8323C33.1564 32.784 33.4496 32.6195 33.6587 32.3698C33.8677 32.1201 33.9781 31.8024 33.9689 31.4769C33.9765 30.5631 33.3826 30.0682 32.1871 30.0606Z" fill="#2075BC"/>
<path d="M62.5763 35.7713H79.8309C80.0516 35.7598 80.2727 35.7598 80.4934 35.7713C80.727 35.7926 80.9432 35.9037 81.0966 36.0812C81.25 36.2587 81.3285 36.4888 81.3157 36.7231C81.3179 36.9595 81.2275 37.1875 81.0639 37.3582C80.9003 37.5289 80.6764 37.6289 80.4401 37.6368C80.26 37.6481 80.0795 37.6481 79.8994 37.6368H45.276C45.0758 37.652 44.8747 37.652 44.6745 37.6368C44.4551 37.6101 44.2541 37.5007 44.1126 37.3309C43.9712 37.1611 43.8998 36.9437 43.913 36.7231C43.9037 36.607 43.9173 36.4902 43.9533 36.3795C43.9892 36.2687 44.0467 36.1662 44.1224 36.0777C44.1981 35.9893 44.2906 35.9166 44.3945 35.864C44.4984 35.8115 44.6116 35.7799 44.7278 35.7713C44.9686 35.7559 45.2103 35.7559 45.4512 35.7713H62.5763Z" fill="#303B4D"/>
<path d="M51.3679 49.873C51.6039 49.6903 51.8323 49.7893 52.0455 49.7664C52.2894 49.7606 52.5215 49.6606 52.6932 49.4874C52.865 49.3142 52.9631 49.0813 52.9669 48.8375C52.9734 48.5925 52.8852 48.3546 52.7207 48.173C52.5562 47.9915 52.328 47.8803 52.0836 47.8628C51.6344 47.8095 51.0937 48.0532 50.7435 47.7257C50.3932 47.3983 50.6521 46.8729 50.5759 46.4465C50.425 45.6688 50.0127 44.9661 49.4074 44.455C48.8022 43.944 48.0403 43.6552 47.2484 43.6367C44.3853 43.6367 41.5298 43.6367 38.6668 43.6367C37.77 43.6387 36.9105 43.9953 36.2756 44.6287C35.6408 45.2621 35.2823 46.1208 35.2783 47.0176C35.2783 47.8552 35.2783 47.8552 34.4331 47.8628C33.3518 47.8628 32.9102 48.1293 32.9102 48.807C32.9102 49.4847 33.2833 49.6979 34.3417 49.7741C34.3836 49.7821 34.4228 49.8005 34.4559 49.8274C34.4559 50.0101 34.2732 50.0786 34.1742 50.1852C33.8258 50.538 33.5513 50.9568 33.367 51.4171C33.1826 51.8774 33.092 52.3698 33.1005 52.8656C33.0712 53.5489 33.0916 54.2335 33.1614 54.9139C33.3033 55.7238 33.7114 56.4632 34.3211 57.0149C34.9307 57.5666 35.7071 57.8991 36.5271 57.9597C37.0296 58.0054 37.1134 58.2414 37.1058 58.6679C37.1151 58.7361 37.1151 58.8053 37.1058 58.8735H39.1389C39.126 58.7825 39.126 58.6903 39.1389 58.5994C39.1389 58.1273 39.3292 57.9673 39.7937 57.975C40.8521 57.975 41.9182 57.975 42.9842 57.975C44.0503 57.975 45.1087 57.975 46.1747 57.975C46.624 57.975 46.8372 58.112 46.8372 58.5917C46.8423 58.6872 46.8294 58.7828 46.7991 58.8735H48.8474C48.8342 58.7953 48.8342 58.7155 48.8474 58.6374C48.8474 58.1958 48.9693 58.0054 49.4566 57.9597C50.3883 57.8757 51.2545 57.4448 51.8835 56.7524C52.5125 56.0599 52.8584 55.1564 52.8527 54.221C52.8527 54.0154 52.8527 53.8174 52.8527 53.6118C52.9454 52.9137 52.8576 52.2034 52.5977 51.5488C52.3377 50.8943 51.9143 50.3173 51.3679 49.873ZM37.1895 47.1699C37.1821 46.9559 37.2188 46.7426 37.2973 46.5434C37.3757 46.3442 37.4944 46.1633 37.6458 46.0119C37.7972 45.8604 37.9781 45.7418 38.1774 45.6633C38.3766 45.5848 38.5898 45.5481 38.8038 45.5556C41.5603 45.5556 44.3168 45.5556 47.0656 45.5556C47.2719 45.5453 47.4782 45.577 47.6718 45.6489C47.8655 45.7208 48.0425 45.8313 48.1921 45.9738C48.3416 46.1162 48.4607 46.2877 48.5419 46.4776C48.6232 46.6675 48.665 46.8719 48.6647 47.0785C48.6914 47.5985 48.6914 48.1195 48.6647 48.6395C48.6647 49.0735 48.3601 49.0964 48.0327 49.0887H42.8472C41.1796 49.0887 39.512 49.0887 37.8444 49.0887C37.3114 49.0887 37.0829 48.8984 37.1515 48.3806C37.22 47.8628 37.1895 47.5354 37.1895 47.1699ZM47.9489 56.0941C46.2585 56.0256 44.5681 56.0941 42.8776 56.0941H37.2581C36.9522 56.1401 36.6398 56.1146 36.3454 56.0195C36.051 55.9245 35.7826 55.7626 35.5613 55.5464C35.34 55.3303 35.1718 55.0658 35.0698 54.7738C34.9679 54.4817 34.935 54.17 34.9737 53.8631C34.9737 53.6042 34.9737 53.3377 34.9737 53.1016C34.958 52.8225 35.0017 52.5433 35.1021 52.2824C35.2024 52.0216 35.3571 51.785 35.5559 51.5884C35.7546 51.3918 35.9928 51.2398 36.2548 51.1423C36.5167 51.0448 36.7964 51.004 37.0753 51.0228C40.9588 51.0228 44.8447 51.0228 48.7332 51.0228C49.0112 51.0067 49.2895 51.0489 49.5501 51.1467C49.8108 51.2446 50.0481 51.3959 50.2468 51.591C50.4455 51.7861 50.6011 52.0206 50.7037 52.2795C50.8063 52.5383 50.8535 52.8158 50.8424 53.094C51.01 55.2946 50.2714 56.1931 47.9565 56.0941H47.9489Z" fill="#2075BC"/>
<path d="M38.8724 53.5041C38.882 53.629 38.8653 53.7546 38.8235 53.8727C38.7817 53.9908 38.7156 54.0989 38.6296 54.1899C38.5436 54.281 38.4394 54.3531 38.3239 54.4015C38.2083 54.4499 38.0839 54.4737 37.9586 54.4712C37.8334 54.4733 37.7091 54.45 37.5931 54.4028C37.4771 54.3557 37.3718 54.2855 37.2836 54.1966C37.1954 54.1077 37.1261 54.0019 37.0798 53.8855C37.0336 53.7691 37.0113 53.6445 37.0144 53.5193C37.0123 53.2768 37.1051 53.0431 37.273 52.8681C37.4409 52.6931 37.6706 52.5907 37.913 52.5828C38.0382 52.573 38.1641 52.5899 38.2823 52.6322C38.4006 52.6745 38.5086 52.7414 38.5992 52.8284C38.6898 52.9154 38.761 53.0206 38.8081 53.137C38.8551 53.2535 38.8771 53.3786 38.8724 53.5041Z" fill="#2075BC"/>
<path d="M48.8698 53.5118C48.8739 53.637 48.8527 53.7617 48.8074 53.8785C48.762 53.9952 48.6936 54.1016 48.6061 54.1912C48.5186 54.2808 48.4139 54.3518 48.2983 54.4C48.1826 54.4481 48.0585 54.4723 47.9332 54.4712C47.8128 54.4764 47.6925 54.457 47.5799 54.414C47.4673 54.3709 47.3646 54.3053 47.2783 54.2211C47.192 54.1369 47.1238 54.036 47.078 53.9245C47.0322 53.813 47.0097 53.6932 47.0119 53.5727C46.9979 53.4477 47.0105 53.3211 47.049 53.2013C47.0875 53.0815 47.1509 52.9712 47.2351 52.8777C47.3192 52.7842 47.4222 52.7096 47.5373 52.6587C47.6524 52.6079 47.777 52.582 47.9028 52.5828C48.0279 52.5777 48.1528 52.5979 48.27 52.6423C48.3871 52.6867 48.4941 52.7543 48.5844 52.8411C48.6748 52.9278 48.7466 53.032 48.7956 53.1473C48.8447 53.2625 48.8699 53.3865 48.8698 53.5118Z" fill="#2075BC"/>
<path d="M75.4374 49.7588C75.8258 49.7588 76.0466 49.7588 76.2674 49.7588C76.5112 49.745 76.7397 49.6359 76.9036 49.4549C77.0674 49.2739 77.1535 49.0357 77.1431 48.7918C77.1417 48.5569 77.0513 48.3313 76.8903 48.1604C76.7292 47.9894 76.5094 47.8858 76.275 47.8704C75.8182 47.8095 75.2851 48.0456 74.9273 47.7334C74.5694 47.4212 74.8283 46.8881 74.7521 46.4617C74.6075 45.6825 74.1995 44.9766 73.5965 44.4623C72.9935 43.948 72.2321 43.6566 71.4398 43.6367C68.5564 43.6367 65.6756 43.6367 62.7973 43.6367C61.9111 43.6506 61.0654 44.0103 60.4409 44.6392C59.8163 45.268 59.4623 46.1161 59.4545 47.0023C59.4545 47.8552 59.4545 47.8552 58.6245 47.8628C57.528 47.8628 57.1016 48.1217 57.1016 48.7918C57.1016 49.4619 57.4671 49.7055 58.5788 49.7817C58.5788 49.7817 58.5788 49.7817 58.6397 49.7817C58.6397 49.9949 58.4417 50.0634 58.3275 50.1928C57.6501 50.8987 57.2757 51.8416 57.2843 52.8199C57.2843 53.2844 57.2843 53.7412 57.2843 54.2057C57.2809 55.1423 57.6298 56.0459 58.2617 56.7371C58.8937 57.4283 59.7625 57.8566 60.6956 57.9368C61.1906 57.9825 61.2896 58.1958 61.2896 58.6298C61.2983 58.7031 61.2983 58.7773 61.2896 58.8506H63.3227C63.3098 58.7597 63.3098 58.6674 63.3227 58.5765C63.3227 58.0968 63.5206 57.9445 63.9775 57.9521C66.1096 57.9521 68.2366 57.9521 70.3585 57.9521C70.8154 57.9521 71.021 58.0892 71.021 58.5689C71.0261 58.6643 71.0132 58.7599 70.9829 58.8506H72.9779C72.9614 58.7166 72.9614 58.5811 72.9779 58.4471C72.9737 58.3829 72.9828 58.3185 73.0048 58.2581C73.0267 58.1976 73.0609 58.1425 73.1053 58.0959C73.1497 58.0494 73.2032 58.0126 73.2626 57.9878C73.3219 57.9631 73.3858 57.9509 73.45 57.9521C73.9502 57.9263 74.4401 57.8002 74.8906 57.5814C75.3411 57.3627 75.7431 57.0556 76.0726 56.6784C76.4022 56.3013 76.6526 55.8618 76.809 55.386C76.9654 54.9103 77.0247 54.4079 76.9832 53.9088C77.0075 53.3245 76.9897 52.7392 76.9299 52.1574C76.7442 51.2016 76.2129 50.3477 75.4374 49.7588ZM61.3657 47.246C61.3504 47.0227 61.3825 46.7986 61.4601 46.5886C61.5377 46.3786 61.6589 46.1874 61.8158 46.0277C61.9726 45.8679 62.1615 45.7433 62.3701 45.6619C62.5787 45.5805 62.8021 45.5443 63.0257 45.5556C65.7593 45.5556 68.493 45.5556 71.2266 45.5556C71.4345 45.5464 71.6421 45.5787 71.8374 45.6506C72.0327 45.7224 72.2118 45.8324 72.3641 45.9742C72.5165 46.1159 72.6391 46.2865 72.7249 46.4761C72.8107 46.6657 72.8579 46.8705 72.8637 47.0785C73.0998 49.0126 73.0617 49.0507 71.12 49.0507H62.1881C61.3657 49.0507 61.3657 49.0507 61.3657 48.1978C61.3657 47.8933 61.3505 47.5354 61.3657 47.246ZM72.1023 56.0941C70.4347 56.018 68.7595 56.0941 67.0919 56.0941H61.4723C59.9494 56.0941 59.188 55.3327 59.188 53.8098C59.188 53.528 59.188 53.2463 59.188 52.9646C59.1805 52.7002 59.2273 52.4372 59.3255 52.1917C59.4237 51.9462 59.5712 51.7234 59.7589 51.5372C59.9466 51.3509 60.1705 51.2051 60.4167 51.1088C60.663 51.0125 60.9263 50.9677 61.1906 50.9771C65.1349 50.9771 69.0818 50.9771 73.0312 50.9771C73.2949 50.9689 73.5575 51.0142 73.8031 51.1104C74.0487 51.2065 74.2723 51.3516 74.4602 51.5367C74.6482 51.7218 74.7966 51.9431 74.8965 52.1872C74.9964 52.4313 75.0457 52.6932 75.0415 52.9569C75.1785 55.1499 74.6455 56.2007 72.1023 56.0941Z" fill="#2075BC"/>
<path d="M73.0463 53.5362C73.0474 53.6614 73.0232 53.7856 72.975 53.9012C72.9269 54.0168 72.8559 54.1216 72.7663 54.2091C72.6767 54.2966 72.5703 54.365 72.4535 54.4103C72.3368 54.4556 72.2121 54.4769 72.0869 54.4728C71.966 54.4761 71.8458 54.4543 71.7338 54.4089C71.6217 54.3635 71.5203 54.2954 71.4359 54.2088C71.3515 54.1223 71.2859 54.0192 71.2433 53.906C71.2007 53.7929 71.182 53.6721 71.1884 53.5514C71.1776 53.4262 71.1934 53.3002 71.2347 53.1815C71.2761 53.0629 71.3421 52.9543 71.4284 52.863C71.5147 52.7717 71.6193 52.6996 71.7355 52.6516C71.8516 52.6036 71.9765 52.5807 72.1021 52.5844C72.2273 52.5823 72.3517 52.6055 72.4677 52.6527C72.5837 52.6999 72.6889 52.7701 72.7771 52.859C72.8653 52.9479 72.9346 53.0537 72.9809 53.1701C73.0272 53.2865 73.0494 53.411 73.0463 53.5362Z" fill="#2075BC"/>
<path d="M63.0789 53.4907C63.0906 53.6155 63.0761 53.7414 63.0362 53.8603C62.9963 53.9791 62.9319 54.0883 62.8473 54.1809C62.7627 54.2734 62.6596 54.3472 62.5448 54.3975C62.4299 54.4478 62.3058 54.4735 62.1804 54.4729C62.0553 54.477 61.9305 54.4558 61.8138 54.4105C61.697 54.3651 61.5906 54.2967 61.501 54.2092C61.4114 54.1217 61.3404 54.017 61.2923 53.9014C61.2441 53.7857 61.2199 53.6616 61.221 53.5363C61.2179 53.4111 61.2401 53.2866 61.2864 53.1702C61.3327 53.0539 61.402 52.948 61.4902 52.8591C61.5784 52.7702 61.6836 52.7001 61.7996 52.6529C61.9156 52.6057 62.04 52.5824 62.1652 52.5845C62.2857 52.5803 62.4057 52.6008 62.518 52.6448C62.6302 52.6887 62.7323 52.7552 62.8179 52.8401C62.9035 52.925 62.9708 53.0265 63.0157 53.1384C63.0606 53.2503 63.0821 53.3701 63.0789 53.4907Z" fill="#2075BC"/>
</svg>
