<svg width="37" height="36" viewBox="0 0 37 36" fill="none" xmlns="http://www.w3.org/2000/svg">
<g id="icon-park-outline:right">
<g clip-path="url(#clip0_2035_5567)">
<rect width="36" height="36" rx="18" transform="matrix(-1 0 0 1 36.5 0)" fill="white" fill-opacity="0.7"/>
<g id="Vector (Stroke)" filter="url(#filter0_d_2035_5567)">
<path fill-rule="evenodd" clip-rule="evenodd" d="M23.2604 9.23964C22.9408 8.92012 22.4228 8.92012 22.1033 9.23964L13.9215 17.4215C13.6019 17.741 13.6019 18.259 13.9215 18.5785L22.1033 26.7604C22.4228 27.0799 22.9408 27.0799 23.2604 26.7604C23.5799 26.4408 23.5799 25.9228 23.2604 25.6033L15.6571 18L23.2604 10.3967C23.5799 10.0772 23.5799 9.55916 23.2604 9.23964Z" fill="#919191"/>
</g>
</g>
<rect x="-0.5" y="0.5" width="35" height="35" rx="17.5" transform="matrix(-1 0 0 1 35.5 0)" stroke="#D7E6F1"/>
</g>
<defs>
<filter id="filter0_d_2035_5567" x="-13.3184" y="-18" width="63.8184" height="72" filterUnits="userSpaceOnUse" color-interpolation-filters="sRGB">
<feFlood flood-opacity="0" result="BackgroundImageFix"/>
<feColorMatrix in="SourceAlpha" type="matrix" values="0 0 0 0 0 0 0 0 0 0 0 0 0 0 0 0 0 0 127 0" result="hardAlpha"/>
<feOffset/>
<feGaussianBlur stdDeviation="13.5"/>
<feComposite in2="hardAlpha" operator="out"/>
<feColorMatrix type="matrix" values="0 0 0 0 0.109804 0 0 0 0 0.458824 0 0 0 0 0.737255 0 0 0 1 0"/>
<feBlend mode="normal" in2="BackgroundImageFix" result="effect1_dropShadow_2035_5567"/>
<feBlend mode="normal" in="SourceGraphic" in2="effect1_dropShadow_2035_5567" result="shape"/>
</filter>
<clipPath id="clip0_2035_5567">
<rect width="36" height="36" rx="18" transform="matrix(-1 0 0 1 36.5 0)" fill="white"/>
</clipPath>
</defs>
</svg>
