<svg width="50" height="50" viewBox="0 0 50 50" fill="none" xmlns="http://www.w3.org/2000/svg">
<g id="eva:arrow-left-fill">
<rect width="50" height="50" rx="25" transform="matrix(1 -8.74228e-08 -8.74228e-08 -1 0 50)" fill="white" fill-opacity="0.5"/>
<path id="Vector" d="M28.2083 12.5C27.2222 12.4988 26.2658 12.8372 25.5 13.4583L14.875 22.2292C14.4583 22.5609 14.1218 22.9823 13.8906 23.462C13.6593 23.9417 13.5392 24.4674 13.5392 25C13.5392 25.5326 13.6593 26.0583 13.8906 26.538C14.1218 27.0177 14.4583 27.4391 14.875 27.7708L25.5 36.5417C26.1396 37.0542 26.9104 37.3767 27.7244 37.4725C28.5384 37.5682 29.363 37.4334 30.1041 37.0833C30.7483 36.7994 31.297 36.3361 31.6849 35.7487C32.0728 35.1613 32.2834 34.4747 32.2916 33.7708L32.2916 16.2292C32.2834 15.5253 32.0728 14.8387 31.6849 14.2513C31.297 13.6639 30.7483 13.2006 30.1041 12.9167C29.5092 12.644 28.8628 12.502 28.2083 12.5Z" fill="black" fill-opacity="0.5"/>
</g>
</svg>
