<svg width="50" height="50" viewBox="0 0 50 50" fill="none" xmlns="http://www.w3.org/2000/svg">
<g id="eva:arrow-left-fill">
<rect x="50" y="50" width="50" height="50" rx="25" transform="rotate(-180 50 50)" fill="white" fill-opacity="0.5"/>
<path id="Vector" d="M21.7917 12.5C22.7777 12.4988 23.7341 12.8372 24.5 13.4583L35.125 22.2292C35.5417 22.5609 35.8781 22.9823 36.1094 23.462C36.3407 23.9417 36.4608 24.4674 36.4608 25C36.4608 25.5326 36.3407 26.0583 36.1094 26.538C35.8781 27.0177 35.5417 27.4391 35.125 27.7708L24.5 36.5417C23.8604 37.0542 23.0896 37.3767 22.2756 37.4725C21.4615 37.5682 20.637 37.4334 19.8958 37.0833C19.2517 36.7994 18.7029 36.3361 18.3151 35.7487C17.9272 35.1613 17.7165 34.4747 17.7083 33.7708L17.7083 16.2292C17.7165 15.5253 17.9272 14.8387 18.3151 14.2513C18.7029 13.6639 19.2517 13.2006 19.8958 12.9167C20.4908 12.644 21.1372 12.502 21.7917 12.5Z" fill="black" fill-opacity="0.5"/>
</g>
</svg>
